<svg width="524" height="500" viewBox="0 0 524 500" fill="none" xmlns="http://www.w3.org/2000/svg">
<path d="M274 477.02C397.38 477.02 497.4 418.271 497.4 345.8C497.4 273.329 397.38 214.58 274 214.58C150.62 214.58 50.6001 273.329 50.6001 345.8C50.6001 418.271 150.62 477.02 274 477.02Z" fill="#F5F5F5"/>
<path d="M118 345.91C130.92 353.37 130.92 365.47 118 372.91C105.08 380.35 84.1099 380.37 71.1799 372.91C58.2499 365.45 58.2499 353.34 71.1799 345.91C84.1099 338.48 105 338.44 118 345.91Z" fill="#E0E0E0"/>
<path d="M146.34 363.06L263.6 430.76C264.942 431.441 266.425 431.796 267.93 431.796C269.435 431.796 270.918 431.441 272.26 430.76L470.76 316.16C473.15 314.78 473.15 312.54 470.76 311.16L353.5 243.45C352.158 242.769 350.675 242.414 349.17 242.414C347.665 242.414 346.182 242.769 344.84 243.45L146.34 358.06C143.94 359.44 143.94 361.68 146.34 363.06Z" fill="#E0E0E0"/>
<path d="M442.28 291.88L434.11 287.16C434.11 287.16 429.24 266.95 431.18 248.77C433.91 223.21 447.66 212.08 457.13 215.77C463.43 218.25 465.38 225.41 454.79 240.64C448.55 249.65 440.88 268.35 442.28 291.88Z" fill="#5D9D9F"/>
<g opacity="0.3">
<path d="M442.28 291.88L434.11 287.16C434.11 287.16 429.24 266.95 431.18 248.77C433.91 223.21 447.66 212.08 457.13 215.77C463.43 218.25 465.38 225.41 454.79 240.64C448.55 249.65 440.88 268.35 442.28 291.88Z" fill="black"/>
</g>
<path d="M438.89 282H439C439.073 281.987 439.143 281.959 439.205 281.919C439.268 281.878 439.322 281.826 439.363 281.764C439.405 281.703 439.435 281.634 439.449 281.561C439.464 281.488 439.465 281.413 439.45 281.34C434.97 257.77 443.21 231.27 453.45 220.25C453.547 220.138 453.596 219.992 453.588 219.844C453.579 219.696 453.513 219.557 453.404 219.457C453.295 219.357 453.151 219.303 453.002 219.307C452.854 219.312 452.713 219.374 452.61 219.48C442.23 230.71 433.83 257.63 438.38 281.55C438.402 281.671 438.465 281.782 438.557 281.863C438.65 281.945 438.767 281.993 438.89 282Z" fill="white"/>
<path d="M463.68 304.24C464.97 304.89 468.4 301.95 469.36 301.24C470.998 299.997 472.289 298.355 473.11 296.47C474.023 294.328 474.25 291.956 473.76 289.68C473.509 288.478 473.175 287.295 472.76 286.14L471.59 282.72C471.127 281.619 470.892 280.435 470.9 279.24C471.08 276.84 473.11 275.07 474.96 273.54C476.96 271.84 479.1 269.63 478.96 266.77C478.692 264.554 477.697 262.49 476.13 260.9C474.68 259.24 472.97 257.79 471.64 256.02C470.604 254.792 470.018 253.247 469.98 251.64C470.062 250.65 470.344 249.687 470.81 248.81C471.882 246.98 472.805 245.068 473.57 243.09C474.17 241.09 473.94 238.56 472.31 237.21C470.96 236.1 469.05 236.03 467.31 236.21C465.695 236.491 464.16 237.119 462.81 238.05C458.39 240.81 456.07 246.33 451.34 248.51C449.457 249.204 447.534 249.782 445.58 250.24C443.66 250.85 441.73 251.94 440.93 253.77C439.33 257.4 442.84 261.59 441.78 265.41C440.85 268.79 437.69 270.22 436.03 273.31C435.35 274.666 435.129 276.207 435.4 277.7C435.683 280.231 436.429 282.688 437.6 284.95C438.915 287.276 440.374 289.517 441.97 291.66C441.97 291.66 463.48 304.14 463.68 304.24Z" fill="#5D9D9F"/>
<g opacity="0.15">
<path d="M463.68 304.24C464.97 304.89 468.4 301.95 469.36 301.24C470.998 299.997 472.289 298.355 473.11 296.47C474.023 294.328 474.25 291.956 473.76 289.68C473.509 288.478 473.175 287.295 472.76 286.14L471.59 282.72C471.127 281.619 470.892 280.435 470.9 279.24C471.08 276.84 473.11 275.07 474.96 273.54C476.96 271.84 479.1 269.63 478.96 266.77C478.692 264.554 477.697 262.49 476.13 260.9C474.68 259.24 472.97 257.79 471.64 256.02C470.604 254.792 470.018 253.247 469.98 251.64C470.062 250.65 470.344 249.687 470.81 248.81C471.882 246.98 472.805 245.068 473.57 243.09C474.17 241.09 473.94 238.56 472.31 237.21C470.96 236.1 469.05 236.03 467.31 236.21C465.695 236.491 464.16 237.119 462.81 238.05C458.39 240.81 456.07 246.33 451.34 248.51C449.457 249.204 447.534 249.782 445.58 250.24C443.66 250.85 441.73 251.94 440.93 253.77C439.33 257.4 442.84 261.59 441.78 265.41C440.85 268.79 437.69 270.22 436.03 273.31C435.35 274.666 435.129 276.207 435.4 277.7C435.683 280.231 436.429 282.688 437.6 284.95C438.915 287.276 440.374 289.517 441.97 291.66C441.97 291.66 463.48 304.14 463.68 304.24Z" fill="black"/>
</g>
<path d="M451.17 297.72C451.245 297.714 451.318 297.693 451.385 297.658C451.452 297.623 451.511 297.576 451.559 297.518C451.608 297.461 451.644 297.394 451.667 297.322C451.689 297.25 451.697 297.175 451.69 297.1C449.62 274.68 458.96 249.34 466.29 241.74C466.353 241.69 466.405 241.626 466.441 241.554C466.478 241.482 466.499 241.404 466.503 241.323C466.507 241.242 466.494 241.162 466.464 241.087C466.435 241.011 466.39 240.943 466.332 240.887C466.274 240.831 466.205 240.787 466.129 240.76C466.053 240.732 465.972 240.721 465.892 240.727C465.811 240.733 465.733 240.756 465.662 240.794C465.591 240.833 465.529 240.886 465.48 240.95C457.99 248.7 448.48 274.47 450.56 297.2C450.573 297.35 450.644 297.488 450.758 297.585C450.873 297.683 451.021 297.731 451.17 297.72Z" fill="white"/>
<path d="M453.4 270.07H453.57C458.817 268.329 464.24 267.172 469.74 266.62C469.89 266.605 470.027 266.531 470.123 266.415C470.219 266.299 470.264 266.15 470.25 266C470.247 265.925 470.228 265.852 470.195 265.785C470.161 265.718 470.115 265.659 470.057 265.611C470 265.563 469.933 265.528 469.861 265.507C469.79 265.486 469.714 265.48 469.64 265.49C464.043 266.06 458.524 267.237 453.18 269C453.056 269.049 452.953 269.14 452.889 269.258C452.825 269.375 452.805 269.511 452.831 269.642C452.857 269.773 452.928 269.89 453.033 269.974C453.137 270.058 453.267 270.102 453.4 270.1V270.07Z" fill="white"/>
<path d="M150.34 350.62C150.463 352.281 150.975 353.89 151.835 355.316C152.695 356.742 153.879 357.946 155.29 358.83L263 421C264.534 421.772 266.228 422.174 267.945 422.174C269.663 422.174 271.356 421.772 272.89 421L462.5 311.53C463.995 310.742 465.247 309.561 466.12 308.114C466.993 306.668 467.454 305.01 467.454 303.32C467.454 301.63 466.993 299.972 466.12 298.526C465.247 297.079 463.995 295.898 462.5 295.11L354.81 232.92C353.278 232.141 351.584 231.735 349.865 231.735C348.147 231.735 346.452 232.141 344.92 232.92L155.29 342.4C153.879 343.286 152.695 344.492 151.835 345.92C150.975 347.348 150.463 348.958 150.34 350.62Z" fill="#37474F"/>
<path d="M155.29 348.11L263 410.3C264.532 411.079 266.227 411.485 267.945 411.485C269.664 411.485 271.358 411.079 272.89 410.3L462.5 300.82C465.24 299.24 465.24 296.68 462.5 295.11L354.81 232.92C353.278 232.141 351.584 231.735 349.865 231.735C348.147 231.735 346.452 232.141 344.92 232.92L155.29 342.4C152.56 344 152.56 346.54 155.29 348.11Z" fill="#455A64"/>
<path d="M267.93 411.49V422.2C266.19 422.245 264.467 421.838 262.93 421.02L155.29 358.83C153.839 358.067 152.617 356.933 151.748 355.544C150.879 354.154 150.394 352.559 150.343 350.921C150.292 349.283 150.677 347.66 151.459 346.219C152.24 344.779 153.389 343.571 154.79 342.72C152.57 344.31 152.79 346.64 155.29 348.12L263 410.31C264.518 411.112 266.214 411.518 267.93 411.49Z" fill="#263238"/>
<path d="M145.7 342.58C143.14 341.1 143.28 338.58 143.28 335.45V186.7C143.384 184.98 143.891 183.308 144.759 181.819C145.628 180.331 146.834 179.067 148.28 178.13L337.86 68.65C339.331 67.8706 340.964 67.4482 342.629 67.417C344.293 67.3857 345.941 67.7464 347.44 68.47C350.01 69.95 349.87 72.47 349.87 75.61V224.35C349.777 226.067 349.28 227.738 348.42 229.227C347.56 230.716 346.361 231.981 344.92 232.92L155.29 342.4C153.818 343.182 152.183 343.605 150.517 343.637C148.85 343.668 147.2 343.306 145.7 342.58Z" fill="#37474F"/>
<path d="M349.87 75.6C349.87 72.45 347.65 71.18 344.92 72.75L155.29 182.24C153.825 183.148 152.619 184.419 151.79 185.93L144.74 181.83C145.571 180.317 146.776 179.043 148.24 178.13L337.85 68.65C339.322 67.8682 340.957 67.4445 342.624 67.4132C344.29 67.382 345.94 67.744 347.44 68.47C350 70 349.87 72.45 349.87 75.6Z" fill="#455A64"/>
<path d="M154.71 342.7C153.293 343.34 151.752 343.66 150.197 343.64C148.642 343.619 147.11 343.257 145.71 342.58C143.15 341.1 143.28 338.58 143.28 335.45V186.7C143.336 184.979 143.836 183.301 144.73 181.83L151.79 185.92C150.902 187.394 150.403 189.07 150.34 190.79V339.55C150.34 342.47 152.25 343.79 154.71 342.7Z" fill="#263238"/>
<path d="M158 187.94L340.78 82.41C342.42 81.41 343.78 82.23 343.78 84.12V214C343.721 215.033 343.419 216.037 342.897 216.93C342.376 217.824 341.65 218.581 340.78 219.14L158 324.64C156.36 325.58 155 324.82 155 322.92V193.08C155.06 192.048 155.363 191.044 155.885 190.151C156.406 189.258 157.131 188.5 158 187.94Z" fill="#FAFAFA"/>
<path d="M169 342.7L345 241.07C345.765 240.68 346.612 240.477 347.47 240.477C348.329 240.477 349.175 240.68 349.94 241.07L352.87 242.68C354.24 243.47 354.24 244.75 352.87 245.54L176.87 347.14C176.097 347.537 175.24 347.745 174.37 347.745C173.501 347.745 172.644 347.537 171.87 347.14L168.97 345.55C167.61 344.76 167.61 343.48 169 342.7Z" fill="#263238"/>
<path d="M182.78 350.9L358.78 249.28C359.462 248.889 360.226 248.664 361.01 248.62C361.795 248.577 362.579 248.717 363.3 249.03L409.11 275.49C410.24 276.14 410.05 277.31 408.69 278.1L232.9 379.58C232.216 379.969 231.451 380.195 230.665 380.24C229.88 380.285 229.094 380.148 228.37 379.84L182.37 353.51C181.23 352.86 181.42 351.69 182.78 350.9Z" fill="#263238"/>
<path d="M335.3 292L340.82 288.82C341.05 288.69 341.07 288.48 340.82 288.36L335.55 285.36C335.426 285.298 335.289 285.266 335.15 285.266C335.011 285.266 334.874 285.298 334.75 285.36L329.24 288.55C329 288.68 328.98 288.89 329.24 289.01L334.51 292.01C334.633 292.071 334.769 292.102 334.906 292.1C335.043 292.098 335.178 292.064 335.3 292ZM327.3 281L321.79 284.18C321.55 284.31 321.53 284.52 321.74 284.64L327.01 287.64C327.134 287.702 327.271 287.734 327.41 287.734C327.549 287.734 327.686 287.702 327.81 287.64L333.32 284.45C333.56 284.32 333.58 284.11 333.37 283.99L328.1 280.99C327.97 280.921 327.826 280.885 327.679 280.887C327.532 280.889 327.388 280.928 327.26 281H327.3ZM309.49 291.28L300.17 296.66C299.93 296.79 299.91 297 300.12 297.12L305.39 300.17C305.514 300.232 305.651 300.264 305.79 300.264C305.929 300.264 306.066 300.232 306.19 300.17L315.52 294.78C315.75 294.65 315.77 294.44 315.52 294.32L310.24 291.32C310.124 291.245 309.992 291.199 309.855 291.185C309.717 291.171 309.579 291.19 309.45 291.24L309.49 291.28ZM319.24 285.65L313.73 288.83C313.5 288.96 313.48 289.17 313.68 289.29L318.96 292.29C319.084 292.352 319.221 292.384 319.36 292.384C319.499 292.384 319.636 292.352 319.76 292.29L325.27 289.1C325.5 288.97 325.52 288.76 325.27 288.64L319.99 285.64C319.87 285.573 319.736 285.535 319.599 285.53C319.461 285.525 319.325 285.552 319.2 285.61L319.24 285.65ZM297.62 298.13L292.11 301.31C291.88 301.45 291.86 301.65 292.06 301.77L297.34 304.77C297.464 304.831 297.601 304.863 297.74 304.863C297.879 304.863 298.015 304.831 298.14 304.77L303.65 301.59C303.88 301.45 303.9 301.25 303.7 301.12L298.42 298.12C298.294 298.044 298.151 298.002 298.004 297.997C297.857 297.992 297.711 298.024 297.58 298.09L297.62 298.13ZM289.57 302.78L284 305.92C283.76 306.06 283.74 306.26 284 306.38L289.27 309.43C289.394 309.492 289.531 309.524 289.67 309.524C289.809 309.524 289.946 309.492 290.07 309.43L295.58 306.25C295.82 306.11 295.84 305.91 295.63 305.78L290.36 302.78C290.236 302.705 290.095 302.662 289.95 302.655C289.805 302.648 289.661 302.677 289.53 302.74L289.57 302.78ZM310.23 315.2L315.75 312.02C315.98 311.88 316 311.68 315.75 311.56L310.48 308.56C310.356 308.496 310.219 308.463 310.08 308.463C309.941 308.463 309.804 308.496 309.68 308.56L304.17 311.74C303.93 311.88 303.91 312.08 304.12 312.2L309.39 315.25C309.521 315.298 309.662 315.315 309.801 315.299C309.939 315.284 310.073 315.236 310.19 315.16L310.23 315.2ZM302.18 319.85L307.69 316.67C307.92 316.53 307.95 316.33 307.74 316.21L302.47 313.16C302.345 313.096 302.206 313.063 302.065 313.063C301.924 313.063 301.785 313.096 301.66 313.16L296.15 316.34C295.92 316.48 295.9 316.68 296.15 316.8L301.42 319.8C301.533 319.851 301.655 319.878 301.779 319.88C301.903 319.882 302.026 319.858 302.14 319.81L302.18 319.85ZM294.12 324.5L299.64 321.32C299.87 321.18 299.89 320.98 299.64 320.86L294.37 317.81C294.246 317.746 294.109 317.713 293.97 317.713C293.831 317.713 293.694 317.746 293.57 317.81L288.06 321C287.82 321.14 287.8 321.34 288.01 321.46L293.28 324.51C293.408 324.566 293.547 324.591 293.686 324.583C293.825 324.574 293.96 324.532 294.08 324.46L294.12 324.5ZM286 329.11L291.51 325.93C291.75 325.79 291.77 325.59 291.51 325.47L286.24 322.42C286.116 322.356 285.979 322.323 285.84 322.323C285.701 322.323 285.564 322.356 285.44 322.42L280 325.63C279.77 325.77 279.75 325.97 280 326.09L285.27 329.14C285.386 329.188 285.512 329.211 285.638 329.205C285.764 329.2 285.888 329.168 286 329.11ZM327.22 296.61L332.73 293.43C332.96 293.3 332.99 293.09 332.78 292.97L327.51 289.97C327.386 289.908 327.249 289.876 327.11 289.876C326.971 289.876 326.834 289.908 326.71 289.97L321.19 293.16C320.96 293.29 320.94 293.5 321.19 293.62L326.46 296.62C326.583 296.681 326.719 296.712 326.856 296.71C326.993 296.708 327.128 296.674 327.25 296.61H327.22ZM318.22 310.51L330.51 303.41C330.75 303.28 330.77 303.07 330.51 302.95L317.71 295.56C317.584 295.498 317.445 295.466 317.305 295.466C317.165 295.466 317.026 295.498 316.9 295.56L310.55 299.23C310.31 299.37 310.29 299.58 310.5 299.7L317.28 303.61C317.49 303.73 317.46 303.94 317.23 304.07L312.22 307C311.99 307.14 311.97 307.34 312.22 307.46L317.49 310.51C317.609 310.565 317.739 310.594 317.87 310.594C318.001 310.594 318.131 310.565 318.25 310.51H318.22ZM281.44 307.39L276 310.57C275.77 310.71 275.75 310.91 276 311.03L281.27 314.08C281.394 314.142 281.531 314.174 281.67 314.174C281.809 314.174 281.946 314.142 282.07 314.08L287.58 310.9C287.81 310.76 287.83 310.56 287.63 310.44L282.35 307.39C282.216 307.312 282.065 307.271 281.91 307.271C281.755 307.271 281.603 307.312 281.47 307.39H281.44ZM273.42 312L267.91 315.18C267.67 315.32 267.65 315.52 267.91 315.64L273.18 318.69C273.304 318.754 273.441 318.787 273.58 318.787C273.719 318.787 273.856 318.754 273.98 318.69L279.49 315.51C279.73 315.37 279.75 315.17 279.54 315.05L274.22 312C274.096 311.936 273.959 311.903 273.82 311.903C273.681 311.903 273.544 311.936 273.42 312ZM228.85 361.65C228.974 361.714 229.111 361.747 229.25 361.747C229.389 361.747 229.526 361.714 229.65 361.65L235.16 358.47C235.39 358.34 235.41 358.13 235.21 358.01L229.93 355.01C229.806 354.946 229.669 354.913 229.53 354.913C229.391 354.913 229.254 354.946 229.13 355.01L223.62 358.19C223.39 358.33 223.37 358.54 223.57 358.66L228.85 361.65ZM209 349.24L203.49 352.42C203.26 352.56 203.23 352.77 203.44 352.89L208.72 355.89C208.844 355.954 208.981 355.987 209.12 355.987C209.259 355.987 209.396 355.954 209.52 355.89L215.03 352.71C215.26 352.58 215.28 352.37 215.03 352.25L209.76 349.25C209.642 349.191 209.513 349.159 209.381 349.158C209.249 349.156 209.119 349.184 209 349.24ZM219.21 358.57C219.336 358.631 219.475 358.663 219.615 358.663C219.755 358.663 219.894 358.631 220.02 358.57L225.53 355.39C225.76 355.25 225.78 355.04 225.53 354.92L220.26 351.92C220.136 351.856 219.999 351.823 219.86 351.823C219.721 351.823 219.584 351.856 219.46 351.92L214 355.06C213.77 355.19 213.74 355.4 213.95 355.52L219.21 358.57ZM241.44 363.57L246.95 360.39C247.18 360.26 247.2 360.05 246.95 359.93L241.67 356.93C241.546 356.868 241.409 356.836 241.27 356.836C241.131 356.836 240.994 356.868 240.87 356.93L235.36 360.12C235.13 360.25 235.11 360.46 235.36 360.58L240.63 363.58C240.754 363.639 240.89 363.668 241.027 363.665C241.165 363.661 241.299 363.625 241.42 363.56L241.44 363.57ZM232.58 368.25C232.704 368.314 232.841 368.347 232.98 368.347C233.119 368.347 233.256 368.314 233.38 368.25L238.89 365.07C239.13 364.94 239.15 364.73 238.89 364.61L233.62 361.61C233.496 361.548 233.359 361.516 233.22 361.516C233.081 361.516 232.944 361.548 232.82 361.61L227.31 364.8C227.07 364.93 227.05 365.14 227.26 365.26L232.58 368.25ZM217 344.59L211.48 347.77C211.25 347.91 211.23 348.12 211.48 348.24L216.75 351.24C216.874 351.304 217.011 351.337 217.15 351.337C217.289 351.337 217.426 351.304 217.55 351.24L223.06 348.06C223.3 347.93 223.32 347.72 223.11 347.6L217.84 344.55C217.707 344.488 217.561 344.459 217.415 344.466C217.269 344.473 217.126 344.515 217 344.59ZM257.27 321.34L251.76 324.52C251.52 324.66 251.5 324.86 251.71 324.98L256.98 327.98C257.104 328.044 257.241 328.077 257.38 328.077C257.519 328.077 257.656 328.044 257.78 327.98L263.3 324.8C263.53 324.66 263.55 324.46 263.3 324.34L258.03 321.29C257.913 321.246 257.789 321.228 257.664 321.237C257.54 321.245 257.419 321.281 257.31 321.34H257.27ZM225.05 339.94L219.54 343.12C219.31 343.26 219.28 343.47 219.49 343.59L224.76 346.59C224.885 346.654 225.024 346.688 225.165 346.688C225.306 346.688 225.445 346.654 225.57 346.59L231.08 343.41C231.31 343.27 231.33 343.07 231.08 342.95L225.81 339.95C225.697 339.899 225.575 339.872 225.451 339.87C225.327 339.868 225.204 339.892 225.09 339.94H225.05ZM265.32 316.69L259.81 319.87C259.58 320.01 259.56 320.21 259.81 320.33L265.08 323.38C265.204 323.444 265.341 323.477 265.48 323.477C265.619 323.477 265.756 323.444 265.88 323.38L271.39 320.2C271.62 320.06 271.64 319.86 271.44 319.74L266.16 316.74C266.04 316.668 265.905 316.626 265.766 316.617C265.627 316.609 265.488 316.634 265.36 316.69H265.32ZM249.25 326L243.74 329.18C243.51 329.32 243.49 329.52 243.74 329.64L249.01 332.69C249.134 332.754 249.271 332.787 249.41 332.787C249.549 332.787 249.686 332.754 249.81 332.69L255.32 329.51C255.55 329.37 255.58 329.17 255.37 329.05L250.06 326C249.935 325.936 249.796 325.903 249.655 325.903C249.514 325.903 249.375 325.936 249.25 326ZM241.2 330.65L235.69 333.83C235.45 333.97 235.43 334.17 235.64 334.29L240.91 337.34C241.034 337.404 241.171 337.437 241.31 337.437C241.449 337.437 241.586 337.404 241.71 337.34L247.23 334.16C247.46 334.02 247.48 333.82 247.23 333.7L242 330.61C241.873 330.553 241.735 330.526 241.596 330.531C241.458 330.536 241.322 330.574 241.2 330.64V330.65ZM233.2 335.3L227.68 338.48C227.45 338.62 227.43 338.83 227.68 338.95L232.95 341.95C233.074 342.014 233.211 342.047 233.35 342.047C233.489 342.047 233.626 342.014 233.75 341.95L239.26 338.77C239.5 338.63 239.52 338.43 239.31 338.31L234 335.26C233.867 335.195 233.719 335.163 233.571 335.168C233.423 335.173 233.278 335.215 233.15 335.29L233.2 335.3ZM269.97 338.42L275.48 335.24C275.72 335.1 275.74 334.9 275.48 334.78L270.21 331.78C270.086 331.718 269.949 331.686 269.81 331.686C269.671 331.686 269.534 331.718 269.41 331.78L263.89 334.96C263.66 335.1 263.64 335.3 263.89 335.42L269.16 338.47C269.283 338.518 269.415 338.538 269.547 338.528C269.679 338.517 269.806 338.477 269.92 338.41L269.97 338.42ZM345.11 270.69L339.6 273.87C339.37 274 339.35 274.21 339.55 274.33L344.83 277.33C344.954 277.392 345.091 277.424 345.23 277.424C345.369 277.424 345.506 277.392 345.63 277.33L351.14 274.14C351.37 274.01 351.39 273.8 351.19 273.68L345.91 270.68C345.78 270.607 345.634 270.569 345.485 270.569C345.336 270.569 345.19 270.607 345.06 270.68L345.11 270.69ZM335.36 276.31L329.85 279.5C329.62 279.63 329.6 279.84 329.8 279.96L335.08 282.96C335.204 283.022 335.341 283.054 335.48 283.054C335.619 283.054 335.756 283.022 335.88 282.96L341.39 279.77C341.62 279.64 341.64 279.43 341.44 279.31L336.16 276.31C336.03 276.238 335.884 276.2 335.736 276.198C335.588 276.197 335.441 276.232 335.31 276.3L335.36 276.31ZM353.12 266L347.61 269.18C347.37 269.31 347.35 269.52 347.56 269.64L352.83 272.64C352.954 272.702 353.091 272.734 353.23 272.734C353.369 272.734 353.506 272.702 353.63 272.64L359.14 269.45C359.38 269.32 359.4 269.11 359.19 268.99L353.92 265.99C353.796 265.928 353.658 265.896 353.519 265.898C353.379 265.899 353.243 265.934 353.12 266ZM308.6 307.38L314.11 304.2C314.34 304.07 314.36 303.86 314.16 303.74L308.88 300.74C308.756 300.678 308.619 300.646 308.48 300.646C308.341 300.646 308.204 300.678 308.08 300.74L302.57 303.93C302.34 304.06 302.32 304.27 302.52 304.39L307.8 307.39C307.924 307.452 308.062 307.484 308.201 307.482C308.34 307.481 308.477 307.446 308.6 307.38ZM361.97 261.38C361.846 261.318 361.709 261.286 361.57 261.286C361.431 261.286 361.294 261.318 361.17 261.38L355.66 264.57C355.43 264.7 355.41 264.91 355.61 265.03L360.89 268.03C361.014 268.092 361.151 268.124 361.29 268.124C361.429 268.124 361.566 268.092 361.69 268.03L367.2 264.84C367.43 264.71 367.45 264.5 367.25 264.38L361.97 261.38ZM277.97 333.79L283.48 330.61C283.71 330.47 283.73 330.27 283.48 330.15L278.21 327.1C278.086 327.036 277.949 327.003 277.81 327.003C277.671 327.003 277.534 327.036 277.41 327.1L272 330.28C271.77 330.42 271.74 330.62 272 330.74L277.27 333.79C277.387 333.837 277.512 333.859 277.638 333.853C277.764 333.848 277.887 333.816 278 333.76L277.97 333.79ZM376.74 276.79L382.25 273.61C382.49 273.48 382.51 273.27 382.3 273.15L377 270C376.876 269.938 376.739 269.906 376.6 269.906C376.461 269.906 376.324 269.938 376.2 270L370.69 273.18C370.45 273.32 370.43 273.53 370.64 273.65L375.91 276.65C376.032 276.734 376.173 276.785 376.32 276.799C376.467 276.813 376.615 276.789 376.75 276.73L376.74 276.79ZM361.15 277.09L366.67 273.91C366.9 273.78 366.92 273.57 366.67 273.45L361.4 270.45C361.276 270.388 361.139 270.356 361 270.356C360.861 270.356 360.724 270.388 360.6 270.45L355.09 273.64C354.85 273.77 354.83 273.98 355.04 274.1L360.31 277.1C360.448 277.158 360.599 277.179 360.748 277.162C360.897 277.144 361.039 277.089 361.16 277L361.15 277.09ZM369.49 265.76C369.366 265.698 369.229 265.666 369.09 265.666C368.951 265.666 368.814 265.698 368.69 265.76L363.18 268.95C362.95 269.08 362.93 269.29 363.18 269.41L368.45 272.41C368.574 272.474 368.711 272.507 368.85 272.507C368.989 272.507 369.126 272.474 369.25 272.41L374.76 269.23C374.99 269.1 375.02 268.89 374.76 268.77L369.49 265.76ZM371.19 264.76L383.99 272.15C384.115 272.214 384.254 272.248 384.395 272.248C384.536 272.248 384.675 272.214 384.8 272.15L390.31 268.97C390.54 268.84 390.56 268.63 390.31 268.51L377.51 261.12C377.386 261.058 377.249 261.026 377.11 261.026C376.971 261.026 376.834 261.058 376.71 261.12L371.2 264.3C371 264.39 371 264.6 371.2 264.72L371.19 264.76ZM352.59 275L347.08 278.19C346.85 278.32 346.83 278.53 347.08 278.65L352.35 281.65C352.474 281.714 352.611 281.747 352.75 281.747C352.889 281.747 353.026 281.714 353.15 281.65L358.66 278.47C358.89 278.34 358.92 278.13 358.71 278.01L353.44 275.01C353.309 274.94 353.164 274.903 353.016 274.901C352.868 274.899 352.722 274.933 352.59 275ZM292 310L286.49 313.19C286.26 313.32 286.24 313.53 286.49 313.65L291.77 316.65C291.894 316.714 292.031 316.747 292.17 316.747C292.309 316.747 292.446 316.714 292.57 316.65L298 313.5C298.23 313.37 298.25 313.16 298.05 313.04L292.77 310.04C292.653 309.977 292.523 309.94 292.389 309.933C292.256 309.926 292.123 309.949 292 310ZM367.93 281.39C368.054 281.454 368.191 281.487 368.33 281.487C368.469 281.487 368.606 281.454 368.73 281.39L374.24 278.21C374.47 278.08 374.49 277.87 374.24 277.75L369 274.69C368.876 274.628 368.739 274.596 368.6 274.596C368.461 274.596 368.324 274.628 368.2 274.69L362.69 277.87C362.46 278.01 362.44 278.22 362.64 278.34L367.93 281.39ZM300.06 305.39L294.55 308.58C294.31 308.71 294.29 308.92 294.55 309.04L299.82 312.04C299.944 312.104 300.081 312.137 300.22 312.137C300.359 312.137 300.496 312.104 300.62 312.04L306.13 308.86C306.37 308.73 306.39 308.52 306.18 308.4L300.91 305.4C300.775 305.315 300.619 305.267 300.459 305.261C300.299 305.256 300.141 305.294 300 305.37L300.06 305.39ZM236.9 357C237.024 357.064 237.161 357.097 237.3 357.097C237.439 357.097 237.576 357.064 237.7 357L243.21 353.82C243.45 353.69 243.47 353.48 243.21 353.36L238 350.32C237.876 350.258 237.739 350.226 237.6 350.226C237.461 350.226 237.324 350.258 237.2 350.32L231.69 353.5C231.45 353.64 231.43 353.85 231.64 353.97L236.9 357ZM227.54 347.19L222 350.41C221.77 350.54 221.75 350.75 222 350.87L227.27 353.87C227.394 353.934 227.531 353.967 227.67 353.967C227.809 353.967 227.946 353.934 228.07 353.87L233.58 350.69C233.82 350.55 233.84 350.34 233.63 350.22L228.36 347.22C228.233 347.154 228.092 347.121 227.949 347.122C227.806 347.124 227.665 347.161 227.54 347.23V347.19ZM245.76 352.32L251.27 349.14C251.5 349.01 251.52 348.8 251.27 348.68L246 345.67C245.876 345.608 245.739 345.576 245.6 345.576C245.461 345.576 245.324 345.608 245.2 345.67L239.69 348.85C239.46 348.99 239.44 349.2 239.69 349.32L244.97 352.32C245.089 352.389 245.223 352.428 245.36 352.435C245.497 352.442 245.634 352.416 245.76 352.36V352.32ZM253.81 347.67L259.32 344.49C259.56 344.35 259.58 344.15 259.37 344.03L254.1 341C253.976 340.938 253.839 340.906 253.7 340.906C253.561 340.906 253.424 340.938 253.3 341L247.79 344.18C247.55 344.32 247.53 344.53 247.79 344.65L253.06 347.65C253.172 347.715 253.298 347.755 253.428 347.765C253.558 347.776 253.688 347.757 253.81 347.71V347.67ZM261.87 343.02L267.38 339.84C267.61 339.7 267.63 339.5 267.38 339.38L262.11 336.33C261.986 336.268 261.849 336.236 261.71 336.236C261.571 336.236 261.434 336.268 261.31 336.33L255.8 339.51C255.57 339.65 255.54 339.86 255.75 339.97L261.03 342.97C261.151 343.055 261.291 343.108 261.438 343.124C261.585 343.14 261.734 343.118 261.87 343.06V343.02ZM235.59 342.54L230.08 345.72C229.85 345.85 229.82 346.06 230.03 346.18L235.3 349.18C235.426 349.242 235.565 349.274 235.705 349.274C235.845 349.274 235.984 349.242 236.11 349.18L241.62 346C241.85 345.86 241.87 345.65 241.62 345.53L236.35 342.53C236.228 342.48 236.096 342.459 235.964 342.467C235.832 342.476 235.705 342.515 235.59 342.58V342.54ZM243.65 337.89L238.13 341.07C237.9 341.2 237.88 341.41 238.13 341.53L243.4 344.53C243.524 344.592 243.661 344.624 243.8 344.624C243.939 344.624 244.076 344.592 244.2 344.53L249.71 341.34C249.94 341.21 249.97 341 249.76 340.88L244.49 337.88C244.357 337.817 244.21 337.788 244.063 337.797C243.917 337.805 243.774 337.851 243.65 337.93V337.89ZM275.86 319.29L270.35 322.47C270.12 322.6 270.1 322.81 270.35 322.93L275.62 325.93C275.744 325.992 275.881 326.024 276.02 326.024C276.159 326.024 276.296 325.992 276.42 325.93L281.93 322.74C282.16 322.61 282.18 322.4 281.98 322.28L276.7 319.28C276.567 319.217 276.42 319.188 276.273 319.197C276.127 319.205 275.984 319.251 275.86 319.33V319.29ZM267.81 324L262.3 327.18C262.06 327.31 262.04 327.52 262.25 327.64L267.52 330.64C267.644 330.702 267.781 330.734 267.92 330.734C268.059 330.734 268.196 330.702 268.32 330.64L273.83 327.45C274.07 327.32 274.09 327.11 273.83 326.99L268.56 323.99C268.442 323.936 268.314 323.908 268.184 323.91C268.054 323.912 267.926 323.943 267.81 324ZM283.92 314.69L278.41 317.88C278.17 318.01 278.15 318.22 278.41 318.34L283.68 321.34C283.804 321.402 283.941 321.434 284.08 321.434C284.219 321.434 284.356 321.402 284.48 321.34L289.99 318.15C290.23 318.02 290.25 317.81 290.04 317.69L284.77 314.69C284.641 314.617 284.496 314.577 284.347 314.573C284.199 314.57 284.052 314.603 283.92 314.67V314.69ZM251.7 333.28L246.19 336.46C245.95 336.59 245.93 336.8 246.14 336.92L251.41 339.92C251.534 339.982 251.671 340.014 251.81 340.014C251.949 340.014 252.086 339.982 252.21 339.92L257.73 336.73C257.96 336.6 257.98 336.39 257.73 336.27L252.46 333.27C252.341 333.214 252.21 333.186 252.079 333.188C251.947 333.189 251.818 333.221 251.7 333.28ZM259.75 328.63L254.24 331.81C254.01 331.94 253.99 332.15 254.24 332.27L259.51 335.27C259.634 335.332 259.771 335.364 259.91 335.364C260.049 335.364 260.186 335.332 260.31 335.27L265.82 332.08C266.05 331.95 266.08 331.74 265.87 331.62L260.59 328.62C260.46 328.551 260.316 328.515 260.169 328.517C260.022 328.519 259.878 328.558 259.75 328.63ZM249.47 358.91L254.98 355.73C255.22 355.6 255.24 355.39 255.03 355.27L249.76 352.27C249.636 352.208 249.499 352.176 249.36 352.176C249.221 352.176 249.084 352.208 248.96 352.27L243.45 355.45C243.21 355.59 243.19 355.8 243.45 355.92L248.72 358.92C248.838 358.974 248.966 359.002 249.096 359C249.226 358.998 249.354 358.968 249.47 358.91ZM207 356.91L201.73 353.91C201.606 353.846 201.469 353.813 201.33 353.813C201.191 353.813 201.054 353.846 200.93 353.91L195.42 357.09C195.18 357.23 195.16 357.44 195.42 357.56L200.69 360.56C200.814 360.624 200.951 360.657 201.09 360.657C201.229 360.657 201.366 360.624 201.49 360.56L207 357.38C207.19 357.24 207.21 357 207 356.91ZM217.5 359.54L212.23 356.54C212.106 356.476 211.969 356.443 211.83 356.443C211.691 356.443 211.554 356.476 211.43 356.54L203 361.42C202.76 361.56 202.74 361.77 203 361.89L208.27 364.89C208.394 364.954 208.531 364.987 208.67 364.987C208.809 364.987 208.946 364.954 209.07 364.89L217.55 360C217.69 359.87 217.71 359.66 217.5 359.54ZM199.13 350.9L193.86 347.9C193.736 347.836 193.599 347.803 193.46 347.803C193.321 347.803 193.184 347.836 193.06 347.9L186.27 351.82C186.04 351.95 186.02 352.16 186.27 352.28L191.54 355.28C191.664 355.342 191.801 355.374 191.94 355.374C192.079 355.374 192.216 355.342 192.34 355.28L199.12 351.36C199.32 351.22 199.34 351 199.13 350.9ZM204.33 347.9C204.454 347.964 204.591 347.997 204.73 347.997C204.869 347.997 205.006 347.964 205.13 347.9L210.64 344.72C210.88 344.58 210.9 344.37 210.69 344.25L205.42 341.25C205.296 341.186 205.159 341.153 205.02 341.153C204.881 341.153 204.744 341.186 204.62 341.25L199.11 344.43C198.87 344.56 198.85 344.77 199.06 344.89L204.33 347.9ZM227.15 362.68L221.88 359.68C221.756 359.618 221.619 359.586 221.48 359.586C221.341 359.586 221.204 359.618 221.08 359.68L210.48 365.8C210.25 365.94 210.22 366.14 210.48 366.26L215.75 369.26C215.875 369.324 216.014 369.357 216.155 369.357C216.296 369.357 216.435 369.324 216.56 369.26L227.15 363.14C227.34 363 227.36 362.79 227.15 362.67V362.68ZM230.87 369.23L225.59 366.23C225.466 366.168 225.329 366.136 225.19 366.136C225.051 366.136 224.914 366.168 224.79 366.23L218 370.12C217.77 370.26 217.75 370.46 218 370.58L223.28 373.63C223.404 373.691 223.541 373.723 223.68 373.723C223.819 373.723 223.955 373.691 224.08 373.63L230.86 369.71C231.05 369.55 231.08 369.34 230.87 369.22V369.23ZM264.22 313.33C264.344 313.394 264.481 313.427 264.62 313.427C264.759 313.427 264.896 313.394 265.02 313.33L270.53 310.15C270.76 310.01 270.78 309.81 270.58 309.69L265.3 306.69C265.175 306.629 265.039 306.597 264.9 306.597C264.761 306.597 264.624 306.629 264.5 306.69L259 309.81C258.77 309.95 258.75 310.15 258.95 310.27L264.22 313.33ZM248.11 322.63C248.234 322.694 248.371 322.727 248.51 322.727C248.649 322.727 248.786 322.694 248.91 322.63L254.42 319.45C254.65 319.32 254.68 319.11 254.47 318.99L249.19 315.94C249.065 315.879 248.929 315.847 248.79 315.847C248.651 315.847 248.514 315.879 248.39 315.94L242.88 319.12C242.65 319.26 242.63 319.47 242.88 319.59L248.11 322.63ZM212.38 343.25C212.506 343.312 212.645 343.344 212.785 343.344C212.925 343.344 213.064 343.312 213.19 343.25L218.7 340C218.93 339.86 218.95 339.65 218.7 339.53L213.43 336.53C213.306 336.466 213.169 336.433 213.03 336.433C212.891 336.433 212.754 336.466 212.63 336.53L207.12 339.71C206.89 339.84 206.86 340.05 207.12 340.17L212.38 343.25ZM256.16 318C256.284 318.064 256.421 318.097 256.56 318.097C256.699 318.097 256.836 318.064 256.96 318L262.47 314.82C262.71 314.69 262.73 314.48 262.52 314.36L257.25 311.31C257.126 311.248 256.989 311.216 256.85 311.216C256.711 311.216 256.574 311.248 256.45 311.31L250.94 314.49C250.7 314.63 250.68 314.84 250.89 314.96L256.16 318ZM240.05 327.3C240.174 327.364 240.311 327.397 240.45 327.397C240.589 327.397 240.726 327.364 240.85 327.3L246.36 324.12C246.6 323.99 246.62 323.78 246.36 323.66L241.09 320.61C240.966 320.548 240.829 320.516 240.69 320.516C240.551 320.516 240.414 320.548 240.29 320.61L234.78 323.79C234.54 323.93 234.52 324.14 234.73 324.26L240.05 327.3ZM234.82 369.58C234.696 369.518 234.559 369.486 234.42 369.486C234.281 369.486 234.144 369.518 234.02 369.58L225.54 374.48C225.31 374.61 225.29 374.82 225.54 374.94L230.81 377.94C230.934 378.004 231.071 378.037 231.21 378.037C231.349 378.037 231.486 378.004 231.61 377.94L240.09 373.04C240.32 372.91 240.34 372.7 240.09 372.58L234.82 369.58ZM228.49 333.97C228.614 334.032 228.751 334.064 228.89 334.064C229.029 334.064 229.166 334.032 229.29 333.97L234.81 330.78C235.04 330.65 235.06 330.44 234.81 330.32L229.54 327.32C229.416 327.256 229.279 327.223 229.14 327.223C229.001 327.223 228.864 327.256 228.74 327.32L223.23 330.5C222.99 330.63 222.97 330.84 223.18 330.96L228.49 333.97ZM220.44 338.62C220.564 338.682 220.701 338.714 220.84 338.714C220.979 338.714 221.116 338.682 221.24 338.62L226.75 335.43C226.99 335.3 227.01 335.09 226.8 334.97L221.53 331.97C221.406 331.906 221.269 331.873 221.13 331.873C220.991 331.873 220.854 331.906 220.73 331.97L215.21 335.15C214.98 335.28 214.96 335.49 215.21 335.61L220.44 338.62ZM384.05 283.42C383.926 283.356 383.789 283.323 383.65 283.323C383.511 283.323 383.374 283.356 383.25 283.42L369.68 291.25C369.45 291.39 369.42 291.59 369.63 291.71L374.91 294.76C375.034 294.824 375.171 294.857 375.31 294.857C375.449 294.857 375.586 294.824 375.71 294.76L389.27 286.93C389.51 286.79 389.53 286.59 389.32 286.47L384.05 283.42ZM366.24 293.7C366.116 293.636 365.979 293.603 365.84 293.603C365.701 293.603 365.564 293.636 365.44 293.7L359.93 296.88C359.7 297.02 359.67 297.22 359.88 297.34L365.15 300.39C365.275 300.454 365.414 300.488 365.555 300.488C365.696 300.488 365.835 300.454 365.96 300.39L371.47 297.21C371.7 297.07 371.72 296.87 371.47 296.75L366.24 293.7ZM257.53 354.26L263.04 351.08C263.27 350.95 263.29 350.74 263.09 350.62L257.81 347.62C257.686 347.558 257.549 347.526 257.41 347.526C257.271 347.526 257.134 347.558 257.01 347.62L251.5 350.8C251.27 350.94 251.25 351.15 251.5 351.27L256.77 354.27C256.889 354.326 257.019 354.354 257.151 354.352C257.283 354.351 257.412 354.319 257.53 354.26ZM350.13 303C350.006 302.938 349.869 302.906 349.73 302.906C349.591 302.906 349.454 302.938 349.33 303L343.82 306.18C343.59 306.32 343.56 306.52 343.77 306.64L349.05 309.69C349.174 309.754 349.311 309.787 349.45 309.787C349.589 309.787 349.726 309.754 349.85 309.69L355.36 306.51C355.59 306.37 355.61 306.17 355.36 306.05L350.13 303ZM392.13 278.77C392.006 278.706 391.869 278.673 391.73 278.673C391.591 278.673 391.454 278.706 391.33 278.77L385.79 282C385.56 282.14 385.53 282.34 385.74 282.46L391.01 285.46C391.134 285.522 391.271 285.554 391.41 285.554C391.549 285.554 391.686 285.522 391.81 285.46L397.33 282.28C397.56 282.14 397.58 281.94 397.33 281.82L392.13 278.77ZM405.46 277.17L392.65 269.77C392.526 269.706 392.389 269.673 392.25 269.673C392.111 269.673 391.974 269.706 391.85 269.77L386.31 273C386.08 273.14 386.06 273.34 386.26 273.46L399.07 280.86C399.194 280.922 399.331 280.954 399.47 280.954C399.609 280.954 399.746 280.922 399.87 280.86L405.38 277.68C405.61 277.46 405.64 277.26 405.43 277.14L405.46 277.17ZM320 320.35C319.876 320.286 319.739 320.253 319.6 320.253C319.461 320.253 319.324 320.286 319.2 320.35L312.42 324.26C312.19 324.4 312.16 324.61 312.37 324.73L317.64 327.73C317.765 327.794 317.904 327.827 318.045 327.827C318.186 327.827 318.325 327.794 318.45 327.73L325.23 323.82C325.46 323.68 325.48 323.47 325.28 323.35L320 320.35ZM340.35 308.6C340.226 308.536 340.089 308.503 339.95 308.503C339.811 308.503 339.674 308.536 339.55 308.6L331.07 313.49C330.84 313.63 330.82 313.84 331.02 313.96L336.3 316.96C336.424 317.024 336.561 317.057 336.7 317.057C336.839 317.057 336.976 317.024 337.1 316.96L345.58 312.07C345.81 311.93 345.83 311.73 345.58 311.61L340.35 308.6ZM301.35 331.12C301.226 331.056 301.089 331.023 300.95 331.023C300.811 331.023 300.674 331.056 300.55 331.12L255.19 357.31C254.96 357.44 254.93 357.65 255.14 357.77L260.41 360.77C260.534 360.834 260.671 360.867 260.81 360.867C260.949 360.867 261.086 360.834 261.21 360.77L306.58 334.59C306.81 334.45 306.83 334.24 306.58 334.12L301.35 331.12ZM253.45 358.78C253.326 358.718 253.189 358.686 253.05 358.686C252.911 358.686 252.774 358.718 252.65 358.78L245.86 362.7C245.63 362.84 245.61 363.04 245.86 363.16L251.13 366.21C251.254 366.272 251.391 366.304 251.53 366.304C251.669 366.304 251.806 366.272 251.93 366.21L258.71 362.29C258.94 362.16 258.97 361.95 258.76 361.83L253.45 358.78ZM310.68 325.78C310.556 325.716 310.419 325.683 310.28 325.683C310.141 325.683 310.004 325.716 309.88 325.78L303.09 329.7C302.86 329.83 302.84 330.04 303.09 330.16L308.36 333.16C308.484 333.224 308.621 333.257 308.76 333.257C308.899 333.257 309.036 333.224 309.16 333.16L315.94 329.24C316.18 329.11 316.2 328.9 315.99 328.78L310.68 325.78ZM244.12 364.2C243.996 364.136 243.859 364.103 243.72 364.103C243.581 364.103 243.444 364.136 243.32 364.2L236.54 368.11C236.3 368.25 236.28 368.46 236.54 368.58L241.81 371.58C241.934 371.644 242.071 371.677 242.21 371.677C242.349 371.677 242.486 371.644 242.61 371.58L249.39 367.67C249.63 367.53 249.65 367.33 249.39 367.21L244.12 364.2ZM329.36 315C329.236 314.938 329.099 314.906 328.96 314.906C328.821 314.906 328.684 314.938 328.56 315L321.78 318.92C321.54 319.05 321.52 319.26 321.78 319.38L327.05 322.43C327.174 322.492 327.311 322.524 327.45 322.524C327.589 322.524 327.726 322.492 327.85 322.43L334.63 318.51C334.87 318.38 334.89 318.17 334.68 318.05L329.36 315ZM358.19 298.35C358.066 298.286 357.929 298.253 357.79 298.253C357.651 298.253 357.514 298.286 357.39 298.35L351.87 301.53C351.64 301.67 351.62 301.87 351.87 301.99L357.1 305C357.224 305.064 357.361 305.097 357.5 305.097C357.639 305.097 357.776 305.064 357.9 305L363.41 301.82C363.65 301.68 363.67 301.48 363.41 301.36L358.19 298.35ZM376.19 285.76L381.7 282.58C381.93 282.44 381.96 282.24 381.75 282.12L376.47 279.12C376.345 279.059 376.209 279.027 376.07 279.027C375.931 279.027 375.794 279.059 375.67 279.12L370.16 282.3C369.93 282.44 369.91 282.64 370.16 282.77L375.43 285.77C375.557 285.828 375.696 285.855 375.835 285.848C375.974 285.841 376.11 285.8 376.23 285.73L376.19 285.76ZM343.32 287.34L348.83 284.16C349.06 284.03 349.09 283.82 348.88 283.7L343.61 280.7C343.484 280.638 343.345 280.606 343.205 280.606C343.065 280.606 342.926 280.638 342.8 280.7L337.29 283.89C337.06 284.02 337.04 284.23 337.29 284.35L342.56 287.35C342.687 287.408 342.826 287.435 342.965 287.428C343.104 287.421 343.24 287.38 343.36 287.31L343.32 287.34ZM322 317.06L338.1 307.76C338.34 307.62 338.36 307.42 338.15 307.3L332.88 304.25C332.756 304.188 332.619 304.156 332.48 304.156C332.341 304.156 332.204 304.188 332.08 304.25L315.97 313.55C315.74 313.69 315.71 313.89 315.92 314.01L321.19 317.01C321.311 317.082 321.448 317.124 321.589 317.133C321.73 317.141 321.871 317.116 322 317.06ZM367.4 290.41C367.524 290.474 367.661 290.507 367.8 290.507C367.939 290.507 368.076 290.474 368.2 290.41L373.71 287.23C373.95 287.09 373.97 286.89 373.76 286.77L368.49 283.72C368.366 283.658 368.229 283.626 368.09 283.626C367.951 283.626 367.814 283.658 367.69 283.72L362.18 286.9C361.94 287.04 361.92 287.25 362.18 287.37L367.4 290.41ZM360.64 286L366.15 282.82C366.39 282.69 366.41 282.48 366.2 282.36L360.93 279.36C360.806 279.298 360.669 279.266 360.53 279.266C360.391 279.266 360.254 279.298 360.13 279.36L354.62 282.54C354.38 282.68 354.36 282.89 354.57 283.01L359.84 286.01C359.964 286.072 360.102 286.104 360.241 286.102C360.38 286.101 360.517 286.066 360.64 286ZM313.91 321.68L319.42 318.5C319.66 318.36 319.68 318.16 319.47 318.04L314.2 315C314.076 314.936 313.939 314.903 313.8 314.903C313.661 314.903 313.524 314.936 313.4 315L307.88 318.18C307.65 318.32 307.63 318.52 307.88 318.64L313.15 321.69C313.267 321.751 313.396 321.784 313.528 321.787C313.659 321.791 313.79 321.764 313.91 321.71V321.68ZM349.57 300.68C349.694 300.744 349.831 300.777 349.97 300.777C350.109 300.777 350.246 300.744 350.37 300.68L355.88 297.5C356.11 297.36 356.13 297.16 355.93 297.04L350.65 294.04C350.525 293.979 350.389 293.947 350.25 293.947C350.111 293.947 349.974 293.979 349.85 294.04L344.34 297.22C344.11 297.36 344.09 297.56 344.34 297.69L349.57 300.68ZM273.64 345L279.15 341.82C279.38 341.69 279.4 341.48 279.15 341.36L273.87 338.31C273.745 338.249 273.609 338.217 273.47 338.217C273.331 338.217 273.194 338.249 273.07 338.31L267.56 341.49C267.33 341.63 267.31 341.84 267.51 341.96L272.79 344.96C272.916 345.039 273.061 345.084 273.21 345.091C273.359 345.098 273.507 345.067 273.64 345ZM281.69 340.35L287.2 337.17C287.44 337.04 287.46 336.83 287.25 336.71L282 333.62C281.876 333.558 281.739 333.526 281.6 333.526C281.461 333.526 281.324 333.558 281.2 333.62L275.69 336.8C275.45 336.94 275.43 337.15 275.69 337.27L280.96 340.27C281.071 340.329 281.194 340.364 281.321 340.37C281.447 340.377 281.573 340.357 281.69 340.31V340.35ZM265.58 349.65L271.09 346.47C271.33 346.34 271.35 346.13 271.09 346.01L265.82 343.01C265.696 342.948 265.559 342.916 265.42 342.916C265.281 342.916 265.144 342.948 265.02 343.01L259.51 346.19C259.27 346.33 259.25 346.54 259.46 346.66L264.73 349.66C264.864 349.725 265.013 349.755 265.161 349.746C265.31 349.737 265.454 349.69 265.58 349.61V349.65ZM297.8 331L303.31 327.82C303.55 327.68 303.57 327.48 303.36 327.36L298.09 324.31C297.966 324.248 297.829 324.216 297.69 324.216C297.551 324.216 297.414 324.248 297.29 324.31L291.78 327.49C291.54 327.63 291.52 327.83 291.78 327.95L297 331C297.124 331.064 297.261 331.097 297.4 331.097C297.539 331.097 297.676 331.064 297.8 331ZM289.75 335.65L295.26 332.47C295.49 332.34 295.51 332.13 295.31 332.01L290 329C289.876 328.938 289.739 328.906 289.6 328.906C289.461 328.906 289.324 328.938 289.2 329L283.69 332.18C283.46 332.32 283.44 332.53 283.64 332.65L288.92 335.65C289.046 335.721 289.189 335.759 289.334 335.76C289.479 335.762 289.622 335.728 289.75 335.66V335.65ZM305.86 326.35L311.37 323.17C311.6 323.03 311.62 322.83 311.37 322.71L306.1 319.66C305.976 319.596 305.839 319.563 305.7 319.563C305.561 319.563 305.424 319.596 305.3 319.66L299.79 322.84C299.56 322.98 299.53 323.18 299.74 323.3L305.02 326.35C305.148 326.422 305.292 326.461 305.439 326.463C305.586 326.465 305.73 326.429 305.86 326.36V326.35ZM349.81 261.66C349.934 261.724 350.071 261.757 350.21 261.757C350.349 261.757 350.486 261.724 350.61 261.66L356.12 258.48C356.36 258.34 356.38 258.14 356.17 258.02L354.77 257.21C354.646 257.148 354.509 257.116 354.37 257.116C354.231 257.116 354.094 257.148 353.97 257.21L348.45 260.4C348.22 260.53 348.2 260.74 348.45 260.86L349.81 261.66ZM309.81 287.01C309.934 287.071 310.071 287.103 310.21 287.103C310.349 287.103 310.485 287.071 310.61 287.01L316.12 283.83C316.35 283.69 316.37 283.48 316.12 283.36L310.85 280.36C310.726 280.296 310.589 280.263 310.45 280.263C310.311 280.263 310.174 280.296 310.05 280.36L304.54 283.54C304.31 283.67 304.29 283.88 304.49 284L309.81 287.01ZM325.92 277.71C326.044 277.771 326.181 277.803 326.32 277.803C326.459 277.803 326.595 277.771 326.72 277.71L332.23 274.53C332.46 274.39 332.48 274.18 332.23 274.06L327 271C326.876 270.936 326.739 270.903 326.6 270.903C326.461 270.903 326.324 270.936 326.2 271L320.69 274.18C320.46 274.31 320.43 274.52 320.64 274.64L325.92 277.71ZM299.97 292.71C300.094 292.772 300.231 292.804 300.37 292.804C300.509 292.804 300.646 292.772 300.77 292.71L306.28 289.52C306.52 289.39 306.54 289.18 306.33 289.06L301 286C300.876 285.936 300.739 285.903 300.6 285.903C300.461 285.903 300.324 285.936 300.2 286L294.69 289.18C294.45 289.31 294.43 289.52 294.64 289.64L299.97 292.71ZM317.86 282.39C317.984 282.452 318.121 282.484 318.26 282.484C318.399 282.484 318.536 282.452 318.66 282.39L324.17 279.21C324.41 279.07 324.43 278.86 324.22 278.74L318.95 275.74C318.826 275.676 318.689 275.643 318.55 275.643C318.411 275.643 318.274 275.676 318.15 275.74L312.64 278.92C312.4 279.05 312.38 279.26 312.59 279.38L317.86 282.39ZM283.86 302.02C283.985 302.079 284.122 302.109 284.26 302.109C284.398 302.109 284.535 302.079 284.66 302.02L290.17 298.84C290.41 298.7 290.43 298.49 290.22 298.37L284.95 295.37C284.826 295.306 284.689 295.273 284.55 295.273C284.411 295.273 284.274 295.306 284.15 295.37L278.64 298.55C278.4 298.68 278.38 298.89 278.59 299.01L283.86 302.02ZM291.92 297.36C292.044 297.422 292.181 297.454 292.32 297.454C292.459 297.454 292.596 297.422 292.72 297.36L298.23 294.18C298.46 294.04 298.48 293.83 298.23 293.71L292.96 290.71C292.836 290.646 292.699 290.613 292.56 290.613C292.421 290.613 292.284 290.646 292.16 290.71L286.65 293.89C286.42 294.02 286.4 294.23 286.6 294.35L291.92 297.36ZM333.7 271C333.824 271.064 333.961 271.097 334.1 271.097C334.239 271.097 334.376 271.064 334.5 271L340.01 267.82C340.25 267.68 340.27 267.48 340.06 267.36L338.66 266.55C338.536 266.488 338.399 266.456 338.26 266.456C338.121 266.456 337.984 266.488 337.86 266.55L332.35 269.74C332.11 269.87 332.09 270.08 332.3 270.2L333.7 271ZM357.87 257C357.994 257.064 358.131 257.097 358.27 257.097C358.409 257.097 358.546 257.064 358.67 257L364.18 253.82C364.41 253.68 364.43 253.48 364.18 253.36L362.78 252.55C362.656 252.488 362.519 252.456 362.38 252.456C362.241 252.456 362.104 252.488 361.98 252.55L356.47 255.74C356.23 255.87 356.21 256.08 356.42 256.2L357.87 257ZM368.94 263.39C369.064 263.452 369.201 263.484 369.34 263.484C369.479 263.484 369.616 263.452 369.74 263.39L375.25 260.2C375.49 260.07 375.51 259.86 375.3 259.74L370.03 256.74C369.906 256.678 369.769 256.646 369.63 256.646C369.491 256.646 369.354 256.678 369.23 256.74L363.72 259.93C363.48 260.06 363.46 260.27 363.67 260.39L368.94 263.39ZM384.28 281.06L389.79 277.88C390.03 277.74 390.05 277.54 389.79 277.42L384.52 274.37C384.396 274.308 384.259 274.276 384.12 274.276C383.981 274.276 383.844 274.308 383.72 274.37L378.21 277.55C377.97 277.69 377.95 277.89 378.16 278.01L383.43 281.06C383.558 281.136 383.703 281.177 383.852 281.181C384.001 281.184 384.148 281.15 384.28 281.08V281.06ZM341.76 266.3C341.884 266.364 342.021 266.397 342.16 266.397C342.299 266.397 342.436 266.364 342.56 266.3L348.07 263.12C348.3 262.98 348.32 262.78 348.07 262.66L346.67 261.85C346.546 261.788 346.409 261.756 346.27 261.756C346.131 261.756 345.994 261.788 345.87 261.85L340.36 265.04C340.13 265.17 340.1 265.38 340.36 265.5L341.76 266.3ZM275.76 306.63C275.884 306.691 276.021 306.723 276.16 306.723C276.299 306.723 276.435 306.691 276.56 306.63L282.07 303.45C282.3 303.31 282.32 303.1 282.12 302.98L276.84 299.98C276.716 299.916 276.579 299.883 276.44 299.883C276.301 299.883 276.164 299.916 276.04 299.98L270.53 303.16C270.3 303.29 270.28 303.5 270.48 303.62L275.76 306.63Z" fill="#455A64"/>
<path d="M299.61 348.19L300.74 348.84L330.76 366.16L384.13 335.35L385.24 334.71L354.1 316.74L299.61 348.19Z" fill="#37474F"/>
<path d="M300.74 348.84L330.76 366.16L384.13 335.35L354.1 318.02L300.74 348.84Z" fill="#263238"/>
<path d="M131.06 213.2L118.83 206.2C118.29 205.88 117.89 205.8 117.68 205.93L116.19 206.79C115.93 206.94 115.94 207.38 116.26 208.06L119.26 214.22L117.04 216.22C116.804 216.401 116.619 216.639 116.502 216.913C116.385 217.186 116.341 217.485 116.373 217.78C116.405 218.075 116.513 218.358 116.686 218.599C116.858 218.841 117.091 219.034 117.36 219.16L129.59 226.22L131.08 225.35L131.06 213.2Z" fill="#5D9D9F"/>
<path opacity="0.5" d="M131.06 213.2L118.83 206.2C118.29 205.88 117.89 205.8 117.68 205.93L116.19 206.79C115.93 206.94 115.94 207.38 116.26 208.06L119.26 214.22L117.04 216.22C116.804 216.401 116.619 216.639 116.502 216.913C116.385 217.186 116.341 217.485 116.373 217.78C116.405 218.075 116.513 218.358 116.686 218.599C116.858 218.841 117.091 219.034 117.36 219.16L129.59 226.22L131.08 225.35L131.06 213.2Z" fill="white"/>
<path d="M117.34 207C116.15 206.31 115.66 206.76 116.26 208L119.26 214.16L117.04 216.16C116.804 216.341 116.619 216.579 116.502 216.853C116.385 217.126 116.341 217.425 116.373 217.72C116.405 218.015 116.513 218.298 116.686 218.539C116.858 218.781 117.091 218.974 117.36 219.1L129.59 226.16V214.07L117.34 207Z" fill="#5D9D9F"/>
<path d="M131 252.11C130.81 252.111 130.622 252.075 130.447 252.003C130.272 251.931 130.112 251.825 129.978 251.691C129.844 251.557 129.738 251.398 129.667 251.223C129.595 251.047 129.558 250.859 129.56 250.67V210.05C129.59 209.69 129.754 209.355 130.02 209.11C130.285 208.866 130.633 208.73 130.995 208.73C131.356 208.73 131.704 208.866 131.97 209.11C132.235 209.355 132.4 209.69 132.43 210.05V250.67C132.431 250.859 132.395 251.046 132.324 251.22C132.252 251.395 132.147 251.554 132.014 251.688C131.881 251.821 131.723 251.928 131.549 252C131.375 252.073 131.188 252.11 131 252.11Z" fill="#455A64"/>
<path d="M78.3898 360.27V357.74H78.9998C79.9499 356.034 81.3787 354.643 83.1098 353.74C89.4298 350.09 99.6698 350.09 105.99 353.74C107.724 354.639 109.154 356.031 110.1 357.74H110.72V360.19C110.72 362.62 109.2 365.06 105.99 366.91C99.6698 370.56 89.4298 370.56 83.1098 366.91C79.9998 365.08 78.3698 362.67 78.3898 360.27Z" fill="#263238"/>
<path d="M94.5599 367.08C103.496 367.08 110.74 362.898 110.74 357.74C110.74 352.582 103.496 348.4 94.5599 348.4C85.6239 348.4 78.3799 352.582 78.3799 357.74C78.3799 362.898 85.6239 367.08 94.5599 367.08Z" fill="#455A64"/>
<path d="M98.7299 269.77V356.63C98.6949 356.996 98.5635 357.346 98.3492 357.645C98.1349 357.943 97.8453 358.18 97.5099 358.33C96.5975 358.794 95.5884 359.035 94.5649 359.035C93.5414 359.035 92.5323 358.794 91.6199 358.33C91.2832 358.181 90.9925 357.945 90.778 357.646C90.5634 357.347 90.4329 356.996 90.3999 356.63V269.77H98.7299Z" fill="#37474F"/>
<path d="M90.3999 280.28V288.45L98.7299 293.25V285.1L90.3999 280.28Z" fill="#263238"/>
<path d="M120.6 262L136 270.9C135.921 271.025 135.819 271.134 135.7 271.22L108.76 286.77C108.53 286.9 108.35 286.77 108.35 286.52V267.11C108.424 263.376 109.187 259.687 110.6 256.23L120.6 262Z" fill="#5D9D9F"/>
<path opacity="0.4" d="M120.6 262L136 270.9C135.921 271.025 135.819 271.134 135.7 271.22L108.76 286.77C108.53 286.9 108.35 286.77 108.35 286.52V267.11C108.424 263.376 109.187 259.687 110.6 256.23L120.6 262Z" fill="black"/>
<path d="M136.12 249.25V271L110.6 256.24L110.69 256.03C113.42 249.19 118 243.4 123 240.52C124.733 239.428 126.723 238.81 128.77 238.73C133.31 238.73 136.12 242.76 136.12 249.25Z" fill="#5D9D9F"/>
<path opacity="0.3" d="M136.12 249.25V271L110.6 256.24L110.69 256.03C113.42 249.19 118 243.4 123 240.52C124.733 239.428 126.723 238.81 128.77 238.73C133.31 238.73 136.12 242.76 136.12 249.25Z" fill="black"/>
<path d="M163.83 295.22V293.28H163.64V293.56C163.525 293.022 163.358 292.496 163.14 291.99C162.14 289.61 159.97 287.33 156.7 285.44L138.47 274.91C138.043 274.698 137.572 274.587 137.095 274.587C136.618 274.587 136.147 274.698 135.72 274.91L107.84 291C107.496 290.715 107.199 290.377 106.96 290V292C106.977 292.17 107.038 292.333 107.136 292.473C107.234 292.613 107.366 292.726 107.52 292.8L125.76 303.32C131.11 306.193 137.12 307.614 143.19 307.44C148.246 307.496 153.235 306.282 157.7 303.91C161.8 301.56 163.82 298.43 163.82 295.24L163.83 295.22Z" fill="#5D9D9F"/>
<path opacity="0.4" d="M163.83 295.22V293.28H163.64V293.56C163.525 293.022 163.358 292.496 163.14 291.99C162.14 289.61 159.97 287.33 156.7 285.44L138.47 274.91C138.043 274.698 137.572 274.587 137.095 274.587C136.618 274.587 136.147 274.698 135.72 274.91L107.84 291C107.496 290.715 107.199 290.377 106.96 290V292C106.977 292.17 107.038 292.333 107.136 292.473C107.234 292.613 107.366 292.726 107.52 292.8L125.76 303.32C131.11 306.193 137.12 307.614 143.19 307.44C148.246 307.496 153.235 306.282 157.7 303.91C161.8 301.56 163.82 298.43 163.82 295.24L163.83 295.22Z" fill="black"/>
<path d="M163.14 292C162.14 289.62 159.97 287.34 156.7 285.45L138.47 274.92C138.043 274.708 137.572 274.597 137.095 274.597C136.618 274.597 136.147 274.708 135.72 274.92L107.84 291L125.76 301.34C131.112 304.208 137.12 305.629 143.19 305.46C148.245 305.511 153.233 304.298 157.7 301.93C161.38 299.81 163.39 297.08 163.76 294.23C163.661 293.461 163.452 292.71 163.14 292Z" fill="#5D9D9F"/>
<path opacity="0.2" d="M163.14 292C162.14 289.62 159.97 287.34 156.7 285.45L138.47 274.92C138.043 274.708 137.572 274.597 137.095 274.597C136.618 274.597 136.147 274.708 135.72 274.92L107.84 291L125.76 301.34C131.112 304.208 137.12 305.629 143.19 305.46C148.245 305.511 153.233 304.298 157.7 301.93C161.38 299.81 163.39 297.08 163.76 294.23C163.661 293.461 163.452 292.71 163.14 292Z" fill="black"/>
<path d="M163.76 294.24C163.663 293.464 163.454 292.706 163.14 291.99C162.14 289.61 159.97 287.33 156.7 285.44L138.47 274.91C138.043 274.698 137.572 274.587 137.095 274.587C136.618 274.587 136.147 274.698 135.72 274.91L107.84 291L107.52 290.82C107.354 290.763 107.21 290.656 107.108 290.514C107.006 290.371 106.951 290.2 106.951 290.025C106.951 289.85 107.006 289.679 107.108 289.536C107.21 289.394 107.354 289.287 107.52 289.23L135.72 273C136.145 272.781 136.617 272.666 137.095 272.666C137.573 272.666 138.045 272.781 138.47 273L156.7 283.53C159.97 285.42 162.12 287.7 163.14 290.08C163.475 290.839 163.69 291.645 163.78 292.47C163.845 293.059 163.838 293.653 163.76 294.24Z" fill="#5D9D9F"/>
<path opacity="0.3" d="M163.76 294.24C163.663 293.464 163.454 292.706 163.14 291.99C162.14 289.61 159.97 287.33 156.7 285.44L138.47 274.91C138.043 274.698 137.572 274.587 137.095 274.587C136.618 274.587 136.147 274.698 135.72 274.91L107.84 291L107.52 290.82C107.354 290.763 107.21 290.656 107.108 290.514C107.006 290.371 106.951 290.2 106.951 290.025C106.951 289.85 107.006 289.679 107.108 289.536C107.21 289.394 107.354 289.287 107.52 289.23L135.72 273C136.145 272.781 136.617 272.666 137.095 272.666C137.573 272.666 138.045 272.781 138.47 273L156.7 283.53C159.97 285.42 162.12 287.7 163.14 290.08C163.475 290.839 163.69 291.645 163.78 292.47C163.845 293.059 163.838 293.653 163.76 294.24Z" fill="black"/>
<path d="M108.14 288.96L136.33 272.68L135.7 271.21L108.76 286.77L108.14 288.96Z" fill="#5D9D9F"/>
<path opacity="0.1" d="M108.14 288.96L136.33 272.68L135.7 271.21L108.76 286.77L108.14 288.96Z" fill="black"/>
<path d="M133.63 248C133.618 247.767 133.551 247.541 133.434 247.339C133.318 247.138 133.155 246.966 132.96 246.84L98.6396 227C98.433 226.891 98.2031 226.835 97.9696 226.835C97.7362 226.835 97.5063 226.891 97.2996 227L96.5396 227.44C96.344 227.566 96.1813 227.738 96.0648 227.939C95.9483 228.141 95.8814 228.367 95.8696 228.6V254.91C95.883 255.142 95.9506 255.368 96.0669 255.57C96.1833 255.771 96.3452 255.942 96.5396 256.07L130.86 275.89C131.07 275.993 131.301 276.047 131.535 276.047C131.769 276.047 132 275.993 132.21 275.89L132.96 275.45C133.154 275.322 133.316 275.151 133.432 274.95C133.549 274.748 133.616 274.522 133.63 274.29V248Z" fill="#F5F5F5"/>
<path d="M133.44 247.3L131.53 248.4L96.0698 227.92C96.1802 227.713 96.342 227.537 96.5398 227.41L97.2998 226.98C97.5065 226.871 97.7364 226.815 97.9698 226.815C98.2033 226.815 98.4332 226.871 98.6398 226.98L133 246.8C133.188 246.925 133.339 247.098 133.44 247.3Z" fill="#E0E0E0"/>
<path d="M131.54 248.39L131.19 248.6C131.3 248.647 131.392 248.727 131.455 248.829C131.518 248.932 131.547 249.05 131.54 249.17V275.48C131.549 275.566 131.535 275.652 131.498 275.73C131.461 275.808 131.402 275.874 131.33 275.92C131.227 275.96 131.113 275.96 131.01 275.92L130.87 275.86L96.5396 256.05C96.3457 255.922 96.1842 255.75 96.0679 255.549C95.9517 255.348 95.8838 255.122 95.8696 254.89V228.58C95.8786 228.343 95.9474 228.113 96.0696 227.91L131.54 248.39Z" fill="#EBEBEB"/>
<path opacity="0.2" d="M131.53 248.4L115.64 254.33C115.091 254.539 114.487 254.554 113.928 254.372C113.369 254.19 112.89 253.822 112.57 253.33L110 249.41L95.9396 227.84L109.51 249.56L95.8696 254.9C95.8779 255.138 95.9504 255.37 96.0796 255.57L109.55 249.62L112.55 254.37C112.879 254.898 113.388 255.29 113.983 255.474C114.578 255.658 115.22 255.621 115.79 255.37L117.9 254.44L131.37 275.93C131.439 275.881 131.494 275.814 131.529 275.737C131.564 275.66 131.578 275.574 131.57 275.49V275L117.93 254.4L131.53 248.4Z" fill="black"/>
<path d="M125.51 252.61C125.496 252.378 125.428 252.152 125.311 251.951C125.195 251.75 125.034 251.578 124.84 251.45L90.5097 231.64C90.3031 231.531 90.0732 231.475 89.8397 231.475C89.6063 231.475 89.3764 231.531 89.1697 231.64L88.4097 232.07C88.2158 232.198 88.0543 232.37 87.9381 232.571C87.8218 232.772 87.7539 232.998 87.7397 233.23V259.54C87.7546 259.773 87.8228 260 87.9389 260.203C88.0551 260.406 88.2161 260.579 88.4097 260.71L122.74 280.52C122.946 280.629 123.176 280.685 123.41 280.685C123.643 280.685 123.873 280.629 124.08 280.52L124.84 280.09C125.034 279.962 125.195 279.79 125.311 279.589C125.428 279.388 125.496 279.162 125.51 278.93V252.61Z" fill="#F5F5F5"/>
<path d="M125.31 252L123.41 253.1L87.9399 232.57C88.0534 232.367 88.2148 232.196 88.4099 232.07L89.1699 231.64C89.3766 231.531 89.6065 231.475 89.8399 231.475C90.0734 231.475 90.3033 231.531 90.5099 231.64L124.84 251.45C125.041 251.59 125.203 251.779 125.31 252Z" fill="#E0E0E0"/>
<path d="M123.41 253.05L123.06 253.26C123.17 253.307 123.263 253.387 123.325 253.489C123.388 253.591 123.417 253.71 123.41 253.83V280.14C123.419 280.226 123.405 280.312 123.368 280.39C123.331 280.468 123.272 280.534 123.2 280.58C123.097 280.62 122.983 280.62 122.88 280.58L122.74 280.52L88.4097 260.71C88.2158 260.582 88.0543 260.41 87.9381 260.209C87.8218 260.008 87.7539 259.782 87.7397 259.55V233.24C87.7487 233.003 87.8175 232.773 87.9397 232.57L123.41 253.05Z" fill="#EBEBEB"/>
<path opacity="0.2" d="M123.41 253.05L107.51 259C106.962 259.205 106.361 259.217 105.805 259.036C105.249 258.854 104.771 258.489 104.45 258L101.89 254.09L87.8097 232.5L101.38 254.22L87.7397 259.56C87.7602 259.796 87.8319 260.025 87.9497 260.23L101.42 254.23L104.42 258.98C104.749 259.506 105.256 259.896 105.849 260.08C106.442 260.263 107.081 260.228 107.65 259.98L109.77 259.05L123.2 280.58C123.272 280.534 123.331 280.468 123.368 280.39C123.405 280.312 123.419 280.226 123.41 280.14V279.7L109.8 259.06L123.41 253.05Z" fill="black"/>
<path d="M117.38 257.27C117.368 257.037 117.301 256.811 117.184 256.609C117.068 256.408 116.905 256.236 116.71 256.11L82.3896 236.29C82.1816 236.186 81.9522 236.132 81.7196 236.132C81.4871 236.132 81.2577 236.186 81.0496 236.29L80.2896 236.73C80.094 236.856 79.9313 237.028 79.8148 237.229C79.6983 237.431 79.6314 237.657 79.6196 237.89V264.2C79.6314 264.433 79.6983 264.659 79.8148 264.861C79.9313 265.062 80.094 265.234 80.2896 265.36L114.61 285.18C114.82 285.283 115.051 285.337 115.285 285.337C115.519 285.337 115.75 285.283 115.96 285.18L116.71 284.74C116.905 284.614 117.068 284.442 117.184 284.241C117.301 284.039 117.368 283.813 117.38 283.58V257.27Z" fill="#F5F5F5"/>
<path d="M117.19 256.61L115.28 257.71L79.8198 237.23C79.9304 237.025 80.0924 236.853 80.2898 236.73L81.0498 236.29C81.2579 236.186 81.4873 236.132 81.7198 236.132C81.9524 236.132 82.1818 236.186 82.3898 236.29L116.71 256.11C116.91 256.232 117.076 256.405 117.19 256.61Z" fill="#E0E0E0"/>
<path d="M115.129 285.32C115.172 285.331 115.217 285.331 115.259 285.32C115.24 285.331 115.217 285.337 115.194 285.337C115.172 285.337 115.149 285.331 115.129 285.32Z" fill="#5D9D9F"/>
<path d="M115.29 257.7L114.94 257.91C115.05 257.957 115.142 258.037 115.205 258.139C115.268 258.242 115.297 258.36 115.29 258.48V284.8C115.299 284.884 115.284 284.969 115.247 285.045C115.209 285.121 115.152 285.185 115.08 285.23C114.977 285.27 114.863 285.27 114.76 285.23L114.62 285.18L80.2896 265.36C80.094 265.234 79.9313 265.062 79.8148 264.861C79.6983 264.659 79.6314 264.433 79.6196 264.2V237.9C79.6286 237.663 79.6974 237.433 79.8196 237.23L115.29 257.7Z" fill="#EBEBEB"/>
<path opacity="0.2" d="M115.28 257.71L99.3896 263.65C98.8403 263.856 98.2374 263.869 97.6797 263.687C97.122 263.505 96.6425 263.14 96.3196 262.65L93.7696 258.74L79.6896 237.16L93.2596 258.87L79.6196 264.21C79.6279 264.448 79.7004 264.68 79.8296 264.88L93.2996 258.93L96.2996 263.68C96.6293 264.208 97.1382 264.6 97.7332 264.784C98.3283 264.968 98.9696 264.931 99.5396 264.68L101.65 263.74L115.12 285.23C115.191 285.182 115.247 285.116 115.282 285.038C115.317 284.961 115.33 284.875 115.32 284.79V284.35L101.72 263.71L115.28 257.71Z" fill="black"/>
<path d="M132.55 238C129.82 236.57 126.2 236.82 122.24 239.12C117.79 241.67 113.78 246.31 110.97 251.62C110.316 252.851 109.729 254.116 109.21 255.41C107.667 259.111 106.835 263.071 106.76 267.08V289.3C106.283 289.305 105.812 289.191 105.39 288.97L65.8998 266.15C65.5023 265.887 65.1716 265.535 64.9338 265.122C64.696 264.709 64.5577 264.246 64.5298 263.77V242.71C64.5298 232.19 71.4598 219.71 79.9998 214.71C83.9998 212.37 87.7298 212.18 90.4898 213.71L132.55 238Z" fill="#5D9D9F"/>
<path opacity="0.2" d="M132.55 238C129.82 236.57 126.2 236.82 122.24 239.12C117.79 241.67 113.78 246.31 110.97 251.62C110.316 252.851 109.729 254.116 109.21 255.41C107.667 259.111 106.835 263.071 106.76 267.08V289.3C106.283 289.305 105.812 289.191 105.39 288.97L65.8998 266.15C65.5023 265.887 65.1716 265.535 64.9338 265.122C64.696 264.709 64.5577 264.246 64.5298 263.77V242.71C64.5298 232.19 71.4598 219.71 79.9998 214.71C83.9998 212.37 87.7298 212.18 90.4898 213.71L132.55 238Z" fill="black"/>
<path opacity="0.1" d="M65.8998 266.15L105.39 289C105.812 289.221 106.283 289.335 106.76 289.33V267.11C106.774 265.019 107.022 262.936 107.5 260.9L65.2598 236.51C64.7906 238.544 64.5458 240.623 64.5298 242.71V263.77C64.5577 264.246 64.696 264.709 64.9338 265.122C65.1716 265.535 65.5023 265.887 65.8998 266.15Z" fill="black"/>
<path d="M109.21 255.44C107.667 259.141 106.835 263.101 106.76 267.11V289.3C106.592 289.295 106.424 289.275 106.26 289.24C106.26 287.97 106.26 280.85 106.26 267.11C106.26 250.8 118.81 240.43 122.26 239.11C117.81 241.66 113.8 246.3 110.99 251.61C110.328 252.854 109.734 254.132 109.21 255.44Z" fill="#5D9D9F"/>
<path opacity="0.4" d="M109.21 255.44C107.667 259.141 106.835 263.101 106.76 267.11V289.3C106.592 289.295 106.424 289.275 106.26 289.24C106.26 287.97 106.26 280.85 106.26 267.11C106.26 250.8 118.81 240.43 122.26 239.11C117.81 241.66 113.8 246.3 110.99 251.61C110.328 252.854 109.734 254.132 109.21 255.44Z" fill="black"/>
<path d="M108.76 286.77C108.54 286.9 108.35 286.77 108.35 286.53V267.12C108.422 263.386 109.185 259.697 110.6 256.24L110.69 256.03C111.235 254.66 111.863 253.324 112.57 252.03C115.3 247 119 242.82 123 240.52C124.733 239.428 126.723 238.81 128.77 238.73C129.815 238.722 130.846 238.973 131.77 239.46C134.47 240.9 136.05 244.38 136.05 249.25V270.5C136.041 270.642 136 270.78 135.928 270.903C135.857 271.026 135.759 271.131 135.64 271.21L136.26 272.68L136.4 272.6C136.613 272.443 136.805 272.258 136.97 272.05C137.369 271.555 137.6 270.945 137.63 270.31V249.25C137.63 243.62 135.63 239.7 132.48 238.04C129.75 236.6 126.13 236.85 122.17 239.15C117.72 241.7 113.71 246.33 110.9 251.66C110.247 252.888 109.659 254.15 109.14 255.44C107.595 259.144 106.764 263.107 106.69 267.12V289.29H107C107.399 289.267 107.788 289.158 108.14 288.97L108.76 286.77Z" fill="#5D9D9F"/>
<path opacity="0.1" d="M108.76 286.77C108.54 286.9 108.35 286.77 108.35 286.53V267.12C108.422 263.386 109.185 259.697 110.6 256.24L110.69 256.03C111.235 254.66 111.863 253.324 112.57 252.03C115.3 247 119 242.82 123 240.52C124.733 239.428 126.723 238.81 128.77 238.73C129.815 238.722 130.846 238.973 131.77 239.46C134.47 240.9 136.05 244.38 136.05 249.25V270.5C136.041 270.642 136 270.78 135.928 270.903C135.857 271.026 135.759 271.131 135.64 271.21L136.26 272.68L136.4 272.6C136.613 272.443 136.805 272.258 136.97 272.05C137.369 271.555 137.6 270.945 137.63 270.31V249.25C137.63 243.62 135.63 239.7 132.48 238.04C129.75 236.6 126.13 236.85 122.17 239.15C117.72 241.7 113.71 246.33 110.9 251.66C110.247 252.888 109.659 254.15 109.14 255.44C107.595 259.144 106.764 263.107 106.69 267.12V289.29H107C107.399 289.267 107.788 289.158 108.14 288.97L108.76 286.77Z" fill="black"/>
<path d="M202.94 229.88C202.986 228.978 203.246 228.099 203.698 227.317C204.15 226.535 204.781 225.871 205.54 225.38L333.71 151.38C334.516 150.971 335.406 150.757 336.31 150.757C337.214 150.757 338.104 150.971 338.91 151.38L341.84 153.07C342.595 153.564 343.223 154.229 343.673 155.01C344.123 155.792 344.382 156.669 344.43 157.57V259.45C344.38 260.35 344.119 261.226 343.67 262.008C343.22 262.789 342.593 263.454 341.84 263.95L213.66 338C212.855 338.405 211.966 338.615 211.065 338.615C210.164 338.615 209.275 338.405 208.47 338L205.54 336.31C204.785 335.816 204.156 335.151 203.705 334.369C203.253 333.588 202.991 332.711 202.94 331.81V229.88Z" fill="#5D9D9F"/>
<g opacity="0.7">
<path d="M202.94 229.88C202.986 228.978 203.246 228.099 203.698 227.317C204.15 226.535 204.781 225.871 205.54 225.38L333.71 151.38C334.516 150.971 335.406 150.757 336.31 150.757C337.214 150.757 338.104 150.971 338.91 151.38L341.84 153.07C342.595 153.564 343.223 154.229 343.673 155.01C344.123 155.792 344.382 156.669 344.43 157.57V259.45C344.38 260.35 344.119 261.226 343.67 262.008C343.22 262.789 342.593 263.454 341.84 263.95L213.66 338C212.855 338.405 211.966 338.615 211.065 338.615C210.164 338.615 209.275 338.405 208.47 338L205.54 336.31C204.785 335.816 204.156 335.151 203.705 334.369C203.253 333.588 202.991 332.711 202.94 331.81V229.88Z" fill="white"/>
</g>
<path d="M203.7 227.32L211.07 231.57L343.67 155C343.23 154.211 342.601 153.545 341.84 153.06L338.9 151.38C338.099 150.966 337.211 150.75 336.31 150.75C335.408 150.75 334.52 150.966 333.72 151.38L205.54 225.38C204.768 225.856 204.134 226.525 203.7 227.32Z" fill="#5D9D9F"/>
<path opacity="0.8" d="M203.7 227.32L211.07 231.57L343.67 155C343.23 154.211 342.601 153.545 341.84 153.06L338.9 151.38C338.099 150.966 337.211 150.75 336.31 150.75C335.408 150.75 334.52 150.966 333.72 151.38L205.54 225.38C204.768 225.856 204.134 226.525 203.7 227.32Z" fill="white"/>
<path opacity="0.1" d="M202.94 229.87V331.75C202.986 332.652 203.246 333.531 203.698 334.313C204.15 335.095 204.781 335.759 205.54 336.25L208.47 337.95C208.697 338.076 208.935 338.183 209.18 338.27C209.528 338.384 209.886 338.464 210.25 338.51C210.933 338.597 211.625 338.573 212.3 338.44L212.81 338.31L213.13 338.2C212.928 338.28 212.712 338.318 212.495 338.309C212.278 338.3 212.065 338.246 211.87 338.15C211.591 337.969 211.369 337.715 211.227 337.414C211.086 337.114 211.031 336.78 211.07 336.45V234.57C211.043 234.108 211.158 233.649 211.399 233.254C211.64 232.859 211.996 232.547 212.42 232.36L211.07 231.57L203.7 227.32C203.233 228.091 202.972 228.969 202.94 229.87Z" fill="#5D9D9F"/>
<path opacity="0.05" d="M202.94 229.87V331.75C202.986 332.652 203.246 333.531 203.698 334.313C204.15 335.095 204.781 335.759 205.54 336.25L208.47 337.95C208.697 338.076 208.935 338.183 209.18 338.27C209.528 338.384 209.886 338.464 210.25 338.51C210.933 338.597 211.625 338.573 212.3 338.44L212.81 338.31L213.13 338.2C212.928 338.28 212.712 338.318 212.495 338.309C212.278 338.3 212.065 338.246 211.87 338.15C211.591 337.969 211.369 337.715 211.227 337.414C211.086 337.114 211.031 336.78 211.07 336.45V234.57C211.043 234.108 211.158 233.649 211.399 233.254C211.64 232.859 211.996 232.547 212.42 232.36L211.07 231.57L203.7 227.32C203.233 228.091 202.972 228.969 202.94 229.87Z" fill="black"/>
<path opacity="0.2" d="M211.07 231.57L272.62 254.57C274.75 255.366 277.087 255.412 279.247 254.701C281.406 253.991 283.259 252.565 284.5 250.66L294.38 235.51L343.67 155L296.35 236.07L344.43 259.48C344.385 260.401 344.106 261.296 343.62 262.08L296.2 236.32L284.72 254.7C283.445 256.743 281.476 258.257 279.174 258.964C276.872 259.672 274.392 259.524 272.19 258.55L264 254.94L211.85 338.15C211.571 337.969 211.349 337.715 211.208 337.414C211.066 337.114 211.012 336.78 211.05 336.45V334.75L263.74 254.83L211.07 231.57Z" fill="#5D9D9F"/>
<path opacity="0.05" d="M211.07 231.57L272.62 254.57C274.75 255.366 277.087 255.412 279.247 254.701C281.406 253.991 283.259 252.565 284.5 250.66L294.38 235.51L343.67 155L296.35 236.07L344.43 259.48C344.385 260.401 344.106 261.296 343.62 262.08L296.2 236.32L284.72 254.7C283.445 256.743 281.476 258.257 279.174 258.964C276.872 259.672 274.392 259.524 272.19 258.55L264 254.94L211.85 338.15C211.571 337.969 211.349 337.715 211.208 337.414C211.066 337.114 211.012 336.78 211.05 336.45V334.75L263.74 254.83L211.07 231.57Z" fill="black"/>
<path d="M235.44 248.66C235.488 247.759 235.747 246.882 236.197 246.1C236.647 245.319 237.275 244.654 238.03 244.16L366.21 170.16C367.014 169.751 367.903 169.537 368.805 169.537C369.707 169.537 370.596 169.751 371.4 170.16L374.33 171.85C375.087 172.343 375.717 173.007 376.169 173.789C376.62 174.571 376.881 175.448 376.93 176.35V278.23C376.88 279.131 376.618 280.008 376.167 280.79C375.715 281.572 375.086 282.236 374.33 282.73L246.16 356.73C245.353 357.135 244.463 357.345 243.56 357.345C242.657 357.345 241.767 357.135 240.96 356.73L238 355C237.248 354.503 236.622 353.838 236.172 353.057C235.723 352.275 235.462 351.4 235.41 350.5L235.44 248.66Z" fill="#5D9D9F"/>
<g opacity="0.5">
<path d="M235.44 248.66C235.488 247.759 235.747 246.882 236.197 246.1C236.647 245.319 237.275 244.654 238.03 244.16L366.21 170.16C367.014 169.751 367.903 169.537 368.805 169.537C369.707 169.537 370.596 169.751 371.4 170.16L374.33 171.85C375.087 172.343 375.717 173.007 376.169 173.789C376.62 174.571 376.881 175.448 376.93 176.35V278.23C376.88 279.131 376.618 280.008 376.167 280.79C375.715 281.572 375.086 282.236 374.33 282.73L246.16 356.73C245.353 357.135 244.463 357.345 243.56 357.345C242.657 357.345 241.767 357.135 240.96 356.73L238 355C237.248 354.503 236.622 353.838 236.172 353.057C235.723 352.275 235.462 351.4 235.41 350.5L235.44 248.66Z" fill="white"/>
</g>
<path d="M236.19 246.1L243.57 250.35L376.17 173.79C375.73 173.001 375.101 172.335 374.34 171.85L371.4 170.17C370.598 169.756 369.708 169.54 368.805 169.54C367.902 169.54 367.012 169.756 366.21 170.17L238 244.16C237.24 244.641 236.617 245.309 236.19 246.1Z" fill="#5D9D9F"/>
<path opacity="0.6" d="M236.19 246.1L243.57 250.35L376.17 173.79C375.73 173.001 375.101 172.335 374.34 171.85L371.4 170.17C370.598 169.756 369.708 169.54 368.805 169.54C367.902 169.54 367.012 169.756 366.21 170.17L238 244.16C237.24 244.641 236.617 245.309 236.19 246.1Z" fill="white"/>
<path opacity="0.1" d="M235.43 248.65V350.53C235.479 351.424 235.737 352.295 236.183 353.071C236.629 353.847 237.252 354.508 238 355L240.92 356.7C241.151 356.826 241.392 356.933 241.64 357.02C241.988 357.135 242.347 357.215 242.71 357.26C243.393 357.347 244.085 357.323 244.76 357.19L245.26 357.05C245.367 357.02 245.471 356.98 245.57 356.93C245.375 357.015 245.164 357.059 244.95 357.059C244.737 357.059 244.526 357.015 244.33 356.93C244.052 356.746 243.831 356.489 243.69 356.188C243.548 355.886 243.493 355.551 243.53 355.22V253.35C243.503 252.888 243.618 252.429 243.859 252.034C244.1 251.639 244.457 251.327 244.88 251.14L243.53 250.35L236.15 246.1C235.702 246.877 235.455 247.753 235.43 248.65Z" fill="black"/>
<path opacity="0.4" d="M243.57 250.35L305.12 273.35C307.25 274.146 309.587 274.192 311.747 273.481C313.907 272.771 315.759 271.345 317 269.44L326.89 254.3L376.18 173.79L328.86 254.86L376.94 278.27C376.895 279.191 376.616 280.086 376.13 280.87L328.7 255.1L317.21 273.48C315.936 275.52 313.968 277.033 311.668 277.74C309.369 278.447 306.891 278.302 304.69 277.33L296.51 273.72L244.37 356.94C244.092 356.756 243.871 356.499 243.73 356.198C243.588 355.896 243.533 355.561 243.57 355.23V353.53L296.26 273.61L243.57 250.35Z" fill="#5D9D9F"/>
<path opacity="0.05" d="M243.57 250.35L305.12 273.35C307.25 274.146 309.587 274.192 311.747 273.481C313.907 272.771 315.759 271.345 317 269.44L326.89 254.3L376.18 173.79L328.86 254.86L376.94 278.27C376.895 279.191 376.616 280.086 376.13 280.87L328.7 255.1L317.21 273.48C315.936 275.52 313.968 277.033 311.668 277.74C309.369 278.447 306.891 278.302 304.69 277.33L296.51 273.72L244.37 356.94C244.092 356.756 243.871 356.499 243.73 356.198C243.588 355.896 243.533 355.561 243.57 355.23V353.53L296.26 273.61L243.57 250.35Z" fill="black"/>
<path d="M268.2 268.26L401.58 191.26L406.92 194.34C407.649 194.817 408.255 195.458 408.691 196.212C409.127 196.965 409.38 197.811 409.43 198.68V297.08C409.382 297.95 409.129 298.796 408.693 299.55C408.257 300.304 407.65 300.944 406.92 301.42L278.56 375.52C277.785 375.911 276.929 376.115 276.06 376.115C275.192 376.115 274.336 375.911 273.56 375.52L270.73 373.89C270.002 373.413 269.395 372.772 268.959 372.018C268.523 371.265 268.27 370.419 268.22 369.55L268.2 268.26Z" fill="#5D9D9F"/>
<path opacity="0.2" d="M268.2 268.26L401.58 191.26L406.92 194.34C407.649 194.817 408.255 195.458 408.691 196.212C409.127 196.965 409.38 197.811 409.43 198.68V297.08C409.382 297.95 409.129 298.796 408.693 299.55C408.257 300.304 407.65 300.944 406.92 301.42L278.56 375.52C277.785 375.911 276.929 376.115 276.06 376.115C275.192 376.115 274.336 375.911 273.56 375.52L270.73 373.89C270.002 373.413 269.395 372.772 268.959 372.018C268.523 371.265 268.27 370.419 268.22 369.55L268.2 268.26Z" fill="black"/>
<path d="M400.85 182.6L401.39 182.3L399.32 181.1C399.146 180.995 398.962 180.908 398.77 180.84L340.07 159.08C339.262 158.817 338.392 158.814 337.583 159.072C336.773 159.331 336.066 159.837 335.56 160.52L269.9 256.41C268.873 258.061 268.288 259.948 268.2 261.89V268.25L270.2 269.44L401.54 191.25V184.88C401.53 184.07 401.29 183.28 400.85 182.6Z" fill="#5D9D9F"/>
<path opacity="0.1" d="M338.28 161C338.019 161.205 337.789 161.447 337.6 161.72L271.93 257.61C271.39 258.458 270.979 259.382 270.71 260.35L268.71 259.17C268.858 258.677 269.035 258.192 269.24 257.72C269.33 257.52 269.42 257.33 269.52 257.14L269.57 257.05C269.674 256.849 269.791 256.656 269.92 256.47L335.58 160.58C335.679 160.438 335.789 160.304 335.91 160.18L336.26 159.86L338.28 161Z" fill="black"/>
<path opacity="0.35" d="M401.37 182.29C401.192 182.182 401.005 182.092 400.81 182.02L342.1 160.26C341.454 160.045 340.765 159.999 340.096 160.125C339.428 160.251 338.803 160.545 338.28 160.98L336.28 159.8C336.807 159.369 337.434 159.078 338.103 158.952C338.772 158.826 339.462 158.87 340.11 159.08L398.81 180.83C399.002 180.902 399.186 180.992 399.36 181.1L401.37 182.29Z" fill="white"/>
<path opacity="0.2" d="M335.56 160.52C335.662 160.38 335.772 160.246 335.89 160.12C335.767 160.242 335.656 160.376 335.56 160.52Z" fill="black"/>
<path d="M337.6 161.7L271.93 257.59C270.911 259.244 270.329 261.129 270.24 263.07V269.44L403.62 192.44V186.08C403.573 185.217 403.284 184.385 402.788 183.678C402.291 182.971 401.606 182.417 400.81 182.08L342.1 160.27C341.295 160 340.426 159.993 339.617 160.25C338.808 160.507 338.102 161.015 337.6 161.7Z" fill="#5D9D9F"/>
<path opacity="0.05" d="M403.62 186.06C403.593 185.262 403.348 184.487 402.91 183.82L270.71 260.33C270.429 261.21 270.274 262.126 270.25 263.05V269.42L403.63 192.42L403.62 186.06Z" fill="black"/>
<path d="M397.92 159C397.947 158.733 397.904 158.463 397.795 158.218C397.686 157.973 397.516 157.76 397.3 157.6L393.22 155.25C392.974 155.139 392.702 155.096 392.433 155.124C392.165 155.152 391.908 155.251 391.69 155.41L282.29 218.6C281.659 219.01 281.133 219.563 280.756 220.215C280.379 220.867 280.161 221.598 280.12 222.35V353.35C280.09 353.618 280.133 353.89 280.244 354.136C280.355 354.382 280.529 354.594 280.75 354.75L284.81 357.1C285.056 357.21 285.327 357.254 285.595 357.228C285.863 357.202 286.12 357.106 286.34 356.95L395.76 293.8C396.389 293.388 396.911 292.834 397.287 292.182C397.662 291.531 397.879 290.801 397.92 290.05V159Z" fill="#F0F0F0"/>
<path d="M286.35 357L395.76 293.8C396.388 293.388 396.911 292.834 397.287 292.182C397.662 291.531 397.879 290.801 397.92 290.05V159C397.92 157.62 396.92 157.06 395.76 157.75L286.35 220.94C285.721 221.352 285.199 221.906 284.823 222.558C284.448 223.209 284.231 223.939 284.19 224.69V355.69C284.19 357.1 285.16 357.66 286.35 357Z" fill="#FAFAFA"/>
<path d="M356.47 233C356.365 234.48 356.09 235.943 355.65 237.36C355.256 238.633 354.726 239.86 354.07 241.02C353.502 242.035 352.81 242.976 352.01 243.82C351.348 244.525 350.574 245.117 349.72 245.57C348.79 246.181 347.676 246.449 346.57 246.33C345.926 246.197 345.35 245.844 344.94 245.33C344.7 245.85 344.45 246.37 344.19 246.89C343.91 247.445 343.575 247.971 343.19 248.46C342.758 249.017 342.265 249.523 341.72 249.97C341.06 250.518 340.338 250.988 339.57 251.37C338.751 251.854 337.792 252.045 336.85 251.91C336.023 251.724 335.303 251.216 334.85 250.5C334.229 249.536 333.817 248.453 333.64 247.32C333.375 245.741 333.285 244.138 333.37 242.54C333.437 240.778 333.654 239.025 334.02 237.3C334.352 235.748 334.831 234.231 335.45 232.77C335.995 231.49 336.715 230.292 337.59 229.21C338.344 228.26 339.287 227.476 340.36 226.91C340.716 226.659 341.119 226.483 341.546 226.391C341.972 226.3 342.412 226.296 342.84 226.38C343.386 226.624 343.836 227.043 344.12 227.57V227.03C344.143 226.574 344.269 226.13 344.49 225.73C344.664 225.361 344.942 225.052 345.29 224.84L347.43 223.75C347.546 223.673 347.685 223.639 347.824 223.653C347.963 223.668 348.092 223.73 348.19 223.83C348.304 223.968 348.389 224.128 348.439 224.3C348.489 224.472 348.503 224.652 348.48 224.83L348 237.54C347.96 238.5 348.14 239.13 348.54 239.43C348.75 239.575 348.999 239.653 349.255 239.653C349.51 239.653 349.76 239.575 349.97 239.43C350.598 239.075 351.103 238.538 351.42 237.89C351.901 236.932 352.171 235.882 352.21 234.81C352.31 233.7 352.38 232.56 352.43 231.38C352.48 230.2 352.48 229.11 352.43 228.11C352.404 226.315 352.135 224.532 351.63 222.81C351.316 221.596 350.613 220.518 349.63 219.74C348.646 219.081 347.449 218.82 346.28 219.01C344.568 219.278 342.917 219.843 341.4 220.68C339.801 221.506 338.344 222.579 337.08 223.86C335.783 225.19 334.655 226.675 333.72 228.28C332.75 229.974 331.965 231.768 331.38 233.63C330.766 235.552 330.334 237.527 330.09 239.53C330.02 240.08 329.96 240.78 329.91 241.65C329.86 242.52 329.82 243.42 329.78 244.36C329.74 245.3 329.71 246.21 329.69 247.09C329.67 247.97 329.69 248.66 329.69 249.19C329.734 250.804 330.024 252.403 330.55 253.93C330.929 255.111 331.62 256.169 332.55 256.99C333.431 257.721 334.545 258.111 335.69 258.09C337.175 258.04 338.626 257.632 339.92 256.9C340.935 256.387 341.914 255.805 342.85 255.16C343.621 254.626 344.352 254.038 345.04 253.4C345.612 252.851 346.153 252.27 346.66 251.66C347.11 251.09 347.52 250.54 347.89 250C348.26 249.46 348.45 249.17 348.64 248.94C348.834 248.692 349.084 248.493 349.37 248.36L352.37 246.8C352.482 246.716 352.619 246.67 352.76 246.67C352.9 246.67 353.037 246.716 353.15 246.8C353.37 246.98 353.46 247.33 353.41 247.87C353.376 248.222 353.267 248.564 353.09 248.87C352.48 250 351.79 251.2 351.03 252.45C350.234 253.75 349.331 254.981 348.33 256.13C347.2 257.408 345.966 258.588 344.64 259.66C343.091 260.9 341.415 261.973 339.64 262.86C337.744 263.953 335.598 264.535 333.41 264.55C331.768 264.502 330.198 263.863 328.99 262.75C327.715 261.487 326.789 259.916 326.3 258.19C325.651 256.06 325.315 253.847 325.3 251.62C325.3 251.08 325.3 250.34 325.3 249.4C325.3 248.47 325.35 247.49 325.39 246.47C325.43 245.45 325.48 244.47 325.53 243.55C325.58 242.63 325.63 241.89 325.68 241.36C325.932 238.709 326.447 236.089 327.22 233.54C328.001 230.899 329.067 228.35 330.4 225.94C331.717 223.548 333.33 221.33 335.2 219.34C337.024 217.373 339.181 215.741 341.57 214.52C343.725 213.277 346.137 212.545 348.62 212.38C350.315 212.312 351.971 212.895 353.25 214.01C354.531 215.277 355.417 216.889 355.8 218.65C356.359 220.891 356.654 223.19 356.68 225.5C356.68 226.5 356.68 227.71 356.61 229.09C356.54 230.47 356.56 231.85 356.47 233ZM337.69 240.32C337.515 241.735 337.723 243.172 338.29 244.48C338.76 245.3 339.48 245.48 340.44 244.97C341.532 244.366 342.368 243.385 342.79 242.21C343.394 240.611 343.712 238.919 343.73 237.21C343.897 235.783 343.697 234.338 343.15 233.01C342.69 232.17 341.95 232.01 340.94 232.53C339.867 233.151 339.054 234.138 338.65 235.31C338.047 236.899 337.722 238.581 337.69 240.28V240.32Z" fill="#5D9D9F"/>
<path d="M284.18 355.72C284.16 355.964 284.196 356.21 284.284 356.438C284.372 356.667 284.511 356.872 284.69 357.04L280.76 354.78C280.537 354.625 280.361 354.414 280.248 354.168C280.135 353.921 280.091 353.649 280.12 353.38V222.38C280.145 221.626 280.365 220.892 280.76 220.25L284.82 222.59C284.425 223.236 284.204 223.973 284.18 224.73V355.72Z" fill="#E0E0E0"/>
<path d="M406.05 298.38C406.01 298.451 405.964 298.518 405.91 298.58L350.32 281C348.21 280.069 345.834 279.93 343.629 280.61C341.425 281.289 339.54 282.742 338.32 284.7L278.89 373L276.69 374.27C276.445 374.441 276.161 374.548 275.864 374.581C275.567 374.614 275.267 374.573 274.99 374.46L336.1 283.46C337.324 281.506 339.209 280.057 341.411 279.376C343.614 278.695 345.987 278.828 348.1 279.75L406.05 298.38Z" fill="#5D9D9F"/>
<path opacity="0.4" d="M332.84 293.32L332.98 293.2L278.89 373L276.69 374.27C276.444 374.439 276.16 374.544 275.864 374.577C275.567 374.61 275.267 374.57 274.99 374.46L330.7 292L332.84 293.32Z" fill="white"/>
<path opacity="0.4" d="M406.05 298.38C406.01 298.451 405.963 298.518 405.91 298.58L350.32 281C348.21 280.066 345.833 279.927 343.628 280.607C341.423 281.286 339.538 282.74 338.32 284.7L336.12 283.42C337.346 281.468 339.232 280.023 341.435 279.347C343.639 278.672 346.011 278.811 348.12 279.74L406.05 298.38Z" fill="white"/>
<path d="M409.38 198.05C409.26 197.33 408.88 197.13 408.38 197.47C408.133 197.654 407.917 197.877 407.74 198.13L407.46 198.52L352.61 281.9L344.42 293.31C343.893 293.975 343.194 294.484 342.4 294.781C341.605 295.079 340.744 295.155 339.91 295L332.84 293.32L278.84 273.46C278.477 273.386 278.103 273.386 277.74 273.46C277.599 273.488 277.462 273.532 277.33 273.59L279.33 272.41L331.07 291.41L337.88 293.84C338.714 293.997 339.576 293.922 340.371 293.624C341.166 293.326 341.864 292.817 342.39 292.15L350.58 280.75L405.7 196.98C405.868 196.752 406.079 196.558 406.32 196.41L401.55 193.66L403.55 192.51L406.85 194.41C407.493 194.818 408.048 195.35 408.482 195.975C408.916 196.6 409.222 197.305 409.38 198.05Z" fill="#5D9D9F"/>
<path opacity="0.4" d="M352.61 281.9L344.42 293.31C343.893 293.975 343.194 294.483 342.4 294.781C341.605 295.079 340.744 295.155 339.91 295L332.84 293.32L332.98 293.2L333.32 292.66L337.95 293.76C338.784 293.917 339.646 293.842 340.441 293.544C341.236 293.246 341.934 292.737 342.46 292.07L350.57 280.79L352.61 281.9Z" fill="white"/>
<path opacity="0.1" d="M406.92 194.32L403.62 192.42L401.62 193.57L406.39 196.32C406.147 196.466 405.936 196.66 405.77 196.89L350.65 280.66L350.57 280.77L352.57 281.88L407.42 198.49L407.7 198.1C407.877 197.847 408.093 197.624 408.34 197.44C408.83 197.1 409.21 197.3 409.34 198.02C409.202 197.274 408.917 196.562 408.502 195.927C408.086 195.291 407.549 194.745 406.92 194.32Z" fill="black"/>
<path d="M280 275.05L268.23 268.26V369.55C268.28 370.419 268.533 371.265 268.969 372.018C269.405 372.772 270.012 373.413 270.74 373.89L273.57 375.52C274.345 375.911 275.202 376.115 276.07 376.115C276.938 376.115 277.795 375.911 278.57 375.52L279.98 374.71L280 275.05Z" fill="#5D9D9F"/>
<path opacity="0.15" d="M280 275.05L268.23 268.26V369.55C268.28 370.419 268.533 371.265 268.969 372.018C269.405 372.772 270.012 373.413 270.74 373.89L273.57 375.52C274.345 375.911 275.202 376.115 276.07 376.115C276.938 376.115 277.795 375.911 278.57 375.52L279.98 374.71L280 275.05Z" fill="black"/>
<path d="M409.43 198.68V297.07C409.399 297.971 409.13 298.847 408.65 299.61C408.277 300.254 407.777 300.816 407.18 301.26L407.08 301.31C407.029 301.35 406.976 301.387 406.92 301.42L278.56 375.52C278.315 375.694 278.03 375.804 277.731 375.839C277.432 375.874 277.129 375.833 276.85 375.72C276.637 375.596 276.458 375.422 276.327 375.213C276.196 375.004 276.119 374.766 276.1 374.52C276.09 374.37 276.09 374.22 276.1 374.07V275.67C276.078 275.318 276.142 274.965 276.286 274.643C276.43 274.321 276.65 274.038 276.927 273.82C277.205 273.601 277.531 273.454 277.878 273.389C278.225 273.325 278.583 273.346 278.92 273.45L332.92 293.31L339.99 294.99C340.825 295.145 341.685 295.069 342.48 294.771C343.274 294.473 343.973 293.965 344.5 293.3L352.69 281.89L407.54 198.51L407.82 198.12C408.67 196.84 409.43 197.08 409.43 198.68Z" fill="#5D9D9F"/>
<path d="M406.92 301.42L407.09 301.31L407.18 301.25C407.779 300.812 408.28 300.253 408.65 299.61C409.123 298.859 409.392 297.997 409.43 297.11L352.62 281.91L390.62 310.8L406.92 301.42Z" fill="#5D9D9F"/>
<path opacity="0.2" d="M406.92 301.42L407.09 301.31L407.18 301.25C407.779 300.812 408.28 300.253 408.65 299.61C409.123 298.859 409.392 297.997 409.43 297.11L352.62 281.91L390.62 310.8L406.92 301.42Z" fill="black"/>
<path d="M276.05 374.07C276.013 374.39 276.067 374.715 276.205 375.006C276.342 375.298 276.559 375.545 276.83 375.72C277.108 375.835 277.41 375.879 277.709 375.845C278.008 375.812 278.294 375.704 278.54 375.53L322.75 350L332.85 293.31L276.05 372.43V374.07Z" fill="#5D9D9F"/>
<path opacity="0.15" d="M338.29 284.64L276.83 375.72C276.559 375.545 276.342 375.298 276.205 375.006C276.067 374.715 276.013 374.39 276.05 374.07V372.44L336.05 283.44L338.29 284.64Z" fill="black"/>
<path d="M408.65 299.61C408.28 300.253 407.779 300.812 407.18 301.25L407.09 301.31L278.56 375.52C278.314 375.694 278.029 375.802 277.73 375.835C277.431 375.869 277.128 375.825 276.85 375.71L338.32 284.62C339.551 282.652 341.45 281.194 343.668 280.513C345.887 279.831 348.277 279.972 350.4 280.91L408.65 299.61Z" fill="#5D9D9F"/>
<path opacity="0.15" d="M268.67 259.15L270.67 260.33C270.387 261.217 270.229 262.139 270.2 263.07V269.43L268.2 268.25V261.88C268.229 260.953 268.388 260.034 268.67 259.15Z" fill="black"/>
<path d="M279.4 272.37L277.36 273.55L275.3 272.36L270.23 269.44L272.2 268.27L279.4 272.37Z" fill="#5D9D9F"/>
<path opacity="0.1" d="M279.49 272.41L272.2 268.27L270.2 269.44L275.27 272.36L277.33 273.55L277.72 273.43C278.083 273.356 278.457 273.356 278.82 273.43L283 275L330.11 292.35L330.85 291.26L279.49 272.41Z" fill="black"/>
<path d="M169 102.07L161.38 106.47C161.419 106.138 161.439 105.804 161.44 105.47V103.27C161.44 99.34 158.68 97.75 155.28 99.71C153.821 100.614 152.57 101.817 151.61 103.24C151.06 98.3 147.18 96.46 142.47 99.18C137.39 102.12 133.26 109.26 133.26 115.18V118.48C133.227 119.799 133.494 121.109 134.04 122.31L127.71 125.96C126.717 126.61 125.891 127.485 125.299 128.513C124.707 129.542 124.364 130.695 124.3 131.88C124.3 134.06 125.83 134.94 127.71 133.88L169 110C169.992 109.352 170.818 108.479 171.411 107.452C172.003 106.425 172.345 105.274 172.41 104.09C172.44 101.87 170.91 101 169 102.07Z" fill="#F0F0F0"/>
<path d="M132.14 77L122.76 82.41C122.811 81.9986 122.838 81.5846 122.84 81.17V78.41C122.84 73.58 119.45 71.62 115.26 74.04C113.46 75.1462 111.918 76.6263 110.74 78.38C110.06 72.3 105.29 70.04 99.4899 73.38C93.2299 77 88.1499 85.8 88.1499 93V97.06C88.1218 98.6855 88.4637 100.296 89.1499 101.77L81.3599 106.27C80.1356 107.067 79.1165 108.142 78.385 109.407C77.6536 110.672 77.2304 112.091 77.1499 113.55C77.1499 116.24 79.0399 117.32 81.3599 115.98L132.18 86.64C133.406 85.8443 134.426 84.7701 135.158 83.5049C135.89 82.2397 136.312 80.8194 136.39 79.36C136.35 76.7 134.47 75.62 132.14 77Z" fill="#F0F0F0"/>
<path d="M428.96 164.72L464.33 142.07L479.92 147.07L428.96 164.72Z" fill="#5D9D9F"/>
<path d="M428.96 164.72L459.53 139.22L452.74 131.38L428.96 164.72Z" fill="#5D9D9F"/>
<path d="M459.53 139.22V145.14L428.96 164.72L459.53 139.22Z" fill="#5D9D9F"/>
<path opacity="0.25" d="M459.53 139.22V145.14L428.96 164.72L459.53 139.22Z" fill="black"/>
<path d="M464.63 138.73C464.479 138.73 464.332 138.685 464.207 138.6C464.083 138.515 463.987 138.394 463.932 138.254C463.877 138.114 463.865 137.96 463.899 137.813C463.932 137.666 464.009 137.532 464.12 137.43C465.168 136.461 466.135 135.407 467.01 134.28C467.068 134.196 467.142 134.125 467.228 134.071C467.314 134.016 467.41 133.98 467.51 133.964C467.611 133.948 467.713 133.953 467.812 133.978C467.91 134.003 468.003 134.047 468.084 134.109C468.164 134.171 468.232 134.248 468.282 134.337C468.332 134.426 468.363 134.523 468.374 134.625C468.385 134.726 468.375 134.828 468.345 134.925C468.315 135.022 468.266 135.112 468.2 135.19C467.273 136.385 466.25 137.502 465.14 138.53C465 138.656 464.819 138.727 464.63 138.73ZM470.26 131.26C470.142 131.262 470.025 131.235 469.92 131.18C469.832 131.136 469.754 131.076 469.69 131.002C469.626 130.928 469.577 130.842 469.546 130.749C469.515 130.656 469.503 130.558 469.511 130.46C469.519 130.362 469.545 130.267 469.59 130.18C470.463 128.439 471.134 126.604 471.59 124.71C471.636 124.516 471.758 124.349 471.928 124.245C472.097 124.141 472.301 124.109 472.495 124.155C472.689 124.201 472.856 124.323 472.96 124.493C473.064 124.662 473.096 124.866 473.05 125.06C472.578 127.065 471.874 129.009 470.95 130.85C470.886 130.977 470.787 131.082 470.664 131.155C470.542 131.228 470.402 131.264 470.26 131.26ZM473 120.69C472.901 120.686 472.805 120.663 472.715 120.622C472.626 120.58 472.545 120.522 472.478 120.449C472.411 120.377 472.359 120.292 472.325 120.199C472.291 120.107 472.276 120.009 472.28 119.91C472.28 119.5 472.28 119.1 472.28 118.7C472.279 117.155 472.149 115.613 471.89 114.09C471.873 113.993 471.875 113.893 471.896 113.797C471.917 113.7 471.958 113.609 472.014 113.528C472.071 113.448 472.143 113.379 472.226 113.326C472.31 113.273 472.403 113.237 472.5 113.22C472.697 113.188 472.899 113.235 473.062 113.351C473.225 113.467 473.336 113.643 473.37 113.84C473.64 115.446 473.778 117.071 473.78 118.7C473.78 119.12 473.78 119.55 473.78 119.97C473.776 120.069 473.753 120.165 473.712 120.255C473.67 120.344 473.612 120.425 473.539 120.492C473.467 120.559 473.382 120.611 473.289 120.645C473.197 120.679 473.098 120.694 473 120.69ZM471.39 109.88C471.233 109.88 471.08 109.831 470.953 109.739C470.826 109.648 470.73 109.519 470.68 109.37C470.033 107.526 469.22 105.746 468.25 104.05C468.163 103.878 468.144 103.681 468.196 103.496C468.248 103.311 468.367 103.152 468.53 103.05C468.701 102.961 468.9 102.941 469.085 102.993C469.271 103.045 469.43 103.165 469.53 103.33C470.544 105.108 471.391 106.976 472.06 108.91C472.1 109.005 472.119 109.108 472.117 109.211C472.115 109.315 472.092 109.417 472.048 109.511C472.005 109.604 471.943 109.688 471.866 109.757C471.789 109.826 471.698 109.878 471.6 109.91C471.526 109.908 471.452 109.898 471.38 109.88H471.39ZM466.13 100.27C466.016 100.27 465.904 100.243 465.802 100.193C465.699 100.143 465.61 100.07 465.54 99.98C464.34 98.4279 463.023 96.9703 461.6 95.62C461.509 95.5606 461.431 95.4821 461.373 95.3897C461.315 95.2974 461.278 95.1936 461.264 95.0854C461.251 94.9773 461.261 94.8674 461.294 94.7635C461.327 94.6596 461.382 94.5642 461.456 94.4839C461.529 94.4035 461.62 94.3402 461.72 94.2984C461.821 94.2565 461.93 94.2371 462.039 94.2415C462.147 94.2459 462.254 94.274 462.351 94.3238C462.448 94.3736 462.533 94.444 462.6 94.53C464.079 95.9344 465.45 97.4487 466.7 99.06C466.805 99.2142 466.849 99.4021 466.823 99.5871C466.798 99.772 466.704 99.9407 466.56 100.06C466.441 100.178 466.286 100.252 466.12 100.27H466.13ZM458.3 92.59C458.138 92.5907 457.979 92.538 457.85 92.44C456.274 91.2571 454.628 90.1718 452.92 89.19C452.757 89.0883 452.638 88.9287 452.588 88.7431C452.538 88.5576 452.56 88.3599 452.65 88.19C452.748 88.0231 452.908 87.9013 453.095 87.8509C453.282 87.8004 453.481 87.8252 453.65 87.92C455.41 88.9316 457.107 90.0504 458.73 91.27C458.856 91.3644 458.949 91.4961 458.996 91.6464C459.043 91.7966 459.041 91.9578 458.991 92.1072C458.942 92.2565 458.846 92.3864 458.719 92.4784C458.591 92.5705 458.437 92.62 458.28 92.62L458.3 92.59ZM379.71 89.69C379.544 89.6913 379.383 89.6377 379.251 89.5376C379.119 89.4374 379.024 89.2964 378.98 89.1365C378.937 88.9766 378.948 88.8068 379.011 88.6537C379.074 88.5005 379.186 88.3727 379.33 88.29C381.07 87.29 382.87 86.35 384.7 85.48C384.789 85.4378 384.886 85.4136 384.985 85.4088C385.083 85.4041 385.182 85.4188 385.275 85.4523C385.368 85.4857 385.453 85.5372 385.526 85.6037C385.599 85.6703 385.658 85.7506 385.7 85.84C385.744 85.929 385.769 86.0259 385.774 86.1249C385.78 86.2239 385.765 86.3229 385.732 86.4162C385.698 86.5095 385.646 86.5951 385.579 86.6679C385.512 86.7407 385.43 86.7992 385.34 86.84C383.55 87.69 381.78 88.61 380.08 89.59C379.965 89.657 379.833 89.6915 379.7 89.69H379.71ZM448.87 87C448.759 87.0019 448.65 86.978 448.55 86.93C446.77 86.07 444.94 85.28 443.1 84.57C443.004 84.5348 442.917 84.4805 442.843 84.4105C442.769 84.3404 442.71 84.256 442.67 84.1624C442.63 84.0689 442.609 83.9681 442.609 83.8662C442.609 83.7644 442.63 83.6636 442.67 83.57C442.705 83.4744 442.759 83.387 442.829 83.3131C442.9 83.2392 442.984 83.1803 443.078 83.14C443.171 83.0998 443.272 83.0791 443.374 83.079C443.476 83.079 443.576 83.0998 443.67 83.14C445.54 83.86 447.41 84.67 449.23 85.55C449.38 85.6256 449.501 85.7495 449.572 85.9018C449.643 86.0541 449.662 86.226 449.624 86.3898C449.585 86.5536 449.493 86.6999 449.362 86.8052C449.231 86.9104 449.068 86.9684 448.9 86.97L448.87 87ZM389.6 85C389.449 84.9974 389.302 84.9505 389.178 84.8652C389.053 84.7798 388.957 84.6598 388.9 84.52C388.86 84.4264 388.839 84.3256 388.839 84.2238C388.839 84.1219 388.86 84.0211 388.9 83.9276C388.94 83.834 388.999 83.7496 389.073 83.6795C389.147 83.6095 389.234 83.5552 389.33 83.52C391.2 82.79 393.13 82.12 395.06 81.52C395.251 81.463 395.457 81.4842 395.632 81.5789C395.807 81.6736 395.938 81.834 395.995 82.025C396.052 82.216 396.031 82.4217 395.936 82.5971C395.841 82.7724 395.681 82.903 395.49 82.96C393.6 83.52 391.71 84.18 389.88 84.89C389.791 84.9254 389.696 84.9424 389.6 84.94V85ZM438.6 83C438.527 83.0143 438.453 83.0143 438.38 83C436.5 82.43 434.57 81.93 432.64 81.51C432.541 81.4864 432.447 81.4434 432.365 81.3836C432.282 81.3239 432.212 81.2484 432.159 81.1616C432.051 80.9862 432.017 80.7752 432.065 80.575C432.113 80.3748 432.238 80.2017 432.413 80.0939C432.589 79.986 432.8 79.9523 433 80C435 80.43 436.94 80.94 438.86 81.53C438.955 81.5586 439.043 81.6056 439.119 81.6684C439.196 81.7312 439.259 81.8085 439.306 81.8959C439.352 81.9833 439.381 82.079 439.39 82.1775C439.4 82.2761 439.389 82.3755 439.36 82.47C439.311 82.6231 439.216 82.7568 439.086 82.8521C438.957 82.9473 438.801 82.9991 438.64 83H438.6ZM400.1 81.69C399.931 81.6899 399.766 81.6325 399.634 81.5272C399.501 81.4219 399.408 81.2749 399.37 81.11C399.328 80.9152 399.364 80.7117 399.471 80.5434C399.577 80.3751 399.746 80.2553 399.94 80.21C401.89 79.76 403.89 79.38 405.89 79.09C405.99 79.0677 406.095 79.0664 406.196 79.086C406.297 79.1057 406.393 79.1459 406.477 79.2043C406.562 79.2626 406.634 79.3378 406.689 79.4252C406.743 79.5125 406.779 79.6101 406.794 79.7119C406.809 79.8138 406.803 79.9176 406.777 80.017C406.75 80.1165 406.703 80.2093 406.639 80.2898C406.575 80.3703 406.494 80.4367 406.404 80.4849C406.313 80.5331 406.213 80.5621 406.11 80.57C404.11 80.86 402.19 81.23 400.27 81.68L400.1 81.69ZM427.92 80.54H427.81C425.86 80.25 423.87 80.04 421.9 79.91C421.796 79.9128 421.692 79.8938 421.595 79.8542C421.498 79.8146 421.411 79.7552 421.339 79.6799C421.266 79.6046 421.211 79.515 421.175 79.4169C421.139 79.3188 421.124 79.2143 421.131 79.1101C421.138 79.0058 421.167 78.9043 421.215 78.8118C421.264 78.7193 421.331 78.638 421.413 78.573C421.495 78.5081 421.589 78.4609 421.69 78.4345C421.791 78.4082 421.897 78.4032 422 78.42C424 78.55 426 78.76 428 79.05C428.185 79.0804 428.352 79.1788 428.468 79.326C428.584 79.4732 428.64 79.6585 428.626 79.8453C428.613 80.0322 428.529 80.2071 428.393 80.3357C428.257 80.4642 428.077 80.5371 427.89 80.54H427.92ZM411 80C410.801 80.008 410.607 79.9366 410.461 79.8015C410.315 79.6665 410.228 79.4789 410.22 79.28C410.212 79.0811 410.283 78.8872 410.418 78.7409C410.553 78.5946 410.741 78.508 410.94 78.5C412.94 78.34 414.99 78.25 417 78.25C417.199 78.25 417.39 78.329 417.53 78.4697C417.671 78.6103 417.75 78.8011 417.75 79C417.75 79.1989 417.671 79.3897 417.53 79.5303C417.39 79.671 417.199 79.75 417 79.75C415 79.75 413 79.84 411.06 80H411Z" fill="#E0E0E0"/>
</svg>
