<svg width="24" height="25" viewBox="0 0 24 25" fill="none" xmlns="http://www.w3.org/2000/svg">
<path d="M14.4796 7.39502C14.4795 8.56363 14.4795 9.14797 14.8426 9.51107C15.2057 9.87417 15.7901 9.87419 16.9587 9.87415L19.4386 9.8742C20.015 9.87421 20.3034 9.87423 20.5398 9.93758C21.7292 10.2563 21.9181 11.3094 21.9181 12.3537C21.9181 13.3981 21.7292 14.4512 20.5398 14.7699C20.3034 14.8333 20.0151 14.8333 19.4387 14.8333L16.959 14.8333C15.7903 14.8333 15.2057 14.8333 14.8426 15.1964C14.4795 15.5595 14.4795 16.1438 14.4796 17.3125L14.4795 19.7924C14.4795 20.3688 14.4796 20.6571 14.4162 20.8935C14.0975 22.0829 13.0444 22.2719 12 22.2718C10.9556 22.272 9.90248 22.0829 9.58386 20.8935C9.52043 20.6572 9.52036 20.3689 9.5205 19.7923L9.52043 17.3128C9.52043 16.1445 9.52043 15.5595 9.15733 15.1964C8.7943 14.8334 8.20931 14.8333 7.04096 14.8334L4.56144 14.8332C3.98484 14.8334 3.69661 14.8333 3.4602 14.7699C2.27087 14.4513 2.08176 13.3981 2.0819 12.3537C2.08181 11.3093 2.27084 10.2563 3.46022 9.93754C3.69669 9.8742 3.98491 9.87421 4.56137 9.87423L7.04127 9.87416C8.20988 9.87421 8.79423 9.87421 9.15733 9.51111C9.52043 9.14801 9.52043 8.56337 9.52044 7.39468L9.52046 4.91503C9.52046 4.33863 9.52046 4.05041 9.58383 3.81393C9.90252 2.62457 10.9556 2.43561 12 2.4356C13.0444 2.43561 14.0975 2.62456 14.4162 3.81393C14.4795 4.05041 14.4795 4.33871 14.4795 4.91512L14.4796 7.39502Z" stroke="#5D9D9F" stroke-width="1.5" stroke-linecap="round" stroke-linejoin="round"/>
</svg>
