<svg width="131" height="44" viewBox="0 0 131 44" fill="none" xmlns="http://www.w3.org/2000/svg">
<path d="M8.4599 0.0161909C8.52995 0.0150742 8.59974 0.0139139 8.66936 0.0127565C8.93508 0.00833894 9.19822 0.0039642 9.46303 0.00222093L9.46568 0.483464L8.4599 0.0161909ZM8.4599 0.0161909C7.72691 0.0248829 6.99564 0.0898648 6.27245 0.210572L8.4599 0.0161909ZM130.862 35.7286C130.849 36.4666 130.781 37.2027 130.66 37.9307C130.541 38.6595 130.313 39.3658 129.984 40.0254C129.649 40.6818 129.214 41.2811 128.694 41.8011L130.875 10.4876V10.4898V33.5113V33.5135C130.875 33.9188 130.875 34.3156 130.867 34.7145C130.867 35.056 130.866 35.3869 130.862 35.7286ZM130.862 35.7286L130.381 35.7226M130.862 35.7286L130.381 35.72C130.381 35.7208 130.381 35.7217 130.381 35.7226M130.381 35.7226C130.368 36.4361 130.303 37.1476 130.185 37.8513L130.185 37.8535C130.074 38.5337 129.862 39.1928 129.554 39.8083M130.381 35.7226L129.554 39.8083M129.554 4.19614C129.861 4.81168 130.074 5.47082 130.185 6.15097L130.185 6.15298C130.303 6.85672 130.368 7.56832 130.381 8.28188L129.555 4.19833C129.555 4.1976 129.554 4.19687 129.554 4.19614ZM129.554 4.19614C128.926 2.96374 127.931 1.96114 126.709 1.32847M129.554 4.19614L126.709 1.32847M126.709 1.32847C126.096 1.01783 125.441 0.80097 124.765 0.684975C124.068 0.567926 123.364 0.505168 122.657 0.497257L122.655 0.49723C122.593 0.496229 122.531 0.4952 122.469 0.494171L126.709 1.32847ZM129.554 39.8083C129.242 40.4193 128.837 40.977 128.354 41.4609L128.351 41.4637C127.871 41.9513 127.318 42.3581 126.71 42.6687L129.554 39.8083ZM8.46758 0.49738L8.46561 0.497411C7.75757 0.505803 7.05119 0.568549 6.35259 0.685103C5.67916 0.800204 5.02673 1.01704 4.41732 1.32836C3.80998 1.64185 3.25488 2.0492 2.77219 2.53574L2.77082 2.53711C2.28639 3.02148 1.88246 3.58148 1.57464 4.19563L1.57422 4.19645C1.26435 4.81177 1.04944 5.47124 0.936967 6.15209L0.936831 6.15291C0.819356 6.85645 0.756141 7.56811 0.747754 8.28151L0.747651 8.2903L0.747571 8.2903C0.740819 8.51508 0.738212 8.73722 0.735548 8.96421C0.73428 9.0723 0.732998 9.18149 0.73125 9.29259V34.7107C0.732974 34.8216 0.734245 34.9296 0.735499 35.0362C0.73818 35.264 0.740783 35.4852 0.747576 35.7143L0.747831 35.7229H0.747754C0.756144 36.4363 0.819359 37.1479 0.93683 37.8514L0.93701 37.8525C1.04915 38.5336 1.26405 39.1934 1.57417 39.8088L1.57439 39.8093C1.88189 40.4211 2.28563 40.9785 2.76984 41.4598L2.7736 41.4636L2.77358 41.4636C3.25374 41.9516 3.80842 42.3586 4.41637 42.6691L4.41692 42.6694C5.02652 42.9818 5.6791 43.2001 6.35285 43.3171C7.05171 43.4327 7.75816 43.4954 8.46629 43.5048L8.47057 43.5049C8.80505 43.5123 9.13298 43.5166 9.46303 43.5166H9.46568C9.86335 43.5188 10.2575 43.5188 10.658 43.5188H120.473C120.865 43.5188 121.263 43.5188 121.653 43.5166L121.656 43.5166C121.985 43.5166 122.322 43.5123 122.652 43.5049L122.656 43.5048C123.363 43.4959 124.068 43.4332 124.765 43.3171C125.441 43.1992 126.097 42.9809 126.709 42.6692L8.46758 0.49738ZM8.46758 0.49738C8.53838 0.496251 8.60868 0.495082 8.6786 0.49392M8.46758 0.49738L8.6786 0.49392M8.6786 0.49392C8.94392 0.48951 9.20387 0.485189 9.46593 0.483462L8.6786 0.49392ZM120.473 0.481271H120.948H10.658H120.473Z" stroke="white" stroke-width="0.9625"/>
<path d="M27.5363 21.8783C27.5485 20.9235 27.8002 19.9874 28.2679 19.157C28.7356 18.3266 29.4042 17.6289 30.2114 17.1288C29.6986 16.3908 29.0221 15.7835 28.2356 15.355C27.4492 14.9266 26.5744 14.6888 25.6808 14.6607C23.7746 14.459 21.9267 15.8101 20.9553 15.8101C19.9651 15.8101 18.4696 14.6807 16.8591 14.7141C15.8174 14.748 14.8022 15.0532 13.9124 15.6001C13.0226 16.1469 12.2885 16.9167 11.7817 17.8344C9.58636 21.6646 11.2239 27.2938 13.3268 30.3898C14.379 31.9059 15.6087 33.5993 17.2177 33.5393C18.7922 33.4735 19.3803 32.5275 21.2809 32.5275C23.1638 32.5275 23.7155 33.5393 25.3572 33.5011C27.0467 33.4735 28.1112 31.9783 29.1265 30.4479C29.8824 29.3677 30.4642 28.1738 30.8501 26.9104C29.8685 26.4921 29.0309 25.7918 28.4416 24.897C27.8523 24.0021 27.5375 22.9522 27.5363 21.8783Z" fill="white"/>
<path d="M24.4356 12.6245C25.3568 11.5101 25.8106 10.0777 25.7007 8.63159C24.2933 8.78055 22.9933 9.45837 22.0596 10.53C21.6031 11.0535 21.2535 11.6626 21.0308 12.3223C20.808 12.9821 20.7164 13.6796 20.7614 14.375C21.4653 14.3823 22.1617 14.2286 22.7981 13.9254C23.4346 13.6221 23.9944 13.1773 24.4356 12.6245V12.6245Z" fill="white"/>
<path d="M46.4265 29.8537H41.2595L40.0187 33.5458H37.8301L42.7242 19.886H44.998L49.8921 33.5458H47.6662L46.4265 29.8537ZM41.7946 28.15H45.8903L43.8713 22.158H43.8147L41.7946 28.15Z" fill="white"/>
<path d="M60.4616 28.5667C60.4616 31.6615 58.8178 33.6499 56.3372 33.6499C55.7088 33.683 55.0838 33.5371 54.5339 33.229C53.984 32.9208 53.5312 32.4628 53.2276 31.9075H53.1807V36.8403H51.152V23.5866H53.1156V25.243H53.1529C53.4705 24.6903 53.9309 24.2347 54.485 23.9247C55.0392 23.6146 55.6663 23.4618 56.2998 23.4824C58.8082 23.4824 60.4616 25.4804 60.4616 28.5667ZM58.3764 28.5667C58.3764 26.5504 57.3424 25.2248 55.7647 25.2248C54.2147 25.2248 53.1722 26.5783 53.1722 28.5667C53.1722 30.5733 54.2147 31.9171 55.7647 31.9171C57.3424 31.9171 58.3764 30.6012 58.3764 28.5667H58.3764Z" fill="white"/>
<path d="M71.3397 28.5667C71.3397 31.6615 69.6954 33.6499 67.2148 33.6499C66.5864 33.683 65.9615 33.5371 65.4115 33.229C64.8616 32.9208 64.4089 32.4628 64.1052 31.9075H64.0583V36.8403H62.0297V23.5866H63.9933V25.243H64.0306C64.3482 24.6903 64.8085 24.2347 65.3627 23.9247C65.9168 23.6146 66.544 23.4618 67.1774 23.4824C69.6858 23.4824 71.3397 25.4804 71.3397 28.5667ZM69.2541 28.5667C69.2541 26.5504 68.22 25.2248 66.6423 25.2248C65.0924 25.2248 64.0498 26.5783 64.0498 28.5667C64.0498 30.5733 65.0924 31.9171 66.6423 31.9171C68.22 31.9171 69.2541 30.6012 69.2541 28.5667V28.5667Z" fill="white"/>
<path d="M78.5278 29.7398C78.6781 31.0944 79.984 31.9838 81.7685 31.9838C83.4784 31.9838 84.7086 31.0944 84.7086 29.873C84.7086 28.8127 83.9666 28.1779 82.2098 27.7428L80.453 27.3163C77.9639 26.7105 76.8083 25.5374 76.8083 23.6339C76.8083 21.2771 78.8466 19.6582 81.7397 19.6582C84.6052 19.6582 86.5688 21.2771 86.6349 23.6339H84.587C84.4644 22.2707 83.3462 21.4479 81.712 21.4479C80.0778 21.4479 78.9595 22.2804 78.9595 23.4921C78.9595 24.4578 79.6738 25.0261 81.421 25.4611L82.9144 25.8306C85.6957 26.4934 86.8502 27.6192 86.8502 29.6173C86.8502 32.1728 84.8311 33.7734 81.6181 33.7734C78.612 33.7734 76.5823 32.2104 76.4512 29.7397L78.5278 29.7398Z" fill="white"/>
<path d="M91.2304 21.2298V23.5866H93.1098V25.2055H91.2304V30.6958C91.2304 31.5487 91.6068 31.9462 92.4329 31.9462C92.656 31.9423 92.8788 31.9265 93.1002 31.8989V33.5081C92.7288 33.578 92.3513 33.6097 91.9735 33.6026C89.9726 33.6026 89.1922 32.8453 89.1922 30.9138V25.2055H87.7552V23.5866H89.1922V21.2298H91.2304Z" fill="white"/>
<path d="M94.1973 28.5667C94.1973 25.4332 96.0287 23.4642 98.8845 23.4642C101.75 23.4642 103.573 25.4332 103.573 28.5667C103.573 31.7088 101.76 33.6692 98.8845 33.6692C96.0105 33.6692 94.1973 31.7088 94.1973 28.5667ZM101.506 28.5667C101.506 26.4172 100.528 25.1485 98.8845 25.1485C97.2407 25.1485 96.2632 26.4269 96.2632 28.5667C96.2632 30.7248 97.2407 31.9838 98.8845 31.9838C100.528 31.9838 101.506 30.7248 101.506 28.5667H101.506Z" fill="white"/>
<path d="M105.245 23.5867H107.18V25.2818H107.227C107.358 24.7523 107.666 24.2845 108.099 23.9568C108.532 23.6291 109.063 23.4616 109.604 23.4824C109.838 23.4816 110.071 23.5072 110.299 23.5587V25.4708C110.004 25.3799 109.696 25.3382 109.388 25.3473C109.093 25.3352 108.799 25.3876 108.527 25.5008C108.254 25.614 108.009 25.7853 107.808 26.0029C107.607 26.2206 107.455 26.4795 107.363 26.7619C107.271 27.0442 107.241 27.3433 107.274 27.6386V33.5457H105.245L105.245 23.5867Z" fill="white"/>
<path d="M119.653 30.6206C119.38 32.4285 117.632 33.6692 115.397 33.6692C112.522 33.6692 110.737 31.7281 110.737 28.614C110.737 25.4902 112.532 23.4642 115.312 23.4642C118.046 23.4642 119.765 25.3569 119.765 28.3766V29.077H112.785V29.2005C112.753 29.567 112.799 29.9362 112.919 30.2837C113.039 30.6311 113.231 30.9488 113.483 31.2156C113.734 31.4824 114.039 31.6922 114.377 31.8311C114.715 31.9701 115.079 32.0349 115.444 32.0214C115.923 32.0667 116.404 31.9548 116.816 31.7024C117.227 31.45 117.546 31.0706 117.726 30.6206L119.653 30.6206ZM112.795 27.6483H117.736C117.754 27.3187 117.704 26.9889 117.59 26.6796C117.476 26.3702 117.299 26.0881 117.072 25.8507C116.844 25.6134 116.57 25.426 116.267 25.3004C115.965 25.1747 115.639 25.1135 115.312 25.1206C114.981 25.1186 114.654 25.1826 114.348 25.3088C114.042 25.435 113.765 25.621 113.531 25.856C113.297 26.091 113.111 26.3704 112.985 26.678C112.859 26.9856 112.794 27.3154 112.795 27.6483V27.6483Z" fill="white"/>
<path d="M41.5409 9.60413C41.9662 9.57337 42.393 9.63812 42.7905 9.79369C43.1879 9.94927 43.5462 10.1918 43.8394 10.5038C44.1325 10.8158 44.3534 11.1894 44.4859 11.5978C44.6184 12.0062 44.6593 12.4392 44.6057 12.8655C44.6057 14.9623 43.4811 16.1677 41.5409 16.1677H39.1882V9.60413H41.5409ZM40.1999 15.2394H41.4279C41.7318 15.2577 42.036 15.2075 42.3182 15.0924C42.6004 14.9774 42.8536 14.8003 43.0594 14.5742C43.2651 14.3481 43.4183 14.0786 43.5076 13.7853C43.597 13.492 43.6203 13.1823 43.5759 12.8788C43.6171 12.5765 43.5914 12.2688 43.5007 11.9776C43.4099 11.6865 43.2564 11.4192 43.0511 11.1949C42.8458 10.9706 42.5938 10.7948 42.3132 10.6801C42.0326 10.5654 41.7303 10.5148 41.4279 10.5317H40.1999V15.2394Z" fill="white"/>
<path d="M45.7485 13.6888C45.7176 13.3633 45.7546 13.0349 45.857 12.7246C45.9594 12.4143 46.1251 12.129 46.3433 11.887C46.5616 11.6451 46.8276 11.4517 47.1244 11.3194C47.4211 11.1871 47.7421 11.1188 48.0666 11.1188C48.3911 11.1188 48.712 11.1871 49.0087 11.3194C49.3055 11.4517 49.5715 11.6451 49.7898 11.887C50.008 12.129 50.1737 12.4143 50.2761 12.7246C50.3786 13.0349 50.4155 13.3633 50.3846 13.6888C50.4161 14.0146 50.3796 14.3435 50.2774 14.6543C50.1753 14.9651 50.0097 15.2509 49.7914 15.4933C49.5731 15.7358 49.3068 15.9295 49.0098 16.0621C48.7127 16.1947 48.3914 16.2632 48.0666 16.2632C47.7417 16.2632 47.4204 16.1947 47.1233 16.0621C46.8263 15.9295 46.5601 15.7358 46.3417 15.4933C46.1234 15.2509 45.9579 14.9651 45.8557 14.6543C45.7535 14.3435 45.717 14.0146 45.7485 13.6888V13.6888ZM49.3868 13.6888C49.3868 12.6151 48.9082 11.9872 48.0682 11.9872C47.2249 11.9872 46.7506 12.6151 46.7506 13.6888C46.7506 14.7711 47.225 15.3941 48.0682 15.3941C48.9082 15.3941 49.3868 14.7668 49.3868 13.6888H49.3868Z" fill="white"/>
<path d="M56.5471 16.1675H55.5408L54.5249 12.5194H54.4482L53.4365 16.1675H52.4398L51.0849 11.2142H52.0688L52.9494 14.9938H53.0219L54.0324 11.2142H54.9631L55.9736 14.9938H56.0504L56.9267 11.2142H57.8967L56.5471 16.1675Z" fill="white"/>
<path d="M59.0363 11.2143H59.9701V12.0011H60.0426C60.1655 11.7185 60.373 11.4816 60.6359 11.3234C60.8988 11.1652 61.2042 11.0936 61.5094 11.1186C61.7486 11.1005 61.9887 11.1369 62.2121 11.225C62.4354 11.3131 62.6362 11.4507 62.7996 11.6276C62.963 11.8045 63.0848 12.0163 63.156 12.2471C63.2271 12.4779 63.2459 12.7218 63.2108 12.9609V16.1674H62.2407V13.2064C62.2407 12.4104 61.8974 12.0146 61.18 12.0146C61.0176 12.0069 60.8555 12.0348 60.7048 12.0962C60.5541 12.1576 60.4184 12.2511 60.3069 12.3704C60.1954 12.4896 60.1108 12.6317 60.059 12.7869C60.0071 12.9422 59.9891 13.1069 60.0063 13.2698V16.1675H59.0363L59.0363 11.2143Z" fill="white"/>
<path d="M64.7566 9.2807H65.7267V16.1675H64.7566V9.2807Z" fill="white"/>
<path d="M67.0751 13.6887C67.0442 13.3632 67.0812 13.0347 67.1836 12.7244C67.2861 12.4141 67.4518 12.1289 67.6701 11.8869C67.8883 11.6449 68.1544 11.4515 68.4512 11.3192C68.7479 11.1869 69.0689 11.1186 69.3934 11.1186C69.7179 11.1186 70.0389 11.1869 70.3356 11.3192C70.6324 11.4515 70.8984 11.6449 71.1167 11.8869C71.335 12.1289 71.5007 12.4141 71.6031 12.7244C71.7056 13.0347 71.7426 13.3632 71.7117 13.6887C71.7432 14.0146 71.7066 14.3434 71.6044 14.6542C71.5022 14.965 71.3366 15.2508 71.1183 15.4932C70.9 15.7357 70.6337 15.9294 70.3366 16.062C70.0396 16.1946 69.7183 16.2631 69.3934 16.2631C69.0685 16.2631 68.7472 16.1946 68.4501 16.062C68.1531 15.9294 67.8868 15.7357 67.6685 15.4932C67.4502 15.2508 67.2846 14.965 67.1824 14.6542C67.0802 14.3434 67.0436 14.0146 67.0751 13.6887V13.6887ZM70.7134 13.6887C70.7134 12.615 70.2347 11.9871 69.3947 11.9871C68.5515 11.9871 68.0772 12.615 68.0772 13.6887C68.0772 14.771 68.5515 15.394 69.3947 15.394C70.2347 15.394 70.7134 14.7667 70.7134 13.6887H70.7134Z" fill="white"/>
<path d="M72.733 14.7668C72.733 13.8752 73.3918 13.3612 74.5612 13.2882L75.8927 13.2108V12.7833C75.8927 12.2601 75.5494 11.9647 74.8864 11.9647C74.3448 11.9647 73.9696 12.1651 73.8619 12.5153H72.9228C73.0219 11.6645 73.8161 11.1188 74.9312 11.1188C76.1635 11.1188 76.8585 11.737 76.8585 12.7833V16.1676H75.9247V15.4715H75.8479C75.6921 15.7212 75.4734 15.9248 75.214 16.0614C74.9546 16.198 74.6639 16.2628 74.3715 16.2492C74.1651 16.2708 73.9566 16.2487 73.7593 16.1841C73.562 16.1195 73.3803 16.014 73.2259 15.8743C73.0715 15.7347 72.9479 15.5639 72.863 15.3732C72.7781 15.1824 72.7338 14.9759 72.733 14.7668V14.7668ZM75.8927 14.3436V13.9295L74.6924 14.0068C74.0154 14.0525 73.7084 14.2845 73.7084 14.7212C73.7084 15.167 74.0922 15.4264 74.6199 15.4264C74.7745 15.4421 74.9307 15.4264 75.0792 15.3801C75.2276 15.3338 75.3653 15.2579 75.4841 15.1569C75.6028 15.0558 75.7002 14.9318 75.7704 14.7921C75.8406 14.6523 75.8822 14.4998 75.8927 14.3436V14.3436Z" fill="white"/>
<path d="M78.1334 13.6888C78.1334 12.1236 78.9319 11.1321 80.1738 11.1321C80.481 11.1179 80.7858 11.192 81.0528 11.3459C81.3197 11.4998 81.5376 11.727 81.6811 12.0011H81.7536V9.2807H82.7237V16.1675H81.7941V15.3849H81.7174C81.5628 15.6572 81.3372 15.8816 81.0652 16.0339C80.7931 16.1863 80.4848 16.2607 80.1738 16.2491C78.9233 16.2492 78.1334 15.2577 78.1334 13.6888ZM79.1355 13.6888C79.1355 14.7394 79.6269 15.3715 80.4488 15.3715C81.2665 15.3715 81.7718 14.7302 81.7718 13.6931C81.7718 12.6607 81.2611 12.0103 80.4488 12.0103C79.6322 12.0103 79.1355 12.6468 79.1355 13.6888H79.1355Z" fill="white"/>
<path d="M86.7373 13.6888C86.7064 13.3633 86.7433 13.0349 86.8458 12.7246C86.9482 12.4143 87.1139 12.129 87.3321 11.887C87.5504 11.6451 87.8164 11.4517 88.1132 11.3194C88.4099 11.1871 88.7308 11.1188 89.0553 11.1188C89.3798 11.1188 89.7007 11.1871 89.9975 11.3194C90.2942 11.4517 90.5603 11.6451 90.7785 11.887C90.9968 12.129 91.1624 12.4143 91.2649 12.7246C91.3673 13.0349 91.4043 13.3633 91.3734 13.6888C91.4049 14.0146 91.3683 14.3435 91.2662 14.6543C91.164 14.9651 90.9985 15.2509 90.7801 15.4933C90.5618 15.7358 90.2956 15.9295 89.9985 16.0621C89.7015 16.1947 89.3802 16.2632 89.0553 16.2632C88.7304 16.2632 88.4091 16.1947 88.1121 16.0621C87.815 15.9295 87.5488 15.7358 87.3305 15.4933C87.1122 15.2509 86.9466 14.9651 86.8445 14.6543C86.7423 14.3435 86.7058 14.0146 86.7373 13.6888V13.6888ZM90.3756 13.6888C90.3756 12.6151 89.8969 11.9872 89.0569 11.9872C88.2137 11.9872 87.7394 12.6151 87.7394 13.6888C87.7394 14.7711 88.2137 15.3941 89.0569 15.3941C89.8969 15.3941 90.3756 14.7668 90.3756 13.6888Z" fill="white"/>
<path d="M92.6749 11.2143H93.6088V12.0011H93.6813C93.8042 11.7185 94.0116 11.4816 94.2746 11.3234C94.5375 11.1652 94.8429 11.0936 95.1481 11.1186C95.3873 11.1005 95.6274 11.1369 95.8507 11.225C96.0741 11.3131 96.2749 11.4507 96.4383 11.6276C96.6017 11.8045 96.7235 12.0163 96.7946 12.2471C96.8658 12.4779 96.8845 12.7218 96.8494 12.9609V16.1674H95.8794V13.2064C95.8794 12.4104 95.5361 12.0146 94.8187 12.0146C94.6563 12.0069 94.4942 12.0348 94.3435 12.0962C94.1928 12.1576 94.0571 12.2511 93.9456 12.3704C93.8341 12.4896 93.7495 12.6317 93.6976 12.7869C93.6458 12.9422 93.6278 13.1069 93.645 13.2698V16.1675H92.6749V11.2143Z" fill="white"/>
<path d="M102.331 9.98108V11.2368H103.396V12.0602H102.331V14.6072C102.331 15.1261 102.543 15.3532 103.026 15.3532C103.15 15.3528 103.273 15.3453 103.396 15.3307V16.1449C103.222 16.1763 103.045 16.1931 102.868 16.1949C101.789 16.1949 101.36 15.8125 101.36 14.8575V12.0602H100.579V11.2368H101.36V9.98108H102.331Z" fill="white"/>
<path d="M104.721 9.2807H105.682V12.0103H105.759C105.888 11.725 106.101 11.4868 106.369 11.328C106.638 11.1692 106.948 11.0976 107.258 11.123C107.496 11.1099 107.734 11.15 107.955 11.2402C108.175 11.3305 108.374 11.4687 108.535 11.6451C108.697 11.8214 108.818 12.0316 108.89 12.2606C108.962 12.4895 108.983 12.7316 108.951 12.9696V16.1675H107.98V13.2107C107.98 12.4196 107.614 12.0189 106.929 12.0189C106.762 12.0051 106.594 12.0282 106.437 12.0866C106.28 12.1449 106.138 12.2371 106.02 12.3567C105.902 12.4763 105.812 12.6205 105.755 12.779C105.698 12.9376 105.676 13.1067 105.691 13.2746V16.1675H104.721L104.721 9.2807Z" fill="white"/>
<path d="M114.607 14.8301C114.475 15.2828 114.19 15.6744 113.8 15.9363C113.411 16.1983 112.943 16.314 112.477 16.2631C112.153 16.2717 111.832 16.2092 111.534 16.0799C111.237 15.9506 110.971 15.7577 110.755 15.5144C110.539 15.2712 110.378 14.9835 110.283 14.6713C110.188 14.3591 110.162 14.0298 110.207 13.7065C110.164 13.3821 110.19 13.0522 110.284 12.739C110.379 12.4259 110.539 12.1368 110.754 11.8915C110.969 11.6461 111.233 11.4501 111.53 11.3168C111.827 11.1834 112.148 11.1159 112.473 11.1187C113.841 11.1187 114.666 12.0603 114.666 13.6157V13.9568H111.195V14.0116C111.18 14.1933 111.202 14.3763 111.261 14.5487C111.32 14.7211 111.415 14.8792 111.538 15.0128C111.661 15.1464 111.811 15.2526 111.977 15.3245C112.143 15.3965 112.323 15.4326 112.504 15.4306C112.736 15.4586 112.971 15.4165 113.179 15.3096C113.387 15.2027 113.559 15.0357 113.673 14.8301L114.607 14.8301ZM111.195 13.2338H113.678C113.69 13.0676 113.667 12.9006 113.612 12.7436C113.556 12.5866 113.469 12.4431 113.355 12.3222C113.241 12.2014 113.103 12.1059 112.95 12.0419C112.797 11.9779 112.633 11.9468 112.468 11.9507C112.3 11.9485 112.133 11.9803 111.978 12.044C111.823 12.1078 111.681 12.2022 111.563 12.3218C111.444 12.4414 111.35 12.5837 111.287 12.7403C111.224 12.8969 111.193 13.0647 111.195 13.2338H111.195Z" fill="white"/>
</svg>
