<svg width="106" height="44" viewBox="0 0 106 44" fill="none" xmlns="http://www.w3.org/2000/svg">
<path d="M14.1219 23.8792C21.5416 15.2998 29.7556 6.94596 38.7552 0.0151315C38.7687 0.00496692 38.7852 -0.000356789 38.802 1.85728e-05C38.8189 0.000393108 38.8351 0.00644605 38.8481 0.0171993C38.861 0.0279533 38.8701 0.0427801 38.8737 0.0592919C38.8772 0.0758029 38.8751 0.0930356 38.8677 0.108207C38.4369 0.974567 37.9721 1.83734 37.4734 2.69653C31.0268 13.8141 23.1465 23.813 14.9628 33.4878C14.9259 33.5308 14.8849 33.5351 14.8396 33.5004C9.16601 29.1293 3.99765 23.7808 0.503854 17.4693C0.347939 17.1877 0.245583 16.9072 0.196786 16.628C0.193694 16.609 0.195487 16.5896 0.201987 16.5716C0.208489 16.5535 0.219475 16.5374 0.233871 16.525C0.248267 16.5125 0.265581 16.5041 0.284116 16.5006C0.302651 16.4969 0.321772 16.4983 0.339608 16.5045C5.30804 18.1781 9.77301 20.7754 13.9256 23.8989C13.9547 23.9212 13.9912 23.9316 14.0276 23.9279C14.0641 23.9242 14.0978 23.9068 14.1219 23.8792Z" fill="white"/>
<path d="M77.8221 15.1994C78.959 15.1994 79.8806 14.2754 79.8806 13.1356C79.8806 11.9958 78.959 11.0718 77.8221 11.0718C76.6853 11.0718 75.7637 11.9958 75.7637 13.1356C75.7637 14.2754 76.6853 15.1994 77.8221 15.1994Z" fill="white"/>
<path d="M105.759 12.271H102.949C102.923 12.271 102.902 12.2918 102.902 12.3175V32.4513C102.902 32.477 102.923 32.4978 102.949 32.4978H105.759C105.784 32.4978 105.805 32.477 105.805 32.4513V12.3175C105.805 12.2918 105.784 12.271 105.759 12.271Z" fill="white"/>
<path d="M77.8203 20.1095C78.9562 20.1095 79.8769 19.1863 79.8769 18.0474C79.8769 16.9086 78.9562 15.9854 77.8203 15.9854C76.6844 15.9854 75.7637 16.9086 75.7637 18.0474C75.7637 19.1863 76.6844 20.1095 77.8203 20.1095Z" fill="white"/>
<path d="M32.5552 20.9492C31.0449 20.0613 29.4774 19.8966 27.7385 19.7839C27.6909 19.7803 27.6665 19.7547 27.6653 19.707L27.6242 18.1729C27.6237 18.1428 27.6351 18.1137 27.6558 18.092C27.6765 18.0703 27.705 18.0575 27.735 18.0565C33.6389 17.8722 38.7323 20.8454 38.8644 27.3645C38.8858 28.4588 38.9031 29.5549 38.9162 30.6527C38.9162 30.7172 38.9489 30.7493 39.0143 30.7493C41.6708 30.7554 44.3232 30.7571 46.9713 30.7547C48.5816 30.7547 49.7938 30.6384 50.4491 29.1384C50.9025 28.0966 50.6955 26.0882 50.7383 24.8908C50.899 20.3889 54.2213 17.5035 58.781 18.1085C61.8016 18.5094 63.9422 20.7558 64.4331 23.6986C64.8938 26.4588 63.3066 30.744 67.8341 30.7493C69.4908 30.7517 71.1476 30.7535 72.8043 30.7547C73.6958 30.7559 74.3492 30.6706 74.7646 30.4988C75.8298 30.0572 76.3588 29.1718 76.3517 27.8424C76.3421 26.2422 76.3416 24.6413 76.3499 23.0399C76.3499 22.9802 76.3797 22.9504 76.4391 22.9504L79.1564 22.9719C79.2254 22.9719 79.2593 23.0064 79.2581 23.0757C79.2271 25.7309 79.2384 27.4241 79.292 28.1557C79.3753 29.3167 79.8865 30.0954 80.8256 30.4916C81.2457 30.6694 81.9616 30.7571 82.9733 30.7547C84.4155 30.7524 85.8504 30.7524 87.2778 30.7547C87.2885 30.7544 87.2992 30.751 87.3091 30.7448C87.3182 30.7386 87.3256 30.7299 87.3297 30.7198C87.3338 30.7097 87.3355 30.6987 87.333 30.688C87.3314 30.6774 87.3264 30.6676 87.319 30.6599C85.2047 28.3955 84.7404 24.9301 85.8974 22.1431C87.1351 19.1628 89.8926 17.7523 93.0319 18.0691C96.929 18.4611 99.0928 21.4343 99.1547 25.1986C99.1547 25.2238 99.1456 25.2479 99.1275 25.2657C99.1102 25.2835 99.0871 25.2935 99.0623 25.2935H96.3469C96.2933 25.2935 96.2644 25.2672 96.2611 25.2147C96.1358 23.7469 96.0253 22.5834 95.1611 21.3376C93.7939 19.3686 90.8929 19.3113 89.4358 21.1425C87.6027 23.4498 87.6348 29.1993 90.8822 30.4988C91.2986 30.6658 91.9212 30.75 92.7491 30.7511C94.8576 30.7547 96.9604 30.7547 99.059 30.7511C99.0838 30.7511 99.1077 30.7611 99.1258 30.7789C99.1431 30.7967 99.153 30.8208 99.153 30.8461V32.4051C99.153 32.4647 99.1234 32.4946 99.064 32.4946C93.3807 32.5005 87.6975 32.5048 82.0146 32.5072C80.4912 32.5083 79.1123 32.0752 77.8781 31.2076C77.8546 31.1914 77.8269 31.1828 77.7983 31.1831C77.7699 31.1835 77.7422 31.1926 77.7192 31.2094C76.5433 32.0518 75.3424 32.4779 74.1165 32.4875C72.9811 32.497 70.6459 32.4958 67.1111 32.4838C65.3794 32.4779 63.9047 31.9051 62.6872 30.7654C62.6407 30.7225 62.5914 30.7201 62.539 30.7583C61.5339 31.5083 60.8072 32.0685 59.5325 32.3191C56.9915 32.8216 54.7438 32.2709 52.7896 30.6671C52.7396 30.6265 52.6914 30.6289 52.6449 30.6742C50.9971 32.3031 49.4404 32.4892 46.9642 32.4928C40.0814 32.5011 33.1985 32.5018 26.3156 32.4946C26.255 32.4946 26.2246 32.4647 26.2246 32.4051V30.8424C26.2246 30.7828 26.2544 30.753 26.3138 30.753H35.9026C35.949 30.753 35.9735 30.7296 35.9758 30.6831C36.1347 27.062 36.0633 23.013 32.5552 20.9492ZM55.9084 20.2457C52.3807 22.2935 52.8627 30.3824 57.6027 30.753C62.3605 31.1271 62.6568 22.7982 59.8128 20.5536C58.7631 19.7248 57.1045 19.553 55.9084 20.2457Z" fill="white"/>
<path d="M36.9161 35.627C37.2299 35.627 37.4844 35.372 37.4844 35.0572C37.4844 34.7425 37.2299 34.4873 36.9161 34.4873C36.6021 34.4873 36.3477 34.7425 36.3477 35.0572C36.3477 35.372 36.6021 35.627 36.9161 35.627Z" fill="white"/>
<path d="M36.9239 37.0274C37.2377 37.0274 37.4922 36.7723 37.4922 36.4575C37.4922 36.1428 37.2377 35.8877 36.9239 35.8877C36.6099 35.8877 36.3555 36.1428 36.3555 36.4575C36.3555 36.7723 36.6099 37.0274 36.9239 37.0274Z" fill="white"/>
<path d="M21.5817 40.4175C21.5711 40.4134 21.5597 40.4119 21.5484 40.4133C21.5371 40.4145 21.5262 40.4185 21.5168 40.4247C21.5073 40.4311 21.4995 40.4396 21.494 40.4495C21.4885 40.4596 21.4854 40.4706 21.4851 40.482C21.4275 42.4339 19.8006 43.403 17.9689 43.0223C14.8095 42.3694 15.3802 38.0364 18.4959 38.1956C18.5405 38.1975 18.5829 38.2156 18.6152 38.2466C18.6474 38.2775 18.6674 38.3192 18.6713 38.3637C18.6753 38.4083 18.6629 38.4529 18.6366 38.489C18.6102 38.5251 18.5717 38.5504 18.5281 38.5602C17.4543 38.8124 16.8491 39.3738 16.7125 40.2444C16.2684 43.0892 20.514 43.4329 20.5876 40.7427C20.6398 38.8201 20.6636 36.8958 20.659 34.9702C20.659 34.8686 20.7096 34.8179 20.8109 34.8179H21.2987C21.4045 34.8179 21.4574 34.871 21.4574 34.977C21.459 36.3291 21.4651 37.678 21.4758 39.0239C21.4851 40.0344 22.7737 40.5674 23.3007 39.7784C23.6481 39.2546 23.471 37.2566 23.4755 36.5621C23.4771 36.4714 23.5231 36.4299 23.6136 36.4376L24.1291 36.4744C24.2303 36.4821 24.2802 36.5368 24.2786 36.6382C24.2764 37.4135 24.4674 39.3284 24.0922 39.9491C23.6251 40.7173 22.3296 40.6943 21.5817 40.4175Z" fill="white"/>
<path d="M25.9932 42.1779C28.0389 42.0371 28.4807 39.5776 28.1195 37.9787C27.9146 37.0743 26.7687 36.4213 26.2371 37.5034C25.6205 38.7631 25.8774 39.6715 27.0081 40.2282C27.047 40.2468 27.0782 40.2784 27.0963 40.3177C27.1143 40.3569 27.1181 40.4013 27.1068 40.4431C27.0956 40.4848 27.0701 40.5213 27.0349 40.5461C26.9996 40.571 26.9567 40.5826 26.9137 40.5789C24.127 40.3875 24.7575 35.8376 27.5097 36.5344C29.6083 37.0651 28.49 39.5892 29.537 40.0137C31.1662 40.6735 30.6783 38.6385 30.8348 37.9926C31.3802 35.7246 34.749 36.0638 34.7537 38.514C34.756 39.3654 34.7697 40.4266 35.9594 40.0714C36.6682 39.8591 36.5508 38.567 36.5324 38.0018C36.5294 37.9172 36.57 37.8749 36.6544 37.8749H37.1515C37.1942 37.8749 37.2353 37.8917 37.2662 37.9218C37.2971 37.9519 37.3153 37.993 37.3171 38.0364L37.3815 39.6953C37.383 39.7207 37.3897 39.7456 37.4012 39.7683C37.4127 39.7908 37.4287 39.8109 37.4482 39.8268C38.1317 40.3598 39.0614 40.1706 39.0614 39.197C39.0614 37.7772 39.0621 36.3568 39.0637 34.9355C39.0637 34.8571 39.1028 34.8179 39.181 34.8179H39.7517C39.8284 34.8179 39.8668 34.8571 39.8668 34.9355C39.8698 36.2445 39.8706 37.5526 39.8691 38.86C39.8668 39.6422 40.0278 40.3136 40.9874 40.0898C41.4292 39.9868 41.6539 39.6776 41.6616 39.1623C41.6816 37.758 41.6709 36.356 41.6295 34.9563C41.6264 34.864 41.6709 34.8179 41.7629 34.8179H42.3382C42.4149 34.8179 42.454 34.8563 42.4556 34.9332C42.4602 36.356 42.4625 37.7795 42.4625 39.2038C42.4625 40.7289 40.5985 40.8328 39.5884 40.3044C39.5132 40.2659 39.438 40.2652 39.3628 40.302C38.5743 40.6928 37.7843 40.6912 36.9927 40.2975C36.9677 40.2846 36.94 40.2781 36.9114 40.2785C36.883 40.2789 36.8548 40.2862 36.8293 40.2998C35.9533 40.7504 35.1103 40.7135 34.3003 40.189C34.2389 40.149 34.1783 40.149 34.1185 40.189C33.2318 40.755 32.3512 40.742 31.4768 40.1498C31.414 40.1068 31.3518 40.1075 31.2904 40.1521C30.5863 40.652 29.8192 40.7436 28.9893 40.4266C28.9172 40.3989 28.8681 40.422 28.842 40.4958C28.3956 41.7771 27.4928 42.5108 26.1336 42.6969C26.0979 42.7021 26.0615 42.6946 26.0305 42.6758C25.9995 42.6568 25.9757 42.6276 25.9633 42.5932L25.8805 42.3509C25.8436 42.2432 25.8812 42.1856 25.9932 42.1779ZM32.8354 40.126C32.9879 40.1215 33.1377 40.076 33.2763 39.9922C33.4149 39.9084 33.5395 39.7879 33.643 39.6376C33.7465 39.4872 33.8269 39.3101 33.8796 39.1161C33.9323 38.9221 33.9562 38.7152 33.9501 38.5071C33.9439 38.2991 33.9078 38.0939 33.8437 37.9034C33.7796 37.713 33.6889 37.5408 33.5767 37.397C33.4645 37.253 33.3329 37.1402 33.1897 37.0647C33.0464 36.9893 32.8942 36.9528 32.7416 36.9574C32.589 36.9619 32.4392 37.0074 32.3007 37.0911C32.1621 37.175 32.0375 37.2955 31.934 37.4458C31.8305 37.5961 31.7501 37.7733 31.6974 37.9673C31.6447 38.1612 31.6208 38.3682 31.6269 38.5762C31.6331 38.7843 31.6692 38.9894 31.7333 39.1799C31.7973 39.3704 31.888 39.5426 32.0003 39.6864C32.1125 39.8304 32.244 39.9432 32.3873 40.0187C32.5306 40.0941 32.6828 40.1306 32.8354 40.126Z" fill="white"/>
<path d="M22.6468 42.5721C22.962 42.5721 23.2175 42.3159 23.2175 41.9999C23.2175 41.6839 22.962 41.4277 22.6468 41.4277C22.3316 41.4277 22.0762 41.6839 22.0762 41.9999C22.0762 42.3159 22.3316 42.5721 22.6468 42.5721Z" fill="white"/>
<path d="M22.6551 44.0006C22.9715 44.0006 23.228 43.7433 23.228 43.426C23.228 43.1088 22.9715 42.8516 22.6551 42.8516C22.3386 42.8516 22.082 43.1088 22.082 43.426C22.082 43.7433 22.3386 44.0006 22.6551 44.0006Z" fill="white"/>
</svg>
