<svg width="161" height="44" viewBox="0 0 161 44" fill="none" xmlns="http://www.w3.org/2000/svg">
<path d="M6.82091 16.5808C7.35863 17.019 8.06577 17.2879 8.72134 17.2879H11.3436V13.2697C11.3436 12.8167 11.3952 12.5147 11.9145 12.5147H12.0655V12.3306H9.4248C8.34936 12.3306 7.45808 12.581 6.85407 13.0046C6.25006 13.4281 5.89648 14.0653 5.89648 14.8019C5.89648 15.5385 6.28319 16.1462 6.82091 16.5844V16.5808ZM8.09891 13.1003C8.6882 12.7799 9.41007 12.7468 10.0841 12.9493V16.868H8.70662C7.71589 16.868 7.10819 15.9583 7.10819 14.8166C7.10819 13.9916 7.51332 13.4207 8.09891 13.1003Z" fill="white"/>
<path d="M9.49548 11.4022C9.84904 11.4022 10.1326 11.1149 10.1326 10.7797C10.1326 10.4262 9.84536 10.1426 9.49548 10.1426C9.14559 10.1426 8.87305 10.4299 8.87305 10.7797C8.87305 11.1296 9.16032 11.4022 9.49548 11.4022Z" fill="white"/>
<path d="M7.93493 11.4022C8.2885 11.4022 8.55736 11.1149 8.55736 10.7797C8.55736 10.4262 8.2885 10.1426 7.93493 10.1426C7.58136 10.1426 7.3125 10.4299 7.3125 10.7797C7.3125 11.1296 7.58136 11.4022 7.93493 11.4022Z" fill="white"/>
<path d="M30.1752 11.4022C30.5287 11.4022 30.8123 11.1149 30.8123 10.7797C30.8123 10.4262 30.525 10.1426 30.1752 10.1426C29.8253 10.1426 29.5527 10.4299 29.5527 10.7797C29.5527 11.1296 29.84 11.4022 30.1752 11.4022Z" fill="white"/>
<path d="M28.6088 11.4022C28.9623 11.4022 29.2312 11.1149 29.2312 10.7797C29.2312 10.4262 28.9623 10.1426 28.6088 10.1426C28.2552 10.1426 27.9863 10.4299 27.9863 10.7797C27.9863 11.1296 28.2552 11.4022 28.6088 11.4022Z" fill="white"/>
<path d="M43.6078 10.9308C43.6078 10.4778 43.6925 10.1905 44.3481 10.1905V10.0063H42.3482V15.1662C42.2966 15.7887 42.1125 16.2085 41.8436 16.4774C41.5748 16.7463 41.188 16.8641 40.8345 16.8641H40.584C40.2305 16.8641 39.9285 16.7978 39.7112 16.5437C39.4939 16.2896 39.3429 15.9065 39.3244 15.251V15.0336C39.2729 14.3118 39.0556 13.6562 38.5326 13.1332C38.0612 12.6618 37.2877 12.3414 36.4149 12.3414C35.4904 12.3414 34.6986 12.6286 34.2124 13.1148C33.6232 13.6525 33.3727 14.3081 33.3727 15.1994V15.4019C33.3212 15.9912 33.1886 16.3595 32.9676 16.5805C32.7466 16.8015 32.463 16.8678 32.1279 16.8678H30.0249V13.3026C30.0249 12.8496 30.1096 12.5476 30.5957 12.5476H30.7651V12.3782H28.7653V16.8678H26.4781C26.3271 16.6505 26.2608 16.5474 26.0583 16.3448L25.6384 15.9249C25.4543 15.7408 25.2001 15.4867 24.8834 15.1515C24.2094 14.4959 23.2039 13.4868 21.6387 11.9252L20.2428 13.3358L20.3607 13.4536L20.4785 13.3358C20.8137 12.9822 21.0825 13.1332 21.4029 13.4536L24.8502 16.8678H19.1674C18.1766 16.8678 17.6021 16.2969 17.5542 15.1515V14.7648C17.5542 14.0761 17.3038 13.4352 16.8471 12.9675C16.394 12.5145 15.7385 12.2272 14.9135 12.2272C14.0885 12.2272 13.5839 12.3266 13.3151 12.5955C13.0278 12.8459 13.0278 13.1516 13.0278 13.9398H13.2451C13.3114 13.0485 13.8822 12.7797 14.6741 12.7797C15.7679 12.7797 16.2872 13.5531 16.2872 14.7648C16.2872 15.3541 16.1694 15.8734 15.9005 16.2601C15.6317 16.6468 15.2265 16.8641 14.6888 16.8641H12.9062V17.284H14.9061C15.8306 17.284 16.5377 16.9304 16.9907 16.3743C17.1086 16.5916 17.2411 16.7426 17.429 16.8788C17.7825 17.1661 18.0183 17.2656 18.4713 17.284H25.248L25.4506 17.4865C25.6679 17.737 25.9367 18.0243 26.1246 18.411C26.3087 18.7977 26.375 19.2691 26.2424 19.8068C26.224 19.8584 26.224 19.8915 26.2608 19.8915C26.294 19.91 26.3455 19.8584 26.3971 19.7737C26.515 19.5711 26.7175 19.2175 26.817 18.7977C26.9164 18.3778 26.9164 17.8401 26.6991 17.284H32.5845C32.754 17.2656 32.905 17.2324 33.056 17.1845C33.3248 17.0998 33.5421 16.9157 33.6931 16.6284C33.811 16.8457 33.962 17.0667 34.1646 17.2655C34.636 17.737 35.3763 18.0574 36.2491 18.0574C36.7206 18.0574 37.1588 17.9911 37.5419 17.8548C38.2822 17.6044 38.7204 17.1477 39.004 16.61C39.0887 16.7462 39.1734 16.8604 39.2913 16.9636C39.4939 17.1661 39.7959 17.2324 40.131 17.284H41.5085C42.1125 17.284 42.6171 17.0483 43.0038 16.6468C43.3905 16.2417 43.6078 15.6708 43.6078 14.9489V10.9308ZM37.656 16.9488C37.354 17.3687 36.9342 17.5712 36.4112 17.5712C35.8882 17.5712 35.4868 17.3355 35.1663 16.8641C34.8459 16.3779 34.6433 15.8881 34.6433 15.03C34.6433 14.275 34.8128 13.8183 35.0964 13.3984C35.3984 12.9933 35.8182 12.7944 36.3559 12.7944C36.8937 12.7944 37.2804 13.0301 37.6008 13.5163C37.9212 13.9877 38.0538 14.507 38.0538 15.3651C38.0538 16.1054 37.9691 16.5437 37.6487 16.9451L37.656 16.9488Z" fill="white"/>
<path d="M46.3648 10.9308C46.3648 10.4778 46.4311 10.1758 47.0867 10.1758V10.0248L45.1016 10.0063V17.2877H46.3612V10.9308H46.3648Z" fill="white"/>
<path d="M59.0912 9.97394C59.4447 9.97394 59.7283 9.68666 59.7283 9.35151C59.7283 8.99794 59.4411 8.71436 59.0912 8.71436C58.7413 8.71436 58.4688 9.00162 58.4688 9.35151C58.4688 9.70139 58.756 9.97394 59.0912 9.97394Z" fill="white"/>
<path d="M58.3197 11.4022C58.6733 11.4022 58.9421 11.1149 58.9421 10.7797C58.9421 10.4262 58.6733 10.1426 58.3197 10.1426C57.9661 10.1426 57.6973 10.4299 57.6973 10.7797C57.6973 11.1296 57.9661 11.4022 58.3197 11.4022Z" fill="white"/>
<path d="M59.2598 10.7797C59.2598 11.1149 59.547 11.4022 59.8822 11.4022C60.2358 11.4022 60.5194 11.1149 60.5194 10.7797C60.5194 10.4262 60.2321 10.1426 59.8822 10.1426C59.5323 10.1426 59.2598 10.4299 59.2598 10.7797Z" fill="white"/>
<path d="M65.9674 15.1856C65.9158 15.8081 65.7317 16.2279 65.4628 16.4968C65.1755 16.7657 64.8072 16.8651 64.4537 16.8651H64.4205C63.463 16.8651 62.8553 16.2758 62.8074 15.1341V13.2521C62.8074 12.7991 62.8589 12.4971 63.3782 12.4971H63.5292V12.3276H61.5441V15.9259C61.5441 16.4489 61.1242 16.8504 60.6013 16.8504C60.1298 16.8504 59.7431 16.4968 59.6952 16.0438V13.4362C59.6952 12.9832 59.7615 12.6812 60.2514 12.6812H60.4208V12.5118H58.4356V15.9407C58.3841 16.4637 58.0305 16.8835 57.5112 16.8835C56.9919 16.8835 56.5684 16.4637 56.5684 15.9407V13.6204C56.5684 13.1674 56.6678 12.8654 57.1908 12.8654H57.3418V12.6959H55.3419V15.1672C55.2904 15.7897 55.1062 16.2095 54.8374 16.4784C54.5501 16.7472 54.1818 16.8651 53.8282 16.8651H52.1488V13.2521C52.1488 12.7991 52.2335 12.5118 52.7196 12.5118H52.889V12.3276H50.9039V17.3034C50.9039 17.6385 50.8708 18.0252 50.7345 18.412C50.5835 18.8171 50.3146 19.2038 49.8285 19.4874C49.7769 19.5205 49.7622 19.5537 49.7769 19.5721C49.7953 19.6053 49.8616 19.6053 49.961 19.5905C50.2299 19.5242 50.7676 19.388 51.2391 19.0528C51.7105 18.7176 52.1303 18.1799 52.1303 17.2886H54.5022C55.1762 17.2886 55.6108 16.9535 56.0159 16.5484C56.3695 17.0345 56.9919 17.2702 57.5959 17.2555C58.1852 17.2371 58.7561 16.9682 59.0765 16.4305C59.1612 16.7509 59.4448 16.9535 59.7505 17.0861C60.0525 17.2223 60.3876 17.2886 60.6602 17.2886C61.3821 17.2886 61.9529 16.9866 62.3396 16.4968C62.5238 16.7841 62.8958 17.0529 63.1794 17.1708C63.3304 17.2371 63.5145 17.2702 63.7355 17.2886H65.1314C65.6175 17.2886 66.1405 17.0382 66.5419 16.6147C66.9471 16.2095 67.2307 15.6055 67.2307 14.8652V13.2999C67.2307 12.8469 67.2822 12.5449 67.8015 12.5449H67.9709V12.3755H65.9711V15.182L65.9674 15.1856Z" fill="white"/>
<path d="M66.5912 18.2607C66.256 18.2607 65.9688 18.548 65.9688 18.8832C65.9688 19.2367 66.256 19.5203 66.5912 19.5203C66.9447 19.5203 67.2283 19.2331 67.2283 18.8832C67.2283 18.5333 66.9411 18.2607 66.5912 18.2607Z" fill="white"/>
<path d="M70.7058 10.0218L68.7207 10.0034V17.2847H69.9803V10.9278C69.9803 10.4748 70.0466 10.1728 70.7022 10.1728V10.0218H70.7058Z" fill="white"/>
<path d="M77.8373 11.4022C78.1908 11.4022 78.4744 11.1149 78.4744 10.7797C78.4744 10.4262 78.1872 10.1426 77.8373 10.1426C77.4874 10.1426 77.2148 10.4299 77.2148 10.7797C77.2148 11.1296 77.5021 11.4022 77.8373 11.4022Z" fill="white"/>
<path d="M76.2709 11.4022C76.6244 11.4022 76.8933 11.1149 76.8933 10.7797C76.8933 10.4262 76.6244 10.1426 76.2709 10.1426C75.9173 10.1426 75.6484 10.4299 75.6484 10.7797C75.6484 11.1296 75.9173 11.4022 76.2709 11.4022Z" fill="white"/>
<path d="M90.1943 15.082C90.1943 14.3933 89.9439 13.7193 89.4872 13.2331C89.0158 12.747 88.3602 12.4266 87.5352 12.4266H83.3808L84.4894 11.318C85.0271 10.795 85.598 10.5777 86.2535 11.1154C86.2719 11.1154 86.3051 11.1486 86.353 11.2001L86.4524 11.2996L86.6034 11.1486C86.283 10.7434 85.8484 10.2241 85.3254 10.2241C84.9718 10.2425 84.5188 10.5261 83.9958 11.016L81.996 12.9827H87.2921C88.386 12.9827 88.9237 13.8924 88.9237 15.0857V16.8683H79.6757V13.27C79.6757 12.817 79.7604 12.515 80.2465 12.515H80.416V12.3455H77.7753C75.606 12.3455 74.2285 13.3031 74.2285 14.7984C74.2285 15.5387 74.5968 16.1427 75.1382 16.581C75.6759 17.0193 76.3647 17.2697 77.0387 17.2881H90.187V15.0857L90.1943 15.082ZM78.4271 16.8646H77.0497C76.5783 16.8646 76.1768 16.6289 75.908 16.2606C75.6207 15.8923 75.455 15.4024 75.455 14.8132C75.455 13.9882 75.8601 13.4173 76.4457 13.0969C77.035 12.7765 77.7753 12.7433 78.4308 12.9459V16.8646H78.4271Z" fill="white"/>
<path d="M99.6074 10.7797C99.6074 11.1149 99.8947 11.4022 100.23 11.4022C100.583 11.4022 100.867 11.1149 100.867 10.7797C100.867 10.4262 100.58 10.1426 100.23 10.1426C99.88 10.1426 99.6074 10.4299 99.6074 10.7797Z" fill="white"/>
<path d="M98.6654 11.4022C99.019 11.4022 99.2878 11.1149 99.2878 10.7797C99.2878 10.4262 99.019 10.1426 98.6654 10.1426C98.3118 10.1426 98.043 10.4299 98.043 10.7797C98.043 11.1296 98.3118 11.4022 98.6654 11.4022Z" fill="white"/>
<path d="M99.4388 9.97394C99.7924 9.97394 100.076 9.68666 100.076 9.35151C100.076 8.99794 99.7887 8.71436 99.4388 8.71436C99.0889 8.71436 98.8164 9.00162 98.8164 9.35151C98.8164 9.70139 99.1037 9.97394 99.4388 9.97394Z" fill="white"/>
<path d="M103.155 15.1672V13.2521C103.155 12.7991 103.206 12.4971 103.726 12.4971H103.877V12.3276H101.891V15.9259C101.891 16.4489 101.472 16.8504 100.949 16.8504C100.477 16.8504 100.09 16.4968 100.039 16.0438V13.2373C100.039 12.7843 100.124 12.6665 100.61 12.6665H100.779V12.4971H98.7793V15.9443C98.7277 16.4673 98.3741 16.8872 97.8548 16.8872C97.3355 16.8872 96.912 16.4673 96.912 15.9443V13.5909C96.912 13.1379 96.9967 12.8359 97.516 12.8359H97.667V12.6665H95.6819V15.1709C95.6303 15.7933 95.4462 16.2132 95.1773 16.4821C94.89 16.7509 94.5217 16.8688 94.1682 16.8688H92.555V13.2558C92.555 12.8027 92.6397 12.5155 93.1259 12.5155H93.2953V12.3313H91.3101V17.3071C91.3101 17.6422 91.277 18.0289 91.1407 18.4156C90.9897 18.8208 90.7209 19.2075 90.2347 19.4911C90.1831 19.5242 90.1684 19.5574 90.1831 19.5758C90.2016 19.6089 90.2679 19.6089 90.3673 19.5942C90.6362 19.5279 91.1739 19.3916 91.6453 19.0565C92.1167 18.7213 92.5366 18.1836 92.5366 17.2923H94.8385C95.5125 17.2923 95.9471 16.9572 96.3522 16.552C96.7058 17.0382 97.3282 17.2739 97.9322 17.2592C98.5215 17.2408 99.0923 16.9719 99.4128 16.4342C99.4975 16.7546 99.7811 16.9572 100.087 17.0898C100.392 17.2223 100.724 17.2923 100.993 17.2923C101.615 17.2923 102.153 17.0566 102.54 16.6552C102.926 16.2685 103.144 15.7639 103.144 15.1746L103.155 15.1672Z" fill="white"/>
<path d="M6.76268 31.7029L4.34294 25.8027H4.00779L0.914062 33.084H1.41863L2.2915 30.981H5.38523L5.6725 31.7029C5.8898 32.3253 6.24337 32.6936 6.59694 32.8962C6.95051 33.0988 7.28566 33.1319 7.53979 33.1319C7.7092 33.1319 7.86021 33.1135 7.97807 33.0803V32.8631C7.67606 32.8299 7.45507 32.7452 7.27092 32.5758C7.08677 32.3916 6.9505 32.1044 6.76635 31.7029H6.76268ZM2.45724 30.5428L3.83468 27.3496L5.16424 30.5428H2.45724Z" fill="white"/>
<path d="M10.847 27.7879C10.2429 27.7879 9.82308 27.9573 9.46951 28.123V27.1323C9.46951 26.5946 9.43637 26.241 9.26695 26.0384C9.11595 25.8543 8.86182 25.8027 8.4751 25.8027H7.48438V26.02H7.70167C8.37566 26.02 8.4751 26.4583 8.4751 27.1286V33.0803H9.03123L9.41795 32.5758H9.46951C9.68681 32.8631 10.1435 33.1982 10.9648 33.1982C11.6204 33.1982 12.125 32.8778 12.4454 32.3916C12.7805 31.9055 12.95 31.2315 12.95 30.4912C12.95 29.7509 12.7805 29.0622 12.4454 28.576C12.0918 28.0899 11.5725 27.7842 10.847 27.7842V27.7879ZM11.602 32.0933C11.3847 32.4984 11.0643 32.7489 10.626 32.7489C10.022 32.7489 9.68313 32.4285 9.46583 32.0933V28.5613C9.8194 28.3919 10.173 28.2261 10.5265 28.2261C11.0127 28.2261 11.3515 28.4766 11.5872 28.8817C11.8045 29.2869 11.9077 29.8577 11.9077 30.4949C11.9077 31.132 11.8082 31.6882 11.6057 32.0933H11.602Z" fill="white"/>
<path d="M16.4819 30.2081L15.8079 29.9392C15.2518 29.7035 14.935 29.3831 14.935 28.9964C14.935 28.5581 15.3218 28.2229 16.0436 28.2229C16.9165 28.2229 17.4063 28.676 17.5242 29.3831H17.7415C17.7415 28.827 17.7415 28.5102 17.4726 28.2229C17.1854 27.9541 16.6476 27.7847 15.8079 27.7847C15.2849 27.7847 14.8319 27.9025 14.5152 28.153C14.1948 28.3887 13.9922 28.7422 13.9922 29.2137C13.9922 29.9355 14.4784 30.3738 15.3218 30.709L15.9773 30.9778C16.6513 31.2651 16.9681 31.534 16.9681 31.9686C16.9681 32.4032 16.5998 32.742 15.7564 32.742C14.8135 32.742 14.3273 32.3037 14.2095 31.5818H13.9922C13.9922 32.1527 13.9922 32.4731 14.2795 32.742C14.5483 33.0293 15.1045 33.195 15.9773 33.195C16.5151 33.195 17.0196 33.0587 17.3548 32.8083C17.7083 32.5726 17.9109 32.219 17.9109 31.7476C17.9109 30.9926 17.4248 30.5874 16.4819 30.2007V30.2081Z" fill="white"/>
<path d="M22.8883 28.1746C22.5347 27.8726 22.0817 27.7879 21.6103 27.7879C20.9363 27.7879 20.4501 28.0751 20.1629 28.344V27.1323C20.1629 26.5946 20.1297 26.241 19.9603 26.0384C19.8093 25.8543 19.5552 25.8027 19.1685 25.8027H18.1777V26.02H18.395C19.069 26.02 19.1685 26.4583 19.1685 27.1286V33.0803H20.1592V28.8596C20.4465 28.5576 20.8332 28.2888 21.2678 28.2888C21.5698 28.2888 21.8718 28.3882 22.1075 28.6092C22.3248 28.8449 22.4758 29.2316 22.4758 29.7693V33.0803H23.4665V29.7693C23.4665 28.9775 23.2308 28.4766 22.8773 28.1709L22.8883 28.1746Z" fill="white"/>
<path d="M26.9192 27.7881C26.2121 27.7881 25.6744 28.0901 25.2877 28.5799C24.9009 29.0661 24.7168 29.7401 24.7168 30.4951C24.7168 31.2501 24.9009 31.9057 25.2877 32.3955C25.6744 32.8817 26.2452 33.2021 27.0187 33.2021C27.8584 33.2021 28.514 32.8817 29.0038 32.042L28.7865 31.8725C28.3998 32.4287 27.9615 32.7454 27.2396 32.7454C26.7682 32.7454 26.4147 32.5281 26.1458 32.1561C25.8953 31.7878 25.7591 31.2649 25.7591 30.6608H29.1032L29.1217 30.2078C29.1217 28.661 28.4145 27.7881 26.9192 27.7881ZM25.7591 30.2078C25.7591 29.637 25.8769 29.1471 26.0942 28.7972C26.2968 28.4437 26.5657 28.2264 26.9192 28.2264C27.6927 28.2264 28.0794 28.9335 28.0794 30.2115H25.7591V30.2078Z" fill="white"/>
<path d="M33.4609 27.9541C33.2915 27.8362 33.0079 27.7847 32.7869 27.7847C32.1313 27.7847 31.6931 28.1198 31.4758 28.3887H31.4095C31.2916 28.0535 31.0412 27.9025 30.4666 27.9025H29.5938V28.1198H29.7116C30.3672 28.1198 30.4666 28.5581 30.4666 29.2137V33.0808H31.4758V28.9964C31.6931 28.6612 32.0798 28.4402 32.5181 28.4402C32.9048 28.4402 33.2252 28.5581 33.3909 28.7754L33.8439 28.4402C33.7114 28.2229 33.6082 28.0719 33.4572 27.9541H33.4609Z" fill="white"/>
<path d="M41.4443 32.1086C41.157 32.429 40.7703 32.6978 40.3357 32.6978C40.0337 32.6978 39.7317 32.5984 39.5107 32.3627C39.275 32.1454 39.124 31.7734 39.124 31.2025V29.2174C39.124 28.6797 39.0724 28.3445 38.9214 28.142C38.7704 27.9394 38.5163 27.9062 38.1296 27.9062H37.2383V28.1235H37.3561C38.0117 28.1235 38.1296 28.5618 38.1296 29.2174V31.2025C38.1296 32.0091 38.3653 32.4953 38.7188 32.801C39.0724 33.103 39.5254 33.2061 39.9968 33.2061C40.6708 33.2061 41.157 32.9188 41.4443 32.65H41.4958L41.8825 33.0882H42.4387V27.9099H41.448V32.1122L41.4443 32.1086Z" fill="white"/>
<path d="M47.9002 28.1748C47.5467 27.8728 47.0937 27.7881 46.6075 27.7881C45.9519 27.7881 45.4658 28.0754 45.1785 28.3442H45.1269C45.0091 28.0754 44.7586 27.9059 44.1841 27.9059H43.1934V28.1232H43.4107C44.0846 28.1232 44.1841 28.5615 44.1841 29.2171V33.0843H45.1748V28.8635C45.4621 28.5615 45.8304 28.2927 46.2834 28.2927C46.5854 28.2927 46.8874 28.3921 47.1231 28.6131C47.3404 28.8488 47.4914 29.2355 47.4914 29.7732V33.0843H48.4822V29.7732C48.4822 28.9814 48.2464 28.4805 47.8929 28.1748H47.9002Z" fill="white"/>
<path d="M51.1133 26.7462C51.1133 26.3595 50.8445 26.0391 50.4909 26.0391C50.1889 26.0391 49.9863 26.2232 49.9863 26.5252C49.9863 26.9119 50.2736 27.2324 50.6088 27.2324C50.9108 27.2324 51.1133 27.0482 51.1133 26.7462Z" fill="white"/>
<path d="M50.1899 27.9062H49.1992V28.1235H49.4165C50.0905 28.1235 50.1899 28.5618 50.1899 29.2174V33.0846H51.1807V29.2174C51.1807 28.6797 51.1291 28.3445 50.9781 28.142C50.8271 27.9394 50.573 27.9062 50.1863 27.9062H50.1899Z" fill="white"/>
<path d="M54.7114 32.7457C54.1884 32.7457 53.938 32.4252 53.938 31.7549V28.3408H55.2491V27.9025H53.938V26.2378H53.485L52.9473 26.9118V27.9025H52.1738V28.3408H52.9473V31.7549C52.9473 32.7641 53.485 33.2024 54.2584 33.2024C54.6451 33.2024 54.9324 33.1361 55.1681 33.0329C55.3854 32.9482 55.5217 32.8488 55.6395 32.7457L55.5401 32.5284C55.3228 32.6462 55.1018 32.7457 54.7151 32.7457H54.7114Z" fill="white"/>
<path d="M58.3782 27.7881C57.6711 27.7881 57.1334 28.0901 56.7467 28.5799C56.3599 29.0661 56.1758 29.7401 56.1758 30.4951C56.1758 31.2501 56.3599 31.9057 56.7467 32.3955C57.1334 32.8817 57.7042 33.2021 58.4777 33.2021C59.3174 33.2021 59.973 32.8817 60.4628 32.042L60.2455 31.8725C59.8588 32.4287 59.4205 32.7454 58.6986 32.7454C58.2272 32.7454 57.8736 32.5281 57.6048 32.1561C57.3543 31.7878 57.2181 31.2649 57.2181 30.6608H60.5622L60.5807 30.2078C60.5807 28.661 59.8735 27.7881 58.3782 27.7881ZM57.2181 30.2078C57.2181 29.637 57.3359 29.1471 57.5532 28.7972C57.7558 28.4437 58.0247 28.2264 58.3782 28.2264C59.1517 28.2264 59.5384 28.9335 59.5384 30.2115H57.2181V30.2078Z" fill="white"/>
<path d="M65.0321 25.8035H64.0414V26.0208H64.2771C64.9327 26.0208 65.0321 26.4591 65.0321 27.1294V28.1201C64.697 27.9507 64.2771 27.785 63.6547 27.785C62.9475 27.785 62.4282 28.087 62.0894 28.5768C61.7358 29.063 61.5664 29.7369 61.5664 30.492C61.5664 31.247 61.7358 31.9025 62.0526 32.3924C62.3877 32.8785 62.8923 33.199 63.5479 33.199C63.9861 33.199 64.3029 33.1143 64.5386 32.9964C64.7743 32.8785 64.9069 32.7091 65.0247 32.5765H65.091L65.4778 33.0811H66.0339V27.1294C66.0339 26.5917 65.9823 26.2381 65.8313 26.0355C65.6803 25.8514 65.4115 25.7998 65.0247 25.7998L65.0321 25.8035ZM65.0321 32.0904C64.9143 32.2598 64.8148 32.4255 64.627 32.5434C64.4428 32.6797 64.2071 32.746 63.8867 32.746C63.4337 32.746 63.1317 32.4955 62.9291 32.0904C62.6934 31.6852 62.6087 31.1144 62.6087 30.492C62.6087 29.8695 62.7081 29.2803 62.9291 28.8788C63.1464 28.4737 63.5 28.2232 63.9898 28.2232C64.325 28.2232 64.697 28.3926 65.0321 28.5584V32.0904Z" fill="white"/>
<path d="M73.3358 32.7457C72.7797 32.7457 72.3929 32.4952 72.1241 32.0901C71.8552 31.685 71.7374 31.1141 71.7374 30.4917C71.7374 29.8692 71.8552 29.28 72.1241 28.8785C72.3929 28.4734 72.7797 28.2229 73.3358 28.2229C74.1276 28.2229 74.7132 28.676 74.7648 29.6004H74.9821C74.9821 29.1953 74.9821 28.8932 74.949 28.6759C74.9158 28.4587 74.8495 28.3077 74.7133 28.1714C74.4444 27.9025 73.8883 27.7847 73.1148 27.7847C72.2898 27.7847 71.6858 28.0867 71.2807 28.5765C70.8756 29.0627 70.6914 29.7367 70.6914 30.4917C70.6914 31.2467 70.8756 31.9023 71.2807 32.3921C71.6858 32.8783 72.2898 33.1987 73.1148 33.1987C73.9877 33.1987 74.6617 32.8783 75.1478 32.0385L74.9305 31.8691C74.5438 32.4253 74.124 32.742 73.3321 32.742L73.3358 32.7457Z" fill="white"/>
<path d="M78.4471 27.7881C77.6552 27.7881 77.0696 28.0901 76.6645 28.5799C76.2446 29.0661 76.0273 29.7401 76.0273 30.4951C76.0273 31.2501 76.2446 31.9057 76.6645 32.3955C77.0696 32.8817 77.6552 33.2021 78.4471 33.2021C79.2389 33.2021 79.8245 32.8817 80.2444 32.3955C80.6643 31.9094 80.8668 31.2354 80.8668 30.4951C80.8668 29.7548 80.6643 29.0661 80.2444 28.5799C79.8245 28.0938 79.2021 27.7881 78.4471 27.7881ZM79.4562 32.0935C79.2058 32.4987 78.8522 32.7491 78.4471 32.7491C78.042 32.7491 77.6921 32.4987 77.4564 32.0935C77.2059 31.6884 77.0696 31.1175 77.0696 30.4951C77.0696 29.8727 77.2022 29.2834 77.4564 28.8819C77.6921 28.4768 78.0456 28.2264 78.4471 28.2264C78.8485 28.2264 79.2021 28.4768 79.4562 28.8819C79.6919 29.2871 79.8245 29.8579 79.8245 30.4951C79.8245 31.1323 79.6883 31.6884 79.4562 32.0935Z" fill="white"/>
<path d="M87.7463 27.7881C87.1239 27.7881 86.4683 28.0754 86.0816 28.5615C85.8127 27.9391 85.3266 27.7881 84.752 27.7881C84.0965 27.7881 83.6103 28.0754 83.323 28.3442H83.2715C83.1536 28.0754 82.9032 27.9059 82.3286 27.9059H81.3379V28.1232H81.5552C82.2292 28.1232 82.3286 28.5615 82.3286 29.2171V33.0842H83.3193V28.8635C83.6066 28.5615 83.9749 28.2927 84.4279 28.2927C84.9841 28.2927 85.3008 28.6794 85.3008 29.7732V33.0842H86.2915V29.7732C86.2915 29.5559 86.2915 29.1692 86.24 28.9998C86.3394 28.8304 86.5272 28.6646 86.7261 28.5136C86.9434 28.3958 87.1791 28.2963 87.4001 28.2963C87.9562 28.2963 88.273 28.6831 88.273 29.7769V33.0879H89.2637V29.7769C89.2637 28.9851 89.0796 28.4842 88.8107 28.1785C88.5234 27.8765 88.1367 27.7918 87.7353 27.7918L87.7463 27.7881Z" fill="white"/>
<path d="M93.4804 27.7883C92.6407 27.7883 92.2024 28.1235 91.9851 28.3924H91.9336C91.8157 28.0572 91.5653 27.9062 90.9907 27.9062H90V28.1235H90.2173C90.8913 28.1235 90.9907 28.5618 90.9907 29.2174V35.1838H91.9815V32.8635C92.3166 33.0329 92.7365 33.1987 93.3589 33.1987C94.0808 33.1987 94.6037 32.8783 94.9573 32.3921C95.2925 31.9059 95.4619 31.232 95.4619 30.4917C95.4619 29.7514 95.2925 29.0627 94.9573 28.5765C94.6369 28.0904 94.1323 27.7847 93.4768 27.7847L93.4804 27.7883ZM94.0844 32.0938C93.8671 32.4989 93.5283 32.7494 93.0237 32.7494C92.6886 32.7494 92.3166 32.5799 91.9815 32.4289V28.8969C92.0809 28.7275 92.2319 28.5618 92.4197 28.4255C92.6039 28.3077 92.8396 28.2229 93.1416 28.2229C93.5799 28.2229 93.8966 28.4734 94.1176 28.8785C94.3202 29.2837 94.4049 29.8545 94.4049 30.4917C94.4049 31.1288 94.3202 31.685 94.0844 32.0901V32.0938Z" fill="white"/>
<path d="M98.607 27.7883C98.2534 27.7883 97.933 27.8215 97.631 27.8731C97.329 27.9394 97.0748 28.0425 96.9422 28.1751C96.6734 28.4439 96.6734 28.7791 96.6734 29.1658H97.178C97.329 28.4439 97.7672 28.2229 98.3897 28.2229C98.7101 28.2229 98.9937 28.3224 99.2147 28.5765C99.4172 28.8638 99.5498 29.3499 99.5498 30.105H99.2147C98.4596 30.105 97.7672 30.1897 97.2479 30.4254C96.7286 30.6611 96.4082 31.0478 96.4082 31.6518C96.4082 32.2558 96.6587 32.6425 96.9791 32.8783C97.2995 33.0956 97.6862 33.1987 98.003 33.1987C98.8427 33.1987 99.3141 32.8635 99.5498 32.5763H99.6014L99.9881 33.0808H100.544V30.105C100.544 29.1142 100.309 28.5249 99.9549 28.1898C99.5866 27.8694 99.0968 27.7847 98.6107 27.7847L98.607 27.7883ZM99.5498 32.0422C99.3141 32.3774 99.0268 32.6978 98.4891 32.6978C98.2203 32.6978 97.9514 32.6131 97.7672 32.4473C97.5831 32.2632 97.4468 32.0091 97.4468 31.6555C97.4468 30.9815 98.1024 30.5469 99.211 30.5469H99.5461V32.0422H99.5498Z" fill="white"/>
<path d="M105.951 28.1748C105.597 27.8728 105.144 27.7881 104.658 27.7881C104.003 27.7881 103.517 28.0754 103.229 28.3442H103.178C103.06 28.0754 102.809 27.9059 102.235 27.9059H101.244V28.1232H101.461C102.135 28.1232 102.235 28.5615 102.235 29.2171V33.0843H103.226V28.8635C103.513 28.5615 103.881 28.2927 104.334 28.2927C104.636 28.2927 104.938 28.3921 105.174 28.6131C105.391 28.8488 105.542 29.2355 105.542 29.7732V33.0843H106.533V29.7732C106.533 28.9814 106.297 28.4805 105.944 28.1748H105.951Z" fill="white"/>
<path d="M112.074 27.9059L110.696 31.7215L109.436 28.6794C109.201 28.1085 108.781 27.7881 108.107 27.7881H107.164V28.0054C107.735 28.0717 108.155 28.3258 108.391 28.8967L110.155 33.2021L109.919 33.8061C109.75 34.2775 109.551 34.5611 109.315 34.7306C109.065 34.9 108.759 34.9663 108.442 34.9663V35.2867H108.777C109.164 35.2867 109.484 35.2204 109.753 34.9994C110.022 34.7821 110.258 34.4101 110.475 33.8061L112.626 27.9059H112.07H112.074Z" fill="white"/>
<path d="M159.722 30.391C159.704 30.3508 148.232 7.35343 145.257 1.39421C144.834 0.548649 143.972 0.0151367 143.028 0.0151367H141.671C141.498 0.307058 137.051 8.11041 136.857 8.43253C137.031 8.77478 152.541 39.8614 152.978 40.6344C153.366 41.4116 153.902 42.3014 154.912 42.0961C155.468 41.9833 155.923 41.5827 156.15 41.0633C157.344 38.3414 158.538 35.6174 159.732 32.8955C159.905 32.5009 160.08 32.0922 160.086 31.6614C160.09 31.2165 159.913 30.7957 159.722 30.391Z" fill="white"/>
<path d="M147.159 33.4042C147.073 33.2331 146.881 33.0962 146.686 33.0539C146.378 32.9875 146.058 33.068 145.742 33.062C145.426 33.0559 145.065 32.913 144.991 32.605C144.93 32.3593 145.102 32.0896 145.343 32.0171C145.585 31.9446 145.863 32.0594 146.003 32.2688C146.056 32.3453 146.09 32.4338 146.146 32.5083C146.261 32.6593 146.462 32.7378 146.65 32.7036C146.837 32.6694 146.998 32.5264 147.054 32.3453C147.133 32.0855 146.996 31.8037 146.815 31.6024C145.85 30.5273 143.539 31.1675 143.97 32.8143C143.99 32.8908 144.014 32.9734 143.976 33.0418C143.932 33.1204 143.825 33.1345 143.741 33.1667C143.523 33.2512 143.406 33.5331 143.503 33.7465C143.634 34.0364 144.018 34.0887 144.337 34.0968C145.025 34.1129 145.716 34.1089 146.406 34.0847C146.712 34.0746 147.089 34.0122 147.189 33.7223C147.228 33.6136 147.211 33.5029 147.161 33.4022L147.159 33.4042Z" fill="white"/>
<path d="M131.94 33.9517C131.926 34.0161 131.92 34.0845 131.92 34.157C131.922 34.5737 132.216 34.9643 132.606 35.1113C132.997 35.2583 133.458 35.1677 133.782 34.9059C133.903 34.8093 134.008 34.6885 134.074 34.5476C134.247 34.1751 134.108 33.702 133.792 33.4383C133.206 32.9491 132.101 33.1766 131.94 33.9517Z" fill="white"/>
<path d="M130.404 32.2564C130.421 32.3108 130.443 32.3671 130.471 32.4235C130.704 32.9047 131.322 33.1302 131.836 32.9792C132.339 32.8322 132.738 32.2926 132.609 31.7853C132.528 31.4712 132.265 31.2236 131.961 31.1129C131.202 30.8371 130.143 31.3907 130.406 32.2544L130.404 32.2564Z" fill="white"/>
<path d="M141.065 42.6429C140.963 42.4516 140.792 42.2926 140.592 42.204C139.773 41.8316 138.569 42.5805 139.145 43.5187C139.427 43.9777 140.087 44.1246 140.574 43.8911C140.916 43.726 141.182 43.3697 141.164 42.9892C141.158 42.8684 141.124 42.7516 141.065 42.6449V42.6429Z" fill="white"/>
<path d="M129.209 34.4752C129.32 34.7712 129.573 35.0188 129.875 35.1215C130.282 35.2584 130.751 35.1436 131.075 34.8658C131.188 34.7691 131.287 34.6504 131.347 34.5135C131.508 34.145 131.349 33.684 131.033 33.4344C130.387 32.923 129.134 33.2028 129.147 34.1632C129.147 34.2719 129.169 34.3766 129.207 34.4772L129.209 34.4752Z" fill="white"/>
<path d="M142.073 36.7376C142.053 36.647 142.025 36.5564 141.991 36.4699C141.844 36.1014 141.522 35.7773 141.127 35.7431C140.668 35.7048 140.256 36.0753 140.09 36.5041C139.925 36.9329 139.95 37.4101 139.978 37.8691C139.994 38.1328 140.01 38.3986 140.026 38.6623C140.036 38.8314 140.038 39.0227 139.921 39.1435C139.809 39.2582 139.629 39.2663 139.468 39.2663C138.599 39.2663 137.729 39.2683 136.857 39.2703C136.744 38.7791 136.819 38.2677 136.865 37.7644C136.912 37.2611 136.93 36.7356 136.718 36.2766C136.507 35.8176 136.002 35.4592 135.51 35.576C135.136 35.6646 134.862 36.0068 134.745 36.3732C134.629 36.7396 134.641 37.1342 134.653 37.5208C134.673 38.1006 134.691 38.6784 134.711 39.2582C134.143 39.2562 133.576 39.2542 133.008 39.2522C132.829 38.5495 133.062 37.8127 133.046 37.0899C133.03 36.3652 132.567 35.5196 131.844 35.5659C131.146 35.6102 130.785 36.4477 130.793 37.1483C130.801 37.8489 131.011 38.5717 130.781 39.232C130.242 39.2421 129.702 39.2502 129.163 39.2602C128.979 38.5576 129.215 37.8208 129.205 37.096C129.195 36.3712 128.742 35.5196 128.017 35.5559C127.314 35.5921 126.942 36.4296 126.946 37.1322C126.95 37.8348 127.161 38.5596 126.94 39.226C125.99 39.2844 125.035 39.2884 124.085 39.2361C124.079 38.6401 124.075 38.0422 124.069 37.4463C124.065 36.9792 124.053 36.484 123.801 36.0914C123.527 35.6646 122.964 35.5337 122.509 35.737C121.939 35.9907 121.848 36.6168 121.848 37.1886C121.852 38.6039 121.854 40.0212 121.858 41.4365C121.858 41.5553 121.858 41.6822 121.792 41.7808C121.663 41.9821 121.371 41.968 121.15 42.0586C120.659 42.26 120.614 43.017 120.979 43.4035C121.343 43.79 121.937 43.8645 122.462 43.7921C122.831 43.7417 123.203 43.6229 123.485 43.3793C124.099 42.8478 124.109 41.9177 124.073 41.1064C129.489 41.1044 134.904 41.1024 140.318 41.1003C140.721 41.1003 141.145 41.0943 141.488 40.8789C142.11 40.4883 142.168 39.6226 142.16 38.8898C142.156 38.4751 142.15 38.0603 142.146 37.6456C142.142 37.3436 142.138 37.0356 142.071 36.7437L142.073 36.7376ZM140.072 36.5685C140.072 36.5685 140.07 36.5725 140.068 36.5746C140.068 36.5725 140.068 36.5705 140.068 36.5685C140.068 36.5685 140.07 36.5685 140.072 36.5685ZM139.613 39.3166C139.613 39.3166 139.613 39.3287 139.615 39.3327H139.611C139.611 39.3267 139.611 39.3206 139.613 39.3166Z" fill="white"/>
<path d="M146.451 35.3386C146.363 34.9581 146.188 34.6219 145.847 34.4447C144.915 33.9555 144.285 34.8715 144.289 35.6809C144.299 37.8813 144.311 40.0818 144.321 42.2823C144.321 42.5038 144.323 42.7292 144.396 42.9386C144.599 43.5305 145.421 43.8023 145.936 43.448C146.477 43.0755 146.532 42.3125 146.532 41.6542C146.532 39.8644 146.536 38.0766 146.538 36.2868C146.538 35.9788 146.524 35.6446 146.451 35.3386Z" fill="white"/>
<path d="M140.814 20.9352C140.814 20.9352 140.808 20.9231 140.806 20.9191C140.46 20.2225 139.518 20.1379 138.741 20.146C135.795 20.1782 132.848 20.2104 129.903 20.2426C128.991 21.6942 126.438 26.1253 126.029 26.8541C125.816 27.2367 125.481 27.7601 125.121 28.4345C128.916 28.4668 133.377 28.4527 137.172 28.4909C137.342 28.4909 137.521 28.4909 137.67 28.4124C137.859 28.3117 137.964 28.1044 138.056 27.9111C138.884 26.1837 139.713 24.4543 140.541 22.727C140.81 22.1633 141.082 21.4989 140.814 20.9372V20.9352Z" fill="white"/>
<path d="M136.029 0.0172022C134.777 0.0172022 133.462 -0.137817 132.383 0.496356C131.526 1.00168 130.992 1.89959 130.493 2.76126C130.275 3.09747 121.653 17.9432 120.892 19.3685C120.012 21.0154 121.53 23.0709 122.468 24.4419C123.384 25.7828 124.302 27.1236 125.218 28.4644C130.71 19.0706 136.291 9.47343 141.674 0.0172022C141.435 0.0151889 137.644 0.0172022 136.029 0.0172022Z" fill="white"/>
</svg>
