<svg width="94" height="44" viewBox="0 0 94 44" fill="none" xmlns="http://www.w3.org/2000/svg">
<path fill-rule="evenodd" clip-rule="evenodd" d="M76.6043 0.0035958C77.895 0.0150755 78.3941 0.0437748 78.985 0.135612C79.398 0.198751 80.1036 0.342247 80.5625 0.457044C81.0215 0.566102 81.664 0.749777 81.9967 0.864574C82.3294 0.979371 82.8687 1.19175 83.2014 1.3295C83.5341 1.473 84.125 1.75425 84.5208 1.96089C84.9166 2.16752 85.5993 2.57505 86.041 2.87352C86.4827 3.16626 87.1654 3.6771 87.5612 4.01002C87.957 4.33719 88.5536 4.89395 88.8978 5.24982C89.2363 5.59996 89.7354 6.16246 90.005 6.50111C90.2746 6.8455 90.6819 7.40227 90.9114 7.7524C91.1409 8.10253 91.4736 8.64208 91.6514 8.95777C91.8235 9.27346 92.0989 9.81301 92.2538 10.1631C92.4086 10.5133 92.6553 11.116 92.7987 11.512C92.9422 11.9081 93.1487 12.5911 93.2634 13.0331C93.3724 13.475 93.5215 14.1581 93.5904 14.5541C93.6936 15.1568 93.7223 15.5586 93.7395 17.0797C93.7625 18.5146 93.7453 19.037 93.6764 19.6052C93.6248 20.0013 93.5215 20.6212 93.447 20.9828C93.3724 21.3444 93.229 21.9241 93.1257 22.2742C93.0282 22.6244 92.8561 23.1524 92.7414 23.4509C92.6266 23.7494 92.4259 24.2545 92.2882 24.5702C92.1505 24.8859 91.8809 25.4254 91.6858 25.7755C91.4965 26.1257 91.1523 26.6882 90.9229 27.0383C90.6934 27.3884 90.2918 27.9395 90.028 28.2724C89.7698 28.6053 89.1617 29.2654 88.6856 29.7418C88.2094 30.2182 87.5497 30.8209 87.217 31.0849C86.8843 31.3489 86.3278 31.745 85.9836 31.9746C85.6394 32.2042 85.083 32.5428 84.7503 32.7265C84.4175 32.9044 83.8898 33.1742 83.5743 33.312C83.2588 33.4497 82.731 33.6679 82.3983 33.7941C82.0655 33.9147 81.4747 34.1041 81.0788 34.2131C80.683 34.3279 80.1036 34.4657 79.7881 34.5288C79.4726 34.5862 78.8932 34.6781 78.4974 34.724C78.1015 34.7699 77.4189 34.8273 76.9772 34.8503C76.5125 34.8732 75.7782 34.856 75.2275 34.8216C74.7055 34.7814 73.9195 34.6895 73.4778 34.6149C73.0361 34.5403 72.4051 34.414 72.0724 34.3279C71.7396 34.2418 71.2406 34.0983 70.9537 34.0122C70.6669 33.9204 70.1162 33.7138 69.7204 33.5531C69.3245 33.3923 68.682 33.0881 68.2862 32.8815C67.8904 32.6806 67.2077 32.2731 66.766 31.9803C66.3243 31.6876 65.6646 31.2055 65.3032 30.907C64.9418 30.6085 64.3451 30.069 63.9837 29.7073C63.6223 29.34 63.0946 28.7603 62.8192 28.4159C62.5381 28.0658 62.0792 27.4344 61.7924 27.0096C61.4998 26.5676 61.0466 25.7641 60.7426 25.1442C60.4443 24.5472 60.0828 23.7149 59.9394 23.3074C59.7903 22.8999 59.5838 22.2226 59.4805 21.815C59.3772 21.4075 59.2338 20.7474 59.1707 20.3514C59.1076 19.9553 59.0216 19.3239 58.9872 18.9451C58.947 18.5261 58.9355 17.7455 58.9527 16.9362C58.9757 16.0408 59.0216 15.3749 59.0961 14.8698C59.165 14.4566 59.2682 13.8768 59.3371 13.5784C59.4002 13.2799 59.5379 12.7633 59.6297 12.4304C59.7272 12.0975 59.9509 11.4661 60.123 11.0241C60.3008 10.5822 60.5877 9.92207 60.7712 9.56046C60.9548 9.19884 61.2761 8.61912 61.4883 8.26899C61.7006 7.91886 62.1308 7.28747 62.4521 6.86272C62.8307 6.35762 63.3642 5.75493 63.9837 5.13503C64.5058 4.60696 65.1999 3.9641 65.5326 3.7058C65.8653 3.44177 66.4333 3.03424 66.7947 2.79317C67.1561 2.55783 67.8158 2.17326 68.2575 1.94367C68.6992 1.71981 69.3303 1.4156 69.663 1.27784C69.9957 1.14009 70.5522 0.933452 70.8964 0.818655C71.2406 0.709598 71.7855 0.548882 72.101 0.468524C72.4166 0.388166 72.973 0.273369 73.3344 0.210231C73.6958 0.141352 74.2121 0.0667342 74.4817 0.0380349C74.7514 0.00933566 75.7036 -0.00788391 76.6043 0.0035958ZM9.65804 19.5191C10.1801 19.5306 10.8513 19.5822 11.1496 19.6339C11.4479 19.6856 11.9527 19.7889 12.2682 19.8692C12.5837 19.9439 13.1172 20.0988 14.0752 20.4088L14.0465 20.6499C14.0293 20.7876 13.9777 21.4764 13.9318 22.1881C13.8859 22.8999 13.8458 23.514 13.8458 23.5485C13.8458 23.6001 13.7196 23.6231 12.9853 23.6231L12.3657 23.0032C12.0273 22.6588 11.5683 22.2628 11.3503 22.1193C11.1323 21.97 10.7423 21.7806 10.4898 21.6888C10.0539 21.5395 9.97929 21.5281 9.08438 21.5281C8.20094 21.5338 8.10916 21.5395 7.67891 21.6888C7.4265 21.7806 7.03641 21.9585 6.81842 22.0848C6.58895 22.2168 6.21607 22.521 5.95793 22.7851C5.69978 23.0434 5.36706 23.4566 5.21217 23.7092C5.05728 23.9618 4.83355 24.4037 4.71308 24.685C4.59835 24.9662 4.4492 25.4082 4.38036 25.6608C4.31726 25.9133 4.22547 26.3553 4.17958 26.6365C4.13369 26.9178 4.09353 27.4516 4.09353 27.8132C4.09353 28.1748 4.13369 28.6512 4.17958 28.8751C4.22547 29.0989 4.35741 29.4663 4.46641 29.6901C4.58688 29.9427 4.78766 30.2354 4.96549 30.4134C5.13186 30.5855 5.43016 30.8037 5.6252 30.9012C5.82598 31.0046 6.14724 31.1308 6.34228 31.1825C6.58895 31.2456 6.91594 31.2801 7.3634 31.2743C7.79938 31.2743 8.21815 31.2341 8.59677 31.1538C8.91228 31.0849 9.40563 30.9529 9.68672 30.8553C9.96782 30.7577 10.4382 30.5626 10.7193 30.4248C11.0004 30.2871 11.402 30.069 11.6085 29.9369C11.815 29.8049 12.119 29.5868 12.2854 29.4548C12.4518 29.3285 12.5952 29.2309 12.6067 29.2482C12.6181 29.2654 12.773 29.5696 13.2721 30.5683L12.9681 30.8381C12.8074 30.9816 12.4346 31.2743 12.1535 31.4867C11.8724 31.6991 11.4651 31.9803 11.2471 32.1124C11.0348 32.2386 10.6218 32.4682 10.3292 32.6117C10.0424 32.761 9.54331 32.9618 9.22779 33.0709C8.91228 33.1742 8.45909 33.3005 8.22389 33.3522C7.97148 33.4096 7.39208 33.4612 6.81842 33.4784C6.21034 33.4957 5.61373 33.4842 5.24085 33.4383C4.90813 33.4038 4.39183 33.3062 4.09353 33.2316C3.79523 33.157 3.2904 32.9676 2.97489 32.8126C2.65938 32.6576 2.23487 32.3993 2.02835 32.2386C1.82183 32.0722 1.51779 31.7794 1.35143 31.5843C1.18507 31.3891 0.915447 30.9701 0.760558 30.6544C0.559777 30.2526 0.439308 29.914 0.364732 29.5352C0.28442 29.1448 0.25 28.7545 0.25 28.1576C0.25 27.6984 0.290156 27.09 0.336049 26.8087C0.381942 26.5275 0.479464 26.074 0.559777 25.8042C0.634353 25.5345 0.794978 25.0982 0.903974 24.8285C1.01871 24.5587 1.25391 24.1053 1.42027 23.824C1.59237 23.5427 1.90788 23.0893 2.12587 22.8253C2.33813 22.5555 2.6938 22.1824 2.90605 21.993C3.12404 21.7978 3.51987 21.4821 3.79523 21.287C4.07058 21.0918 4.56393 20.7876 4.89665 20.6154C5.22938 20.449 5.75715 20.2079 6.07266 20.0931C6.38817 19.9726 6.91594 19.8176 7.24866 19.743C7.58139 19.6683 8.04605 19.5822 8.28125 19.5535C8.51646 19.5191 9.13601 19.5076 9.65804 19.5191ZM34.4976 38.7821C34.5779 38.7821 34.7442 38.805 34.8704 38.8395C34.9966 38.8796 35.1687 38.983 35.2548 39.0691C35.3466 39.1609 35.4212 39.2355 35.4269 39.2355C35.4384 39.2355 35.4613 39.1609 35.5302 38.8911H36.0178C36.4939 38.8911 36.5054 38.8969 36.4767 39.0174C36.4652 39.092 36.2817 39.953 36.0751 40.9288C35.7768 42.3408 35.6621 42.7827 35.5187 43.0812C35.3867 43.3338 35.2491 43.5117 35.0712 43.6437C34.9278 43.747 34.6811 43.8733 34.5262 43.9192C34.3541 43.9652 33.987 43.9996 33.6084 43.9996C33.0577 43.9996 32.9372 43.9824 32.6733 43.8561C32.4783 43.7643 32.3463 43.6552 32.289 43.5404C32.2431 43.4428 32.1972 43.2706 32.1742 42.9377L32.7307 42.9205C33.2011 42.909 33.2929 42.9262 33.2929 42.9951C33.2929 43.041 33.3502 43.1214 33.4191 43.1673C33.4937 43.2132 33.6658 43.2534 33.8092 43.2534C33.9526 43.2534 34.1591 43.2075 34.2681 43.1444C34.3771 43.087 34.509 42.9664 34.5664 42.8746C34.618 42.7827 34.7041 42.5646 34.8475 42.0767L34.6869 42.2317C34.6008 42.3178 34.4287 42.4269 34.3083 42.4728C34.1935 42.5244 33.9411 42.5646 33.7518 42.5646C33.5625 42.5646 33.3101 42.5244 33.1896 42.4728C33.0749 42.4269 32.9028 42.3178 32.8167 42.2317C32.7307 42.1456 32.616 41.9447 32.5701 41.7897C32.5242 41.629 32.4897 41.3994 32.4897 41.2732C32.4897 41.1469 32.5414 40.8369 32.6045 40.5844C32.6733 40.3318 32.7938 40.0104 32.8741 39.8669C32.9602 39.7234 33.1323 39.4938 33.2585 39.356C33.3904 39.2183 33.5912 39.0576 33.7059 39.0002C33.8264 38.937 34.0214 38.8682 34.1362 38.8395C34.2566 38.8108 34.4173 38.7878 34.4976 38.7821ZM33.8837 40.0793C33.8206 40.1654 33.7231 40.3605 33.6715 40.5098C33.6199 40.6647 33.5797 40.9115 33.5797 41.0723C33.5797 41.2961 33.6141 41.3994 33.7231 41.5315C33.8436 41.6807 33.9067 41.7036 34.1362 41.7036C34.3369 41.7036 34.4746 41.6635 34.6238 41.5602C34.7672 41.4683 34.8934 41.3133 34.9794 41.1124C35.0598 40.9517 35.1401 40.6992 35.163 40.5557C35.1802 40.4122 35.1687 40.2055 35.1343 40.0793C35.0942 39.9358 35.0139 39.8382 34.8991 39.7808C34.8073 39.7349 34.641 39.6947 34.5377 39.6947C34.4402 39.6947 34.2738 39.7464 34.182 39.8038C34.0845 39.8612 33.9526 39.9874 33.8837 40.0793Z" fill="white"/>
<path d="M73.0187 1.20888C73.4317 1.12852 74.0512 1.0252 74.3954 0.979284C74.7396 0.939105 75.5944 0.904666 76.2885 0.898926C76.9827 0.898926 77.78 0.921885 78.0669 0.950584C78.3537 0.985024 78.8298 1.04816 79.1281 1.09982C79.4264 1.15148 80.0632 1.28924 80.5336 1.40977C81.0098 1.53031 81.7154 1.74842 82.1112 1.89766C82.507 2.0469 83.138 2.31667 83.5167 2.49461C83.8953 2.67828 84.4747 2.98823 84.8074 3.18339C85.1401 3.38428 85.6564 3.7172 85.9547 3.93531C86.253 4.14769 86.7464 4.53226 87.0447 4.78481C87.343 5.03162 87.8765 5.53673 88.2207 5.8926C88.5649 6.25421 89.0295 6.76506 89.2418 7.03483C89.4598 7.30461 89.8671 7.87285 90.1539 8.2976C90.435 8.72235 90.848 9.43409 91.0718 9.87606C91.2955 10.318 91.5938 10.9609 91.7315 11.311C91.8749 11.6612 92.0872 12.2925 92.2134 12.7173C92.3396 13.142 92.5002 13.8136 92.5748 14.2097C92.6551 14.6057 92.7469 15.1854 92.787 15.5011C92.8329 15.8398 92.8616 16.6434 92.8616 17.4814C92.8559 18.6351 92.8329 19.0369 92.7296 19.7199C92.6608 20.1791 92.5403 20.822 92.46 21.1549C92.3855 21.4878 92.242 22.0159 92.1445 22.3316C92.047 22.6472 91.8634 23.1638 91.7372 23.4795C91.611 23.7952 91.3815 24.3118 91.2324 24.6275C91.0775 24.9432 90.8194 25.4368 90.653 25.7181C90.4924 25.9993 90.1883 26.4815 89.9761 26.7799C89.7696 27.0784 89.4426 27.5204 89.2533 27.7557C89.064 27.9911 88.5878 28.5191 88.192 28.9266C87.7962 29.3284 87.2168 29.8737 86.9013 30.1378C86.5857 30.3961 86.144 30.7347 85.926 30.8954C85.708 31.0561 85.2778 31.3374 84.9795 31.5153C84.6812 31.699 84.0215 32.0491 83.5167 32.2959C83.0061 32.5428 82.18 32.8814 81.6523 33.0593C81.1302 33.2373 80.6541 33.3808 80.591 33.3808C80.5279 33.375 80.1952 33.1397 79.8567 32.847C79.5182 32.5542 79.2257 32.2787 79.2142 32.2328C79.2027 32.1869 79.1626 31.7966 79.1281 31.3718C79.0604 30.6147 79.0649 30.5806 79.284 28.926L79.2945 28.8463C79.4265 27.882 79.5412 27.044 79.5584 26.9808C79.5756 26.9005 79.6444 26.8546 79.7993 26.8259C80.0001 26.7857 80.0575 26.8086 80.5623 27.153C80.8399 27.34 81.2617 27.6364 81.5362 27.8293L81.5949 27.8705C81.8645 28.0599 82.289 28.324 82.5414 28.4445C82.7938 28.5708 83.1667 28.7085 83.3732 28.7545C83.6945 28.8233 83.7977 28.8233 84.119 28.7545C84.3771 28.7028 84.5435 28.6282 84.6525 28.5191C84.8017 28.3756 84.8131 28.324 84.8017 28.014C84.7902 27.7902 84.8189 27.6122 84.8762 27.4974C84.9508 27.3539 85.0254 27.308 85.3237 27.2391C85.5187 27.1932 85.6908 27.1358 85.7023 27.1129C85.7138 27.0842 85.6966 26.9464 85.6679 26.7972C85.6335 26.6422 85.5933 26.4757 85.5818 26.4241C85.5589 26.3437 85.6564 26.2748 86.0121 26.1084C86.3677 25.9419 86.4767 25.8616 86.471 25.7755C86.471 25.7123 86.4194 25.4655 86.3563 25.2302C86.2932 24.9948 86.2415 24.7767 86.2415 24.7423C86.2415 24.7079 86.3448 24.6505 86.471 24.616C86.5972 24.5758 86.8267 24.4209 87.2741 23.9961L87.0103 23.5943C86.8611 23.3705 86.6431 22.9859 86.5226 22.7333C86.4079 22.4808 86.276 22.1307 86.2415 21.9585C86.2014 21.7863 86.1784 21.4993 86.1899 21.3213C86.2071 21.0401 86.253 20.9368 86.5054 20.5752C86.6718 20.3398 86.8554 19.9954 86.9185 19.806C86.9816 19.6166 87.0504 19.3066 87.0734 19.1172C87.0963 18.9278 87.0848 18.5719 87.0504 18.3309C87.016 18.0841 86.9127 17.6363 86.8152 17.3379C86.7177 17.0394 86.6259 16.7926 86.603 16.7926C86.5743 16.7926 86.4997 16.9016 86.4366 17.0337C86.3678 17.1714 86.1383 17.4871 85.9203 17.7397C85.7023 17.9922 85.3409 18.417 85.1172 18.6867C84.8877 18.9565 84.5148 19.3698 84.2854 19.6109C83.9125 19.9954 83.7748 20.093 83.1725 20.3915C82.7938 20.5752 82.0423 20.8736 81.5088 21.0516C80.9753 21.2295 80.0689 21.5165 79.501 21.6944C78.9331 21.8666 77.7686 22.2168 76.9195 22.4636C75.9156 22.762 75.2043 23.0031 74.8945 23.1581C74.6364 23.2844 74.4127 23.4164 74.3954 23.4508C74.3782 23.4853 74.4184 23.5082 74.4815 23.5082C74.5618 23.5082 74.6421 23.5943 74.7454 23.7837C74.8888 24.042 74.8945 24.0707 74.8314 24.4266C74.7913 24.6332 74.6937 25.058 74.6192 25.3737C74.5389 25.6894 74.3553 26.2978 74.2119 26.7225C74.0742 27.1473 73.8275 27.8189 73.6669 28.2149C73.5063 28.611 73.2366 29.2251 73.0703 29.581C72.881 29.9656 72.7204 30.2353 72.6572 30.2526C72.6056 30.264 72.4737 30.3616 72.3704 30.4649C72.2672 30.574 72.1811 30.7117 72.1868 30.7864C72.1868 30.8552 72.2327 30.9586 72.2958 31.016C72.3934 31.1078 72.3876 31.148 71.6706 33.266L71.3665 33.1741C71.2059 33.1225 70.7355 32.9503 70.3224 32.7896C69.9094 32.6289 69.2669 32.3419 68.8883 32.1467C68.5097 31.9516 67.936 31.6301 67.609 31.4235C67.2878 31.2226 66.7715 30.8667 66.4617 30.6371C66.1577 30.4075 65.6528 29.9943 65.3373 29.7188C65.0276 29.4432 64.517 28.9381 64.2015 28.588C63.886 28.2379 63.4156 27.6754 63.1517 27.3252C62.8878 26.9751 62.4977 26.4126 62.2855 26.0625C62.0732 25.7123 61.7118 25.0465 61.4823 24.5701C61.2529 24.0994 60.9603 23.4106 60.8284 23.049C60.6964 22.6874 60.4899 22.0044 60.3694 21.528C60.249 21.0573 60.0883 20.2939 60.0195 19.8347C59.9048 19.123 59.8876 18.7728 59.8876 17.424C59.8818 16.1956 59.9048 15.6963 59.9851 15.1567C60.0424 14.7779 60.14 14.2211 60.2088 13.9227C60.2719 13.6242 60.4096 13.0789 60.5128 12.7173C60.6218 12.3557 60.8513 11.6956 61.0291 11.2536C61.207 10.8117 61.5167 10.1286 61.729 9.73257C61.9355 9.33652 62.274 8.75679 62.4748 8.4411C62.6813 8.12541 63.0484 7.60882 63.2894 7.29313C63.5303 6.97743 64.0753 6.36327 64.4998 5.9213C64.9243 5.48507 65.5611 4.89387 65.9053 4.60687C66.2495 4.31988 66.8747 3.86643 67.282 3.59666C67.6951 3.32689 68.3892 2.91936 68.8309 2.6955C69.2726 2.46591 69.9324 2.16743 70.2938 2.02394C70.6552 1.88044 71.2518 1.67381 71.6132 1.56475C71.9746 1.45569 72.6056 1.29498 73.0187 1.20888Z" fill="#495B14"/>
<path fill-rule="evenodd" clip-rule="evenodd" d="M47.6233 1.875C47.6577 1.875 47.6921 1.92666 47.6921 1.99554C47.6921 2.07016 47.2906 4.96878 46.8029 8.4414C45.9941 14.1583 45.908 14.8184 45.9424 16.0869L45.1967 16.1271C44.7894 16.1443 43.9518 16.1787 43.3438 16.2017C42.38 16.2419 42.2423 16.2361 42.2481 16.1615C42.2481 16.1156 42.2653 15.9606 42.3341 15.5588L41.9842 15.7942C41.7949 15.9262 41.5367 16.0869 41.4105 16.15C41.2843 16.2132 41.0032 16.3165 40.7795 16.3854C40.5615 16.4542 40.1714 16.5231 39.919 16.5403C39.615 16.5633 39.3224 16.5461 39.0585 16.4887C38.8405 16.4428 38.5021 16.3337 38.3128 16.2419C38.0948 16.1385 37.8194 15.9262 37.567 15.6736C37.349 15.4498 37.0794 15.1283 36.9761 14.9561C36.8786 14.7839 36.7065 14.4108 36.609 14.1239C36.4254 13.6187 36.4197 13.5843 36.4197 12.6602C36.4197 11.8566 36.4369 11.6385 36.5516 11.1965C36.6262 10.9153 36.827 10.3987 36.9933 10.0486C37.1654 9.70416 37.4293 9.25072 37.5842 9.04408C37.7391 8.83745 38.0661 8.48157 38.307 8.25772C38.548 8.02813 38.9553 7.70095 39.2191 7.52876C39.4773 7.35656 39.8731 7.13845 40.0911 7.04661C40.3148 6.94903 40.7107 6.81128 40.9803 6.7424C41.3818 6.63334 41.6228 6.61038 42.3284 6.61038C42.8045 6.60464 43.2807 6.61612 43.5904 6.66204L43.774 5.37057C43.8773 4.65883 43.9633 3.82081 43.9691 3.50512C43.9748 3.18943 43.9576 2.8393 43.9002 2.52934L45.7245 2.20791C46.7284 2.02998 47.5831 1.88074 47.6233 1.875V1.875ZM41.3532 8.67099C41.227 8.76857 41.0262 8.9752 40.9057 9.13018C40.7852 9.29089 40.6017 9.58363 40.5099 9.79026C40.4124 9.9969 40.2689 10.4102 40.1944 10.7086C40.1198 11.0071 40.0395 11.5122 40.0223 11.8279C40.0051 12.1666 40.0165 12.5684 40.0567 12.8037C40.0911 13.0218 40.1944 13.3605 40.2861 13.5499C40.3722 13.7393 40.5271 13.9631 40.6246 14.055C40.7279 14.1411 40.9114 14.2329 41.0376 14.2673C41.2097 14.3133 41.3474 14.3018 41.5998 14.2386C41.7777 14.187 42.076 14.0607 42.2595 13.9517C42.5292 13.7852 42.5923 13.7163 42.6152 13.5671C42.6324 13.4638 42.7816 12.3675 42.9537 11.1391C43.1258 9.9108 43.2634 8.82597 43.2634 8.73413C43.2577 8.59063 43.2176 8.55619 42.9938 8.47009C42.8504 8.4127 42.6037 8.3553 42.4431 8.33234C42.2366 8.30938 42.0702 8.3266 41.8637 8.40122C41.7088 8.45288 41.4736 8.57341 41.3532 8.67099ZM15.5958 3.84377C15.8711 3.84951 15.9342 3.86673 15.917 3.93561C15.9055 3.98153 15.8539 4.2513 15.7966 4.53829C15.7392 4.81955 15.3147 7.74113 14.85 11.0243C14.3911 14.3075 14.001 17.0512 13.9895 17.1258C13.9608 17.2463 13.9264 17.2521 13.3183 17.2808C12.9627 17.2923 12.4062 17.321 11.4941 17.3669L8.2988 13.349C6.53766 11.1334 5.09203 9.33681 5.0863 9.34255C5.07482 9.35403 4.8511 10.921 4.58148 12.8324C4.15123 15.8458 4.08813 16.3911 4.12255 17.5907L3.80703 17.6194C3.63494 17.6366 2.92933 17.6653 0.996094 17.7113L1.02478 17.5792C1.04199 17.5104 1.42634 14.7782 1.89101 11.5122C2.6425 6.18563 2.72281 5.50833 2.68839 4.29148L4.12255 4.25704C5.36739 4.2226 5.56244 4.22834 5.61407 4.30296C5.64849 4.34888 7.05396 6.08231 8.74052 8.14866C10.4271 10.215 11.8153 11.9025 11.8211 11.8968C11.8268 11.891 12.0391 10.3987 12.2972 8.58489C12.5496 6.7711 12.7676 5.06636 12.7734 4.79659C12.7734 4.52681 12.7619 4.2226 12.6988 3.93561L13.0889 3.92987C13.3011 3.92413 13.8748 3.90117 14.3624 3.87821C14.85 3.85525 15.4065 3.84377 15.5958 3.84377ZM52.3961 6.25451C53.1763 6.26599 53.5492 6.30043 53.8016 6.36931C53.9909 6.42671 54.2835 6.53576 54.4556 6.62186C54.6219 6.70796 54.8744 6.89737 55.012 7.04661C55.1497 7.20159 55.3161 7.44266 55.3792 7.5919C55.448 7.74687 55.5283 8.03387 55.557 8.2405C55.5914 8.44714 55.6029 8.78005 55.58 8.98668C55.557 9.19332 55.4423 9.95098 55.3218 10.6799C55.2013 11.4089 55.0579 12.3502 55.0063 12.775C54.9375 13.3203 54.9145 13.768 54.9375 14.296C54.9547 14.7036 55.0063 15.1972 55.0579 15.3866C55.1096 15.576 55.144 15.7368 55.1382 15.7482C55.1268 15.754 54.3695 15.7942 53.4459 15.8343C52.5281 15.8688 51.7594 15.8917 51.7422 15.8745C51.7249 15.8573 51.6905 15.7253 51.6217 15.3005L51.3922 15.4555C51.266 15.5416 50.9562 15.7081 50.7038 15.8286C50.4514 15.9491 50.0499 16.0869 49.8147 16.1385C49.5049 16.2074 49.2295 16.2189 48.8394 16.1959C48.5411 16.1787 48.1683 16.1271 48.0076 16.0869C47.8527 16.0467 47.5946 15.9491 47.434 15.8745C47.2791 15.7999 47.0152 15.6047 46.8546 15.444C46.6595 15.2546 46.5218 15.048 46.4415 14.8241C46.3497 14.5945 46.3153 14.3649 46.3153 14.0492C46.3153 13.768 46.3555 13.4695 46.4243 13.2342C46.4874 13.0275 46.6423 12.7061 46.7628 12.5167C46.889 12.3273 47.1127 12.0518 47.2676 11.9083C47.4225 11.759 47.7036 11.5352 47.8929 11.4089C48.0822 11.2826 48.4666 11.0645 48.7534 10.921C49.0402 10.7833 49.9351 10.4102 52.224 9.53197L52.2585 9.24498C52.2871 9.02112 52.2699 8.90058 52.1724 8.68247C52.0806 8.47583 51.9946 8.384 51.811 8.29216C51.6045 8.18884 51.507 8.17736 51.1914 8.20606C50.9849 8.22902 50.612 8.28642 50.3596 8.33808C50.1072 8.384 49.6426 8.51601 49.327 8.62507C49.0115 8.73413 48.5124 8.94076 48.2256 9.07852C47.9331 9.21628 47.6806 9.31385 47.6692 9.28515C47.652 9.2622 47.6921 8.88336 47.7552 8.4414C47.8183 7.99943 47.8757 7.58616 47.8872 7.52302C47.9044 7.4484 48.0593 7.32786 48.3059 7.19585C48.5182 7.08105 48.8911 6.90885 49.1263 6.81702C49.3615 6.72518 49.7516 6.59316 49.9868 6.52428C50.222 6.46114 50.6235 6.36931 50.8759 6.32339C51.2087 6.26025 51.6332 6.24303 52.3961 6.25451ZM50.417 11.9197C50.2621 12.0632 50.0613 12.2928 49.9753 12.4363C49.8892 12.5741 49.7802 12.8553 49.7286 13.062C49.6655 13.2916 49.6426 13.5269 49.6655 13.6761C49.6885 13.8311 49.763 13.9918 49.8663 14.1066C50.0097 14.2674 50.0728 14.296 50.2851 14.2903C50.4227 14.2903 50.6235 14.2559 50.7325 14.21C50.8415 14.1698 51.0939 14.032 51.2947 13.9L51.6561 13.6647C51.6504 13.1309 51.6905 12.6372 51.7364 12.2297C51.7881 11.8164 51.834 11.4261 51.8454 11.3515C51.8512 11.2826 51.8339 11.2252 51.7995 11.231C51.7651 11.2367 51.507 11.3285 51.2201 11.4433C50.8645 11.5926 50.6178 11.7361 50.417 11.9197ZM33.8095 6.90311C34.1078 6.92033 34.4922 6.96625 34.6585 7.01217C34.8192 7.05809 35.0601 7.14419 35.1863 7.20733C35.3125 7.27046 35.5133 7.40822 35.6338 7.51728C35.7485 7.6206 35.9148 7.85019 35.9952 8.01665C36.0812 8.18884 36.1787 8.46435 36.2132 8.62507C36.2476 8.79153 36.2763 9.15314 36.2763 9.42865C36.2763 9.74434 36.1443 10.8464 35.9263 12.3445C35.6452 14.2673 35.5707 14.9274 35.5362 16.4772L33.712 16.5461C32.7081 16.5805 31.882 16.6035 31.8763 16.6035C31.8705 16.5977 32.0713 15.1455 32.318 13.3777C32.5704 11.6098 32.7769 10.0486 32.7769 9.90506C32.7769 9.76156 32.7482 9.54919 32.7196 9.43439C32.6851 9.31385 32.6048 9.1761 32.536 9.13018C32.4614 9.08426 32.3123 9.04408 32.2033 9.04408C32.0943 9.04408 31.8132 9.09574 31.5894 9.15888C31.36 9.22202 31.0674 9.32533 30.9412 9.38847C30.8035 9.45735 30.7003 9.55493 30.6831 9.63529C30.6716 9.70416 30.4823 10.9727 30.2758 12.4593C29.9717 14.6003 29.8914 15.312 29.8799 16.6666L29.3063 16.701C28.9908 16.7183 28.1704 16.7527 27.482 16.7757C26.5011 16.8101 26.2372 16.8044 26.2372 16.7527C26.2372 16.7125 26.4839 14.9274 26.7879 12.7922C27.2755 9.34829 27.3386 8.82597 27.3157 8.25772C27.3099 7.90185 27.3042 7.60912 27.3157 7.60912C27.3214 7.60912 28.1188 7.46562 29.094 7.29342C30.0635 7.12123 30.9011 6.97773 30.9584 6.97773C31.0445 6.97773 31.0502 7.01791 31.0215 7.25324C31.0043 7.40248 30.9756 7.56894 30.9642 7.62634C30.9469 7.70095 31.0502 7.66078 31.3887 7.46562C31.6296 7.32212 31.9853 7.15567 32.1746 7.09253C32.3639 7.02939 32.6851 6.95477 32.8917 6.92607C33.0982 6.89163 33.5112 6.88589 33.8095 6.90311ZM22.3937 7.21307C22.7723 7.21307 23.2255 7.24751 23.4549 7.29342C23.6787 7.33934 23.9999 7.43692 24.172 7.5058C24.3441 7.57468 24.6309 7.71243 24.803 7.81575C24.9751 7.91333 25.2562 8.1257 25.4283 8.27494C25.6004 8.42992 25.8242 8.68821 25.9217 8.84319C26.0249 9.0039 26.1913 9.36551 26.2946 9.64676C26.3978 9.92802 26.5183 10.3298 26.5642 10.5364C26.6215 10.7947 26.6387 11.0473 26.6101 11.3687C26.5871 11.6672 26.5355 11.8796 26.4724 11.9714C26.415 12.0518 26.3232 12.2584 26.2659 12.4306C26.2085 12.6028 26.0651 12.9529 25.9446 13.2055C25.8242 13.458 25.6291 13.8139 25.5086 13.9918C25.3882 14.1698 25.1472 14.4912 24.9751 14.6978C24.803 14.9102 24.4818 15.2374 24.2581 15.4268C24.0401 15.6162 23.6614 15.8975 23.4262 16.0524C23.191 16.2132 22.7379 16.4657 22.4223 16.6207C22.1068 16.7757 21.6536 16.9651 21.4184 17.0454C21.1832 17.1258 20.7415 17.2291 20.4432 17.2865C20.0359 17.3554 19.7147 17.3726 19.1812 17.3497C18.7394 17.3267 18.2977 17.2693 18.0338 17.2004C17.7986 17.1373 17.3971 16.9823 17.1447 16.856C16.8464 16.7068 16.5653 16.5116 16.3473 16.2935C16.158 16.1098 15.9228 15.8343 15.8195 15.6736C15.7162 15.5186 15.5671 15.2202 15.4868 15.0135C15.4122 14.8069 15.3147 14.4223 15.2803 14.1526C15.2401 13.8828 15.2229 13.4695 15.2401 13.2342C15.2573 12.9931 15.3491 12.5741 15.4466 12.2699C15.5441 11.9829 15.7392 11.518 15.8769 11.2424C16.0145 10.9612 16.2784 10.5307 16.4677 10.2781C16.657 10.0256 17.0299 9.61233 17.2938 9.35977C17.5577 9.10722 17.9994 8.75709 18.2633 8.57341C18.5329 8.39548 18.946 8.14866 19.1812 8.01665C19.4164 7.89037 19.881 7.69521 20.2137 7.58616C20.5465 7.4771 21.0226 7.34508 21.275 7.29916C21.5274 7.25325 22.0322 7.21307 22.3937 7.21307ZM23.9999 10.5307C23.7016 10.7316 23.2599 10.9899 23.0247 11.1104C22.7895 11.231 22.3994 11.3974 22.1642 11.4778C21.929 11.5639 21.3496 11.7361 20.8735 11.8566C20.4031 11.9771 19.8064 12.1551 19.554 12.2527C19.3016 12.3502 18.8771 12.5626 18.6075 12.7291C18.3379 12.8955 17.8904 13.2571 17.6036 13.5269C17.3225 13.8024 16.9726 14.1813 16.8291 14.3764C16.6857 14.5716 16.4333 14.9561 16.2612 15.2316L15.9514 15.731C16.9439 14.7725 17.4602 14.3477 17.833 14.1009C18.183 13.8713 18.7222 13.5499 19.0377 13.3892C19.3533 13.2342 19.8294 13.0218 20.099 12.9127C20.3686 12.8094 20.9079 12.6315 21.3037 12.5167C21.6995 12.4019 22.2158 12.2297 22.451 12.1379C22.6862 12.0518 23.0878 11.8451 23.3402 11.6902C23.5926 11.5352 23.9999 11.2195 24.2523 10.9899C24.499 10.7546 24.826 10.3987 24.9809 10.1921C25.1358 9.98542 25.348 9.64677 25.457 9.42865C25.566 9.21628 25.6521 9.04982 25.6463 9.05556C25.6406 9.05556 25.3882 9.30811 25.0899 9.61233C24.7743 9.93376 24.3154 10.3183 23.9999 10.5307ZM37.6244 17.9466C38.1751 17.9409 38.6627 17.9753 38.9725 18.027C39.2421 18.0786 39.4888 18.136 39.5289 18.159C39.5748 18.1877 39.5347 18.3943 39.374 18.9166C39.2536 19.3127 39.0872 19.858 38.8577 20.6386H38.6168C38.4103 20.6328 38.33 20.5984 38.1292 20.409C37.9915 20.2827 37.7907 20.1392 37.6817 20.0933C37.5727 20.0474 37.3318 20.0072 37.154 20.0072C36.9245 20.0072 36.7639 20.0416 36.6377 20.122C36.5344 20.1851 36.3967 20.3401 36.3336 20.4664C36.2705 20.5927 36.1787 20.8452 36.1328 21.0289C36.0869 21.2068 36.0124 21.6201 35.9607 21.9473C35.9148 22.2687 35.8747 22.5729 35.8747 22.6188C35.8747 22.6935 36.0009 22.6992 37.8251 22.6188V22.791C37.8251 22.8829 37.7965 23.1297 37.7678 23.3363C37.7391 23.543 37.6989 23.7898 37.6473 24.0538L37.8653 23.8472C37.9858 23.7381 38.1865 23.5659 38.3128 23.4683C38.439 23.3708 38.6971 23.1986 38.8864 23.0895C39.0757 22.9805 39.4371 22.8025 39.6895 22.7049C39.942 22.6016 40.3779 22.4639 40.6648 22.4007C41.0835 22.3031 41.3704 22.2859 42.185 22.2859C43.0053 22.2859 43.2692 22.3089 43.6191 22.4007C43.8543 22.4696 44.2157 22.6016 44.4222 22.7049C44.6288 22.814 44.9156 23.0149 45.059 23.1584C45.2024 23.3019 45.3975 23.5774 45.495 23.7668C45.5925 23.9562 45.713 24.2662 45.7646 24.4556C45.822 24.6622 45.8736 25.1386 45.9252 26.4645L46.0859 25.9767C46.1662 25.7069 46.3211 25.3223 46.4301 25.1157C46.5333 24.909 46.7226 24.5876 46.8603 24.3982C46.9922 24.2088 47.3307 23.8357 47.6118 23.5717C47.8929 23.3076 48.3289 22.9632 48.5813 22.8083C48.8337 22.659 49.2467 22.4524 49.4991 22.3548C49.7516 22.2572 50.1761 22.1252 50.4457 22.0563C50.853 21.953 51.0997 21.9358 51.9946 21.9358C52.9124 21.9415 53.1189 21.9588 53.5148 22.0678C53.7672 22.1367 54.1229 22.2745 54.3122 22.3778C54.4957 22.4811 54.7711 22.6992 54.926 22.8657C55.0809 23.0264 55.2759 23.3134 55.362 23.497C55.4423 23.675 55.5513 23.9562 55.5914 24.1112C55.6373 24.2719 55.6832 24.6852 55.7062 25.0296C55.7234 25.3797 55.7234 25.9078 55.7004 26.2062C55.6775 26.5047 55.6431 26.7802 55.6201 26.8204C55.5914 26.8663 54.8342 26.9123 53.0558 26.9754C51.6676 27.027 50.222 27.0844 49.1549 27.1361L49.2008 27.5322C49.2238 27.7503 49.2984 28.0774 49.3672 28.2611C49.4475 28.462 49.6081 28.7088 49.7917 28.904C49.981 29.1106 50.2105 29.2771 50.4514 29.3919C50.7956 29.5526 50.8587 29.5641 51.4783 29.5583C51.9602 29.5526 52.3101 29.5124 52.769 29.4034C53.1189 29.3287 53.6697 29.1565 54.0024 29.0303C54.3351 28.904 54.6277 28.8179 54.6506 28.8408C54.6736 28.8581 54.6449 29.2484 54.576 29.7076C54.4671 30.4767 54.4498 30.5513 54.3007 30.6661C54.2146 30.735 53.9278 30.9072 53.6582 31.0507C53.3886 31.1884 52.9411 31.3836 52.6543 31.4869C52.3675 31.5845 51.8798 31.7165 51.5643 31.7854C51.1111 31.883 50.7899 31.9059 50.0154 31.9059C49.2123 31.9059 48.9656 31.8887 48.61 31.7911C48.3748 31.728 47.9847 31.5788 47.7495 31.4582C47.434 31.2975 47.1988 31.1196 46.8546 30.7752C46.5161 30.4308 46.3383 30.1954 46.1834 29.8798C46.0687 29.6444 45.9252 29.2828 45.8736 29.0762C45.8048 28.8236 45.7761 28.4735 45.7703 27.9741C45.7703 27.5666 45.7589 27.2394 45.7417 27.2394C45.7245 27.2394 44.3706 27.2911 42.7299 27.3542C41.0893 27.4174 39.6551 27.469 39.3453 27.469L39.3855 27.911C39.4142 28.2496 39.4773 28.4563 39.6207 28.7605C39.7412 29.0073 39.919 29.2484 40.0682 29.3861C40.2058 29.5067 40.464 29.6731 40.6361 29.7592C40.9229 29.897 41.009 29.9085 41.64 29.9027C42.076 29.9027 42.5062 29.8625 42.816 29.7994C43.0856 29.742 43.5331 29.6157 43.8199 29.5181C44.1067 29.4263 44.4452 29.3 44.5829 29.2426C44.7148 29.1795 44.8353 29.1508 44.8468 29.1795C44.8582 29.2025 44.8181 29.5928 44.7607 30.052C44.6517 30.8154 44.6345 30.8957 44.4911 31.0163C44.405 31.0851 44.0494 31.286 43.7052 31.4582C43.361 31.6304 42.8676 31.8371 42.6152 31.9174C42.3628 31.9978 41.9498 32.1068 41.6974 32.1527C41.4449 32.2044 40.8885 32.2561 40.464 32.2733C39.8846 32.2962 39.5519 32.279 39.1446 32.2101C38.8463 32.1527 38.4332 32.0437 38.2267 31.9576C38.0202 31.8715 37.6817 31.6763 37.4695 31.5271C37.2515 31.3779 36.9532 31.0966 36.7926 30.9015C36.6377 30.7006 36.4311 30.3849 36.3394 30.1954C36.2418 30.006 36.1271 29.6961 36.0755 29.5067C36.0238 29.3173 35.9665 28.881 35.9493 28.5309C35.9321 28.0889 35.9493 27.7273 36.0181 27.3255C36.0697 27.0098 36.173 26.5621 36.2533 26.3383C36.3279 26.1087 36.4828 25.7298 36.5975 25.506C36.7122 25.2764 36.8958 24.9664 37.1941 24.5417L36.4082 24.5761C35.9722 24.5991 35.6108 24.6163 35.5993 24.622C35.5936 24.622 35.3871 25.9824 35.1519 27.6412C34.7847 30.1667 34.7102 30.7867 34.6987 32.2675L32.863 32.3364C31.8533 32.3709 31.0215 32.3938 31.01 32.3881C31.0043 32.3823 31.2395 30.6604 31.5378 28.5596C31.8304 26.4588 32.0713 24.7368 32.0656 24.7311C32.0656 24.7311 31.4804 24.7483 30.7691 24.777C30.0578 24.8057 29.4669 24.8459 29.4497 24.8631C29.4325 24.8803 29.2317 26.2292 28.9965 27.8593C28.6408 30.3504 28.572 30.9589 28.5662 31.6476C28.5605 32.4168 28.5548 32.4684 28.4458 32.4914C28.3827 32.5029 27.5566 32.5373 26.6101 32.566C25.6635 32.6005 24.8833 32.6177 24.8719 32.6119C24.8604 32.6119 25.0956 30.8842 25.9217 24.9435L24.3326 25.0296L24.3671 24.8861C24.3843 24.8057 24.4416 24.4441 24.4875 24.0825C24.5391 23.7209 24.5908 23.3593 24.608 23.2789C24.6309 23.1354 24.6424 23.1354 25.3939 23.0895C25.8069 23.0665 26.1569 23.0436 26.1683 23.0321C26.1741 23.0264 26.2314 22.7738 26.2888 22.4753C26.3462 22.1769 26.4781 21.7234 26.5756 21.4709C26.6732 21.2183 26.8625 20.8452 26.9944 20.6386C27.1321 20.432 27.396 20.1163 27.5853 19.9268C27.7746 19.7432 28.136 19.4677 28.3884 19.3127C28.6408 19.1577 29.0596 18.9511 29.3235 18.8592C29.5816 18.7617 30.0348 18.6469 30.3274 18.5952C30.7175 18.5263 31.0674 18.5091 31.6583 18.5321C32.2147 18.5493 32.5647 18.5952 32.7941 18.6641C32.9777 18.7272 33.1211 18.8018 33.1211 18.8305C33.1211 18.865 32.9318 19.3586 32.2893 20.983H32.0598C31.9107 20.9887 31.8017 20.9543 31.7443 20.8911C31.6984 20.8337 31.555 20.7476 31.4288 20.6902C31.3026 20.6328 31.0846 20.5812 30.9412 20.5812C30.7978 20.5812 30.597 20.6271 30.4823 20.6902C30.3446 20.7591 30.2299 20.8911 30.1266 21.1035C30.0348 21.2757 29.9316 21.5914 29.8857 21.8153C29.8398 22.0391 29.7824 22.3778 29.7078 22.9403L30.7117 22.9058C31.2625 22.8886 31.8533 22.8599 32.0197 22.8484C32.1861 22.8312 32.3295 22.791 32.3409 22.7509C32.3524 22.7107 32.404 22.4294 32.4557 22.131C32.513 21.8325 32.6392 21.3676 32.7368 21.0978C32.84 20.828 33.0121 20.4607 33.1211 20.2712C33.2301 20.0876 33.4653 19.7834 33.6374 19.5939C33.8095 19.3988 34.0963 19.1347 34.2684 19.0027C34.4405 18.865 34.7503 18.6698 34.9568 18.555C35.1634 18.446 35.4846 18.2967 35.6739 18.2336C35.8632 18.1647 36.1845 18.0729 36.391 18.0327C36.609 17.981 37.1253 17.9466 37.6244 17.9466ZM50.5604 24.0021C50.417 24.0997 50.2105 24.3064 50.09 24.4613C49.9753 24.6163 49.8032 24.909 49.7057 25.1157C49.6081 25.3223 49.5393 25.4888 49.545 25.4945C49.5508 25.4945 50.2048 25.4715 50.9907 25.4429C51.9544 25.4084 52.442 25.3682 52.4707 25.3281C52.4937 25.2879 52.4994 25.1157 52.4822 24.9435C52.465 24.7713 52.4191 24.536 52.3847 24.4269C52.3502 24.3178 52.2585 24.1399 52.1724 24.0308C52.0921 23.9218 51.9372 23.7955 51.8397 23.7553C51.7364 23.7152 51.5643 23.6807 51.4668 23.6865C51.3635 23.6865 51.1742 23.7209 51.048 23.7611C50.9218 23.8013 50.7038 23.9103 50.5604 24.0021ZM40.7221 24.381C40.5672 24.4958 40.355 24.7024 40.2517 24.8344C40.1542 24.9722 39.9936 25.2534 39.8961 25.4601C39.7985 25.6667 39.7297 25.8389 39.7354 25.8446C39.7412 25.8504 40.3034 25.8274 40.9803 25.8045C41.6572 25.7758 42.3112 25.7528 42.4316 25.7471H42.6439C42.6152 24.9607 42.5808 24.7885 42.4718 24.5761C42.3857 24.4039 42.2481 24.249 42.1276 24.1801C42.0186 24.1169 41.8236 24.0538 41.6974 24.0423C41.5711 24.0366 41.3646 24.0595 41.2384 24.0997C41.1122 24.1399 40.8828 24.2662 40.7221 24.381ZM20.5293 23.0149C20.9652 23.0321 21.4184 23.078 21.6192 23.1297C21.8085 23.1813 22.1986 23.3363 22.4797 23.4741C22.778 23.6233 23.1394 23.8587 23.3345 24.0366C23.5238 24.203 23.759 24.4728 23.868 24.6278C23.9712 24.7885 24.1548 25.2018 24.2638 25.5462C24.4646 26.1603 24.4703 26.1948 24.4416 26.895C24.4244 27.4748 24.39 27.7101 24.2581 28.1004C24.172 28.3702 23.9712 28.8466 23.8106 29.1623C23.65 29.478 23.3689 29.9314 23.191 30.1667C23.0132 30.4021 22.6518 30.7981 22.3879 31.0507C22.124 31.2975 21.6995 31.6362 21.4471 31.8083C21.1947 31.9748 20.6669 32.2675 20.2711 32.457C19.8753 32.6464 19.3074 32.8702 19.0091 32.9506C18.5788 33.0711 18.2862 33.1113 17.6323 33.1343C16.9324 33.1572 16.7087 33.1457 16.2268 33.0424C15.8367 32.9621 15.4868 32.8473 15.1368 32.6693C14.7582 32.4799 14.523 32.3135 14.2591 32.0494C14.0641 31.8485 13.9035 31.6534 13.9035 31.6189C13.9035 31.5788 13.8805 31.5443 13.8461 31.5443C13.8174 31.5443 13.7142 31.3951 13.6224 31.2171C13.5306 31.0335 13.4159 30.758 13.3642 30.5972C13.3069 30.4423 13.238 30.1151 13.2093 29.8798C13.1749 29.5985 13.1749 29.2828 13.2093 28.9614C13.2438 28.6916 13.3355 28.2669 13.4159 28.0143C13.5019 27.7618 13.6511 27.3772 13.7601 27.1533C13.8633 26.9295 14.087 26.5449 14.2591 26.2923C14.4255 26.0398 14.7697 25.6265 15.0221 25.3682C15.2745 25.1099 15.699 24.7426 15.9687 24.5417C16.2383 24.3465 16.6226 24.094 16.8291 23.9792C17.0357 23.8644 17.42 23.675 17.6896 23.5602C17.9593 23.4454 18.3436 23.3019 18.5501 23.2502C18.7566 23.1928 19.118 23.1182 19.3533 23.0723C19.6229 23.0264 20.0646 23.0034 20.5293 23.0149ZM22.3076 26.0628C22.0896 26.2349 21.6881 26.5047 21.4184 26.6654C21.1488 26.8262 20.6727 27.0557 20.3572 27.182C20.0416 27.3026 19.3705 27.5092 18.8656 27.6412C18.3608 27.7675 17.8044 27.9282 17.6323 27.9913C17.4602 28.0545 17.1217 28.2095 16.8865 28.3357C16.6513 28.462 16.267 28.7146 16.0318 28.8925C15.7966 29.0704 15.4466 29.3919 15.2573 29.5985C15.0623 29.8051 14.7525 30.2069 14.5574 30.4882C14.3681 30.7694 14.1501 31.1023 14.0756 31.2286C13.9551 31.4295 14.001 31.3951 14.437 30.9876C14.7123 30.7235 15.1483 30.3504 15.4122 30.161C15.6703 29.9659 16.1293 29.6616 16.4276 29.4894C16.7259 29.3115 17.2594 29.0475 17.6036 28.8982C17.9535 28.749 18.5042 28.5481 18.837 28.4448C19.1697 28.3472 19.6745 28.1865 19.9556 28.0889C20.2424 27.9913 20.6669 27.8191 20.9021 27.6986C21.1373 27.5781 21.4873 27.3657 21.6766 27.2222C21.8659 27.0844 22.1699 26.8147 22.3592 26.631C22.5428 26.4416 22.8067 26.1489 22.9386 25.9767C23.0706 25.8045 23.2771 25.4888 23.3918 25.2764C23.5008 25.0583 23.5869 24.8861 23.5811 24.8861C23.5754 24.8861 23.3746 25.0812 23.1394 25.3223C22.9042 25.5576 22.5313 25.8906 22.3076 26.0628ZM37.6072 37.5712H38.1177C38.4217 37.5712 38.6283 37.5941 38.6283 37.6286C38.6283 37.6573 38.5881 37.8639 38.4562 38.4895H37.9399C37.4752 38.4895 37.4236 38.4781 37.4465 38.392C37.4637 38.3346 37.5039 38.1279 37.544 37.9328L37.6072 37.5712ZM12.5439 37.6286H13.0774C13.3986 37.6286 13.6109 37.6515 13.6109 37.686C13.6109 37.7147 13.3929 38.7823 13.1233 40.0508C12.8537 41.3193 12.6242 42.4041 12.607 42.4615C12.584 42.5476 12.5095 42.5648 12.062 42.5648C11.6891 42.5648 11.5457 42.5419 11.5457 42.4902C11.5457 42.45 11.7695 41.3423 12.0448 40.0221L12.5439 37.6286ZM16.6054 37.6286H17.0873C17.443 37.6286 17.5634 37.6458 17.5462 37.7032C17.5347 37.7376 17.4028 38.2026 16.9668 39.6949H16.6341C16.3243 39.6949 16.3071 39.6892 16.3358 39.5686C16.3473 39.494 16.4046 39.1152 16.4505 38.7191C16.5022 38.3231 16.5538 37.9156 16.571 37.818L16.6054 37.6286ZM25.6004 37.6286L25.6119 38.3001C25.6119 38.6732 25.6348 39.494 25.6865 41.2906L26.4896 39.4768C26.9313 38.4838 27.3214 37.6573 27.3501 37.6458C27.3845 37.6343 27.7344 37.6286 28.8473 37.6573L27.809 42.5361L27.3099 42.5476C26.9371 42.5591 26.8051 42.5419 26.8051 42.4902C26.8108 42.45 26.9715 41.6465 27.178 40.6994C27.3788 39.7523 27.5394 38.966 27.5337 38.9602C27.5279 38.9545 27.1608 39.7638 25.9159 42.5648H24.8547L24.8432 38.7478L24.0229 42.5648H23.5238C23.2484 42.5648 23.0189 42.5419 23.0189 42.5189C23.0189 42.496 23.2427 41.4456 23.5066 40.1828C23.7762 38.92 24.0056 37.8237 24.0229 37.7548C24.0515 37.6286 24.0745 37.6286 25.6004 37.6286ZM48.0593 37.6286L47.9044 38.3862C47.8183 38.8052 47.5889 39.913 47.0267 42.5648H46.5276C46.2522 42.5648 46.0228 42.5476 46.017 42.5304C46.017 42.5132 46.235 41.4628 46.5046 40.1943C46.7743 38.92 47.0095 37.8237 47.0267 37.7548C47.0554 37.6343 47.084 37.6286 48.0593 37.6286ZM15.0164 37.9156C15.372 37.9156 15.504 37.9328 15.504 37.9844C15.504 38.0246 15.4638 38.214 15.4179 38.4034C15.372 38.5871 15.3319 38.7765 15.3319 38.8167C15.3319 38.8626 15.4179 38.8856 15.5786 38.8856C15.7105 38.8856 15.8367 38.9028 15.8597 38.9315C15.8826 38.9545 15.8769 39.052 15.8539 39.1496C15.8252 39.2415 15.7851 39.3907 15.7679 39.4768C15.7392 39.626 15.7162 39.6375 15.4466 39.6375C15.2229 39.6375 15.1541 39.6547 15.1311 39.7351C15.1196 39.7925 15.0164 40.2632 14.9074 40.7855C14.7984 41.3021 14.7238 41.7498 14.7353 41.7727C14.7468 41.7957 14.873 41.8187 15.0164 41.8187C15.1598 41.8187 15.2745 41.8359 15.2745 41.8588C15.2745 41.8818 15.2516 41.9909 15.2229 42.1057C15.1942 42.2147 15.1541 42.3754 15.1024 42.6222L14.5632 42.605C14.1157 42.5935 13.9953 42.5706 13.8633 42.473C13.7371 42.3812 13.6912 42.2951 13.6797 42.1286C13.674 42.0023 13.7658 41.4111 13.8977 40.8142C14.0239 40.2115 14.1272 39.7006 14.1272 39.6777C14.1272 39.6547 14.0239 39.6375 13.8977 39.6375C13.7715 39.6375 13.6683 39.6146 13.6683 39.5916C13.6683 39.5686 13.7027 39.4022 13.8117 38.8856H14.0584C14.2419 38.8856 14.305 38.8626 14.3222 38.788C14.3395 38.7306 14.3796 38.5469 14.414 38.3747C14.4542 38.1968 14.4943 38.0246 14.5058 37.9844C14.523 37.9328 14.6779 37.9156 15.0164 37.9156ZM19.4909 38.7765C19.6802 38.7765 19.9728 38.811 20.1392 38.8569C20.3055 38.9086 20.5178 39.0119 20.6096 39.0922C20.7358 39.1898 20.7989 39.3161 20.8505 39.5342C20.8849 39.7006 20.8964 39.8786 20.8792 39.936C20.8448 40.0221 20.7645 40.0393 20.3514 40.0393C19.904 40.0393 19.8638 40.0278 19.8638 39.9245C19.8638 39.8614 19.8122 39.7581 19.7491 39.6949C19.663 39.6031 19.5598 39.5801 19.3188 39.5801C19.0549 39.5801 18.9746 39.6031 18.8599 39.7236C18.7796 39.7982 18.7165 39.8843 18.7165 39.9073C18.7165 39.9302 18.7452 39.9819 18.7853 40.0163C18.8255 40.0565 19.118 40.1541 19.4336 40.2402C19.7491 40.3263 20.099 40.4411 20.208 40.4985C20.317 40.5502 20.4604 40.6535 20.5235 40.7281C20.5981 40.8084 20.6497 40.9634 20.6612 41.1471C20.6841 41.3767 20.6555 41.5144 20.5407 41.7613C20.4547 41.9335 20.2941 42.1516 20.1736 42.2549C20.0531 42.3582 19.8351 42.4845 19.6917 42.5361C19.5483 42.5878 19.2156 42.6452 18.946 42.6624C18.6649 42.6796 18.3264 42.6624 18.1428 42.6222C17.9707 42.5878 17.7413 42.4845 17.6323 42.3984C17.5233 42.318 17.4028 42.163 17.3569 42.0597C17.3168 41.9564 17.2823 41.7555 17.2823 41.3595H17.7986C18.2977 41.3595 18.3149 41.3595 18.3149 41.4857C18.3149 41.5546 18.3379 41.6407 18.3608 41.6809C18.3838 41.7153 18.4583 41.7727 18.5329 41.8072C18.6018 41.8416 18.7911 41.8761 18.946 41.8761C19.1066 41.8761 19.2959 41.8474 19.3762 41.8187C19.4565 41.7842 19.5483 41.6981 19.5885 41.6292C19.6401 41.5202 19.6343 41.4857 19.5426 41.4111C19.4852 41.3652 19.1812 41.2562 18.8771 41.1701C18.5673 41.084 18.2117 40.9634 18.0855 40.9003C17.9593 40.8371 17.8158 40.7223 17.7699 40.6535C17.7241 40.5846 17.6839 40.4239 17.6839 40.2976C17.6839 40.1656 17.7183 39.9647 17.7585 39.8441C17.7986 39.7179 17.9076 39.5227 18.0051 39.4137C18.1027 39.2989 18.2805 39.1381 18.4067 39.0635C18.5329 38.9832 18.7452 38.8913 18.8886 38.8512C19.032 38.811 19.3016 38.7823 19.4909 38.7765ZM30.9928 38.8052C31.1994 38.8167 31.4804 38.8684 31.6239 38.9143C31.7673 38.9602 31.9451 39.0693 32.0254 39.1496C32.1459 39.2759 32.1688 39.3563 32.1688 39.6547C32.1688 39.8499 32.0656 40.4813 31.9394 41.0782C31.7386 42.0196 31.7214 42.1631 31.7902 42.2836C31.8304 42.3582 31.8533 42.45 31.8304 42.4902C31.8074 42.5419 31.6296 42.5648 30.706 42.5648V42.2205L30.4938 42.3582C30.3733 42.4386 30.1496 42.5419 29.9889 42.5935C29.834 42.6395 29.5988 42.6796 29.4726 42.6739C29.3464 42.6739 29.1342 42.6222 29.0022 42.5591C28.8646 42.496 28.7211 42.3869 28.6695 42.318C28.6236 42.2491 28.572 42.0999 28.549 41.9909C28.5261 41.8703 28.549 41.6522 28.6064 41.457C28.6695 41.2447 28.7728 41.0438 28.9162 40.8888C29.0309 40.7568 29.2317 40.6018 29.3579 40.5502C29.4841 40.4928 29.7537 40.4181 29.9602 40.3837C30.1668 40.3493 30.4765 40.2919 30.6486 40.2632C30.8207 40.2287 31.01 40.1598 31.0674 40.1082C31.1248 40.0508 31.1707 39.9475 31.1707 39.8786C31.1649 39.8097 31.1133 39.7236 31.0502 39.6949C30.9871 39.6605 30.815 39.6318 30.6658 39.6318C30.4765 39.6318 30.3446 39.6662 30.2356 39.7466C30.1496 39.8097 30.0635 39.9188 30.0463 39.9819C30.0233 40.0852 29.9717 40.0967 28.985 40.0967L29.0539 39.9073C29.094 39.804 29.203 39.6031 29.3005 39.4653C29.3981 39.3161 29.5874 39.1439 29.7308 39.0635C29.8742 38.9832 30.1323 38.8856 30.3044 38.8512C30.4765 38.811 30.7863 38.788 30.9928 38.8052ZM30.4192 40.9806C30.184 41.0323 29.9316 41.1127 29.8627 41.1586C29.7881 41.2045 29.6906 41.3308 29.6447 41.4456C29.5816 41.5891 29.5759 41.6752 29.616 41.7613C29.6505 41.8244 29.748 41.8875 29.834 41.9105C29.9201 41.9277 30.0865 41.9162 30.2069 41.8818C30.3217 41.8474 30.4995 41.744 30.597 41.6579C30.6945 41.5718 30.8093 41.3997 30.8609 41.2734C30.9068 41.1414 30.9355 40.9921 30.924 40.9347C30.9125 40.8773 30.8896 40.8429 30.8781 40.8601C30.8609 40.8773 30.6544 40.9347 30.4192 40.9806ZM40.7164 38.7823C40.7795 38.7765 40.986 38.7995 41.1753 38.8339C41.3646 38.8684 41.617 38.9602 41.7375 39.0348C41.8522 39.1152 41.9899 39.2644 42.0358 39.3792C42.0817 39.4883 42.1219 39.7351 42.1219 40.2689H41.6056C41.095 40.2689 41.0893 40.2632 41.0893 40.1254C41.0893 40.045 41.0721 39.936 41.0491 39.8843C41.0262 39.8327 40.9344 39.7581 40.8483 39.7121C40.7451 39.6605 40.6131 39.649 40.4755 39.6777C40.355 39.7006 40.1829 39.7925 40.0796 39.8901C39.9821 39.9876 39.8502 40.2115 39.7813 40.3952C39.7125 40.5788 39.6379 40.8601 39.6207 41.0266C39.592 41.2332 39.6035 41.3882 39.6609 41.5202C39.7067 41.6292 39.7871 41.7383 39.8444 41.767C39.8961 41.7957 40.0452 41.8187 40.1714 41.8187C40.332 41.8187 40.4525 41.7727 40.5615 41.6809C40.6476 41.6063 40.7565 41.4628 40.8885 41.1815H41.3933C41.6859 41.1815 41.8924 41.2102 41.8924 41.2447C41.8924 41.2734 41.8293 41.4226 41.7547 41.5718C41.6801 41.7211 41.4794 41.9736 41.313 42.1344C41.1409 42.3008 40.877 42.473 40.7164 42.5361C40.5041 42.6165 40.2861 42.6509 39.8846 42.6509C39.4142 42.6509 39.3109 42.628 39.1101 42.5132C38.9839 42.4386 38.8405 42.3238 38.7946 42.2549C38.7487 42.1917 38.6799 42.0597 38.6397 41.9622C38.6053 41.8646 38.5709 41.5833 38.5709 41.3308C38.5652 41.0553 38.6053 40.7396 38.657 40.5559C38.7086 40.378 38.8118 40.1139 38.8864 39.9647C38.961 39.8154 39.1273 39.5801 39.2478 39.4481C39.3683 39.3161 39.6092 39.1267 39.7756 39.0348C39.9477 38.943 40.2001 38.8512 40.3435 38.8282C40.4869 38.8052 40.6533 38.7823 40.7164 38.7823ZM44.6173 38.8052C44.8066 38.8225 45.0647 38.8626 45.191 38.8971C45.3172 38.9315 45.5065 39.0463 45.6097 39.1554C45.7646 39.3161 45.7933 39.3907 45.7933 39.6088C45.7933 39.7466 45.69 40.3493 45.5638 40.9405C45.4376 41.5317 45.3344 42.077 45.3344 42.1458C45.3344 42.2147 45.3631 42.2893 45.3917 42.3065C45.4262 42.318 45.4491 42.3869 45.4491 42.45C45.4491 42.5534 45.4147 42.5591 44.3305 42.5361L44.3018 42.2205L44.0322 42.3926C43.883 42.4845 43.665 42.5878 43.556 42.6222C43.447 42.6509 43.2462 42.6739 43.1143 42.6739C42.9766 42.6739 42.7701 42.6337 42.6554 42.5878C42.5349 42.5361 42.3915 42.4558 42.3341 42.3984C42.2768 42.3467 42.2079 42.2032 42.1735 42.077C42.1333 41.9162 42.1333 41.7498 42.1735 41.5604C42.2079 41.3997 42.294 41.1815 42.3685 41.0725C42.4374 40.9634 42.598 40.7912 42.7242 40.6936C42.8848 40.5674 43.0856 40.487 43.3839 40.4239C43.6191 40.3722 43.9805 40.3033 44.187 40.2689C44.3936 40.2345 44.6058 40.1598 44.6632 40.1082C44.7206 40.0508 44.7664 39.9475 44.7664 39.8786C44.7607 39.8097 44.7091 39.7236 44.646 39.6949C44.5829 39.6605 44.4108 39.6318 44.2616 39.6318C44.0723 39.6318 43.9404 39.6662 43.8314 39.7466C43.7453 39.8097 43.6593 39.9188 43.6421 39.9819C43.6191 40.0852 43.5675 40.0967 43.1258 40.0967C42.7013 40.0967 42.6382 40.0795 42.6382 39.9934C42.6382 39.936 42.7185 39.758 42.8103 39.5916C42.9078 39.4251 43.0569 39.2415 43.143 39.1841C43.229 39.1267 43.3839 39.0348 43.4872 38.9832C43.5904 38.9315 43.8084 38.8626 43.9748 38.8339C44.1412 38.8052 44.428 38.7938 44.6173 38.8052ZM43.8715 41.0151C43.6249 41.0667 43.4814 41.1299 43.3724 41.2504C43.2577 41.3652 43.2118 41.4743 43.2118 41.6178C43.2118 41.767 43.2462 41.8301 43.3438 41.8818C43.4126 41.9162 43.5618 41.9277 43.6707 41.9105C43.7797 41.8875 43.9576 41.8187 44.0608 41.7555C44.1641 41.6924 44.2846 41.5833 44.3305 41.5144C44.3764 41.4456 44.4509 41.2619 44.4968 41.1127C44.537 40.9634 44.5714 40.8429 44.5657 40.8429C44.5657 40.8486 44.4853 40.8716 44.3878 40.9003C44.296 40.9232 44.0608 40.9749 43.8715 41.0151ZM37.3261 38.8913H37.8309C38.1292 38.8913 38.3357 38.9143 38.3357 38.9487C38.3357 38.9774 38.1693 39.7925 37.9628 40.7568C37.7563 41.7153 37.5899 42.5189 37.5899 42.5361C37.5899 42.5476 37.3605 42.5648 37.0736 42.5648C36.6147 42.5648 36.5631 42.5534 36.5803 42.4615C36.5918 42.4041 36.7639 41.5776 36.9589 40.6248L37.3261 38.8913Z" fill="white"/>
<path d="M78.3753 23.2848C78.4843 23.2044 78.708 23.0896 78.8629 23.0322C79.0694 22.9634 79.253 22.9404 79.471 22.9576C79.6431 22.9748 79.9127 23.0495 80.0733 23.1298C80.2282 23.2044 80.4577 23.3824 80.5781 23.5144C80.6986 23.6522 80.8363 23.899 80.8879 24.0539C80.951 24.2491 80.9682 24.4615 80.951 24.714C80.9338 24.9207 80.8822 25.1732 80.8306 25.2765C80.7732 25.3741 80.647 25.552 80.5437 25.6668C80.4462 25.7816 80.2282 25.9424 80.0733 26.0285C79.8381 26.149 79.7062 26.1719 79.3563 26.1719C79.0063 26.1719 78.8744 26.149 78.6392 26.0285C78.4785 25.9424 78.2663 25.7759 78.1573 25.6554C78.0483 25.5291 77.9106 25.3282 77.8533 25.2019C77.7959 25.0642 77.75 24.8346 77.75 24.6279C77.75 24.4385 77.7902 24.1687 77.8418 24.0252C77.8877 23.8817 77.9852 23.6923 78.054 23.6005C78.1229 23.5087 78.272 23.3652 78.3753 23.2848Z" fill="#425526"/>
<path fill-rule="evenodd" clip-rule="evenodd" d="M75.8582 4.19966C75.9041 4.21114 77.0686 4.65885 78.4396 5.1984C79.8107 5.73794 80.9408 6.17991 80.9465 6.19139C80.9523 6.19713 80.9867 6.38655 81.0211 6.60466C81.0498 6.82851 81.0957 7.07533 81.1072 7.16717C81.1244 7.25326 81.1703 7.32214 81.2219 7.32214C81.2678 7.32214 81.3481 7.259 81.394 7.17865C81.4399 7.09829 81.5145 7.03515 81.5489 7.03515C81.589 7.03515 81.83 7.13847 82.0824 7.259C82.3348 7.37954 82.679 7.54026 82.8454 7.61488C83.0519 7.71245 83.1379 7.78133 83.1207 7.83873C83.1035 7.88465 83.0117 8.3668 82.9142 8.9006C82.8167 9.43441 82.7134 10.0199 82.679 10.1921C82.6446 10.3643 82.6044 10.5594 82.5872 10.6226C82.5643 10.7144 82.6675 10.812 83.1265 11.1334C83.4362 11.3573 83.8206 11.6787 84.2795 12.1723L83.9009 12.6315C83.6944 12.8841 83.1494 13.5154 82.6905 14.0378C82.2315 14.5601 81.1416 15.7827 80.2696 16.7642C79.3977 17.7457 78.4683 18.7502 78.2044 18.997C77.9406 19.2438 77.3898 19.703 76.9768 20.0072C76.5638 20.3172 75.7434 20.8912 75.1411 21.2872C74.5387 21.6833 73.9135 22.0621 73.7471 22.1252C73.5865 22.1941 73.3972 22.2458 73.3341 22.2458C73.271 22.2458 73.1505 22.1941 73.0587 22.131C72.9612 22.0564 72.8178 22.0104 72.6743 22.0162C72.5481 22.0162 71.9171 21.9817 70.1043 21.8727L69.5823 21.1896C69.2955 20.8165 68.9283 20.3344 68.7735 20.122C68.6128 19.9096 68.3317 19.5308 68.1482 19.2783C67.9589 19.0314 66.9377 17.6826 65.8765 16.2763C64.8152 14.8701 63.9318 13.6876 63.9088 13.6475C63.8801 13.6015 64.8783 12.8209 66.8918 11.2999C68.5612 10.0486 70.3453 8.67101 70.8558 8.24626C71.3721 7.81577 72.072 7.24178 72.4047 6.96627C72.7432 6.6965 73.6381 5.95606 74.3953 5.32467C75.1812 4.67033 75.8065 4.18244 75.8582 4.19966ZM84.8532 12.3732C84.9679 12.3732 85.1515 12.4249 85.249 12.488C85.3523 12.5512 85.4785 12.7004 85.5301 12.8152C85.6047 12.9816 85.6161 13.1424 85.5932 13.4925C85.576 13.7795 85.5129 14.0722 85.4268 14.2846C85.358 14.4625 85.2777 14.5945 85.2605 14.5716C85.2433 14.5429 85.14 14.1927 85.0367 13.7795C84.9335 13.3662 84.8015 12.9013 84.7442 12.7463C84.6811 12.5856 84.6352 12.4421 84.6352 12.4134C84.6352 12.3904 84.7327 12.3732 84.8474 12.3732H84.8532ZM84.2336 12.8324C84.2508 12.8267 84.3025 12.9013 84.3369 12.9874C84.377 13.0735 84.5147 13.5901 84.8761 15.0996L84.7155 15.2546C84.6294 15.3407 84.5491 15.4096 84.5434 15.3981C84.5319 15.3924 84.3885 14.893 83.9124 13.2055L84.0558 13.0218C84.1304 12.9185 84.2107 12.8324 84.2336 12.8324ZM83.528 13.6532C83.5395 13.6589 83.6657 14.0894 83.8091 14.6118C83.9525 15.1341 84.0902 15.6105 84.1189 15.6736C84.1533 15.7597 84.1361 15.8343 83.9009 16.1328L83.8665 15.9606C83.8493 15.8688 83.7804 15.5933 83.7173 15.3579C83.6542 15.1226 83.5108 14.7093 83.1953 13.9517L83.3559 13.7967C83.442 13.7106 83.5223 13.6417 83.528 13.6532ZM82.8683 14.4683C82.897 14.4855 82.9945 14.6979 83.0863 14.9447C83.1781 15.1857 83.3043 15.6449 83.4879 16.5346L83.3617 16.6609C83.2928 16.7298 83.224 16.7814 83.2068 16.7699C83.1896 16.7585 83.1437 16.5977 83.0978 16.4141C83.0576 16.2247 82.9658 15.9319 82.897 15.7597C82.8281 15.5875 82.6847 15.3178 82.3922 14.8701L82.6044 14.6577C82.7249 14.5429 82.8396 14.4568 82.8683 14.4683ZM85.6047 15.18C85.6563 15.2087 85.7423 15.2776 85.794 15.335C85.8456 15.3981 85.9489 15.5588 86.0177 15.7023C86.098 15.8573 86.1611 16.1099 86.1783 16.3337C86.2013 16.6322 86.1841 16.724 86.1095 16.7929C86.0177 16.8733 86.012 16.8618 86.0177 16.6494C86.0177 16.5231 85.9775 16.2763 85.9259 16.1041C85.88 15.9319 85.7596 15.6507 85.6678 15.49C85.576 15.3235 85.5014 15.1743 85.5071 15.157C85.5071 15.1398 85.553 15.1513 85.6047 15.18ZM82.0709 15.3005C82.0996 15.3005 82.1799 15.4096 82.2602 15.5474C82.3348 15.6794 82.4553 15.9377 82.5184 16.1213C82.5815 16.2993 82.6618 16.6207 82.7708 17.2234L82.5757 17.4645C82.4667 17.5965 82.3692 17.6998 82.3635 17.6941C82.3577 17.6883 82.2832 17.4472 82.2029 17.166C82.1168 16.8847 81.9677 16.4428 81.6751 15.731L81.8529 15.5187C81.9504 15.3981 82.048 15.3005 82.0709 15.3005ZM85.0654 15.49C85.0998 15.5014 85.1974 15.6392 85.2834 15.7942C85.3695 15.9491 85.467 16.2419 85.5071 16.4485C85.5416 16.6609 85.553 16.9479 85.5358 17.1086C85.5129 17.2693 85.444 17.4874 85.2777 17.7974L85.2719 17.5104C85.2719 17.3554 85.2375 17.0569 85.1916 16.8503C85.1457 16.6437 85.0482 16.305 84.9622 16.0926C84.8188 15.7253 84.8188 15.6966 84.9105 15.5875C84.9622 15.5244 85.031 15.4785 85.0654 15.49ZM84.4229 16.1041C84.4459 16.1041 84.5262 16.2534 84.5893 16.437C84.6753 16.6551 84.7212 16.9536 84.7442 17.3382C84.7614 17.7572 84.7442 18.0098 84.6753 18.2738C84.6237 18.4689 84.5835 18.6756 84.5835 18.733C84.5893 18.7846 84.5491 18.8707 84.4975 18.9167C84.4172 18.997 84.4057 18.9626 84.4115 18.5723C84.4115 18.3369 84.3713 17.9351 84.3254 17.6826C84.2795 17.43 84.1877 17.0569 84.0156 16.4772L84.1935 16.2935C84.2967 16.1902 84.3942 16.1041 84.4229 16.1041ZM81.3252 16.1615C81.3596 16.1615 81.4743 16.4198 81.5833 16.7355C81.6866 17.0512 81.807 17.5046 81.8414 17.7342C81.916 18.159 81.916 18.1647 81.6292 18.4632L81.4227 17.7572C81.3137 17.3669 81.1703 16.9364 80.981 16.5346L81.1244 16.3509C81.1989 16.2476 81.2907 16.1615 81.3252 16.1615ZM83.6313 16.902L83.7058 17.1201C83.746 17.2406 83.8263 17.608 83.8779 17.9409C83.9583 18.446 83.964 18.6239 83.9066 19.0601C83.8493 19.5193 83.8263 19.594 83.6829 19.703C83.5969 19.7776 83.4018 19.8982 83.2469 19.9785C83.0978 20.0589 82.9773 20.0991 82.9773 20.0646C82.9773 20.0302 83.0347 19.8982 83.0978 19.7662C83.1666 19.6284 83.2699 19.3242 83.3272 19.0888C83.3903 18.8535 83.4362 18.5149 83.4362 18.3427C83.4362 18.1705 83.3961 17.8605 83.2641 17.2808L83.6313 16.902ZM80.6138 16.9594C80.6368 16.9594 80.7113 17.1086 80.7802 17.2923C80.849 17.4759 80.958 17.7916 81.0211 17.9983C81.0842 18.1992 81.1416 18.4345 81.1531 18.5149C81.1588 18.5895 81.1416 18.7559 81.1129 18.8765C81.0785 19.0142 80.9867 19.152 80.7113 19.3644L80.4933 18.6354C80.3729 18.2393 80.2237 17.8261 80.0516 17.5391L80.3155 17.2521C80.4589 17.0914 80.5966 16.9594 80.6138 16.9594ZM82.874 17.7515C82.9027 17.7744 82.9371 18.0155 82.9601 18.2853C82.983 18.6928 82.9716 18.8306 82.8626 19.1462C82.7937 19.3471 82.6159 19.7202 82.4725 19.9728C82.3233 20.2196 82.1799 20.4377 82.1455 20.4607C82.1111 20.4779 82.1053 20.4492 82.134 20.3803C82.1627 20.3172 82.2373 20.1105 82.3061 19.9211C82.4036 19.6399 82.4266 19.439 82.4323 18.1188L82.6274 17.9122C82.7364 17.8031 82.8511 17.7285 82.874 17.7515ZM79.8164 18.136C79.8336 18.1475 79.9369 18.4575 80.0459 18.8363C80.1492 19.2094 80.2581 19.5595 80.2868 19.6169C80.327 19.703 80.2639 19.7662 79.9082 20.0072C79.673 20.1622 79.4722 20.2942 79.4608 20.2942C79.455 20.2942 79.4493 20.1278 79.4435 19.9326C79.4435 19.7375 79.3919 19.3758 79.2198 18.6813L79.5009 18.4001C79.6501 18.2451 79.7935 18.1246 79.8164 18.136ZM81.9332 18.6871C81.9447 18.6871 81.9447 18.9109 81.9332 19.1864C81.9103 19.5997 81.8759 19.7547 81.7267 20.0646C81.6292 20.2655 81.4973 20.5009 81.4342 20.5812C81.371 20.6558 81.3137 20.6903 81.3137 20.6501C81.3137 20.6099 81.3538 20.4435 81.3997 20.277C81.4456 20.1105 81.5087 19.7547 81.5431 19.4906C81.5948 19.0831 81.6292 18.9741 81.7554 18.842C81.8414 18.7559 81.9218 18.6871 81.9332 18.6871ZM78.8068 19.0888L78.8814 19.3012C78.9215 19.4218 78.9559 19.6858 78.9559 19.8924C78.9617 20.0933 78.933 20.3516 78.8986 20.4664C78.8584 20.5755 78.801 20.6845 78.7666 20.7075C78.7322 20.7304 78.6863 20.7477 78.6576 20.7477C78.6347 20.7534 78.6003 20.6558 78.5831 20.5353C78.5658 20.4148 78.5027 20.145 78.3306 19.548L78.8068 19.0888ZM81.0039 19.6284C81.0154 19.6399 80.9982 19.8121 80.9637 20.013C80.9293 20.2139 80.8318 20.5009 80.7515 20.6558C80.6425 20.851 80.5335 20.9658 80.2237 21.0921L80.3614 20.7649C80.436 20.5812 80.5163 20.3287 80.5392 20.2024C80.5622 20.0417 80.6368 19.9211 80.7802 19.7891C80.8949 19.6915 80.9924 19.6169 81.0039 19.6284ZM77.9348 19.9843C77.9578 20.0072 78.0209 20.1966 78.0725 20.4033C78.1299 20.6099 78.1585 20.8395 78.1413 20.9199C78.1241 21.0002 78.0496 21.0921 77.975 21.1265C77.843 21.1896 77.8373 21.1839 77.7398 20.7419C77.6423 20.2885 77.6423 20.2885 77.7685 20.1105C77.8373 20.013 77.9119 19.9556 77.9348 19.9843ZM79.9197 20.4607C79.9713 20.4607 79.9656 20.5123 79.8967 20.6501C79.8451 20.7477 79.7361 20.9428 79.6558 21.0691C79.5583 21.2241 79.4378 21.3331 79.3173 21.3733C79.2141 21.4077 79.1338 21.4307 79.1338 21.425C79.1338 21.4135 79.1854 21.2643 79.2485 21.0921C79.3345 20.8395 79.4091 20.7477 79.6042 20.6214C79.7361 20.5296 79.8795 20.4607 79.9197 20.4607ZM77.2464 20.7878C77.2694 20.8165 77.3038 20.9773 77.3612 21.4651L76.6269 21.8497C76.2196 22.0621 75.8696 22.24 75.8467 22.24C75.8237 22.24 76.122 21.9014 76.5064 21.4938C76.8908 21.0806 77.2235 20.7649 77.2464 20.7878ZM76.3745 21.0806C76.3917 21.0921 76.0016 21.4996 75.5025 21.9875C75.0034 22.4811 74.4642 22.946 74.2978 23.0436C74.1314 23.1354 73.9766 23.2158 73.9536 23.2158C73.9307 23.2158 73.8848 23.078 73.8561 22.9173C73.8217 22.7509 73.8045 22.6131 73.8102 22.6074C73.8217 22.6074 73.9651 22.5385 74.1429 22.4524C74.315 22.372 74.8829 22.0219 75.3992 21.6775C75.9155 21.3331 76.3572 21.0634 76.3745 21.0806ZM78.6691 21.1782C78.6863 21.1954 78.6289 21.3102 78.5429 21.4364C78.4568 21.5627 78.3823 21.666 78.3708 21.666C78.3651 21.666 78.1069 21.7407 77.7971 21.8382C77.4931 21.9301 77.235 21.9932 77.235 21.9703C77.235 21.9416 77.321 21.8899 77.4243 21.8497C77.5275 21.8038 77.648 21.7464 77.6996 21.7177C77.7455 21.689 77.8602 21.6144 77.9578 21.5455C78.0496 21.4824 78.193 21.4192 78.2733 21.402C78.3479 21.3905 78.4626 21.3274 78.5257 21.2643C78.5831 21.2011 78.6519 21.1609 78.6691 21.1782ZM79.2772 23.388C79.4493 23.388 79.6443 23.4282 79.7648 23.4971C79.8853 23.5602 80.0172 23.7037 80.0975 23.8529C80.195 24.0366 80.2237 24.1744 80.2123 24.3695C80.2008 24.5417 80.1415 24.6986 80.0344 24.8402C79.9369 24.9665 79.782 25.087 79.6329 25.1444C79.478 25.2018 79.3059 25.2248 79.1625 25.2018C79.0362 25.1846 78.8641 25.1214 78.7896 25.064C78.7093 25.0066 78.5831 24.8689 78.5142 24.7598C78.4167 24.6221 78.3823 24.4843 78.388 24.2777C78.388 24.0825 78.4282 23.9275 78.5142 23.7955C78.5888 23.6865 78.7207 23.5487 78.8183 23.4913C78.9215 23.4282 79.0993 23.388 79.2772 23.388Z" fill="#F8992F"/>
</svg>
