<svg width="97" height="45" viewBox="0 0 97 45" fill="none" xmlns="http://www.w3.org/2000/svg">
<path d="M1.83462 11.0749C1.79384 11.0614 1.76664 11.0478 1.72585 11.0343L1.25 14.0331L2.96307 11.4801L2.47362 10.9668C2.31047 11.0884 2.06575 11.1424 1.83462 11.0749Z" fill="white"/>
<path d="M3.60298 8.07632L3.95648 7.88721H3.50781L3.60298 8.07632Z" fill="white"/>
<path d="M1.31778 10.1426C1.41295 9.83196 1.67127 9.62934 1.98398 9.60232V9.02148L0.515625 9.83196V12.547L1.46733 10.8315C1.31778 10.6559 1.2498 10.3993 1.31778 10.1426Z" fill="white"/>
<path d="M2.10742 5.79345V7.75209L3.30385 7.76561L2.32496 5.75293C2.25698 5.77995 2.189 5.79345 2.10742 5.79345Z" fill="white"/>
<path d="M3.46734 11.98L1.56392 14.2088C1.60471 14.2493 1.6319 14.2898 1.65909 14.3574C1.71347 14.5195 1.6183 14.6951 1.46875 14.7626L2.2709 16.9239L6.81191 16.3295C6.81191 16.2755 6.8255 16.235 6.8391 16.1809C6.87989 16.0188 6.98865 15.8838 7.11102 15.7892L3.46734 11.98Z" fill="white"/>
<path d="M2.10742 9.61623C2.16181 9.61623 2.20259 9.62974 2.25698 9.64325C2.65126 9.75132 2.88238 10.1701 2.77362 10.5618C2.73283 10.6834 2.66485 10.7914 2.58328 10.8725L3.05913 11.3588L4.22837 9.61623L3.52139 8.1709L2.10742 8.95435V9.61623Z" fill="white"/>
<path d="M1.52192 14.1817L3.42533 11.9394L3.00386 11.4937L1.25 14.1142C1.34517 14.1142 1.45394 14.1277 1.52192 14.1817Z" fill="white"/>
<path d="M2.10742 8.90013L3.49419 8.14369L3.37183 7.88704L2.10742 7.87354V8.90013Z" fill="white"/>
<path d="M1.98405 5.79297C1.92967 5.79297 1.86169 5.77947 1.8073 5.76596C1.34505 5.63088 1.07313 5.14459 1.20909 4.68533C1.34505 4.22606 1.8345 3.95591 2.29675 4.09099C2.65025 4.18554 2.88138 4.48271 2.92216 4.82041L9.85603 3.17245C7.46317 1.7136 4.40411 0.686997 0.529297 0.524902V7.73811L1.99764 7.75162V5.79297H1.98405Z" fill="white"/>
<path d="M6.81084 16.5317L2.32422 17.1126L3.11277 19.2198C3.28952 19.1658 3.47986 19.2738 3.53425 19.4494C3.57503 19.598 3.52065 19.7466 3.38469 19.8277L4.67629 22.1645L7.05556 16.964C6.9332 16.8559 6.83803 16.6938 6.81084 16.5317Z" fill="white"/>
<path d="M4.67728 10.5615L3.54883 11.8853L7.17891 15.708L4.67728 10.5615Z" fill="white"/>
<path d="M1.98398 7.87338L0.515625 7.85986V9.77798L1.98398 8.96751V7.87338Z" fill="white"/>
<path d="M1.31778 27.7568C1.33137 27.7028 1.35857 27.6487 1.38576 27.5947L0.515625 27.23V28.6753L1.29059 28.0405C1.29059 27.9594 1.29059 27.8649 1.31778 27.7568Z" fill="white"/>
<path d="M1.80723 27.2575L0.637987 25.1772L0.515625 25.1367V27.0278L1.50812 27.4466C1.5897 27.3655 1.68487 27.298 1.80723 27.2575Z" fill="white"/>
<path d="M4.05038 7.88721L3.62891 8.11684L4.2951 9.50815L5.38277 7.90072L4.05038 7.88721Z" fill="white"/>
<path d="M3.01733 25.8251L4.66243 22.2185L3.35723 19.8546C3.34363 19.8682 3.33004 19.8682 3.31644 19.8682C3.16689 19.9087 3.00374 19.8411 2.92216 19.7061L0.529297 20.8812V24.6905L0.787617 25.1497L3.01733 25.8251Z" fill="white"/>
<path d="M23.8885 34.7679C23.7662 34.8084 23.6438 34.7679 23.5622 34.7004L21.7676 38.4015C21.8356 38.4285 21.9035 38.4826 21.9443 38.5366L25.0442 35.1461L24.0653 34.6328C24.0381 34.6868 23.9701 34.7409 23.8885 34.7679Z" fill="white"/>
<path d="M21.9844 38.5633C22.0252 38.6174 22.0524 38.6714 22.066 38.7389L29.3941 37.7529C29.3805 37.6718 29.3805 37.5908 29.4077 37.5097C29.4077 37.4827 29.4213 37.4692 29.4349 37.4557L25.0978 35.1729L21.9844 38.5633Z" fill="white"/>
<path d="M5.84665 7.21173C5.75148 7.17121 5.65631 7.11718 5.58833 7.03613L4.26953 7.76556L5.46596 7.77907L5.84665 7.21173Z" fill="white"/>
<path d="M1.41287 14.7897C1.23613 14.8437 1.04579 14.7357 0.991404 14.5601C0.93702 14.3845 1.03219 14.2088 1.19534 14.1413L1.68479 11.0075C1.63041 10.9805 1.58962 10.9399 1.53524 10.8994L0.501953 12.7365V17.1671L2.20143 16.951L1.41287 14.7897Z" fill="white"/>
<path d="M3.07164 19.2472L2.28308 17.1265L0.515625 17.3561V18.1666L2.92209 19.3823C2.94928 19.3147 3.00366 19.2742 3.07164 19.2472Z" fill="white"/>
<path d="M5.42475 6.27969L2.85514 5.2666C2.77357 5.45571 2.62401 5.60429 2.44727 5.69885L3.45336 7.75205H4.17393L5.54711 6.99561C5.39756 6.8065 5.32958 6.56335 5.39756 6.3067C5.41115 6.3067 5.41115 6.2932 5.42475 6.27969Z" fill="white"/>
<path d="M29.8564 37.1179L29.163 30.9854C29.1494 30.9989 29.1223 30.9989 29.1087 31.0124C29.0407 31.0259 28.9727 31.0259 28.9047 31.0124L25.1387 35.1323L29.4486 37.4151C29.5301 37.253 29.6797 37.1449 29.8564 37.1179Z" fill="white"/>
<path d="M2.8813 19.6524C2.85411 19.5713 2.8677 19.4903 2.89489 19.4227L0.515625 18.207V20.8411L2.89489 19.6794C2.89489 19.6659 2.8813 19.6659 2.8813 19.6524Z" fill="white"/>
<path d="M2.89633 5.17171C2.89633 5.19872 2.88274 5.21222 2.86914 5.22573L5.43875 6.23882C5.5883 5.90113 5.96899 5.69851 6.33608 5.80658C6.51282 5.86061 6.64878 5.96867 6.74395 6.10374L10.3604 3.48322C10.2517 3.41568 10.1429 3.33463 10.0205 3.26709L2.92352 4.95557C2.92352 5.02311 2.90993 5.09066 2.89633 5.17171Z" fill="white"/>
<path d="M5.43908 7.90039L4.32422 9.56186L4.74569 10.4129L6.86664 7.9139L5.43908 7.90039Z" fill="white"/>
<path d="M6.89299 26.9599C6.93378 26.8383 7.01536 26.7302 7.12412 26.6762L4.73126 22.3672L3.12695 25.8657L6.89299 26.9599Z" fill="white"/>
<path d="M9.96592 7.81928C10.0747 7.45457 10.4146 7.21143 10.7817 7.19792L10.9992 3.94252C10.8632 3.83445 10.7137 3.7399 10.5641 3.63184L7.01562 7.79226L9.96592 7.81928Z" fill="white"/>
<path d="M2.25756 27.2573C2.29835 27.2708 2.32554 27.2843 2.35273 27.2978L3.00533 25.8795L0.816406 25.2446L1.93126 27.2438C2.04003 27.2168 2.1488 27.2168 2.25756 27.2573Z" fill="white"/>
<path d="M15.417 40.8059C15.4442 40.7518 15.485 40.7113 15.5394 40.6843L12.7794 34.4977C12.6571 34.5652 12.5211 34.5787 12.3716 34.5382C12.154 34.4842 12.0181 34.3086 11.9773 34.106L8.3336 34.7814C8.3472 34.8624 8.32001 34.9434 8.26562 35.011L15.417 40.8059Z" fill="white"/>
<path d="M29.2441 30.9181L32.9422 36.3348C34.0299 34.7409 34.6825 33.1739 35.0088 31.5935L29.2713 30.8911C29.2577 30.9046 29.2441 30.9046 29.2441 30.9181Z" fill="white"/>
<path d="M18.6804 29.6484C18.6668 29.6754 18.6668 29.7024 18.6532 29.7294C18.6124 29.905 18.5309 30.2292 18.5173 30.4318C18.4765 30.8371 18.4901 31.0937 18.2453 31.0667C17.9055 31.0397 17.8919 29.4187 17.8919 29.4187L17.8783 17.3697C17.8783 17.3697 17.9054 14.2899 16.4507 10.9129C15.4446 8.54907 13.7587 6.00958 11.1211 4.02393L10.9036 7.19828C10.9444 7.19828 10.9988 7.21179 11.0396 7.22529C11.5018 7.36037 11.7737 7.84666 11.6378 8.30592C11.5018 8.76519 11.0124 9.03535 10.5501 8.90027C10.115 8.7787 9.85673 8.35995 9.92471 7.9277L6.90643 7.90069L4.7311 10.4402L7.27352 15.6677C7.40948 15.6272 7.57263 15.6137 7.72218 15.6542C8.11646 15.7623 8.34759 16.181 8.23883 16.5727C8.13006 16.9645 7.70859 17.1941 7.31431 17.086C7.24633 17.0725 7.19195 17.0455 7.13756 17.005L4.7311 22.2731L7.13756 26.6091C7.25993 26.5551 7.39588 26.528 7.53184 26.5686C7.81735 26.6496 7.9941 26.9468 7.91252 27.244C7.83095 27.5276 7.53184 27.7032 7.23273 27.6222C6.94722 27.5411 6.78407 27.2575 6.85205 26.9738L3.08601 25.8797L2.43341 27.325C2.70533 27.5006 2.84128 27.8248 2.74611 28.149C2.63734 28.5407 2.21588 28.7704 1.8216 28.6623C1.59047 28.5948 1.41372 28.4327 1.33215 28.23L0.502801 28.9054V28.946C0.502801 28.946 0.298864 32.8362 3.37152 37.1047L8.27961 37.591C8.27961 37.5505 8.29321 37.5235 8.29321 37.4829C8.34759 37.3073 8.46995 37.1858 8.61951 37.1317L8.04848 35.1326C7.87174 35.1731 7.69499 35.065 7.6542 34.9029C7.6542 34.8894 7.6542 34.8759 7.64061 34.8624L3.00444 36.3483L2.99084 36.3078L7.62701 34.8084C7.62701 34.6598 7.72218 34.5112 7.87174 34.4707C8.04848 34.4166 8.22523 34.5112 8.29321 34.6733L11.9641 33.9844C11.9641 33.9574 11.9641 33.9304 11.9777 33.9034L2.56937 32.8092C2.56937 32.8362 2.55577 32.8632 2.55577 32.9038C2.4742 33.1874 2.17509 33.363 1.87598 33.282C1.59047 33.2009 1.41372 32.9038 1.4953 32.6066C1.57687 32.3229 1.87598 32.1473 2.17509 32.2284C2.41981 32.2959 2.56937 32.5255 2.56937 32.7687L11.9777 33.8628C12.0593 33.5792 12.3584 33.4036 12.6575 33.4846C12.943 33.5657 13.1197 33.8628 13.0381 34.16C12.9974 34.2951 12.9158 34.4031 12.807 34.4707L15.567 40.6708C15.567 40.6708 15.5806 40.6708 15.5806 40.6573C15.7573 40.6033 15.9477 40.7113 16.002 40.8869V40.9004L20.9917 39.0364C20.9645 38.9418 20.9509 38.8202 20.9917 38.7122C21.0733 38.4285 21.3724 38.2529 21.6715 38.3339C21.6851 38.3339 21.6987 38.3474 21.6987 38.3474L23.4933 34.6328C23.4661 34.5923 23.439 34.5517 23.4254 34.5112C23.371 34.3356 23.4797 34.1465 23.6565 34.0925C23.8332 34.0384 24.0236 34.1465 24.078 34.3221C24.1051 34.4031 24.0915 34.4842 24.0644 34.5517L25.0569 35.0785L28.8229 30.9721C28.7413 30.9316 28.6733 30.8641 28.6462 30.756C28.5918 30.5804 28.7005 30.3913 28.8773 30.3373C29.054 30.2832 29.2444 30.3913 29.2987 30.5669C29.3123 30.6209 29.3123 30.6615 29.3123 30.7155L34.9818 31.526C35.1586 30.675 35.2401 29.8105 35.2401 28.9595V18.1532C35.2673 18.1667 22.6776 17.005 18.6804 29.6484Z" fill="white"/>
<path d="M3.50741 11.8582L4.64946 10.5209L4.24158 9.66992L3.08594 11.3989L3.50741 11.8582Z" fill="white"/>
<path d="M29.2034 30.9585L29.8968 37.1181C29.9648 37.1181 30.0191 37.1181 30.0871 37.1316C30.3726 37.2126 30.5494 37.5098 30.4678 37.807C30.3862 38.0907 30.0871 38.2663 29.788 38.1852C29.5977 38.1312 29.4617 37.9826 29.4073 37.807L22.0792 38.7796C22.0928 38.8606 22.0928 38.9417 22.0656 39.0362C21.984 39.3199 21.6849 39.4955 21.3858 39.4144C21.2226 39.3739 21.1003 39.2523 21.0323 39.1038L16.029 40.9678C16.0426 41.1299 15.9475 41.2785 15.7843 41.3326C15.6076 41.3866 15.4172 41.2785 15.3628 41.1029C15.3356 41.0219 15.3492 40.9408 15.3764 40.8598L8.23863 35.0649C8.21144 35.0919 8.19784 35.1054 8.15705 35.1324L8.68729 37.1451C8.78246 37.1181 8.87763 37.1181 8.9864 37.1451C9.27191 37.2262 9.44865 37.5233 9.36708 37.8205C9.2855 38.1042 8.9864 38.2798 8.68729 38.1987C8.44256 38.1312 8.29301 37.9151 8.29301 37.6719L3.41211 37.1991C4.35022 38.4824 5.57384 39.8062 7.20534 41.0759C13.609 46.0333 23.5339 45.4795 29.3257 40.36C30.8485 39.0227 32.0177 37.6989 32.9014 36.4022L29.2034 30.9585Z" fill="white"/>
<path d="M6.85192 6.73896C6.74315 7.13069 6.32168 7.36032 5.92741 7.25226C5.91381 7.25226 5.90021 7.23875 5.88662 7.23875L5.51953 7.77907L6.97428 7.79257L10.5364 3.60513C10.482 3.56461 10.4412 3.53759 10.3868 3.49707L6.75675 6.13111C6.87911 6.32022 6.9063 6.52284 6.85192 6.73896Z" fill="white"/>
<path d="M24.5682 13.344L25.3296 8.4541L21.4004 8.64322C21.7403 10.6289 22.9231 12.3174 24.5682 13.344Z" fill="white"/>
<path d="M24.3638 4.52356C24.6085 3.67256 25.4923 3.18628 26.3488 3.42942C27.2053 3.67256 27.6948 4.55058 27.45 5.40157C27.2461 6.131 26.5527 6.59027 25.8186 6.54974L25.5466 8.25173L30.5499 8.00859C30.5499 7.87351 30.5635 7.75194 30.5907 7.61686C30.781 6.96848 31.4608 6.59026 32.127 6.77937C32.7796 6.96848 33.1603 7.64388 32.97 8.30577C32.7796 8.95414 32.0998 9.33236 31.4336 9.14325C31.3249 9.11623 31.2161 9.0622 31.1209 9.00817L27.586 14.3708C27.8035 14.3978 28.0347 14.3978 28.2522 14.3978C32.1134 14.3978 35.2405 11.291 35.2405 7.45476C35.2405 3.61853 32.1134 0.511719 28.2522 0.511719C25.5194 0.511719 23.1538 2.06512 22.0117 4.34795L24.2958 4.78021C24.323 4.69916 24.3502 4.60461 24.3638 4.52356Z" fill="white"/>
<path d="M30.9846 8.88666C30.7807 8.71106 30.6311 8.46791 30.5768 8.19775L25.5191 8.4409L24.7441 13.4388C25.5463 13.8981 26.4436 14.2223 27.3953 14.3303L30.9846 8.88666Z" fill="white"/>
<path d="M24.3093 4.9692L21.9436 4.52344C21.5357 5.40145 21.291 6.37402 21.291 7.40061L24.4588 5.64459C24.3637 5.44197 24.3093 5.21234 24.3093 4.9692Z" fill="white"/>
<path d="M25.6281 6.52256C25.5737 6.50905 25.5193 6.49554 25.4649 6.48203C25.0707 6.37397 24.758 6.11732 24.554 5.80664L21.291 7.61669C21.291 7.90036 21.3182 8.18402 21.359 8.45418L25.3562 8.26507L25.6281 6.52256Z" fill="white"/>
<path d="M39.0977 18.2476H40.5796V22.489C40.5796 22.9618 40.634 23.313 40.7428 23.5291C40.9195 23.9209 41.3002 24.11 41.8848 24.11C42.4694 24.11 42.8501 23.9209 43.0269 23.5291C43.1356 23.313 43.19 22.9618 43.19 22.489V18.2476H44.6719V22.489C44.6719 23.2185 44.5632 23.7993 44.332 24.2045C43.9106 24.961 43.0948 25.3257 41.8848 25.3257C40.6884 25.3257 39.8726 24.9475 39.4376 24.2045C39.2064 23.7993 39.0977 23.2185 39.0977 22.489V18.2476Z" fill="white"/>
<path d="M47.3904 25.1636H45.9492V18.2476H47.3904V25.1636Z" fill="white"/>
<path d="M53.7947 18.2744V19.0984H51.4562V25.1634H50.5045V19.0984H48.166V18.2744H53.7947Z" fill="white"/>
<path d="M57.684 20.2735C58.0239 20.4356 58.2823 20.6517 58.459 20.9219C58.6221 21.1785 58.7445 21.4757 58.7989 21.8134C58.8533 22.043 58.8805 22.4077 58.8805 22.921H55.1824C55.196 23.4343 55.3184 23.8396 55.5495 24.1503C55.7806 24.4609 56.1205 24.6095 56.5964 24.6095C57.045 24.6095 57.3985 24.4609 57.6568 24.1773C57.8064 24.0152 57.9152 23.8125 57.9831 23.5964H58.8125C58.7853 23.7855 58.7173 23.9882 58.595 24.2178C58.4726 24.4474 58.3366 24.623 58.1735 24.7716C57.9152 25.0283 57.6025 25.1904 57.2218 25.2714C57.0178 25.3254 56.7867 25.3524 56.5284 25.3524C55.903 25.3524 55.3727 25.1228 54.9241 24.6771C54.4754 24.2313 54.2715 23.5829 54.2715 22.7724C54.2715 21.962 54.489 21.3136 54.9377 20.8138C55.3727 20.314 55.9574 20.0574 56.6643 20.0574C57.0042 20.0303 57.3577 20.1114 57.684 20.2735ZM57.9967 22.2456C57.9559 21.8809 57.888 21.5837 57.752 21.3676C57.5209 20.9624 57.1266 20.7598 56.5828 20.7598C56.1885 20.7598 55.8622 20.8949 55.6039 21.1785C55.3456 21.4622 55.196 21.8134 55.1824 22.2456H57.9967Z" fill="white"/>
<path d="M63.2568 20.409C63.6103 20.6791 63.8278 21.1519 63.8958 21.8273H63.0665C63.0121 21.5166 62.9033 21.26 62.7266 21.0574C62.5498 20.8547 62.2643 20.7467 61.87 20.7467C61.3262 20.7467 60.9455 21.0033 60.7144 21.5301C60.5648 21.8678 60.4833 22.2866 60.4833 22.7864C60.4833 23.2862 60.592 23.7184 60.8096 24.0561C61.0271 24.3938 61.3534 24.5694 61.8157 24.5694C62.1691 24.5694 62.4411 24.4613 62.6586 24.2452C62.8625 24.0291 63.0121 23.7319 63.0801 23.3672H63.9094C63.8142 24.0291 63.5831 24.5154 63.2024 24.8261C62.8217 25.1367 62.3459 25.2853 61.7477 25.2853C61.0815 25.2853 60.5648 25.0422 60.1706 24.5694C59.7763 24.0831 59.5859 23.4888 59.5859 22.7729C59.5859 21.8948 59.8035 21.2059 60.2385 20.7197C60.6736 20.2334 61.2174 19.9902 61.8836 19.9902C62.4275 19.9902 62.8897 20.1253 63.2568 20.409Z" fill="white"/>
<path d="M64.752 18.2476H65.5949V20.8141C65.7988 20.5574 65.9756 20.3818 66.1387 20.2737C66.4106 20.0981 66.7505 20.0036 67.1584 20.0036C67.8926 20.0036 68.382 20.2602 68.654 20.7735C68.7899 21.0572 68.8715 21.4354 68.8715 21.9352V25.1501H68.0014V21.9892C68.0014 21.6245 67.9606 21.3544 67.8654 21.1788C67.7158 20.9086 67.4167 20.76 66.9953 20.76C66.6418 20.76 66.3291 20.8816 66.0436 21.1247C65.758 21.3679 65.6085 21.8136 65.6085 22.489V25.1501H64.7656V18.2476H64.752Z" fill="white"/>
<path d="M43.054 32.026H39.2336L39.1656 31.7153H41.8168L41.4089 29.7567C41.2594 29.0678 40.6476 28.568 39.9542 28.568H39.1656L39.0977 28.2573H39.8862C40.7427 28.2573 41.5177 28.8922 41.7081 29.7567L42.1159 31.7153H42.9725L43.054 32.026Z" fill="white"/>
<path d="M47.3241 32.0258H46.0461C45.6926 32.0258 45.3255 31.8637 45.04 31.58C44.7544 31.8637 44.4417 32.0258 44.129 32.0258H42.987L42.851 31.9852L42.8102 31.7826L42.919 31.7421V31.7286H44.0203C44.2786 31.7286 44.6185 31.5935 44.836 31.3774L42.8102 29.0405L42.7559 28.7568C43.2317 28.4867 43.8027 28.3246 44.3738 28.3246C45.2575 28.3246 45.8965 28.7028 46.0324 29.3377C46.0596 29.4728 46.0732 29.6078 46.0596 29.7834C45.9781 30.5129 45.6518 30.9451 45.2847 31.4044C45.5022 31.6205 45.8013 31.7421 46.114 31.7421H47.2833L47.3241 32.0258ZM45.7062 29.7024C45.7198 29.5538 45.7197 29.4457 45.6926 29.3377C45.5974 28.8784 45.1487 28.6083 44.4281 28.6083C43.9659 28.6083 43.4764 28.7298 43.0822 28.946L43.0958 28.9865L44.9992 31.1883C45.3391 30.7695 45.6382 30.3778 45.7062 29.7024ZM43.7619 27.298C43.7348 27.1629 43.8163 27.0684 43.9523 27.0684C44.0882 27.0684 44.2106 27.1764 44.2378 27.298C44.265 27.4331 44.197 27.5411 44.0611 27.5411C43.9251 27.5411 43.8027 27.4331 43.7619 27.298Z" fill="white"/>
<path d="M47.8802 32.0257H47.2548L47.1052 31.9717L47.0645 31.7691L47.1868 31.715H47.7578C47.9754 31.715 48.1249 31.5529 48.0705 31.3098L47.0916 26.7441H47.4043L48.3968 31.3638C48.4784 31.742 48.2609 32.0257 47.8802 32.0257Z" fill="white"/>
<path d="M49.6753 32.0257L48.5469 26.7441H48.8596L49.988 32.0257H49.6753Z" fill="white"/>
<path d="M56.4455 32.0259H56.3095C55.8336 32.0259 55.3986 31.7693 55.1403 31.3775C54.9091 31.7693 54.5013 31.9989 53.9438 31.9989C53.1825 31.9989 52.4211 31.3505 52.2579 30.5806L52.054 29.689C51.8909 28.8786 52.3531 28.2707 53.1825 28.2707H54.6916L54.9907 29.7296L55.0179 29.8781H55.0315L55.249 30.9183C55.3442 31.391 55.7657 31.7152 56.2279 31.7152H56.3639L56.4455 32.0259ZM52.2851 27.1901C52.2579 27.055 52.3395 26.9604 52.4755 26.9604C52.6114 26.9604 52.7338 27.0685 52.761 27.1901C52.7882 27.3252 52.7066 27.4332 52.5707 27.4332C52.4347 27.4332 52.3123 27.3252 52.2851 27.1901ZM54.9771 31.0668L54.8411 30.459L54.7188 29.8781L54.678 29.689L54.4469 28.5814H53.2504C52.5978 28.5814 52.2308 29.0407 52.3667 29.689L52.557 30.5806C52.693 31.1884 53.2776 31.6882 53.8758 31.6882C54.3789 31.6882 54.8004 31.4586 54.9771 31.0668ZM53.2776 27.1901C53.2504 27.055 53.332 26.9604 53.4544 26.9604C53.5767 26.9604 53.7127 27.0685 53.7399 27.1901C53.7671 27.3252 53.6855 27.4332 53.5495 27.4332C53.4136 27.4332 53.2912 27.3252 53.2776 27.1901Z" fill="white"/>
<path d="M56.2422 31.715H57.2075C57.425 31.715 57.5746 31.5529 57.5338 31.3098L56.9084 28.4326H57.2211L57.8601 31.3773C57.9417 31.7556 57.7105 32.0257 57.3434 32.0257H56.3238L56.2422 31.715ZM56.7996 32.9848C56.7724 32.8497 56.854 32.7551 56.9764 32.7551C57.1123 32.7551 57.2347 32.8632 57.2619 32.9848C57.2891 33.1198 57.2211 33.2279 57.0851 33.2279C56.9628 33.2279 56.8268 33.1334 56.7996 32.9848ZM57.7649 32.9848C57.7377 32.8497 57.8193 32.7551 57.9553 32.7551C58.0912 32.7551 58.2136 32.8632 58.2408 32.9848C58.268 33.1198 58.2 33.2279 58.064 33.2279C57.9281 33.2279 57.7921 33.1334 57.7649 32.9848Z" fill="white"/>
<path d="M59.9129 33.5926L59.8449 33.2954C61.2997 33.4035 61.8027 33.2008 61.626 32.3228L61.5716 32.0257H60.3072C59.5458 32.0122 58.798 31.3773 58.6349 30.6073L58.431 29.6888C58.2678 28.8783 58.7301 28.2705 59.5594 28.2705H59.641C60.4703 28.2705 61.2045 28.8783 61.3677 29.6888L61.6668 31.1071L61.9387 32.3769C62.1698 33.417 61.5172 33.7412 59.9129 33.5926ZM61.49 31.715L61.3677 31.1341H61.3541L61.0414 29.6888C60.9054 29.0404 60.3344 28.5812 59.6954 28.5812H59.6138C58.9612 28.5812 58.5941 29.0404 58.7301 29.6888L58.934 30.6073C59.07 31.2152 59.6546 31.715 60.2392 31.715H61.49ZM58.7437 26.6495C58.6621 26.2578 58.8252 26.0552 59.1515 26.0552C59.4506 26.0552 59.7226 26.2038 59.8721 26.6225H59.6818C59.573 26.3659 59.4099 26.2713 59.2059 26.2713C58.9748 26.2713 58.8932 26.3794 58.9476 26.6765C59.002 26.8927 59.1243 27.0818 59.3555 27.1628H60.0081L60.0489 27.3654H58.798L58.7573 27.1628H59.0564C58.9068 27.0413 58.7844 26.8792 58.7437 26.6495Z" fill="white"/>
<path d="M64.0459 32.2822C64.2226 33.0927 63.7468 33.687 62.931 33.687H62.5367L62.4688 33.3898H62.863C63.502 33.3898 63.8827 32.9306 63.7468 32.2822L62.9174 28.4189H63.2165L63.9235 31.7149H64.78L64.848 32.0256H64.0051L64.0459 32.2822Z" fill="white"/>
<path d="M65.4056 32.0257H64.7802L64.6306 31.9717L64.5898 31.7691L64.7122 31.715H65.2832C65.5008 31.715 65.6503 31.5529 65.5959 31.3098L64.617 26.7441H64.9297L65.9222 31.3638C66.0038 31.742 65.7727 32.0257 65.4056 32.0257Z" fill="white"/>
<path d="M69.4169 31.607C68.805 31.6205 68.5331 31.9987 68.6555 32.5255L69.1313 34.7678H68.805L68.3292 32.5255C68.1796 31.8366 68.5603 31.3233 69.2401 31.2963L68.9138 29.7294C68.7371 28.8919 69.2265 28.2705 70.0831 28.2705C70.926 28.2705 71.6874 28.8919 71.8641 29.7294L72.0816 30.7289C72.2584 31.5934 71.7146 32.1608 70.926 32.1608C70.3142 32.1743 69.8383 31.9987 69.4169 31.607ZM71.7553 30.7154L71.5514 29.7429C71.4154 29.081 70.8308 28.5947 70.151 28.5947C69.4712 28.5947 69.1042 29.081 69.2401 29.7429L69.5936 31.3773C69.9335 31.7285 70.3006 31.8636 70.858 31.8636C71.5242 31.8636 71.9049 31.3908 71.7553 30.7154Z" fill="white"/>
<path d="M76.3098 32.3769C76.5273 33.417 75.8747 33.7412 74.284 33.5926L74.216 33.2954C75.6708 33.4035 76.1738 33.2009 75.9971 32.3229L75.9427 32.0257H74.6783C73.9169 32.0122 73.1691 31.3773 73.006 30.6074L72.802 29.6888C72.6389 28.8784 73.1012 28.2705 73.9305 28.2705H74.0121C74.8414 28.2705 75.5756 28.8784 75.7387 29.6888L76.0379 31.1072L76.1738 31.715H76.6905L76.7448 32.0257H76.2282L76.3098 32.3769ZM75.8611 31.715L75.7387 31.1342H75.7252L75.4124 29.6888C75.2765 29.0405 74.7055 28.5812 74.0665 28.5812H73.9849C73.3323 28.5812 72.9652 29.0405 73.1012 29.6888L73.3051 30.6074C73.4411 31.2152 74.0257 31.715 74.6103 31.715H75.8611Z" fill="white"/>
<path d="M78.757 32.0259C78.4171 32.0259 78.1044 31.8503 77.9004 31.6071C77.7917 31.8638 77.5741 32.0259 77.1935 32.0259H76.704L76.5545 31.9718L76.5137 31.7692L76.636 31.7152H77.1391C77.5198 31.7152 77.7101 31.4721 77.6557 31.1344C77.6421 31.1073 77.6421 31.0938 77.6421 31.0803L77.0711 28.4463H77.3838L77.9412 31.0668C78.0228 31.445 78.3355 31.7152 78.7162 31.7152H79.0969L79.1649 32.0259H78.757ZM77.9004 32.9579C77.9276 33.093 77.8461 33.2011 77.7101 33.2011C77.5741 33.2011 77.4518 33.093 77.4246 32.9579C77.3974 32.8228 77.479 32.7283 77.6149 32.7283C77.7509 32.7283 77.8733 32.8228 77.9004 32.9579ZM78.8657 32.9579C78.8929 33.093 78.8114 33.2011 78.6754 33.2011C78.5395 33.2011 78.4171 33.093 78.3899 32.9579C78.3627 32.8228 78.4443 32.7283 78.5666 32.7283C78.689 32.7283 78.8386 32.8228 78.8657 32.9579Z" fill="white"/>
<path d="M79.7083 32.0257H79.0829L78.9334 31.9717L78.8926 31.7691L79.0149 31.715H79.586C79.8035 31.715 79.9531 31.5529 79.8987 31.3098L78.9198 26.7441H79.2325L80.225 31.3638C80.3065 31.742 80.089 32.0257 79.7083 32.0257Z" fill="white"/>
<path d="M81.5034 32.0257L80.375 26.7441H80.6877L81.8162 32.0257H81.5034Z" fill="white"/>
<path d="M83.9902 33.3899H84.3845C85.0235 33.3899 85.4042 32.9306 85.2682 32.2823L84.4389 28.419H84.738L85.5673 32.2823C85.7305 33.0927 85.2682 33.6871 84.4525 33.6871H84.0582L83.9902 33.3899ZM84.1534 27.5005C84.1262 27.3654 84.2078 27.2573 84.3437 27.2573C84.4797 27.2573 84.602 27.3654 84.6292 27.5005C84.6564 27.6355 84.5885 27.7301 84.4525 27.7301C84.3029 27.7436 84.1806 27.6355 84.1534 27.5005Z" fill="white"/>
<path d="M85.8673 26.7578L86.8462 31.3235C86.887 31.5666 87.1045 31.7287 87.3221 31.7287H87.8931L87.9611 32.0394H87.3221C86.955 32.0394 86.6151 31.7557 86.5335 31.391L85.541 26.7713H85.8673V26.7578Z" fill="white"/>
<path d="M92.7876 32.0259H87.9339L87.7843 31.9719L87.7435 31.7692L87.8659 31.7152H91.8359C91.6319 31.6072 91.292 30.9453 90.857 30.2564C89.7829 28.6084 88.7224 28.3112 87.6891 28.757L87.6348 28.4733C88.6816 27.987 90.0548 28.3923 91.1833 30.2293C92.0398 31.6612 92.0942 31.6477 92.4205 31.7017V31.7152H92.7468L92.7876 32.0259ZM90.3947 33.012C90.4219 33.147 90.3403 33.2416 90.218 33.2416C90.0956 33.2416 89.9596 33.1335 89.9324 33.012C89.9053 32.8904 89.9868 32.7823 90.1228 32.7823C90.2587 32.7823 90.3675 32.8769 90.3947 33.012Z" fill="white"/>
<path d="M92.5977 31.7149H93.427C93.6581 31.7149 93.7941 31.5528 93.7533 31.3097L93.1415 28.4325H93.4406L94.0796 31.3772C94.1612 31.7555 93.93 32.0256 93.563 32.0256H92.6792L92.5977 31.7149ZM92.8152 27.6221C92.788 27.487 92.8696 27.3789 93.0055 27.3789C93.1415 27.3789 93.2638 27.487 93.291 27.6221C93.3182 27.7571 93.2366 27.8517 93.1143 27.8517C92.9647 27.8517 92.8424 27.7436 92.8152 27.6221Z" fill="white"/>
<path d="M95.2886 32.0257L94.1602 26.7441H94.4729L95.6013 32.0257H95.2886ZM96.5122 34.0249H95.2614L95.2206 33.8223H95.5197C95.3702 33.7142 95.2478 33.5386 95.1934 33.309C95.1119 32.9172 95.275 32.7146 95.6149 32.7146C95.914 32.7146 96.1723 32.8632 96.3219 33.282H96.1316C96.0228 33.0253 95.8732 32.9307 95.6557 32.9307C95.4246 32.9307 95.343 33.0388 95.3974 33.336C95.4518 33.5521 95.5741 33.7412 95.8052 33.8223H96.4578L96.5122 34.0249Z" fill="white"/>
</svg>
