<svg width="182" height="44" viewBox="0 0 182 44" fill="none" xmlns="http://www.w3.org/2000/svg">
<path d="M1.92578 23.7427V28.609C1.92578 28.8394 1.93937 29.0237 1.96805 29.1619C1.99522 29.3001 2.04353 29.4095 2.11296 29.4901C2.17636 29.5751 2.2609 29.6312 2.36657 29.6571C2.47525 29.6845 2.61111 29.6975 2.77716 29.6975H3.62251V29.5189H3.43532C3.15757 29.5189 2.97793 29.4369 2.89793 29.2713C2.81641 29.1072 2.77716 28.8854 2.77716 28.609V23.7427H1.92578Z" fill="white"/>
<path d="M5.45472 29.6974V26.242C5.5785 26.1153 5.72039 26.0058 5.87739 25.9137C6.0374 25.8216 6.21552 25.7755 6.40875 25.7755C6.69405 25.7755 6.93407 25.8648 7.12729 26.0404C7.2239 26.1297 7.29937 26.2535 7.35674 26.4147C7.41712 26.576 7.44731 26.766 7.44731 26.9849V29.6974H8.29869V26.9849C8.29869 26.6667 8.25189 26.4003 8.15981 26.1844C8.06622 25.9655 7.94395 25.7971 7.79148 25.6776C7.63751 25.5509 7.46693 25.4674 7.27824 25.4242C7.09257 25.3824 6.89331 25.3608 6.68046 25.3608C6.40271 25.3608 6.15816 25.4112 5.94984 25.5106C5.74455 25.607 5.5785 25.7093 5.45472 25.8158H5.41245C5.36414 25.7093 5.27961 25.6229 5.15885 25.5566C5.03808 25.4919 4.85241 25.4587 4.60333 25.4587H3.75195V25.6373H3.93914C4.22897 25.6373 4.41162 25.7208 4.48861 25.8849C4.56409 26.0505 4.60333 26.2679 4.60333 26.5357V29.6974H5.45472Z" fill="white"/>
<path d="M9.46348 26.7257C9.46348 27.0108 9.53594 27.2541 9.68086 27.4571C9.82577 27.6572 9.9888 27.8026 10.1699 27.8948C10.105 27.9409 10.0341 28.0013 9.95861 28.0733C9.88162 28.1467 9.84389 28.2518 9.84389 28.3901C9.84389 28.5283 9.88162 28.642 9.95861 28.7298C10.0341 28.8148 10.1216 28.8796 10.2183 28.9256C9.93597 29.0178 9.69293 29.1661 9.48763 29.3691C9.28234 29.5692 9.17969 29.8154 9.17969 30.112C9.17969 30.3683 9.23403 30.5842 9.34272 30.757C9.45442 30.9298 9.60236 31.0709 9.7835 31.1832C9.97673 31.3012 10.1956 31.3847 10.4417 31.4308C10.6862 31.4769 10.9579 31.4999 11.2568 31.4999C11.5617 31.4999 11.8395 31.4769 12.0901 31.4308C12.3392 31.3847 12.5565 31.3012 12.7422 31.1832C12.9309 31.0709 13.0773 30.9298 13.183 30.757C13.2917 30.5842 13.346 30.3683 13.346 30.112C13.346 29.8543 13.2887 29.6398 13.177 29.467C13.0683 29.2913 12.9173 29.1431 12.7241 29.0236C12.3407 28.8133 11.8516 28.7068 11.2568 28.7068C10.5926 28.7068 10.2605 28.6017 10.2605 28.3901C10.2605 28.1799 10.5926 28.0733 11.2568 28.0733C11.5059 28.0733 11.7429 28.0503 11.9693 28.0042C12.1942 27.9581 12.3829 27.8862 12.5369 27.7854C12.7014 27.686 12.8282 27.5493 12.9173 27.3765C13.0094 27.2008 13.0562 26.9834 13.0562 26.7257C13.0562 26.4882 12.9928 26.2852 12.869 26.1153C12.7437 25.9425 12.5852 25.8129 12.392 25.7237V25.6776L13.0139 25.597V25.3608H11.2568C11.0153 25.3608 10.7828 25.3839 10.5624 25.4299C10.3405 25.476 10.1473 25.5509 9.98276 25.6545C9.82879 25.7553 9.70501 25.8935 9.6084 26.0692C9.51179 26.242 9.46348 26.4608 9.46348 26.7257ZM12.2048 26.7257C12.2048 26.9186 12.1807 27.0799 12.1324 27.2095C12.084 27.3362 12.0176 27.4427 11.9331 27.5262C11.767 27.6803 11.5421 27.7566 11.2568 27.7566C10.9745 27.7566 10.7526 27.6803 10.5926 27.5262C10.5156 27.4427 10.4492 27.3362 10.3934 27.2095C10.3405 27.0799 10.3149 26.9186 10.3149 26.7257C10.3149 26.5227 10.3405 26.3557 10.3934 26.2247C10.4492 26.0908 10.5156 25.9828 10.5926 25.9022C10.7526 25.7525 10.9745 25.6776 11.2568 25.6776C11.5255 25.6776 11.7519 25.7611 11.9331 25.9252C12.1142 26.0908 12.2048 26.3571 12.2048 26.7257ZM10.8341 29.0236L11.3534 29.0639C12.1142 29.1646 12.4946 29.5131 12.4946 30.112C12.4946 30.4691 12.3769 30.7296 12.1444 30.8952C11.915 31.0594 11.6191 31.1429 11.2568 31.1429C10.8975 31.1429 10.6047 31.0594 10.3752 30.8952C10.1458 30.7296 10.0311 30.4691 10.0311 30.112C10.0311 29.8154 10.105 29.5851 10.2545 29.4152C10.4024 29.2467 10.5956 29.1157 10.8341 29.0236Z" fill="white"/>
<path d="M17.5153 29.6974V27.2613C17.5153 26.8582 17.4685 26.5328 17.3764 26.2823C17.2828 26.0289 17.1605 25.8331 17.0081 25.6949C16.8541 25.5653 16.6775 25.476 16.4767 25.4299C16.2744 25.3839 16.0676 25.3608 15.8548 25.3608C15.7008 25.3608 15.5559 25.3695 15.42 25.3839C15.2872 25.3997 15.1544 25.4155 15.0215 25.4299C14.7317 25.4962 14.5339 25.5782 14.4298 25.6776C14.312 25.7899 14.2441 25.9137 14.2245 26.0519C14.2034 26.1901 14.1943 26.337 14.1943 26.4896H14.629C14.697 26.1988 14.8192 25.9986 14.9974 25.8907C15.174 25.7798 15.3974 25.7237 15.6676 25.7237C15.965 25.7237 16.2005 25.8201 16.3741 26.0116C16.4616 26.1311 16.5326 26.2924 16.5854 26.4954C16.6367 26.6955 16.6639 26.9503 16.6639 27.2613H16.3741C16.048 27.2613 15.7401 27.2815 15.4502 27.3189C15.1634 27.3534 14.9098 27.4226 14.6894 27.5262C14.4675 27.6155 14.2909 27.7422 14.1581 27.9063C14.0282 28.0719 13.9648 28.2792 13.9648 28.5283C13.9648 28.7745 14.0131 28.9775 14.1098 29.1387C14.2064 29.3 14.3211 29.431 14.4539 29.5303C14.5898 29.6225 14.7377 29.6902 14.8947 29.7319C15.0547 29.7737 15.2027 29.7953 15.3355 29.7953C15.7008 29.7953 15.9891 29.7391 16.199 29.6282C16.4118 29.5174 16.5673 29.4022 16.6639 29.2827H16.7062L17.0383 29.6974H17.5153ZM16.6639 27.6184V28.845C16.5673 28.9832 16.448 29.1085 16.3077 29.2194C16.1703 29.3273 15.9846 29.3806 15.7521 29.3806C15.5016 29.3806 15.2963 29.3115 15.1362 29.1733C15.0593 29.1013 14.9928 29.012 14.937 28.9084C14.8842 28.8018 14.8585 28.6751 14.8585 28.5283C14.8585 28.2518 14.9928 28.0316 15.263 27.866C15.5317 27.7019 15.9031 27.6184 16.3741 27.6184H16.6639Z" fill="white"/>
<path d="M22.2598 25.459H19.3736C19.0671 25.459 18.8513 25.5324 18.7275 25.6778C18.658 25.7441 18.6143 25.8204 18.5946 25.9082C18.5735 25.9974 18.5645 26.0853 18.5645 26.1731V26.6281H18.7516C18.7516 26.3718 18.8482 26.1717 19.0415 26.0291C19.2347 25.888 19.5321 25.816 19.9351 25.816H21.0159L18.5645 29.5306V29.6976H22.2598V29.3405H19.7057L22.2598 25.459Z" fill="white"/>
<path d="M28.9798 25.459V28.8971C28.8545 29.0281 28.7111 29.1419 28.5511 29.2369C28.3941 29.3333 28.2205 29.3809 28.0318 29.3809C27.9065 29.3809 27.7797 29.3578 27.6514 29.3117C27.5261 29.2657 27.4174 29.1966 27.3253 29.1044C27.2287 29.0123 27.1472 28.8899 27.0838 28.7358C27.0234 28.5789 26.9932 28.3845 26.9932 28.1542V26.5359C26.9932 26.0954 26.9344 25.8016 26.8181 25.6548C26.7487 25.5713 26.6581 25.5166 26.5464 25.4935C26.4377 25.4705 26.3019 25.459 26.1418 25.459H25.375V25.6375H25.4776C25.7554 25.6375 25.9335 25.721 26.015 25.8851C26.0996 26.0507 26.1418 26.2681 26.1418 26.5359V28.1542C26.1418 28.4853 26.1856 28.7531 26.2747 28.9604C26.3668 29.1678 26.489 29.3348 26.643 29.4615C26.8 29.581 26.9706 29.6659 27.1563 29.7149C27.345 29.7681 27.5397 29.7955 27.742 29.7955C28.0318 29.7955 28.2794 29.7465 28.4847 29.6515C28.69 29.5565 28.8545 29.4528 28.9798 29.3405H29.0221L29.3542 29.6976H29.8312V25.459H28.9798Z" fill="white"/>
<path d="M32.1813 29.6974V26.242C32.3051 26.1153 32.447 26.0058 32.6039 25.9137C32.764 25.8216 32.9421 25.7755 33.1353 25.7755C33.4206 25.7755 33.6606 25.8648 33.8538 26.0404C33.9505 26.1297 34.0259 26.2535 34.0833 26.4147C34.1437 26.576 34.1739 26.766 34.1739 26.9849V29.6974H35.0253V26.9849C35.0253 26.6667 34.9785 26.4003 34.8864 26.1844C34.7928 25.9655 34.6705 25.7971 34.518 25.6776C34.3641 25.5509 34.1935 25.4674 34.0048 25.4242C33.8191 25.3824 33.6199 25.3608 33.407 25.3608C33.1293 25.3608 32.8847 25.4112 32.6764 25.5106C32.4711 25.607 32.3051 25.7093 32.1813 25.8158H32.139C32.0907 25.7093 32.0062 25.6229 31.8854 25.5566C31.7646 25.4919 31.579 25.4587 31.3299 25.4587H30.4785V25.6373H30.6657C30.9555 25.6373 31.1382 25.7208 31.2152 25.8849C31.2906 26.0505 31.3299 26.2679 31.3299 26.5357V29.6974H32.1813Z" fill="white"/>
<path d="M37.2773 24.5085C37.2773 24.3559 37.2245 24.2206 37.1203 24.1054C37.0192 23.9902 36.8924 23.9326 36.7399 23.9326C36.4531 23.9326 36.3112 24.0651 36.3112 24.33C36.3112 24.4884 36.3625 24.6237 36.4682 24.7389C36.5724 24.8541 36.6977 24.9116 36.8426 24.9116C37.1324 24.9116 37.2773 24.7777 37.2773 24.5085ZM37.3317 29.6974V26.5357C37.3317 26.0951 37.2728 25.8014 37.1566 25.6546C37.0917 25.571 37.0026 25.5163 36.8909 25.4933C36.7822 25.4703 36.6448 25.4587 36.4803 25.4587H35.6289V25.6373H35.8161C36.1059 25.6373 36.2886 25.7208 36.3656 25.8849C36.441 26.0505 36.4803 26.2679 36.4803 26.5357V29.6974H37.3317Z" fill="white"/>
<path d="M38.8439 25.8158V28.6089C38.8439 29.0235 38.948 29.3259 39.1579 29.5131C39.3707 29.7002 39.6424 29.7952 39.973 29.7952C40.133 29.7952 40.2779 29.7794 40.4078 29.7492C40.5406 29.7218 40.6553 29.6916 40.7519 29.657C40.8486 29.6196 40.9271 29.5807 40.9874 29.5418C41.0508 29.5001 41.1082 29.4598 41.1565 29.4209L41.0659 29.2424C40.9693 29.2885 40.8682 29.3316 40.764 29.3691C40.6584 29.4036 40.524 29.4209 40.3595 29.4209C39.9157 29.4209 39.6953 29.1502 39.6953 28.6089V25.8158H40.8244V25.4587H39.6953V24.0996H39.3088L38.8439 24.6467V25.4587H38.1797V25.8158H38.8439Z" fill="white"/>
<path d="M45.379 27.7163L45.3971 27.3419C45.3971 26.7128 45.2416 26.2247 44.9321 25.8791C44.6257 25.5336 44.1502 25.3608 43.5071 25.3608C43.2082 25.3608 42.9411 25.4184 42.7041 25.5336C42.4701 25.6488 42.2708 25.8086 42.1063 26.0116C41.9402 26.2117 41.818 26.4464 41.738 26.7142C41.6564 26.9791 41.6172 27.2671 41.6172 27.578C41.6172 27.8818 41.6564 28.1655 41.738 28.4304C41.818 28.6953 41.9402 28.93 42.1063 29.133C42.2708 29.3374 42.4776 29.4987 42.7282 29.6167C42.9773 29.7348 43.2656 29.7953 43.5917 29.7953C43.957 29.7953 44.28 29.7218 44.5578 29.5764C44.8355 29.4267 45.0801 29.1834 45.2944 28.845L45.1072 28.7068C44.9412 28.9372 44.754 29.1143 44.5457 29.2366C44.3404 29.3605 44.0838 29.4209 43.7789 29.4209C43.5766 29.4209 43.3984 29.3792 43.2415 29.2942C43.0875 29.2064 42.9546 29.0898 42.8429 28.9429C42.621 28.6291 42.5108 28.2202 42.5108 27.7163H45.379ZM44.4974 27.3419H42.5108C42.5108 26.8668 42.6074 26.4824 42.8007 26.1901C42.8852 26.0447 42.9833 25.931 43.0965 25.8504C43.2128 25.7668 43.3501 25.7237 43.5071 25.7237C43.8407 25.7237 44.0883 25.8648 44.2498 26.1441C44.4144 26.4205 44.4974 26.8207 44.4974 27.3419Z" fill="white"/>
<path d="M50.0844 29.6975V24.8254C50.0844 24.3762 50.0255 24.0796 49.9093 23.9327C49.8399 23.8607 49.7478 23.8103 49.6316 23.783C49.5183 23.7571 49.3795 23.7427 49.2149 23.7427H48.3635V23.9212H48.5688C48.8466 23.9212 49.0232 24.0047 49.1002 24.1688C49.1757 24.3344 49.2149 24.5533 49.2149 24.8254V25.6374C49.07 25.5654 48.9024 25.502 48.7138 25.4473C48.5281 25.3897 48.3001 25.3609 48.0314 25.3609C47.7325 25.3609 47.4714 25.4185 47.2465 25.5337C47.02 25.6489 46.8359 25.8087 46.691 26.0117C46.537 26.2118 46.4253 26.4465 46.3528 26.7143C46.2804 26.9792 46.2441 27.2672 46.2441 27.5782C46.2441 28.2116 46.383 28.73 46.6608 29.1331C46.8057 29.3375 46.9868 29.4988 47.2042 29.6168C47.4216 29.7349 47.6691 29.7954 47.9469 29.7954C48.1401 29.7954 48.3047 29.7781 48.442 29.7435C48.5824 29.7119 48.7017 29.6744 48.7983 29.6284C48.9024 29.5823 48.9855 29.529 49.0458 29.4671C49.1092 29.4023 49.1666 29.3404 49.2149 29.2828H49.2753L49.6074 29.6975H50.0844ZM49.2149 25.9944V28.8854C49.1666 28.9517 49.1153 29.0179 49.064 29.087C49.0111 29.1561 48.9462 29.2137 48.8707 29.2598C48.7168 29.3678 48.5054 29.421 48.2367 29.421C48.0435 29.421 47.8775 29.3735 47.7416 29.2771C47.6088 29.182 47.5001 29.051 47.4155 28.8854C47.3189 28.7213 47.248 28.5269 47.2042 28.3038C47.1589 28.0777 47.1378 27.8359 47.1378 27.5782C47.1378 27.3132 47.1589 27.0699 47.2042 26.8468C47.248 26.6207 47.3189 26.4249 47.4155 26.2594C47.5076 26.0952 47.6284 25.9642 47.7778 25.8677C47.9303 25.7727 48.1114 25.7238 48.3213 25.7238C48.4662 25.7238 48.6141 25.7511 48.7681 25.8044C48.9206 25.8591 49.07 25.9225 49.2149 25.9944Z" fill="white"/>
<path d="M56.1121 24.0131C56.5137 24.0131 56.8156 24.1484 57.0179 24.4162L57.2896 24.1916C57.2413 24.1038 57.193 24.0275 57.1447 23.9613C57.0994 23.8965 57.0375 23.8375 56.9575 23.7827C56.796 23.6906 56.5288 23.6445 56.1544 23.6445C55.9521 23.6445 55.7529 23.6676 55.5566 23.7136C55.3589 23.7597 55.1823 23.8331 55.0253 23.9325C54.8713 24.052 54.7475 24.2132 54.6509 24.4162C54.5543 24.6164 54.506 24.8712 54.506 25.1822V25.4586H53.8418V25.8157H54.506V29.6972H55.3574V25.8157H56.6858V25.4586H55.3574V25.1822C55.3574 24.7445 55.4298 24.4378 55.5748 24.2607C55.7106 24.0966 55.8902 24.0131 56.1121 24.0131Z" fill="white"/>
<path d="M57.2656 27.578C57.2656 28.2115 57.4468 28.7298 57.8091 29.133C57.9811 29.3374 58.1955 29.4987 58.4491 29.6167C58.7057 29.7348 59.0046 29.7953 59.3428 29.7953C59.6688 29.7953 59.9602 29.7348 60.2183 29.6167C60.4794 29.4987 60.7013 29.3374 60.8825 29.133C61.0666 28.93 61.2025 28.6953 61.287 28.4304C61.3746 28.1655 61.4199 27.8818 61.4199 27.578C61.4199 27.2671 61.3746 26.9791 61.287 26.7142C61.2025 26.4464 61.0666 26.2117 60.8825 26.0116C60.7013 25.8086 60.4794 25.6488 60.2183 25.5336C59.9602 25.4184 59.6688 25.3608 59.3428 25.3608C59.0046 25.3608 58.7057 25.4184 58.4491 25.5336C58.1955 25.6488 57.9811 25.8086 57.8091 26.0116C57.4468 26.4147 57.2656 26.9374 57.2656 27.578ZM60.5262 27.578C60.5262 28.1007 60.4191 28.5369 60.2062 28.8853C60.1005 29.0509 59.9737 29.1819 59.8258 29.2769C59.6764 29.3734 59.5148 29.4209 59.3428 29.4209C59.1692 29.4209 59.0107 29.3734 58.8657 29.2769C58.7208 29.1819 58.5955 29.0509 58.4914 28.8853C58.2695 28.5484 58.1593 28.1122 58.1593 27.578C58.1593 27.0367 58.2695 26.5976 58.4914 26.2592C58.5955 26.0951 58.7208 25.9641 58.8657 25.8676C59.0107 25.7726 59.1692 25.7237 59.3428 25.7237C59.5148 25.7237 59.6764 25.7726 59.8258 25.8676C59.9737 25.9641 60.1005 26.0951 60.2062 26.2592C60.4191 26.6091 60.5262 27.0482 60.5262 27.578Z" fill="white"/>
<path d="M63.4678 29.6974V26.3514C63.6686 26.0519 63.966 25.9022 64.3615 25.9022C64.7147 25.9022 64.9653 25.9929 65.1102 26.1729L65.4967 25.9022C65.4393 25.81 65.388 25.7323 65.3397 25.6661C65.2914 25.6013 65.2325 25.5451 65.1646 25.4991C65.0997 25.453 65.0106 25.4184 64.8989 25.3954C64.7902 25.3724 64.6875 25.3608 64.5909 25.3608C64.3132 25.3608 64.0792 25.417 63.8905 25.5279C63.7003 25.6402 63.5599 25.7496 63.4678 25.8561H63.4075C63.3592 25.7222 63.2746 25.6229 63.1539 25.5566C63.0331 25.4919 62.8474 25.4587 62.5983 25.4587H61.8496V25.6373H61.9523C62.23 25.6373 62.4066 25.7208 62.4836 25.8849C62.5591 26.0505 62.5983 26.2679 62.5983 26.5357V29.6974H63.4678Z" fill="white"/>
<path d="M70.0114 25.8159V24.8254C70.0114 24.6065 70.0008 24.4251 69.9812 24.2783C69.9646 24.1328 69.9178 24.0177 69.8423 23.9327C69.7728 23.8607 69.6823 23.8103 69.5706 23.783C69.4619 23.7571 69.3245 23.7427 69.16 23.7427H68.3086V23.9212H68.4958C68.7856 23.9212 68.9683 24.0047 69.0452 24.1688C69.1207 24.3344 69.16 24.5533 69.16 24.8254V29.6975H70.0114V26.2421C70.1351 26.1154 70.2801 26.006 70.4461 25.9138C70.6106 25.8217 70.7842 25.7756 70.9654 25.7756C71.2552 25.7756 71.4937 25.8649 71.6839 26.0405C71.7805 26.1298 71.856 26.2536 71.9134 26.4148C71.9738 26.5761 72.004 26.7661 72.004 26.985V29.6975H72.8553V26.985C72.8553 26.6668 72.8085 26.4004 72.7165 26.1845C72.6229 25.9656 72.5006 25.7972 72.3481 25.6777C72.1942 25.551 72.0236 25.4675 71.8349 25.4243C71.6492 25.3825 71.456 25.3609 71.2552 25.3609C70.9654 25.3609 70.7148 25.4113 70.5065 25.5107C70.3012 25.6071 70.1351 25.7094 70.0114 25.8159Z" fill="white"/>
<path d="M77.0208 25.459V28.8971C76.8955 29.0281 76.7521 29.1419 76.5921 29.2369C76.4351 29.3333 76.2615 29.3809 76.0728 29.3809C75.9475 29.3809 75.8207 29.3578 75.6924 29.3117C75.5671 29.2657 75.4584 29.1966 75.3663 29.1044C75.2697 29.0123 75.1882 28.8899 75.1248 28.7358C75.0644 28.5789 75.0342 28.3845 75.0342 28.1542V26.5359C75.0342 26.0954 74.9754 25.8016 74.8591 25.6548C74.7897 25.5713 74.6991 25.5166 74.5874 25.4935C74.4787 25.4705 74.3429 25.459 74.1829 25.459H73.416V25.6375H73.5187C73.7964 25.6375 73.9745 25.721 74.0561 25.8851C74.1406 26.0507 74.1829 26.2681 74.1829 26.5359V28.1542C74.1829 28.4853 74.2266 28.7531 74.3157 28.9604C74.4078 29.1678 74.5301 29.3348 74.684 29.4615C74.841 29.581 75.0116 29.6659 75.1973 29.7149C75.386 29.7681 75.5807 29.7955 75.783 29.7955C76.0728 29.7955 76.3204 29.7465 76.5257 29.6515C76.731 29.5565 76.8955 29.4528 77.0208 29.3405H77.0631L77.3952 29.6976H77.8722V25.459H77.0208Z" fill="white"/>
<path d="M80.2242 25.8158H80.182C80.1337 25.7093 80.0491 25.6229 79.9284 25.5566C79.8076 25.4919 79.6219 25.4587 79.3729 25.4587H78.5215V25.6373H78.7087C78.9985 25.6373 79.1812 25.7208 79.2581 25.8849C79.3336 26.0505 79.3729 26.2679 79.3729 26.5357V29.6974H80.2242V26.242C80.348 26.1153 80.4899 26.0058 80.6469 25.9137C80.8069 25.8216 80.9851 25.7755 81.1783 25.7755C81.4198 25.7755 81.604 25.8662 81.7338 26.0462C81.8621 26.2232 81.927 26.5357 81.927 26.9849V29.6974H82.7784V26.9849C82.7784 26.8927 82.7754 26.7819 82.7724 26.6509C82.7678 26.517 82.7557 26.4176 82.7361 26.3514C82.7844 26.2794 82.8448 26.2117 82.9173 26.1498C82.9897 26.085 83.0682 26.0202 83.1528 25.954C83.2494 25.9079 83.346 25.8676 83.4426 25.8331C83.5392 25.7956 83.6358 25.7755 83.7324 25.7755C83.9694 25.7755 84.1521 25.8662 84.2819 26.0462C84.4147 26.2232 84.4812 26.5357 84.4812 26.9849V29.6974H85.3325V26.9849C85.3325 26.6667 85.2963 26.4003 85.2238 26.1844C85.1514 25.9655 85.0563 25.7971 84.9401 25.6776C84.8148 25.5509 84.6714 25.4674 84.5113 25.4242C84.3544 25.3824 84.1883 25.3608 84.0162 25.3608C83.7505 25.3608 83.4864 25.417 83.2252 25.5279C82.9671 25.6402 82.7557 25.7956 82.5912 25.9943C82.4735 25.7381 82.3165 25.5682 82.1202 25.4875C81.9225 25.404 81.6991 25.3608 81.45 25.3608C81.1722 25.3608 80.9277 25.4112 80.7194 25.5106C80.5141 25.607 80.348 25.7093 80.2242 25.8158Z" fill="white"/>
<path d="M89.904 29.6974V27.2613C89.904 26.8582 89.8572 26.5328 89.7651 26.2823C89.6715 26.0289 89.5492 25.8331 89.3968 25.6949C89.2428 25.5653 89.0662 25.476 88.8654 25.4299C88.6631 25.3839 88.4563 25.3608 88.2435 25.3608C88.0895 25.3608 87.9446 25.3695 87.8087 25.3839C87.6759 25.3997 87.543 25.4155 87.4102 25.4299C87.1204 25.4962 86.9226 25.5782 86.8185 25.6776C86.7007 25.7899 86.6328 25.9137 86.6132 26.0519C86.592 26.1901 86.583 26.337 86.583 26.4896H87.0177C87.0856 26.1988 87.2079 25.9986 87.386 25.8907C87.5627 25.7798 87.7861 25.7237 88.0563 25.7237C88.3537 25.7237 88.5891 25.8201 88.7627 26.0116C88.8503 26.1311 88.9212 26.2924 88.9741 26.4954C89.0254 26.6955 89.0526 26.9503 89.0526 27.2613H88.7627C88.4367 27.2613 88.1287 27.2815 87.8389 27.3189C87.5521 27.3534 87.2985 27.4226 87.0781 27.5262C86.8562 27.6155 86.6796 27.7422 86.5467 27.9063C86.4169 28.0719 86.3535 28.2792 86.3535 28.5283C86.3535 28.7745 86.4018 28.9775 86.4984 29.1387C86.595 29.3 86.7098 29.431 86.8426 29.5303C86.9785 29.6225 87.1264 29.6902 87.2834 29.7319C87.4434 29.7737 87.5913 29.7953 87.7242 29.7953C88.0895 29.7953 88.3778 29.7391 88.5876 29.6282C88.8005 29.5174 88.956 29.4022 89.0526 29.2827H89.0948L89.4269 29.6974H89.904ZM89.0526 27.6184V28.845C88.956 28.9832 88.8367 29.1085 88.6963 29.2194C88.559 29.3273 88.3733 29.3806 88.1408 29.3806C87.8902 29.3806 87.6849 29.3115 87.5249 29.1733C87.4479 29.1013 87.3815 29.012 87.3257 28.9084C87.2728 28.8018 87.2472 28.6751 87.2472 28.5283C87.2472 28.2518 87.3815 28.0316 87.6517 27.866C87.9204 27.7019 88.2918 27.6184 88.7627 27.6184H89.0526Z" fill="white"/>
<path d="M92.2086 29.6974V26.242C92.3324 26.1153 92.4743 26.0058 92.6313 25.9137C92.7913 25.8216 92.9694 25.7755 93.1627 25.7755C93.448 25.7755 93.688 25.8648 93.8812 26.0404C93.9778 26.1297 94.0533 26.2535 94.1106 26.4147C94.171 26.576 94.2012 26.766 94.2012 26.9849V29.6974H95.0526V26.9849C95.0526 26.6667 95.0058 26.4003 94.9137 26.1844C94.8201 25.9655 94.6979 25.7971 94.5454 25.6776C94.3914 25.5509 94.2208 25.4674 94.0321 25.4242C93.8465 25.3824 93.6472 25.3608 93.4344 25.3608C93.1566 25.3608 92.9121 25.4112 92.7038 25.5106C92.4985 25.607 92.3324 25.7093 92.2086 25.8158H92.1664C92.118 25.7093 92.0335 25.6229 91.9128 25.5566C91.792 25.4919 91.6063 25.4587 91.3572 25.4587H90.5059V25.6373H90.693C90.9829 25.6373 91.1655 25.7208 91.2425 25.8849C91.318 26.0505 91.3572 26.2679 91.3572 26.5357V29.6974H92.2086Z" fill="white"/>
<path d="M100.187 29.6974V26.3514C100.387 26.0519 100.685 25.9022 101.08 25.9022C101.433 25.9022 101.684 25.9929 101.829 26.1729L102.215 25.9022C102.158 25.81 102.107 25.7323 102.058 25.6661C102.01 25.6013 101.951 25.5451 101.883 25.4991C101.818 25.453 101.729 25.4184 101.618 25.3954C101.509 25.3724 101.406 25.3608 101.31 25.3608C101.032 25.3608 100.798 25.417 100.609 25.5279C100.419 25.6402 100.279 25.7496 100.187 25.8561H100.126C100.078 25.7222 99.9934 25.6229 99.8726 25.5566C99.7518 25.4919 99.5662 25.4587 99.3171 25.4587H98.5684V25.6373H98.671C98.9488 25.6373 99.1254 25.7208 99.2024 25.8849C99.2778 26.0505 99.3171 26.2679 99.3171 26.5357V29.6974H100.187Z" fill="white"/>
<path d="M106.516 27.7163L106.534 27.3419C106.534 26.7128 106.378 26.2247 106.069 25.8791C105.762 25.5336 105.287 25.3608 104.644 25.3608C104.345 25.3608 104.078 25.4184 103.841 25.5336C103.607 25.6488 103.408 25.8086 103.243 26.0116C103.077 26.2117 102.955 26.4464 102.875 26.7142C102.793 26.9791 102.754 27.2671 102.754 27.578C102.754 27.8818 102.793 28.1655 102.875 28.4304C102.955 28.6953 103.077 28.93 103.243 29.133C103.408 29.3374 103.614 29.4987 103.865 29.6167C104.114 29.7348 104.402 29.7953 104.728 29.7953C105.094 29.7953 105.417 29.7218 105.694 29.5764C105.972 29.4267 106.217 29.1834 106.431 28.845L106.244 28.7068C106.078 28.9372 105.891 29.1143 105.682 29.2366C105.477 29.3605 105.22 29.4209 104.916 29.4209C104.713 29.4209 104.535 29.3792 104.378 29.2942C104.224 29.2064 104.091 29.0898 103.98 28.9429C103.758 28.6291 103.648 28.2202 103.648 27.7163H106.516ZM105.634 27.3419H103.648C103.648 26.8668 103.744 26.4824 103.937 26.1901C104.022 26.0447 104.12 25.931 104.233 25.8504C104.349 25.7668 104.487 25.7237 104.644 25.7237C104.977 25.7237 105.225 25.8648 105.387 26.1441C105.551 26.4205 105.634 26.8207 105.634 27.3419Z" fill="white"/>
<path d="M110.756 28.6089C110.756 28.2979 110.65 28.0488 110.442 27.8602C110.237 27.6731 109.932 27.5003 109.53 27.3419L108.95 27.1231C108.451 26.9244 108.202 26.6667 108.202 26.3514C108.202 26.1714 108.282 26.0217 108.443 25.9022C108.608 25.7841 108.845 25.7237 109.156 25.7237C109.53 25.7237 109.821 25.8086 110.031 25.9771C110.244 26.1469 110.375 26.3773 110.424 26.6681H110.611C110.611 26.4421 110.6 26.2578 110.581 26.1153C110.564 25.9742 110.498 25.8432 110.381 25.7237C110.256 25.6128 110.077 25.525 109.844 25.4587C109.615 25.394 109.316 25.3608 108.95 25.3608C108.479 25.3608 108.111 25.4631 107.845 25.6661C107.708 25.7582 107.598 25.8777 107.513 26.0231C107.432 26.17 107.393 26.3399 107.393 26.5357C107.393 26.8279 107.492 27.0698 107.694 27.2613C107.9 27.4542 108.179 27.6184 108.534 27.7566L109.095 27.9754C109.385 28.0949 109.598 28.2159 109.735 28.3382C109.876 28.4577 109.947 28.6075 109.947 28.7874C109.947 28.9717 109.864 29.1243 109.699 29.2424C109.538 29.3619 109.273 29.4209 108.908 29.4209C108.505 29.4209 108.196 29.3374 107.978 29.1675C107.761 28.9991 107.63 28.7673 107.586 28.4707H107.393C107.393 28.701 107.402 28.8911 107.423 29.0408C107.442 29.1877 107.515 29.3144 107.64 29.4209C107.756 29.5404 107.933 29.6326 108.172 29.6974C108.413 29.7621 108.721 29.7953 109.095 29.7953C109.586 29.7953 109.98 29.6902 110.279 29.4785C110.596 29.2755 110.756 28.9861 110.756 28.6089Z" fill="white"/>
<path d="M111.594 27.578C111.594 28.2115 111.775 28.7298 112.137 29.133C112.309 29.3374 112.524 29.4987 112.777 29.6167C113.034 29.7348 113.333 29.7953 113.671 29.7953C113.997 29.7953 114.288 29.7348 114.546 29.6167C114.808 29.4987 115.029 29.3374 115.211 29.133C115.395 28.93 115.531 28.6953 115.615 28.4304C115.703 28.1655 115.748 27.8818 115.748 27.578C115.748 27.2671 115.703 26.9791 115.615 26.7142C115.531 26.4464 115.395 26.2117 115.211 26.0116C115.029 25.8086 114.808 25.6488 114.546 25.5336C114.288 25.4184 113.997 25.3608 113.671 25.3608C113.333 25.3608 113.034 25.4184 112.777 25.5336C112.524 25.6488 112.309 25.8086 112.137 26.0116C111.775 26.4147 111.594 26.9374 111.594 27.578ZM114.854 27.578C114.854 28.1007 114.747 28.5369 114.534 28.8853C114.429 29.0509 114.302 29.1819 114.154 29.2769C114.004 29.3734 113.843 29.4209 113.671 29.4209C113.497 29.4209 113.339 29.3734 113.194 29.2769C113.049 29.1819 112.924 29.0509 112.819 28.8853C112.598 28.5484 112.487 28.1122 112.487 27.578C112.487 27.0367 112.598 26.5976 112.819 26.2592C112.924 26.0951 113.049 25.9641 113.194 25.8676C113.339 25.7726 113.497 25.7237 113.671 25.7237C113.843 25.7237 114.004 25.7726 114.154 25.8676C114.302 25.9641 114.429 26.0951 114.534 26.2592C114.747 26.6091 114.854 27.0482 114.854 27.578Z" fill="white"/>
<path d="M119.71 25.459V28.8971C119.585 29.0281 119.442 29.1419 119.282 29.2369C119.125 29.3333 118.951 29.3809 118.762 29.3809C118.637 29.3809 118.51 29.3578 118.382 29.3117C118.257 29.2657 118.148 29.1966 118.056 29.1044C117.959 29.0123 117.878 28.8899 117.814 28.7358C117.754 28.5789 117.724 28.3845 117.724 28.1542V26.5359C117.724 26.0954 117.665 25.8016 117.549 25.6548C117.479 25.5713 117.389 25.5166 117.277 25.4935C117.168 25.4705 117.032 25.459 116.872 25.459H116.105V25.6375H116.208C116.486 25.6375 116.664 25.721 116.746 25.8851C116.83 26.0507 116.872 26.2681 116.872 26.5359V28.1542C116.872 28.4853 116.916 28.7531 117.005 28.9604C117.097 29.1678 117.22 29.3348 117.373 29.4615C117.53 29.581 117.701 29.6659 117.887 29.7149C118.075 29.7681 118.27 29.7955 118.472 29.7955C118.762 29.7955 119.01 29.7465 119.215 29.6515C119.42 29.5565 119.585 29.4528 119.71 29.3405H119.753L120.085 29.6976H120.562V25.459H119.71Z" fill="white"/>
<path d="M122.858 29.6974V26.3514C123.059 26.0519 123.357 25.9022 123.752 25.9022C124.105 25.9022 124.356 25.9929 124.501 26.1729L124.887 25.9022C124.83 25.81 124.779 25.7323 124.73 25.6661C124.682 25.6013 124.623 25.5451 124.555 25.4991C124.49 25.453 124.401 25.4184 124.29 25.3954C124.181 25.3724 124.078 25.3608 123.982 25.3608C123.704 25.3608 123.47 25.417 123.281 25.5279C123.091 25.6402 122.951 25.7496 122.858 25.8561H122.798C122.75 25.7222 122.665 25.6229 122.544 25.5566C122.424 25.4919 122.238 25.4587 121.989 25.4587H121.24V25.6373H121.343C121.621 25.6373 121.797 25.7208 121.874 25.8849C121.95 26.0505 121.989 26.2679 121.989 26.5357V29.6974H122.858Z" fill="white"/>
<path d="M127.503 25.3608C127.144 25.3608 126.834 25.4184 126.573 25.5336C126.315 25.6488 126.099 25.8086 125.927 26.0116C125.753 26.2117 125.627 26.4464 125.547 26.7142C125.465 26.9791 125.426 27.2671 125.426 27.578C125.426 27.8818 125.465 28.1655 125.547 28.4304C125.627 28.6953 125.753 28.93 125.927 29.133C126.099 29.3374 126.315 29.4987 126.573 29.6167C126.834 29.7348 127.144 29.7953 127.503 29.7953C127.877 29.7953 128.206 29.7218 128.493 29.5764C128.783 29.4267 129.034 29.1834 129.248 28.845L129.061 28.7068C128.895 28.9372 128.708 29.1143 128.499 29.2366C128.294 29.3605 128.024 29.4209 127.69 29.4209C127.449 29.4209 127.243 29.3734 127.074 29.2769C126.905 29.1819 126.763 29.0509 126.652 28.8853C126.534 28.7212 126.449 28.5268 126.398 28.3037C126.345 28.0776 126.319 27.8358 126.319 27.578C126.319 27.3131 126.345 27.0698 126.398 26.8467C126.449 26.6206 126.534 26.4248 126.652 26.2592C126.763 26.0951 126.905 25.9641 127.074 25.8676C127.243 25.7726 127.449 25.7237 127.69 25.7237C128.024 25.7237 128.306 25.8187 128.535 26.0058C128.768 26.1945 128.895 26.4752 128.916 26.8467H129.103C129.103 26.6825 129.103 26.5386 129.103 26.4147C129.103 26.2924 129.092 26.1844 129.073 26.0922C129.044 25.9195 128.978 25.7812 128.874 25.6776C128.756 25.571 128.581 25.4919 128.348 25.4415C128.119 25.3882 127.837 25.3608 127.503 25.3608Z" fill="white"/>
<path d="M133.76 27.7163L133.778 27.3419C133.778 26.7128 133.622 26.2247 133.313 25.8791C133.007 25.5336 132.531 25.3608 131.888 25.3608C131.589 25.3608 131.322 25.4184 131.085 25.5336C130.851 25.6488 130.652 25.8086 130.487 26.0116C130.321 26.2117 130.199 26.4464 130.119 26.7142C130.037 26.9791 129.998 27.2671 129.998 27.578C129.998 27.8818 130.037 28.1655 130.119 28.4304C130.199 28.6953 130.321 28.93 130.487 29.133C130.652 29.3374 130.858 29.4987 131.109 29.6167C131.358 29.7348 131.646 29.7953 131.973 29.7953C132.338 29.7953 132.661 29.7218 132.939 29.5764C133.216 29.4267 133.461 29.1834 133.675 28.845L133.488 28.7068C133.322 28.9372 133.135 29.1143 132.927 29.2366C132.721 29.3605 132.465 29.4209 132.16 29.4209C131.957 29.4209 131.779 29.3792 131.622 29.2942C131.468 29.2064 131.336 29.0898 131.224 28.9429C131.002 28.6291 130.892 28.2202 130.892 27.7163H133.76ZM132.878 27.3419H130.892C130.892 26.8668 130.988 26.4824 131.182 26.1901C131.266 26.0447 131.364 25.931 131.477 25.8504C131.594 25.7668 131.731 25.7237 131.888 25.7237C132.222 25.7237 132.469 25.8648 132.631 26.1441C132.795 26.4205 132.878 26.8207 132.878 27.3419Z" fill="white"/>
<path d="M138 28.6089C138 28.2979 137.894 28.0488 137.686 27.8602C137.481 27.6731 137.176 27.5003 136.774 27.3419L136.195 27.1231C135.695 26.9244 135.446 26.6667 135.446 26.3514C135.446 26.1714 135.526 26.0217 135.687 25.9022C135.852 25.7841 136.089 25.7237 136.4 25.7237C136.774 25.7237 137.066 25.8086 137.275 25.9771C137.488 26.1469 137.62 26.3773 137.668 26.6681H137.855C137.855 26.4421 137.844 26.2578 137.825 26.1153C137.808 25.9742 137.742 25.8432 137.626 25.7237C137.5 25.6128 137.321 25.525 137.088 25.4587C136.859 25.394 136.56 25.3608 136.195 25.3608C135.724 25.3608 135.355 25.4631 135.09 25.6661C134.952 25.7582 134.842 25.8777 134.757 26.0231C134.676 26.17 134.637 26.3399 134.637 26.5357C134.637 26.8279 134.736 27.0698 134.939 27.2613C135.144 27.4542 135.423 27.6184 135.778 27.7566L136.339 27.9754C136.629 28.0949 136.842 28.2159 136.98 28.3382C137.12 28.4577 137.191 28.6075 137.191 28.7874C137.191 28.9717 137.108 29.1243 136.943 29.2424C136.782 29.3619 136.518 29.4209 136.152 29.4209C135.749 29.4209 135.44 29.3374 135.222 29.1675C135.005 28.9991 134.874 28.7673 134.83 28.4707H134.637C134.637 28.701 134.646 28.8911 134.667 29.0408C134.687 29.1877 134.759 29.3144 134.884 29.4209C135.001 29.5404 135.177 29.6326 135.416 29.6974C135.657 29.7621 135.965 29.7953 136.339 29.7953C136.83 29.7953 137.224 29.6902 137.523 29.4785C137.84 29.2755 138 28.9861 138 28.6089Z" fill="white"/>
<path d="M1.98052 13.8301C2.15261 13.8301 2.29601 13.8877 2.40923 14.0028C2.52546 14.1151 2.58434 14.2534 2.58434 14.4175C2.58434 14.5759 2.52546 14.7112 2.40923 14.8264C2.29601 14.9416 2.15261 14.9992 1.98052 14.9992C1.80239 14.9992 1.65748 14.9416 1.54577 14.8264C1.43255 14.7112 1.3767 14.5759 1.3767 14.4175C1.3767 14.2534 1.43255 14.1151 1.54577 14.0028C1.65748 13.8877 1.80239 13.8301 1.98052 13.8301ZM3.50214 13.8301C3.67422 13.8301 3.81914 13.8877 3.93688 14.0028C4.05765 14.1151 4.11803 14.2534 4.11803 14.4175C4.11803 14.5759 4.05765 14.7112 3.93688 14.8264C3.81914 14.9416 3.67422 14.9992 3.50214 14.9992C3.33609 14.9992 3.19419 14.9416 3.07343 14.8264C2.95266 14.7112 2.89228 14.5759 2.89228 14.4175C2.89228 14.2534 2.95266 14.1151 3.07343 14.0028C3.19419 13.8877 3.33609 13.8301 3.50214 13.8301ZM6.01401 16.0242H5.85098C5.61248 16.0242 5.46001 16.0905 5.39208 16.2201C5.32717 16.3511 5.29547 16.5195 5.29547 16.7268V20.0613H6.75067V20.4529H2.72925C2.04392 20.4342 1.42803 20.2153 0.881572 19.7964C0.618912 19.5891 0.406067 19.3501 0.241527 19.0765C0.0800056 18.8001 0 18.4891 0 18.1436C0 17.4496 0.309456 16.8967 0.929878 16.485C1.55332 16.0746 2.39262 15.8688 3.44779 15.8688H6.01401V16.0242ZM4.06972 20.0613V16.4331C3.75574 16.3381 3.42515 16.3007 3.07946 16.3237C2.7368 16.3439 2.42432 16.4259 2.14355 16.5714C1.85674 16.7182 1.62427 16.9227 1.44312 17.1876C1.265 17.4525 1.17744 17.7779 1.17744 18.1608C1.17744 18.6907 1.32387 19.1384 1.61823 19.5027C1.75107 19.6682 1.91108 19.8021 2.10128 19.9058C2.28997 20.0095 2.4998 20.0613 2.72925 20.0613H4.06972Z" fill="white"/>
<path d="M9.7749 16.0588H9.61187C9.36128 16.0588 9.20731 16.125 9.14693 16.2546C9.08655 16.3813 9.05636 16.5483 9.05636 16.7556V18.2069C9.05636 18.5525 8.99296 18.8634 8.86917 19.1399C8.74388 19.4134 8.58236 19.6438 8.38612 19.8309C7.971 20.2456 7.5121 20.4529 7.00942 20.4529H6.09766V20.0613H6.3573C6.52939 20.0613 6.70147 20.0368 6.87054 19.9864C7.03961 19.9332 7.1966 19.8453 7.34152 19.7215C7.46983 19.5948 7.57701 19.4336 7.66154 19.2378C7.74909 19.0391 7.80646 18.7943 7.83061 18.5064V15.9033H9.7749V16.0588ZM7.48643 21.3571C7.65852 21.3571 7.80193 21.4147 7.91514 21.5298C8.03138 21.645 8.09025 21.7789 8.09025 21.933C8.09025 22.0971 8.03138 22.2382 7.91514 22.3534C7.80193 22.4686 7.65852 22.5261 7.48643 22.5261C7.31284 22.5261 7.16792 22.4686 7.05169 22.3534C6.93847 22.2382 6.88262 22.0971 6.88262 21.933C6.88262 21.7789 6.93847 21.645 7.05169 21.5298C7.16792 21.4147 7.31284 21.3571 7.48643 21.3571ZM9.00805 21.3571C9.18014 21.3571 9.32807 21.4147 9.44884 21.5298C9.5696 21.645 9.62998 21.7789 9.62998 21.933C9.62998 22.0971 9.5696 22.2382 9.44884 22.3534C9.32807 22.4686 9.18014 22.5261 9.00805 22.5261C8.842 22.5261 8.70011 22.4686 8.57934 22.3534C8.4616 22.2382 8.40424 22.0971 8.40424 21.933C8.40424 21.7789 8.4616 21.645 8.57934 21.5298C8.70011 21.4147 8.842 21.3571 9.00805 21.3571Z" fill="white"/>
<path d="M12.7175 16.0243H12.5545C12.313 16.0243 12.159 16.0877 12.0956 16.2144C12.0307 16.3382 11.999 16.5023 11.999 16.7097V20.0614H13.9916V20.453H11.9809C11.9809 20.8676 11.8918 21.2045 11.7152 21.4666C11.5416 21.7272 11.3408 21.9345 11.1114 22.0885C10.885 22.2455 10.654 22.3607 10.417 22.4341C10.183 22.5061 10.0034 22.5579 9.87356 22.5896C9.76487 22.6083 9.70449 22.6025 9.69241 22.5723C9.66826 22.5521 9.68487 22.5277 9.74072 22.4974C9.98225 22.3592 10.1694 22.2037 10.3023 22.0309C10.4381 21.8611 10.5453 21.6825 10.6223 21.4954C10.6857 21.3183 10.728 21.1412 10.7491 20.9655C10.7732 20.7884 10.7853 20.6229 10.7853 20.4703V15.8516H12.7175V16.0243Z" fill="white"/>
<path d="M18.7481 12.5C18.9202 12.5 19.0681 12.5576 19.1889 12.6728C19.3096 12.7879 19.37 12.929 19.37 13.0932C19.37 13.2515 19.3096 13.3869 19.1889 13.5021C19.0681 13.6144 18.9202 13.6691 18.7481 13.6691C18.582 13.6691 18.4401 13.6144 18.3194 13.5021C18.2016 13.3869 18.1443 13.2515 18.1443 13.0932C18.1443 12.929 18.2016 12.7879 18.3194 12.6728C18.4401 12.5576 18.582 12.5 18.7481 12.5ZM17.9933 13.8303C18.1699 13.8303 18.3148 13.8879 18.4281 14.0031C18.5443 14.1154 18.6032 14.2536 18.6032 14.4177C18.6032 14.5761 18.5443 14.7114 18.4281 14.8266C18.3148 14.9418 18.1699 14.9994 17.9933 14.9994C17.8197 14.9994 17.6748 14.9418 17.5586 14.8266C17.4454 14.7114 17.3895 14.5761 17.3895 14.4177C17.3895 14.2536 17.4454 14.1154 17.5586 14.0031C17.6748 13.8879 17.8197 13.8303 17.9933 13.8303ZM19.5149 13.8303C19.687 13.8303 19.835 13.8879 19.9557 14.0031C20.0765 14.1154 20.1369 14.2536 20.1369 14.4177C20.1369 14.5761 20.0765 14.7114 19.9557 14.8266C19.835 14.9418 19.687 14.9994 19.5149 14.9994C19.3534 14.9994 19.213 14.9418 19.0923 14.8266C18.9715 14.7114 18.9111 14.5761 18.9111 14.4177C18.9111 14.2536 18.9715 14.1154 19.0923 14.0031C19.213 13.8879 19.3534 13.8303 19.5149 13.8303ZM23.0654 16.013H22.9144C22.6638 16.013 22.5099 16.0792 22.4495 16.2088C22.3891 16.3355 22.3589 16.5025 22.3589 16.7098V18.4605C22.3831 18.9904 22.534 19.3906 22.8118 19.6584C23.0895 19.9276 23.4609 20.0615 23.9288 20.0615H24.3515V20.4532H23.2586C23.0291 20.4344 22.8495 20.3984 22.7212 20.3437C22.5763 20.2948 22.4253 20.2113 22.2683 20.0961C22.1113 19.9809 21.9876 19.8571 21.9 19.7218C21.7143 19.9492 21.4834 20.1278 21.2056 20.2573C20.9279 20.3884 20.6154 20.4532 20.2697 20.4532C19.9753 20.4532 19.6795 20.3927 19.3821 20.2689C19.2402 20.2041 19.1074 20.1235 18.9836 20.027C18.8583 19.9276 18.7737 19.8053 18.73 19.6584C18.576 19.9089 18.3692 20.0961 18.108 20.2228C17.8454 20.3466 17.5737 20.4128 17.2929 20.4244C16.9985 20.433 16.7132 20.3826 16.4355 20.2746C16.1577 20.1638 15.9298 19.9953 15.7532 19.7678C15.5599 19.9564 15.3486 20.1177 15.1191 20.2516C14.8897 20.3869 14.6119 20.4532 14.2859 20.4532H13.3379V20.0615H13.6338C13.8058 20.0615 13.9779 20.0356 14.147 19.9809C14.3161 19.9233 14.47 19.8312 14.6119 19.7045C14.7403 19.5821 14.8489 19.4223 14.938 19.2265C15.0256 19.0278 15.0799 18.7816 15.101 18.4893V16.1973H17.0453V16.3528H16.9004C16.6498 16.3528 16.4868 16.419 16.4113 16.5486C16.3343 16.6796 16.2966 16.848 16.2966 17.0554V19.2035C16.2966 19.4453 16.3841 19.6527 16.5623 19.8254C16.7434 19.9953 16.9578 20.0788 17.2084 20.0788C17.462 20.0788 17.6688 19.9953 17.8303 19.8254C17.9948 19.6527 18.0869 19.4453 18.108 19.2035V16.0245H20.0403V16.18H19.8772C19.6357 16.18 19.4847 16.2462 19.4244 16.3758C19.364 16.5068 19.3338 16.6753 19.3338 16.8826V19.3014C19.3579 19.5087 19.4546 19.6858 19.6236 19.8312C19.7927 19.978 19.9919 20.05 20.2214 20.05C20.4705 20.05 20.6833 19.968 20.8614 19.8024C21.0426 19.6339 21.1332 19.4309 21.1332 19.1919V15.8517H23.0654V16.013Z" fill="white"/>
<path d="M27.0987 16.0588H26.9357C26.6941 16.0588 26.5402 16.125 26.4768 16.2546C26.4119 16.3813 26.3802 16.5483 26.3802 16.7556V20.0613H28.572V20.4529H23.6992V20.0613H25.1544V15.9033H27.0987V16.0588ZM25.7582 21.3571C25.9303 21.3571 26.0783 21.4147 26.199 21.5298C26.3198 21.645 26.3802 21.7789 26.3802 21.933C26.3802 22.0971 26.3198 22.2382 26.199 22.3534C26.0783 22.4686 25.9303 22.5261 25.7582 22.5261C25.5922 22.5261 25.4503 22.4686 25.3295 22.3534C25.2118 22.2382 25.1544 22.0971 25.1544 21.933C25.1544 21.7789 25.2118 21.645 25.3295 21.5298C25.4503 21.4147 25.5922 21.3571 25.7582 21.3571Z" fill="white"/>
<path d="M31.6094 13.7036V13.8764C31.2909 13.8764 31.0916 13.9397 31.0116 14.0664C30.9301 14.1902 30.8909 14.3544 30.8909 14.5617V18.2878C30.8909 18.9414 30.6931 19.4655 30.2991 19.86C30.1135 20.0486 29.8976 20.194 29.6531 20.2976C29.407 20.4013 29.1368 20.4531 28.8439 20.4531H27.9141V20.0615H28.1918C28.3639 20.0615 28.5375 20.0356 28.7111 19.9809C28.8877 19.9233 29.0402 19.8312 29.17 19.7045C29.3028 19.5821 29.4115 19.4223 29.4961 19.2265C29.5836 19.0278 29.641 18.7816 29.6651 18.4893V13.7036H31.6094Z" fill="white"/>
<path d="M34.274 13.7209V13.8591C33.9555 13.8591 33.7577 13.9253 33.6823 14.0549C33.6053 14.1859 33.5675 14.3544 33.5675 14.5617V20.4531H32.3418V13.7036L34.274 13.7209Z" fill="white"/>
<path d="M39.4873 15.7598C39.8888 15.7598 40.2481 15.8231 40.5621 15.9498C40.8791 16.0736 41.1493 16.2378 41.3712 16.4451C41.8255 16.9029 42.0535 17.4587 42.0535 18.1152C42.0535 18.7804 41.8255 19.3303 41.3712 19.768C41.1493 19.9753 40.8791 20.1424 40.5621 20.269C40.2481 20.3929 39.8888 20.4533 39.4873 20.4533H37.543V20.0617H39.2759C39.7861 20.0617 40.1786 19.876 40.4534 19.5031C40.5817 19.3275 40.6768 19.1201 40.7372 18.8811C40.7975 18.6393 40.8277 18.3844 40.8277 18.1152C40.8277 17.5551 40.6979 17.1102 40.4413 16.7791C40.1877 16.4451 39.7922 16.2781 39.2578 16.2781C38.8789 16.2781 38.5604 16.3529 38.3038 16.5027C38.0456 16.6524 37.9007 16.9346 37.869 17.3492H37.6577C37.6577 16.9893 37.6668 16.7201 37.6879 16.543C37.712 16.3673 37.7936 16.2205 37.9354 16.1053C38.0683 15.9786 38.2645 15.8908 38.5272 15.8404C38.7883 15.7871 39.1084 15.7598 39.4873 15.7598Z" fill="white"/>
<path d="M45.0808 16.0243H44.9178C44.6763 16.0243 44.5223 16.0877 44.4589 16.2144C44.394 16.3382 44.3623 16.5023 44.3623 16.7097V20.453C44.3623 20.8676 44.2732 21.2045 44.0966 21.4666C43.923 21.7272 43.7222 21.9345 43.4928 22.0885C43.2543 22.2455 43.0173 22.3607 42.7803 22.4341C42.5463 22.5061 42.3667 22.5579 42.2368 22.5896C42.1282 22.6083 42.0678 22.6025 42.0557 22.5723C42.0315 22.5521 42.0481 22.5277 42.104 22.4974C42.3455 22.3592 42.5327 22.2037 42.6656 22.0309C42.8014 21.8611 42.9086 21.6825 42.9856 21.4954C43.049 21.3183 43.0912 21.1412 43.1124 20.9655C43.1365 20.7884 43.1486 20.6229 43.1486 20.4703V15.8516H45.0808V16.0243Z" fill="white"/>
<path d="M47.8267 13.7209V13.8591C47.5082 13.8591 47.3105 13.9253 47.235 14.0549C47.158 14.1859 47.1203 14.3544 47.1203 14.5617V20.4531H45.8945V13.7036L47.8267 13.7209Z" fill="white"/>
<path d="M53.8363 15.9955H53.6732C53.4347 15.9955 53.2823 16.0589 53.2143 16.1856C53.1494 16.3094 53.1177 16.4735 53.1177 16.6808V20.0614H54.5548V20.453H53.0875V20.6718C53.0875 21.0865 53.003 21.4234 52.8339 21.6854C52.6649 21.946 52.4656 22.1476 52.2362 22.2901C51.9946 22.447 51.7561 22.5579 51.5237 22.6241C51.2897 22.6932 51.1085 22.7422 50.9802 22.7738C50.8791 22.7969 50.8247 22.7926 50.8172 22.7623C50.781 22.7393 50.79 22.7119 50.8474 22.6817C51.0844 22.5579 51.2716 22.411 51.4089 22.2383C51.5448 22.0655 51.652 21.8812 51.729 21.6854C51.8044 21.4968 51.8527 21.2952 51.8739 21.0807C51.898 20.8691 51.9101 20.6603 51.9101 20.453H51.0587C50.5787 20.453 50.1409 20.3939 49.7424 20.2744C49.3439 20.1564 49.0027 19.9966 48.722 19.7964C48.4397 19.5891 48.2178 19.3501 48.0578 19.0766C47.9008 18.8001 47.8223 18.4892 47.8223 18.1436C47.8223 17.4381 48.1317 16.8752 48.7521 16.4562C49.3756 16.0344 50.2149 15.8228 51.2701 15.8228H53.8363V15.9955ZM51.095 16.2777C50.4821 16.2777 49.9794 16.4332 49.5854 16.7442C49.1944 17.0552 48.9997 17.5217 48.9997 18.1436C48.9997 18.7397 49.1718 19.2033 49.519 19.5373C49.8692 19.8684 50.3055 20.0585 50.8293 20.1074H51.892V16.3814C51.6535 16.3123 51.3878 16.2777 51.095 16.2777Z" fill="white"/>
<path d="M58.5778 15.8691C59.0035 15.8691 59.396 15.9382 59.7553 16.0765C60.113 16.2118 60.4074 16.386 60.6369 16.6005C60.8859 16.8424 61.0716 17.116 61.1924 17.4183C61.3131 17.7178 61.3826 18.0331 61.4037 18.3628V18.5643C61.4158 18.8681 61.4535 19.1158 61.5184 19.3073C61.5864 19.5002 61.6754 19.6528 61.7841 19.768C61.8928 19.8831 62.0166 19.9623 62.1585 20.0041C62.2989 20.043 62.4558 20.0617 62.6294 20.0617H63.2514V20.4533H62.1887C62.0271 20.4346 61.8747 20.4043 61.7298 20.3611C61.5879 20.3194 61.4701 20.2517 61.3735 20.1596C61.3161 20.1063 61.2663 20.0545 61.2226 20.0041C61.1818 19.9508 61.1395 19.8932 61.0958 19.8313C60.9539 20.0818 60.7712 20.3064 60.5463 20.5051C60.3244 20.7081 60.033 20.8679 59.6707 20.9831C59.2994 21.1098 58.8813 21.1732 58.4148 21.1732C57.9876 21.1732 57.5997 21.1041 57.2494 20.9658C56.9022 20.8305 56.6154 20.6549 56.386 20.436C56.2894 20.3439 56.2018 20.2488 56.1263 20.1481C56.0494 20.0487 55.9844 19.9465 55.9331 19.8428C55.7882 20.1049 55.5799 20.2776 55.3112 20.3611C55.1572 20.4115 55.0048 20.4418 54.8523 20.4533H53.9043V20.0617H54.4115C54.5715 20.0617 54.721 20.0444 54.8583 20.0098C54.9942 19.9724 55.118 19.9004 55.2267 19.7968C55.444 19.5894 55.5738 19.2266 55.6191 18.7083V18.5183C55.6191 17.7091 55.8909 17.0656 56.4343 16.589C56.937 16.1096 57.651 15.8691 58.5778 15.8691ZM58.5295 16.2895C58.0057 16.2895 57.5966 16.4782 57.3038 16.8539C57.1619 17.0497 57.0532 17.2628 56.9777 17.4932C56.9007 17.7207 56.863 18.01 56.863 18.3628C56.863 18.7587 56.9083 19.0855 57.0019 19.3418C57.094 19.5952 57.2162 19.8356 57.3702 20.0617C57.6842 20.4994 58.0857 20.7182 58.5778 20.7182C59.0881 20.7182 59.4911 20.5253 59.7855 20.1423C59.9379 19.9551 60.0406 19.7493 60.0934 19.5261C60.1493 19.3044 60.1779 19.0193 60.1779 18.6738C60.1779 18.2822 60.1417 17.9539 60.0693 17.689C59.9998 17.4212 59.8896 17.1793 59.7372 16.9633C59.4307 16.5141 59.0277 16.2895 58.5295 16.2895Z" fill="white"/>
<path d="M66.2568 13.7036V13.8764C65.9428 13.8764 65.7435 13.9397 65.659 14.0664C65.5775 14.1902 65.5382 14.3544 65.5382 14.5617V18.472C65.5941 19.5317 66.1179 20.0615 67.1082 20.0615H67.3557V20.4531H66.4198C66.2024 20.4416 66.0243 20.4114 65.8885 20.361C65.7511 20.3077 65.5896 20.2141 65.4054 20.0788C65.256 19.9867 65.1427 19.8715 65.0673 19.7333C64.6718 20.2141 64.1495 20.4531 63.4973 20.4531H62.5977V20.0615H62.8392C63.0158 20.0615 63.1909 20.0356 63.3645 19.9809C63.5366 19.9233 63.6906 19.8312 63.8234 19.7045C63.9517 19.5821 64.0604 19.4223 64.1495 19.2265C64.237 19.0278 64.2914 18.7816 64.3125 18.4893V13.7036H66.2568Z" fill="white"/>
<path d="M70.3946 13.7036V13.8764C70.0761 13.8764 69.8768 13.9397 69.7968 14.0664C69.7153 14.1902 69.676 14.3544 69.676 14.5617V18.2878C69.676 18.9414 69.4783 19.4655 69.0843 19.86C68.8986 20.0486 68.6828 20.194 68.4382 20.2976C68.1922 20.4013 67.9219 20.4531 67.6291 20.4531H66.6992V20.0615H66.977C67.1491 20.0615 67.3227 20.0356 67.4963 19.9809C67.6729 19.9233 67.8253 19.8312 67.9552 19.7045C68.088 19.5821 68.1967 19.4223 68.2812 19.2265C68.3688 19.0278 68.4261 18.7816 68.4503 18.4893V13.7036H70.3946Z" fill="white"/>
<path d="M76.2129 13.8301C76.385 13.8301 76.5284 13.8877 76.6416 14.0028C76.7579 14.1151 76.8168 14.2534 76.8168 14.4175C76.8168 14.5759 76.7579 14.7112 76.6416 14.8264C76.5284 14.9416 76.385 14.9992 76.2129 14.9992C76.0348 14.9992 75.8899 14.9416 75.7782 14.8264C75.665 14.7112 75.6091 14.5759 75.6091 14.4175C75.6091 14.2534 75.665 14.1151 75.7782 14.0028C75.8899 13.8877 76.0348 13.8301 76.2129 13.8301ZM77.7285 13.8301C77.9051 13.8301 78.0516 13.8877 78.1693 14.0028C78.2901 14.1151 78.3505 14.2534 78.3505 14.4175C78.3505 14.5759 78.2901 14.7112 78.1693 14.8264C78.0516 14.9416 77.9051 14.9992 77.7285 14.9992C77.567 14.9992 77.4266 14.9416 77.3058 14.8264C77.1851 14.7112 77.1247 14.5759 77.1247 14.4175C77.1247 14.2534 77.1851 14.1151 77.3058 14.0028C77.4266 13.8877 77.567 13.8301 77.7285 13.8301ZM80.2344 16.0242H80.0834C79.8328 16.0242 79.6788 16.0905 79.6185 16.2201C79.5581 16.3511 79.5279 16.5195 79.5279 16.7268V20.4529H76.9798C76.6613 20.4529 76.3397 20.3939 76.0137 20.2744C75.6876 20.1563 75.3933 19.9965 75.1321 19.7964C74.8694 19.5891 74.6551 19.3501 74.486 19.0765C74.317 18.8001 74.2324 18.4891 74.2324 18.1436C74.2324 17.4496 74.5419 16.8939 75.1623 16.4792C75.4597 16.2805 75.8205 16.1265 76.2431 16.0185C76.6688 15.9076 77.1443 15.8515 77.6681 15.8515H80.2344V16.0242ZM78.3021 20.0613V16.4331C77.9761 16.3381 77.644 16.3007 77.3058 16.3237C76.9677 16.3439 76.6567 16.4259 76.376 16.5714C76.0892 16.7182 75.8567 16.9227 75.6755 17.1876C75.4974 17.4525 75.4099 17.7779 75.4099 18.1608C75.4099 18.6907 75.5487 19.1399 75.8265 19.5084C76.1043 19.877 76.4816 20.0613 76.9617 20.0613H78.3021Z" fill="white"/>
<path d="M82.9912 15.7598C83.3972 15.7598 83.758 15.8231 84.072 15.9498C84.389 16.0736 84.6577 16.2378 84.8751 16.4451C85.3294 16.9029 85.5574 17.4587 85.5574 18.1152V18.4722C85.6132 19.5319 86.137 20.0617 87.1273 20.0617H87.3749V20.4533H86.4571C86.2397 20.4418 86.0601 20.4116 85.9197 20.3612C85.7778 20.3079 85.6193 20.2143 85.4427 20.079C85.2691 19.9566 85.1287 19.8011 85.02 19.6125C84.8026 19.8702 84.5203 20.0761 84.1746 20.2287C83.832 20.3785 83.438 20.4533 82.9912 20.4533H81.0469V20.0617H82.7798C83.2901 20.0617 83.6825 19.876 83.9573 19.5031C84.0901 19.3275 84.1837 19.1201 84.2411 18.8811C84.3014 18.6393 84.3316 18.3844 84.3316 18.1152C84.3316 17.5551 84.2018 17.1102 83.9452 16.7791C83.6916 16.4451 83.2961 16.2781 82.7617 16.2781C82.3828 16.2781 82.0643 16.3529 81.8077 16.5027C81.5496 16.6524 81.4046 16.9346 81.3729 17.3492H81.1616C81.1616 16.9893 81.1707 16.7201 81.1918 16.543C81.2159 16.3673 81.2975 16.2205 81.4394 16.1053C81.5722 15.9786 81.7684 15.8908 82.0311 15.8404C82.2922 15.7871 82.6123 15.7598 82.9912 15.7598Z" fill="white"/>
<path d="M88.1739 16.7906L89.5265 15.4775C90.2903 16.2075 90.9274 16.8136 91.4346 17.2974C91.9418 17.7811 92.3584 18.1727 92.6845 18.4722C92.8369 18.6306 92.9758 18.7688 93.1011 18.8869C93.2249 19.0064 93.332 19.1086 93.4211 19.1921L93.8257 19.5779C93.9253 19.6744 94.0008 19.7536 94.0491 19.8141C94.0974 19.876 94.1593 19.958 94.2363 20.0617H95.6613V20.4533H94.4476C94.5563 20.7139 94.6167 20.963 94.6287 21.202C94.6408 21.4395 94.6182 21.6584 94.5623 21.8585C94.517 22.0543 94.4506 22.2285 94.3631 22.3826C94.2785 22.5395 94.2091 22.6662 94.1578 22.7626C94.1004 22.8433 94.0566 22.8793 94.0249 22.8721C93.9917 22.8721 93.9857 22.8447 94.0068 22.7914C94.0702 22.5409 94.0883 22.3077 94.0612 22.0888C94.037 21.87 93.9796 21.6713 93.8921 21.4957C93.8076 21.3186 93.7049 21.1588 93.5841 21.0177C93.4634 20.8795 93.3487 20.7528 93.24 20.6376L93.0407 20.4533H86.7188V20.0617H92.6543L89.3031 16.9C89.1491 16.7546 89.0012 16.6581 88.8563 16.6121C88.7144 16.566 88.5634 16.6265 88.4034 16.7906L88.2887 16.9L88.1739 16.7906Z" fill="white"/>
<path d="M96.3081 13.8301C96.4848 13.8301 96.6297 13.8877 96.7429 14.0028C96.8591 14.1151 96.918 14.2534 96.918 14.4175C96.918 14.5759 96.8591 14.7112 96.7429 14.8264C96.6297 14.9416 96.4848 14.9992 96.3081 14.9992C96.1346 14.9992 95.9896 14.9416 95.8734 14.8264C95.7602 14.7112 95.7043 14.5759 95.7043 14.4175C95.7043 14.2534 95.7602 14.1151 95.8734 14.0028C95.9896 13.8877 96.1346 13.8301 96.3081 13.8301ZM97.8298 13.8301C98.0019 13.8301 98.1498 13.8877 98.2706 14.0028C98.3913 14.1151 98.4517 14.2534 98.4517 14.4175C98.4517 14.5759 98.3913 14.7112 98.2706 14.8264C98.1498 14.9416 98.0019 14.9992 97.8298 14.9992C97.6682 14.9992 97.5279 14.9416 97.4071 14.8264C97.2863 14.7112 97.226 14.5759 97.226 14.4175C97.226 14.2534 97.2863 14.1151 97.4071 14.0028C97.5279 13.8877 97.6682 13.8301 97.8298 13.8301ZM98.4034 16.0588H98.2404C97.9988 16.0588 97.8449 16.125 97.7815 16.2546C97.7166 16.3813 97.6849 16.5483 97.6849 16.7556V20.0613H99.8767V20.4529H95.0039V20.0613H96.4591V15.9033H98.4034V16.0588Z" fill="white"/>
<path d="M103.894 15.8691C104.32 15.8691 104.712 15.9382 105.072 16.0765C105.429 16.2118 105.724 16.386 105.953 16.6005C106.202 16.8424 106.388 17.116 106.509 17.4183C106.63 17.7178 106.699 18.0331 106.72 18.3628V18.5643C106.732 18.8681 106.77 19.1158 106.835 19.3073C106.903 19.5002 106.992 19.6528 107.101 19.768C107.209 19.8831 107.333 19.9623 107.475 20.0041C107.615 20.043 107.772 20.0617 107.946 20.0617H108.568V20.4533H107.505C107.344 20.4346 107.191 20.4043 107.046 20.3611C106.904 20.3194 106.787 20.2517 106.69 20.1596C106.633 20.1063 106.583 20.0545 106.539 20.0041C106.498 19.9508 106.456 19.8932 106.412 19.8313C106.27 20.0818 106.088 20.3064 105.863 20.5051C105.641 20.7081 105.349 20.8679 104.987 20.9831C104.616 21.1098 104.198 21.1732 103.731 21.1732C103.304 21.1732 102.916 21.1041 102.566 20.9658C102.219 20.8305 101.932 20.6549 101.702 20.436C101.606 20.3439 101.518 20.2488 101.443 20.1481C101.366 20.0487 101.301 19.9465 101.25 19.8428C101.105 20.1049 100.896 20.2776 100.628 20.3611C100.474 20.4115 100.321 20.4418 100.169 20.4533H99.2207V20.0617H99.7279C99.8879 20.0617 100.037 20.0444 100.175 20.0098C100.311 19.9724 100.434 19.9004 100.543 19.7968C100.76 19.5894 100.89 19.2266 100.936 18.7083V18.5183C100.936 17.7091 101.207 17.0656 101.751 16.589C102.253 16.1096 102.967 15.8691 103.894 15.8691ZM103.846 16.2895C103.322 16.2895 102.913 16.4782 102.62 16.8539C102.478 17.0497 102.37 17.2628 102.294 17.4932C102.217 17.7207 102.179 18.01 102.179 18.3628C102.179 18.7587 102.225 19.0855 102.318 19.3418C102.41 19.5952 102.533 19.8356 102.687 20.0617C103.001 20.4994 103.402 20.7182 103.894 20.7182C104.404 20.7182 104.808 20.5253 105.102 20.1423C105.254 19.9551 105.357 19.7493 105.41 19.5261C105.466 19.3044 105.494 19.0193 105.494 18.6738C105.494 18.2822 105.458 17.9539 105.386 17.689C105.316 17.4212 105.206 17.1793 105.054 16.9633C104.747 16.5141 104.344 16.2895 103.846 16.2895Z" fill="white"/>
<path d="M111.609 13.7036V13.8764C111.291 13.8764 111.092 13.9397 111.012 14.0664C110.93 14.1902 110.891 14.3544 110.891 14.5617V18.2878C110.891 18.9414 110.693 19.4655 110.299 19.86C110.113 20.0486 109.898 20.194 109.653 20.2976C109.407 20.4013 109.137 20.4531 108.844 20.4531H107.914V20.0615H108.192C108.364 20.0615 108.538 20.0356 108.711 19.9809C108.888 19.9233 109.04 19.8312 109.17 19.7045C109.303 19.5821 109.412 19.4223 109.496 19.2265C109.584 19.0278 109.641 18.7816 109.665 18.4893V13.7036H111.609Z" fill="white"/>
<path d="M114.274 13.7209V13.8591C113.955 13.8591 113.758 13.9253 113.682 14.0549C113.605 14.1859 113.568 14.3544 113.568 14.5617V20.4531H112.342V13.7036L114.274 13.7209Z" fill="white"/>
<path d="M118.588 13.8301C118.765 13.8301 118.911 13.8877 119.029 14.0028C119.15 14.1151 119.21 14.249 119.21 14.406C119.21 14.5715 119.15 14.7112 119.029 14.8264C118.911 14.9416 118.765 14.9992 118.588 14.9992C118.427 14.9992 118.286 14.9416 118.166 14.8264C118.045 14.7112 117.985 14.5715 117.985 14.406C117.985 14.249 118.045 14.1151 118.166 14.0028C118.286 13.8877 118.427 13.8301 118.588 13.8301ZM119.917 16.0242H119.754C119.512 16.0242 119.358 16.0876 119.295 16.2143C119.23 16.3381 119.198 16.5022 119.198 16.7096V20.4529C119.198 20.8676 119.109 21.2045 118.933 21.4665C118.759 21.7271 118.558 21.9344 118.329 22.0885C118.09 22.2454 117.853 22.3606 117.616 22.434C117.382 22.506 117.203 22.5578 117.073 22.5895C116.964 22.6082 116.904 22.6024 116.892 22.5722C116.867 22.5521 116.884 22.5276 116.94 22.4973C117.181 22.3591 117.369 22.2036 117.501 22.0309C117.637 21.861 117.745 21.6824 117.822 21.4953C117.885 21.3182 117.927 21.1411 117.948 20.9655C117.972 20.7884 117.985 20.6228 117.985 20.4702V15.8515H119.917V16.0242Z" fill="white"/>
<path d="M122.661 13.7036V13.8591C122.342 13.8591 122.143 13.9253 122.063 14.0549C121.981 14.1859 121.942 14.3544 121.942 14.5617V20.0615H123.379V20.4531H120.729V13.7036H122.661Z" fill="white"/>
<path d="M124.18 16.7906L125.532 15.4775C126.296 16.2075 126.933 16.8136 127.44 17.2974C127.948 17.7811 128.364 18.1727 128.69 18.4722C128.843 18.6306 128.982 18.7688 129.107 18.8869C129.231 19.0064 129.338 19.1086 129.427 19.1921L129.832 19.5779C129.931 19.6744 130.007 19.7536 130.055 19.8141C130.103 19.876 130.165 19.958 130.242 20.0617H131.667V20.4533H130.453C130.562 20.7139 130.623 20.963 130.635 21.202C130.647 21.4395 130.624 21.6584 130.568 21.8585C130.523 22.0543 130.456 22.2285 130.369 22.3826C130.284 22.5395 130.215 22.6662 130.164 22.7626C130.106 22.8433 130.062 22.8793 130.031 22.8721C129.998 22.8721 129.992 22.8447 130.013 22.7914C130.076 22.5409 130.094 22.3077 130.067 22.0888C130.043 21.87 129.986 21.6713 129.898 21.4957C129.813 21.3186 129.711 21.1588 129.59 21.0177C129.469 20.8795 129.355 20.7528 129.246 20.6376L129.047 20.4533H122.725V20.0617H128.66L125.309 16.9C125.155 16.7546 125.007 16.6581 124.862 16.6121C124.72 16.566 124.569 16.6265 124.409 16.7906L124.295 16.9L124.18 16.7906ZM126.154 21.3575C126.331 21.3575 126.477 21.415 126.595 21.5302C126.716 21.6454 126.776 21.7793 126.776 21.9334C126.776 22.0975 126.716 22.2386 126.595 22.3538C126.477 22.4689 126.331 22.5265 126.154 22.5265C125.993 22.5265 125.852 22.4689 125.732 22.3538C125.611 22.2386 125.55 22.0975 125.55 21.9334C125.55 21.7793 125.611 21.6454 125.732 21.5302C125.852 21.415 125.993 21.3575 126.154 21.3575Z" fill="white"/>
<path d="M133.347 13.8301C133.519 13.8301 133.667 13.8877 133.787 14.0028C133.908 14.1151 133.968 14.2534 133.968 14.4175C133.968 14.5759 133.908 14.7112 133.787 14.8264C133.667 14.9416 133.519 14.9992 133.347 14.9992C133.18 14.9992 133.039 14.9416 132.918 14.8264C132.8 14.7112 132.743 14.5759 132.743 14.4175C132.743 14.2534 132.8 14.1151 132.918 14.0028C133.039 13.8877 133.18 13.8301 133.347 13.8301ZM134.687 16.0588H134.524C134.273 16.0588 134.119 16.125 134.059 16.2546C133.999 16.3813 133.968 16.5483 133.968 16.7556V18.2069C133.968 18.5524 133.905 18.8634 133.781 19.1399C133.656 19.4134 133.494 19.6438 133.298 19.8309C132.883 20.2456 132.424 20.4529 131.922 20.4529H131.01V20.0613H131.269C131.441 20.0613 131.614 20.0368 131.783 19.9864C131.952 19.9332 132.109 19.8453 132.254 19.7215C132.382 19.5948 132.489 19.4336 132.574 19.2378C132.661 19.0391 132.719 18.7943 132.743 18.5064V15.9033H134.687V16.0588Z" fill="white"/>
<path d="M137.336 13.7209V13.8591C137.017 13.8591 136.818 13.9253 136.738 14.0549C136.656 14.1859 136.617 14.3544 136.617 14.5617V20.4531H135.41V13.7036L137.336 13.7209ZM136.158 21.3573C136.509 21.3573 136.741 21.3991 136.859 21.484C136.927 21.5329 136.964 21.5891 136.973 21.651C136.986 21.7158 136.992 21.8094 136.992 21.9332H136.895C136.871 21.7863 136.801 21.6856 136.69 21.628C136.576 21.5704 136.432 21.5416 136.255 21.5416C136.004 21.5416 135.822 21.6021 135.705 21.7259C135.592 21.8526 135.536 22.0153 135.536 22.2154C135.536 22.4227 135.592 22.5926 135.705 22.7279C135.822 22.8618 136.004 22.9295 136.255 22.9295H137.04V23.1483H134.77V22.9468H135.488C135.15 22.7927 134.981 22.5494 134.981 22.2154C134.981 21.9764 135.084 21.7734 135.289 21.6049C135.497 21.4394 135.787 21.3573 136.158 21.3573Z" fill="white"/>
<g clip-path="url(#clip0_619_3049)">
<path d="M174.798 13.7522L174.43 14.5113H180.651L177.495 8.74789L177.166 9.5228C177.166 9.5228 172.094 7.15966 167.551 6.89746L166.904 7.45192L167.551 11.5361C167.551 11.5361 173.019 12.5272 174.797 13.7522H174.798Z" fill="white"/>
<path d="M159.437 12.9212C159.437 12.9212 157.377 13.8397 156.592 15.1532H150.439C150.439 15.1532 153.055 9.28881 159.437 7.74316C159.437 7.74316 159.201 11.2879 159.437 12.922V12.9212Z" fill="white"/>
<path d="M177.972 22.068C177.093 21.3783 176.186 20.8572 175.367 20.469C173.787 19.7191 172.548 19.4719 172.548 19.4719V18.3613L166.903 20.1708L171.211 24.3861L171.609 23.1753C178.888 24.8437 179.16 31.5832 176.05 35.6732L175.674 36.1342C175.281 36.5859 174.845 36.9968 174.372 37.3541C170.645 40.1741 165.812 39.5528 163.963 39.1728C163.477 39.0726 163.198 38.9875 163.198 38.9875L160.258 39.9787L157.894 40.7945L157.553 40.9139C165.904 46.3399 180.311 43.0716 181.841 32.5711C182.615 27.2461 180.422 23.9961 177.972 22.068Z" fill="white"/>
<path d="M176.051 35.6734C175.93 35.8304 175.804 35.9874 175.675 36.1343C173.784 35.3627 171.354 35.6358 168.082 37.2599C166.884 37.8528 165.477 38.5517 163.963 39.173C162.041 39.9629 159.946 40.6285 157.895 40.7946C155.85 40.9675 153.852 40.641 152.114 39.4494C152.114 39.4494 149.291 37.3919 150.438 34.6354C150.438 34.6354 144.838 33.7169 148.498 28.027C148.498 28.027 145.684 27.2646 146.029 24.0881C146.295 21.6357 148.233 21.0244 148.233 21.0244C148.233 21.0244 144.727 17.0956 149.089 15.069C152.173 13.636 159.438 14.7675 159.438 14.7675C159.438 14.7675 156.764 2.30715 164.034 0.654623C164.533 0.538553 165.049 0.500977 165.561 0.500977H167.729C167.729 0.500977 167.056 11.7606 169.449 15.1533C171.526 18.0951 177.092 17.129 177.974 22.069C177.095 21.3793 176.188 20.8582 175.369 20.4699C175.369 19.6533 174.361 18.7982 173.264 18.2905C171.279 17.372 167.626 16.6505 166.905 11.0491C166.187 5.44771 166.449 2.07585 166.449 2.07585C166.449 2.07585 163.266 1.00367 161.373 2.97601C157.814 6.68272 160.235 15.5992 160.235 15.5992C160.235 15.5992 152.107 14.512 149.927 16.6689C149.092 17.4956 148.477 18.9176 149.823 21.3325C149.823 21.3325 147.882 22.7755 148.277 25.1837C148.675 27.5894 150.218 28.0721 150.218 28.0721C150.218 28.0721 148.454 29.91 148.985 32.1395C149.513 34.3724 151.719 34.1094 151.719 34.1094C151.719 34.1094 150.288 38.6194 155.247 39.4911C162.217 40.7178 167.752 36.9092 169.44 36.1519C171.535 35.2108 173.917 34.8609 176.052 35.675L176.051 35.6734Z" fill="white"/>
</g>
<defs>
<clipPath id="clip0_619_3049">
<rect width="36" height="43" fill="white" transform="translate(146 0.5)"/>
</clipPath>
</defs>
</svg>
