<svg width="154" height="44" viewBox="0 0 154 44" fill="none" xmlns="http://www.w3.org/2000/svg">
<path d="M0.5 23.2993V28.4438C0.5 28.6881 0.514477 28.8842 0.54343 29.031C0.572383 29.1753 0.620638 29.2908 0.688195 29.3775C0.758165 29.4641 0.847437 29.5218 0.953599 29.5507C1.05976 29.5796 1.19487 29.594 1.35894 29.594H2.22271V29.4063H2.02969C1.74981 29.4063 1.56765 29.3197 1.48441 29.1465C1.39996 28.9708 1.35894 28.7362 1.35894 28.4438V23.2993H0.5Z" fill="white"/>
<path d="M4.06945 29.5942V25.9464C4.19732 25.8116 4.34088 25.6961 4.49892 25.5999C4.65937 25.5012 4.83791 25.4507 5.03455 25.4507C5.32408 25.4507 5.56656 25.5445 5.7632 25.7298C5.85971 25.8261 5.93692 25.9596 5.99483 26.1293C6.05274 26.3001 6.08169 26.4998 6.08169 26.7308V29.5942H6.94063V26.7308C6.94063 26.3915 6.89358 26.1076 6.80069 25.879C6.71021 25.6516 6.58837 25.4748 6.43395 25.3496C6.27592 25.2149 6.1022 25.1271 5.9128 25.085C5.72219 25.0404 5.52193 25.0176 5.30961 25.0176C5.02611 25.0176 4.78 25.0693 4.5713 25.1716C4.36501 25.2714 4.19732 25.3785 4.06945 25.494H4.02602C3.97776 25.3785 3.89211 25.2871 3.77027 25.2197C3.65083 25.1523 3.46384 25.1186 3.2105 25.1186H2.35156V25.3063H2.53976C2.8317 25.3063 3.01748 25.3954 3.09469 25.571C3.1719 25.7443 3.2105 25.9704 3.2105 26.2496V29.5942H4.06945Z" fill="white"/>
<path d="M8.12248 26.4565C8.12248 26.7549 8.19486 27.0123 8.33963 27.2265C8.4844 27.4382 8.64967 27.5922 8.83666 27.6885C8.7691 27.7366 8.69431 27.8016 8.61468 27.881C8.53748 27.958 8.49887 28.0687 8.49887 28.2131C8.49887 28.3574 8.53748 28.4765 8.61468 28.5692C8.69431 28.663 8.78358 28.7328 8.88009 28.7809C8.59659 28.8772 8.35049 29.0336 8.14178 29.2477C7.93187 29.4595 7.82812 29.7206 7.82812 30.0322C7.82812 30.3017 7.88362 30.5279 7.99702 30.7107C8.10921 30.896 8.2576 31.0476 8.44097 31.1631C8.6364 31.2882 8.85837 31.3748 9.10689 31.423C9.3542 31.4735 9.62804 31.5 9.92723 31.5C10.2385 31.5 10.5208 31.4735 10.7717 31.423C11.025 31.3748 11.2446 31.2882 11.428 31.1631C11.6234 31.0476 11.7754 30.896 11.8816 30.7107C11.9877 30.5279 12.0408 30.3017 12.0408 30.0322C12.0408 29.7591 11.9841 29.5317 11.8719 29.3488C11.7621 29.1635 11.6089 29.0071 11.4135 28.882C11.0238 28.6606 10.528 28.5499 9.92723 28.5499C9.25768 28.5499 8.92352 28.438 8.92352 28.2131C8.92352 27.9917 9.25768 27.881 9.92723 27.881C10.1806 27.881 10.4218 27.8569 10.6511 27.8088C10.8791 27.7583 11.0709 27.6789 11.2253 27.573C11.3894 27.4671 11.5172 27.3228 11.6113 27.1399C11.7042 26.9546 11.7513 26.726 11.7513 26.4565C11.7513 26.2039 11.6861 25.9873 11.5583 25.8068C11.4328 25.6276 11.2735 25.4892 11.0805 25.393V25.3496L11.7078 25.263V25.0176H9.92723C9.68595 25.0176 9.45191 25.0416 9.22753 25.0898C9.00555 25.1379 8.81012 25.2149 8.64364 25.3208C8.48922 25.4266 8.36376 25.5734 8.26725 25.7587C8.17074 25.9416 8.12248 26.175 8.12248 26.4565ZM10.8923 26.4565C10.8923 26.6586 10.8658 26.8295 10.8151 26.9666C10.7669 27.1014 10.6993 27.2121 10.6124 27.2987C10.4484 27.4623 10.2192 27.5441 9.92723 27.5441C9.64735 27.5441 9.42296 27.4623 9.25648 27.2987C9.17927 27.2121 9.11292 27.1014 9.05863 26.9666C9.00676 26.8295 8.98142 26.6586 8.98142 26.4565C8.98142 26.2424 9.00676 26.0655 9.05863 25.9271C9.11292 25.7864 9.17927 25.6709 9.25648 25.5806C9.42296 25.4266 9.64735 25.3496 9.92723 25.3496C10.1999 25.3496 10.4291 25.4387 10.6124 25.6143C10.7982 25.7876 10.8923 26.0691 10.8923 26.4565ZM9.50741 28.882L10.0286 28.9253C10.797 29.0312 11.1819 29.4005 11.1819 30.0322C11.1819 30.4075 11.0636 30.6819 10.8296 30.8551C10.598 31.0308 10.2964 31.1198 9.92723 31.1198C9.56652 31.1198 9.27096 31.0308 9.03933 30.8551C8.80771 30.6819 8.69189 30.4075 8.69189 30.0322C8.69189 29.7206 8.76548 29.4763 8.91387 29.2959C9.06466 29.1166 9.26251 28.9782 9.50741 28.882Z" fill="white"/>
<path d="M16.2505 29.5942V27.0196C16.2505 26.5961 16.2034 26.252 16.1105 25.9849C16.02 25.7154 15.8982 25.5084 15.7438 25.3641C15.5857 25.2293 15.406 25.1379 15.2033 25.0898C15.0006 25.0416 14.7907 25.0176 14.576 25.0176C14.4216 25.0176 14.2744 25.026 14.1369 25.0416C14.0018 25.0549 13.8667 25.0705 13.7315 25.0898C13.4384 25.1571 13.2393 25.2438 13.1332 25.3496C13.0174 25.4651 12.9498 25.5975 12.9305 25.7443C12.9112 25.8886 12.9015 26.0426 12.9015 26.2063H13.3358C13.4058 25.8983 13.5301 25.6865 13.7074 25.571C13.8872 25.4531 14.114 25.393 14.3878 25.393C14.6894 25.393 14.9283 25.4964 15.102 25.7009C15.1888 25.8261 15.2576 25.9969 15.3095 26.2111C15.3638 26.4228 15.3915 26.6923 15.3915 27.0196H15.102C14.7702 27.0196 14.4578 27.0412 14.1658 27.0821C13.8763 27.1206 13.6205 27.1928 13.3986 27.2987C13.173 27.3949 12.9944 27.5321 12.8629 27.7077C12.7339 27.881 12.6699 28.0976 12.6699 28.3574C12.6699 28.6209 12.7182 28.8375 12.8147 29.0071C12.9112 29.178 13.027 29.3151 13.1621 29.421C13.2972 29.5172 13.4444 29.587 13.6061 29.6279C13.7665 29.6724 13.9149 29.6953 14.05 29.6953C14.4192 29.6953 14.7111 29.6375 14.9234 29.522C15.1382 29.4065 15.295 29.285 15.3915 29.1563H15.4349L15.7727 29.5942H16.2505ZM15.3915 27.3997V28.6943C15.295 28.8387 15.1756 28.971 15.0344 29.0889C14.8921 29.2044 14.7063 29.2622 14.4747 29.2622C14.2201 29.2622 14.0114 29.1888 13.8473 29.0408C13.7701 28.9638 13.7038 28.8712 13.6495 28.7617C13.5976 28.6498 13.5723 28.515 13.5723 28.3574C13.5723 28.0687 13.7074 27.8377 13.9776 27.6644C14.2503 27.4888 14.6255 27.3997 15.102 27.3997H15.3915Z" fill="white"/>
<path d="M21.0485 25.1187H18.1339C17.8214 25.1187 17.6031 25.1957 17.4776 25.3497C17.41 25.417 17.3666 25.4976 17.3473 25.5903C17.328 25.6841 17.3184 25.778 17.3184 25.8742V26.3555H17.5066C17.5066 26.0836 17.6031 25.8718 17.7961 25.7202C17.9915 25.5698 18.2931 25.494 18.6985 25.494H19.7939L17.3184 29.421V29.5942H21.0485V29.2141H18.4668L21.0485 25.1187Z" fill="white"/>
<path d="M26.76 23.5929C27.1677 23.5929 27.4753 23.7324 27.6816 24.0115L27.9567 23.7806C27.9084 23.6843 27.8602 23.6025 27.8119 23.5351C27.7637 23.4677 27.7009 23.404 27.6237 23.3426C27.456 23.2464 27.1822 23.1982 26.8034 23.1982C26.6007 23.1982 26.3992 23.2223 26.2002 23.2704C25.9999 23.3186 25.8238 23.398 25.6694 23.5062C25.515 23.6314 25.3871 23.8022 25.2882 24.0164C25.1917 24.2281 25.1434 24.4976 25.1434 24.8249V25.1184H24.4727V25.4938H25.1434V29.594H26.0023V25.4938H27.3438V25.1184H26.0023V24.8249C26.0023 24.3605 26.0759 24.0356 26.2243 23.8527C26.3594 23.6795 26.538 23.5929 26.76 23.5929Z" fill="white"/>
<path d="M27.9297 27.3564C27.9297 28.0242 28.1131 28.5716 28.4798 28.9975C28.6559 29.2128 28.8731 29.3825 29.1312 29.5076C29.3882 29.6327 29.6862 29.6953 30.024 29.6953C30.3545 29.6953 30.6513 29.6327 30.9119 29.5076C31.1748 29.3825 31.4004 29.2128 31.5874 28.9975C31.7708 28.7857 31.9059 28.5403 31.9928 28.2612C32.0796 27.9797 32.1231 27.6777 32.1231 27.3564C32.1231 27.0268 32.0796 26.7212 31.9928 26.4421C31.9059 26.1605 31.7708 25.9127 31.5874 25.7009C31.4004 25.4868 31.1748 25.3196 30.9119 25.2005C30.6513 25.0789 30.3545 25.0176 30.024 25.0176C29.6862 25.0176 29.3882 25.0789 29.1312 25.2005C28.8731 25.3196 28.6559 25.4868 28.4798 25.7009C28.1131 26.1281 27.9297 26.6803 27.9297 27.3564ZM31.2207 27.3564C31.2207 27.9087 31.1145 28.3695 30.9022 28.7376C30.7924 28.9109 30.6621 29.0492 30.5113 29.1515C30.363 29.255 30.2001 29.3055 30.024 29.3055C29.8502 29.3055 29.691 29.255 29.5462 29.1515C29.4015 29.0492 29.2736 28.9109 29.165 28.7376C28.943 28.3791 28.8321 27.9183 28.8321 27.3564C28.8321 26.7862 28.943 26.3206 29.165 25.9608C29.2736 25.7876 29.4015 25.6504 29.5462 25.5469C29.691 25.4447 29.8502 25.393 30.024 25.393C30.2001 25.393 30.363 25.4447 30.5113 25.5469C30.6621 25.6504 30.7924 25.7876 30.9022 25.9608C31.1145 26.3302 31.2207 26.7958 31.2207 27.3564Z" fill="white"/>
<path d="M34.1916 29.5942V26.0619C34.3967 25.7419 34.6983 25.5806 35.0939 25.5806C35.4534 25.5806 35.708 25.6793 35.8564 25.8742L36.2472 25.5806C36.1893 25.4844 36.1363 25.4026 36.088 25.3352C36.0397 25.2678 35.9818 25.2101 35.9143 25.162C35.8431 25.1138 35.7514 25.0789 35.6392 25.0561C35.5294 25.0308 35.4269 25.0176 35.3304 25.0176C35.0469 25.0176 34.8104 25.0753 34.621 25.1908C34.4304 25.3063 34.2881 25.4218 34.1916 25.5373H34.1337C34.0854 25.393 33.9998 25.2871 33.8779 25.2197C33.7585 25.1523 33.5715 25.1186 33.3182 25.1186H32.5605V25.3063H32.6619C32.9442 25.3063 33.1251 25.3954 33.2023 25.571C33.2795 25.7443 33.3182 25.9704 33.3182 26.2496V29.5942H34.1916Z" fill="white"/>
<path d="M40.8077 25.4938V24.4495C40.8077 24.2161 40.7981 24.0212 40.7788 23.8672C40.7595 23.7132 40.7112 23.5929 40.634 23.5063C40.5665 23.4268 40.476 23.3715 40.3638 23.3426C40.2504 23.3138 40.1129 23.2993 39.9488 23.2993H39.0898V23.4918H39.278C39.57 23.4918 39.7558 23.5784 39.833 23.7517C39.9102 23.9249 39.9488 24.1583 39.9488 24.4495V29.594H40.8077V25.9462C40.9332 25.8114 41.078 25.6959 41.242 25.5997C41.4085 25.501 41.5846 25.4505 41.768 25.4505C42.06 25.4505 42.3036 25.5443 42.4967 25.7296C42.5956 25.8259 42.6752 25.9594 42.7331 26.129C42.791 26.2999 42.82 26.4996 42.82 26.7306V29.594H43.6789V26.7306C43.6789 26.3913 43.6319 26.1074 43.539 25.8788C43.4485 25.6514 43.3242 25.4746 43.1674 25.3494C43.013 25.2147 42.8405 25.1269 42.6511 25.0847C42.4605 25.0402 42.265 25.0174 42.0624 25.0174C41.7692 25.0174 41.5183 25.0691 41.3096 25.1714C41.0997 25.2712 40.9332 25.3783 40.8077 25.4938Z" fill="white"/>
<path d="M47.8913 25.1187V28.7521C47.7659 28.8868 47.6223 29.0059 47.4618 29.1082C47.3002 29.2117 47.1241 29.2622 46.931 29.2622C46.802 29.2622 46.6753 29.2381 46.5498 29.19C46.4244 29.1395 46.3134 29.0649 46.2169 28.9686C46.1167 28.8724 46.0347 28.7424 45.9708 28.5788C45.9092 28.4128 45.8791 28.2083 45.8791 27.9676V26.2496C45.8791 25.7852 45.8212 25.4748 45.7054 25.3208C45.6378 25.2342 45.5473 25.18 45.4351 25.1572C45.3217 25.1319 45.1842 25.1187 45.0201 25.1187H44.248V25.3063H44.3494C44.6317 25.3063 44.8138 25.3954 44.8947 25.571C44.9779 25.7443 45.0201 25.9705 45.0201 26.2496V27.9676C45.0201 28.3141 45.0648 28.5969 45.1552 28.8146C45.2481 29.0336 45.3736 29.2117 45.5316 29.3488C45.6861 29.4739 45.8574 29.563 46.048 29.6135C46.2374 29.6676 46.434 29.6953 46.6367 29.6953C46.9286 29.6953 47.1795 29.6448 47.3895 29.5461C47.5982 29.4439 47.7659 29.3332 47.8913 29.2141H47.9347L48.2677 29.5942H48.7503V25.1187H47.8913Z" fill="white"/>
<path d="M51.1241 25.494H51.0807C51.0325 25.3785 50.9468 25.2871 50.825 25.2197C50.7055 25.1523 50.5185 25.1186 50.2652 25.1186H49.4062V25.3063H49.5944C49.8864 25.3063 50.0722 25.3954 50.1494 25.571C50.2266 25.7443 50.2652 25.9704 50.2652 26.2496V29.5942H51.1241V25.9464C51.252 25.8116 51.3956 25.6961 51.5536 25.5999C51.7141 25.5012 51.8926 25.4507 52.0892 25.4507C52.3305 25.4507 52.5163 25.5457 52.649 25.7346C52.7805 25.9247 52.8468 26.2568 52.8468 26.7308V29.5942H53.7058V26.7308C53.7058 26.6346 53.7022 26.5167 53.6961 26.3747C53.6925 26.2339 53.6817 26.1293 53.6624 26.0619C53.7106 25.9849 53.7697 25.9127 53.8409 25.8453C53.9145 25.7779 53.9953 25.7106 54.0822 25.6432C54.1811 25.5927 54.28 25.5469 54.3765 25.5084C54.473 25.47 54.5696 25.4507 54.6661 25.4507C54.9098 25.4507 55.0967 25.5457 55.2258 25.7346C55.3573 25.9247 55.4237 26.2568 55.4237 26.7308V29.5942H56.2826V26.7308C56.2826 26.3915 56.2452 26.1076 56.1716 25.879C56.1005 25.6516 56.0076 25.4748 55.8917 25.3496C55.7663 25.2149 55.6227 25.1271 55.4623 25.085C55.3006 25.0404 55.1341 25.0176 54.9604 25.0176C54.6866 25.0176 54.4176 25.0753 54.1546 25.1908C53.894 25.3063 53.6817 25.4724 53.5176 25.6865C53.3982 25.4146 53.2389 25.2341 53.0399 25.1475C52.8432 25.0609 52.6176 25.0176 52.3643 25.0176C52.0808 25.0176 51.8347 25.0693 51.626 25.1716C51.4197 25.2714 51.252 25.3785 51.1241 25.494Z" fill="white"/>
<path d="M60.9028 29.5942V27.0196C60.9028 26.5961 60.8558 26.252 60.7629 25.9849C60.6724 25.7154 60.5505 25.5084 60.3961 25.3641C60.2381 25.2293 60.0583 25.1379 59.8557 25.0898C59.653 25.0416 59.4431 25.0176 59.2283 25.0176C59.0739 25.0176 58.9268 25.026 58.7892 25.0416C58.6541 25.0549 58.519 25.0705 58.3839 25.0898C58.0907 25.1571 57.8917 25.2438 57.7855 25.3496C57.6697 25.4651 57.6021 25.5975 57.5828 25.7443C57.5635 25.8886 57.5539 26.0426 57.5539 26.2063H57.9882C58.0582 25.8983 58.1824 25.6865 58.3598 25.571C58.5395 25.4531 58.7663 25.393 59.0402 25.393C59.3417 25.393 59.5806 25.4964 59.7543 25.7009C59.8412 25.8261 59.91 25.9969 59.9618 26.2111C60.0161 26.4228 60.0439 26.6923 60.0439 27.0196H59.7543C59.4226 27.0196 59.1101 27.0412 58.8182 27.0821C58.5286 27.1206 58.2729 27.1928 58.0509 27.2987C57.8253 27.3949 57.6468 27.5321 57.5153 27.7077C57.3862 27.881 57.3223 28.0976 57.3223 28.3574C57.3223 28.6209 57.3705 28.8375 57.467 29.0071C57.5635 29.178 57.6794 29.3151 57.8145 29.421C57.9496 29.5172 58.0968 29.587 58.2584 29.6279C58.4189 29.6724 58.5672 29.6953 58.7024 29.6953C59.0715 29.6953 59.3635 29.6375 59.5758 29.522C59.7905 29.4065 59.9473 29.285 60.0439 29.1563H60.0873L60.4251 29.5942H60.9028ZM60.0439 27.3997V28.6943C59.9473 28.8387 59.8279 28.971 59.6868 29.0889C59.5444 29.2044 59.3586 29.2622 59.127 29.2622C58.8725 29.2622 58.6638 29.1888 58.4997 29.0408C58.4225 28.9638 58.3561 28.8712 58.3018 28.7617C58.25 28.6498 58.2246 28.515 58.2246 28.3574C58.2246 28.0687 58.3598 27.8377 58.63 27.6644C58.9026 27.4888 59.2778 27.3997 59.7543 27.3997H60.0439Z" fill="white"/>
<path d="M63.2335 29.5942V25.9464C63.3614 25.8116 63.5049 25.6961 63.663 25.5999C63.8234 25.5012 64.002 25.4507 64.1986 25.4507C64.4881 25.4507 64.7306 25.5445 64.9273 25.7298C65.0238 25.8261 65.101 25.9596 65.1589 26.1293C65.2168 26.3001 65.2458 26.4998 65.2458 26.7308V29.5942H66.1047V26.7308C66.1047 26.3915 66.0576 26.1076 65.9648 25.879C65.8743 25.6516 65.7524 25.4748 65.598 25.3496C65.44 25.2149 65.2663 25.1271 65.0769 25.085C64.8863 25.0404 64.686 25.0176 64.4737 25.0176C64.1902 25.0176 63.9441 25.0693 63.7354 25.1716C63.5291 25.2714 63.3614 25.3785 63.2335 25.494H63.1901C63.1418 25.3785 63.0562 25.2871 62.9343 25.2197C62.8149 25.1523 62.6279 25.1186 62.3746 25.1186H61.5156V25.3063H61.7038C61.9958 25.3063 62.1815 25.3954 62.2588 25.571C62.336 25.7443 62.3746 25.9704 62.3746 26.2496V29.5942H63.2335Z" fill="white"/>
<path d="M71.2931 29.5942V26.0619C71.4982 25.7419 71.7998 25.5806 72.1955 25.5806C72.555 25.5806 72.8096 25.6793 72.9579 25.8742L73.3488 25.5806C73.2909 25.4844 73.2378 25.4026 73.1896 25.3352C73.1413 25.2678 73.0834 25.2101 73.0158 25.162C72.9447 25.1138 72.853 25.0789 72.7408 25.0561C72.631 25.0308 72.5285 25.0176 72.432 25.0176C72.1485 25.0176 71.912 25.0753 71.7226 25.1908C71.532 25.3063 71.3896 25.4218 71.2931 25.5373H71.2352C71.187 25.393 71.1013 25.2871 70.9795 25.2197C70.86 25.1523 70.6731 25.1186 70.4197 25.1186H69.6621V25.3063H69.7634C70.0457 25.3063 70.2267 25.3954 70.3039 25.571C70.3811 25.7443 70.4197 25.9704 70.4197 26.2496V29.5942H71.2931Z" fill="white"/>
<path d="M77.6912 27.5008L77.7057 27.111C77.7057 26.4409 77.5488 25.9247 77.2376 25.5614C76.9287 25.1992 76.4474 25.0176 75.7948 25.0176C75.4956 25.0176 75.2265 25.0789 74.9889 25.2005C74.75 25.3196 74.5474 25.4868 74.3809 25.7009C74.2168 25.9127 74.0926 26.1605 74.0093 26.4421C73.9285 26.7212 73.8887 27.0268 73.8887 27.3564C73.8887 27.6777 73.9285 27.9797 74.0093 28.2612C74.0926 28.5403 74.2168 28.7857 74.3809 28.9975C74.5474 29.2128 74.7573 29.3825 75.0082 29.5076C75.2615 29.6327 75.5535 29.6953 75.8816 29.6953C76.2508 29.6953 76.5765 29.6183 76.8564 29.4643C77.1387 29.3079 77.3884 29.0504 77.6043 28.6943L77.4113 28.5499C77.2472 28.7906 77.0602 28.977 76.8515 29.1082C76.6416 29.2405 76.3835 29.3055 76.0746 29.3055C75.8683 29.3055 75.6886 29.2598 75.5342 29.1659C75.3798 29.0733 75.2422 28.9494 75.124 28.7954C74.902 28.4657 74.791 28.0338 74.791 27.5008H77.6912ZM76.8033 27.111H74.791C74.791 26.6081 74.8876 26.2002 75.0806 25.8886C75.1674 25.7346 75.2688 25.6143 75.3846 25.5277C75.5028 25.4387 75.6403 25.393 75.7948 25.393C76.135 25.393 76.3883 25.5409 76.5524 25.8357C76.7188 26.1317 76.8033 26.5564 76.8033 27.111Z" fill="white"/>
<path d="M81.9744 28.4441C81.9744 28.1168 81.8694 27.8545 81.6607 27.6548C81.4508 27.4563 81.1444 27.2746 80.739 27.111L80.1552 26.8752C79.6497 26.6634 79.3975 26.3927 79.3975 26.0619C79.3975 25.8694 79.4796 25.7106 79.6436 25.5854C79.8077 25.4579 80.0454 25.393 80.3578 25.393C80.7366 25.393 81.0334 25.4832 81.2457 25.6624C81.4605 25.8429 81.5932 26.0884 81.6414 26.3988H81.8296C81.8296 26.1557 81.82 25.9584 81.8007 25.8068C81.7814 25.6564 81.7138 25.5181 81.598 25.393C81.4725 25.2775 81.2916 25.186 81.0575 25.1186C80.8259 25.0513 80.5243 25.0176 80.1552 25.0176C79.6786 25.0176 79.3034 25.1235 79.0308 25.3352C78.8957 25.4315 78.7859 25.559 78.7027 25.7154C78.6218 25.8694 78.582 26.0474 78.582 26.2496C78.582 26.5612 78.6834 26.8198 78.886 27.0244C79.0887 27.2265 79.3698 27.3997 79.7305 27.5441L80.2999 27.7751C80.5919 27.9039 80.8078 28.0302 80.9465 28.1553C81.0877 28.2804 81.1589 28.4416 81.1589 28.6366C81.1589 28.8291 81.0768 28.9903 80.9128 29.1178C80.7487 29.2429 80.4809 29.3055 80.1117 29.3055C79.7028 29.3055 79.3891 29.2165 79.1707 29.036C78.9512 28.8567 78.8185 28.6113 78.7702 28.2997H78.582C78.582 28.5439 78.5917 28.7424 78.611 28.8964C78.6303 29.0504 78.7027 29.1876 78.8281 29.3055C78.9439 29.4306 79.1225 29.5269 79.3638 29.5942C79.6075 29.6616 79.9199 29.6953 80.2999 29.6953C80.7945 29.6953 81.1938 29.5846 81.4966 29.3632C81.8151 29.1491 81.9744 28.8423 81.9744 28.4441Z" fill="white"/>
<path d="M82.8223 27.3564C82.8223 28.0242 83.0056 28.5716 83.3724 28.9975C83.5485 29.2128 83.7657 29.3825 84.0238 29.5076C84.2808 29.6327 84.5788 29.6953 84.9165 29.6953C85.2471 29.6953 85.5439 29.6327 85.8044 29.5076C86.0674 29.3825 86.293 29.2128 86.48 28.9975C86.6634 28.7857 86.7985 28.5403 86.8854 28.2612C86.9722 27.9797 87.0156 27.6777 87.0156 27.3564C87.0156 27.0268 86.9722 26.7212 86.8854 26.4421C86.7985 26.1605 86.6634 25.9127 86.48 25.7009C86.293 25.4868 86.0674 25.3196 85.8044 25.2005C85.5439 25.0789 85.2471 25.0176 84.9165 25.0176C84.5788 25.0176 84.2808 25.0789 84.0238 25.2005C83.7657 25.3196 83.5485 25.4868 83.3724 25.7009C83.0056 26.1281 82.8223 26.6803 82.8223 27.3564ZM86.1133 27.3564C86.1133 27.9087 86.0071 28.3695 85.7948 28.7376C85.685 28.9109 85.5547 29.0492 85.4039 29.1515C85.2555 29.255 85.0927 29.3055 84.9165 29.3055C84.7428 29.3055 84.5836 29.255 84.4388 29.1515C84.294 29.0492 84.1662 28.9109 84.0576 28.7376C83.8356 28.3791 83.7246 27.9183 83.7246 27.3564C83.7246 26.7862 83.8356 26.3206 84.0576 25.9608C84.1662 25.7876 84.294 25.6504 84.4388 25.5469C84.5836 25.4447 84.7428 25.393 84.9165 25.393C85.0927 25.393 85.2555 25.4447 85.4039 25.5469C85.5547 25.6504 85.685 25.7876 85.7948 25.9608C86.0071 26.3302 86.1133 26.7958 86.1133 27.3564Z" fill="white"/>
<path d="M91.0241 25.1187V28.7521C90.8987 28.8868 90.7551 29.0059 90.5947 29.1082C90.433 29.2117 90.2569 29.2622 90.0638 29.2622C89.9348 29.2622 89.8081 29.2381 89.6826 29.19C89.5572 29.1395 89.4462 29.0649 89.3497 28.9686C89.2495 28.8724 89.1675 28.7424 89.1036 28.5788C89.042 28.4128 89.0119 28.2083 89.0119 27.9676V26.2496C89.0119 25.7852 88.954 25.4748 88.8382 25.3208C88.7706 25.2342 88.6801 25.18 88.5679 25.1572C88.4545 25.1319 88.317 25.1187 88.1529 25.1187H87.3809V25.3063H87.4822C87.7645 25.3063 87.9467 25.3954 88.0275 25.571C88.1107 25.7443 88.1529 25.9705 88.1529 26.2496V27.9676C88.1529 28.3141 88.1976 28.5969 88.2881 28.8146C88.3809 29.0336 88.5064 29.2117 88.6644 29.3488C88.8189 29.4739 88.9902 29.563 89.1808 29.6135C89.3702 29.6676 89.5668 29.6953 89.7695 29.6953C90.0614 29.6953 90.3124 29.6448 90.5223 29.5461C90.731 29.4439 90.8987 29.3332 91.0241 29.2141H91.0676L91.4005 29.5942H91.8831V25.1187H91.0241Z" fill="white"/>
<path d="M94.1994 29.5942V26.0619C94.4045 25.7419 94.7061 25.5806 95.1018 25.5806C95.4613 25.5806 95.7158 25.6793 95.8642 25.8742L96.2551 25.5806C96.1972 25.4844 96.1441 25.4026 96.0958 25.3352C96.0476 25.2678 95.9897 25.2101 95.9221 25.162C95.8509 25.1138 95.7592 25.0789 95.647 25.0561C95.5373 25.0308 95.4347 25.0176 95.3382 25.0176C95.0547 25.0176 94.8183 25.0753 94.6289 25.1908C94.4382 25.3063 94.2959 25.4218 94.1994 25.5373H94.1415C94.0932 25.393 94.0076 25.2871 93.8857 25.2197C93.7663 25.1523 93.5793 25.1186 93.326 25.1186H92.5684V25.3063H92.6697C92.952 25.3063 93.1329 25.3954 93.2102 25.571C93.2874 25.7443 93.326 25.9704 93.326 26.2496V29.5942H94.1994Z" fill="white"/>
<path d="M98.8912 25.0176C98.5341 25.0176 98.2228 25.0789 97.9598 25.2005C97.6992 25.3196 97.4797 25.4868 97.3036 25.7009C97.1298 25.9127 97.0008 26.1605 96.9175 26.4421C96.8367 26.7212 96.7969 27.0268 96.7969 27.3564C96.7969 27.6777 96.8367 27.9797 96.9175 28.2612C97.0008 28.5403 97.1298 28.7857 97.3036 28.9975C97.4797 29.2128 97.6992 29.3825 97.9598 29.5076C98.2228 29.6327 98.5341 29.6953 98.8912 29.6953C99.27 29.6953 99.6053 29.6183 99.8949 29.4643C100.187 29.3079 100.441 29.0504 100.657 28.6943L100.469 28.5499C100.301 28.7906 100.113 28.977 99.9045 29.1082C99.6946 29.2405 99.422 29.3055 99.0842 29.3055C98.8393 29.3055 98.6318 29.255 98.4617 29.1515C98.294 29.0492 98.1504 28.9109 98.0322 28.7376C97.9164 28.562 97.8307 28.355 97.7765 28.1168C97.7246 27.8798 97.6992 27.6259 97.6992 27.3564C97.6992 27.0749 97.7246 26.815 97.7765 26.5768C97.8307 26.3398 97.9164 26.1341 98.0322 25.9608C98.1504 25.7876 98.294 25.6504 98.4617 25.5469C98.6318 25.4447 98.8393 25.393 99.0842 25.393C99.422 25.393 99.7067 25.4928 99.9383 25.6913C100.172 25.891 100.3 26.1894 100.32 26.5864H100.513C100.513 26.4108 100.513 26.258 100.513 26.1293C100.513 25.9981 100.503 25.8838 100.484 25.7876C100.455 25.6023 100.385 25.4555 100.276 25.3496C100.16 25.2341 99.9841 25.1511 99.7501 25.0994C99.5185 25.0452 99.2314 25.0176 98.8912 25.0176Z" fill="white"/>
<path d="M105.219 27.5008L105.233 27.111C105.233 26.4409 105.076 25.9247 104.765 25.5614C104.456 25.1992 103.975 25.0176 103.322 25.0176C103.023 25.0176 102.754 25.0789 102.516 25.2005C102.277 25.3196 102.075 25.4868 101.908 25.7009C101.744 25.9127 101.62 26.1605 101.537 26.4421C101.456 26.7212 101.416 27.0268 101.416 27.3564C101.416 27.6777 101.456 27.9797 101.537 28.2612C101.62 28.5403 101.744 28.7857 101.908 28.9975C102.075 29.2128 102.285 29.3825 102.536 29.5076C102.789 29.6327 103.081 29.6953 103.409 29.6953C103.778 29.6953 104.104 29.6183 104.384 29.4643C104.666 29.3079 104.916 29.0504 105.132 28.6943L104.939 28.5499C104.775 28.7906 104.588 28.977 104.379 29.1082C104.169 29.2405 103.911 29.3055 103.602 29.3055C103.396 29.3055 103.216 29.2598 103.062 29.1659C102.907 29.0733 102.77 28.9494 102.651 28.7954C102.429 28.4657 102.318 28.0338 102.318 27.5008H105.219ZM104.331 27.111H102.318C102.318 26.6081 102.415 26.2002 102.608 25.8886C102.695 25.7346 102.796 25.6143 102.912 25.5277C103.03 25.4387 103.168 25.393 103.322 25.393C103.662 25.393 103.916 25.5409 104.08 25.8357C104.246 26.1317 104.331 26.5564 104.331 27.111Z" fill="white"/>
<path d="M109.5 28.4441C109.5 28.1168 109.395 27.8545 109.186 27.6548C108.976 27.4563 108.67 27.2746 108.264 27.111L107.681 26.8752C107.175 26.6634 106.923 26.3927 106.923 26.0619C106.923 25.8694 107.005 25.7106 107.169 25.5854C107.333 25.4579 107.571 25.393 107.883 25.393C108.262 25.393 108.559 25.4832 108.771 25.6624C108.986 25.8429 109.119 26.0884 109.167 26.3988H109.355C109.355 26.1557 109.345 25.9584 109.326 25.8068C109.307 25.6564 109.239 25.5181 109.123 25.393C108.998 25.2775 108.817 25.186 108.583 25.1186C108.351 25.0513 108.05 25.0176 107.681 25.0176C107.204 25.0176 106.829 25.1235 106.556 25.3352C106.421 25.4315 106.311 25.559 106.228 25.7154C106.147 25.8694 106.107 26.0474 106.107 26.2496C106.107 26.5612 106.209 26.8198 106.411 27.0244C106.614 27.2265 106.895 27.3997 107.256 27.5441L107.825 27.7751C108.117 27.9039 108.333 28.0302 108.472 28.1553C108.613 28.2804 108.684 28.4416 108.684 28.6366C108.684 28.8291 108.602 28.9903 108.438 29.1178C108.274 29.2429 108.006 29.3055 107.637 29.3055C107.228 29.3055 106.914 29.2165 106.696 29.036C106.477 28.8567 106.344 28.6113 106.296 28.2997H106.107C106.107 28.5439 106.117 28.7424 106.136 28.8964C106.156 29.0504 106.228 29.1876 106.354 29.3055C106.469 29.4306 106.648 29.5269 106.889 29.5942C107.133 29.6616 107.445 29.6953 107.825 29.6953C108.32 29.6953 108.719 29.5846 109.022 29.3632C109.341 29.1491 109.5 28.8423 109.5 28.4441Z" fill="white"/>
<path d="M11.3887 13.8232C11.5552 13.8232 11.6939 13.881 11.8037 13.9965C11.9123 14.1096 11.9678 14.2467 11.9678 14.4104C11.9678 14.568 11.9123 14.7039 11.8037 14.8194C11.6939 14.9325 11.5552 14.9879 11.3887 14.9879C11.2247 14.9879 11.0871 14.9325 10.9786 14.8194C10.8688 14.7039 10.8145 14.568 10.8145 14.4104C10.8145 14.2467 10.8688 14.1096 10.9786 13.9965C11.0871 13.881 11.2247 13.8232 11.3887 13.8232ZM12.8412 13.8232C13.0077 13.8232 13.1476 13.881 13.261 13.9965C13.3768 14.1096 13.4348 14.2467 13.4348 14.4104C13.4348 14.568 13.3768 14.7039 13.261 14.8194C13.1476 14.9325 13.0077 14.9879 12.8412 14.9879C12.6868 14.9879 12.5517 14.9325 12.4359 14.8194C12.3201 14.7039 12.2622 14.568 12.2622 14.4104C12.2622 14.2467 12.3201 14.1096 12.4359 13.9965C12.5517 13.881 12.6868 13.8232 12.8412 13.8232ZM15.2443 16.0177H15.0899C14.8607 16.0177 14.7147 16.0827 14.6508 16.2102C14.5893 16.339 14.5591 16.5074 14.5591 16.7155V20.0458H15.9488V20.4356H12.1077C11.4515 20.4163 10.864 20.1986 10.3464 19.7811C10.0955 19.5729 9.89041 19.3323 9.73358 19.0592C9.57916 18.7837 9.50195 18.4745 9.50195 18.1304C9.50195 17.4374 9.79752 16.8864 10.3898 16.4749C10.9846 16.0646 11.7856 15.8589 12.793 15.8589H15.2443V16.0177ZM13.3865 20.0458V16.422C13.0837 16.3293 12.7688 16.292 12.4407 16.3113C12.115 16.3305 11.8182 16.4148 11.548 16.5615C11.2777 16.7059 11.0558 16.9116 10.8821 17.1775C10.7107 17.441 10.6263 17.7647 10.6263 18.1497C10.6263 18.679 10.7662 19.1254 11.0461 19.4875C11.1716 19.6511 11.3236 19.7859 11.5045 19.8918C11.6879 19.9952 11.8882 20.0458 12.1077 20.0458H13.3865Z" fill="white"/>
<path d="M18.8333 16.0466H18.6789C18.4376 16.0466 18.288 16.1127 18.2301 16.2439C18.1746 16.3726 18.1481 16.5411 18.1481 16.7492V18.1929C18.1481 18.537 18.0865 18.8462 17.9647 19.1217C17.8453 19.3949 17.6921 19.6259 17.5063 19.8147C17.1106 20.2286 16.6727 20.4355 16.1937 20.4355H15.3203V20.0457H15.5712C15.7377 20.0457 15.9018 20.0205 16.0634 19.9687C16.2239 19.9182 16.3723 19.8292 16.5074 19.7041C16.6329 19.5789 16.7366 19.4189 16.821 19.2228C16.9043 19.0243 16.9562 18.7801 16.9755 18.4913V15.8926H18.8333V16.0466ZM16.6473 21.3403C16.8138 21.3403 16.9525 21.3956 17.0623 21.5087C17.1709 21.6242 17.2264 21.759 17.2264 21.913C17.2264 22.079 17.1709 22.2186 17.0623 22.3317C16.9525 22.4472 16.8138 22.5049 16.6473 22.5049C16.4796 22.5049 16.3409 22.4472 16.2323 22.3317C16.1262 22.2186 16.0731 22.079 16.0731 21.913C16.0731 21.759 16.1262 21.6242 16.2323 21.5087C16.3409 21.3956 16.4796 21.3403 16.6473 21.3403ZM18.0998 21.3403C18.2663 21.3403 18.4062 21.3956 18.5196 21.5087C18.6354 21.6242 18.6934 21.759 18.6934 21.913C18.6934 22.079 18.6354 22.2186 18.5196 22.3317C18.4062 22.4472 18.2663 22.5049 18.0998 22.5049C17.9418 22.5049 17.8055 22.4472 17.6896 22.3317C17.5762 22.2186 17.5207 22.079 17.5207 21.913C17.5207 21.759 17.5762 21.6242 17.6896 21.5087C17.8055 21.3956 17.9418 21.3403 18.0998 21.3403Z" fill="white"/>
<path d="M21.6443 16.018H21.4851C21.2559 16.018 21.1099 16.0805 21.046 16.2057C20.9845 16.3284 20.9543 16.4932 20.9543 16.7013V20.046H22.8604V20.4358H20.9398C20.9398 20.8497 20.8554 21.1866 20.6889 21.4464C20.5248 21.7063 20.333 21.9145 20.1147 22.0721C19.8951 22.2261 19.6731 22.3379 19.4487 22.4089C19.2268 22.4823 19.053 22.5353 18.9276 22.5677C18.825 22.5894 18.7671 22.5846 18.7539 22.5533C18.7346 22.5304 18.7514 22.5052 18.8021 22.4763C19.0313 22.3416 19.2087 22.1876 19.3377 22.0143C19.4692 21.8435 19.5718 21.6654 19.6466 21.4801C19.7069 21.3033 19.7479 21.1264 19.7672 20.9508C19.7889 20.7739 19.801 20.6067 19.801 20.4503V15.8447H21.6443V16.018Z" fill="white"/>
<path d="M27.4006 12.5C27.567 12.5 27.707 12.5577 27.8204 12.6732C27.9362 12.7863 27.9941 12.9259 27.9941 13.0919C27.9941 13.2459 27.9362 13.3807 27.8204 13.4962C27.707 13.6093 27.567 13.6646 27.4006 13.6646C27.2425 13.6646 27.1062 13.6093 26.9904 13.4962C26.877 13.3807 26.8215 13.2459 26.8215 13.0919C26.8215 12.9259 26.877 12.7863 26.9904 12.6732C27.1062 12.5577 27.2425 12.5 27.4006 12.5ZM26.6816 13.8234C26.848 13.8234 26.9868 13.8812 27.0965 13.9967C27.2051 14.1098 27.2606 14.2469 27.2606 14.4105C27.2606 14.5682 27.2051 14.7041 27.0965 14.8196C26.9868 14.9327 26.848 14.988 26.6816 14.988C26.5139 14.988 26.3751 14.9327 26.2666 14.8196C26.1568 14.7041 26.1025 14.5682 26.1025 14.4105C26.1025 14.2469 26.1568 14.1098 26.2666 13.9967C26.3751 13.8812 26.5139 13.8234 26.6816 13.8234ZM28.134 13.8234C28.3005 13.8234 28.4405 13.8812 28.5539 13.9967C28.6697 14.1098 28.7276 14.2469 28.7276 14.4105C28.7276 14.5682 28.6697 14.7041 28.5539 14.8196C28.4405 14.9327 28.3005 14.988 28.134 14.988C27.976 14.988 27.8397 14.9327 27.7239 14.8196C27.6105 14.7041 27.555 14.5682 27.555 14.4105C27.555 14.2469 27.6105 14.1098 27.7239 13.9967C27.8397 13.8812 27.976 13.8234 28.134 13.8234ZM31.5215 15.9987H31.3768C31.1379 15.9987 30.9907 16.0648 30.9328 16.196C30.8749 16.3247 30.846 16.4931 30.846 16.7013V18.4434C30.8677 18.9728 31.0112 19.3722 31.2754 19.6417C31.5421 19.9112 31.8991 20.046 32.3467 20.046H32.7521V20.4358H31.7049C31.4854 20.4165 31.3153 20.3804 31.1934 20.3251C31.0583 20.2745 30.9147 20.1927 30.7639 20.0796C30.6119 19.9641 30.4949 19.839 30.4117 19.7043C30.2343 19.9329 30.0124 20.1121 29.7458 20.2433C29.4816 20.372 29.1836 20.4358 28.853 20.4358C28.5695 20.4358 28.2884 20.3732 28.0086 20.2481C27.8735 20.1879 27.7444 20.1073 27.6225 20.0075C27.5031 19.9088 27.4247 19.7861 27.3861 19.6417C27.2377 19.892 27.0386 20.0796 26.7877 20.2048C26.5392 20.3275 26.281 20.3949 26.0108 20.4069C25.7309 20.4165 25.4571 20.3672 25.1905 20.2577C24.9263 20.1494 24.7103 19.981 24.5438 19.7524C24.3569 19.9389 24.1542 20.0989 23.9358 20.2336C23.7163 20.3684 23.4509 20.4358 23.1396 20.4358H22.2324V20.046H22.5171C22.6812 20.046 22.8429 20.0195 23.0045 19.9641C23.1686 19.9064 23.3182 19.815 23.4533 19.6898C23.5751 19.5647 23.6777 19.4047 23.7621 19.2086C23.8454 19.0101 23.8984 18.7658 23.9214 18.4771V16.1864H25.7744V16.3403H25.6344C25.3956 16.3403 25.2399 16.4065 25.1663 16.5377C25.0952 16.6664 25.0602 16.8348 25.0602 17.043V19.1893C25.0602 19.43 25.1446 19.6357 25.3159 19.8053C25.486 19.9762 25.6923 20.0604 25.9336 20.0604C26.1713 20.0604 26.3679 19.9762 26.5223 19.8053C26.6791 19.6357 26.7696 19.43 26.7925 19.1893V16.0179H28.6311V16.1719H28.4766C28.2474 16.1719 28.1051 16.2381 28.0472 16.3692C27.9893 16.498 27.9603 16.6652 27.9603 16.8697V19.2856C27.982 19.4913 28.0737 19.6682 28.2354 19.815C28.3958 19.9593 28.5852 20.0315 28.8048 20.0315C29.0424 20.0315 29.2463 19.9485 29.4176 19.7813C29.5913 19.6152 29.6782 19.4131 29.6782 19.1749V15.8447H31.5215V15.9987Z" fill="white"/>
<path d="M35.3745 16.0466H35.2201C34.9909 16.0466 34.8449 16.1127 34.781 16.2439C34.7195 16.3726 34.6893 16.5411 34.6893 16.7492V20.0457H36.7788V20.4355H32.127V20.0457H33.5167V15.8926H35.3745V16.0466ZM34.0958 21.3403C34.2622 21.3403 34.4022 21.3956 34.5156 21.5087C34.6314 21.6242 34.6893 21.759 34.6893 21.913C34.6893 22.079 34.6314 22.2186 34.5156 22.3317C34.4022 22.4472 34.2622 22.5049 34.0958 22.5049C33.9377 22.5049 33.8014 22.4472 33.6856 22.3317C33.5722 22.2186 33.5167 22.079 33.5167 21.913C33.5167 21.759 33.5722 21.6242 33.6856 21.5087C33.8014 21.3956 33.9377 21.3403 34.0958 21.3403Z" fill="white"/>
<path d="M39.6798 13.6982V13.8667C39.377 13.8667 39.1876 13.9292 39.1104 14.0544C39.0332 14.1795 38.9946 14.3467 38.9946 14.5549V18.2701C38.9946 18.9246 38.8064 19.4491 38.43 19.8438C38.2563 20.0302 38.0512 20.1758 37.8171 20.2817C37.5819 20.3852 37.3249 20.4357 37.0451 20.4357H36.1523V20.0459H36.4177C36.5842 20.0459 36.7519 20.0194 36.9196 19.9641C37.0861 19.9063 37.2308 19.8149 37.3539 19.6898C37.4794 19.5646 37.5831 19.4046 37.6676 19.2085C37.7508 19.01 37.8027 18.7658 37.822 18.477V13.6982H39.6798Z" fill="white"/>
<path d="M42.2262 13.7127V13.8522C41.9234 13.8522 41.7352 13.9184 41.6616 14.0496C41.5904 14.1783 41.5554 14.3467 41.5554 14.5549V20.4357H40.3828V13.6982L42.2262 13.7127Z" fill="white"/>
<path d="M47.2035 15.7534C47.586 15.7534 47.9286 15.816 48.2314 15.9411C48.533 16.0638 48.7875 16.2286 48.9938 16.4368C49.4305 16.8928 49.6501 17.4474 49.6501 18.1019C49.6501 18.766 49.4305 19.3171 48.9938 19.7526C48.7875 19.9583 48.533 20.1231 48.2314 20.2483C47.9286 20.3734 47.586 20.4359 47.2035 20.4359H45.3457V20.0461H46.996C47.4846 20.0461 47.8598 19.8609 48.1204 19.4879C48.2458 19.3122 48.3375 19.1053 48.3954 18.8671C48.4533 18.6265 48.4823 18.3714 48.4823 18.1019C48.4823 17.5412 48.3592 17.0949 48.1156 16.764C47.8707 16.4308 47.4931 16.2635 46.9816 16.2635C46.6172 16.2635 46.3132 16.3393 46.0695 16.4897C45.8246 16.6413 45.6859 16.9228 45.6545 17.3367H45.4519C45.4519 16.9746 45.4615 16.7051 45.4808 16.5282C45.5025 16.3526 45.5822 16.2082 45.7173 16.0951C45.8427 15.97 46.0285 15.8822 46.277 15.8304C46.528 15.7799 46.8368 15.7534 47.2035 15.7534Z" fill="white"/>
<path d="M52.5389 16.018H52.3796C52.1504 16.018 52.0045 16.0805 51.9405 16.2057C51.879 16.3284 51.8488 16.4932 51.8488 16.7013V20.4358C51.8488 20.8497 51.7644 21.1866 51.5979 21.4464C51.4338 21.7063 51.242 21.9145 51.0237 22.0721C50.7945 22.2261 50.5677 22.3379 50.3433 22.4089C50.1213 22.4823 49.9476 22.5353 49.8221 22.5677C49.7196 22.5894 49.6617 22.5846 49.6484 22.5533C49.6291 22.5304 49.646 22.5052 49.6966 22.4763C49.9259 22.3416 50.1032 22.1876 50.2323 22.0143C50.3638 21.8435 50.4663 21.6654 50.5411 21.4801C50.6014 21.3033 50.6424 21.1264 50.6618 20.9508C50.6835 20.7739 50.6955 20.6067 50.6955 20.4503V15.8447H52.5389V16.018Z" fill="white"/>
<path d="M55.1617 13.7127V13.8522C54.8589 13.8522 54.6707 13.9184 54.5971 14.0496C54.5259 14.1783 54.491 14.3467 54.491 14.5549V20.4357H53.3184V13.6982L55.1617 13.7127Z" fill="white"/>
<path d="M60.9025 15.9844H60.7433C60.5141 15.9844 60.3681 16.0469 60.3042 16.172C60.2426 16.2972 60.2125 16.4632 60.2125 16.6677V20.0461H61.5877V20.4359H60.1835V20.6524C60.1835 21.0687 60.1027 21.4056 59.9422 21.6631C59.7806 21.9229 59.5912 22.1263 59.3728 22.2742C59.1436 22.4282 58.9168 22.5389 58.6924 22.6063C58.4705 22.6737 58.2967 22.723 58.1713 22.7555C58.0772 22.7747 58.0265 22.7699 58.0169 22.7411C57.9843 22.7182 57.9939 22.6905 58.0458 22.6592C58.2738 22.5365 58.4524 22.3897 58.5814 22.2165C58.7129 22.0457 58.8155 21.8616 58.8903 21.6631C58.9603 21.4766 59.0061 21.2781 59.0254 21.0663C59.0471 20.8546 59.0592 20.644 59.0592 20.4359H58.2485C57.7913 20.4359 57.3727 20.3769 56.9939 20.2578C56.6138 20.1399 56.2893 19.9811 56.0191 19.7814C55.7453 19.5733 55.5329 19.3326 55.3821 19.0595C55.2337 18.784 55.1602 18.4748 55.1602 18.1307C55.1602 17.4257 55.4557 16.8638 56.0481 16.4464C56.6392 16.0265 57.4402 15.8159 58.4512 15.8159H60.9025V15.9844ZM58.2774 16.2635C57.6948 16.2635 57.217 16.4199 56.8443 16.7303C56.4703 17.0419 56.2845 17.5087 56.2845 18.1307C56.2845 18.7251 56.4498 19.1883 56.7815 19.5215C57.1157 19.8524 57.5319 20.0437 58.0313 20.0942H59.0447V16.3742C58.8155 16.3008 58.5597 16.2635 58.2774 16.2635Z" fill="white"/>
<path d="M65.4265 15.8594C65.8318 15.8594 66.2058 15.9267 66.5508 16.0615C66.8947 16.1962 67.1757 16.3731 67.3953 16.5909C67.633 16.8315 67.8079 17.1034 67.9213 17.4042C68.0371 17.7026 68.1059 18.019 68.1288 18.3522V18.5544C68.1384 18.8527 68.1734 19.0982 68.2349 19.2907C68.2989 19.4832 68.3821 19.6372 68.4859 19.7527C68.5884 19.8658 68.7078 19.9428 68.843 19.9837C68.9805 20.0258 69.1325 20.0462 69.2966 20.0462H69.8901V20.436H68.8767C68.7187 20.4168 68.5727 20.3867 68.4376 20.3446C68.3025 20.3037 68.1879 20.2363 68.095 20.1425C68.0431 20.0883 67.9961 20.0354 67.9551 19.9837C67.9128 19.9331 67.8706 19.8766 67.8296 19.8152C67.6945 20.0631 67.5208 20.2868 67.3084 20.489C67.0961 20.6911 66.8175 20.8499 66.4736 20.9654C66.119 21.0905 65.7184 21.1531 65.2721 21.1531C64.8667 21.1531 64.4964 21.0857 64.1622 20.951C63.8305 20.8162 63.5554 20.6394 63.337 20.4216C63.2429 20.329 63.1597 20.2327 63.0861 20.1328C63.0149 20.0342 62.9522 19.9331 62.8979 19.8297C62.7628 20.0895 62.565 20.2616 62.3044 20.3446C62.1596 20.3963 62.0149 20.4264 61.8701 20.436H60.9629V20.0462H61.4503C61.6047 20.0462 61.7458 20.0294 61.8749 19.9933C62.0064 19.9584 62.1234 19.8874 62.2272 19.7815C62.4359 19.5734 62.5613 19.2113 62.6036 18.6939V18.5062C62.6036 17.6977 62.8641 17.0553 63.3853 16.5764C63.8606 16.0988 64.541 15.8594 65.4265 15.8594ZM65.3831 16.2829C64.8812 16.2829 64.4903 16.4694 64.2105 16.8411C64.0754 17.0372 63.9704 17.2502 63.8968 17.4812C63.8256 17.7098 63.7906 17.9997 63.7906 18.3522C63.7906 18.7469 63.8341 19.0717 63.9209 19.3244C64.0102 19.5782 64.1284 19.8188 64.2732 20.0462C64.5748 20.4818 64.9596 20.7007 65.4265 20.7007C65.9151 20.7007 66.3011 20.5082 66.5846 20.1232C66.7294 19.9379 66.8271 19.7334 66.879 19.512C66.9296 19.2883 66.9562 19.0043 66.9562 18.6602C66.9562 18.2656 66.9224 17.9372 66.8549 17.6737C66.7873 17.4078 66.6811 17.1672 66.5364 16.9518C66.2432 16.5067 65.8584 16.2829 65.3831 16.2829Z" fill="white"/>
<path d="M72.7622 13.6982V13.8667C72.4594 13.8667 72.2676 13.9292 72.1879 14.0544C72.1107 14.1795 72.0721 14.3467 72.0721 14.5549V18.4578C72.1264 19.5165 72.6271 20.0459 73.5729 20.0459H73.8045V20.4357H72.9166C72.7067 20.4261 72.5378 20.396 72.4099 20.3443C72.2808 20.2901 72.1276 20.1951 71.9515 20.0603C71.8031 19.9677 71.6933 19.8534 71.6234 19.7186C71.247 20.1975 70.7463 20.4357 70.1226 20.4357H69.2637V20.0459H69.5001C69.6666 20.0459 69.8331 20.0194 69.9972 19.9641C70.1636 19.9063 70.3108 19.8149 70.4363 19.6898C70.5617 19.5646 70.6643 19.4046 70.7451 19.2085C70.8283 19.01 70.8814 18.7658 70.9043 18.477V13.6982H72.7622Z" fill="white"/>
<path d="M76.7071 13.6982V13.8667C76.4043 13.8667 76.2149 13.9292 76.1377 14.0544C76.0605 14.1795 76.0219 14.3467 76.0219 14.5549V18.2701C76.0219 18.9246 75.8337 19.4491 75.4573 19.8438C75.2836 20.0302 75.0785 20.1758 74.8445 20.2817C74.6092 20.3852 74.3523 20.4357 74.0724 20.4357H73.1797V20.0459H73.4451C73.6116 20.0459 73.7793 20.0194 73.9469 19.9641C74.1134 19.9063 74.2582 19.8149 74.3812 19.6898C74.5067 19.5646 74.6105 19.4046 74.6949 19.2085C74.7781 19.01 74.83 18.7658 74.8493 18.477V13.6982H76.7071Z" fill="white"/>
<path d="M81.3762 13.8232C81.5402 13.8232 81.6802 13.881 81.796 13.9965C81.9118 14.1096 81.9697 14.2419 81.9697 14.3959C81.9697 14.5632 81.9118 14.7039 81.796 14.8194C81.6802 14.9325 81.5402 14.9879 81.3762 14.9879C81.2181 14.9879 81.0818 14.9325 80.966 14.8194C80.8526 14.7039 80.7971 14.5632 80.7971 14.3959C80.7971 14.2419 80.8526 14.1096 80.966 13.9965C81.0818 13.881 81.2181 13.8232 81.3762 13.8232ZM82.6404 16.0177H82.4812C82.252 16.0177 82.106 16.0803 82.0421 16.2054C81.9806 16.3281 81.9504 16.493 81.9504 16.7011V20.4356C81.9504 20.8494 81.8659 21.1863 81.6995 21.4462C81.5354 21.7061 81.3436 21.9142 81.1252 22.0718C80.896 22.2258 80.6692 22.3377 80.4448 22.4087C80.2229 22.4821 80.0491 22.535 79.9237 22.5675C79.8211 22.5892 79.7632 22.5843 79.75 22.5531C79.7307 22.5302 79.7475 22.5049 79.7982 22.4761C80.0274 22.3413 80.2048 22.1873 80.3338 22.0141C80.4653 21.8432 80.5679 21.6652 80.6427 21.4799C80.703 21.303 80.744 21.1262 80.7633 20.9505C80.785 20.7736 80.7971 20.6064 80.7971 20.45V15.8445H82.6404V16.0177Z" fill="white"/>
<path d="M85.2613 13.6982V13.8522C84.9585 13.8522 84.7667 13.9184 84.6871 14.0496C84.6099 14.1783 84.5713 14.3467 84.5713 14.5549V20.0459H85.9465V20.4357H83.418V13.6982H85.2613Z" fill="white"/>
<path d="M86.7101 16.7782L88.0081 15.4692C88.7344 16.1983 89.34 16.8023 89.8225 17.2835C90.3075 17.7648 90.7068 18.157 91.0193 18.4578C91.164 18.6154 91.2955 18.7537 91.4149 18.8717C91.5332 18.9908 91.6345 19.0918 91.719 19.1748L92.1098 19.5646C92.2027 19.6585 92.2715 19.7367 92.3173 19.8005C92.3656 19.8618 92.4259 19.9436 92.5007 20.0459H93.8567V20.4357H92.7034C92.8059 20.6956 92.8626 20.9434 92.8722 21.1816C92.8843 21.4223 92.865 21.64 92.8143 21.8361C92.7721 22.0346 92.7094 22.2115 92.6261 22.3655C92.5417 22.5219 92.4741 22.647 92.4235 22.7409C92.3716 22.8239 92.3294 22.8588 92.298 22.8468C92.2654 22.8468 92.2606 22.8203 92.2835 22.7698C92.3439 22.5195 92.362 22.2849 92.3366 22.0671C92.3101 21.8518 92.2558 21.6557 92.1725 21.48C92.0881 21.3032 91.9892 21.1443 91.8734 21.0036C91.76 20.8616 91.6526 20.7353 91.5501 20.6234L91.3619 20.4357H85.3203V20.0459H90.9855L87.7862 16.8889C87.6414 16.7421 87.5014 16.6459 87.3663 16.6002C87.2312 16.552 87.084 16.6122 86.9272 16.7782L86.821 16.8889L86.7101 16.7782ZM88.5968 21.3404C88.7633 21.3404 88.9033 21.3958 89.0167 21.5089C89.1325 21.6244 89.1904 21.7591 89.1904 21.9131C89.1904 22.0792 89.1325 22.2187 89.0167 22.3318C88.9033 22.4473 88.7633 22.5051 88.5968 22.5051C88.4424 22.5051 88.3073 22.4473 88.1915 22.3318C88.0781 22.2187 88.0226 22.0792 88.0226 21.9131C88.0226 21.7591 88.0781 21.6244 88.1915 21.5089C88.3073 21.3958 88.4424 21.3404 88.5968 21.3404Z" fill="white"/>
<path d="M95.4666 13.8232C95.6331 13.8232 95.7731 13.881 95.8865 13.9965C96.0023 14.1096 96.0602 14.2467 96.0602 14.4104C96.0602 14.568 96.0023 14.7039 95.8865 14.8194C95.7731 14.9325 95.6331 14.9879 95.4666 14.9879C95.3086 14.9879 95.1723 14.9325 95.0565 14.8194C94.9431 14.7039 94.8876 14.568 94.8876 14.4104C94.8876 14.2467 94.9431 14.1096 95.0565 13.9965C95.1723 13.881 95.3086 13.8232 95.4666 13.8232ZM96.7454 16.0466H96.591C96.3497 16.0466 96.2001 16.1128 96.1422 16.2439C96.0867 16.3726 96.0602 16.5411 96.0602 16.7492V18.193C96.0602 18.5371 95.9987 18.8463 95.8768 19.1218C95.7574 19.3949 95.6042 19.6259 95.4184 19.8148C95.0227 20.2286 94.5848 20.4356 94.1058 20.4356H93.2324V20.0458H93.4833C93.6498 20.0458 93.8139 20.0205 93.9756 19.9688C94.136 19.9182 94.2844 19.8292 94.4195 19.7041C94.545 19.579 94.6487 19.4189 94.7332 19.2228C94.8164 19.0243 94.8683 18.7801 94.8876 18.4913V15.8926H96.7454V16.0466Z" fill="white"/>
<path d="M99.2708 13.7127V13.8522C98.9716 13.8522 98.781 13.9184 98.7013 14.0496C98.6241 14.1783 98.5855 14.3467 98.5855 14.5549V20.4357H97.4322V13.6982L99.2708 13.7127ZM98.1512 21.3404C98.4818 21.3404 98.7062 21.3801 98.822 21.4608C98.8823 21.5149 98.9185 21.5726 98.9281 21.634C98.9378 21.6942 98.9426 21.788 98.9426 21.9131H98.8509C98.8316 21.7688 98.7665 21.6677 98.6579 21.6099C98.5481 21.5522 98.4094 21.5233 98.2429 21.5233C98.0041 21.5233 97.8303 21.5859 97.7218 21.711C97.612 21.8361 97.5577 21.9961 97.5577 22.1922C97.5577 22.4004 97.612 22.5724 97.7218 22.7072C97.8303 22.8419 98.0041 22.9093 98.2429 22.9093H98.9909V23.1259H96.8242V22.9237H97.5094C97.1873 22.7697 97.0269 22.5255 97.0269 22.1922C97.0269 21.954 97.1246 21.7519 97.3212 21.5859C97.5203 21.4223 97.7966 21.3404 98.1512 21.3404Z" fill="white"/>
<g clip-path="url(#clip0_619_3274)">
<path d="M146.298 13.7522L145.93 14.5113H152.151L148.995 8.74789L148.666 9.5228C148.666 9.5228 143.594 7.15966 139.051 6.89746L138.404 7.45192L139.051 11.5361C139.051 11.5361 144.519 12.5272 146.297 13.7522H146.298Z" fill="white"/>
<path d="M130.937 12.9212C130.937 12.9212 128.877 13.8397 128.092 15.1532H121.939C121.939 15.1532 124.555 9.28881 130.937 7.74316C130.937 7.74316 130.701 11.2879 130.937 12.922V12.9212Z" fill="white"/>
<path d="M149.472 22.068C148.593 21.3783 147.686 20.8572 146.867 20.469C145.287 19.7191 144.048 19.4719 144.048 19.4719V18.3613L138.403 20.1708L142.711 24.3861L143.109 23.1753C150.388 24.8437 150.66 31.5832 147.55 35.6732L147.174 36.1342C146.781 36.5859 146.345 36.9968 145.872 37.3541C142.145 40.1741 137.312 39.5528 135.463 39.1728C134.977 39.0726 134.698 38.9875 134.698 38.9875L131.758 39.9787L129.394 40.7945L129.053 40.9139C137.404 46.3399 151.811 43.0716 153.341 32.5711C154.115 27.2461 151.922 23.9961 149.472 22.068Z" fill="white"/>
<path d="M147.551 35.6734C147.43 35.8304 147.304 35.9874 147.175 36.1343C145.284 35.3627 142.854 35.6358 139.582 37.2599C138.384 37.8528 136.977 38.5517 135.463 39.173C133.541 39.9629 131.446 40.6285 129.395 40.7946C127.35 40.9675 125.352 40.641 123.614 39.4494C123.614 39.4494 120.791 37.3919 121.938 34.6354C121.938 34.6354 116.338 33.7169 119.998 28.027C119.998 28.027 117.184 27.2646 117.529 24.0881C117.795 21.6357 119.733 21.0244 119.733 21.0244C119.733 21.0244 116.227 17.0956 120.589 15.069C123.673 13.636 130.938 14.7675 130.938 14.7675C130.938 14.7675 128.264 2.30715 135.534 0.654623C136.033 0.538553 136.549 0.500977 137.061 0.500977H139.229C139.229 0.500977 138.556 11.7606 140.949 15.1533C143.026 18.0951 148.592 17.129 149.474 22.069C148.595 21.3793 147.688 20.8582 146.869 20.4699C146.869 19.6533 145.861 18.7982 144.764 18.2905C142.779 17.372 139.126 16.6505 138.405 11.0491C137.687 5.44771 137.949 2.07585 137.949 2.07585C137.949 2.07585 134.766 1.00367 132.873 2.97601C129.314 6.68272 131.735 15.5992 131.735 15.5992C131.735 15.5992 123.607 14.512 121.427 16.6689C120.592 17.4956 119.977 18.9176 121.323 21.3325C121.323 21.3325 119.382 22.7755 119.777 25.1837C120.175 27.5894 121.718 28.0721 121.718 28.0721C121.718 28.0721 119.954 29.91 120.485 32.1395C121.013 34.3724 123.219 34.1094 123.219 34.1094C123.219 34.1094 121.788 38.6194 126.747 39.4911C133.717 40.7178 139.252 36.9092 140.94 36.1519C143.035 35.2108 145.417 34.8609 147.552 35.675L147.551 35.6734Z" fill="white"/>
</g>
<defs>
<clipPath id="clip0_619_3274">
<rect width="36" height="43" fill="white" transform="translate(117.5 0.5)"/>
</clipPath>
</defs>
</svg>
