<svg width="144" height="44" viewBox="0 0 144 44" fill="none" xmlns="http://www.w3.org/2000/svg">
<path d="M1.0957 24.4971V28.893C1.0957 29.1008 1.10672 29.267 1.13096 29.3917C1.1574 29.5141 1.19817 29.6125 1.25436 29.6847C1.31276 29.7613 1.38768 29.8116 1.47913 29.8378C1.57278 29.8619 1.69067 29.8728 1.8317 29.8728H2.56769V29.711H2.40904C2.16444 29.711 2.00798 29.6366 1.93747 29.4879C1.86696 29.3392 1.8317 29.1412 1.8317 28.893V24.4971H1.0957Z" fill="white"/>
<path d="M4.15804 29.8728V26.7585C4.26601 26.6426 4.38941 26.5431 4.52824 26.461C4.66596 26.3768 4.81911 26.3342 4.98658 26.3342C5.23559 26.3342 5.44272 26.4129 5.60799 26.5704C5.69283 26.6524 5.76004 26.7661 5.81072 26.9116C5.8603 27.0581 5.88564 27.2298 5.88564 27.4277V29.8728H6.62164V27.4277C6.62164 27.139 6.58197 26.8974 6.50265 26.7016C6.42332 26.507 6.31754 26.355 6.18533 26.2467C6.05312 26.133 5.90437 26.0575 5.74021 26.0193C5.57824 25.9821 5.40526 25.9624 5.22016 25.9624C4.97887 25.9624 4.76843 26.0061 4.58994 26.0936C4.41035 26.1811 4.26601 26.2751 4.15804 26.3736H4.12278C4.08091 26.2751 4.00819 26.1964 3.90242 26.1374C3.79885 26.0794 3.6391 26.0499 3.42204 26.0499H2.68164V26.2117H2.84471C3.09371 26.2117 3.25237 26.2861 3.32068 26.4348C3.38789 26.5835 3.42204 26.7782 3.42204 27.0166V29.8728H4.15804Z" fill="white"/>
<path d="M7.63597 27.1915C7.63597 27.4485 7.69767 27.6683 7.82107 27.852C7.94668 28.0335 8.08991 28.1647 8.24857 28.2457C8.18907 28.2872 8.12627 28.3408 8.05906 28.4075C7.99406 28.4753 7.9621 28.5693 7.9621 28.6918C7.9621 28.8176 7.99406 28.9193 8.05906 28.998C8.12627 29.0767 8.20229 29.1369 8.28823 29.1773C8.04364 29.2594 7.83209 29.3917 7.6536 29.5754C7.47401 29.7569 7.38477 29.9789 7.38477 30.2446C7.38477 30.4775 7.43324 30.6711 7.5302 30.8264C7.62716 30.9838 7.75276 31.1129 7.90922 31.2157C8.07669 31.3206 8.2662 31.3928 8.47774 31.4344C8.69149 31.4781 8.92837 31.5 9.18729 31.5C9.45393 31.5 9.69522 31.4781 9.91007 31.4344C10.1271 31.3928 10.3155 31.3206 10.4742 31.2157C10.6417 31.1129 10.7706 30.9838 10.862 30.8264C10.9524 30.6711 10.9986 30.4775 10.9986 30.2446C10.9986 30.0139 10.9502 29.8203 10.8532 29.6629C10.7584 29.5054 10.6284 29.3731 10.461 29.2648C10.1282 29.0756 9.70403 28.9805 9.18729 28.9805C8.61106 28.9805 8.32349 28.8843 8.32349 28.6918C8.32349 28.5026 8.61106 28.4075 9.18729 28.4075C9.40435 28.4075 9.61038 28.3878 9.8043 28.3463C10.0004 28.3058 10.1657 28.2402 10.2979 28.1494C10.4411 28.0565 10.5535 27.9307 10.6328 27.7733C10.7122 27.6158 10.7518 27.4222 10.7518 27.1915C10.7518 26.9761 10.6967 26.7924 10.5888 26.6404C10.4797 26.4862 10.342 26.3681 10.1745 26.2861V26.2467L10.7122 26.1724V25.9624H9.18729C8.97795 25.9624 8.77743 25.9832 8.58351 26.0236C8.3918 26.0652 8.22653 26.1319 8.0855 26.2248C7.95329 26.3156 7.84421 26.4392 7.75937 26.5966C7.67674 26.7541 7.63597 26.9531 7.63597 27.1915ZM10.0114 27.1915C10.0114 27.3665 9.9905 27.513 9.94973 27.6289C9.90786 27.7426 9.84947 27.8378 9.77345 27.9132C9.63242 28.0532 9.4363 28.1232 9.18729 28.1232C8.946 28.1232 8.75319 28.0532 8.60996 27.9132C8.54495 27.8378 8.48876 27.7426 8.44248 27.6289C8.39511 27.513 8.37197 27.3665 8.37197 27.1915C8.37197 27.0111 8.39511 26.8613 8.44248 26.741C8.48876 26.6185 8.54495 26.5212 8.60996 26.4479C8.75319 26.3145 8.946 26.2467 9.18729 26.2467C9.41867 26.2467 9.61479 26.3211 9.77345 26.4698C9.9321 26.6185 10.0114 26.8591 10.0114 27.1915ZM8.82591 29.2648L9.27544 29.2998C9.9332 29.3939 10.2626 29.7088 10.2626 30.2446C10.2626 30.5683 10.1624 30.8045 9.96295 30.9532C9.76243 31.1019 9.50461 31.1763 9.18729 31.1763C8.87879 31.1763 8.62428 31.1019 8.42485 30.9532C8.22433 30.8045 8.12517 30.5683 8.12517 30.2446C8.12517 29.9789 8.18907 29.7711 8.31908 29.6191C8.44799 29.4649 8.61657 29.3468 8.82591 29.2648Z" fill="white"/>
<path d="M14.6153 29.8728V27.677C14.6153 27.3129 14.5756 27.0166 14.4963 26.7891C14.4169 26.5616 14.3112 26.3856 14.1789 26.2598C14.0434 26.1439 13.8881 26.0652 13.7118 26.0236C13.5377 25.9832 13.3603 25.9624 13.1785 25.9624C13.043 25.9624 12.9163 25.9701 12.7995 25.9843C12.6849 25.9963 12.5681 26.0094 12.4513 26.0236C12.2012 26.0827 12.0305 26.157 11.9401 26.2467C11.8399 26.3462 11.7815 26.4589 11.7638 26.5835C11.7462 26.7093 11.7374 26.8416 11.7374 26.9816H12.112C12.1704 26.7169 12.2762 26.5343 12.4293 26.4348C12.5847 26.3364 12.7797 26.2861 13.0155 26.2861C13.2733 26.2861 13.4782 26.3725 13.6281 26.5442C13.7008 26.6524 13.7603 26.7978 13.8043 26.9816C13.8506 27.1631 13.8749 27.3949 13.8749 27.677H13.6281C13.3427 27.677 13.075 27.6934 12.826 27.7252C12.5758 27.758 12.3555 27.8203 12.1649 27.9132C11.971 27.9953 11.8178 28.1101 11.7065 28.2588C11.5942 28.4075 11.5391 28.5945 11.5391 28.8187C11.5391 29.0407 11.5798 29.2244 11.6625 29.3698C11.7473 29.5163 11.8476 29.6344 11.9621 29.7241C12.0789 29.8061 12.2067 29.8663 12.3456 29.9034C12.4833 29.9406 12.61 29.9603 12.7246 29.9603C13.0419 29.9603 13.2909 29.91 13.4738 29.8116C13.6589 29.7132 13.7922 29.6093 13.8749 29.501H13.9145L14.201 29.8728H14.6153ZM13.8749 27.9963V29.103C13.7922 29.2287 13.6909 29.3414 13.5708 29.4398C13.4496 29.5393 13.2898 29.5885 13.0904 29.5885C12.8722 29.5885 12.6937 29.5262 12.5527 29.4004C12.4844 29.3337 12.4271 29.2539 12.3808 29.1598C12.3368 29.0636 12.3147 28.9499 12.3147 28.8187C12.3147 28.5715 12.4304 28.3725 12.6629 28.2238C12.8976 28.0729 13.2193 27.9963 13.6281 27.9963H13.8749Z" fill="white"/>
<path d="M18.7313 26.0498H16.2281C15.9603 26.0498 15.7741 26.1154 15.6684 26.2466C15.6089 26.3057 15.5714 26.3735 15.5538 26.4522C15.5362 26.531 15.5273 26.6119 15.5273 26.6928V27.104H15.6904C15.6904 26.8743 15.7741 26.695 15.9416 26.5659C16.1091 26.438 16.3669 26.3735 16.7173 26.3735H17.656L15.5273 29.724V29.8727H18.7313V29.5491H16.519L18.7313 26.0498Z" fill="white"/>
<path d="M23.6748 27.3883L24.499 28.7662C24.748 29.2068 24.9904 29.5174 25.2261 29.6978C25.4344 29.8728 25.6845 29.9603 25.9754 29.9603C26.0833 29.9603 26.1803 29.9493 26.2662 29.9297C26.3544 29.9089 26.4249 29.8903 26.4778 29.8728V29.711C26.2596 29.688 26.0767 29.6136 25.9269 29.4879C25.8409 29.4124 25.7506 29.3195 25.6536 29.2079C25.5589 29.0975 25.4619 28.9499 25.3628 28.7662L24.499 27.3533C24.64 27.3129 24.7865 27.2637 24.9397 27.2046C25.095 27.1467 25.2405 27.0636 25.376 26.9553C25.5082 26.8481 25.614 26.7136 25.6933 26.5529C25.7726 26.3899 25.8123 26.1931 25.8123 25.9624C25.8123 25.6387 25.7385 25.3806 25.5919 25.1882C25.4476 24.9935 25.2669 24.8459 25.0499 24.7464C24.8405 24.6392 24.618 24.5703 24.38 24.5408C24.142 24.5124 23.936 24.4971 23.763 24.4971H21.6211V24.6589H21.7974C22.0376 24.6589 22.194 24.7333 22.2645 24.882C22.3373 25.0307 22.3747 25.2297 22.3747 25.4769V29.8728H23.1107V27.3883H23.6748ZM23.7233 27.104C23.5052 27.104 23.3013 27.0756 23.1107 27.0165V24.8689C23.3013 24.8109 23.5052 24.7814 23.7233 24.7814C23.8401 24.7814 23.9701 24.8054 24.1111 24.8514C24.2522 24.8984 24.3899 24.9673 24.5254 25.057C24.6576 25.1477 24.7678 25.2669 24.8559 25.4156C24.9441 25.5643 24.9882 25.747 24.9882 25.9624C24.9882 26.1702 24.9441 26.3429 24.8559 26.4829C24.7678 26.6229 24.6576 26.7399 24.5254 26.8328C24.3899 26.9236 24.2522 26.9925 24.1111 27.0384C23.9701 27.0821 23.8401 27.104 23.7233 27.104Z" fill="white"/>
<path d="M30.0157 28.0838L30.0289 27.7514C30.0289 27.1806 29.8945 26.7399 29.6279 26.4304C29.3601 26.1188 28.947 25.9624 28.3895 25.9624C28.1305 25.9624 27.8981 26.0149 27.6931 26.1199C27.4904 26.2227 27.3185 26.3637 27.1775 26.5442C27.0332 26.7279 26.9263 26.94 26.8558 27.1784C26.7853 27.4179 26.75 27.6792 26.75 27.9614C26.75 28.2358 26.7853 28.4928 26.8558 28.7312C26.9263 28.9707 27.0332 29.1817 27.1775 29.3654C27.3185 29.547 27.4959 29.6913 27.7108 29.7985C27.9278 29.9056 28.179 29.9603 28.4644 29.9603C28.7817 29.9603 29.0605 29.8947 29.3017 29.7635C29.5419 29.6301 29.7557 29.4092 29.9408 29.103L29.7777 28.9805C29.6367 29.1883 29.4758 29.3468 29.2973 29.4573C29.1177 29.5688 28.8941 29.6235 28.6274 29.6235C28.4512 29.6235 28.2947 29.5841 28.1603 29.5054C28.0281 29.4267 27.9113 29.3217 27.8121 29.1905C27.6204 28.9083 27.5257 28.5387 27.5257 28.0838H30.0157ZM29.2533 27.7514H27.5257C27.5257 27.3206 27.6094 26.9717 27.7769 26.706C27.8496 26.5748 27.9366 26.4731 28.0369 26.3998C28.1394 26.3244 28.2572 26.2861 28.3895 26.2861C28.6803 26.2861 28.8963 26.4129 29.0373 26.6666C29.1805 26.9181 29.2533 27.279 29.2533 27.7514Z" fill="white"/>
<path d="M32.5545 25.9624C32.246 25.9624 31.9782 26.0149 31.7524 26.1199C31.5287 26.2227 31.3403 26.3637 31.1883 26.5442C31.0384 26.7279 30.9282 26.94 30.8577 27.1784C30.7872 27.4179 30.752 27.6792 30.752 27.9614C30.752 28.2358 30.7872 28.4928 30.8577 28.7312C30.9282 28.9707 31.0384 29.1817 31.1883 29.3654C31.3403 29.547 31.5287 29.6913 31.7524 29.7985C31.9782 29.9056 32.246 29.9603 32.5545 29.9603C32.8773 29.9603 33.1638 29.8947 33.4139 29.7635C33.6662 29.6301 33.8832 29.4092 34.0661 29.103L33.9031 28.9805C33.762 29.1883 33.6012 29.3468 33.4227 29.4573C33.2431 29.5688 33.0084 29.6235 32.7175 29.6235C32.5082 29.6235 32.3308 29.5819 32.1843 29.4967C32.0366 29.4092 31.9132 29.2911 31.8141 29.1424C31.7138 28.9914 31.64 28.8143 31.5937 28.6131C31.5496 28.4097 31.5276 28.1921 31.5276 27.9614C31.5276 27.723 31.5496 27.5021 31.5937 27.3009C31.64 27.0975 31.7138 26.9203 31.8141 26.7716C31.9132 26.6207 32.0366 26.5026 32.1843 26.4173C32.3308 26.3298 32.5082 26.2861 32.7175 26.2861C33.0084 26.2861 33.253 26.3714 33.4535 26.5398C33.653 26.7093 33.762 26.9641 33.7797 27.3052H33.9427C33.9427 27.1543 33.9427 27.0231 33.9427 26.9116C33.9427 26.8011 33.9339 26.7038 33.9163 26.6185C33.8921 26.4643 33.8337 26.3408 33.74 26.2467C33.6397 26.1483 33.4899 26.0761 33.2905 26.0324C33.09 25.9865 32.8454 25.9624 32.5545 25.9624Z" fill="white"/>
<path d="M35.7433 29.8728V26.8547C35.9163 26.5835 36.1752 26.4479 36.5189 26.4479C36.8274 26.4479 37.0434 26.5299 37.1668 26.6929L37.5061 26.4479C37.4555 26.3637 37.4103 26.2937 37.3695 26.238C37.3276 26.18 37.2781 26.1286 37.2197 26.0849C37.1602 26.0444 37.083 26.0138 36.9861 25.993C36.8913 25.9733 36.8021 25.9624 36.7173 25.9624C36.476 25.9624 36.2732 26.0127 36.1091 26.1111C35.9471 26.2106 35.8248 26.3101 35.7433 26.4086H35.6948C35.6507 26.2861 35.5758 26.1964 35.47 26.1374C35.3665 26.0794 35.2078 26.0499 34.9941 26.0499H34.3418V26.2117H34.4299C34.6701 26.2117 34.8244 26.2861 34.8927 26.4348C34.9599 26.5835 34.9941 26.7782 34.9941 27.0166V29.8728H35.7433Z" fill="white"/>
<path d="M40.6579 26.0498V29.151C40.5488 29.268 40.4254 29.3697 40.2877 29.4572C40.1522 29.5447 40.0012 29.5884 39.8337 29.5884C39.7247 29.5884 39.6156 29.5687 39.5076 29.5272C39.3985 29.4834 39.3027 29.4211 39.2211 29.3391C39.1385 29.2582 39.0691 29.1466 39.014 29.0067C38.9611 28.8645 38.9347 28.6896 38.9347 28.4818V27.0165C38.9347 26.6206 38.884 26.356 38.7848 26.2248C38.7253 26.1493 38.6482 26.1012 38.5513 26.0804C38.4543 26.0607 38.3353 26.0498 38.1943 26.0498H37.5332V26.2116H37.6213C37.8615 26.2116 38.018 26.286 38.0885 26.4347C38.159 26.5834 38.1943 26.7781 38.1943 27.0165V28.4818C38.1943 28.7792 38.2339 29.022 38.3133 29.2079C38.3926 29.3949 38.4995 29.5469 38.635 29.6628C38.7672 29.771 38.9137 29.8465 39.0757 29.8902C39.2399 29.9362 39.4084 29.9602 39.5825 29.9602C39.8315 29.9602 40.0464 29.9165 40.226 29.829C40.4045 29.7415 40.5488 29.6486 40.6579 29.5491H40.6975L40.984 29.8727H41.3983V26.0498H40.6579Z" fill="white"/>
<path d="M43.385 25.1924C43.385 25.0524 43.3409 24.9321 43.2527 24.8293C43.1646 24.7244 43.0544 24.6719 42.9222 24.6719C42.6721 24.6719 42.5476 24.7922 42.5476 25.0305C42.5476 25.1705 42.5928 25.293 42.6842 25.398C42.7746 25.5008 42.8836 25.5511 43.0103 25.5511C43.2593 25.5511 43.385 25.4319 43.385 25.1924ZM43.4334 29.8726V27.0164C43.4334 26.6205 43.3827 26.3559 43.2836 26.2247C43.2241 26.1492 43.147 26.1011 43.05 26.0803C42.9553 26.0606 42.8385 26.0497 42.6974 26.0497H41.957V26.2115H42.1201C42.3691 26.2115 42.5278 26.2859 42.5961 26.4346C42.6633 26.5833 42.6974 26.778 42.6974 27.0164V29.8726H43.4334Z" fill="white"/>
<path d="M44.7468 26.3736V28.8931C44.7468 29.267 44.8371 29.5382 45.02 29.7066C45.2051 29.875 45.4398 29.9603 45.7251 29.9603C45.8662 29.9603 45.9918 29.9472 46.1042 29.921C46.2187 29.8969 46.3168 29.8685 46.3994 29.8335C46.481 29.8018 46.5493 29.7679 46.6022 29.7329C46.6573 29.6957 46.7057 29.6585 46.7476 29.6235L46.6727 29.4617C46.5901 29.5054 46.503 29.5437 46.4127 29.5754C46.3212 29.6082 46.2033 29.6235 46.0601 29.6235C45.6778 29.6235 45.4872 29.3808 45.4872 28.8931V26.3736H46.4611V26.0499H45.4872V24.8208H45.1478L44.7468 25.3151V26.0499H44.1738V26.3736H44.7468Z" fill="white"/>
<path d="M48.2244 26.3736H48.1892C48.1473 26.2751 48.0746 26.1964 47.9688 26.1374C47.8653 26.0794 47.7055 26.0499 47.4884 26.0499H46.748V26.2117H46.9111C47.1601 26.2117 47.3188 26.2861 47.3871 26.4348C47.4543 26.5835 47.4884 26.7782 47.4884 27.0166V29.8728H48.2244V26.7585C48.3324 26.6426 48.4558 26.5431 48.5946 26.461C48.7324 26.3768 48.8855 26.3342 49.053 26.3342C49.2579 26.3342 49.4166 26.4162 49.529 26.5791C49.6435 26.7399 49.7008 27.0231 49.7008 27.4277V29.8728H50.4412V27.4277C50.4412 27.3468 50.4379 27.2462 50.4324 27.1259C50.4291 27.0034 50.4192 26.9138 50.4016 26.8547C50.4423 26.7913 50.4941 26.7301 50.5558 26.671C50.6197 26.613 50.6891 26.5551 50.763 26.496C50.8478 26.4556 50.9315 26.4195 51.0142 26.3867C51.0957 26.3517 51.1794 26.3342 51.2654 26.3342C51.4736 26.3342 51.6334 26.4162 51.7458 26.5791C51.857 26.7399 51.9132 27.0231 51.9132 27.4277V29.8728H52.6536V27.4277C52.6536 27.139 52.6206 26.8974 52.5567 26.7016C52.495 26.507 52.4134 26.355 52.3143 26.2467C52.2052 26.133 52.0818 26.0575 51.9441 26.0193C51.8086 25.9821 51.6664 25.9624 51.5166 25.9624C51.2808 25.9624 51.0505 26.0127 50.8247 26.1111C50.601 26.2106 50.4192 26.3517 50.2782 26.5354C50.1779 26.3025 50.0413 26.1494 49.8683 26.0761C49.6975 26.0007 49.5036 25.9624 49.2866 25.9624C49.0453 25.9624 48.8348 26.0061 48.6563 26.0936C48.4768 26.1811 48.3324 26.2751 48.2244 26.3736Z" fill="white"/>
<path d="M56.8555 28.0838L56.8688 27.7514C56.8688 27.1806 56.7343 26.7399 56.4677 26.4304C56.2 26.1188 55.7868 25.9624 55.2293 25.9624C54.9704 25.9624 54.7379 26.0149 54.533 26.1199C54.3302 26.2227 54.1584 26.3637 54.0173 26.5442C53.873 26.7279 53.7661 26.94 53.6956 27.1784C53.6251 27.4179 53.5898 27.6792 53.5898 27.9614C53.5898 28.2358 53.6251 28.4928 53.6956 28.7312C53.7661 28.9707 53.873 29.1817 54.0173 29.3654C54.1584 29.547 54.3358 29.6913 54.5506 29.7985C54.7677 29.9056 55.0189 29.9603 55.3042 29.9603C55.6215 29.9603 55.9003 29.8947 56.1416 29.7635C56.3818 29.6301 56.5955 29.4092 56.7806 29.103L56.6176 28.9805C56.4765 29.1883 56.3157 29.3468 56.1372 29.4573C55.9576 29.5688 55.7339 29.6235 55.4673 29.6235C55.291 29.6235 55.1346 29.5841 55.0001 29.5054C54.8679 29.4267 54.7511 29.3217 54.652 29.1905C54.4603 28.9083 54.3655 28.5387 54.3655 28.0838H56.8555ZM56.0931 27.7514H54.3655C54.3655 27.3206 54.4492 26.9717 54.6167 26.706C54.6894 26.5748 54.7765 26.4731 54.8767 26.3998C54.9792 26.3244 55.0971 26.2861 55.2293 26.2861C55.5202 26.2861 55.7361 26.4129 55.8772 26.6666C56.0204 26.9181 56.0931 27.279 56.0931 27.7514Z" fill="white"/>
<path d="M58.6678 29.8728V26.7585C58.7758 26.6426 58.8992 26.5431 59.038 26.461C59.1757 26.3768 59.3289 26.3342 59.4963 26.3342C59.7454 26.3342 59.9525 26.4129 60.1178 26.5704C60.2026 26.6524 60.2698 26.7661 60.3205 26.9116C60.3701 27.0581 60.3954 27.2298 60.3954 27.4277V29.8728H61.1314V27.4277C61.1314 27.139 61.0917 26.8974 61.0124 26.7016C60.9331 26.507 60.8273 26.355 60.6951 26.2467C60.5629 26.133 60.4141 26.0575 60.25 26.0193C60.088 25.9821 59.915 25.9624 59.7299 25.9624C59.4886 25.9624 59.2782 26.0061 59.0997 26.0936C58.9201 26.1811 58.7758 26.2751 58.6678 26.3736H58.6325C58.5907 26.2751 58.518 26.1964 58.4122 26.1374C58.3086 26.0794 58.1489 26.0499 57.9318 26.0499H57.1914V26.2117H57.3545C57.6035 26.2117 57.7621 26.2861 57.8304 26.4348C57.8977 26.5835 57.9318 26.7782 57.9318 27.0166V29.8728H58.6678Z" fill="white"/>
<path d="M62.4323 26.3736V28.8931C62.4323 29.267 62.5227 29.5382 62.7055 29.7066C62.8906 29.875 63.1253 29.9603 63.4107 29.9603C63.5517 29.9603 63.6773 29.9472 63.7897 29.921C63.9043 29.8969 64.0024 29.8685 64.085 29.8335C64.1665 29.8018 64.2348 29.7679 64.2877 29.7329C64.3428 29.6957 64.3913 29.6585 64.4332 29.6235L64.3582 29.4617C64.2756 29.5054 64.1886 29.5437 64.0982 29.5754C64.0068 29.6082 63.8889 29.6235 63.7456 29.6235C63.3633 29.6235 63.1727 29.3808 63.1727 28.8931V26.3736H64.1467V26.0499H63.1727V24.8208H62.8334L62.4323 25.3151V26.0499H61.8594V26.3736H62.4323Z" fill="white"/>
<path d="M71.7867 26.2119H71.963C71.963 25.9648 71.9542 25.7308 71.9366 25.5121C71.9211 25.2912 71.8594 25.114 71.7515 24.9828C71.6016 24.8078 71.3636 24.6569 71.0375 24.5279C70.7136 24.4 70.3213 24.3354 69.8608 24.3354C69.5104 24.3354 69.1821 24.4131 68.8736 24.5673C68.5651 24.7193 68.2985 24.9281 68.0759 25.1928C67.8401 25.4497 67.655 25.7559 67.5206 26.1113C67.3884 26.4678 67.3223 26.8527 67.3223 27.2661C67.3223 28.0534 67.5514 28.7073 68.0098 29.2257C68.2268 29.4772 68.4946 29.6751 68.8119 29.8205C69.1292 29.9627 69.4785 30.0349 69.8608 30.0349C70.1131 30.0349 70.3467 30.0141 70.5615 29.9736C70.7786 29.9321 70.9802 29.8588 71.1653 29.7505C71.3471 29.6346 71.519 29.4925 71.6809 29.3263C71.8451 29.16 71.9939 28.949 72.1261 28.692L71.963 28.5695C71.7305 28.9435 71.4672 29.2278 71.1741 29.4225C70.8832 29.615 70.5285 29.7112 70.112 29.7112C69.7616 29.7112 69.4641 29.6412 69.2173 29.5012C68.9727 29.3613 68.7678 29.1754 68.6003 28.9413C68.4417 28.7117 68.3238 28.4514 68.2478 28.1628C68.1739 27.8719 68.1376 27.5723 68.1376 27.2661C68.1376 26.7795 68.1883 26.3716 68.2918 26.0413C68.3976 25.7089 68.5408 25.4399 68.7237 25.2321C68.9088 25.0255 69.1182 24.8778 69.354 24.7904C69.592 24.7029 69.8443 24.6591 70.112 24.6591C70.5703 24.6591 70.9383 24.7838 71.2182 25.0309C71.4969 25.2792 71.6865 25.6728 71.7867 26.2119Z" fill="white"/>
<path d="M72.7891 27.9614C72.7891 28.5333 72.9477 29.0013 73.265 29.3654C73.4149 29.547 73.6 29.6913 73.8203 29.7985C74.0407 29.9056 74.2974 29.9603 74.5916 29.9603C74.8736 29.9603 75.1271 29.9056 75.354 29.7985C75.5799 29.6913 75.7705 29.547 75.927 29.3654C76.0856 29.1817 76.2013 28.9707 76.2751 28.7312C76.3511 28.4928 76.3897 28.2358 76.3897 27.9614C76.3897 27.6792 76.3511 27.4179 76.2751 27.1784C76.2013 26.94 76.0856 26.7279 75.927 26.5442C75.7705 26.3637 75.5799 26.2227 75.354 26.1199C75.1271 26.0149 74.8736 25.9624 74.5916 25.9624C74.2974 25.9624 74.0407 26.0149 73.8203 26.1199C73.6 26.2227 73.4149 26.3637 73.265 26.5442C72.9477 26.9094 72.7891 27.3818 72.7891 27.9614ZM75.6185 27.9614C75.6185 28.4338 75.5259 28.8274 75.3408 29.1424C75.2494 29.2911 75.1392 29.4092 75.0103 29.4967C74.8803 29.5819 74.7414 29.6235 74.5916 29.6235C74.4417 29.6235 74.3029 29.5819 74.1773 29.4967C74.0539 29.4092 73.9448 29.2911 73.8512 29.1424C73.6595 28.8362 73.5647 28.4425 73.5647 27.9614C73.5647 27.4747 73.6595 27.0778 73.8512 26.7716C73.9448 26.6207 74.0539 26.5026 74.1773 26.4173C74.3029 26.3298 74.4417 26.2861 74.5916 26.2861C74.7414 26.2861 74.8803 26.3298 75.0103 26.4173C75.1392 26.5026 75.2494 26.6207 75.3408 26.7716C75.5259 27.0844 75.6185 27.4802 75.6185 27.9614Z" fill="white"/>
<path d="M78.2166 26.3736H78.1814C78.1395 26.2751 78.0668 26.1964 77.961 26.1374C77.8574 26.0794 77.6977 26.0499 77.4806 26.0499H76.7402V26.2117H76.9033C77.1523 26.2117 77.311 26.2861 77.3793 26.4348C77.4465 26.5835 77.4806 26.7782 77.4806 27.0166V29.8728H78.2166V26.7585C78.3246 26.6426 78.448 26.5431 78.5868 26.461C78.7246 26.3768 78.8777 26.3342 79.0452 26.3342C79.2501 26.3342 79.4088 26.4162 79.5212 26.5791C79.6357 26.7399 79.693 27.0231 79.693 27.4277V29.8728H80.4334V27.4277C80.4334 27.3468 80.4301 27.2462 80.4246 27.1259C80.4213 27.0034 80.4114 26.9138 80.3938 26.8547C80.4345 26.7913 80.4863 26.7301 80.548 26.671C80.6119 26.613 80.6813 26.5551 80.7552 26.496C80.84 26.4556 80.9237 26.4195 81.0064 26.3867C81.0879 26.3517 81.1716 26.3342 81.2576 26.3342C81.4658 26.3342 81.6256 26.4162 81.738 26.5791C81.8492 26.7399 81.9054 27.0231 81.9054 27.4277V29.8728H82.6458V27.4277C82.6458 27.139 82.6128 26.8974 82.5489 26.7016C82.4872 26.507 82.4056 26.355 82.3065 26.2467C82.1974 26.133 82.074 26.0575 81.9363 26.0193C81.8008 25.9821 81.6586 25.9624 81.5088 25.9624C81.273 25.9624 81.0427 26.0127 80.8169 26.1111C80.5932 26.2106 80.4114 26.3517 80.2704 26.5354C80.1701 26.3025 80.0335 26.1494 79.8605 26.0761C79.6897 26.0007 79.4958 25.9624 79.2788 25.9624C79.0375 25.9624 78.827 26.0061 78.6485 26.0936C78.4689 26.1811 78.3246 26.2751 78.2166 26.3736Z" fill="white"/>
<path d="M84.658 31.4256V29.711C84.7836 29.77 84.928 29.8247 85.0899 29.8772C85.2508 29.9319 85.4491 29.9603 85.6849 29.9603C85.9515 29.9603 86.1829 29.9056 86.3768 29.7985C86.5729 29.6913 86.7393 29.547 86.8748 29.3654C86.9982 29.1817 87.0908 28.9707 87.1525 28.7312C87.2164 28.4928 87.2494 28.2358 87.2494 27.9614C87.2494 27.373 87.1238 26.9006 86.8748 26.5442C86.7569 26.3637 86.6038 26.2227 86.4165 26.1199C86.2281 26.0149 86.0132 25.9624 85.773 25.9624C85.4645 25.9624 85.2222 26.0127 85.0459 26.1111C84.8718 26.2106 84.7429 26.3101 84.658 26.4086H84.6228C84.5809 26.2861 84.5082 26.1964 84.4024 26.1374C84.2989 26.0794 84.1391 26.0499 83.922 26.0499H83.1816V26.2117H83.3447C83.5937 26.2117 83.7524 26.2861 83.8207 26.4348C83.8879 26.5835 83.922 26.7782 83.922 27.0166V31.4256H84.658ZM84.658 29.3873V26.7804C84.7429 26.6491 84.852 26.5343 84.9842 26.4348C85.0514 26.3943 85.1307 26.3593 85.2222 26.3298C85.3125 26.3014 85.4128 26.2861 85.5218 26.2861C85.6893 26.2861 85.8303 26.3298 85.9449 26.4173C86.0617 26.5026 86.1631 26.6207 86.249 26.7716C86.3217 26.9203 86.3746 27.0975 86.4077 27.3009C86.4429 27.5021 86.4606 27.723 86.4606 27.9614C86.4606 28.1921 86.4429 28.4097 86.4077 28.6131C86.3746 28.8143 86.3129 28.9914 86.2226 29.1424C86.1399 29.2911 86.0353 29.4092 85.9097 29.4966C85.783 29.5819 85.6243 29.6235 85.4337 29.6235C85.3103 29.6235 85.1803 29.5994 85.0459 29.5491C84.9137 29.4999 84.7836 29.4463 84.658 29.3873Z" fill="white"/>
<path d="M91.0254 29.8728V27.677C91.0254 27.3129 90.9857 27.0166 90.9064 26.7891C90.8271 26.5616 90.7213 26.3856 90.5891 26.2598C90.4536 26.1439 90.2982 26.0652 90.1219 26.0236C89.9479 25.9832 89.7705 25.9624 89.5887 25.9624C89.4532 25.9624 89.3265 25.9701 89.2097 25.9843C89.0951 25.9963 88.9783 26.0094 88.8615 26.0236C88.6114 26.0827 88.4406 26.157 88.3503 26.2467C88.25 26.3462 88.1916 26.4589 88.174 26.5835C88.1564 26.7093 88.1475 26.8416 88.1475 26.9816H88.5221C88.5805 26.7169 88.6863 26.5343 88.8395 26.4348C88.9948 26.3364 89.1898 26.2861 89.4256 26.2861C89.6834 26.2861 89.8884 26.3725 90.0382 26.5442C90.1109 26.6524 90.1704 26.7978 90.2145 26.9816C90.2608 27.1631 90.285 27.3949 90.285 27.677H90.0382C89.7528 27.677 89.4851 27.6934 89.2361 27.7252C88.986 27.758 88.7656 27.8203 88.575 27.9132C88.3811 27.9953 88.228 28.1101 88.1167 28.2588C88.0043 28.4075 87.9492 28.5945 87.9492 28.8187C87.9492 29.0407 87.99 29.2244 88.0726 29.3698C88.1575 29.5163 88.2577 29.6344 88.3723 29.7241C88.4891 29.8061 88.6169 29.8663 88.7557 29.9034C88.8935 29.9406 89.0202 29.9603 89.1347 29.9603C89.4521 29.9603 89.7011 29.91 89.884 29.8116C90.0691 29.7132 90.2024 29.6093 90.285 29.501H90.3247L90.6111 29.8728H91.0254ZM90.285 27.9963V29.103C90.2024 29.2287 90.101 29.3414 89.9809 29.4398C89.8597 29.5393 89.7 29.5885 89.5005 29.5885C89.2824 29.5885 89.1039 29.5262 88.9629 29.4004C88.8946 29.3337 88.8373 29.2539 88.791 29.1598C88.7469 29.0636 88.7249 28.9499 88.7249 28.8187C88.7249 28.5715 88.8406 28.3725 89.073 28.2238C89.3077 28.0729 89.6294 27.9963 90.0382 27.9963H90.285Z" fill="white"/>
<path d="M93.0252 29.8728V26.7585C93.1332 26.6426 93.2566 26.5431 93.3954 26.461C93.5332 26.3768 93.6863 26.3342 93.8538 26.3342C94.1028 26.3342 94.3099 26.4129 94.4752 26.5704C94.56 26.6524 94.6272 26.7661 94.6779 26.9116C94.7275 27.0581 94.7528 27.2298 94.7528 27.4277V29.8728H95.4888V27.4277C95.4888 27.139 95.4492 26.8974 95.3698 26.7016C95.2905 26.507 95.1847 26.355 95.0525 26.2467C94.9203 26.133 94.7716 26.0575 94.6074 26.0193C94.4454 25.9821 94.2725 25.9624 94.0874 25.9624C93.8461 25.9624 93.6356 26.0061 93.4571 26.0936C93.2775 26.1811 93.1332 26.2751 93.0252 26.3736H92.99C92.9481 26.2751 92.8754 26.1964 92.7696 26.1374C92.666 26.0794 92.5063 26.0499 92.2892 26.0499H91.5488V26.2117H91.7119C91.9609 26.2117 92.1196 26.2861 92.1879 26.4348C92.2551 26.5835 92.2892 26.7782 92.2892 27.0166V29.8728H93.0252Z" fill="white"/>
<path d="M98.1787 29.9603L98.0069 30.4065C97.9474 30.5814 97.8802 30.7214 97.8041 30.8264C97.7303 30.9335 97.6466 31.021 97.5529 31.0888C97.4615 31.1468 97.3601 31.1905 97.2488 31.22C97.1364 31.2485 97.0219 31.2638 96.9051 31.2638V31.5H97.1563C97.2973 31.5 97.4273 31.4847 97.5485 31.4562C97.6686 31.4267 97.7788 31.3709 97.8791 31.29C97.9782 31.2047 98.073 31.0932 98.1611 30.9532C98.2493 30.8132 98.3341 30.6306 98.4167 30.4065L100.017 26.0499H99.6067L98.5798 28.8668L97.6411 26.6185C97.5584 26.4064 97.435 26.2445 97.2709 26.133C97.1089 26.0193 96.9029 25.9624 96.6539 25.9624H95.9531V26.1242C96.1702 26.1483 96.3553 26.2106 96.5084 26.3123C96.6638 26.4118 96.7828 26.5682 96.8654 26.7804L98.1787 29.9603Z" fill="white"/>
<path d="M3.99239 15.9424C4.40886 15.9424 4.79449 16.0124 5.14706 16.1523C5.49964 16.2901 5.7883 16.4695 6.01527 16.6903C6.51769 17.189 6.7689 17.8484 6.7689 18.6674C6.7689 19.4843 6.50557 20.1371 5.98002 20.627C5.4776 21.1169 4.76033 21.3619 3.82932 21.3619C3.43268 21.3619 3.06358 21.2973 2.72313 21.1694C2.63719 21.1257 2.55676 21.0841 2.48073 21.0469C2.40691 21.0119 2.33199 20.9726 2.25597 20.9288C2.19096 21.3334 2.07307 21.6659 1.9034 21.9261C1.73262 22.1853 1.53981 22.3952 1.32606 22.556C1.11121 22.7134 0.899666 22.8283 0.691428 22.9015C0.482088 22.977 0.314616 23.0306 0.184605 23.0634C0.0788329 23.0863 0.0204381 23.082 0.00831838 23.0502C-0.011514 23.0262 0.00391123 22.9999 0.0567971 22.9715C0.29258 22.8315 0.475477 22.6741 0.607692 22.4991C0.74211 22.3241 0.847882 22.1404 0.925007 21.948C0.988911 21.7665 1.03188 21.586 1.05281 21.4056C1.07265 21.2274 1.08366 21.0579 1.08366 20.8982V18.4618C1.09468 18.2902 1.11892 18.1294 1.15418 17.9807C1.19164 17.832 1.23902 17.6833 1.29521 17.5345C1.60371 16.8434 2.10612 16.3776 2.80246 16.1348C3.15503 16.0069 3.55167 15.9424 3.99239 15.9424ZM3.94391 16.371H3.82932C3.79627 16.3831 3.74779 16.3885 3.68389 16.3885C3.29826 16.4531 2.98315 16.6379 2.73635 16.944C2.65041 17.0643 2.5821 17.1792 2.52921 17.2896C2.47633 17.4011 2.43336 17.5302 2.4014 17.6789C2.3364 17.9042 2.30445 18.1753 2.30445 18.4925C2.30445 18.8227 2.3364 19.1092 2.4014 19.3542C2.44548 19.5237 2.50057 19.6778 2.56888 19.8178C2.63939 19.9556 2.71652 20.0923 2.80246 20.229C3.11316 20.6751 3.5098 20.8982 3.99239 20.8982C4.4948 20.8982 4.88924 20.7014 5.17791 20.3077C5.32776 20.1185 5.42912 19.9097 5.48201 19.6822C5.5371 19.4526 5.56574 19.1617 5.56574 18.8118C5.56574 18.1852 5.46879 17.6854 5.27487 17.3115C5.26275 17.2918 5.25063 17.2677 5.23961 17.2415C5.2308 17.2152 5.21978 17.1912 5.20876 17.1671C5.1669 17.1267 5.14045 17.0906 5.12943 17.0578C4.82975 16.6007 4.43421 16.371 3.94391 16.371Z" fill="white"/>
<path d="M9.46344 13.7421V13.8865C9.15494 13.8865 8.96212 13.9543 8.8861 14.0877C8.81228 14.2189 8.77592 14.3917 8.77592 14.6038V20.6269H7.56836V13.729L9.46344 13.7421Z" fill="white"/>
<path d="M11.5358 15.8286C11.9324 15.8286 12.285 15.8931 12.5935 16.0211C12.9042 16.1501 13.1675 16.3207 13.3824 16.5328C13.8319 16.9998 14.0566 17.5684 14.0566 18.2387V18.6018C14.1095 19.6865 14.6219 20.2289 15.5947 20.2289H15.8371V20.627H14.9381C14.7232 20.616 14.5469 20.5832 14.4092 20.5307C14.2704 20.4782 14.115 20.3842 13.9421 20.2464C13.7713 20.1185 13.6336 19.9577 13.5278 19.7653C13.3129 20.031 13.0364 20.241 12.6992 20.3951C12.361 20.5504 11.9732 20.627 11.5358 20.627H9.62305V20.2289H11.3242C11.8288 20.2289 12.2156 20.0387 12.4833 19.6559C12.6089 19.4755 12.7014 19.2623 12.7609 19.0173C12.8226 18.7724 12.8535 18.5132 12.8535 18.2387C12.8535 17.6646 12.7268 17.2086 12.4745 16.8696C12.2211 16.5285 11.8332 16.3579 11.311 16.3579C10.9342 16.3579 10.6202 16.4355 10.3679 16.5897C10.1178 16.7417 9.97672 17.0304 9.94477 17.4558H9.73763C9.73763 17.0862 9.74755 16.8106 9.76848 16.6291C9.78832 16.4486 9.86985 16.2999 10.0109 16.1829C10.1365 16.055 10.3282 15.9642 10.5838 15.9117C10.8416 15.857 11.1589 15.8286 11.5358 15.8286Z" fill="white"/>
<path d="M18.534 13.856C18.7037 13.856 18.8447 13.915 18.9571 14.0309C19.0717 14.1479 19.129 14.2912 19.129 14.4596C19.129 14.6203 19.0717 14.7592 18.9571 14.8751C18.8447 14.9921 18.7037 15.0501 18.534 15.0501C18.3632 15.0501 18.2211 14.9921 18.1065 14.8751C17.9941 14.7592 17.939 14.6203 17.939 14.4596C17.939 14.2912 17.9941 14.1479 18.1065 14.0309C18.2211 13.915 18.3632 13.856 18.534 13.856ZM20.028 13.856C20.1977 13.856 20.342 13.915 20.4599 14.0309C20.5767 14.1479 20.6362 14.2912 20.6362 14.4596C20.6362 14.6203 20.5767 14.7592 20.4599 14.8751C20.342 14.9921 20.1977 15.0501 20.028 15.0501C19.866 15.0501 19.7261 14.9921 19.6093 14.8751C19.4914 14.7592 19.433 14.6203 19.433 14.4596C19.433 14.2912 19.4914 14.1479 19.6093 14.0309C19.7261 13.915 19.866 13.856 20.028 13.856ZM22.5136 16.0692H22.355C22.1192 16.0692 21.9694 16.1338 21.9055 16.2617C21.8405 16.3907 21.8085 16.5591 21.8085 16.7691V20.229H23.7697V20.627H15.1934V20.229H17.9699C17.5435 20.0278 17.2096 19.7588 16.9694 19.4198C16.7282 19.0786 16.6081 18.6849 16.6081 18.2388C16.6081 17.516 16.9122 16.9441 17.5203 16.5241C18.1307 16.1042 18.9549 15.8943 19.9928 15.8943H22.5136V16.0692ZM20.6186 20.229V16.4673C20.3101 16.371 19.9861 16.335 19.649 16.3579C19.3107 16.3787 19.0033 16.4629 18.7279 16.6116C18.448 16.7494 18.2211 16.9561 18.0448 17.2327C17.8685 17.5105 17.7804 17.8451 17.7804 18.2388C17.7804 18.8424 17.9478 19.3126 18.2828 19.6472C18.6199 19.9829 19.0463 20.1765 19.5609 20.229H20.6186Z" fill="white"/>
<path d="M24.4099 13.856C24.5796 13.856 24.7206 13.915 24.833 14.0309C24.9443 14.1479 25.0005 14.2912 25.0005 14.4596C25.0005 14.6203 24.9443 14.7592 24.833 14.8751C24.7206 14.9921 24.5796 15.0501 24.4099 15.0501C24.2359 15.0501 24.0937 14.9921 23.9824 14.8751C23.8701 14.7592 23.815 14.6203 23.815 14.4596C23.815 14.2912 23.8701 14.1479 23.9824 14.0309C24.0937 13.915 24.2359 13.856 24.4099 13.856ZM25.8996 13.856C26.0725 13.856 26.218 13.915 26.3359 14.0309C26.4527 14.1479 26.5122 14.2912 26.5122 14.4596C26.5122 14.6203 26.4527 14.7592 26.3359 14.8751C26.218 14.9921 26.0725 15.0501 25.8996 15.0501C25.7409 15.0501 25.6021 14.9921 25.4853 14.8751C25.3674 14.7592 25.309 14.6203 25.309 14.4596C25.309 14.2912 25.3674 14.1479 25.4853 14.0309C25.6021 13.915 25.7409 13.856 25.8996 13.856ZM26.4637 16.1348H26.3006C26.0648 16.1348 25.915 16.2026 25.8511 16.3361C25.7894 16.4673 25.7585 16.6401 25.7585 16.8522V20.229H27.9092V20.627H23.123V20.229H24.551V15.973H26.4637V16.1348Z" fill="white"/>
<path d="M36.7542 16.0866H36.6088C36.3642 16.0866 36.2133 16.1544 36.1549 16.2879C36.0954 16.4191 36.0667 16.5919 36.0667 16.804V18.6192C36.0667 19.1704 35.8728 19.6384 35.485 20.0233C35.0993 20.4257 34.6079 20.6269 34.0086 20.6269C33.7199 20.6269 33.4312 20.5635 33.1404 20.4345C33.0015 20.371 32.8715 20.289 32.7481 20.1895C32.6247 20.0878 32.5421 19.9621 32.5013 19.8134C32.3515 20.0703 32.1466 20.2628 31.8887 20.3907C31.6331 20.5165 31.3654 20.5854 31.0866 20.5963C30.798 20.6051 30.5181 20.5548 30.2449 20.4432C29.9716 20.3328 29.7491 20.1611 29.5794 19.9271C29.3855 20.1173 29.175 20.2814 28.9492 20.4213C28.7255 20.5591 28.4534 20.6269 28.1338 20.6269H27.2656V20.2289H27.4904C27.6601 20.2289 27.8275 20.2005 27.9928 20.1414C28.1603 20.0835 28.3145 19.9905 28.4556 19.8615C28.5812 19.7335 28.6869 19.5684 28.7729 19.3672C28.861 19.166 28.915 18.9167 28.9359 18.6192V16.2441H30.831V16.406H30.6856C30.4388 16.406 30.2801 16.4738 30.2096 16.6072C30.1413 16.7384 30.1082 16.9112 30.1082 17.1233V19.3541C30.1082 19.5968 30.1964 19.8068 30.3727 19.9839C30.549 20.1589 30.7605 20.2464 31.0073 20.2464C31.2541 20.2464 31.4568 20.1589 31.6155 19.9839C31.7763 19.8068 31.8678 19.5968 31.8887 19.3541V16.0866H33.8014V16.2441H33.6384C33.4026 16.2441 33.2527 16.2824 33.1888 16.3578C33.1271 16.4311 33.0963 16.5744 33.0963 16.7865V19.4459C33.1161 19.6592 33.2087 19.8396 33.3739 19.9883C33.5414 20.137 33.7364 20.2114 33.9601 20.2114C34.2069 20.2114 34.4184 20.1272 34.5947 19.9577C34.771 19.7893 34.8592 19.5815 34.8592 19.3366V15.9248H36.7542V16.0866Z" fill="white"/>
<path d="M41.9703 13.8865H41.8116C41.6089 13.8865 41.4723 13.9379 41.4018 14.0396C41.3312 14.1391 41.285 14.2747 41.2651 14.4464V18.6017C41.285 19.1441 41.4326 19.5509 41.7058 19.8221C41.9791 20.0933 42.346 20.2289 42.8076 20.2289H43.0456V20.6269H42.1466C41.935 20.616 41.7587 20.5832 41.6177 20.5307C41.4789 20.4782 41.3246 20.3841 41.155 20.2464C41.0051 20.1501 40.8916 20.032 40.8156 19.8921C40.6008 20.1698 40.333 20.3623 40.0135 20.4694C39.6929 20.5744 39.3612 20.6269 39.0175 20.6269C38.6208 20.6269 38.2782 20.5613 37.9906 20.4301C37.7019 20.2967 37.4717 20.1447 37.2987 19.9752V19.5421C37.4717 19.7237 37.67 19.8833 37.8937 20.0233C38.1195 20.1611 38.3663 20.2289 38.6341 20.2289C38.8037 20.2289 38.9712 20.2026 39.1365 20.1501C39.3039 20.0955 39.4516 20.0047 39.5816 19.8789C39.7072 19.751 39.813 19.5859 39.8989 19.3847C39.9871 19.1835 40.041 18.9341 40.062 18.6367V13.729H41.9703V13.8865ZM38.5503 14.3807V17.5826C38.5503 17.7225 38.5569 17.8745 38.5724 18.0375C38.59 18.2015 38.6308 18.3633 38.6958 18.523C38.7597 18.6925 38.8511 18.8576 38.969 19.0173C39.0858 19.178 39.2522 19.3169 39.467 19.4328C39.5199 19.4536 39.5353 19.4743 39.5155 19.494C39.5034 19.5268 39.4505 19.5323 39.3568 19.5115C39.2356 19.4798 39.0792 19.4306 38.8853 19.3628C38.6936 19.2928 38.5029 19.1878 38.3123 19.0479C38.1184 18.8992 37.9432 18.7111 37.7879 18.4836C37.6347 18.2562 37.5301 17.9565 37.475 17.5826V15.1768C37.475 14.9876 37.4452 14.8345 37.3868 14.7175C37.3273 14.5984 37.1907 14.5382 36.977 14.5382H36.8359V14.3807H38.5503Z" fill="white"/>
<path d="M46.0294 13.729V13.904C45.7209 13.904 45.5248 13.9685 45.4433 14.0964C45.364 14.2222 45.3243 14.3917 45.3243 14.6038V18.4136C45.3243 19.0818 45.1315 19.6187 44.747 20.0233C44.5641 20.2136 44.3525 20.3623 44.1123 20.4694C43.871 20.5744 43.6066 20.6269 43.319 20.6269H42.4023V20.2289H42.6756C42.8453 20.2289 43.016 20.2004 43.1868 20.1414C43.3598 20.0834 43.5107 19.9905 43.6408 19.8614C43.7664 19.7335 43.8721 19.5684 43.9581 19.3672C44.0462 19.166 44.1002 18.9166 44.1211 18.6192V13.729H46.0294Z" fill="white"/>
<path d="M50.8349 13.856C51.0046 13.856 51.1489 13.915 51.2668 14.0309C51.3836 14.1479 51.4431 14.2868 51.4431 14.4465C51.4431 14.616 51.3836 14.7592 51.2668 14.8751C51.1489 14.9921 51.0046 15.0501 50.8349 15.0501C50.6729 15.0501 50.533 14.9921 50.4162 14.8751C50.2983 14.7592 50.2399 14.616 50.2399 14.4465C50.2399 14.2868 50.2983 14.1479 50.4162 14.0309C50.533 13.915 50.6729 13.856 50.8349 13.856ZM52.135 16.0999H51.9763C51.7406 16.0999 51.5907 16.1644 51.5268 16.2923C51.4618 16.4213 51.4298 16.5919 51.4298 16.8041V20.627C51.4298 21.0524 51.3428 21.3979 51.1698 21.6637C50.999 21.9283 50.8018 22.1415 50.5793 22.3023C50.3435 22.4598 50.1099 22.5746 49.8785 22.6478C49.6494 22.7233 49.4709 22.7769 49.3409 22.8097C49.2351 22.8294 49.1767 22.8239 49.1646 22.7922C49.1447 22.7714 49.1602 22.7452 49.213 22.7134C49.4488 22.5757 49.6317 22.4204 49.7639 22.2454C49.8984 22.0705 50.0041 21.8867 50.0813 21.6943C50.1452 21.5128 50.1881 21.3323 50.2091 21.1519C50.2289 20.9704 50.2399 20.802 50.2399 20.6445V15.9249H52.135V16.0999Z" fill="white"/>
<path d="M54.8306 13.729V13.8865C54.5221 13.8865 54.326 13.9543 54.2445 14.0877C54.1651 14.2189 54.1255 14.3917 54.1255 14.6038V20.2289H55.5358V20.6269H52.9355V13.729H54.8306Z" fill="white"/>
<path d="M56.3225 16.8829L57.6578 15.5444C58.407 16.288 59.0295 16.908 59.5265 17.4034C60.0256 17.8966 60.4354 18.2957 60.7561 18.6019C60.9059 18.7627 61.0425 18.9037 61.1659 19.0262C61.2893 19.1487 61.3929 19.2526 61.4788 19.3368L61.8799 19.7348C61.9768 19.831 62.0484 19.9119 62.0958 19.9754C62.1421 20.0366 62.2038 20.1219 62.2809 20.2291H63.678V20.6271H62.4881C62.596 20.8917 62.6555 21.1476 62.6643 21.3926C62.6754 21.6375 62.6555 21.8606 62.6026 22.0618C62.5586 22.263 62.4936 22.4423 62.4087 22.5998C62.3228 22.7595 62.2545 22.8885 62.2016 22.9847C62.1454 23.0689 62.1024 23.1072 62.0738 23.0985C62.0407 23.0985 62.0352 23.07 62.0562 23.0153C62.1201 22.7616 62.1399 22.5222 62.1135 22.298C62.087 22.076 62.0297 21.8748 61.9416 21.6944C61.8556 21.5129 61.7543 21.351 61.6375 21.2089C61.5196 21.0656 61.4083 20.9355 61.3025 20.8196L61.1086 20.6271H54.8945V20.2291H60.7252L57.4331 16.9923C57.2832 16.8435 57.1378 16.7462 56.9967 16.6992C56.8579 16.6533 56.7081 16.7145 56.5472 16.8829L56.437 16.9923L56.3225 16.8829ZM58.266 21.55C58.4357 21.55 58.58 21.608 58.6979 21.725C58.818 21.8409 58.8786 21.9798 58.8786 22.1405C58.8786 22.3089 58.818 22.4522 58.6979 22.5692C58.58 22.6884 58.4357 22.7485 58.266 22.7485C58.1073 22.7485 57.9674 22.6884 57.8473 22.5692C57.7294 22.4522 57.671 22.3089 57.671 22.1405C57.671 21.9798 57.7294 21.8409 57.8473 21.725C57.9674 21.608 58.1073 21.55 58.266 21.55Z" fill="white"/>
<path d="M65.3293 13.856C65.499 13.856 65.6433 13.915 65.7612 14.0309C65.8813 14.1479 65.9419 14.2912 65.9419 14.4596C65.9419 14.6203 65.8813 14.7592 65.7612 14.8751C65.6433 14.9921 65.499 15.0501 65.3293 15.0501C65.1674 15.0501 65.0274 14.9921 64.9107 14.8751C64.7928 14.7592 64.7344 14.6203 64.7344 14.4596C64.7344 14.2912 64.7928 14.1479 64.9107 14.0309C65.0274 13.915 65.1674 13.856 65.3293 13.856ZM66.6471 16.1348H66.484C66.2394 16.1348 66.0885 16.2026 66.0301 16.3361C65.9706 16.4673 65.9419 16.6401 65.9419 16.8522V18.3306C65.9419 18.6838 65.8802 19.002 65.7568 19.2842C65.6334 19.5641 65.4748 19.7992 65.2809 19.9884C64.8754 20.4149 64.4259 20.627 63.9323 20.627H63.0332V20.229H63.2888C63.4618 20.229 63.6304 20.2027 63.7956 20.1502C63.9631 20.0956 64.1152 20.0048 64.254 19.8791C64.3829 19.7511 64.4898 19.586 64.5757 19.3848C64.6605 19.1836 64.7134 18.9343 64.7344 18.6368V15.973H66.6471V16.1348Z" fill="white"/>
<path d="M69.2494 13.7421V13.8865C68.9376 13.8865 68.7404 13.9543 68.6589 14.0877C68.5795 14.2189 68.5399 14.3917 68.5399 14.6038V20.6269H67.3543V13.729L69.2494 13.7421ZM68.0903 21.5498C68.4341 21.5498 68.6644 21.5914 68.7823 21.6767C68.8462 21.7314 68.8836 21.7904 68.8924 21.8517C68.9034 21.9151 68.9101 22.0113 68.9101 22.1403H68.8131C68.7922 21.9916 68.725 21.8877 68.6104 21.8298C68.498 21.7707 68.357 21.7423 68.1873 21.7423C67.9405 21.7423 67.7609 21.8046 67.6496 21.9304C67.5372 22.0583 67.4821 22.2245 67.4821 22.429C67.4821 22.6412 67.5372 22.8161 67.6496 22.9539C67.7609 23.0906 67.9405 23.1595 68.1873 23.1595H68.9585V23.3826H66.7285V23.177H67.4337C67.1009 23.0162 66.9357 22.7669 66.9357 22.429C66.9357 22.1841 67.037 21.9752 67.2397 21.8035C67.4425 21.634 67.7256 21.5498 68.0903 21.5498Z" fill="white"/>
<path d="M74.6408 13.856C74.8105 13.856 74.9515 13.915 75.0639 14.0309C75.1785 14.1479 75.2358 14.2912 75.2358 14.4596C75.2358 14.6203 75.1785 14.7592 75.0639 14.8751C74.9515 14.9921 74.8105 15.0501 74.6408 15.0501C74.47 15.0501 74.3279 14.9921 74.2133 14.8751C74.1009 14.7592 74.0459 14.6203 74.0459 14.4596C74.0459 14.2912 74.1009 14.1479 74.2133 14.0309C74.3279 13.915 74.47 13.856 74.6408 13.856ZM76.1348 13.856C76.3045 13.856 76.4489 13.915 76.5667 14.0309C76.6835 14.1479 76.743 14.2912 76.743 14.4596C76.743 14.6203 76.6835 14.7592 76.5667 14.8751C76.4489 14.9921 76.3045 15.0501 76.1348 15.0501C75.9729 15.0501 75.833 14.9921 75.7162 14.8751C75.5983 14.7592 75.5399 14.6203 75.5399 14.4596C75.5399 14.2912 75.5983 14.1479 75.7162 14.0309C75.833 13.915 75.9729 13.856 76.1348 13.856ZM78.6073 16.0999H78.4442C78.2084 16.0999 78.0586 16.1677 77.9947 16.3011C77.933 16.4323 77.9021 16.6051 77.9021 16.8172V20.229H79.33V20.627H75.3812C74.7047 20.6073 74.0998 20.3843 73.5655 19.9578C73.3099 19.7456 73.1005 19.4985 72.9397 19.2186C72.7777 18.9364 72.6973 18.6193 72.6973 18.2694C72.6973 17.5586 73.0025 16.9922 73.614 16.5723C74.2243 16.1523 75.0485 15.9424 76.0864 15.9424H78.6073V16.0999ZM76.6946 20.229V16.5154C76.3861 16.4192 76.0621 16.3831 75.725 16.406C75.3867 16.4268 75.0793 16.511 74.8039 16.6597C74.524 16.8085 74.2971 17.0184 74.1208 17.2896C73.9445 17.5608 73.8563 17.8921 73.8563 18.2825C73.8563 18.8249 73.9996 19.2831 74.2882 19.656C74.4172 19.8255 74.5747 19.9643 74.7598 20.0715C74.9471 20.1765 75.1543 20.229 75.3812 20.229H76.6946Z" fill="white"/>
<path d="M83.2954 13.9346C83.5389 13.9346 83.7648 14.0341 83.9741 14.232C84.1857 14.4277 84.3664 14.6202 84.5162 14.8094L84.3708 14.9537L84.2738 14.8575C84.2209 14.805 84.1879 14.7788 84.1769 14.7788C83.8651 14.5251 83.5698 14.4332 83.291 14.5032C83.0145 14.571 82.7489 14.7263 82.4933 14.9712L81.4312 16.021H85.3976C85.7943 16.021 86.1469 16.091 86.4554 16.231C86.7661 16.3687 87.0349 16.5535 87.2619 16.7865C87.7114 17.2654 87.9362 17.8494 87.9362 18.5405V20.6269H78.6855V20.2289H86.7286V18.5405C86.7286 17.9784 86.5986 17.506 86.3408 17.1233C86.0852 16.7383 85.6951 16.5459 85.1729 16.5459H80.1135L82.0262 14.6825C82.273 14.4496 82.5021 14.2703 82.7137 14.1445C82.9274 14.0166 83.1214 13.9466 83.2954 13.9346Z" fill="white"/>
<path d="M90.9026 16.0998H90.7439C90.5081 16.0998 90.3583 16.1643 90.2944 16.2922C90.2294 16.4213 90.1974 16.5919 90.1974 16.804V20.2289H92.1542V20.6269H90.1798C90.1798 21.0523 90.0939 21.3979 89.9242 21.6636C89.7534 21.9282 89.5551 22.1415 89.3292 22.3022C89.1056 22.4597 88.8775 22.5745 88.6461 22.6477C88.4169 22.7232 88.2384 22.7768 88.1084 22.8096C88.0027 22.8293 87.9443 22.8238 87.9321 22.7921C87.9123 22.7713 87.9277 22.7451 87.9806 22.7134C88.2164 22.5756 88.3993 22.4203 88.5315 22.2453C88.6659 22.0704 88.7717 21.8867 88.8488 21.6942C88.9127 21.5127 88.9557 21.3322 88.9766 21.1518C88.9965 20.9703 89.0075 20.8019 89.0075 20.6444V15.9248H90.9026V16.0998Z" fill="white"/>
<path d="M96.7606 12.5C96.9336 12.5 97.0791 12.5591 97.197 12.675C97.3137 12.792 97.3732 12.9363 97.3732 13.108C97.3732 13.2655 97.3137 13.4032 97.197 13.5192C97.0791 13.6362 96.9336 13.6941 96.7606 13.6941C96.602 13.6941 96.4632 13.6362 96.3464 13.5192C96.2285 13.4032 96.1701 13.2655 96.1701 13.108C96.1701 12.9363 96.2285 12.792 96.3464 12.675C96.4632 12.5591 96.602 12.5 96.7606 12.5ZM96.0246 13.856C96.1943 13.856 96.3354 13.915 96.4477 14.0309C96.5623 14.1479 96.6196 14.2912 96.6196 14.4596C96.6196 14.6203 96.5623 14.7592 96.4477 14.8751C96.3354 14.9921 96.1943 15.0501 96.0246 15.0501C95.8539 15.0501 95.7117 14.9921 95.5972 14.8751C95.4848 14.7592 95.4297 14.6203 95.4297 14.4596C95.4297 14.2912 95.4848 14.1479 95.5972 14.0309C95.7117 13.915 95.8539 13.856 96.0246 13.856ZM97.5187 13.856C97.6883 13.856 97.8327 13.915 97.9506 14.0309C98.0674 14.1479 98.1269 14.2912 98.1269 14.4596C98.1269 14.6203 98.0674 14.7592 97.9506 14.8751C97.8327 14.9921 97.6883 15.0501 97.5187 15.0501C97.3567 15.0501 97.2168 14.9921 97.1 14.8751C96.9821 14.7592 96.9237 14.6203 96.9237 14.4596C96.9237 14.2912 96.9821 14.1479 97.1 14.0309C97.2168 13.915 97.3567 13.856 97.5187 13.856ZM101 16.0867H100.855C100.61 16.0867 100.459 16.1545 100.401 16.2879C100.341 16.4192 100.313 16.5919 100.313 16.8041V18.6193C100.313 19.1705 100.119 19.6385 99.7311 20.0234C99.3454 20.4258 98.854 20.627 98.2547 20.627C97.966 20.627 97.6773 20.5636 97.3865 20.4346C97.2476 20.3711 97.1176 20.2891 96.9942 20.1896C96.8708 20.0879 96.7882 19.9622 96.7474 19.8134C96.5976 20.0704 96.3926 20.2629 96.1348 20.3908C95.8792 20.5166 95.6115 20.5855 95.3327 20.5964C95.0441 20.6051 94.7642 20.5548 94.491 20.4433C94.2177 20.3329 93.9952 20.1612 93.8255 19.9272C93.6316 20.1174 93.4211 20.2815 93.1953 20.4214C92.9716 20.5592 92.6994 20.627 92.3799 20.627H91.5117V20.229H91.7365C91.9062 20.229 92.0736 20.2005 92.2389 20.1415C92.4064 20.0835 92.5606 19.9906 92.7017 19.8616C92.8273 19.7336 92.933 19.5685 93.019 19.3673C93.1071 19.1661 93.1611 18.9168 93.182 18.6193V16.2442H95.0771V16.406H94.9317C94.6849 16.406 94.5262 16.4738 94.4557 16.6073C94.3874 16.7385 94.3543 16.9112 94.3543 17.1234V19.3542C94.3543 19.5969 94.4425 19.8069 94.6188 19.984C94.7951 20.159 95.0066 20.2465 95.2534 20.2465C95.5002 20.2465 95.7029 20.159 95.8616 19.984C96.0224 19.8069 96.1139 19.5969 96.1348 19.3542V16.0867H98.0475V16.2442H97.8845C97.6487 16.2442 97.4988 16.2825 97.4349 16.3579C97.3732 16.4312 97.3424 16.5744 97.3424 16.7866V19.446C97.3622 19.6593 97.4548 19.8397 97.62 19.9884C97.7875 20.1371 97.9825 20.2115 98.2062 20.2115C98.453 20.2115 98.6645 20.1273 98.8408 19.9578C99.0171 19.7894 99.1052 19.5816 99.1052 19.3367V15.9249H101V16.0867Z" fill="white"/>
<g clip-path="url(#clip0_619_3447)">
<path d="M136.997 13.7522L136.639 14.5113H142.687L139.618 8.74789L139.299 9.5228C139.299 9.5228 134.368 7.15966 129.951 6.89746L129.322 7.45192L129.951 11.5361C129.951 11.5361 135.267 12.5272 136.996 13.7522H136.997Z" fill="white"/>
<path d="M122.064 12.9212C122.064 12.9212 120.061 13.8397 119.298 15.1532H113.316C113.316 15.1532 115.859 9.28881 122.064 7.74316C122.064 7.74316 121.835 11.2879 122.064 12.922V12.9212Z" fill="white"/>
<path d="M140.084 22.068C139.23 21.3783 138.348 20.8572 137.552 20.469C136.015 19.7191 134.811 19.4719 134.811 19.4719V18.3613L129.323 20.1708L133.511 24.3861L133.898 23.1753C140.975 24.8437 141.24 31.5832 138.216 35.6732L137.85 36.1342C137.469 36.5859 137.045 36.9968 136.584 37.3541C132.961 40.1741 128.262 39.5528 126.465 39.1728C125.992 39.0726 125.721 38.9875 125.721 38.9875L122.863 39.9787L120.565 40.7945L120.232 40.9139C128.351 46.3399 142.358 43.0716 143.846 32.5711C144.598 27.2461 142.466 23.9961 140.084 22.068Z" fill="white"/>
<path d="M138.216 35.6734C138.099 35.8304 137.976 35.9874 137.85 36.1343C136.012 35.3627 133.65 35.6358 130.469 37.2599C129.304 37.8528 127.936 38.5517 126.464 39.173C124.596 39.9629 122.558 40.6285 120.564 40.7946C118.576 40.9675 116.634 40.641 114.944 39.4494C114.944 39.4494 112.2 37.3919 113.315 34.6354C113.315 34.6354 107.87 33.7169 111.428 28.027C111.428 28.027 108.693 27.2646 109.029 24.0881C109.287 21.6357 111.171 21.0244 111.171 21.0244C111.171 21.0244 107.763 17.0956 112.003 15.069C115.001 13.636 122.065 14.7675 122.065 14.7675C122.065 14.7675 119.465 2.30715 126.533 0.654623C127.018 0.538553 127.52 0.500977 128.017 0.500977H130.126C130.126 0.500977 129.471 11.7606 131.797 15.1533C133.817 18.0951 139.228 17.129 140.086 22.069C139.231 21.3793 138.349 20.8582 137.553 20.4699C137.553 19.6533 136.573 18.7982 135.507 18.2905C133.577 17.372 130.025 16.6505 129.324 11.0491C128.626 5.44771 128.881 2.07585 128.881 2.07585C128.881 2.07585 125.787 1.00367 123.946 2.97601C120.486 6.68272 122.84 15.5992 122.84 15.5992C122.84 15.5992 114.938 14.512 112.818 16.6689C112.006 17.4956 111.408 18.9176 112.717 21.3325C112.717 21.3325 110.83 22.7755 111.214 25.1837C111.601 27.5894 113.101 28.0721 113.101 28.0721C113.101 28.0721 111.386 29.91 111.902 32.1395C112.415 34.3724 114.56 34.1094 114.56 34.1094C114.56 34.1094 113.169 38.6194 117.99 39.4911C124.767 40.7178 130.148 36.9092 131.789 36.1519C133.826 35.2108 136.141 34.8609 138.217 35.675L138.216 35.6734Z" fill="white"/>
</g>
<defs>
<clipPath id="clip0_619_3447">
<rect width="35" height="43" fill="white" transform="translate(109 0.5)"/>
</clipPath>
</defs>
</svg>
