<svg width="158" height="44" viewBox="0 0 158 44" fill="none" xmlns="http://www.w3.org/2000/svg">
<path d="M0.699219 22.667V28.2095C0.699219 28.4742 0.714792 28.685 0.745938 28.8419C0.777085 28.9961 0.828996 29.1195 0.901671 29.212C0.976941 29.3084 1.07298 29.3714 1.18718 29.4023C1.30398 29.4331 1.45192 29.4485 1.62842 29.4485H2.56281V29.2429H2.35517C2.0502 29.2429 1.85293 29.1503 1.76339 28.9653C1.67254 28.7776 1.62842 28.5257 1.62842 28.2095V22.667H0.699219Z" fill="white"/>
<path d="M4.56867 29.4487V25.5155C4.70624 25.3715 4.86197 25.2482 5.03587 25.1453C5.20847 25.0399 5.40054 24.9859 5.61208 24.9859C5.93003 24.9859 6.19478 25.0862 6.40631 25.2841C6.51013 25.387 6.59319 25.5309 6.65548 25.716C6.72037 25.8985 6.75411 26.1145 6.75411 26.3638V29.4487H7.68332V26.3638C7.68332 25.9975 7.6327 25.6929 7.53277 25.4487C7.43544 25.2019 7.30177 25.0116 7.13306 24.878C6.96305 24.7314 6.77488 24.635 6.56723 24.59C6.36219 24.5425 6.14416 24.5181 5.91316 24.5181C5.60818 24.5181 5.34214 24.5733 5.11373 24.6826C4.88792 24.7893 4.70624 24.9062 4.56867 25.0322H4.52195C4.47004 24.9062 4.3779 24.806 4.24683 24.734C4.11445 24.662 3.912 24.626 3.63947 24.626H2.70508V24.8266H2.91272C3.22678 24.8266 3.42664 24.9217 3.50969 25.1093C3.59535 25.2983 3.63947 25.5438 3.63947 25.8446V29.4487H4.56867Z" fill="white"/>
<path d="M8.96705 26.0656C8.96705 26.3883 9.04491 26.6659 9.20064 26.8986C9.35897 27.1286 9.53936 27.2944 9.74052 27.3973C9.66784 27.4487 9.58738 27.5181 9.50173 27.6029C9.41867 27.6852 9.37714 27.806 9.37714 27.9628C9.37714 28.1171 9.41867 28.2443 9.50173 28.3433C9.58738 28.4436 9.68341 28.5181 9.78724 28.5695C9.48226 28.6762 9.21622 28.8446 8.98781 29.0734C8.762 29.3035 8.65039 29.5837 8.65039 29.9166C8.65039 30.2109 8.71009 30.4564 8.83208 30.6518C8.95277 30.8497 9.11369 31.013 9.31485 31.1402C9.52509 31.2765 9.76388 31.3716 10.0312 31.423C10.3012 31.4744 10.5983 31.5001 10.9241 31.5001C11.2628 31.5001 11.5691 31.4744 11.8429 31.423C12.1154 31.3716 12.3529 31.2765 12.5541 31.1402C12.7643 31.013 12.9278 30.8497 13.042 30.6518C13.1588 30.4564 13.2185 30.2109 13.2185 29.9166C13.2185 29.6248 13.1575 29.3806 13.0368 29.1814C12.9149 28.9834 12.7487 28.8163 12.5385 28.6826C12.1154 28.4436 11.5782 28.3227 10.9241 28.3227C10.1973 28.3227 9.83395 28.2032 9.83395 27.9628C9.83395 27.7238 10.1973 27.6029 10.9241 27.6029C11.2005 27.6029 11.4614 27.5772 11.7079 27.5258C11.9571 27.4718 12.166 27.387 12.3361 27.2739C12.5125 27.1582 12.6501 27.0001 12.7513 26.8009C12.8513 26.6029 12.9019 26.3574 12.9019 26.0656C12.9019 25.7957 12.8318 25.5643 12.6942 25.3715C12.5593 25.1762 12.3854 25.0271 12.1751 24.9242V24.878L12.8552 24.7803V24.5181H10.9241C10.6606 24.5181 10.4076 24.5438 10.1662 24.5952C9.9235 24.6466 9.71196 24.7289 9.53287 24.842C9.36676 24.9589 9.2292 25.117 9.12278 25.315C9.01896 25.5142 8.96705 25.7649 8.96705 26.0656ZM11.9675 26.0656C11.9675 26.2854 11.9415 26.4692 11.8896 26.6158C11.8377 26.7597 11.765 26.8806 11.6716 26.9757C11.4912 27.1543 11.242 27.243 10.9241 27.243C10.6191 27.243 10.3764 27.1543 10.1973 26.9757C10.1143 26.8806 10.0429 26.7597 9.9845 26.6158C9.9248 26.4692 9.89625 26.2854 9.89625 26.0656C9.89625 25.8368 9.9248 25.6466 9.9845 25.4949C10.0429 25.3446 10.1143 25.2212 10.1973 25.1248C10.3764 24.9602 10.6191 24.878 10.9241 24.878C11.2213 24.878 11.4691 24.9731 11.6664 25.1607C11.8663 25.3458 11.9675 25.6479 11.9675 26.0656ZM10.4673 28.6826L11.0383 28.7289C11.8689 28.842 12.2841 29.2379 12.2841 29.9166C12.2841 30.324 12.157 30.6222 11.9052 30.8112C11.6521 30.9988 11.3251 31.094 10.9241 31.094C10.536 31.094 10.2142 30.9988 9.95854 30.8112C9.70548 30.6222 9.57959 30.324 9.57959 29.9166C9.57959 29.5837 9.66005 29.3227 9.82357 29.1299C9.98969 28.9346 10.2038 28.7855 10.4673 28.6826Z" fill="white"/>
<path d="M17.7898 29.4487V26.6775C17.7898 26.2186 17.7392 25.8446 17.6392 25.5566C17.538 25.2687 17.4031 25.0476 17.2343 24.8934C17.0643 24.7469 16.8684 24.6466 16.6478 24.5952C16.4258 24.5438 16.1987 24.5181 15.9677 24.5181C15.7977 24.5181 15.6381 24.5271 15.4901 24.5438C15.3448 24.5579 15.1994 24.5746 15.0541 24.5952C14.7348 24.6672 14.5194 24.7623 14.4052 24.878C14.2767 25.0014 14.2028 25.1428 14.182 25.2996C14.1612 25.4538 14.1508 25.6209 14.1508 25.7983H14.6232C14.6985 25.4667 14.8335 25.2379 15.0281 25.1145C15.2215 24.9885 15.4668 24.9242 15.7653 24.9242C16.0897 24.9242 16.348 25.0348 16.5387 25.2533C16.6322 25.387 16.7074 25.5695 16.7671 25.7983C16.8255 26.0284 16.8554 26.3214 16.8554 26.6775H16.5387C16.178 26.6775 15.8405 26.698 15.5265 26.7392C15.2111 26.7803 14.9308 26.86 14.6855 26.9757C14.4428 27.0785 14.2508 27.225 14.1093 27.4127C13.9666 27.6016 13.8965 27.8369 13.8965 28.1171C13.8965 28.3986 13.9484 28.6312 14.0522 28.8163C14.1586 28.9988 14.2871 29.1454 14.4364 29.2585C14.5817 29.3652 14.74 29.441 14.9139 29.4847C15.0904 29.5323 15.2527 29.5567 15.4019 29.5567C15.799 29.5567 16.1144 29.495 16.3467 29.3716C16.5777 29.2456 16.7477 29.1145 16.8554 28.9808H16.9021L17.2655 29.4487H17.7898ZM16.8554 27.0836V28.477C16.7477 28.6351 16.6179 28.7777 16.4661 28.9037C16.3129 29.0271 16.1105 29.0888 15.8587 29.0888C15.5849 29.0888 15.3578 29.0104 15.1787 28.8523C15.0956 28.77 15.0242 28.6698 14.9658 28.549C14.9061 28.4294 14.8776 28.2855 14.8776 28.1171C14.8776 27.806 15.0242 27.5554 15.3188 27.3664C15.616 27.1788 16.0222 27.0836 16.5387 27.0836H16.8554Z" fill="white"/>
<path d="M22.9865 24.626H19.8252C19.4852 24.626 19.249 24.7108 19.114 24.8779C19.0413 24.9499 18.992 25.036 18.9686 25.135C18.9479 25.2352 18.9375 25.3355 18.9375 25.4383V25.9576H19.1451C19.1451 25.6633 19.2503 25.4358 19.4618 25.2738C19.672 25.1131 19.9991 25.0322 20.4429 25.0322H21.6265L18.9375 29.2584V29.4486H22.9865V29.0425H20.1885L22.9865 24.626Z" fill="white"/>
<path d="M27.4004 22.667V28.2095C27.4004 28.4742 27.416 28.685 27.4471 28.8419C27.4783 28.9961 27.5302 29.1195 27.6028 29.212C27.6781 29.3084 27.7741 29.3714 27.8884 29.4023C28.0052 29.4331 28.1531 29.4485 28.3296 29.4485H29.264V29.2429H29.0563C28.7514 29.2429 28.5541 29.1503 28.4646 28.9653C28.3737 28.7776 28.3296 28.5257 28.3296 28.2095V22.667H27.4004Z" fill="white"/>
<path d="M31.2698 29.4487V25.5155C31.4074 25.3715 31.5631 25.2482 31.737 25.1453C31.9096 25.0399 32.1017 24.9859 32.3132 24.9859C32.6312 24.9859 32.8959 25.0862 33.1075 25.2841C33.2113 25.387 33.2944 25.5309 33.3567 25.716C33.4215 25.8985 33.4553 26.1145 33.4553 26.3638V29.4487H34.3845V26.3638C34.3845 25.9975 34.3339 25.6929 34.2339 25.4487C34.1366 25.2019 34.0029 25.0116 33.8342 24.878C33.6642 24.7314 33.476 24.635 33.2684 24.59C33.0634 24.5425 32.8453 24.5181 32.6143 24.5181C32.3094 24.5181 32.0433 24.5733 31.8149 24.6826C31.5891 24.7893 31.4074 24.9062 31.2698 25.0322H31.2231C31.1712 24.9062 31.0791 24.806 30.948 24.734C30.8156 24.662 30.6132 24.626 30.3406 24.626H29.4062V24.8266H29.6139C29.928 24.8266 30.1278 24.9217 30.2109 25.1093C30.2965 25.2983 30.3406 25.5438 30.3406 25.8446V29.4487H31.2698Z" fill="white"/>
<path d="M36.0314 25.0321V28.2095C36.0314 28.68 36.1469 29.0219 36.3792 29.2378C36.6102 29.4499 36.9048 29.5566 37.2617 29.5566C37.4408 29.5566 37.6017 29.5412 37.7445 29.5103C37.8859 29.4795 38.0105 29.4435 38.1182 29.4024C38.2221 29.3612 38.3077 29.3175 38.3778 29.2687C38.4466 29.2211 38.5076 29.1761 38.5595 29.135L38.466 28.9293C38.3583 28.9846 38.2454 29.0322 38.1286 29.0733C38.0144 29.1144 37.8691 29.135 37.6926 29.135C37.2046 29.135 36.9606 28.8265 36.9606 28.2095V25.0321H38.1961V24.626H36.9606V23.0732H36.535L36.0314 23.7005V24.626H35.3047V25.0321H36.0314Z" fill="white"/>
<path d="M43.1894 27.1916L43.205 26.77C43.205 26.0502 43.035 25.4949 42.6962 25.1042C42.3601 24.7134 41.8397 24.5181 41.1337 24.5181C40.808 24.5181 40.516 24.5836 40.2564 24.7134C39.9995 24.8445 39.7815 25.0245 39.6024 25.2533C39.422 25.4834 39.287 25.7494 39.1975 26.0502C39.1066 26.3523 39.0625 26.6813 39.0625 27.0374C39.0625 27.3806 39.1066 27.7045 39.1975 28.0091C39.287 28.3112 39.422 28.5772 39.6024 28.806C39.7815 29.0361 40.0086 29.2199 40.2824 29.3562C40.5549 29.4898 40.8716 29.5567 41.2324 29.5567C41.6295 29.5567 41.9812 29.4744 42.2862 29.3099C42.5937 29.1428 42.8637 28.8652 43.096 28.477L42.8935 28.3227C42.7131 28.5837 42.5094 28.7842 42.281 28.9243C42.0552 29.0657 41.7735 29.1351 41.4348 29.1351C41.2129 29.1351 41.0169 29.0862 40.8482 28.986C40.6821 28.887 40.5342 28.7533 40.407 28.5849C40.1643 28.2328 40.0436 27.7675 40.0436 27.1916H43.1894ZM42.2291 26.77H40.0436C40.0436 26.2289 40.1487 25.7906 40.3603 25.4538C40.4563 25.2893 40.5679 25.1607 40.6925 25.0682C40.8197 24.9731 40.9676 24.9242 41.1337 24.9242C41.5036 24.9242 41.7787 25.0836 41.9591 25.4024C42.1382 25.7212 42.2291 26.1775 42.2291 26.77Z" fill="white"/>
<path d="M45.4186 29.4487V25.644C45.6392 25.2983 45.9663 25.1248 46.3997 25.1248C46.7903 25.1248 47.0642 25.2302 47.2199 25.4384L47.6508 25.1248C47.5846 25.0219 47.5262 24.9345 47.4743 24.8625C47.4223 24.788 47.3601 24.7237 47.2874 24.6723C47.2108 24.6209 47.1122 24.5836 46.9915 24.5592C46.8695 24.5322 46.7579 24.5181 46.6541 24.5181C46.3452 24.5181 46.0895 24.5823 45.8858 24.7083C45.6807 24.8317 45.525 24.9551 45.4186 25.0785H45.3563C45.3044 24.9217 45.2122 24.806 45.0812 24.734C44.9488 24.662 44.7451 24.626 44.4686 24.626H43.6484V24.8266H43.7574C44.065 24.8266 44.261 24.9217 44.344 25.1093C44.4271 25.2983 44.4686 25.5438 44.4686 25.8446V29.4487H45.4186Z" fill="white"/>
<path d="M49.5921 29.4487V25.5155C49.7297 25.3715 49.8854 25.2482 50.0593 25.1453C50.2319 25.0399 50.424 24.9859 50.6355 24.9859C50.9535 24.9859 51.2182 25.0862 51.4297 25.2841C51.5336 25.387 51.6166 25.5309 51.6789 25.716C51.7438 25.8985 51.7776 26.1145 51.7776 26.3638V29.4487H52.7068V26.3638C52.7068 25.9975 52.6561 25.6929 52.5562 25.4487C52.4589 25.2019 52.3252 25.0116 52.1565 24.878C51.9865 24.7314 51.7983 24.635 51.5907 24.59C51.3856 24.5425 51.1676 24.5181 50.9366 24.5181C50.6316 24.5181 50.3656 24.5733 50.1372 24.6826C49.9114 24.7893 49.7297 24.9062 49.5921 25.0322H49.5454C49.4935 24.9062 49.4013 24.806 49.2703 24.734C49.1379 24.662 48.9354 24.626 48.6629 24.626H47.7285V24.8266H47.9362C48.2502 24.8266 48.4501 24.9217 48.5331 25.1093C48.6188 25.2983 48.6629 25.5438 48.6629 25.8446V29.4487H49.5921Z" fill="white"/>
<path d="M57.7058 29.4487V26.6775C57.7058 26.2186 57.6552 25.8446 57.5553 25.5566C57.454 25.2687 57.3191 25.0476 57.1504 24.8934C56.9804 24.7469 56.7844 24.6466 56.5638 24.5952C56.3418 24.5438 56.1147 24.5181 55.8837 24.5181C55.7137 24.5181 55.5541 24.5271 55.4062 24.5438C55.2608 24.5579 55.1155 24.5746 54.9701 24.5952C54.6509 24.6672 54.4354 24.7623 54.3212 24.878C54.1927 25.0014 54.1188 25.1428 54.098 25.2996C54.0772 25.4538 54.0669 25.6209 54.0669 25.7983H54.5392C54.6145 25.4667 54.7495 25.2379 54.9442 25.1145C55.1375 24.9885 55.3828 24.9242 55.6813 24.9242C56.0057 24.9242 56.264 25.0348 56.4548 25.2533C56.5482 25.387 56.6235 25.5695 56.6832 25.7983C56.7416 26.0284 56.7714 26.3214 56.7714 26.6775H56.4548C56.094 26.6775 55.7566 26.698 55.4425 26.7392C55.1271 26.7803 54.8468 26.86 54.6015 26.9757C54.3589 27.0785 54.1668 27.225 54.0253 27.4127C53.8826 27.6016 53.8125 27.8369 53.8125 28.1171C53.8125 28.3986 53.8644 28.6312 53.9682 28.8163C54.0746 28.9988 54.2031 29.1454 54.3524 29.2585C54.4977 29.3652 54.656 29.441 54.8299 29.4847C55.0064 29.5323 55.1687 29.5567 55.3179 29.5567C55.715 29.5567 56.0304 29.495 56.2627 29.3716C56.4937 29.2456 56.6637 29.1145 56.7714 28.9808H56.8181L57.1815 29.4487H57.7058ZM56.7714 27.0836V28.477C56.6637 28.6351 56.5339 28.7777 56.3821 28.9037C56.2289 29.0271 56.0265 29.0888 55.7747 29.0888C55.5009 29.0888 55.2738 29.0104 55.0947 28.8523C55.0116 28.77 54.9403 28.6698 54.8819 28.549C54.8222 28.4294 54.7936 28.2855 54.7936 28.1171C54.7936 27.806 54.9403 27.5554 55.2349 27.3664C55.532 27.1788 55.9382 27.0836 56.4548 27.0836H56.7714Z" fill="white"/>
<path d="M59.3478 25.0321V28.2095C59.3478 28.68 59.4633 29.0219 59.6956 29.2378C59.9266 29.4499 60.2212 29.5566 60.5781 29.5566C60.7572 29.5566 60.9181 29.5412 61.0609 29.5103C61.2024 29.4795 61.3269 29.4435 61.4347 29.4024C61.5385 29.3612 61.6241 29.3175 61.6942 29.2687C61.763 29.2211 61.824 29.1761 61.8759 29.135L61.7825 28.9293C61.6747 28.9846 61.5618 29.0322 61.445 29.0733C61.3308 29.1144 61.1855 29.135 61.009 29.135C60.521 29.135 60.277 28.8265 60.277 28.2095V25.0321H61.5125V24.626H60.277V23.0732H59.8514L59.3478 23.7005V24.626H58.6211V25.0321H59.3478Z" fill="white"/>
<path d="M63.6783 23.5463C63.6783 23.3689 63.6225 23.2147 63.5121 23.0836C63.4005 22.9537 63.2604 22.8882 63.0917 22.8882C62.7763 22.8882 62.6193 23.0399 62.6193 23.3406C62.6193 23.5193 62.6764 23.6735 62.7906 23.8034C62.9074 23.9345 63.0462 23.9987 63.2059 23.9987C63.5199 23.9987 63.6783 23.8483 63.6783 23.5463ZM63.7405 29.4487V25.8445C63.7405 25.3445 63.6783 25.0103 63.5537 24.8419C63.4771 24.7494 63.3785 24.6915 63.2578 24.6671C63.1358 24.6401 62.9878 24.626 62.8113 24.626H61.877V24.8265H62.0846C62.3987 24.8265 62.5985 24.9216 62.6816 25.1093C62.7672 25.2982 62.8113 25.5437 62.8113 25.8445V29.4487H63.7405Z" fill="white"/>
<path d="M64.9258 27.0374C64.9258 27.7572 65.1256 28.3472 65.5279 28.806C65.7174 29.0361 65.951 29.2199 66.2287 29.3562C66.5091 29.4898 66.8335 29.5567 67.2047 29.5567C67.5641 29.5567 67.886 29.4898 68.1702 29.3562C68.4531 29.2199 68.6958 29.0361 68.897 28.806C69.0968 28.5772 69.2448 28.3112 69.3382 28.0091C69.4342 27.7045 69.4835 27.3806 69.4835 27.0374C69.4835 26.6813 69.4342 26.3523 69.3382 26.0502C69.2448 25.7494 69.0968 25.4834 68.897 25.2533C68.6958 25.0245 68.4531 24.8445 68.1702 24.7134C67.886 24.5836 67.5641 24.5181 67.2047 24.5181C66.8335 24.5181 66.5091 24.5836 66.2287 24.7134C65.951 24.8445 65.7174 25.0245 65.5279 25.2533C65.1256 25.7135 64.9258 26.3073 64.9258 27.0374ZM68.5024 27.0374C68.5024 27.6338 68.3856 28.1299 68.1546 28.5232C68.0365 28.7122 67.8964 28.8613 67.7342 28.9706C67.5706 29.0811 67.3941 29.1351 67.2047 29.1351C67.0139 29.1351 66.8387 29.0811 66.6804 28.9706C66.5246 28.8613 66.3871 28.7122 66.2703 28.5232C66.0276 28.1402 65.9069 27.6441 65.9069 27.0374C65.9069 26.4204 66.0276 25.9191 66.2703 25.5309C66.3871 25.3458 66.5246 25.1993 66.6804 25.0888C66.8387 24.9795 67.0139 24.9242 67.2047 24.9242C67.3941 24.9242 67.5706 24.9795 67.7342 25.0888C67.8964 25.1993 68.0365 25.3458 68.1546 25.5309C68.3856 25.9294 68.5024 26.4307 68.5024 27.0374Z" fill="white"/>
<path d="M71.7874 29.4487V25.5155C71.925 25.3715 72.0807 25.2482 72.2546 25.1453C72.4272 25.0399 72.6193 24.9859 72.8308 24.9859C73.1488 24.9859 73.4135 25.0862 73.6251 25.2841C73.7289 25.387 73.8119 25.5309 73.8742 25.716C73.9391 25.8985 73.9729 26.1145 73.9729 26.3638V29.4487H74.9021V26.3638C74.9021 25.9975 74.8515 25.6929 74.7515 25.4487C74.6542 25.2019 74.5205 25.0116 74.3518 24.878C74.1818 24.7314 73.9936 24.635 73.786 24.59C73.5809 24.5425 73.3629 24.5181 73.1319 24.5181C72.8269 24.5181 72.5609 24.5733 72.3325 24.6826C72.1067 24.7893 71.925 24.9062 71.7874 25.0322H71.7407C71.6888 24.9062 71.5967 24.806 71.4656 24.734C71.3332 24.662 71.1308 24.626 70.8582 24.626H69.9238V24.8266H70.1315C70.4455 24.8266 70.6454 24.9217 70.7284 25.1093C70.8141 25.2983 70.8582 25.5438 70.8582 25.8446V29.4487H71.7874Z" fill="white"/>
<path d="M79.9031 29.4487V26.6775C79.9031 26.2186 79.8525 25.8446 79.7525 25.5566C79.6513 25.2687 79.5163 25.0476 79.3476 24.8934C79.1776 24.7469 78.9817 24.6466 78.761 24.5952C78.5391 24.5438 78.312 24.5181 78.081 24.5181C77.911 24.5181 77.7514 24.5271 77.6034 24.5438C77.4581 24.5579 77.3127 24.5746 77.1674 24.5952C76.8481 24.6672 76.6327 24.7623 76.5185 24.878C76.39 25.0014 76.316 25.1428 76.2953 25.2996C76.2745 25.4538 76.2641 25.6209 76.2641 25.7983H76.7365C76.8118 25.4667 76.9468 25.2379 77.1414 25.1145C77.3348 24.9885 77.5801 24.9242 77.8786 24.9242C78.203 24.9242 78.4612 25.0348 78.652 25.2533C78.7455 25.387 78.8207 25.5695 78.8804 25.7983C78.9388 26.0284 78.9687 26.3214 78.9687 26.6775H78.652C78.2912 26.6775 77.9538 26.698 77.6398 26.7392C77.3244 26.7803 77.0441 26.86 76.7988 26.9757C76.5561 27.0785 76.3641 27.225 76.2226 27.4127C76.0798 27.6016 76.0098 27.8369 76.0098 28.1171C76.0098 28.3986 76.0617 28.6312 76.1655 28.8163C76.2719 28.9988 76.4004 29.1454 76.5496 29.2585C76.695 29.3652 76.8533 29.441 77.0272 29.4847C77.2037 29.5323 77.3659 29.5567 77.5152 29.5567C77.9123 29.5567 78.2277 29.495 78.46 29.3716C78.691 29.2456 78.861 29.1145 78.9687 28.9808H79.0154L79.3788 29.4487H79.9031ZM78.9687 27.0836V28.477C78.861 28.6351 78.7312 28.7777 78.5793 28.9037C78.4262 29.0271 78.2238 29.0888 77.972 29.0888C77.6982 29.0888 77.4711 29.0104 77.292 28.8523C77.2089 28.77 77.1375 28.6698 77.0791 28.549C77.0194 28.4294 76.9909 28.2855 76.9909 28.1171C76.9909 27.806 77.1375 27.5554 77.4321 27.3664C77.7293 27.1788 78.1355 27.0836 78.652 27.0836H78.9687Z" fill="white"/>
<path d="M82.3167 29.4485V23.9061C82.3167 23.3919 82.2518 23.0526 82.1247 22.8881C82.052 22.8032 81.9546 22.7441 81.834 22.7133C81.712 22.6824 81.5614 22.667 81.3823 22.667H80.4531V22.8726H80.6556C80.9631 22.8726 81.1604 22.9678 81.2474 23.1554C81.3369 23.3405 81.3823 23.5912 81.3823 23.9061V29.4485H82.3167Z" fill="white"/>
<path d="M90.2565 22.8727C91.4881 22.8727 92.2304 23.473 92.4835 24.6722H92.6911C92.6911 24.5566 92.6911 24.4332 92.6911 24.3021C92.6911 24.1722 92.6807 24.045 92.66 23.9216C92.6496 23.7956 92.6249 23.6748 92.5873 23.5617C92.5483 23.446 92.499 23.3509 92.4367 23.2789C92.246 23.0604 91.9397 22.8702 91.5179 22.7082C91.0948 22.5437 90.5693 22.4614 89.9398 22.4614C89.4545 22.4614 89.0119 22.554 88.6109 22.7391C88.2086 22.9216 87.8712 23.1684 87.5987 23.4794C87.0173 24.1375 86.7266 24.964 86.7266 25.9576C86.7266 26.4692 86.8122 26.9486 86.9861 27.3972C87.1626 27.8471 87.4027 28.2378 87.7077 28.5695C88.0256 28.9062 88.3994 29.171 88.8289 29.3664C89.2611 29.5579 89.7374 29.6543 90.2565 29.6543C90.7613 29.6543 91.2168 29.6042 91.6217 29.5052C92.0266 29.4062 92.4186 29.2417 92.8001 29.0116V27.0682C92.8001 26.9216 92.8066 26.7879 92.8209 26.6671C92.8378 26.5476 92.8728 26.446 92.9247 26.3638C93.0415 26.1864 93.2582 26.0964 93.5736 26.0964V25.8959C93.1856 25.8959 92.878 25.9319 92.6496 26.0039C92.4238 26.0759 92.2525 26.171 92.1357 26.2867C92.0215 26.3998 91.9462 26.527 91.9124 26.6671C91.8813 26.8085 91.8657 26.9525 91.8657 27.099V28.8831C91.6646 28.9898 91.4375 29.0772 91.1857 29.1453C90.9326 29.2108 90.6225 29.243 90.2565 29.243C89.9165 29.243 89.5972 29.189 89.2961 29.0785C88.9951 28.9692 88.7277 28.7841 88.4967 28.5232C88.2644 28.2635 88.0827 27.9242 87.9517 27.5052C87.8193 27.0874 87.7544 26.572 87.7544 25.9576C87.7544 25.5707 87.8011 25.1954 87.8946 24.8316C87.9906 24.4653 88.1398 24.1362 88.341 23.8445C88.5512 23.5501 88.8134 23.3149 89.1248 23.1401C89.4363 22.9627 89.8127 22.8727 90.2565 22.8727Z" fill="white"/>
<path d="M95.5006 29.4487V25.644C95.7212 25.2983 96.0483 25.1248 96.4817 25.1248C96.8724 25.1248 97.1462 25.2302 97.3019 25.4384L97.7328 25.1248C97.6666 25.0219 97.6082 24.9345 97.5563 24.8625C97.5044 24.788 97.4421 24.7237 97.3694 24.6723C97.2928 24.6209 97.1942 24.5836 97.0735 24.5592C96.9515 24.5322 96.8399 24.5181 96.7361 24.5181C96.4272 24.5181 96.1716 24.5823 95.9678 24.7083C95.7628 24.8317 95.607 24.9551 95.5006 25.0785H95.4383C95.3864 24.9217 95.2943 24.806 95.1632 24.734C95.0308 24.662 94.8271 24.626 94.5507 24.626H93.7305V24.8266H93.8395C94.1471 24.8266 94.343 24.9217 94.4261 25.1093C94.5091 25.2983 94.5507 25.5438 94.5507 25.8446V29.4487H95.5006Z" fill="white"/>
<path d="M98.3145 27.0374C98.3145 27.7572 98.5143 28.3472 98.9166 28.806C99.1061 29.0361 99.3397 29.2199 99.6174 29.3562C99.8977 29.4898 100.222 29.5567 100.593 29.5567C100.953 29.5567 101.275 29.4898 101.559 29.3562C101.842 29.2199 102.084 29.0361 102.286 28.806C102.485 28.5772 102.633 28.3112 102.727 28.0091C102.823 27.7045 102.872 27.3806 102.872 27.0374C102.872 26.6813 102.823 26.3523 102.727 26.0502C102.633 25.7494 102.485 25.4834 102.286 25.2533C102.084 25.0245 101.842 24.8445 101.559 24.7134C101.275 24.5836 100.953 24.5181 100.593 24.5181C100.222 24.5181 99.8977 24.5836 99.6174 24.7134C99.3397 24.8445 99.1061 25.0245 98.9166 25.2533C98.5143 25.7135 98.3145 26.3073 98.3145 27.0374ZM101.891 27.0374C101.891 27.6338 101.774 28.1299 101.543 28.5232C101.425 28.7122 101.285 28.8613 101.123 28.9706C100.959 29.0811 100.783 29.1351 100.593 29.1351C100.403 29.1351 100.227 29.0811 100.069 28.9706C99.9133 28.8613 99.7757 28.7122 99.6589 28.5232C99.4163 28.1402 99.2956 27.6441 99.2956 27.0374C99.2956 26.4204 99.4163 25.9191 99.6589 25.5309C99.7757 25.3458 99.9133 25.1993 100.069 25.0888C100.227 24.9795 100.403 24.9242 100.593 24.9242C100.783 24.9242 100.959 24.9795 101.123 25.0888C101.285 25.1993 101.425 25.3458 101.543 25.5309C101.774 25.9294 101.891 26.4307 101.891 27.0374Z" fill="white"/>
<path d="M107.216 24.626V28.5386C107.081 28.6864 106.925 28.815 106.749 28.9242C106.575 29.0348 106.383 29.0887 106.173 29.0887C106.038 29.0887 105.9 29.063 105.763 29.0116C105.624 28.9576 105.503 28.8779 105.399 28.7751C105.295 28.6723 105.208 28.5322 105.14 28.3535C105.07 28.1761 105.036 27.9563 105.036 27.6954V25.8445C105.036 25.3445 104.971 25.0103 104.844 24.8419C104.771 24.7494 104.674 24.6915 104.553 24.6671C104.431 24.6401 104.28 24.626 104.101 24.626H103.266V24.8265H103.375C103.678 24.8265 103.876 24.9216 103.966 25.1093C104.056 25.2982 104.101 25.5437 104.101 25.8445V27.6954C104.101 28.0733 104.151 28.3792 104.252 28.6157C104.352 28.8497 104.487 29.0373 104.657 29.1813C104.826 29.3188 105.012 29.4152 105.217 29.4692C105.421 29.5271 105.634 29.5566 105.856 29.5566C106.174 29.5566 106.445 29.5013 106.671 29.3921C106.899 29.2828 107.081 29.1659 107.216 29.0425H107.263L107.626 29.4486H108.15V24.626H107.216Z" fill="white"/>
<path d="M110.725 31.4076V29.243C110.883 29.3189 111.065 29.3896 111.27 29.4538C111.478 29.522 111.728 29.5567 112.023 29.5567C112.361 29.5567 112.653 29.4898 112.9 29.3562C113.149 29.2199 113.357 29.0361 113.523 28.806C113.681 28.5772 113.801 28.3112 113.881 28.0091C113.96 27.7045 114 27.3806 114 27.0374C114 26.297 113.841 25.7032 113.523 25.2533C113.378 25.0245 113.185 24.8445 112.947 24.7134C112.711 24.5836 112.439 24.5181 112.132 24.5181C111.744 24.5181 111.439 24.5823 111.218 24.7083C110.996 24.8317 110.831 24.9551 110.725 25.0785H110.678C110.626 24.9217 110.534 24.806 110.403 24.734C110.271 24.662 110.068 24.626 109.796 24.626H108.861V24.8266H109.069C109.383 24.8266 109.583 24.9217 109.666 25.1093C109.752 25.2983 109.796 25.5438 109.796 25.8446V31.4076H110.725ZM110.725 28.8369V25.5515C110.831 25.3844 110.97 25.2366 111.14 25.1093C111.223 25.0579 111.322 25.0155 111.436 24.9808C111.553 24.9435 111.681 24.9242 111.82 24.9242C112.028 24.9242 112.206 24.9795 112.355 25.0888C112.503 25.1993 112.63 25.3458 112.734 25.5309C112.83 25.7199 112.9 25.9422 112.942 26.1993C112.983 26.4564 113.004 26.7366 113.004 27.0374C113.004 27.3291 112.983 27.6029 112.942 27.86C112.9 28.1145 112.82 28.3356 112.703 28.5232C112.599 28.7122 112.467 28.8613 112.308 28.9706C112.149 29.0811 111.947 29.1351 111.706 29.1351C111.546 29.1351 111.382 29.1042 111.213 29.0425C111.047 28.9808 110.883 28.9127 110.725 28.8369Z" fill="white"/>
<path d="M2.05047 12.6338C2.22956 12.6338 2.37881 12.6955 2.4969 12.8189C2.6137 12.9397 2.6734 13.0901 2.6734 13.2713C2.6734 13.4397 2.6137 13.585 2.4969 13.7083C2.37881 13.8292 2.22956 13.8883 2.05047 13.8883C1.86619 13.8883 1.71565 13.8292 1.59885 13.7083C1.48075 13.585 1.42235 13.4397 1.42235 13.2713C1.42235 13.0901 1.48075 12.9397 1.59885 12.8189C1.71565 12.6955 1.86619 12.6338 2.05047 12.6338ZM3.62337 12.6338C3.80246 12.6338 3.9556 12.6955 4.08018 12.8189C4.20477 12.9397 4.26706 13.0901 4.26706 13.2713C4.26706 13.4397 4.20477 13.585 4.08018 13.7083C3.9556 13.8292 3.80246 13.8883 3.62337 13.8883C3.45336 13.8883 3.30671 13.8292 3.18213 13.7083C3.05754 13.585 2.99525 13.4397 2.99525 13.2713C2.99525 13.0901 3.05754 12.9397 3.18213 12.8189C3.30671 12.6955 3.45336 12.6338 3.62337 12.6338ZM6.22928 14.9989H6.06317C5.814 14.9989 5.65437 15.0695 5.58559 15.2096C5.51941 15.3472 5.48696 15.5271 5.48696 15.7495V19.3382H6.99237V19.7598H2.82913C2.11536 19.7367 1.47686 19.5015 0.913628 19.0554C0.643693 18.8331 0.423072 18.5747 0.254362 18.2791C0.0843548 17.9809 0 17.6467 0 17.2765C0 16.5297 0.321846 15.9346 0.965539 15.4924C1.60923 15.0503 2.47744 14.8292 3.57146 14.8292H6.22928V14.9989ZM4.21515 19.3382V15.4307C3.88552 15.3318 3.54291 15.2945 3.18732 15.3176C2.83432 15.3382 2.50988 15.4282 2.21659 15.585C1.92199 15.7392 1.68191 15.9603 1.49503 16.2482C1.31075 16.5336 1.2199 16.8806 1.2199 17.2919C1.2199 17.8652 1.37174 18.3459 1.67672 18.7367C1.81168 18.9153 1.9778 19.0606 2.17506 19.1737C2.37232 19.2842 2.59034 19.3382 2.82913 19.3382H4.21515Z" fill="white"/>
<path d="M9.834 15.0295H9.66789C9.41871 15.0295 9.25909 15.1002 9.19031 15.2403C9.12412 15.3817 9.09168 15.563 9.09168 15.7853V19.3381H11.3602V19.7597H6.31445V19.3381H7.81986V14.8599H9.834V15.0295ZM7.66932 20.7314C7.84841 20.7314 7.99766 20.7931 8.11575 20.9165C8.23255 21.0399 8.29225 21.1851 8.29225 21.3535C8.29225 21.5309 8.23255 21.6826 8.11575 21.8059C7.99766 21.9293 7.84841 21.991 7.66932 21.991C7.48893 21.991 7.33839 21.9293 7.2177 21.8059C7.0996 21.6826 7.0412 21.5309 7.0412 21.3535C7.0412 21.1851 7.0996 21.0399 7.2177 20.9165C7.33839 20.7931 7.48893 20.7314 7.66932 20.7314ZM9.24222 20.7314C9.42131 20.7314 9.57445 20.7931 9.69903 20.9165C9.82362 21.0399 9.88591 21.1851 9.88591 21.3535C9.88591 21.5309 9.82362 21.6826 9.69903 21.8059C9.57445 21.9293 9.42131 21.991 9.24222 21.991C9.07221 21.991 8.92556 21.9293 8.80098 21.8059C8.67639 21.6826 8.6141 21.5309 8.6141 21.3535C8.6141 21.1851 8.67639 21.0399 8.80098 20.9165C8.92556 20.7931 9.07221 20.7314 9.24222 20.7314Z" fill="white"/>
<path d="M15.5269 14.8291C15.9655 14.8291 16.3704 14.9037 16.7416 15.0502C17.1153 15.1941 17.4216 15.3831 17.6604 15.6157C17.9199 15.8728 18.1094 16.1646 18.2314 16.4898C18.356 16.8163 18.43 17.1569 18.4546 17.5129V17.7289C18.465 18.0554 18.5026 18.3227 18.5688 18.5309C18.6376 18.7366 18.7298 18.8998 18.844 19.0194C18.9582 19.1428 19.0879 19.2276 19.2333 19.2713C19.3786 19.3163 19.5422 19.3381 19.7264 19.3381H20.3701V19.7597H19.2696C19.0996 19.7366 18.94 19.7019 18.792 19.6569C18.6467 19.6132 18.5221 19.5412 18.4183 19.441C18.3625 19.387 18.3119 19.3317 18.2677 19.2764C18.2223 19.2186 18.1769 19.1569 18.1328 19.0914C17.9874 19.3587 17.798 19.6004 17.567 19.8163C17.3347 20.0348 17.0323 20.207 16.6585 20.3304C16.2744 20.4641 15.8396 20.531 15.3556 20.531C14.9156 20.531 14.5146 20.4564 14.1512 20.3099C13.7904 20.1659 13.4933 19.977 13.2584 19.7443C13.1545 19.6415 13.0624 19.5374 12.9832 19.4307C12.9067 19.3253 12.8392 19.2173 12.7808 19.1068C12.6354 19.3844 12.42 19.5682 12.1371 19.6569C11.9814 19.716 11.823 19.7495 11.6647 19.7597H10.6836V19.3381H11.2079C11.3766 19.3381 11.531 19.3201 11.6699 19.2816C11.8114 19.2443 11.9398 19.1685 12.054 19.0554C12.2786 18.833 12.4135 18.4422 12.4589 17.8831V17.6826C12.4589 16.8086 12.7406 16.1145 13.3051 15.6003C13.8242 15.0862 14.5639 14.8291 15.5269 14.8291ZM15.475 15.2815C14.9312 15.2815 14.5068 15.4821 14.2031 15.8831C14.0578 16.0965 13.9449 16.3253 13.8657 16.572C13.7853 16.8188 13.7463 17.1325 13.7463 17.5129C13.7463 17.9384 13.7943 18.288 13.8917 18.5618C13.9877 18.8369 14.1149 19.0952 14.2706 19.3381C14.599 19.8073 15.0181 20.0425 15.5269 20.0425C16.0564 20.0425 16.4729 19.8369 16.7779 19.4255C16.9362 19.2237 17.044 19.0027 17.0998 18.7623C17.1543 18.5232 17.1828 18.2173 17.1828 17.8471C17.1828 17.423 17.1465 17.0682 17.0738 16.7828C17.0011 16.4988 16.8843 16.2379 16.726 16.0013C16.4106 15.5219 15.9941 15.2815 15.475 15.2815Z" fill="white"/>
<path d="M23.5153 12.5V12.68C23.1856 12.68 22.978 12.7494 22.8923 12.8856C22.8093 13.0193 22.7678 13.198 22.7678 13.4203V17.4306C22.7678 18.1337 22.5653 18.698 22.1604 19.1222C21.9696 19.3253 21.7464 19.4821 21.4908 19.5952C21.2377 19.7057 20.9587 19.7597 20.655 19.7597H19.6895V19.3381H19.975C20.1541 19.3381 20.3344 19.3098 20.5148 19.2507C20.6978 19.189 20.8574 19.09 20.9924 18.9525C21.1274 18.8188 21.239 18.6466 21.3298 18.4332C21.4194 18.2211 21.4765 17.9589 21.5011 17.6466V12.5H23.5153Z" fill="white"/>
<path d="M26.2759 12.5V12.6645C25.9463 12.6645 25.7386 12.7352 25.653 12.8753C25.5699 13.0167 25.5284 13.198 25.5284 13.4203V19.3381H27.0182V19.7597H24.2773V12.5H26.2759Z" fill="white"/>
<path d="M30.507 14.6953C31.3298 14.6953 31.867 14.8123 32.1162 15.0449C32.2642 15.1683 32.3498 15.3264 32.3706 15.5179C32.3939 15.7069 32.4069 15.9961 32.4069 16.3868H32.1837C32.1487 15.9524 31.9981 15.6503 31.7321 15.482C31.4686 15.3149 31.1403 15.23 30.7458 15.23C30.1812 15.23 29.7699 15.41 29.5103 15.7699C29.2507 16.1272 29.121 16.6066 29.121 17.2095C29.121 17.491 29.1443 17.7545 29.1936 18.0013C29.2456 18.2455 29.3286 18.4627 29.4428 18.6542C29.6673 19.045 30.0112 19.2738 30.4758 19.338H33.8968V19.7596H26.3438V19.338H29.0016C28.2333 18.8689 27.8492 18.1594 27.8492 17.2095C27.8492 16.8637 27.9076 16.5385 28.0257 16.2326C28.1463 15.9241 28.3241 15.6568 28.5603 15.4305C28.7849 15.2082 29.0613 15.0295 29.3909 14.8958C29.7192 14.7622 30.0917 14.6953 30.507 14.6953Z" fill="white"/>
<path d="M37.0426 12.5V12.68C36.713 12.68 36.5053 12.7494 36.4197 12.8856C36.3366 13.0193 36.2951 13.198 36.2951 13.4203V17.4306C36.2951 18.1337 36.0927 18.698 35.6877 19.1222C35.497 19.3253 35.2738 19.4821 35.0181 19.5952C34.765 19.7057 34.486 19.7597 34.1823 19.7597H33.2168V19.3381H33.5023C33.6814 19.3381 33.8618 19.3098 34.0422 19.2507C34.2252 19.189 34.3848 19.09 34.5198 18.9525C34.6547 18.8188 34.7663 18.6466 34.8572 18.4332C34.9467 18.2211 35.0038 17.9589 35.0285 17.6466V12.5H37.0426Z" fill="white"/>
<path d="M39.8033 12.5154V12.6645C39.4736 12.6645 39.2699 12.7352 39.1907 12.8753C39.1141 13.0167 39.0765 13.198 39.0765 13.4203V19.7597H37.8047V12.5L39.8033 12.5154Z" fill="white"/>
<path d="M44.2699 12.6338C44.449 12.6338 44.6021 12.6955 44.7267 12.8189C44.8513 12.9397 44.9136 13.0837 44.9136 13.2508C44.9136 13.4333 44.8513 13.585 44.7267 13.7083C44.6021 13.8292 44.449 13.8883 44.2699 13.8883C44.0999 13.8883 43.9533 13.8292 43.8287 13.7083C43.7041 13.585 43.6418 13.4333 43.6418 13.2508C43.6418 13.0837 43.7041 12.9397 43.8287 12.8189C43.9533 12.6955 44.0999 12.6338 44.2699 12.6338ZM45.6404 14.9989H45.4742C45.2251 14.9989 45.0654 15.0657 44.9967 15.1994C44.9305 15.333 44.898 15.5117 44.898 15.7341V19.7598C44.898 20.2046 44.8059 20.5683 44.6229 20.8498C44.4425 21.13 44.2349 21.355 44 21.5233C43.7508 21.6879 43.5042 21.8087 43.2628 21.8884C43.0202 21.9668 42.832 22.0233 42.697 22.058C42.5828 22.0786 42.5205 22.0735 42.5101 22.0426C42.4868 22.0182 42.5037 21.9886 42.5621 21.9552C42.8086 21.8113 43.0007 21.6467 43.1435 21.4616C43.2849 21.2765 43.3952 21.0837 43.4757 20.8858C43.5406 20.693 43.5847 20.5015 43.6055 20.31C43.6288 20.121 43.6418 19.9423 43.6418 19.7752V14.8138H45.6404V14.9989Z" fill="white"/>
<path d="M48.4868 12.5V12.6645C48.1572 12.6645 47.9496 12.7352 47.8639 12.8753C47.7809 13.0167 47.7393 13.198 47.7393 13.4203V19.3381H49.2292V19.7597H46.4883V12.5H48.4868Z" fill="white"/>
<path d="M50.0601 15.816L51.4669 14.4072C52.2559 15.1926 52.9126 15.8455 53.4395 16.3661C53.9651 16.8841 54.3959 17.3057 54.7321 17.6309C54.8904 17.7993 55.0344 17.9484 55.1629 18.0782C55.294 18.2055 55.4043 18.3134 55.4951 18.4021L55.9208 18.8186C56.0207 18.9214 56.0947 19.0075 56.144 19.0757C56.1959 19.1412 56.2608 19.2286 56.3413 19.3379H57.8156V19.7595H56.5645C56.6748 20.0397 56.7358 20.3096 56.7462 20.5667C56.7592 20.8237 56.7384 21.0577 56.6839 21.271C56.6346 21.4831 56.5658 21.6721 56.4763 21.8366C56.3854 22.0037 56.3127 22.1399 56.2582 22.2428C56.2024 22.3315 56.157 22.3713 56.1233 22.361C56.0882 22.361 56.083 22.3315 56.1077 22.2736C56.1726 22.0063 56.1921 21.7543 56.1648 21.5178C56.1362 21.2839 56.0778 21.0731 55.9883 20.8854C55.8975 20.6926 55.791 20.5217 55.6665 20.3713C55.5419 20.2196 55.4225 20.0834 55.3083 19.96L55.1058 19.7595H48.5547V19.3379H54.7009L51.2281 15.9342C51.0685 15.78 50.9166 15.6772 50.7713 15.6257C50.6259 15.5743 50.4676 15.6386 50.2989 15.816L50.1795 15.9342L50.0601 15.816ZM52.1106 20.7312C52.2897 20.7312 52.4428 20.7929 52.5674 20.9163C52.692 21.0397 52.7543 21.1849 52.7543 21.3533C52.7543 21.5307 52.692 21.6824 52.5674 21.8058C52.4428 21.9292 52.2897 21.9908 52.1106 21.9908C51.9406 21.9908 51.7939 21.9292 51.6693 21.8058C51.5447 21.6824 51.4825 21.5307 51.4825 21.3533C51.4825 21.1849 51.5447 21.0397 51.6693 20.9163C51.7939 20.7929 51.9406 20.7312 52.1106 20.7312Z" fill="white"/>
<path d="M59.5577 12.6338C59.7368 12.6338 59.8899 12.6955 60.0145 12.8189C60.1391 12.9397 60.2014 13.0901 60.2014 13.2713C60.2014 13.4397 60.1391 13.585 60.0145 13.7083C59.8899 13.8292 59.7368 13.8883 59.5577 13.8883C59.3877 13.8883 59.2411 13.8292 59.1165 13.7083C58.9945 13.585 58.9348 13.4397 58.9348 13.2713C58.9348 13.0901 58.9945 12.9397 59.1165 12.8189C59.2411 12.6955 59.3877 12.6338 59.5577 12.6338ZM60.9489 15.0297H60.7776C60.5181 15.0297 60.3571 15.1004 60.2948 15.2405C60.2326 15.3819 60.2014 15.5631 60.2014 15.7855V17.3433C60.2014 17.7135 60.1352 18.0477 60.0041 18.3459C59.8757 18.6416 59.7096 18.8896 59.5058 19.0914C59.0762 19.5375 58.6026 19.7598 58.0834 19.7598H57.1387V19.3382H57.4086C57.5877 19.3382 57.7642 19.3112 57.9381 19.256C58.1146 19.202 58.2768 19.1069 58.4261 18.9732C58.561 18.8395 58.6726 18.6673 58.7635 18.4539C58.853 18.2418 58.9101 17.9783 58.9348 17.6621V14.86H60.9489V15.0297Z" fill="white"/>
<path d="M63.6923 12.5154V12.6645C63.3627 12.6645 63.155 12.7352 63.0694 12.8753C62.9863 13.0167 62.9448 13.198 62.9448 13.4203V19.7597H61.6938V12.5L63.6923 12.5154ZM62.4724 20.7314C62.8319 20.7314 63.0746 20.7751 63.1992 20.8651C63.2641 20.923 63.303 20.9847 63.3134 21.0502C63.3263 21.1183 63.3341 21.2199 63.3341 21.3536H63.2303C63.2095 21.1955 63.1382 21.0862 63.0175 21.0245C62.8994 20.9628 62.7501 20.932 62.571 20.932C62.3115 20.932 62.122 20.9988 62.0052 21.1325C61.8871 21.2687 61.8287 21.4435 61.8287 21.6569C61.8287 21.8793 61.8871 22.0631 62.0052 22.207C62.122 22.3536 62.3115 22.4281 62.571 22.4281H63.386V22.6595H61.0293V22.4435H61.7768C61.4264 22.2752 61.2525 22.0129 61.2525 21.6569C61.2525 21.3998 61.3589 21.18 61.5744 20.9988C61.7885 20.8201 62.0883 20.7314 62.4724 20.7314Z" fill="white"/>
<path d="M69.3806 12.6338C69.5596 12.6338 69.7089 12.6955 69.827 12.8189C69.9438 12.9397 70.0035 13.0901 70.0035 13.2713C70.0035 13.4397 69.9438 13.585 69.827 13.7083C69.7089 13.8292 69.5596 13.8883 69.3806 13.8883C69.1963 13.8883 69.0457 13.8292 68.9289 13.7083C68.8108 13.585 68.7524 13.4397 68.7524 13.2713C68.7524 13.0901 68.8108 12.9397 68.9289 12.8189C69.0457 12.6955 69.1963 12.6338 69.3806 12.6338ZM70.9534 12.6338C71.1325 12.6338 71.2857 12.6955 71.4103 12.8189C71.5348 12.9397 71.5971 13.0901 71.5971 13.2713C71.5971 13.4397 71.5348 13.585 71.4103 13.7083C71.2857 13.8292 71.1325 13.8883 70.9534 13.8883C70.7834 13.8883 70.6368 13.8292 70.5122 13.7083C70.3876 13.585 70.3253 13.4397 70.3253 13.2713C70.3253 13.0901 70.3876 12.9397 70.5122 12.8189C70.6368 12.6955 70.7834 12.6338 70.9534 12.6338ZM73.5594 14.9989H73.3932C73.1441 14.9989 72.9845 15.0695 72.9157 15.2096C72.8495 15.3472 72.817 15.5271 72.817 15.7495V19.3382H74.3225V19.7598H70.1592C69.4454 19.7367 68.8069 19.5015 68.2437 19.0554C67.9738 18.8331 67.7532 18.5747 67.5844 18.2791C67.4144 17.9809 67.3301 17.6467 67.3301 17.2765C67.3301 16.5297 67.6519 15.9346 68.2956 15.4924C68.9393 15.0503 69.8075 14.8292 70.9015 14.8292H73.5594V14.9989ZM71.5452 19.3382V15.4307C71.2156 15.3318 70.873 15.2945 70.5174 15.3176C70.1644 15.3382 69.84 15.4282 69.5467 15.585C69.2521 15.7392 69.012 15.9603 68.8251 16.2482C68.6408 16.5336 68.55 16.8806 68.55 17.2919C68.55 17.8652 68.7018 18.3459 69.0068 18.7367C69.1418 18.9153 69.3079 19.0606 69.5051 19.1737C69.7024 19.2842 69.9204 19.3382 70.1592 19.3382H71.5452Z" fill="white"/>
<path d="M77.8097 14.6953C78.6325 14.6953 79.1698 14.8123 79.419 15.0449C79.5669 15.1683 79.6526 15.3264 79.6733 15.5179C79.6967 15.7069 79.7097 15.9961 79.7097 16.3868H79.4864C79.4514 15.9524 79.3009 15.6503 79.0348 15.482C78.7714 15.3149 78.443 15.23 78.0485 15.23C77.484 15.23 77.0726 15.41 76.813 15.7699C76.5535 16.1272 76.4237 16.6066 76.4237 17.2095C76.4237 17.491 76.4471 17.7545 76.4964 18.0013C76.5483 18.2455 76.6314 18.4627 76.7456 18.6542C76.9701 19.045 77.314 19.2738 77.7786 19.338H80.4676V19.7596H73.6465V19.338H76.3043C75.536 18.8689 75.1519 18.1594 75.1519 17.2095C75.1519 16.8637 75.2103 16.5385 75.3284 16.2326C75.4491 15.9241 75.6269 15.6568 75.8631 15.4305C76.0876 15.2082 76.364 15.0295 76.6936 14.8958C77.022 14.7622 77.3944 14.6953 77.8097 14.6953Z" fill="white"/>
<path d="M87.3771 14.9624H87.2057C86.9566 14.9624 86.797 15.0293 86.7282 15.163C86.662 15.2966 86.6295 15.4766 86.6295 15.7028V19.3378H88.1194V19.7594H86.5984V19.9959C86.5984 20.4406 86.5101 20.8031 86.3336 21.0807C86.1572 21.361 85.9508 21.5808 85.7159 21.7389C85.4667 21.9059 85.2202 22.0268 84.9788 22.0988C84.7361 22.1707 84.5479 22.2234 84.413 22.2581C84.3091 22.2813 84.252 22.2761 84.2416 22.2427C84.2066 22.2183 84.2183 22.1887 84.278 22.1553C84.5233 22.0216 84.7166 21.8622 84.8594 21.6772C85.0008 21.4946 85.1112 21.298 85.1916 21.0859C85.2708 20.8828 85.3214 20.6669 85.3422 20.4381C85.3655 20.208 85.3785 19.9818 85.3785 19.7594H84.496C84.0003 19.7594 83.546 19.6964 83.1308 19.5692C82.7181 19.4393 82.3677 19.2684 82.077 19.055C81.7824 18.8327 81.5527 18.5743 81.3866 18.2787C81.223 17.9805 81.1426 17.6463 81.1426 17.2761C81.1426 16.5151 81.4644 15.9085 82.1081 15.456C82.7518 15.0036 83.6213 14.7773 84.7192 14.7773H87.3771V14.9624ZM84.5323 15.2658C83.899 15.2658 83.3773 15.4342 82.9698 15.7696C82.5649 16.1064 82.3625 16.6077 82.3625 17.2761C82.3625 17.9136 82.5416 18.4123 82.9024 18.7722C83.2657 19.1296 83.7173 19.3352 84.2572 19.3892H85.3577V15.384C85.1112 15.3056 84.836 15.2658 84.5323 15.2658Z" fill="white"/>
<path d="M92.2866 14.8291C92.7253 14.8291 93.1302 14.9037 93.5013 15.0502C93.8751 15.1941 94.1814 15.3831 94.4202 15.6157C94.6797 15.8728 94.8692 16.1646 94.9912 16.4898C95.1158 16.8163 95.1897 17.1569 95.2144 17.5129V17.7289C95.2248 18.0554 95.2624 18.3227 95.3286 18.5309C95.3974 18.7366 95.4895 18.8998 95.6037 19.0194C95.7179 19.1428 95.8477 19.2276 95.9931 19.2713C96.1384 19.3163 96.3019 19.3381 96.4862 19.3381H97.1299V19.7597H96.0294C95.8594 19.7366 95.6998 19.7019 95.5518 19.6569C95.4065 19.6132 95.2819 19.5412 95.1781 19.441C95.1223 19.387 95.0716 19.3317 95.0275 19.2764C94.9821 19.2186 94.9367 19.1569 94.8925 19.0914C94.7472 19.3587 94.5577 19.6004 94.3267 19.8163C94.0944 20.0348 93.792 20.207 93.4183 20.3304C93.0341 20.4641 92.5994 20.531 92.1153 20.531C91.6754 20.531 91.2744 20.4564 90.911 20.3099C90.5502 20.1659 90.253 19.977 90.0181 19.7443C89.9143 19.6415 89.8222 19.5374 89.743 19.4307C89.6664 19.3253 89.599 19.2173 89.5406 19.1068C89.3952 19.3844 89.1798 19.5682 88.8969 19.6569C88.7411 19.716 88.5828 19.7495 88.4245 19.7597H87.4434V19.3381H87.9677C88.1364 19.3381 88.2908 19.3201 88.4297 19.2816C88.5711 19.2443 88.6996 19.1685 88.8138 19.0554C89.0383 18.833 89.1733 18.4422 89.2187 17.8831V17.6826C89.2187 16.8086 89.5003 16.1145 90.0649 15.6003C90.584 15.0862 91.3237 14.8291 92.2866 14.8291ZM92.2347 15.2815C91.691 15.2815 91.2666 15.4821 90.9629 15.8831C90.8176 16.0965 90.7046 16.3253 90.6255 16.572C90.545 16.8188 90.5061 17.1325 90.5061 17.5129C90.5061 17.9384 90.5541 18.288 90.6514 18.5618C90.7475 18.8369 90.8747 19.0952 91.0304 19.3381C91.3587 19.8073 91.7779 20.0425 92.2866 20.0425C92.8161 20.0425 93.2327 19.8369 93.5377 19.4255C93.696 19.2237 93.8037 19.0027 93.8595 18.7623C93.914 18.5232 93.9426 18.2173 93.9426 17.8471C93.9426 17.423 93.9062 17.0682 93.8336 16.7828C93.7609 16.4988 93.6441 16.2379 93.4858 16.0013C93.1704 15.5219 92.7538 15.2815 92.2347 15.2815Z" fill="white"/>
<path d="M97.9546 15.816L99.3614 14.4072C100.15 15.1926 100.807 15.8455 101.334 16.3661C101.86 16.8841 102.29 17.3057 102.627 17.6309C102.785 17.7993 102.929 17.9484 103.057 18.0782C103.189 18.2055 103.299 18.3134 103.39 18.4021L103.815 18.8186C103.915 18.9214 103.989 19.0075 104.039 19.0757C104.09 19.1412 104.155 19.2286 104.236 19.3379H105.71V19.7595H104.459C104.569 20.0397 104.63 20.3096 104.641 20.5667C104.654 20.8237 104.633 21.0577 104.578 21.271C104.529 21.4831 104.46 21.6721 104.371 21.8366C104.28 22.0037 104.207 22.1399 104.153 22.2428C104.097 22.3315 104.052 22.3713 104.018 22.361C103.983 22.361 103.978 22.3315 104.002 22.2736C104.067 22.0063 104.087 21.7543 104.059 21.5178C104.031 21.2839 103.972 21.0731 103.883 20.8854C103.792 20.6926 103.686 20.5217 103.561 20.3713C103.436 20.2196 103.317 20.0834 103.203 19.96L103 19.7595H96.4492V19.3379H102.595L99.1226 15.9342C98.963 15.78 98.8112 15.6772 98.6658 15.6257C98.5205 15.5743 98.3621 15.6386 98.1934 15.816L98.074 15.9342L97.9546 15.816ZM100.005 20.7312C100.184 20.7312 100.337 20.7929 100.462 20.9163C100.587 21.0397 100.649 21.1849 100.649 21.3533C100.649 21.5307 100.587 21.6824 100.462 21.8058C100.337 21.9292 100.184 21.9908 100.005 21.9908C99.8351 21.9908 99.6884 21.9292 99.5639 21.8058C99.4393 21.6824 99.377 21.5307 99.377 21.3533C99.377 21.1849 99.4393 21.0397 99.5639 20.9163C99.6884 20.7929 99.8351 20.7312 100.005 20.7312Z" fill="white"/>
<path d="M109.876 14.8291C110.315 14.8291 110.72 14.9037 111.091 15.0502C111.465 15.1941 111.771 15.3831 112.01 15.6157C112.539 16.144 112.804 16.8381 112.804 17.698C112.804 18.5798 112.527 19.2662 111.974 19.7597C111.444 20.2739 110.688 20.531 109.705 20.531C109.265 20.531 108.864 20.4564 108.501 20.3099C108.14 20.1659 107.843 19.977 107.608 19.7443C107.504 19.6415 107.412 19.5374 107.333 19.4307C107.256 19.3253 107.189 19.2173 107.13 19.1068C106.985 19.3844 106.77 19.5682 106.487 19.6569C106.331 19.716 106.173 19.7495 106.014 19.7597H105.033V19.3381H105.558C105.726 19.3381 105.881 19.3201 106.02 19.2816C106.161 19.2443 106.289 19.1685 106.404 19.0554C106.628 18.833 106.763 18.4422 106.809 17.8831V17.6826C106.809 16.8086 107.09 16.1145 107.655 15.6003C108.174 15.0862 108.914 14.8291 109.876 14.8291ZM109.825 15.2815C109.281 15.2815 108.856 15.4821 108.553 15.8831C108.407 16.0965 108.294 16.3253 108.215 16.572C108.135 16.8188 108.096 17.1325 108.096 17.5129C108.096 17.9384 108.144 18.288 108.241 18.5618C108.337 18.8369 108.465 19.0952 108.62 19.3381C108.949 19.8073 109.368 20.0425 109.876 20.0425C110.406 20.0425 110.823 19.8369 111.128 19.4255C111.286 19.2237 111.394 19.0027 111.449 18.7623C111.504 18.5232 111.532 18.2173 111.532 17.8471C111.532 17.423 111.496 17.0682 111.423 16.7828C111.351 16.4988 111.234 16.2379 111.076 16.0013C110.76 15.5219 110.344 15.2815 109.825 15.2815Z" fill="white"/>
<g clip-path="url(#clip0_619_3616)">
<path d="M150.798 13.7522L150.43 14.5113H156.651L153.495 8.74789L153.166 9.5228C153.166 9.5228 148.094 7.15966 143.551 6.89746L142.904 7.45192L143.551 11.5361C143.551 11.5361 149.019 12.5272 150.797 13.7522H150.798Z" fill="white"/>
<path d="M135.437 12.9212C135.437 12.9212 133.377 13.8397 132.592 15.1532H126.439C126.439 15.1532 129.055 9.28881 135.437 7.74316C135.437 7.74316 135.201 11.2879 135.437 12.922V12.9212Z" fill="white"/>
<path d="M153.972 22.068C153.093 21.3783 152.186 20.8572 151.367 20.469C149.787 19.7191 148.548 19.4719 148.548 19.4719V18.3613L142.903 20.1708L147.211 24.3861L147.609 23.1753C154.888 24.8437 155.16 31.5832 152.05 35.6732L151.674 36.1342C151.281 36.5859 150.845 36.9968 150.372 37.3541C146.645 40.1741 141.812 39.5528 139.963 39.1728C139.477 39.0726 139.198 38.9875 139.198 38.9875L136.258 39.9787L133.894 40.7945L133.553 40.9139C141.904 46.3399 156.311 43.0716 157.841 32.5711C158.615 27.2461 156.422 23.9961 153.972 22.068Z" fill="white"/>
<path d="M152.051 35.6734C151.93 35.8304 151.804 35.9874 151.675 36.1343C149.784 35.3627 147.354 35.6358 144.082 37.2599C142.884 37.8528 141.477 38.5517 139.963 39.173C138.041 39.9629 135.946 40.6285 133.895 40.7946C131.85 40.9675 129.852 40.641 128.114 39.4494C128.114 39.4494 125.291 37.3919 126.438 34.6354C126.438 34.6354 120.838 33.7169 124.498 28.027C124.498 28.027 121.684 27.2646 122.029 24.0881C122.295 21.6357 124.233 21.0244 124.233 21.0244C124.233 21.0244 120.727 17.0956 125.089 15.069C128.173 13.636 135.438 14.7675 135.438 14.7675C135.438 14.7675 132.764 2.30715 140.034 0.654623C140.533 0.538553 141.049 0.500977 141.561 0.500977H143.729C143.729 0.500977 143.056 11.7606 145.449 15.1533C147.526 18.0951 153.092 17.129 153.974 22.069C153.095 21.3793 152.188 20.8582 151.369 20.4699C151.369 19.6533 150.361 18.7982 149.264 18.2905C147.279 17.372 143.626 16.6505 142.905 11.0491C142.187 5.44771 142.449 2.07585 142.449 2.07585C142.449 2.07585 139.266 1.00367 137.373 2.97601C133.814 6.68272 136.235 15.5992 136.235 15.5992C136.235 15.5992 128.107 14.512 125.927 16.6689C125.092 17.4956 124.477 18.9176 125.823 21.3325C125.823 21.3325 123.882 22.7755 124.277 25.1837C124.675 27.5894 126.218 28.0721 126.218 28.0721C126.218 28.0721 124.454 29.91 124.985 32.1395C125.513 34.3724 127.719 34.1094 127.719 34.1094C127.719 34.1094 126.288 38.6194 131.247 39.4911C138.217 40.7178 143.752 36.9092 145.44 36.1519C147.535 35.2108 149.917 34.8609 152.052 35.675L152.051 35.6734Z" fill="white"/>
</g>
<defs>
<clipPath id="clip0_619_3616">
<rect width="36" height="43" fill="white" transform="translate(122 0.5)"/>
</clipPath>
</defs>
</svg>
