<svg width="186" height="44" viewBox="0 0 186 44" fill="none" xmlns="http://www.w3.org/2000/svg">
<path d="M0.939453 24.188V28.7766C0.939453 28.9943 0.9518 29.1665 0.976492 29.2965C1.00119 29.4265 1.04131 29.5305 1.09996 29.6085C1.15706 29.6865 1.23114 29.7385 1.32219 29.7645C1.4117 29.7905 1.52745 29.8035 1.66789 29.8035H2.39015V29.6345H2.22965C1.99044 29.6345 1.83611 29.5565 1.76666 29.4005C1.7003 29.2445 1.66789 29.0365 1.66789 28.7766V24.188H0.939453Z" fill="white"/>
<path d="M3.95883 29.8034V26.5473C4.06068 26.427 4.18106 26.323 4.31687 26.2353C4.45268 26.1492 4.60238 26.1053 4.76751 26.1053C5.01444 26.1053 5.2197 26.1882 5.38483 26.3523C5.46663 26.44 5.53299 26.5586 5.58238 26.7097C5.63176 26.8625 5.65645 27.0412 5.65645 27.2492V29.8034H6.38489V27.2492C6.38489 26.947 6.34476 26.6935 6.2676 26.4888C6.18889 26.2857 6.08395 26.128 5.95277 26.0143C5.82004 25.8941 5.67497 25.8128 5.51447 25.7738C5.35397 25.7348 5.18266 25.7153 5.0021 25.7153C4.76288 25.7153 4.55454 25.7608 4.3786 25.8518C4.20112 25.9428 4.06068 26.0403 3.95883 26.1443H3.92179C3.88012 26.0403 3.80758 25.9591 3.70573 25.8973C3.60232 25.8372 3.44336 25.8063 3.23039 25.8063H2.50195V25.9753H2.66246C2.90938 25.9753 3.06526 26.0533 3.13162 26.2093C3.19644 26.3653 3.23039 26.57 3.23039 26.8202V29.8034H3.95883Z" fill="white"/>
<path d="M7.37974 27.0022C7.37974 27.2719 7.44147 27.501 7.56494 27.6911C7.6884 27.8829 7.8273 28.021 7.98471 28.1071C7.92607 28.151 7.86434 28.2078 7.79952 28.2761C7.73316 28.3411 7.70075 28.4386 7.70075 28.5686C7.70075 28.6985 7.73316 28.8058 7.79952 28.887C7.86434 28.9699 7.93841 29.0333 8.02175 29.0755C7.78254 29.1633 7.5742 29.3014 7.39826 29.4915C7.22078 29.6832 7.13281 29.9156 7.13281 30.1934C7.13281 30.4355 7.17911 30.6386 7.2748 30.8043C7.36894 30.9685 7.49394 31.1033 7.65136 31.2073C7.81495 31.3194 8.00015 31.3958 8.20695 31.4348C8.41684 31.477 8.64833 31.4998 8.90452 31.4998C9.16688 31.4998 9.40609 31.477 9.62061 31.4348C9.83358 31.3958 10.0188 31.3194 10.1762 31.2073C10.3398 31.1033 10.4679 30.9685 10.5589 30.8043C10.6484 30.6386 10.6947 30.4355 10.6947 30.1934C10.6947 29.9497 10.6469 29.7482 10.5528 29.5825C10.4571 29.4184 10.3274 29.2802 10.1638 29.1665C9.83358 28.9683 9.41381 28.8675 8.90452 28.8675C8.33967 28.8675 8.05879 28.7684 8.05879 28.5686C8.05879 28.3703 8.33967 28.2696 8.90452 28.2696C9.11749 28.2696 9.32121 28.2501 9.51566 28.2111C9.70858 28.1688 9.87062 28.099 10.0033 28.0031C10.1422 27.9089 10.2518 27.7789 10.3305 27.6132C10.4077 27.449 10.4478 27.2459 10.4478 27.0022C10.4478 26.778 10.3938 26.5846 10.2873 26.4238C10.1793 26.2645 10.0435 26.141 9.87988 26.0533V26.0143L10.4108 25.9363V25.7153H8.90452C8.69772 25.7153 8.50017 25.7381 8.31189 25.7803C8.1267 25.8242 7.96311 25.8941 7.82421 25.9883C7.69149 26.0842 7.585 26.2142 7.5032 26.3783C7.41987 26.544 7.37974 26.752 7.37974 27.0022ZM9.71938 27.0022C9.71938 27.1842 9.69777 27.3369 9.65765 27.4572C9.61598 27.579 9.55888 27.6781 9.4848 27.7561C9.34436 27.904 9.15145 27.9771 8.90452 27.9771C8.66531 27.9771 8.47857 27.904 8.34276 27.7561C8.2764 27.6781 8.22084 27.579 8.17608 27.4572C8.12978 27.3369 8.10818 27.1842 8.10818 27.0022C8.10818 26.8121 8.12978 26.6545 8.17608 26.5278C8.22084 26.4026 8.2764 26.3003 8.34276 26.2223C8.47857 26.0842 8.66531 26.0143 8.90452 26.0143C9.13447 26.0143 9.32738 26.0923 9.4848 26.2483C9.64067 26.4043 9.71938 26.6561 9.71938 27.0022ZM8.54647 29.1665L8.99094 29.2055C9.64067 29.3014 9.96631 29.6312 9.96631 30.1934C9.96631 30.5314 9.86754 30.7783 9.66999 30.9343C9.47245 31.0903 9.21626 31.1683 8.90452 31.1683C8.60358 31.1683 8.3551 31.0903 8.15756 30.9343C7.96002 30.7783 7.86125 30.5314 7.86125 30.1934C7.86125 29.9156 7.92452 29.6978 8.05262 29.537C8.17917 29.3777 8.3443 29.2542 8.54647 29.1665Z" fill="white"/>
<path d="M14.2537 29.8034V27.5092C14.2537 27.1289 14.2136 26.8186 14.1364 26.5797C14.0577 26.3425 13.9528 26.1573 13.8216 26.0273C13.6888 25.9071 13.5376 25.8242 13.3648 25.7803C13.1919 25.7381 13.0144 25.7153 12.8339 25.7153C12.7011 25.7153 12.5777 25.7218 12.4635 25.7348C12.3524 25.7478 12.2381 25.7641 12.1239 25.7803C11.877 25.8421 11.7073 25.9201 11.6177 26.0143C11.519 26.1183 11.4603 26.2353 11.4449 26.3653C11.4279 26.4953 11.4202 26.635 11.4202 26.7812H11.7906C11.8477 26.505 11.9526 26.3133 12.1054 26.2093C12.2567 26.1053 12.4465 26.0533 12.6734 26.0533C12.928 26.0533 13.1302 26.1443 13.2783 26.3263C13.3524 26.44 13.4111 26.5911 13.4574 26.7812C13.5021 26.973 13.5253 27.2151 13.5253 27.5092H13.2783C12.9974 27.5092 12.7351 27.527 12.4882 27.5612C12.2443 27.5969 12.0283 27.6619 11.84 27.7561C11.6501 27.8439 11.5004 27.9641 11.3893 28.1201C11.2782 28.2728 11.2227 28.4646 11.2227 28.6985C11.2227 28.9325 11.2628 29.1259 11.3461 29.277C11.4279 29.4297 11.5267 29.5532 11.6424 29.6475C11.7566 29.7352 11.8832 29.7969 12.019 29.8359C12.1548 29.8749 12.2798 29.8944 12.3956 29.8944C12.7042 29.8944 12.9481 29.8424 13.1302 29.7384C13.3107 29.6345 13.4419 29.5272 13.5253 29.4135H13.5623L13.8463 29.8034H14.2537ZM13.5253 27.8471V28.9975C13.4419 29.1275 13.3416 29.2445 13.2228 29.3485C13.1024 29.4525 12.945 29.5045 12.7474 29.5045C12.5375 29.5045 12.3616 29.4395 12.2227 29.3095C12.1564 29.2412 12.1008 29.1568 12.056 29.056C12.0097 28.9569 11.9881 28.8383 11.9881 28.6985C11.9881 28.4386 12.1008 28.2338 12.3277 28.0811C12.5576 27.9251 12.874 27.8471 13.2783 27.8471H13.5253Z" fill="white"/>
<path d="M18.3068 25.8066H15.8437C15.5798 25.8066 15.3946 25.8765 15.2882 26.0146C15.2295 26.0764 15.1925 26.1479 15.177 26.2291C15.1601 26.312 15.1523 26.3965 15.1523 26.4826V26.9115H15.3128C15.3128 26.6694 15.3946 26.481 15.5598 26.3461C15.7234 26.2129 15.9796 26.1446 16.3253 26.1446H17.2451L15.1523 29.6478V29.8038H18.3068V29.4658H16.1277L18.3068 25.8066Z" fill="white"/>
<path d="M24.0472 25.8066V29.0498C23.9392 29.1717 23.8188 29.2773 23.683 29.3683C23.5472 29.4593 23.3959 29.5048 23.2324 29.5048C23.1243 29.5048 23.0178 29.4837 22.9114 29.4398C22.8033 29.3975 22.7092 29.3326 22.6274 29.2448C22.5487 29.1587 22.4823 29.0417 22.4298 28.8938C22.3758 28.7476 22.3496 28.5656 22.3496 28.3479V26.8205C22.3496 26.4046 22.3002 26.1284 22.2014 25.9886C22.1428 25.9106 22.0672 25.8619 21.973 25.8391C21.8773 25.818 21.7601 25.8066 21.6212 25.8066H20.9668V25.9756H21.0532C21.2909 25.9756 21.4452 26.0536 21.5162 26.2096C21.5857 26.3656 21.6212 26.5703 21.6212 26.8205V28.3479C21.6212 28.6599 21.6597 28.9133 21.7384 29.1083C21.8156 29.3033 21.9206 29.4625 22.0533 29.5828C22.1845 29.6965 22.328 29.7761 22.4854 29.8233C22.6459 29.8704 22.8126 29.8948 22.9854 29.8948C23.2324 29.8948 23.4438 29.8493 23.6213 29.7583C23.7972 29.6673 23.9392 29.5698 24.0472 29.4658H24.0843L24.3682 29.8038H24.7757V25.8066H24.0472Z" fill="white"/>
<path d="M26.783 29.8034V26.5473C26.8849 26.427 27.0053 26.323 27.1411 26.2353C27.2769 26.1492 27.4266 26.1053 27.5917 26.1053C27.8387 26.1053 28.0439 26.1882 28.2091 26.3523C28.2908 26.44 28.3572 26.5586 28.4066 26.7097C28.456 26.8625 28.4807 27.0412 28.4807 27.2492V29.8034H29.2091V27.2492C29.2091 26.947 29.169 26.6935 29.0918 26.4888C29.0131 26.2857 28.9082 26.128 28.777 26.0143C28.6443 25.8941 28.4992 25.8128 28.3387 25.7738C28.1782 25.7348 28.0069 25.7153 27.8263 25.7153C27.5871 25.7153 27.3788 25.7608 27.2028 25.8518C27.0253 25.9428 26.8849 26.0403 26.783 26.1443H26.746C26.7043 26.0403 26.6318 25.9591 26.5299 25.8973C26.4265 25.8372 26.2676 25.8063 26.0546 25.8063H25.3262V25.9753H25.4867C25.7336 25.9753 25.8895 26.0533 25.9558 26.2093C26.0207 26.3653 26.0546 26.57 26.0546 26.8202V29.8034H26.783Z" fill="white"/>
<path d="M31.1301 24.9161C31.1301 24.7698 31.0869 24.6415 31.0005 24.5326C30.9141 24.4254 30.8045 24.3701 30.6733 24.3701C30.4264 24.3701 30.3029 24.4969 30.3029 24.7471C30.3029 24.8901 30.3477 25.0168 30.4387 25.124C30.5283 25.2329 30.6363 25.2865 30.7598 25.2865C31.0067 25.2865 31.1301 25.163 31.1301 24.9161ZM31.1795 29.8036V26.8204C31.1795 26.4044 31.1301 26.1282 31.0314 25.9885C30.9727 25.9105 30.8971 25.8617 30.803 25.839C30.7073 25.8179 30.59 25.8065 30.4511 25.8065H29.7227V25.9755H29.8832C30.1301 25.9755 30.286 26.0535 30.3523 26.2094C30.4171 26.3654 30.4511 26.5702 30.4511 26.8204V29.8036H31.1795Z" fill="white"/>
<path d="M32.4722 26.1447V28.777C32.4722 29.1669 32.5617 29.4513 32.7439 29.6284C32.9244 29.8055 33.1528 29.8949 33.4291 29.8949C33.568 29.8949 33.6945 29.8819 33.8056 29.8559C33.9168 29.8299 34.0124 29.8006 34.0958 29.7649C34.1776 29.7307 34.2455 29.6934 34.2995 29.6544C34.352 29.6154 34.3998 29.5796 34.4415 29.5439L34.3674 29.3749C34.2841 29.4188 34.1976 29.4578 34.1081 29.4919C34.0171 29.5276 33.9013 29.5439 33.7624 29.5439C33.3874 29.5439 33.2007 29.2888 33.2007 28.777V26.1447H34.1575V25.8067H33.2007V24.5264H32.8673L32.4722 25.0398V25.8067H31.9043V26.1447H32.4722Z" fill="white"/>
<path d="M38.0522 27.9381L38.0645 27.5872C38.0645 26.9892 37.9318 26.5278 37.6694 26.2028C37.4055 25.8778 36.9981 25.7153 36.4471 25.7153C36.191 25.7153 35.9625 25.7706 35.7619 25.8778C35.5644 25.9867 35.3946 26.1362 35.2557 26.3263C35.1153 26.518 35.0103 26.739 34.9409 26.9892C34.8699 27.2411 34.8359 27.514 34.8359 27.8081C34.8359 28.0909 34.8699 28.3573 34.9409 28.6076C35.0103 28.8594 35.1153 29.0804 35.2557 29.2705C35.3946 29.4622 35.5705 29.6133 35.7804 29.7254C35.9934 29.8376 36.2403 29.8944 36.5212 29.8944C36.833 29.8944 37.1092 29.8246 37.3484 29.6865C37.5861 29.5483 37.796 29.3192 37.9781 28.9975L37.8176 28.8675C37.6771 29.0853 37.5182 29.251 37.3423 29.368C37.1648 29.485 36.9441 29.5435 36.6817 29.5435C36.5089 29.5435 36.3561 29.5028 36.2249 29.42C36.0922 29.3387 35.9795 29.2282 35.8854 29.0885C35.6956 28.7944 35.6014 28.411 35.6014 27.9381H38.0522ZM37.299 27.5872H35.6014C35.6014 27.1371 35.6832 26.7731 35.8483 26.4953C35.9224 26.3571 36.0058 26.2483 36.1014 26.1703C36.2002 26.0923 36.3144 26.0533 36.4471 26.0533C36.7342 26.0533 36.9487 26.1865 37.0892 26.4498C37.228 26.7146 37.299 27.0932 37.299 27.5872Z" fill="white"/>
<path d="M42.067 29.8035V25.2084C42.067 24.7892 42.0176 24.5097 41.9189 24.37C41.8602 24.3017 41.7831 24.253 41.6843 24.227C41.5855 24.201 41.4651 24.188 41.3262 24.188H40.5978V24.357H40.7707C41.0083 24.357 41.1611 24.435 41.2275 24.5909C41.2923 24.7469 41.3262 24.9533 41.3262 25.2084V25.9753C41.2028 25.9071 41.0608 25.8453 40.9003 25.7933C40.7398 25.7413 40.5438 25.7153 40.3138 25.7153C40.0623 25.7153 39.84 25.7706 39.6471 25.8778C39.4527 25.9867 39.2953 26.1362 39.1718 26.3263C39.0391 26.518 38.9434 26.739 38.8817 26.9892C38.8199 27.2411 38.7891 27.514 38.7891 27.8081C38.7891 28.4028 38.9079 28.8903 39.1471 29.2705C39.2706 29.4622 39.4249 29.6133 39.6101 29.7255C39.7953 29.8376 40.0052 29.8944 40.2398 29.8944C40.4034 29.8944 40.5453 29.8782 40.6657 29.8489C40.7845 29.8181 40.8849 29.7823 40.9682 29.7385C41.0577 29.6962 41.1302 29.6442 41.1843 29.5825C41.2367 29.5224 41.2846 29.4655 41.3262 29.4135H41.3756L41.6596 29.8035H42.067ZM41.3262 26.3133V29.0365C41.2846 29.0983 41.2414 29.16 41.1966 29.225C41.1503 29.29 41.0947 29.3452 41.0299 29.3875C40.8972 29.4915 40.7166 29.5435 40.4867 29.5435C40.3216 29.5435 40.1811 29.498 40.0669 29.407C39.9558 29.316 39.8632 29.1925 39.7891 29.0365C39.7058 28.8805 39.6471 28.6986 39.6101 28.4906C39.5731 28.2793 39.5545 28.0519 39.5545 27.8081C39.5545 27.5579 39.5731 27.3256 39.6101 27.1127C39.6471 26.9015 39.7058 26.7162 39.7891 26.5603C39.8709 26.4043 39.9743 26.2808 40.0978 26.1898C40.2243 26.0988 40.3787 26.0533 40.5608 26.0533C40.6842 26.0533 40.8108 26.0793 40.9435 26.1313C41.0747 26.1833 41.2028 26.245 41.3262 26.3133Z" fill="white"/>
<path d="M47.2115 24.4481C47.5572 24.4481 47.8165 24.5749 47.9893 24.8251L48.2239 24.6171C48.1822 24.531 48.1406 24.4579 48.1004 24.3961C48.0588 24.336 48.0048 24.2792 47.9399 24.2272C47.7995 24.141 47.5696 24.0972 47.2485 24.0972C47.0757 24.0972 46.9044 24.1199 46.7362 24.1622C46.571 24.206 46.4229 24.2759 46.2917 24.3701C46.159 24.4839 46.0525 24.635 45.9707 24.8251C45.8874 25.012 45.8472 25.2524 45.8472 25.5465V25.8065H45.2793V26.1445H45.8472V29.8036H46.5757V26.1445H47.7054V25.8065H46.5757V25.5465C46.5757 25.1354 46.6343 24.8478 46.7547 24.6821C46.8689 24.5261 47.0217 24.4481 47.2115 24.4481Z" fill="white"/>
<path d="M48.1992 27.8081C48.1992 28.4028 48.3551 28.8903 48.6684 29.2705C48.8165 29.4622 48.9971 29.6133 49.2116 29.7254C49.4292 29.8376 49.6823 29.8944 49.9709 29.8944C50.2503 29.8944 50.5018 29.8376 50.7241 29.7254C50.9463 29.6133 51.1346 29.4622 51.292 29.2705C51.4479 29.0804 51.5636 28.8594 51.6377 28.6076C51.7118 28.3573 51.7488 28.0909 51.7488 27.8081C51.7488 27.514 51.7118 27.2411 51.6377 26.9892C51.5636 26.739 51.4479 26.518 51.292 26.3263C51.1346 26.1362 50.9463 25.9867 50.7241 25.8778C50.5018 25.7706 50.2503 25.7153 49.9709 25.7153C49.6823 25.7153 49.4292 25.7706 49.2116 25.8778C48.9971 25.9867 48.8165 26.1362 48.6684 26.3263C48.3551 26.7081 48.1992 27.2021 48.1992 27.8081ZM50.9833 27.8081C50.9833 28.2988 50.8923 28.7083 50.7117 29.0365C50.6207 29.1925 50.5111 29.316 50.3845 29.407C50.2564 29.498 50.1191 29.5435 49.9709 29.5435C49.8228 29.5435 49.687 29.498 49.5635 29.407C49.44 29.316 49.3351 29.1925 49.2487 29.0365C49.0588 28.7164 48.9647 28.307 48.9647 27.8081C48.9647 27.2979 49.0588 26.882 49.2487 26.5603C49.3351 26.4043 49.44 26.2808 49.5635 26.1898C49.687 26.0988 49.8228 26.0533 49.9709 26.0533C50.1191 26.0533 50.2564 26.0988 50.3845 26.1898C50.5111 26.2808 50.6207 26.4043 50.7117 26.5603C50.8923 26.8901 50.9833 27.3061 50.9833 27.8081Z" fill="white"/>
<path d="M53.498 29.8034V26.6512C53.6662 26.3653 53.9193 26.2223 54.2573 26.2223C54.5614 26.2223 54.7759 26.31 54.8993 26.4823L55.2327 26.2223C55.1833 26.1362 55.137 26.063 55.0969 26.0013C55.0552 25.9412 55.0058 25.8892 54.9487 25.8453C54.8901 25.8031 54.8145 25.7706 54.7203 25.7478C54.6246 25.7267 54.5367 25.7153 54.4549 25.7153C54.2157 25.7153 54.0166 25.7673 53.8561 25.8713C53.6987 25.9753 53.5798 26.0793 53.498 26.1833H53.4486C53.407 26.0533 53.3344 25.9591 53.2326 25.8973C53.1292 25.8372 52.9702 25.8063 52.7572 25.8063H52.1152V25.9753H52.2017C52.4393 25.9753 52.5921 26.0533 52.6585 26.2093C52.7233 26.3653 52.7572 26.57 52.7572 26.8202V29.8034H53.498Z" fill="white"/>
<path d="M64.5841 30.1934V30.0114C64.3202 30.0114 64.1242 29.8636 63.9977 29.5695C63.8696 29.2754 63.8063 28.8675 63.8063 28.3476V24.188H63.0779L61.1827 28.6076L59.2505 24.188H58.4727V29.8035H58.806V24.9874L60.8987 29.8035H61.0592L63.0779 25.0784V28.3476C63.0779 28.6693 63.1026 28.9455 63.1519 29.1795C63.2013 29.4135 63.2785 29.6052 63.3865 29.7515C63.6165 30.0456 64.0162 30.1934 64.5841 30.1934Z" fill="white"/>
<path d="M68.0428 29.8034V27.5092C68.0428 27.1289 68.0026 26.8186 67.9255 26.5797C67.8468 26.3425 67.7418 26.1573 67.6106 26.0273C67.4779 25.9071 67.3267 25.8242 67.1538 25.7803C66.981 25.7381 66.8035 25.7153 66.6229 25.7153C66.4902 25.7153 66.3667 25.7218 66.2525 25.7348C66.1414 25.7478 66.0272 25.7641 65.913 25.7803C65.6661 25.8421 65.4963 25.9201 65.4068 26.0143C65.308 26.1183 65.2494 26.2353 65.234 26.3653C65.217 26.4953 65.2093 26.635 65.2093 26.7812H65.5797C65.6368 26.505 65.7417 26.3133 65.8945 26.2093C66.0457 26.1053 66.2356 26.0533 66.4624 26.0533C66.7171 26.0533 66.9192 26.1443 67.0674 26.3263C67.1415 26.44 67.2001 26.5911 67.2464 26.7812C67.2912 26.973 67.3143 27.2151 67.3143 27.5092H67.0674C66.7865 27.5092 66.5242 27.527 66.2772 27.5612C66.0334 27.5969 65.8173 27.6619 65.629 27.7561C65.4392 27.8439 65.2895 27.9641 65.1784 28.1201C65.0673 28.2728 65.0117 28.4646 65.0117 28.6985C65.0117 28.9325 65.0518 29.1259 65.1352 29.277C65.217 29.4297 65.3157 29.5532 65.4315 29.6475C65.5457 29.7352 65.6723 29.7969 65.8081 29.8359C65.9439 29.8749 66.0689 29.8944 66.1846 29.8944C66.4933 29.8944 66.7371 29.8424 66.9192 29.7384C67.0998 29.6345 67.231 29.5272 67.3143 29.4135H67.3514L67.6353 29.8034H68.0428ZM67.3143 27.8471V28.9975C67.231 29.1275 67.1307 29.2445 67.0118 29.3485C66.8915 29.4525 66.734 29.5045 66.5365 29.5045C66.3266 29.5045 66.1507 29.4395 66.0118 29.3095C65.9454 29.2412 65.8899 29.1568 65.8451 29.056C65.7988 28.9569 65.7772 28.8383 65.7772 28.6985C65.7772 28.4386 65.8899 28.2338 66.1167 28.0811C66.3467 27.9251 66.663 27.8471 67.0674 27.8471H67.3143Z" fill="white"/>
<path d="M70.0155 29.8034V26.5473C70.1173 26.427 70.2377 26.323 70.3735 26.2353C70.5093 26.1492 70.659 26.1053 70.8242 26.1053C71.0711 26.1053 71.2763 26.1882 71.4415 26.3523C71.5233 26.44 71.5896 26.5586 71.639 26.7097C71.6884 26.8625 71.7131 27.0412 71.7131 27.2492V29.8034H72.4415V27.2492C72.4415 26.947 72.4014 26.6935 72.3242 26.4888C72.2455 26.2857 72.1406 26.128 72.0094 26.0143C71.8767 25.8941 71.7316 25.8128 71.5711 25.7738C71.4106 25.7348 71.2393 25.7153 71.0587 25.7153C70.8195 25.7153 70.6112 25.7608 70.4352 25.8518C70.2578 25.9428 70.1173 26.0403 70.0155 26.1443H69.9784C69.9368 26.0403 69.8642 25.9591 69.7624 25.8973C69.659 25.8372 69.5 25.8063 69.287 25.8063H68.5586V25.9753H68.7191C68.966 25.9753 69.1219 26.0533 69.1883 26.2093C69.2531 26.3653 69.287 26.57 69.287 26.8202V29.8034H70.0155Z" fill="white"/>
<path d="M76.3318 29.8034V27.5092C76.3318 27.1289 76.2917 26.8186 76.2145 26.5797C76.1358 26.3425 76.0309 26.1573 75.8997 26.0273C75.767 25.9071 75.6157 25.8242 75.4429 25.7803C75.27 25.7381 75.0926 25.7153 74.912 25.7153C74.7793 25.7153 74.6558 25.7218 74.5416 25.7348C74.4305 25.7478 74.3163 25.7641 74.2021 25.7803C73.9551 25.8421 73.7854 25.9201 73.6959 26.0143C73.5971 26.1183 73.5384 26.2353 73.523 26.3653C73.506 26.4953 73.4983 26.635 73.4983 26.7812H73.8687C73.9258 26.505 74.0308 26.3133 74.1835 26.2093C74.3348 26.1053 74.5246 26.0533 74.7515 26.0533C75.0061 26.0533 75.2083 26.1443 75.3565 26.3263C75.4305 26.44 75.4892 26.5911 75.5355 26.7812C75.5802 26.973 75.6034 27.2151 75.6034 27.5092H75.3565C75.0756 27.5092 74.8132 27.527 74.5663 27.5612C74.3224 27.5969 74.1064 27.6619 73.9181 27.7561C73.7283 27.8439 73.5786 27.9641 73.4675 28.1201C73.3563 28.2728 73.3008 28.4646 73.3008 28.6985C73.3008 28.9325 73.3409 29.1259 73.4242 29.277C73.506 29.4297 73.6048 29.5532 73.7206 29.6475C73.8348 29.7352 73.9613 29.7969 74.0971 29.8359C74.2329 29.8749 74.3579 29.8944 74.4737 29.8944C74.7823 29.8944 75.0262 29.8424 75.2083 29.7384C75.3889 29.6345 75.52 29.5272 75.6034 29.4135H75.6404L75.9244 29.8034H76.3318ZM75.6034 27.8471V28.9975C75.52 29.1275 75.4197 29.2445 75.3009 29.3485C75.1805 29.4525 75.0231 29.5045 74.8256 29.5045C74.6157 29.5045 74.4397 29.4395 74.3008 29.3095C74.2345 29.2412 74.1789 29.1568 74.1342 29.056C74.0879 28.9569 74.0663 28.8383 74.0663 28.6985C74.0663 28.4386 74.1789 28.2338 74.4058 28.0811C74.6357 27.9251 74.9521 27.8471 75.3565 27.8471H75.6034Z" fill="white"/>
<path d="M77.329 27.0022C77.329 27.2719 77.3907 27.501 77.5142 27.6911C77.6376 27.8829 77.7765 28.021 77.9339 28.1071C77.8753 28.151 77.8136 28.2078 77.7487 28.2761C77.6824 28.3411 77.65 28.4386 77.65 28.5686C77.65 28.6985 77.6824 28.8058 77.7487 28.887C77.8136 28.9699 77.8876 29.0333 77.971 29.0755C77.7318 29.1633 77.5234 29.3014 77.3475 29.4915C77.17 29.6832 77.082 29.9156 77.082 30.1934C77.082 30.4355 77.1283 30.6386 77.224 30.8043C77.3182 30.9685 77.4432 31.1033 77.6006 31.2073C77.7642 31.3194 77.9494 31.3958 78.1562 31.4348C78.3661 31.477 78.5976 31.4998 78.8537 31.4998C79.1161 31.4998 79.3553 31.477 79.5698 31.4348C79.7828 31.3958 79.968 31.3194 80.1254 31.2073C80.289 31.1033 80.4171 30.9685 80.5082 30.8043C80.5977 30.6386 80.644 30.4355 80.644 30.1934C80.644 29.9497 80.5961 29.7482 80.502 29.5825C80.4063 29.4184 80.2767 29.2802 80.1131 29.1665C79.7828 28.9683 79.363 28.8675 78.8537 28.8675C78.2889 28.8675 78.008 28.7684 78.008 28.5686C78.008 28.3703 78.2889 28.2696 78.8537 28.2696C79.0667 28.2696 79.2704 28.2501 79.4649 28.2111C79.6578 28.1688 79.8198 28.099 79.9526 28.0031C80.0915 27.9089 80.201 27.7789 80.2797 27.6132C80.3569 27.449 80.397 27.2459 80.397 27.0022C80.397 26.778 80.343 26.5846 80.2365 26.4238C80.1285 26.2645 79.9927 26.141 79.8291 26.0533V26.0143L80.36 25.9363V25.7153H78.8537C78.6469 25.7153 78.4494 25.7381 78.2611 25.7803C78.0759 25.8242 77.9123 25.8941 77.7734 25.9883C77.6407 26.0842 77.5342 26.2142 77.4524 26.3783C77.3691 26.544 77.329 26.752 77.329 27.0022ZM79.6686 27.0022C79.6686 27.1842 79.647 27.3369 79.6069 27.4572C79.5652 27.579 79.5081 27.6781 79.434 27.7561C79.2936 27.904 79.1007 27.9771 78.8537 27.9771C78.6145 27.9771 78.4278 27.904 78.292 27.7561C78.2256 27.6781 78.1701 27.579 78.1253 27.4572C78.079 27.3369 78.0574 27.1842 78.0574 27.0022C78.0574 26.8121 78.079 26.6545 78.1253 26.5278C78.1701 26.4026 78.2256 26.3003 78.292 26.2223C78.4278 26.0842 78.6145 26.0143 78.8537 26.0143C79.0837 26.0143 79.2766 26.0923 79.434 26.2483C79.5899 26.4043 79.6686 26.6561 79.6686 27.0022ZM78.4957 29.1665L78.9402 29.2055C79.5899 29.3014 79.9155 29.6312 79.9155 30.1934C79.9155 30.5314 79.8168 30.7783 79.6192 30.9343C79.4217 31.0903 79.1655 31.1683 78.8537 31.1683C78.5528 31.1683 78.3043 31.0903 78.1068 30.9343C77.9092 30.7783 77.8105 30.5314 77.8105 30.1934C77.8105 29.9156 77.8737 29.6978 78.0018 29.537C78.1284 29.3777 78.2935 29.2542 78.4957 29.1665Z" fill="white"/>
<path d="M84.4369 27.9381L84.4493 27.5872C84.4493 26.9892 84.3166 26.5278 84.0542 26.2028C83.7903 25.8778 83.3829 25.7153 82.8319 25.7153C82.5757 25.7153 82.3473 25.7706 82.1467 25.8778C81.9491 25.9867 81.7794 26.1362 81.6405 26.3263C81.5 26.518 81.3951 26.739 81.3256 26.9892C81.2547 27.2411 81.2207 27.514 81.2207 27.8081C81.2207 28.0909 81.2547 28.3573 81.3256 28.6076C81.3951 28.8594 81.5 29.0804 81.6405 29.2705C81.7794 29.4622 81.9553 29.6133 82.1652 29.7254C82.3782 29.8376 82.6251 29.8944 82.906 29.8944C83.2177 29.8944 83.494 29.8246 83.7332 29.6865C83.9709 29.5483 84.1807 29.3192 84.3629 28.9975L84.2024 28.8675C84.0619 29.0853 83.903 29.251 83.727 29.368C83.5495 29.485 83.3288 29.5435 83.0665 29.5435C82.8936 29.5435 82.7409 29.5028 82.6097 29.42C82.4769 29.3387 82.3643 29.2282 82.2701 29.0885C82.0803 28.7944 81.9862 28.411 81.9862 27.9381H84.4369ZM83.6838 27.5872H81.9862C81.9862 27.1371 82.068 26.7731 82.2331 26.4953C82.3072 26.3571 82.3905 26.2483 82.4862 26.1703C82.585 26.0923 82.6992 26.0533 82.8319 26.0533C83.119 26.0533 83.3335 26.1865 83.4739 26.4498C83.6128 26.7146 83.6838 27.0932 83.6838 27.5872Z" fill="white"/>
<path d="M86.2225 26.1443H86.1855C86.1438 26.0403 86.0713 25.9591 85.9694 25.8973C85.866 25.8372 85.707 25.8063 85.4941 25.8063H84.7656V25.9753H84.9261C85.1731 25.9753 85.3289 26.0533 85.3953 26.2093C85.4601 26.3653 85.4941 26.57 85.4941 26.8202V29.8034H86.2225V26.5473C86.3244 26.427 86.4447 26.323 86.5805 26.2353C86.7164 26.1492 86.8661 26.1053 87.0312 26.1053C87.2364 26.1053 87.3954 26.1898 87.5065 26.3588C87.6176 26.5278 87.6732 26.8251 87.6732 27.2492V29.8034H88.4016V27.2492C88.4016 27.1631 88.3985 27.0575 88.3955 26.9307C88.3908 26.8056 88.38 26.713 88.3646 26.6512C88.4047 26.583 88.4572 26.518 88.5189 26.4563C88.5807 26.3961 88.6486 26.336 88.7226 26.2743C88.8044 26.232 88.8862 26.193 88.9696 26.1573C89.0514 26.1232 89.1332 26.1053 89.2165 26.1053C89.4171 26.1053 89.5745 26.1898 89.6857 26.3588C89.7968 26.5278 89.8523 26.8251 89.8523 27.2492V29.8034H90.5808V27.2492C90.5808 26.947 90.5499 26.6935 90.4882 26.4888C90.4264 26.2857 90.3462 26.128 90.2474 26.0143C90.1394 25.8941 90.019 25.8128 89.8832 25.7738C89.7474 25.7348 89.6054 25.7153 89.4573 25.7153C89.2304 25.7153 89.0066 25.7673 88.7844 25.8713C88.5621 25.9753 88.38 26.1232 88.2411 26.3133C88.1424 26.0712 88.0081 25.9103 87.8399 25.8323C87.6701 25.7543 87.4787 25.7153 87.2658 25.7153C87.0266 25.7153 86.8182 25.7608 86.6423 25.8518C86.4648 25.9428 86.3244 26.0403 86.2225 26.1443Z" fill="white"/>
<path d="M94.7201 27.9381L94.7325 27.5872C94.7325 26.9892 94.5998 26.5278 94.3374 26.2028C94.0735 25.8778 93.6661 25.7153 93.1151 25.7153C92.8589 25.7153 92.6305 25.7706 92.4299 25.8778C92.2323 25.9867 92.0626 26.1362 91.9237 26.3263C91.7832 26.518 91.6783 26.739 91.6089 26.9892C91.5379 27.2411 91.5039 27.514 91.5039 27.8081C91.5039 28.0909 91.5379 28.3573 91.6089 28.6076C91.6783 28.8594 91.7832 29.0804 91.9237 29.2705C92.0626 29.4622 92.2385 29.6133 92.4484 29.7254C92.6614 29.8376 92.9083 29.8944 93.1892 29.8944C93.5009 29.8944 93.7772 29.8246 94.0164 29.6865C94.2541 29.5483 94.464 29.3192 94.6461 28.9975L94.4856 28.8675C94.3451 29.0853 94.1862 29.251 94.0102 29.368C93.8327 29.485 93.6121 29.5435 93.3497 29.5435C93.1768 29.5435 93.0241 29.5028 92.8929 29.42C92.7602 29.3387 92.6475 29.2282 92.5533 29.0885C92.3635 28.7944 92.2694 28.411 92.2694 27.9381H94.7201ZM93.967 27.5872H92.2694C92.2694 27.1371 92.3512 26.7731 92.5163 26.4953C92.5904 26.3571 92.6737 26.2483 92.7694 26.1703C92.8682 26.0923 92.9824 26.0533 93.1151 26.0533C93.4022 26.0533 93.6167 26.1865 93.7571 26.4498C93.896 26.7146 93.967 27.0932 93.967 27.5872Z" fill="white"/>
<path d="M96.5077 29.8034V26.5473C96.6095 26.427 96.7299 26.323 96.8657 26.2353C97.0015 26.1492 97.1512 26.1053 97.3163 26.1053C97.5633 26.1053 97.7685 26.1882 97.9337 26.3523C98.0155 26.44 98.0818 26.5586 98.1312 26.7097C98.1806 26.8625 98.2053 27.0412 98.2053 27.2492V29.8034H98.9337V27.2492C98.9337 26.947 98.8936 26.6935 98.8164 26.4888C98.7377 26.2857 98.6328 26.128 98.5016 26.0143C98.3689 25.8941 98.2238 25.8128 98.0633 25.7738C97.9028 25.7348 97.7315 25.7153 97.5509 25.7153C97.3117 25.7153 97.1034 25.7608 96.9274 25.8518C96.75 25.9428 96.6095 26.0403 96.5077 26.1443H96.4706C96.4289 26.0403 96.3564 25.9591 96.2546 25.8973C96.1512 25.8372 95.9922 25.8063 95.7792 25.8063H95.0508V25.9753H95.2113C95.4582 25.9753 95.6141 26.0533 95.6804 26.2093C95.7453 26.3653 95.7792 26.57 95.7792 26.8202V29.8034H96.5077Z" fill="white"/>
<path d="M100.214 26.1447V28.777C100.214 29.1669 100.304 29.4513 100.486 29.6284C100.667 29.8055 100.895 29.8949 101.171 29.8949C101.31 29.8949 101.437 29.8819 101.548 29.8559C101.659 29.8299 101.755 29.8006 101.838 29.7649C101.92 29.7307 101.988 29.6934 102.042 29.6544C102.094 29.6154 102.142 29.5796 102.184 29.5439L102.11 29.3749C102.026 29.4188 101.94 29.4578 101.85 29.4919C101.759 29.5276 101.644 29.5439 101.505 29.5439C101.13 29.5439 100.943 29.2888 100.943 28.777V26.1447H101.9V25.8067H100.943V24.5264H100.61L100.214 25.0398V25.8067H99.6465V26.1447H100.214Z" fill="white"/>
<path d="M109.425 25.9754H109.597C109.597 25.7154 109.588 25.4733 109.573 25.2474C109.556 25.0183 109.494 24.8347 109.388 24.695C109.242 24.513 109.011 24.3554 108.69 24.2205C108.369 24.0873 107.982 24.019 107.529 24.019C107.184 24.019 106.858 24.1003 106.554 24.2595C106.253 24.4204 105.992 24.6397 105.77 24.916C105.539 25.1808 105.358 25.4993 105.227 25.8714C105.094 26.2451 105.029 26.648 105.029 27.0803C105.029 27.8992 105.255 28.5816 105.708 29.1276C105.921 29.3875 106.184 29.5939 106.492 29.745C106.804 29.8961 107.15 29.9725 107.529 29.9725C107.776 29.9725 108.006 29.9497 108.221 29.9075C108.434 29.8636 108.631 29.7872 108.813 29.6735C108.994 29.5533 109.162 29.4054 109.32 29.2315C109.48 29.0593 109.625 28.8383 109.758 28.5686L109.597 28.4386C109.371 28.8286 109.113 29.1259 108.826 29.329C108.537 29.5338 108.187 29.6345 107.776 29.6345C107.431 29.6345 107.136 29.5614 106.894 29.4135C106.65 29.2673 106.446 29.0723 106.282 28.8286C106.13 28.5865 106.017 28.3151 105.943 28.0162C105.869 27.7139 105.832 27.402 105.832 27.0803C105.832 26.57 105.883 26.1411 105.986 25.7934C106.088 25.4473 106.228 25.1662 106.406 24.9485C106.586 24.7372 106.795 24.5845 107.029 24.4935C107.264 24.4025 107.512 24.357 107.776 24.357C108.229 24.357 108.593 24.487 108.869 24.747C109.144 25.0037 109.329 25.4132 109.425 25.9754Z" fill="white"/>
<path d="M110.41 27.8081C110.41 28.4028 110.566 28.8903 110.879 29.2705C111.027 29.4622 111.208 29.6133 111.423 29.7254C111.64 29.8376 111.893 29.8944 112.182 29.8944C112.461 29.8944 112.713 29.8376 112.935 29.7254C113.157 29.6133 113.346 29.4622 113.503 29.2705C113.659 29.0804 113.775 28.8594 113.849 28.6076C113.923 28.3573 113.96 28.0909 113.96 27.8081C113.96 27.514 113.923 27.2411 113.849 26.9892C113.775 26.739 113.659 26.518 113.503 26.3263C113.346 26.1362 113.157 25.9867 112.935 25.8778C112.713 25.7706 112.461 25.7153 112.182 25.7153C111.893 25.7153 111.64 25.7706 111.423 25.8778C111.208 25.9867 111.027 26.1362 110.879 26.3263C110.566 26.7081 110.41 27.2021 110.41 27.8081ZM113.194 27.8081C113.194 28.2988 113.103 28.7083 112.923 29.0365C112.832 29.1925 112.722 29.316 112.595 29.407C112.467 29.498 112.33 29.5435 112.182 29.5435C112.034 29.5435 111.898 29.498 111.774 29.407C111.651 29.316 111.546 29.1925 111.46 29.0365C111.27 28.7164 111.176 28.307 111.176 27.8081C111.176 27.2979 111.27 26.882 111.46 26.5603C111.546 26.4043 111.651 26.2808 111.774 26.1898C111.898 26.0988 112.034 26.0533 112.182 26.0533C112.33 26.0533 112.467 26.0988 112.595 26.1898C112.722 26.2808 112.832 26.4043 112.923 26.5603C113.103 26.8901 113.194 27.3061 113.194 27.8081Z" fill="white"/>
<path d="M115.76 29.8034V26.5473C115.861 26.427 115.982 26.323 116.118 26.2353C116.253 26.1492 116.403 26.1053 116.568 26.1053C116.815 26.1053 117.02 26.1882 117.186 26.3523C117.267 26.44 117.334 26.5586 117.383 26.7097C117.433 26.8625 117.457 27.0412 117.457 27.2492V29.8034H118.186V27.2492C118.186 26.947 118.146 26.6935 118.068 26.4888C117.99 26.2857 117.885 26.128 117.754 26.0143C117.621 25.8941 117.476 25.8128 117.315 25.7738C117.155 25.7348 116.983 25.7153 116.803 25.7153C116.564 25.7153 116.355 25.7608 116.179 25.8518C116.002 25.9428 115.861 26.0403 115.76 26.1443H115.723C115.681 26.0403 115.608 25.9591 115.507 25.8973C115.403 25.8372 115.244 25.8063 115.031 25.8063H114.303V25.9753H114.463C114.71 25.9753 114.866 26.0533 114.932 26.2093C114.997 26.3653 115.031 26.57 115.031 26.8202V29.8034H115.76Z" fill="white"/>
<path d="M121.99 28.7765C121.99 28.4824 121.9 28.2485 121.724 28.0746C121.547 27.8975 121.286 27.735 120.94 27.5872L120.446 27.3792C120.022 27.1891 119.811 26.947 119.811 26.6512C119.811 26.479 119.88 26.336 120.02 26.2223C120.159 26.1102 120.36 26.0533 120.619 26.0533C120.94 26.0533 121.19 26.1345 121.372 26.2938C121.553 26.4546 121.664 26.674 121.706 26.9502H121.866C121.866 26.7341 121.857 26.5586 121.842 26.4238C121.825 26.2905 121.767 26.167 121.669 26.0533C121.561 25.9493 121.409 25.8681 121.212 25.8063C121.014 25.7462 120.758 25.7153 120.446 25.7153C120.047 25.7153 119.732 25.8112 119.502 26.0013C119.386 26.089 119.294 26.2012 119.224 26.3393C119.153 26.479 119.119 26.6382 119.119 26.8202C119.119 27.0981 119.206 27.3272 119.378 27.5092C119.551 27.6911 119.789 27.8471 120.095 27.9771L120.57 28.1786C120.817 28.2923 120.999 28.4045 121.119 28.5166C121.238 28.6303 121.298 28.7733 121.298 28.9455C121.298 29.1194 121.227 29.2624 121.088 29.3745C120.948 29.4882 120.721 29.5435 120.409 29.5435C120.067 29.5435 119.804 29.4638 119.619 29.303C119.434 29.1438 119.32 28.9244 119.28 28.6466H119.119C119.119 28.8643 119.127 29.0414 119.144 29.1795C119.159 29.3192 119.221 29.4395 119.329 29.5435C119.428 29.6572 119.579 29.7433 119.786 29.8034C119.991 29.8636 120.252 29.8944 120.57 29.8944C120.99 29.8944 121.326 29.7953 121.582 29.5955C121.854 29.4054 121.99 29.1324 121.99 28.7765Z" fill="white"/>
<path d="M125.352 25.8066V29.0498C125.244 29.1717 125.123 29.2773 124.988 29.3683C124.852 29.4593 124.701 29.5048 124.537 29.5048C124.429 29.5048 124.323 29.4837 124.216 29.4398C124.108 29.3975 124.014 29.3326 123.932 29.2448C123.853 29.1587 123.787 29.0417 123.735 28.8938C123.681 28.7476 123.654 28.5656 123.654 28.3479V26.8205C123.654 26.4046 123.605 26.1284 123.506 25.9886C123.447 25.9106 123.372 25.8619 123.278 25.8391C123.182 25.818 123.065 25.8066 122.926 25.8066H122.271V25.9756H122.358C122.596 25.9756 122.75 26.0536 122.821 26.2096C122.89 26.3656 122.926 26.5703 122.926 26.8205V28.3479C122.926 28.6599 122.964 28.9133 123.043 29.1083C123.12 29.3033 123.225 29.4625 123.358 29.5828C123.489 29.6965 123.633 29.7761 123.79 29.8233C123.951 29.8704 124.117 29.8948 124.29 29.8948C124.537 29.8948 124.748 29.8493 124.926 29.7583C125.102 29.6673 125.244 29.5698 125.352 29.4658H125.389L125.673 29.8038H126.08V25.8066H125.352Z" fill="white"/>
<path d="M128.002 29.8035V25.2084C128.002 24.7892 127.952 24.5097 127.854 24.37C127.795 24.3017 127.719 24.253 127.625 24.227C127.53 24.201 127.412 24.188 127.273 24.188H126.545V24.357H126.705C126.943 24.357 127.097 24.435 127.168 24.5909C127.238 24.7469 127.273 24.9533 127.273 25.2084V29.8035H128.002Z" fill="white"/>
<path d="M129.355 26.1447V28.777C129.355 29.1669 129.445 29.4513 129.627 29.6284C129.807 29.8055 130.036 29.8949 130.312 29.8949C130.451 29.8949 130.577 29.8819 130.688 29.8559C130.8 29.8299 130.895 29.8006 130.979 29.7649C131.06 29.7307 131.128 29.6934 131.182 29.6544C131.235 29.6154 131.283 29.5796 131.324 29.5439L131.25 29.3749C131.167 29.4188 131.08 29.4578 130.991 29.4919C130.9 29.5276 130.784 29.5439 130.645 29.5439C130.27 29.5439 130.083 29.2888 130.083 28.777V26.1447H131.04V25.8067H130.083V24.5264H129.75L129.355 25.0398V25.8067H128.787V26.1447H129.355Z" fill="white"/>
<path d="M132.732 24.9161C132.732 24.7698 132.688 24.6415 132.602 24.5326C132.516 24.4254 132.406 24.3701 132.275 24.3701C132.028 24.3701 131.904 24.4969 131.904 24.7471C131.904 24.8901 131.949 25.0168 132.04 25.124C132.13 25.2329 132.238 25.2865 132.361 25.2865C132.608 25.2865 132.732 25.163 132.732 24.9161ZM132.781 29.8036V26.8204C132.781 26.4044 132.732 26.1282 132.633 25.9885C132.574 25.9105 132.499 25.8617 132.405 25.839C132.309 25.8179 132.192 25.8065 132.053 25.8065H131.324V25.9755H131.485C131.732 25.9755 131.888 26.0535 131.954 26.2094C132.019 26.3654 132.053 26.5702 132.053 26.8204V29.8036H132.781Z" fill="white"/>
<path d="M134.764 29.8034V26.5473C134.865 26.427 134.986 26.323 135.122 26.2353C135.257 26.1492 135.407 26.1053 135.572 26.1053C135.819 26.1053 136.024 26.1882 136.19 26.3523C136.271 26.44 136.338 26.5586 136.387 26.7097C136.436 26.8625 136.461 27.0412 136.461 27.2492V29.8034H137.19V27.2492C137.19 26.947 137.149 26.6935 137.072 26.4888C136.994 26.2857 136.889 26.128 136.757 26.0143C136.625 25.8941 136.48 25.8128 136.319 25.7738C136.159 25.7348 135.987 25.7153 135.807 25.7153C135.568 25.7153 135.359 25.7608 135.183 25.8518C135.006 25.9428 134.865 26.0403 134.764 26.1443H134.726C134.685 26.0403 134.612 25.9591 134.51 25.8973C134.407 25.8372 134.248 25.8063 134.035 25.8063H133.307V25.9753H133.467C133.714 25.9753 133.87 26.0533 133.936 26.2093C134.001 26.3653 134.035 26.57 134.035 26.8202V29.8034H134.764Z" fill="white"/>
<path d="M138.184 27.0022C138.184 27.2719 138.246 27.501 138.37 27.6911C138.493 27.8829 138.632 28.021 138.789 28.1071C138.731 28.151 138.669 28.2078 138.604 28.2761C138.538 28.3411 138.505 28.4386 138.505 28.5686C138.505 28.6985 138.538 28.8058 138.604 28.887C138.669 28.9699 138.743 29.0333 138.826 29.0755C138.587 29.1633 138.379 29.3014 138.203 29.4915C138.025 29.6832 137.938 29.9156 137.938 30.1934C137.938 30.4355 137.984 30.6386 138.079 30.8043C138.174 30.9685 138.299 31.1033 138.456 31.2073C138.62 31.3194 138.805 31.3958 139.012 31.4348C139.222 31.477 139.453 31.4998 139.709 31.4998C139.972 31.4998 140.211 31.477 140.425 31.4348C140.638 31.3958 140.823 31.3194 140.981 31.2073C141.144 31.1033 141.273 30.9685 141.364 30.8043C141.453 30.6386 141.499 30.4355 141.499 30.1934C141.499 29.9497 141.452 29.7482 141.357 29.5825C141.262 29.4184 141.132 29.2802 140.969 29.1665C140.638 28.9683 140.218 28.8675 139.709 28.8675C139.144 28.8675 138.863 28.7684 138.863 28.5686C138.863 28.3703 139.144 28.2696 139.709 28.2696C139.922 28.2696 140.126 28.2501 140.32 28.2111C140.513 28.1688 140.675 28.099 140.808 28.0031C140.947 27.9089 141.057 27.7789 141.135 27.6132C141.212 27.449 141.253 27.2459 141.253 27.0022C141.253 26.778 141.198 26.5846 141.092 26.4238C140.984 26.2645 140.848 26.141 140.685 26.0533V26.0143L141.215 25.9363V25.7153H139.709C139.502 25.7153 139.305 25.7381 139.117 25.7803C138.931 25.8242 138.768 25.8941 138.629 25.9883C138.496 26.0842 138.39 26.2142 138.308 26.3783C138.225 26.544 138.184 26.752 138.184 27.0022ZM140.524 27.0022C140.524 27.1842 140.502 27.3369 140.462 27.4572C140.421 27.579 140.364 27.6781 140.289 27.7561C140.149 27.904 139.956 27.9771 139.709 27.9771C139.47 27.9771 139.283 27.904 139.147 27.7561C139.081 27.6781 139.026 27.579 138.981 27.4572C138.934 27.3369 138.913 27.1842 138.913 27.0022C138.913 26.8121 138.934 26.6545 138.981 26.5278C139.026 26.4026 139.081 26.3003 139.147 26.2223C139.283 26.0842 139.47 26.0143 139.709 26.0143C139.939 26.0143 140.132 26.0923 140.289 26.2483C140.445 26.4043 140.524 26.6561 140.524 27.0022ZM139.351 29.1665L139.796 29.2055C140.445 29.3014 140.771 29.6312 140.771 30.1934C140.771 30.5314 140.672 30.7783 140.475 30.9343C140.277 31.0903 140.021 31.1683 139.709 31.1683C139.408 31.1683 139.16 31.0903 138.962 30.9343C138.765 30.7783 138.666 30.5314 138.666 30.1934C138.666 29.9156 138.729 29.6978 138.857 29.537C138.984 29.3777 139.149 29.2542 139.351 29.1665Z" fill="white"/>
<path d="M2.30875 13.8389C2.46925 13.8389 2.60043 13.8974 2.70383 14.0144C2.81032 14.1281 2.86433 14.2678 2.86433 14.4368C2.86433 14.5928 2.81032 14.7293 2.70383 14.8463C2.60043 14.9633 2.46925 15.0218 2.30875 15.0218C2.14824 15.0218 2.01398 14.9633 1.90749 14.8463C1.80409 14.7293 1.75316 14.5928 1.75316 14.4368C1.75316 14.2678 1.80409 14.1281 1.90749 14.0144C2.01398 13.8974 2.14824 13.8389 2.30875 13.8389ZM3.69771 13.8389C3.85822 13.8389 3.99403 13.8974 4.10514 14.0144C4.21626 14.1281 4.27182 14.2678 4.27182 14.4368C4.27182 14.5928 4.21626 14.7293 4.10514 14.8463C3.99403 14.9633 3.85822 15.0218 3.69771 15.0218C3.54956 15.0218 3.41992 14.9633 3.3088 14.8463C3.20077 14.7293 3.1483 14.5928 3.1483 14.4368C3.1483 14.2678 3.20077 14.1281 3.3088 14.0144C3.41992 13.8974 3.54956 13.8389 3.69771 13.8389ZM6.00649 16.0617H5.85833C5.6361 16.0617 5.49411 16.1266 5.43238 16.2566C5.37373 16.3866 5.34596 16.5589 5.34596 16.7701V20.1368H6.67937V20.5332H3.00014C2.37048 20.5121 1.80563 20.2911 1.30869 19.8703C1.06485 19.6623 0.870392 19.4202 0.722235 19.1424C0.574078 18.8613 0.5 18.5477 0.5 18.2C0.5 17.498 0.783967 16.9391 1.3519 16.5231C1.91983 16.1072 2.68685 15.8992 3.6545 15.8992H6.00649V16.0617ZM4.22243 20.1368V16.4711C3.93384 16.3769 3.63135 16.3395 3.31498 16.3606C3.00169 16.3785 2.71618 16.4614 2.4569 16.6076C2.19763 16.7555 1.98465 16.9634 1.82106 17.2315C1.65593 17.5013 1.57414 17.8295 1.57414 18.2194C1.57414 18.7524 1.70995 19.2041 1.98157 19.5713C2.1004 19.7403 2.24701 19.8768 2.41986 19.9808C2.5958 20.0848 2.79025 20.1368 3.00014 20.1368H4.22243Z" fill="white"/>
<path d="M9.44642 16.0876H9.29826C9.06677 16.0876 8.92324 16.1559 8.86614 16.2891C8.81212 16.4191 8.78589 16.5913 8.78589 16.8026V18.2649C8.78589 18.6126 8.72724 18.9246 8.61304 19.2008C8.50192 19.4787 8.35531 19.7127 8.17474 19.9028C7.79509 20.3236 7.37531 20.5332 6.91541 20.5332H6.08203V20.1367H6.31661C6.47712 20.1367 6.63299 20.1107 6.78578 20.0587C6.94165 20.0068 7.08517 19.919 7.2179 19.7923C7.33673 19.6672 7.4355 19.5047 7.51421 19.3048C7.59601 19.1066 7.64539 18.8596 7.66237 18.5639V15.9316H9.44642V16.0876ZM7.35371 21.4496C7.50958 21.4496 7.63922 21.5049 7.74262 21.6186C7.84911 21.7356 7.90312 21.8721 7.90312 22.0281C7.90312 22.197 7.84911 22.3368 7.74262 22.4505C7.63922 22.5675 7.50958 22.626 7.35371 22.626C7.19321 22.626 7.05894 22.5675 6.95245 22.4505C6.84905 22.3368 6.79812 22.197 6.79812 22.0281C6.79812 21.8721 6.84905 21.7356 6.95245 21.6186C7.05894 21.5049 7.19321 21.4496 7.35371 21.4496ZM8.74268 21.4496C8.90318 21.4496 9.0359 21.5049 9.14393 21.6186C9.25505 21.7356 9.31061 21.8721 9.31061 22.0281C9.31061 22.197 9.25505 22.3368 9.14393 22.4505C9.0359 22.5675 8.90318 22.626 8.74268 22.626C8.59452 22.626 8.46488 22.5675 8.35377 22.4505C8.24265 22.3368 8.18709 22.197 8.18709 22.0281C8.18709 21.8721 8.24265 21.7356 8.35377 21.6186C8.46488 21.5049 8.59452 21.4496 8.74268 21.4496Z" fill="white"/>
<path d="M12.1397 16.0617H11.9915C11.7693 16.0617 11.6273 16.1251 11.5656 16.2502C11.5069 16.3769 11.4791 16.5427 11.4791 16.7506V20.5333C11.4791 20.9525 11.3989 21.2937 11.2384 21.5537C11.081 21.8169 10.8989 22.0298 10.689 22.1906C10.4698 22.3466 10.2522 22.4604 10.0346 22.5351C9.8201 22.6082 9.65497 22.6602 9.53459 22.6911C9.43582 22.7122 9.38335 22.7073 9.37409 22.6781C9.35402 22.6553 9.36791 22.6293 9.4173 22.6001C9.63645 22.4604 9.80621 22.3044 9.92967 22.1321C10.0562 21.9583 10.155 21.7763 10.226 21.5862C10.2831 21.4075 10.3217 21.2303 10.3433 21.0532C10.3633 20.8745 10.3741 20.7055 10.3741 20.5463V15.8862H12.1397V16.0617Z" fill="white"/>
<path d="M14.6562 13.7285V13.8715C14.3629 13.8715 14.1824 13.9365 14.1129 14.0665C14.0466 14.1964 14.0141 14.3687 14.0141 14.5799V20.5333H12.8906V13.709L14.6562 13.7285Z" fill="white"/>
<path d="M16.4344 15.7886C16.8048 15.7886 17.1336 15.8536 17.4222 15.9836C17.7092 16.1103 17.9546 16.276 18.1568 16.484C18.5765 16.9487 18.7864 17.5093 18.7864 18.1673C18.7864 18.8433 18.5765 19.4006 18.1568 19.8377C17.9546 20.0505 17.7092 20.2195 17.4222 20.3446C17.1336 20.4714 16.8048 20.5331 16.4344 20.5331H14.6504V20.1367H16.2369C16.7061 20.1367 17.0657 19.9482 17.3172 19.5712C17.436 19.3941 17.5225 19.1845 17.5765 18.9408C17.6336 18.6987 17.6629 18.4403 17.6629 18.1673C17.6629 17.6052 17.5456 17.1534 17.311 16.8155C17.0765 16.4775 16.7138 16.3085 16.2246 16.3085C15.8742 16.3085 15.5825 16.3865 15.348 16.5425C15.1134 16.6952 14.9807 16.9812 14.9529 17.4004H14.7553C14.7553 17.0332 14.7646 16.7602 14.7862 16.5815C14.8063 16.3995 14.8819 16.2533 15.0146 16.1395C15.1334 16.0144 15.3125 15.9251 15.5517 15.8731C15.7893 15.8178 16.0841 15.7886 16.4344 15.7886Z" fill="white"/>
<path d="M23.7198 13.8715H23.5716C23.3818 13.8715 23.2537 13.9218 23.1889 14.021C23.1271 14.1217 23.0855 14.2533 23.0654 14.4174V18.5315C23.0654 19.8671 22.3648 20.5333 20.9665 20.5333C20.5992 20.5333 20.2813 20.4683 20.0097 20.3384C19.7411 20.2051 19.5282 20.0556 19.3677 19.8899V19.4609C19.5282 19.6397 19.7134 19.7973 19.9233 19.9354C20.1331 20.0703 20.3616 20.1369 20.6085 20.1369C20.769 20.1369 20.9249 20.1109 21.0776 20.0589C21.2335 20.0069 21.3709 19.9191 21.4912 19.7924C21.6101 19.6673 21.7089 19.5048 21.7876 19.305C21.8694 19.1067 21.9203 18.8597 21.9419 18.564V13.709H23.7198V13.8715ZM20.5344 14.3589V17.5241C20.5344 17.6639 20.5406 17.815 20.5529 17.9791C20.5684 18.1399 20.6085 18.2975 20.6702 18.4535C20.7273 18.6225 20.8122 18.7882 20.9233 18.9475C21.0344 19.1035 21.1888 19.2383 21.3863 19.3504C21.4357 19.3732 21.4511 19.3943 21.4357 19.4154C21.4233 19.4463 21.3709 19.4512 21.2814 19.4284C21.1733 19.3992 21.0298 19.3504 20.8492 19.2855C20.6671 19.2172 20.4881 19.1132 20.3122 18.9735C20.1301 18.8272 19.968 18.6404 19.8245 18.4145C19.6794 18.1903 19.5837 17.893 19.5343 17.5241V15.1453C19.5343 14.9552 19.505 14.8041 19.4479 14.6904C19.3939 14.5734 19.2689 14.5149 19.0714 14.5149H18.9355V14.3589H20.5344Z" fill="white"/>
<path d="M25.7128 13.7285V13.8715C25.4196 13.8715 25.239 13.9365 25.1696 14.0665C25.1032 14.1964 25.0708 14.3687 25.0708 14.5799V20.5333H23.9473V13.709L25.7128 13.7285Z" fill="white"/>
<path d="M34.7324 13.8389C34.8929 13.8389 35.0241 13.8974 35.1275 14.0144C35.234 14.1281 35.288 14.2678 35.288 14.4368C35.288 14.5928 35.234 14.7293 35.1275 14.8463C35.0241 14.9633 34.8929 15.0218 34.7324 15.0218C34.575 15.0218 34.4438 14.9633 34.3373 14.8463C34.2339 14.7293 34.183 14.5928 34.183 14.4368C34.183 14.2678 34.2339 14.1281 34.3373 14.0144C34.4438 13.8974 34.575 13.8389 34.7324 13.8389ZM36.1275 13.8389C36.288 13.8389 36.4207 13.8974 36.5288 14.0144C36.6399 14.1281 36.6955 14.2678 36.6955 14.4368C36.6955 14.5928 36.6399 14.7293 36.5288 14.8463C36.4207 14.9633 36.288 15.0218 36.1275 15.0218C35.9747 15.0218 35.8436 14.9633 35.7324 14.8463C35.6244 14.7293 35.5719 14.5928 35.5719 14.4368C35.5719 14.2678 35.6244 14.1281 35.7324 14.0144C35.8436 13.8974 35.9747 13.8389 36.1275 13.8389ZM31.0532 15.7887C31.4019 15.7887 31.6967 15.8179 31.9359 15.8732C32.1736 15.9252 32.3526 16.0145 32.473 16.1396C32.6042 16.2534 32.6798 16.3996 32.7014 16.5816C32.7215 16.7603 32.7323 17.0333 32.7323 17.4005H32.5347C32.5054 16.9813 32.3742 16.6953 32.1396 16.5426C31.9051 16.3866 31.6118 16.3086 31.263 16.3086C30.7646 16.3086 30.4003 16.4776 30.1704 16.8156C29.9389 17.1536 29.8247 17.6053 29.8247 18.1675C29.8247 18.4404 29.8509 18.6988 29.9049 18.9409C29.962 19.1846 30.05 19.3942 30.1704 19.5713C30.4204 19.9483 30.7815 20.1368 31.2507 20.1368H37.1152C37.2757 20.1368 37.4316 20.1108 37.5844 20.0588C37.7403 20.0068 37.8823 19.919 38.0103 19.7923C38.1292 19.6672 38.228 19.5047 38.3067 19.3048C38.3885 19.1066 38.4394 18.8596 38.461 18.5639V15.9317H40.2389V16.0877H40.0907C39.8592 16.0877 39.7172 16.1559 39.6648 16.2891C39.6107 16.4191 39.5845 16.5914 39.5845 16.8026V18.2649C39.5845 18.6127 39.5259 18.9246 39.4117 19.2009C39.2959 19.4787 39.1478 19.7127 38.9672 19.9028C38.5875 20.3236 38.1708 20.5332 37.714 20.5332H31.0532C30.6828 20.5332 30.3525 20.4715 30.0654 20.3447C29.7769 20.2196 29.5315 20.0458 29.3308 19.8248C28.9111 19.3958 28.7012 18.8434 28.7012 18.1675C28.7012 17.8425 28.7521 17.537 28.8555 17.251C28.962 16.9618 29.1209 16.7051 29.3308 16.4841C29.5315 16.2761 29.7769 16.1104 30.0654 15.9837C30.3525 15.8537 30.6828 15.7887 31.0532 15.7887Z" fill="white"/>
<path d="M42.7577 13.7285V13.8715C42.4645 13.8715 42.2839 13.9365 42.2145 14.0665C42.1481 14.1964 42.1157 14.3687 42.1157 14.5799V20.5333H40.9922V13.709L42.7577 13.7285Z" fill="white"/>
<path d="M44.9268 16.0617H44.7786C44.5564 16.0617 44.4144 16.1251 44.3527 16.2502C44.294 16.3769 44.2663 16.5427 44.2663 16.7506V20.5333C44.2663 20.9525 44.186 21.2937 44.0255 21.5537C43.8681 21.8169 43.686 22.0298 43.4761 22.1906C43.2569 22.3466 43.0393 22.4604 42.8217 22.5351C42.6072 22.6082 42.4421 22.6602 42.3217 22.6911C42.2229 22.7122 42.1705 22.7073 42.1612 22.6781C42.1411 22.6553 42.155 22.6293 42.2044 22.6001C42.4236 22.4604 42.5933 22.3044 42.7168 22.1321C42.8433 21.9583 42.9421 21.7763 43.0131 21.5862C43.0702 21.4075 43.1088 21.2303 43.1304 21.0532C43.1504 20.8745 43.1613 20.7055 43.1613 20.5463V15.8862H44.9268V16.0617Z" fill="white"/>
<path d="M47.4413 13.709V13.8715C47.1481 13.8715 46.966 13.9365 46.8919 14.0665C46.8178 14.1964 46.7808 14.3687 46.7808 14.5799V20.1369H48.0957V20.5333H45.6758V13.709H47.4413Z" fill="white"/>
<path d="M52.4529 12.5C52.6134 12.5 52.7461 12.5585 52.8541 12.6755C52.9652 12.7892 53.0208 12.929 53.0208 13.0979C53.0208 13.2539 52.9652 13.3904 52.8541 13.5074C52.7461 13.6244 52.6134 13.6829 52.4529 13.6829C52.3047 13.6829 52.1751 13.6244 52.0639 13.5074C51.9528 13.3904 51.8973 13.2539 51.8973 13.0979C51.8973 12.929 51.9528 12.7892 52.0639 12.6755C52.1751 12.5585 52.3047 12.5 52.4529 12.5ZM51.7615 13.8389C51.922 13.8389 52.0531 13.8974 52.1565 14.0144C52.263 14.1281 52.317 14.2678 52.317 14.4368C52.317 14.5928 52.263 14.7293 52.1565 14.8463C52.0531 14.9633 51.922 15.0218 51.7615 15.0218C51.604 15.0218 51.4729 14.9633 51.3664 14.8463C51.263 14.7293 51.212 14.5928 51.212 14.4368C51.212 14.2678 51.263 14.1281 51.3664 14.0144C51.4729 13.8974 51.604 13.8389 51.7615 13.8389ZM53.1566 13.8389C53.3171 13.8389 53.4498 13.8974 53.5579 14.0144C53.669 14.1281 53.7245 14.2678 53.7245 14.4368C53.7245 14.5928 53.669 14.7293 53.5579 14.8463C53.4498 14.9633 53.3171 15.0218 53.1566 15.0218C53.0038 15.0218 52.8726 14.9633 52.7615 14.8463C52.6535 14.7293 52.601 14.5928 52.601 14.4368C52.601 14.2678 52.6535 14.1281 52.7615 14.0144C52.8726 13.8974 53.0038 13.8389 53.1566 13.8389ZM56.4037 16.0422H56.2679C56.0364 16.0422 55.8944 16.1104 55.8419 16.2436C55.7879 16.3736 55.7617 16.5426 55.7617 16.7506V18.5184C55.7771 19.0514 55.9129 19.4543 56.1691 19.7273C56.4238 20.0003 56.7648 20.1368 57.1939 20.1368H57.5828V20.5332H56.5827C56.3728 20.5121 56.2077 20.4747 56.0889 20.4227C55.9561 20.3707 55.8188 20.2895 55.6753 20.1758C55.5302 20.0588 55.4191 19.932 55.3419 19.7923C55.1691 20.023 54.9545 20.205 54.6999 20.3383C54.4483 20.4682 54.1628 20.5332 53.8418 20.5332C53.5733 20.5332 53.3048 20.4715 53.0331 20.3448C52.905 20.2798 52.7831 20.1985 52.6689 20.0978C52.5532 19.9987 52.4745 19.8752 52.4343 19.7273C52.2985 19.984 52.1087 20.1741 51.8664 20.2993C51.6272 20.426 51.3787 20.4926 51.1194 20.5007C50.8509 20.5137 50.5901 20.4666 50.3354 20.3578C50.0793 20.2456 49.8725 20.0718 49.712 19.8378C49.5345 20.0295 49.3416 20.1936 49.1317 20.3318C48.9218 20.4666 48.6656 20.5332 48.3662 20.5332H47.502V20.1368H47.7674C47.9279 20.1368 48.0838 20.1092 48.2366 20.0523C48.3924 19.997 48.536 19.906 48.6687 19.7793C48.7875 19.6542 48.8863 19.4917 48.965 19.2919C49.0422 19.0887 49.0916 18.8418 49.1132 18.5509V16.2306H50.8972V16.3866H50.7614C50.5299 16.3866 50.3802 16.4549 50.3108 16.5881C50.2398 16.7181 50.2058 16.8903 50.2058 17.1016V19.2724C50.2058 19.5161 50.2876 19.7241 50.4527 19.8963C50.6163 20.0702 50.8139 20.1563 51.0454 20.1563C51.2753 20.1563 51.4651 20.0702 51.6133 19.8963C51.7615 19.7241 51.8448 19.5161 51.8664 19.2724V16.0617H53.6319V16.2176H53.4838C53.2646 16.2176 53.1273 16.2826 53.0702 16.4126C53.0162 16.5426 52.9899 16.7148 52.9899 16.9261V19.3698C53.01 19.5778 53.0964 19.7566 53.2492 19.9028C53.4051 20.0507 53.5887 20.1238 53.7986 20.1238C54.0286 20.1238 54.2261 20.0393 54.3912 19.8703C54.5548 19.7013 54.6382 19.4982 54.6382 19.2594V15.8862H56.4037V16.0422Z" fill="white"/>
<path d="M58.1817 13.8389C58.3422 13.8389 58.4733 13.8974 58.5767 14.0144C58.6832 14.1281 58.7372 14.2678 58.7372 14.4368C58.7372 14.5928 58.6832 14.7293 58.5767 14.8463C58.4733 14.9633 58.3422 15.0218 58.1817 15.0218C58.0242 15.0218 57.8931 14.9633 57.7866 14.8463C57.6832 14.7293 57.6322 14.5928 57.6322 14.4368C57.6322 14.2678 57.6832 14.1281 57.7866 14.0144C57.8931 13.8974 58.0242 13.8389 58.1817 13.8389ZM59.5768 13.8389C59.7373 13.8389 59.87 13.8974 59.9781 14.0144C60.0892 14.1281 60.1447 14.2678 60.1447 14.4368C60.1447 14.5928 60.0892 14.7293 59.9781 14.8463C59.87 14.9633 59.7373 15.0218 59.5768 15.0218C59.4286 15.0218 59.299 14.9633 59.1879 14.8463C59.0768 14.7293 59.0212 14.5928 59.0212 14.4368C59.0212 14.2678 59.0768 14.1281 59.1879 14.0144C59.299 13.8974 59.4286 13.8389 59.5768 13.8389ZM60.1015 16.0877H59.9472C59.728 16.0877 59.5891 16.1559 59.5274 16.2891C59.4688 16.4191 59.441 16.5914 59.441 16.8026V20.1368H61.4473V20.5332H56.9902V20.1368H58.3175V15.9317H60.1015V16.0877Z" fill="white"/>
<path d="M69.6896 16.0422H69.5538C69.3269 16.0422 69.185 16.1105 69.1279 16.2437C69.0738 16.3737 69.0476 16.5427 69.0476 16.7506V18.551C69.0476 19.0969 68.8686 19.5584 68.5105 19.9353C68.1479 20.3351 67.6895 20.5333 67.1339 20.5333C66.8623 20.5333 66.5922 20.4715 66.3252 20.3448C66.1925 20.2798 66.069 20.1986 65.9548 20.0978C65.8391 19.9987 65.7635 19.8752 65.7264 19.7274C65.586 19.9841 65.3946 20.1742 65.1523 20.2993C64.9131 20.426 64.6646 20.4927 64.4054 20.5008C64.1368 20.5138 63.876 20.4667 63.6214 20.3578C63.3652 20.2457 63.1599 20.0718 63.0041 19.8379C62.8219 20.0296 62.6275 20.1937 62.4176 20.3318C62.2077 20.4667 61.9515 20.5333 61.6521 20.5333H60.8496V20.1368H61.0533C61.2138 20.1368 61.3697 20.1092 61.5225 20.0523C61.6784 19.9971 61.8219 19.9061 61.9546 19.7794C62.0734 19.6542 62.1722 19.4918 62.2509 19.2919C62.3327 19.0888 62.3836 18.8418 62.4053 18.551V16.1982H64.1708V16.3607H64.035C63.8035 16.3607 63.6553 16.4257 63.5905 16.5557C63.5288 16.6857 63.4979 16.8579 63.4979 17.0691V19.2724C63.4979 19.5161 63.5797 19.7241 63.7448 19.8963C63.9084 20.0702 64.1044 20.1563 64.3313 20.1563C64.5612 20.1563 64.7511 20.0702 64.8992 19.8963C65.0505 19.7241 65.1369 19.5161 65.1585 19.2724V16.0422H66.9364V16.1982H66.7882C66.5691 16.1982 66.4302 16.2356 66.3684 16.3087C66.3067 16.3834 66.2758 16.5264 66.2758 16.7376V19.3699C66.2959 19.5779 66.3823 19.7566 66.5351 19.9028C66.691 20.0507 66.8746 20.1238 67.0845 20.1238C67.3145 20.1238 67.512 20.0393 67.6772 19.8704C67.8407 19.7014 67.9241 19.4983 67.9241 19.2594V15.8862H69.6896V16.0422Z" fill="white"/>
<path d="M74.5518 13.8715H74.4036C74.2138 13.8715 74.0857 13.9218 74.0209 14.021C73.9592 14.1217 73.9175 14.2533 73.8974 14.4174V18.5315C73.9175 19.0693 74.0533 19.4723 74.3049 19.7404C74.5595 20.0053 74.9006 20.1369 75.3296 20.1369H75.558V20.5333H74.7185C74.5209 20.5252 74.3558 20.4943 74.2246 20.4423C74.0965 20.3871 73.953 20.2912 73.7925 20.1564C73.6521 20.0621 73.5471 19.9451 73.4777 19.8054C73.2755 20.0833 73.0239 20.2734 72.7245 20.3773C72.4282 20.4813 72.1196 20.5333 71.7986 20.5333C71.4313 20.5333 71.1133 20.4683 70.8417 20.3384C70.5732 20.2051 70.3602 20.0556 70.1997 19.8899V19.4609C70.3602 19.6397 70.5454 19.7973 70.7553 19.9354C70.9652 20.0703 71.1936 20.1369 71.4405 20.1369C71.601 20.1369 71.7569 20.1109 71.9097 20.0589C72.0655 20.0069 72.2029 19.9191 72.3233 19.7924C72.4421 19.6673 72.5409 19.5048 72.6196 19.305C72.7014 19.1067 72.7523 18.8597 72.7739 18.564V13.709H74.5518V13.8715ZM71.3664 14.3589V17.5241C71.3664 17.6639 71.3726 17.815 71.385 17.9791C71.4004 18.1399 71.4405 18.2975 71.5022 18.4535C71.5593 18.6225 71.6442 18.7882 71.7553 18.9475C71.8665 19.1035 72.0208 19.2383 72.2183 19.3504C72.2677 19.3732 72.2832 19.3943 72.2677 19.4154C72.2554 19.4463 72.2029 19.4512 72.1134 19.4284C72.0054 19.3992 71.8618 19.3504 71.6813 19.2855C71.4992 19.2172 71.3201 19.1132 71.1442 18.9735C70.9621 18.8272 70.8 18.6404 70.6565 18.4145C70.5114 18.1903 70.4158 17.893 70.3664 17.5241V15.1453C70.3664 14.9552 70.3371 14.8041 70.28 14.6904C70.2259 14.5734 70.1009 14.5149 69.9034 14.5149H69.7676V14.3589H71.3664Z" fill="white"/>
<path d="M78.3377 13.709V13.8845C78.0491 13.8845 77.8685 13.9478 77.7944 14.0729C77.7204 14.1997 77.6833 14.3687 77.6833 14.5799V18.343C77.6833 19.006 77.5012 19.5373 77.1401 19.9354C76.9703 20.1271 76.7728 20.2734 76.5474 20.3773C76.3252 20.4813 76.0798 20.5333 75.8128 20.5333H74.9609V20.1369H75.214C75.3745 20.1369 75.532 20.1092 75.6894 20.0524C75.8499 19.9971 75.9888 19.9061 76.1092 19.7794C76.228 19.6543 76.3268 19.4918 76.4055 19.292C76.4873 19.0888 76.5382 18.8419 76.5598 18.551V13.709H78.3377Z" fill="white"/>
<path d="M83.6684 13.8389C83.8289 13.8389 83.9601 13.8974 84.0635 14.0144C84.1654 14.1281 84.2178 14.2678 84.2178 14.4368C84.2178 14.5928 84.1654 14.7293 84.0635 14.8463C83.9601 14.9633 83.8289 15.0218 83.6684 15.0218C83.5079 15.0218 83.3737 14.9633 83.2672 14.8463C83.1638 14.7293 83.1128 14.5928 83.1128 14.4368C83.1128 14.2678 83.1638 14.1281 83.2672 14.0144C83.3737 13.8974 83.5079 13.8389 83.6684 13.8389ZM85.0574 13.8389C85.2179 13.8389 85.3506 13.8974 85.4587 14.0144C85.5698 14.1281 85.6253 14.2678 85.6253 14.4368C85.6253 14.5928 85.5698 14.7293 85.4587 14.8463C85.3506 14.9633 85.2179 15.0218 85.0574 15.0218C84.9092 15.0218 84.7796 14.9633 84.6685 14.8463C84.5605 14.7293 84.508 14.5928 84.508 14.4368C84.508 14.2678 84.5605 14.1281 84.6685 14.0144C84.7796 13.8974 84.9092 13.8389 85.0574 13.8389ZM87.3477 16.0617H87.2118C86.985 16.0617 86.843 16.1266 86.7859 16.2566C86.7319 16.3866 86.7056 16.5589 86.7056 16.7701V20.5332H84.3722C84.079 20.5332 83.7826 20.4731 83.4832 20.3512C83.1869 20.231 82.9184 20.0701 82.6807 19.8703C82.4415 19.6623 82.244 19.4202 82.0881 19.1424C81.9307 18.8613 81.8535 18.5477 81.8535 18.2C81.8535 17.498 82.139 16.9374 82.7116 16.5166C82.9786 16.3184 83.3058 16.164 83.6931 16.0552C84.0836 15.943 84.5203 15.8862 85.0018 15.8862H87.3477V16.0617ZM85.5821 20.1368V16.4711C85.2812 16.3769 84.9772 16.3395 84.6685 16.3606C84.3598 16.3785 84.0759 16.4614 83.8166 16.6076C83.5573 16.7555 83.3443 16.9634 83.1808 17.2315C83.0156 17.5013 82.9338 17.8295 82.9338 18.2194C82.9338 18.7524 83.0604 19.2057 83.3166 19.5778C83.5712 19.9515 83.9169 20.1368 84.3537 20.1368H85.5821Z" fill="white"/>
<path d="M89.8755 15.7886C90.2459 15.7886 90.5746 15.8536 90.8632 15.9836C91.1503 16.1103 91.3957 16.276 91.5979 16.484C92.0176 16.9487 92.2275 17.5093 92.2275 18.1673V18.5313C92.2769 19.6021 92.7538 20.1367 93.6597 20.1367H93.8881V20.5331H93.0486C92.851 20.525 92.6859 20.4941 92.5547 20.4421C92.4266 20.3869 92.2831 20.291 92.1226 20.1562C91.9621 20.031 91.8324 19.8734 91.7337 19.6817C91.5315 19.9466 91.2738 20.1545 90.962 20.3056C90.6487 20.4584 90.2861 20.5331 89.8755 20.5331H88.0977V20.1367H89.6842C90.1533 20.1367 90.5114 19.9482 90.7583 19.5712C90.8771 19.3941 90.9636 19.1845 91.0176 18.9408C91.0747 18.6987 91.104 18.4403 91.104 18.1673C91.104 17.6052 90.9867 17.1534 90.7521 16.8155C90.5175 16.4775 90.1549 16.3085 89.6656 16.3085C89.3153 16.3085 89.0236 16.3865 88.7891 16.5425C88.5545 16.6952 88.4217 16.9812 88.394 17.4004H88.2026C88.2026 17.0332 88.2103 16.7602 88.2273 16.5815C88.2474 16.3995 88.323 16.2533 88.4557 16.1395C88.5745 16.0144 88.7536 15.9251 88.9928 15.8731C89.2304 15.8178 89.5252 15.7886 89.8755 15.7886Z" fill="white"/>
<path d="M94.6183 16.8287L95.8591 15.5093C96.5582 16.2421 97.14 16.853 97.6061 17.3421C98.0706 17.8328 98.4518 18.2293 98.7481 18.5315C98.887 18.6923 99.0151 18.8337 99.1309 18.9539C99.2451 19.0709 99.3423 19.1733 99.421 19.2594L99.7976 19.6494C99.8871 19.7452 99.955 19.8249 100.001 19.8899C100.046 19.9516 100.103 20.0328 100.174 20.1368H101.47V20.5333H100.365C100.464 20.7965 100.517 21.0484 100.526 21.2872C100.538 21.5293 100.52 21.7503 100.47 21.9502C100.429 22.1484 100.369 22.3271 100.291 22.4831C100.213 22.6423 100.146 22.7707 100.094 22.8666C100.044 22.9478 100.004 22.9852 99.9766 22.9771C99.9473 22.9771 99.9426 22.9511 99.9642 22.8991C100.021 22.6423 100.038 22.4051 100.014 22.1841C99.9889 21.9664 99.9365 21.7682 99.8593 21.5862C99.776 21.4075 99.6803 21.2482 99.5692 21.1052C99.4611 20.9655 99.3593 20.8388 99.2605 20.7218L99.0815 20.5333H93.291V20.1368H98.7173L95.6553 16.9391C95.5149 16.7929 95.3791 16.697 95.2479 16.6532C95.1198 16.606 94.9794 16.6645 94.8281 16.8287L94.7232 16.9391L94.6183 16.8287Z" fill="white"/>
<path d="M102.07 13.8389C102.231 13.8389 102.362 13.8974 102.465 14.0144C102.572 14.1281 102.626 14.2678 102.626 14.4368C102.626 14.5928 102.572 14.7293 102.465 14.8463C102.362 14.9633 102.231 15.0218 102.07 15.0218C101.913 15.0218 101.782 14.9633 101.675 14.8463C101.572 14.7293 101.521 14.5928 101.521 14.4368C101.521 14.2678 101.572 14.1281 101.675 14.0144C101.782 13.8974 101.913 13.8389 102.07 13.8389ZM103.465 13.8389C103.626 13.8389 103.759 13.8974 103.867 14.0144C103.978 14.1281 104.033 14.2678 104.033 14.4368C104.033 14.5928 103.978 14.7293 103.867 14.8463C103.759 14.9633 103.626 15.0218 103.465 15.0218C103.317 15.0218 103.188 14.9633 103.077 14.8463C102.965 14.7293 102.91 14.5928 102.91 14.4368C102.91 14.2678 102.965 14.1281 103.077 14.0144C103.188 13.8974 103.317 13.8389 103.465 13.8389ZM103.99 16.0877H103.836C103.617 16.0877 103.478 16.1559 103.416 16.2891C103.357 16.4191 103.33 16.5914 103.33 16.8026V20.1368H105.336V20.5332H100.879V20.1368H102.206V15.9317H103.99V16.0877Z" fill="white"/>
<path d="M109.016 15.8994C109.402 15.8994 109.76 15.9693 110.09 16.1074C110.419 16.2423 110.689 16.4194 110.899 16.6403C111.129 16.8841 111.297 17.1587 111.405 17.4658C111.516 17.7696 111.581 18.0881 111.603 18.4212V18.6292C111.615 18.933 111.649 19.1816 111.708 19.3766C111.77 19.5716 111.85 19.7259 111.949 19.838C112.047 19.955 112.16 20.0363 112.288 20.0785C112.419 20.1175 112.566 20.137 112.726 20.137H113.294V20.5335H112.319C112.171 20.5123 112.03 20.4815 111.899 20.4425C111.771 20.4002 111.662 20.3304 111.572 20.2345C111.523 20.1825 111.476 20.1305 111.436 20.0785C111.399 20.0265 111.359 19.968 111.319 19.903C111.191 20.1549 111.024 20.3824 110.819 20.5855C110.612 20.7934 110.345 20.9527 110.016 21.0664C109.678 21.1964 109.296 21.2614 108.868 21.2614C108.476 21.2614 108.121 21.1915 107.8 21.0534C107.482 20.9137 107.22 20.7366 107.01 20.5205C106.919 20.4262 106.839 20.3287 106.769 20.228C106.698 20.1289 106.64 20.0249 106.59 19.916C106.462 20.1809 106.272 20.3547 106.022 20.436C105.882 20.4929 105.741 20.5253 105.603 20.5335H104.738V20.137H105.201C105.349 20.137 105.485 20.1208 105.609 20.085C105.735 20.046 105.849 19.9745 105.948 19.8705C106.146 19.6626 106.265 19.297 106.306 18.7721V18.5772C106.306 17.7582 106.555 17.1083 107.053 16.6273C107.513 16.1431 108.167 15.8994 109.016 15.8994ZM108.973 16.3284C108.492 16.3284 108.117 16.5169 107.85 16.8938C107.717 17.0937 107.617 17.3098 107.547 17.5438C107.476 17.7745 107.442 18.067 107.442 18.4212C107.442 18.8209 107.482 19.1491 107.566 19.4091C107.652 19.6658 107.765 19.9079 107.905 20.137C108.197 20.579 108.567 20.7999 109.016 20.7999C109.485 20.7999 109.853 20.6066 110.121 20.2215C110.26 20.0314 110.356 19.8234 110.405 19.5976C110.455 19.3733 110.479 19.0874 110.479 18.7396C110.479 18.3416 110.445 18.0085 110.381 17.7387C110.319 17.4706 110.217 17.2253 110.078 17.0043C109.797 16.5542 109.43 16.3284 108.973 16.3284Z" fill="white"/>
<path d="M116.076 13.709V13.8845C115.787 13.8845 115.607 13.9478 115.533 14.0729C115.459 14.1997 115.422 14.3687 115.422 14.5799V18.343C115.422 19.006 115.239 19.5373 114.878 19.9354C114.709 20.1271 114.511 20.2734 114.286 20.3773C114.063 20.4813 113.818 20.5333 113.551 20.5333H112.699V20.1369H112.952C113.113 20.1369 113.27 20.1092 113.428 20.0524C113.588 19.9971 113.727 19.9061 113.847 19.7794C113.966 19.6543 114.065 19.4918 114.144 19.292C114.226 19.0888 114.276 18.8419 114.298 18.551V13.709H116.076Z" fill="white"/>
<path d="M118.519 13.7285V13.8715C118.226 13.8715 118.046 13.9365 117.976 14.0665C117.91 14.1964 117.877 14.3687 117.877 14.5799V20.5333H116.754V13.709L118.519 13.7285Z" fill="white"/>
<path d="M122.475 13.8389C122.631 13.8389 122.765 13.8974 122.876 14.0144C122.987 14.1281 123.043 14.2613 123.043 14.4173C123.043 14.5863 122.987 14.7293 122.876 14.8463C122.765 14.9633 122.631 15.0218 122.475 15.0218C122.322 15.0218 122.191 14.9633 122.08 14.8463C121.972 14.7293 121.919 14.5863 121.919 14.4173C121.919 14.2613 121.972 14.1281 122.08 14.0144C122.191 13.8974 122.322 13.8389 122.475 13.8389ZM123.685 16.0617H123.536C123.314 16.0617 123.172 16.125 123.11 16.2501C123.052 16.3769 123.024 16.5426 123.024 16.7506V20.5332C123.024 20.9524 122.944 21.2937 122.783 21.5536C122.626 21.8169 122.444 22.0297 122.234 22.1906C122.015 22.3466 121.797 22.4603 121.58 22.535C121.365 22.6082 121.2 22.6602 121.08 22.691C120.981 22.7121 120.928 22.7073 120.919 22.678C120.899 22.6553 120.913 22.6293 120.962 22.6C121.181 22.4603 121.351 22.3043 121.475 22.1321C121.601 21.9582 121.7 21.7762 121.771 21.5861C121.828 21.4074 121.867 21.2303 121.888 21.0532C121.908 20.8744 121.919 20.7055 121.919 20.5462V15.8862H123.685V16.0617Z" fill="white"/>
<path d="M126.199 13.709V13.8715C125.906 13.8715 125.724 13.9365 125.65 14.0665C125.576 14.1964 125.539 14.3687 125.539 14.5799V20.1369H126.853V20.5333H124.434V13.709H126.199Z" fill="white"/>
<path d="M127.589 16.8287L128.83 15.5093C129.529 16.2421 130.111 16.853 130.577 17.3421C131.041 17.8328 131.423 18.2293 131.719 18.5315C131.858 18.6923 131.986 18.8337 132.102 18.9539C132.216 19.0709 132.313 19.1733 132.392 19.2594L132.768 19.6494C132.858 19.7452 132.926 19.8249 132.972 19.8899C133.017 19.9516 133.074 20.0328 133.145 20.1368H134.441V20.5333H133.336C133.435 20.7965 133.487 21.0484 133.497 21.2872C133.509 21.5293 133.491 21.7503 133.441 21.9502C133.399 22.1484 133.339 22.3271 133.262 22.4831C133.183 22.6423 133.117 22.7707 133.065 22.8666C133.015 22.9478 132.975 22.9852 132.947 22.9771C132.918 22.9771 132.913 22.9511 132.935 22.8991C132.992 22.6423 133.009 22.4051 132.984 22.1841C132.96 21.9664 132.907 21.7682 132.83 21.5862C132.747 21.4075 132.651 21.2482 132.54 21.1052C132.432 20.9655 132.33 20.8388 132.231 20.7218L132.052 20.5333H126.262V20.1368H131.688L128.626 16.9391C128.486 16.7929 128.35 16.697 128.219 16.6532C128.091 16.606 127.95 16.6645 127.799 16.8287L127.694 16.9391L127.589 16.8287ZM129.404 21.4497C129.56 21.4497 129.694 21.505 129.805 21.6187C129.916 21.7357 129.972 21.8722 129.972 22.0282C129.972 22.1971 129.916 22.3369 129.805 22.4506C129.694 22.5676 129.56 22.6261 129.404 22.6261C129.251 22.6261 129.12 22.5676 129.009 22.4506C128.901 22.3369 128.848 22.1971 128.848 22.0282C128.848 21.8722 128.901 21.7357 129.009 21.6187C129.12 21.505 129.251 21.4497 129.404 21.4497Z" fill="white"/>
<path d="M135.984 13.8389C136.144 13.8389 136.277 13.8974 136.385 14.0144C136.496 14.1281 136.552 14.2678 136.552 14.4368C136.552 14.5928 136.496 14.7293 136.385 14.8463C136.277 14.9633 136.144 15.0218 135.984 15.0218C135.835 15.0218 135.706 14.9633 135.595 14.8463C135.484 14.7293 135.428 14.5928 135.428 14.4368C135.428 14.2678 135.484 14.1281 135.595 14.0144C135.706 13.8974 135.835 13.8389 135.984 13.8389ZM137.212 16.0877H137.064C136.832 16.0877 136.689 16.1559 136.632 16.2891C136.578 16.4191 136.552 16.5914 136.552 16.8026V18.2649C136.552 18.6127 136.493 18.9246 136.379 19.2009C136.268 19.4787 136.121 19.7127 135.94 19.9028C135.561 20.3236 135.141 20.5332 134.681 20.5332H133.848V20.1368H134.082C134.243 20.1368 134.399 20.1108 134.551 20.0588C134.707 20.0068 134.851 19.919 134.984 19.7923C135.102 19.6672 135.201 19.5047 135.28 19.3048C135.362 19.1066 135.411 18.8596 135.428 18.5639V15.9317H137.212V16.0877Z" fill="white"/>
<path d="M139.633 13.7285V13.8715C139.344 13.8715 139.164 13.9365 139.09 14.0665C139.016 14.1964 138.979 14.3687 138.979 14.5799V20.5333H137.867V13.709L139.633 13.7285ZM138.559 21.4497C138.875 21.4497 139.09 21.4904 139.201 21.5732C139.263 21.6252 139.296 21.6805 139.306 21.7422C139.313 21.8072 139.318 21.9015 139.318 22.0282H139.232C139.21 21.8803 139.147 21.778 139.04 21.7227C138.937 21.6659 138.806 21.6382 138.645 21.6382C138.418 21.6382 138.252 21.7 138.145 21.8267C138.042 21.9518 137.991 22.1143 137.991 22.3142C137.991 22.5221 138.042 22.6928 138.145 22.8276C138.252 22.9657 138.418 23.0356 138.645 23.0356H139.367V23.2566H137.287V23.0551H137.941C137.633 22.8942 137.478 22.6473 137.478 22.3142C137.478 22.0704 137.573 21.8657 137.762 21.6967C137.951 21.531 138.216 21.4497 138.559 21.4497Z" fill="white"/>
<g clip-path="url(#clip0_619_3793)">
<path d="M178.298 13.7522L177.93 14.5113H184.151L180.995 8.74789L180.666 9.5228C180.666 9.5228 175.594 7.15966 171.051 6.89746L170.404 7.45192L171.051 11.5361C171.051 11.5361 176.519 12.5272 178.297 13.7522H178.298Z" fill="white"/>
<path d="M162.937 12.9212C162.937 12.9212 160.877 13.8397 160.092 15.1532H153.939C153.939 15.1532 156.555 9.28881 162.937 7.74316C162.937 7.74316 162.701 11.2879 162.937 12.922V12.9212Z" fill="white"/>
<path d="M181.472 22.068C180.593 21.3783 179.686 20.8572 178.867 20.469C177.287 19.7191 176.048 19.4719 176.048 19.4719V18.3613L170.403 20.1708L174.711 24.3861L175.109 23.1753C182.388 24.8437 182.66 31.5832 179.55 35.6732L179.174 36.1342C178.781 36.5859 178.345 36.9968 177.872 37.3541C174.145 40.1741 169.312 39.5528 167.463 39.1728C166.977 39.0726 166.698 38.9875 166.698 38.9875L163.758 39.9787L161.394 40.7945L161.053 40.9139C169.404 46.3399 183.811 43.0716 185.341 32.5711C186.115 27.2461 183.922 23.9961 181.472 22.068Z" fill="white"/>
<path d="M179.551 35.6734C179.43 35.8304 179.304 35.9874 179.175 36.1343C177.284 35.3627 174.854 35.6358 171.582 37.2599C170.384 37.8528 168.977 38.5517 167.463 39.173C165.541 39.9629 163.446 40.6285 161.395 40.7946C159.35 40.9675 157.352 40.641 155.614 39.4494C155.614 39.4494 152.791 37.3919 153.938 34.6354C153.938 34.6354 148.338 33.7169 151.998 28.027C151.998 28.027 149.184 27.2646 149.529 24.0881C149.795 21.6357 151.733 21.0244 151.733 21.0244C151.733 21.0244 148.227 17.0956 152.589 15.069C155.673 13.636 162.938 14.7675 162.938 14.7675C162.938 14.7675 160.264 2.30715 167.534 0.654623C168.033 0.538553 168.549 0.500977 169.061 0.500977H171.229C171.229 0.500977 170.556 11.7606 172.949 15.1533C175.026 18.0951 180.592 17.129 181.474 22.069C180.595 21.3793 179.688 20.8582 178.869 20.4699C178.869 19.6533 177.861 18.7982 176.764 18.2905C174.779 17.372 171.126 16.6505 170.405 11.0491C169.687 5.44771 169.949 2.07585 169.949 2.07585C169.949 2.07585 166.766 1.00367 164.873 2.97601C161.314 6.68272 163.735 15.5992 163.735 15.5992C163.735 15.5992 155.607 14.512 153.427 16.6689C152.592 17.4956 151.977 18.9176 153.323 21.3325C153.323 21.3325 151.382 22.7755 151.777 25.1837C152.175 27.5894 153.718 28.0721 153.718 28.0721C153.718 28.0721 151.954 29.91 152.485 32.1395C153.013 34.3724 155.219 34.1094 155.219 34.1094C155.219 34.1094 153.788 38.6194 158.747 39.4911C165.717 40.7178 171.252 36.9092 172.94 36.1519C175.035 35.2108 177.417 34.8609 179.552 35.675L179.551 35.6734Z" fill="white"/>
</g>
<defs>
<clipPath id="clip0_619_3793">
<rect width="36" height="43" fill="white" transform="translate(149.5 0.5)"/>
</clipPath>
</defs>
</svg>
