<svg width="120" height="44" viewBox="0 0 120 44" fill="none" xmlns="http://www.w3.org/2000/svg">
<path d="M4.76245 29.1953C4.64104 29.1953 4.54087 29.1592 4.46296 29.0859C4.38404 29.0106 4.3456 28.9129 4.3456 28.7927C4.3456 28.6706 4.38404 28.5729 4.46296 28.4996C4.54087 28.4273 4.64104 28.3901 4.76245 28.3901C4.88893 28.3901 4.9901 28.4273 5.06599 28.4996C5.14086 28.5729 5.17931 28.6706 5.17931 28.7927C5.17931 28.9129 5.14086 29.0106 5.06599 29.0859C4.9901 29.1592 4.88893 29.1953 4.76245 29.1953ZM5.77424 29.1953C5.65283 29.1953 5.55266 29.1592 5.47475 29.0859C5.39583 29.0106 5.35738 28.9129 5.35738 28.7927C5.35738 28.6706 5.39583 28.5729 5.47475 28.4996C5.55266 28.4273 5.65283 28.3901 5.77424 28.3901C5.90071 28.3901 6.00189 28.4273 6.07778 28.4996C6.15265 28.5729 6.1911 28.6706 6.1911 28.7927C6.1911 28.9129 6.15265 29.0106 6.07778 29.0859C6.00189 29.1592 5.90071 29.1953 5.77424 29.1953ZM7.29192 32.2988H7.35263V32.6427H7.29192C7.07337 32.6427 6.87911 32.6105 6.70913 32.545C6.53915 32.4805 6.40256 32.3877 6.30037 32.2675C6.18098 32.3877 6.03933 32.4805 5.87542 32.545C5.7105 32.6105 5.52838 32.6427 5.32905 32.6427C5.03159 32.6427 4.77156 32.5841 4.54795 32.4668C4.32637 32.3476 4.15336 32.1796 4.02992 31.9626C3.90547 31.7467 3.84375 31.4936 3.84375 31.2044C3.84375 30.918 3.90243 30.6679 4.02182 30.4539C4.1402 30.2409 4.30614 30.0738 4.51962 29.9536C4.7321 29.8314 4.98201 29.7699 5.26835 29.7699C5.55367 29.7699 5.80358 29.8314 6.01707 29.9536C6.23258 30.0738 6.39952 30.2409 6.51891 30.4539C6.63729 30.6679 6.69699 30.918 6.69699 31.2044V31.7242C6.69699 31.8962 6.75061 32.0359 6.85888 32.1424C6.96916 32.247 7.11385 32.2988 7.29192 32.2988ZM5.32905 32.2988C5.56379 32.2988 5.75097 32.1991 5.89161 31.9978C6.03123 31.7946 6.10206 31.5307 6.10206 31.2044C6.10206 30.876 6.02516 30.6132 5.87137 30.4148C5.7196 30.2145 5.51927 30.1138 5.26835 30.1138C5.01945 30.1138 4.81911 30.2145 4.66532 30.4148C4.51355 30.6132 4.43868 30.876 4.43868 31.2044C4.43868 31.5307 4.52064 31.7946 4.68556 31.9978C4.84947 32.1991 5.06397 32.2988 5.32905 32.2988Z" fill="white"/>
<path d="M9.13524 32.2989H9.19595V32.6429H9.13524C8.94907 32.6429 8.77909 32.6184 8.6253 32.5686C8.47353 32.5197 8.34706 32.4513 8.24487 32.3654C8.13964 32.4513 8.01014 32.5197 7.85634 32.5686C7.70458 32.6184 7.53662 32.6429 7.35045 32.6429H7.28974C7.25231 32.6429 7.23308 32.6233 7.23308 32.5842V32.3536C7.23308 32.3175 7.25231 32.2989 7.28974 32.2989H7.35045C7.52852 32.2989 7.67119 32.2471 7.77945 32.1426C7.88973 32.036 7.94538 31.8963 7.94538 31.7243V29.77H8.54031V31.7243C8.54031 31.8963 8.59394 32.036 8.7022 32.1426C8.81248 32.2471 8.95717 32.2989 9.13524 32.2989ZM7.35045 33.2174C7.47692 33.2174 7.5781 33.2536 7.65399 33.3269C7.72886 33.3992 7.76731 33.4969 7.76731 33.62C7.76731 33.7373 7.72886 33.833 7.65399 33.9093C7.5781 33.9845 7.47692 34.0226 7.35045 34.0226C7.22701 34.0226 7.12685 33.9845 7.05096 33.9093C6.97305 33.833 6.93359 33.7373 6.93359 33.62C6.93359 33.4969 6.97305 33.3992 7.05096 33.3269C7.12685 33.2536 7.22701 33.2174 7.35045 33.2174ZM7.35045 34.1946C7.47692 34.1946 7.5781 34.2307 7.65399 34.304C7.72886 34.3763 7.76731 34.4741 7.76731 34.5972C7.76731 34.7144 7.72886 34.8102 7.65399 34.8864C7.5781 34.9617 7.47692 34.9998 7.35045 34.9998C7.22701 34.9998 7.12685 34.9617 7.05096 34.8864C6.97305 34.8102 6.93359 34.7144 6.93359 34.5972C6.93359 34.4741 6.97305 34.3763 7.05096 34.304C7.12685 34.2307 7.22701 34.1946 7.35045 34.1946Z" fill="white"/>
<path d="M9.79042 28.6211H10.3854V31.7245C10.3854 32.0011 10.2761 32.2239 10.0575 32.3929C9.83899 32.56 9.55164 32.6431 9.19549 32.6431H9.13479C9.09735 32.6431 9.07812 32.6235 9.07812 32.5844V32.3538C9.07812 32.3177 9.09735 32.2991 9.13479 32.2991H9.19549C9.37357 32.2991 9.51623 32.2473 9.62449 32.1428C9.73477 32.0363 9.79042 31.8965 9.79042 31.7245V28.6211Z" fill="white"/>
<path d="M11.1602 31.7245V28.6211H11.7551V31.7245C11.7551 31.8965 11.8087 32.0363 11.917 32.1428C12.0242 32.2473 12.1689 32.2991 12.35 32.2991H12.4674V32.6431H12.35C11.9908 32.6431 11.7025 32.56 11.4839 32.3929C11.2674 32.2239 11.1602 32.0011 11.1602 31.7245Z" fill="white"/>
<path d="M16.5141 32.2989H16.5708V32.6429H16.5141C16.2956 32.6429 16.0993 32.6106 15.9273 32.5451C15.7573 32.4807 15.6207 32.3878 15.5185 32.2676C15.3991 32.3878 15.2575 32.4807 15.0936 32.5451C14.9287 32.6106 14.7475 32.6429 14.5513 32.6429C14.3266 32.6429 14.1233 32.6096 13.9401 32.5412C13.759 32.4709 13.6022 32.3751 13.4707 32.252C13.3735 32.3751 13.238 32.4709 13.066 32.5412C12.8929 32.6096 12.6936 32.6429 12.467 32.6429H12.4063C12.3688 32.6429 12.3496 32.6233 12.3496 32.5842V32.3536C12.3496 32.3175 12.3688 32.2989 12.4063 32.2989H12.467C12.6451 32.2989 12.7877 32.2471 12.896 32.1426C13.0063 32.036 13.0619 31.8963 13.0619 31.7243V31.2045C13.0619 30.9182 13.1206 30.668 13.24 30.454C13.3584 30.241 13.5243 30.0739 13.7378 29.9537C13.9533 29.8316 14.2042 29.77 14.4906 29.77C14.7759 29.77 15.0258 29.8316 15.2393 29.9537C15.4517 30.0739 15.6177 30.241 15.7371 30.454C15.8585 30.668 15.9192 30.9182 15.9192 31.2045V31.7243C15.9192 31.8963 15.9728 32.036 16.0811 32.1426C16.1883 32.2471 16.333 32.2989 16.5141 32.2989ZM14.5513 32.2989C14.783 32.2989 14.9691 32.1992 15.1098 31.9979C15.2524 31.7947 15.3243 31.5309 15.3243 31.2045C15.3243 30.8762 15.2474 30.6133 15.0936 30.4149C14.9398 30.2146 14.7384 30.114 14.4906 30.114C14.2396 30.114 14.0373 30.2146 13.8835 30.4149C13.7317 30.6133 13.6568 30.8762 13.6568 31.2045C13.6568 31.5309 13.7388 31.7947 13.9037 31.9979C14.0676 32.1992 14.2841 32.2989 14.5513 32.2989Z" fill="white"/>
<path d="M17.1654 28.6211H17.7604V31.7245C17.7604 32.0011 17.6511 32.2239 17.4325 32.3929C17.214 32.56 16.9266 32.6431 16.5705 32.6431H16.5098C16.4723 32.6431 16.4531 32.6235 16.4531 32.5844V32.3538C16.4531 32.3177 16.4723 32.2991 16.5098 32.2991H16.5705C16.7486 32.2991 16.8912 32.2473 16.9995 32.1428C17.1098 32.0363 17.1654 31.8965 17.1654 31.7245V28.6211Z" fill="white"/>
<path d="M18.5352 28.6211H19.1301V32.6431H18.5352V28.6211Z" fill="white"/>
<path d="M23.1139 29.1953C22.9895 29.1953 22.8883 29.1592 22.8104 29.0859C22.7345 29.0106 22.6971 28.9129 22.6971 28.7927C22.6971 28.6706 22.7345 28.5729 22.8104 28.4996C22.8883 28.4273 22.9895 28.3901 23.1139 28.3901C23.2404 28.3901 23.3416 28.4273 23.4175 28.4996C23.4923 28.5729 23.5308 28.6706 23.5308 28.7927C23.5308 28.9129 23.4923 29.0106 23.4175 29.0859C23.3416 29.1592 23.2404 29.1953 23.1139 29.1953ZM24.1257 29.1953C24.0013 29.1953 23.9001 29.1592 23.8222 29.0859C23.7463 29.0106 23.7089 28.9129 23.7089 28.7927C23.7089 28.6706 23.7463 28.5729 23.8222 28.4996C23.9001 28.4273 24.0013 28.3901 24.1257 28.3901C24.2522 28.3901 24.3534 28.4273 24.4293 28.4996C24.5041 28.5729 24.5426 28.6706 24.5426 28.7927C24.5426 28.9129 24.5041 29.0106 24.4293 29.0859C24.3534 29.1592 24.2522 29.1953 24.1257 29.1953ZM24.7207 29.7699H25.3156V31.5522C25.3156 31.7691 25.2569 31.9587 25.1416 32.1229C25.0252 32.2851 24.8643 32.4121 24.6599 32.5059C24.4576 32.5978 24.2198 32.6427 23.9477 32.6427H22.519C22.173 32.6427 21.8715 32.5841 21.6124 32.4668C21.3555 32.3476 21.1551 32.1796 21.0094 31.9626C20.8657 31.7467 20.7949 31.4936 20.7949 31.2044C20.7949 30.918 20.8657 30.6679 21.0094 30.4539C21.1551 30.2409 21.3555 30.0738 21.6124 29.9536C21.8715 29.8314 22.173 29.7699 22.519 29.7699V30.1138C22.1811 30.1138 21.9089 30.2145 21.7015 30.4148C21.4931 30.6132 21.3899 30.876 21.3899 31.2044C21.3899 31.5307 21.4931 31.7946 21.7015 31.9978C21.9089 32.1991 22.1811 32.2988 22.519 32.2988H23.9477C24.1793 32.2988 24.3655 32.2304 24.5062 32.0916C24.6488 31.9538 24.7207 31.774 24.7207 31.5522V29.7699Z" fill="white"/>
<path d="M26.0898 28.6211H26.6848V32.6431H26.0898V28.6211Z" fill="white"/>
<path d="M27.7531 29.77H28.3481V32.9321C28.3481 33.1608 28.2975 33.3621 28.1983 33.534C28.1012 33.706 27.9616 33.8399 27.7815 33.9366C27.6034 34.0324 27.395 34.0812 27.1582 34.0812V33.7334C27.3363 33.7334 27.4789 33.6796 27.5872 33.5731C27.6975 33.4686 27.7531 33.3308 27.7531 33.1588V29.77Z" fill="white"/>
<path d="M29.123 31.7245V28.6211H29.718V31.7245C29.718 31.8965 29.7716 32.0363 29.8799 32.1428C29.9871 32.2473 30.1318 32.2991 30.3129 32.2991H30.4303V32.6431H30.3129C29.9537 32.6431 29.6654 32.56 29.4468 32.3929C29.2303 32.2239 29.123 32.0011 29.123 31.7245Z" fill="white"/>
<path d="M32.8703 28.3315C32.7458 28.3315 32.6447 28.2954 32.5668 28.2221C32.4909 28.1469 32.4534 28.0501 32.4534 27.9329C32.4534 27.8107 32.4909 27.713 32.5668 27.6397C32.6447 27.5674 32.7458 27.5303 32.8703 27.5303C32.9968 27.5303 33.0979 27.5674 33.1738 27.6397C33.2487 27.713 33.2872 27.8107 33.2872 27.9329C33.2872 28.0501 33.2487 28.1469 33.1738 28.2221C33.0979 28.2954 32.9968 28.3315 32.8703 28.3315ZM32.3644 29.1954C32.24 29.1954 32.1388 29.1592 32.0609 29.0859C31.985 29.0107 31.9475 28.913 31.9475 28.7928C31.9475 28.6706 31.985 28.5729 32.0609 28.4996C32.1388 28.4273 32.24 28.3902 32.3644 28.3902C32.4909 28.3902 32.5921 28.4273 32.6679 28.4996C32.7428 28.5729 32.7813 28.6706 32.7813 28.7928C32.7813 28.913 32.7428 29.0107 32.6679 29.0859C32.5921 29.1592 32.4909 29.1954 32.3644 29.1954ZM32.9593 28.7928C32.9593 28.6706 32.9968 28.5729 33.0727 28.4996C33.1506 28.4273 33.2517 28.3902 33.3762 28.3902C33.5027 28.3902 33.6038 28.4273 33.6797 28.4996C33.7546 28.5729 33.793 28.6706 33.793 28.7928C33.793 28.913 33.7546 29.0107 33.6797 29.0859C33.6038 29.1592 33.5027 29.1954 33.3762 29.1954C33.2517 29.1954 33.1506 29.1592 33.0727 29.0859C32.9968 29.0107 32.9593 28.913 32.9593 28.7928ZM35.3067 32.2988H35.3674V32.6428H35.3067C35.1337 32.6428 34.9728 32.6213 34.8251 32.5763C34.6794 32.5323 34.5549 32.4727 34.4527 32.3965C34.3556 32.4727 34.2382 32.5323 34.1006 32.5763C33.9651 32.6213 33.8133 32.6428 33.6433 32.6428C33.3216 32.6428 33.0646 32.5705 32.8703 32.4239C32.676 32.5705 32.418 32.6428 32.0973 32.6428C31.9243 32.6428 31.7695 32.6213 31.6319 32.5763C31.4963 32.5323 31.382 32.4727 31.2879 32.3965C31.1826 32.4727 31.0572 32.5323 30.9115 32.5763C30.7658 32.6213 30.6049 32.6428 30.4299 32.6428H30.3692C30.3317 32.6428 30.3125 32.6232 30.3125 32.5841V32.3535C30.3125 32.3174 30.3317 32.2988 30.3692 32.2988H30.4299C30.6079 32.2988 30.7506 32.247 30.8589 32.1425C30.9691 32.0359 31.0248 31.8962 31.0248 31.7242V29.7699H31.6197V31.8376C31.6197 31.9763 31.6622 32.0877 31.7492 32.1737C31.8383 32.2578 31.9536 32.2988 32.0973 32.2988C32.24 32.2988 32.3543 32.2578 32.4413 32.1737C32.5273 32.0877 32.5708 31.9763 32.5708 31.8376V29.7699H33.1657V31.8376C33.1657 31.9763 33.2082 32.0877 33.2952 32.1737C33.3843 32.2578 33.4996 32.2988 33.6433 32.2988C33.786 32.2988 33.9003 32.2578 33.9873 32.1737C34.0733 32.0877 34.1168 31.9763 34.1168 31.8376V29.7699H34.7117V31.7242C34.7117 31.8962 34.7654 32.0359 34.8736 32.1425C34.9839 32.247 35.1286 32.2988 35.3067 32.2988Z" fill="white"/>
<path d="M36.2618 29.1953C36.1373 29.1953 36.0362 29.1592 35.9583 29.0859C35.8824 29.0106 35.8449 28.9129 35.8449 28.7927C35.8449 28.6706 35.8824 28.5729 35.9583 28.4996C36.0362 28.4273 36.1373 28.3901 36.2618 28.3901C36.3883 28.3901 36.4884 28.4273 36.5613 28.4996C36.6361 28.5729 36.6746 28.6706 36.6746 28.7927C36.6746 28.9129 36.6361 29.0106 36.5613 29.0859C36.4884 29.1592 36.3883 29.1953 36.2618 29.1953ZM36.2618 30.1725C36.1373 30.1725 36.0362 30.1363 35.9583 30.063C35.8824 29.9878 35.8449 29.8901 35.8449 29.7699C35.8449 29.6477 35.8824 29.55 35.9583 29.4767C36.0362 29.4044 36.1373 29.3673 36.2618 29.3673C36.3883 29.3673 36.4884 29.4044 36.5613 29.4767C36.6361 29.55 36.6746 29.6477 36.6746 29.7699C36.6746 29.8901 36.6361 29.9878 36.5613 30.063C36.4884 30.1363 36.3883 30.1725 36.2618 30.1725ZM37.1522 32.2988H37.2129V32.6427H37.1522C36.966 32.6427 36.796 32.6183 36.6422 32.5685C36.4905 32.5196 36.364 32.4512 36.2618 32.3652C36.1566 32.4512 36.0271 32.5196 35.8733 32.5685C35.7215 32.6183 35.5535 32.6427 35.3674 32.6427H35.3067C35.2692 32.6427 35.25 32.6232 35.25 32.5841V32.3535C35.25 32.3173 35.2692 32.2988 35.3067 32.2988H35.3674C35.5454 32.2988 35.6881 32.247 35.7964 32.1424C35.9066 32.0359 35.9623 31.8962 35.9623 31.7242V30.747H36.5572V31.7242C36.5572 31.8962 36.6109 32.0359 36.7191 32.1424C36.8294 32.247 36.9741 32.2988 37.1522 32.2988Z" fill="white"/>
<path d="M40.8981 31.8377V29.77H41.493V31.8377C41.493 32.08 41.3938 32.2755 41.1976 32.424C41.0033 32.5706 40.7453 32.6429 40.4246 32.6429C40.1028 32.6429 39.8458 32.5706 39.6515 32.424C39.4573 32.5706 39.1993 32.6429 38.8785 32.6429C38.7055 32.6429 38.5507 32.6214 38.4131 32.5764C38.2775 32.5324 38.1632 32.4728 38.0691 32.3966C37.9639 32.4728 37.8384 32.5324 37.6927 32.5764C37.547 32.6214 37.3862 32.6429 37.2111 32.6429H37.1504C37.113 32.6429 37.0938 32.6233 37.0938 32.5842V32.3536C37.0938 32.3175 37.113 32.2989 37.1504 32.2989H37.2111C37.3892 32.2989 37.5319 32.2471 37.6401 32.1426C37.7504 32.036 37.806 31.8963 37.806 31.7243V29.77H38.401V31.8377C38.401 31.9764 38.4435 32.0878 38.5305 32.1738C38.6195 32.2579 38.7349 32.2989 38.8785 32.2989C39.0212 32.2989 39.1355 32.2579 39.2225 32.1738C39.3086 32.0878 39.3521 31.9764 39.3521 31.8377V29.77H39.947V31.8377C39.947 31.9764 39.9895 32.0878 40.0765 32.1738C40.1655 32.2579 40.2809 32.2989 40.4246 32.2989C40.5672 32.2989 40.6815 32.2579 40.7686 32.1738C40.8546 32.0878 40.8981 31.9764 40.8981 31.8377Z" fill="white"/>
<path d="M45.6594 32.2991H45.7161V32.6431H45.6594C45.4702 32.6431 45.2992 32.6186 45.1454 32.5688C44.9937 32.52 44.8672 32.4516 44.765 32.3656C44.6618 32.4516 44.5343 32.52 44.3805 32.5688C44.2288 32.6186 44.0608 32.6431 43.8746 32.6431H42.0898V32.2991H43.8746C44.0527 32.2991 44.1954 32.2473 44.3036 32.1428C44.4139 32.0363 44.4696 31.8965 44.4696 31.7245V28.6211H45.0645V31.7245C45.0645 31.8965 45.1181 32.0363 45.2264 32.1428C45.3336 32.2473 45.4783 32.2991 45.6594 32.2991ZM42.9802 28.6211L43.5751 32.0099H42.9802L42.3853 28.6211H42.9802ZM43.0693 33.3896C42.9984 33.3896 42.9408 33.415 42.8952 33.4678C42.8517 33.5196 42.8305 33.5899 42.8305 33.6789C42.8305 33.7619 42.8517 33.8293 42.8952 33.8821C42.9408 33.9368 42.9984 33.9642 43.0693 33.9642H43.6642V34.1362H42.2962V33.9642H42.5876C42.5118 33.8831 42.4743 33.7883 42.4743 33.6789C42.4743 33.5401 42.5279 33.4287 42.6362 33.3427C42.7465 33.2587 42.8912 33.2176 43.0693 33.2176C43.2473 33.2176 43.39 33.2587 43.4983 33.3427C43.6085 33.4287 43.6642 33.5401 43.6642 33.6789H43.308C43.308 33.5899 43.2858 33.5196 43.2433 33.4678C43.1998 33.415 43.1421 33.3896 43.0693 33.3896Z" fill="white"/>
<path d="M46.31 28.6211H46.9049V31.7245C46.9049 32.0011 46.7956 32.2239 46.5771 32.3929C46.3585 32.56 46.0712 32.6431 45.715 32.6431H45.6543C45.6169 32.6431 45.5977 32.6235 45.5977 32.5844V32.3538C45.5977 32.3177 45.6169 32.2991 45.6543 32.2991H45.715C45.8931 32.2991 46.0358 32.2473 46.144 32.1428C46.2543 32.0363 46.31 31.8965 46.31 31.7245V28.6211Z" fill="white"/>
<path d="M1.10487 15.4026V14.1245C3.91865 14.1245 6.05858 14.7616 7.52365 16.0358C8.99074 17.3081 9.7253 19.1608 9.7253 21.5939V23.513H12.1576V24.7951H0V23.513H7.51555V21.5939C7.51555 19.5722 6.9702 18.0351 5.88051 16.9817C4.7898 15.9293 3.19826 15.4026 1.10487 15.4026Z" fill="white"/>
<path d="M11.9334 23.5127H16.5755V24.7947H11.9334C11.7877 24.7947 11.7148 24.7234 11.7148 24.5798V23.7277C11.7148 23.585 11.7877 23.5127 11.9334 23.5127Z" fill="white"/>
<path d="M31.603 23.513H31.8256V24.7951H31.603C30.7935 24.7951 30.0711 24.6739 29.4377 24.4316C28.8034 24.1892 28.2944 23.8482 27.912 23.4075C27.4718 23.8482 26.9457 24.1892 26.3336 24.4316C25.7204 24.6739 25.0466 24.7951 24.31 24.7951C23.4864 24.7951 22.7357 24.668 22.0557 24.412C21.3778 24.1541 20.7971 23.7984 20.3114 23.345C19.9411 23.7984 19.4352 24.1541 18.7937 24.412C18.1543 24.668 17.4147 24.7951 16.5759 24.7951H16.3533C16.2076 24.7951 16.1348 24.7237 16.1348 24.5801V23.728C16.1348 23.5854 16.2076 23.513 16.3533 23.513H16.5759C17.2396 23.513 17.7739 23.3176 18.1786 22.9267C18.5833 22.5359 18.7856 22.0199 18.7856 21.3789V19.4598C18.7856 18.3918 19.0062 17.4605 19.4494 16.6651C19.8915 15.8678 20.5107 15.2453 21.307 14.7968C22.1023 14.3493 23.0311 14.1245 24.0915 14.1245C25.1518 14.1245 26.0796 14.3493 26.8759 14.7968C27.6712 15.2453 28.2894 15.8678 28.7295 16.6651C29.1716 17.4605 29.3932 18.3918 29.3932 19.4598V21.3789C29.3932 22.0199 29.5956 22.5359 30.0003 22.9267C30.407 23.3176 30.9413 23.513 31.603 23.513ZM24.31 23.513C25.1812 23.513 25.8773 23.1407 26.3983 22.3952C26.9214 21.6477 27.1835 20.6695 27.1835 19.4598C27.1835 18.2354 26.9002 17.2534 26.3336 16.5127C25.767 15.773 25.0193 15.4026 24.0915 15.4026C23.1626 15.4026 22.4139 15.773 21.8453 16.5127C21.2787 17.2534 20.9954 18.2354 20.9954 19.4598C20.9954 20.6695 21.2999 21.6477 21.91 22.3952C22.5222 23.1407 23.3225 23.513 24.31 23.513Z" fill="white"/>
<path d="M31.6033 23.5127H36.2454V24.7947H31.6033C31.4576 24.7947 31.3848 24.7234 31.3848 24.5798V23.7277C31.3848 23.585 31.4576 23.5127 31.6033 23.5127Z" fill="white"/>
<path d="M39.5604 11.9862C39.1041 11.9862 38.7318 11.8484 38.4434 11.5719C38.1571 11.2934 38.0144 10.9338 38.0144 10.4931C38.0144 10.0377 38.1571 9.67522 38.4434 9.4065C38.7318 9.13583 39.1041 9 39.5604 9C40.0319 9 40.4073 9.13583 40.6855 9.4065C40.9658 9.67522 41.1065 10.0377 41.1065 10.4931C41.1065 10.9338 40.9658 11.2934 40.6855 11.5719C40.4073 11.8484 40.0319 11.9862 39.5604 11.9862ZM39.5604 15.6173C39.1041 15.6173 38.7318 15.4795 38.4434 15.203C38.1571 14.9245 38.0144 14.5649 38.0144 14.1242C38.0144 13.6689 38.1571 13.3054 38.4434 13.0337C38.7318 12.763 39.1041 12.6272 39.5604 12.6272C40.0319 12.6272 40.4073 12.763 40.6855 13.0337C40.9658 13.3054 41.1065 13.6689 41.1065 14.1242C41.1065 14.5649 40.9658 14.9245 40.6855 15.203C40.4073 15.4795 40.0319 15.6173 39.5604 15.6173ZM42.8751 23.5127H43.0976V24.7948H42.8751C42.184 24.7948 41.5537 24.7029 40.985 24.5173C40.4184 24.3326 39.9429 24.0834 39.5604 23.7707C39.177 24.0834 38.7024 24.3326 38.1358 24.5173C37.5692 24.7029 36.9389 24.7948 36.2458 24.7948H36.0232C35.8775 24.7948 35.8047 24.7234 35.8047 24.5798V23.7277C35.8047 23.5851 35.8775 23.5127 36.0232 23.5127H36.2458C36.9096 23.5127 37.4438 23.3173 37.8485 22.9265C38.2532 22.5356 38.4556 22.0197 38.4556 21.3786V17.7514H40.6653V21.3786C40.6653 22.0197 40.8677 22.5356 41.2724 22.9265C41.6791 23.3173 42.2133 23.5127 42.8751 23.5127Z" fill="white"/>
<path d="M47.5169 19.4598C47.5169 20.6695 47.8002 21.6477 48.3668 22.3952C48.9354 23.1407 49.6841 23.513 50.6129 23.513H55.9147V24.7951H42.8748C42.7291 24.7951 42.6562 24.7237 42.6562 24.5801V23.728C42.6562 23.5854 42.7291 23.513 42.8748 23.513H46.9665C46.4343 23.044 46.0245 22.4646 45.7361 21.7737C45.4498 21.0838 45.3071 20.3119 45.3071 19.4598C45.3071 18.3918 45.5277 17.4605 45.9709 16.6651C46.413 15.8678 47.0322 15.2453 47.8285 14.7968C48.6238 14.3493 49.5526 14.1245 50.6129 14.1245C51.6733 14.1245 52.6011 14.3493 53.3974 14.7968C54.1926 15.2453 54.8108 15.8678 55.251 16.6651C55.6931 17.4605 55.9147 18.3918 55.9147 19.4598H53.705C53.705 18.2354 53.4217 17.2534 52.8551 16.5127C52.2885 15.773 51.5408 15.4026 50.6129 15.4026C49.6841 15.4026 48.9354 15.773 48.3668 16.5127C47.8002 17.2534 47.5169 18.2354 47.5169 19.4598Z" fill="white"/>
<path d="M58.791 9.85205H61.0008V24.7948H58.791V9.85205Z" fill="white"/>
<mask id="mask0_619_4050" style="mask-type:luminance" maskUnits="userSpaceOnUse" x="69" y="40" width="9" height="4">
<path d="M69.2324 40.9888H77.3191V43.9997H69.2324V40.9888Z" fill="white"/>
</mask>
<g mask="url(#mask0_619_4050)">
<path d="M69.2871 42.2347V44.0972H77.305V41.0171C75.2736 41.9012 73.1709 42.3534 71.052 42.3534C70.447 42.3534 69.8581 42.3095 69.2871 42.2347Z" fill="white"/>
</g>
<mask id="mask1_619_4050" style="mask-type:luminance" maskUnits="userSpaceOnUse" x="108" y="9" width="9" height="35">
<path d="M108.008 9.75684H116.302V43.9999H108.008V9.75684Z" fill="white"/>
</mask>
<g mask="url(#mask1_619_4050)">
<path d="M108.094 44.0975H116.108V9.92676L108.094 20.7628V44.0975Z" fill="white"/>
</g>
<mask id="mask2_619_4050" style="mask-type:luminance" maskUnits="userSpaceOnUse" x="82" y="25" width="9" height="19">
<path d="M82.0898 25.9976H90.3839V43.9999H82.0898V25.9976Z" fill="white"/>
</mask>
<g mask="url(#mask2_619_4050)">
<path d="M83.2465 36.9147C82.9144 37.2449 82.5701 37.5596 82.2227 37.8614V44.0972H90.2405V26.0355L90.2187 26.0103C88.2926 30.5763 85.9509 34.2363 83.2465 36.9147Z" fill="white"/>
</g>
<mask id="mask3_619_4050" style="mask-type:luminance" maskUnits="userSpaceOnUse" x="95" y="27" width="9" height="17">
<path d="M95.1523 27.2466H103.239V43.9997H95.1523V27.2466Z" fill="white"/>
</mask>
<g mask="url(#mask3_619_4050)">
<path d="M95.1602 31.8345V44.0972H103.175V27.4092L97.6937 34.8219L95.1602 31.8345Z" fill="white"/>
</g>
<path d="M119.857 0L116.109 0.939502L111.696 2.04513L114.458 4.13219L112.02 7.37811L108.045 12.6772L103.095 19.2707L97.3242 26.9576L95.0309 24.2924L92.5185 21.3739L90.081 18.5425L88.3085 16.482L87.4096 19.2868C86.3453 22.6029 85.1628 25.3174 83.9298 27.5383C83.3023 28.6657 82.6625 29.6657 82.0138 30.5519C80.3595 32.8221 78.6652 34.3511 77.0671 35.3672C74.302 37.1268 71.8279 37.3615 70.3479 37.2849C69.665 37.251 69.1931 37.1518 69 37.1027V40.4195C69.4621 40.4841 70.0643 40.5429 70.7758 40.5429C72.3144 40.5429 74.368 40.2768 76.6368 39.2768C76.7835 39.2115 76.9237 39.1373 77.0671 39.0696C78.8372 38.2268 80.4874 37.0591 82.0138 35.5672C84.9134 32.7422 87.3688 28.7552 89.3573 23.644C89.438 23.4335 89.5227 23.2335 89.6001 23.0198L90.081 23.5762L95.0309 29.3262L97.4994 32.1955L103.095 24.7464L108.045 18.1529L116.109 7.40876L117.079 6.11845L120 8.32971L119.857 0Z" fill="white"/>
</svg>
