<svg width="172" height="44" viewBox="0 0 172 44" fill="none" xmlns="http://www.w3.org/2000/svg">
<path d="M1.20117 23.0483V28.3515C1.20117 28.6064 1.215 28.8082 1.24726 28.9545C1.27722 29.1031 1.33022 29.225 1.40397 29.3181C1.47771 29.4068 1.56989 29.4666 1.68051 29.4955C1.79573 29.5265 1.94322 29.5398 2.12297 29.5398H3.03556V29.3447H2.83276C2.53087 29.3447 2.33729 29.256 2.25203 29.0787C2.16445 28.8969 2.12297 28.653 2.12297 28.3515V23.0483H1.20117Z" fill="white"/>
<path d="M5.01603 29.5401V25.78C5.14969 25.6381 5.30409 25.5184 5.47693 25.4164C5.64746 25.3167 5.83873 25.2657 6.04844 25.2657C6.35494 25.2657 6.61305 25.361 6.82276 25.5495C6.92646 25.6514 7.00942 25.7889 7.07164 25.9663C7.13156 26.1436 7.16382 26.352 7.16382 26.587V29.5401H8.08563V26.587C8.08563 26.2389 8.03493 25.9463 7.93814 25.7091C7.83904 25.4741 7.70769 25.2923 7.54176 25.1681C7.37584 25.0262 7.19148 24.9353 6.98868 24.8932C6.78589 24.8467 6.56926 24.8223 6.34342 24.8223C6.04153 24.8223 5.77651 24.8755 5.55067 24.9819C5.32944 25.0839 5.14969 25.1925 5.01603 25.31H4.96994C4.91924 25.1925 4.82706 25.0972 4.6934 25.0262C4.56434 24.9553 4.36385 24.9198 4.09422 24.9198H3.18164V25.1149H3.38444C3.69094 25.1149 3.88451 25.208 3.96517 25.3898C4.05044 25.5672 4.09422 25.8022 4.09422 26.0904V29.5401H5.01603Z" fill="white"/>
<path d="M9.34857 26.3032C9.34857 26.6114 9.42462 26.8775 9.57902 27.1014C9.73112 27.3209 9.90626 27.4805 10.1044 27.5803C10.0353 27.629 9.95926 27.6933 9.874 27.7754C9.78642 27.8529 9.74494 27.966 9.74494 28.1123C9.74494 28.2675 9.78642 28.3917 9.874 28.4848C9.95926 28.5801 10.0514 28.6511 10.1505 28.6976C9.84865 28.7996 9.58824 28.9615 9.367 29.1854C9.14577 29.4049 9.03516 29.6731 9.03516 29.9924C9.03516 30.2695 9.09277 30.5023 9.2103 30.693C9.33244 30.8814 9.49145 31.0388 9.68964 31.163C9.89704 31.2871 10.1344 31.3714 10.3994 31.4202C10.6621 31.4734 10.9548 31.5 11.2751 31.5C11.607 31.5 11.9066 31.4734 12.1785 31.4202C12.4481 31.3714 12.6809 31.2871 12.8791 31.163C13.0865 31.0388 13.2478 30.8814 13.3584 30.693C13.4736 30.5023 13.5335 30.2695 13.5335 29.9924C13.5335 29.7086 13.4713 29.4736 13.3492 29.2829C13.2317 29.0945 13.068 28.9349 12.8606 28.8041C12.4481 28.5735 11.9204 28.4582 11.2751 28.4582C10.5561 28.4582 10.1966 28.3429 10.1966 28.1123C10.1966 27.8884 10.5561 27.7754 11.2751 27.7754C11.5448 27.7754 11.8006 27.7532 12.0402 27.7044C12.2845 27.6512 12.4942 27.5692 12.6671 27.4561C12.8376 27.3452 12.9736 27.1945 13.0726 27.0038C13.1694 26.8154 13.2201 26.5826 13.2201 26.3032C13.2201 26.0439 13.151 25.8221 13.0173 25.6381C12.8814 25.4497 12.7131 25.3078 12.5103 25.2125V25.1681L13.174 25.0706V24.8223H11.2751C11.017 24.8223 10.7681 24.8489 10.5285 24.9021C10.2888 24.9509 10.0791 25.0262 9.90165 25.1327C9.73573 25.2457 9.59976 25.3965 9.49606 25.5849C9.39696 25.7756 9.34857 26.015 9.34857 26.3032ZM12.3076 26.3032C12.3076 26.5116 12.2799 26.6846 12.2246 26.8265C12.1739 26.9684 12.1048 27.0836 12.0126 27.1723C11.8328 27.3452 11.5885 27.4295 11.2751 27.4295C10.9732 27.4295 10.7336 27.3452 10.5561 27.1723C10.4755 27.0836 10.404 26.9684 10.3441 26.8265C10.2888 26.6846 10.2612 26.5116 10.2612 26.3032C10.2612 26.086 10.2888 25.9042 10.3441 25.7623C10.404 25.616 10.4755 25.4962 10.5561 25.4076C10.7336 25.2479 10.9732 25.1681 11.2751 25.1681C11.5632 25.1681 11.8052 25.2568 12.0034 25.4342C12.2062 25.6115 12.3076 25.902 12.3076 26.3032ZM10.8235 28.8041L11.3858 28.8484C12.2015 28.9615 12.6117 29.3428 12.6117 29.9924C12.6117 30.3826 12.485 30.6664 12.2338 30.8437C11.9872 31.0211 11.6669 31.1098 11.2751 31.1098C10.8926 31.1098 10.5769 31.0211 10.3257 30.8437C10.0722 30.6664 9.94774 30.3826 9.94774 29.9924C9.94774 29.6731 10.0261 29.4226 10.1874 29.2386C10.3533 29.0501 10.5653 28.906 10.8235 28.8041Z" fill="white"/>
<path d="M18.0359 29.5401V26.8885C18.0359 26.4518 17.9852 26.0971 17.8884 25.8244C17.7893 25.5472 17.6579 25.3322 17.492 25.177C17.3192 25.0418 17.1256 24.9509 16.9113 24.9021C16.6946 24.8489 16.4711 24.8223 16.2384 24.8223C16.0724 24.8223 15.9157 24.8311 15.7682 24.8489C15.6254 24.8622 15.4825 24.8755 15.335 24.8932C15.0262 24.9642 14.8142 25.0573 14.6989 25.1681C14.5745 25.2878 14.5008 25.4209 14.4777 25.5672C14.4593 25.7157 14.4501 25.8754 14.4501 26.0461H14.9202C14.9939 25.7268 15.1253 25.5095 15.3166 25.3898C15.5055 25.2723 15.7452 25.2125 16.0356 25.2125C16.3605 25.2125 16.6163 25.3167 16.8007 25.5228C16.8928 25.6537 16.9666 25.8288 17.0219 26.0461C17.0818 26.2656 17.1141 26.5471 17.1141 26.8885H16.8007C16.4504 26.8885 16.1185 26.9107 15.8051 26.9506C15.4917 26.9861 15.2152 27.0615 14.9755 27.1723C14.7404 27.2743 14.5538 27.4162 14.4132 27.598C14.2703 27.7754 14.2012 27.9971 14.2012 28.2631C14.2012 28.5358 14.2519 28.7597 14.3579 28.9371C14.4616 29.11 14.5837 29.2519 14.7266 29.3627C14.8741 29.4647 15.0331 29.5357 15.2059 29.5756C15.3765 29.6221 15.5332 29.6465 15.6761 29.6465C16.0747 29.6465 16.3881 29.5867 16.6163 29.4692C16.8421 29.345 17.0081 29.2186 17.1141 29.0878H17.1602L17.5197 29.5401H18.0359ZM17.1141 27.2787V28.609C17.0081 28.7641 16.879 28.8994 16.7269 29.0169C16.5794 29.1366 16.3812 29.1943 16.137 29.1943C15.865 29.1943 15.6415 29.1211 15.464 28.9726C15.3765 28.8905 15.3073 28.793 15.252 28.6799C15.1967 28.5624 15.1691 28.4227 15.1691 28.2631C15.1691 27.9682 15.3119 27.731 15.6023 27.5536C15.8904 27.3719 16.2891 27.2787 16.8007 27.2787H17.1141Z" fill="white"/>
<path d="M23.1594 24.9199H20.0437C19.7118 24.9199 19.4768 25.0042 19.3431 25.1682C19.2694 25.2347 19.2187 25.3146 19.1956 25.4077C19.1772 25.503 19.168 25.6006 19.168 25.7003V26.1969H19.3708C19.3708 25.9198 19.4745 25.7048 19.6842 25.5496C19.8916 25.3899 20.2142 25.3101 20.6521 25.3101H21.8135L19.168 29.3629V29.5402H23.1594V29.15H20.4032L23.1594 24.9199Z" fill="white"/>
<path d="M27.6152 24.2367V26.7375C27.6152 27.2164 27.6566 27.6398 27.7442 28.0056C27.8364 28.367 27.9793 28.6685 28.1775 28.9102C28.3803 29.154 28.6476 29.3358 28.9794 29.46C29.3159 29.5841 29.7284 29.6462 30.2146 29.6462C30.7424 29.6462 31.1756 29.5841 31.5144 29.46C31.8508 29.3358 32.1182 29.154 32.3164 28.9102C32.5122 28.6685 32.6482 28.367 32.7219 28.0056C32.7957 27.6398 32.8326 27.2164 32.8326 26.7375V23.0483H32.4085V26.7375C32.4085 27.1698 32.374 27.5423 32.3071 27.8549C32.238 28.1697 32.1228 28.4313 31.9568 28.6441C31.6365 29.041 31.0996 29.2383 30.3437 29.2383C29.6846 29.2383 29.2191 29.0432 28.9426 28.653C28.7951 28.4535 28.6891 28.2185 28.6291 27.9524C28.5669 27.6819 28.537 27.376 28.537 27.039V24.2367C28.537 23.7467 28.4724 23.4208 28.3434 23.2612C28.2696 23.1791 28.1729 23.1237 28.0576 23.0927C27.9401 23.0639 27.7926 23.0483 27.6152 23.0483H26.6934V23.2434H26.8962C27.1957 23.2434 27.3893 23.3366 27.4769 23.5184C27.5691 23.6957 27.6152 23.9352 27.6152 24.2367Z" fill="white"/>
<path d="M35.4301 29.5401V25.78C35.5637 25.6381 35.7182 25.5184 35.891 25.4164C36.0615 25.3167 36.2528 25.2657 36.4625 25.2657C36.769 25.2657 37.0271 25.361 37.2368 25.5495C37.3405 25.6514 37.4235 25.7889 37.4857 25.9663C37.5456 26.1436 37.5779 26.352 37.5779 26.587V29.5401H38.4997V26.587C38.4997 26.2389 38.449 25.9463 38.3522 25.7091C38.2531 25.4741 38.1217 25.2923 37.9558 25.1681C37.7899 25.0262 37.6055 24.9353 37.4027 24.8932C37.1999 24.8467 36.9833 24.8223 36.7575 24.8223C36.4556 24.8223 36.1906 24.8755 35.9647 24.9819C35.7435 25.0839 35.5637 25.1925 35.4301 25.31H35.384C35.3333 25.1925 35.2411 25.0972 35.1075 25.0262C34.9784 24.9553 34.7779 24.9198 34.5083 24.9198H33.5957V25.1149H33.7985C34.105 25.1149 34.2986 25.208 34.3792 25.3898C34.4645 25.5672 34.5083 25.8022 34.5083 26.0904V29.5401H35.4301Z" fill="white"/>
<path d="M40.9242 23.8914C40.9242 23.7206 40.8688 23.5721 40.7582 23.4479C40.6522 23.3238 40.5186 23.2617 40.3526 23.2617C40.0392 23.2617 39.8825 23.408 39.8825 23.6963C39.8825 23.8692 39.9378 24.0155 40.0484 24.1397C40.1637 24.2638 40.3019 24.3259 40.4633 24.3259C40.7698 24.3259 40.9242 24.1818 40.9242 23.8914ZM40.9887 29.5404V26.0907C40.9887 25.6118 40.9265 25.2925 40.8043 25.1329C40.7306 25.0442 40.6315 24.9888 40.5093 24.9644C40.3918 24.9356 40.2443 24.9201 40.0669 24.9201H39.1543V25.1152H39.3571C39.6636 25.1152 39.8572 25.2083 39.9378 25.3901C40.0231 25.5674 40.0669 25.8024 40.0669 26.0907V29.5404H40.9887Z" fill="white"/>
<path d="M42.6199 25.3101V28.3519C42.6199 28.8086 42.7329 29.139 42.961 29.3451C43.1938 29.5447 43.4864 29.6467 43.8367 29.6467C44.0142 29.6467 44.1732 29.6311 44.3161 29.6023C44.4566 29.5713 44.5765 29.538 44.6756 29.4959C44.7793 29.456 44.8645 29.4139 44.9337 29.3717C45.0005 29.3252 45.0627 29.2808 45.118 29.2387L45.0258 29.0436C44.9198 29.0968 44.8092 29.1456 44.694 29.1855C44.5834 29.221 44.4382 29.2387 44.2608 29.2387C43.7814 29.2387 43.5417 28.9439 43.5417 28.3519V25.3101H44.7585V24.9199H43.5417V23.439H43.1177L42.6199 24.042V24.9199H41.9102V25.3101H42.6199Z" fill="white"/>
<path d="M49.6804 27.3852L49.6896 26.9772C49.6896 26.2855 49.5237 25.7534 49.1918 25.381C48.86 25.0085 48.3461 24.8223 47.6524 24.8223C47.3321 24.8223 47.044 24.8843 46.7859 25.0085C46.5324 25.1327 46.3181 25.3056 46.1407 25.5228C45.9609 25.7423 45.8296 25.9973 45.7443 26.2855C45.6567 26.5759 45.6152 26.893 45.6152 27.2344C45.6152 27.567 45.6567 27.8773 45.7443 28.1656C45.8296 28.456 45.9609 28.7109 46.1407 28.9282C46.3181 29.1477 46.5416 29.3228 46.8136 29.4514C47.0832 29.58 47.3943 29.6465 47.7446 29.6465C48.1364 29.6465 48.4843 29.5667 48.7862 29.4071C49.0858 29.2475 49.3531 28.9814 49.5882 28.609L49.3854 28.4582C49.2057 28.7132 49.0029 28.9083 48.777 29.0435C48.5558 29.1743 48.2792 29.2386 47.9474 29.2386C47.7308 29.2386 47.5418 29.192 47.3759 29.0967C47.21 29.0036 47.0625 28.875 46.9334 28.7154C46.6937 28.3784 46.5739 27.935 46.5739 27.3852H49.6804ZM48.7309 26.9772H46.5739C46.5739 26.4584 46.6776 26.0372 46.8873 25.7179C46.9795 25.5583 47.0855 25.4342 47.21 25.3455C47.339 25.2568 47.4865 25.2125 47.6524 25.2125C48.0142 25.2125 48.2839 25.3677 48.4636 25.6736C48.641 25.9751 48.7309 26.4097 48.7309 26.9772Z" fill="white"/>
<path d="M54.7555 29.5398V24.2367C54.7555 23.7467 54.6933 23.4208 54.5712 23.2612C54.4974 23.1791 54.396 23.1237 54.267 23.0927C54.1425 23.0639 53.995 23.0483 53.8245 23.0483H52.9027V23.2434H53.1147C53.4143 23.2434 53.6079 23.3366 53.6955 23.5184C53.7807 23.6957 53.8245 23.9352 53.8245 24.2367V25.1146C53.6632 25.0392 53.4834 24.9705 53.2806 24.9106C53.0779 24.853 52.8313 24.822 52.5432 24.822C52.2229 24.822 51.9394 24.884 51.6951 25.0082C51.4486 25.1323 51.2481 25.3053 51.096 25.5225C50.9301 25.742 50.8056 25.997 50.7273 26.2852C50.6466 26.5756 50.6074 26.8927 50.6074 27.2341C50.6074 27.9214 50.7572 28.4845 51.0591 28.9279C51.2181 29.1474 51.414 29.3225 51.6491 29.4511C51.8818 29.5797 52.1491 29.6462 52.451 29.6462C52.6584 29.6462 52.8382 29.6285 52.9857 29.593C53.1378 29.5575 53.2668 29.5176 53.3728 29.4689C53.4834 29.4157 53.571 29.3536 53.6401 29.2826C53.707 29.2117 53.7692 29.1474 53.8245 29.0875H53.8798L54.2393 29.5398H54.7555ZM53.8245 25.5048V28.653C53.7692 28.7239 53.7093 28.7993 53.6494 28.8747C53.5941 28.9456 53.5249 29.0077 53.4466 29.0609C53.2806 29.1806 53.0525 29.2383 52.7644 29.2383C52.5547 29.2383 52.3773 29.1895 52.2298 29.0875C52.0823 28.9811 51.9625 28.837 51.8703 28.653C51.7643 28.4756 51.6882 28.2672 51.6398 28.0234C51.5961 27.7751 51.5753 27.5134 51.5753 27.2341C51.5753 26.9459 51.5961 26.6798 51.6398 26.436C51.6882 26.1877 51.7643 25.9726 51.8703 25.7886C51.974 25.6112 52.1053 25.4738 52.2667 25.3718C52.4326 25.2654 52.6285 25.2122 52.8566 25.2122C53.0087 25.2122 53.17 25.2432 53.336 25.3008C53.5019 25.3607 53.6632 25.4294 53.8245 25.5048Z" fill="white"/>
<path d="M64.4414 23.0483H59.6849C59.512 23.0483 59.3668 23.0727 59.2516 23.1193C59.1341 23.1614 59.0442 23.2168 58.9843 23.2878C58.9105 23.3587 58.8644 23.443 58.846 23.5361C58.8276 23.6314 58.8184 23.7356 58.8184 23.8465V24.5825H59.0212C59.0212 24.1812 59.1272 23.8908 59.3438 23.7134C59.565 23.5317 59.8807 23.4385 60.2932 23.4385H61.215V29.5398H62.1368V23.4385H64.4414V23.0483Z" fill="white"/>
<path d="M66.2871 29.5401V25.8953C66.5084 25.5716 66.831 25.4076 67.255 25.4076C67.6422 25.4076 67.9118 25.5051 68.0662 25.7002L68.4902 25.4076C68.4211 25.3078 68.3635 25.2213 68.3151 25.1504C68.2644 25.0794 68.2045 25.0218 68.1307 24.973C68.057 24.9198 67.9579 24.8821 67.8358 24.8577C67.7182 24.8356 67.6076 24.8223 67.5039 24.8223C67.202 24.8223 66.9508 24.8821 66.748 24.9996C66.5452 25.1193 66.3908 25.2369 66.2871 25.3544H66.2318C66.1765 25.208 66.0843 25.0972 65.9553 25.0262C65.8262 24.9553 65.6257 24.9198 65.3561 24.9198H64.5449V25.1149H64.6555C64.9551 25.1149 65.1464 25.208 65.2271 25.3898C65.3123 25.5672 65.3561 25.8022 65.3561 26.0904V29.5401H66.2871Z" fill="white"/>
<path d="M72.8327 29.5401V26.8885C72.8327 26.4518 72.782 26.0971 72.6853 25.8244C72.5862 25.5472 72.4548 25.3322 72.2889 25.177C72.116 25.0418 71.9225 24.9509 71.7081 24.9021C71.4915 24.8489 71.268 24.8223 71.0352 24.8223C70.8693 24.8223 70.7126 24.8311 70.5651 24.8489C70.4222 24.8622 70.2794 24.8755 70.1319 24.8932C69.8231 24.9642 69.611 25.0573 69.4958 25.1681C69.3714 25.2878 69.2976 25.4209 69.2746 25.5672C69.2562 25.7157 69.2469 25.8754 69.2469 26.0461H69.7171C69.7908 25.7268 69.9222 25.5095 70.1134 25.3898C70.3024 25.2723 70.5421 25.2125 70.8324 25.2125C71.1574 25.2125 71.4132 25.3167 71.5975 25.5228C71.6897 25.6537 71.7635 25.8288 71.8188 26.0461C71.8787 26.2656 71.9109 26.5471 71.9109 26.8885H71.5975C71.2472 26.8885 70.9154 26.9107 70.602 26.9506C70.2886 26.9861 70.012 27.0615 69.7724 27.1723C69.5373 27.2743 69.3506 27.4162 69.2101 27.598C69.0672 27.7754 68.998 27.9971 68.998 28.2631C68.998 28.5358 69.0487 28.7597 69.1548 28.9371C69.2585 29.11 69.3806 29.2519 69.5235 29.3627C69.671 29.4647 69.83 29.5357 70.0028 29.5756C70.1733 29.6221 70.33 29.6465 70.4729 29.6465C70.8716 29.6465 71.185 29.5867 71.4132 29.4692C71.639 29.345 71.8049 29.2186 71.9109 29.0878H71.957L72.3165 29.5401H72.8327ZM71.9109 27.2787V28.609C71.8049 28.7641 71.6759 28.8994 71.5238 29.0169C71.3763 29.1366 71.1781 29.1943 70.9338 29.1943C70.6619 29.1943 70.4384 29.1211 70.2609 28.9726C70.1733 28.8905 70.1042 28.793 70.0489 28.6799C69.9936 28.5624 69.9659 28.4227 69.9659 28.2631C69.9659 27.9682 70.1088 27.731 70.3992 27.5536C70.6872 27.3719 71.0859 27.2787 71.5975 27.2787H71.9109Z" fill="white"/>
<path d="M75.2562 23.8914C75.2562 23.7206 75.2009 23.5721 75.0903 23.4479C74.9843 23.3238 74.8506 23.2617 74.6847 23.2617C74.3713 23.2617 74.2146 23.408 74.2146 23.6963C74.2146 23.8692 74.2699 24.0155 74.3805 24.1397C74.4957 24.2638 74.634 24.3259 74.7953 24.3259C75.1018 24.3259 75.2562 24.1818 75.2562 23.8914ZM75.3207 29.5404V26.0907C75.3207 25.6118 75.2585 25.2925 75.1364 25.1329C75.0626 25.0442 74.9635 24.9888 74.8414 24.9644C74.7238 24.9356 74.5764 24.9201 74.3989 24.9201H73.4863V25.1152H73.6891C73.9956 25.1152 74.1892 25.2083 74.2699 25.3901C74.3551 25.5674 74.3989 25.8024 74.3989 26.0907V29.5404H75.3207Z" fill="white"/>
<path d="M77.8266 29.5401V25.78C77.9602 25.6381 78.1146 25.5184 78.2875 25.4164C78.458 25.3167 78.6493 25.2657 78.859 25.2657C79.1655 25.2657 79.4236 25.361 79.6333 25.5495C79.737 25.6514 79.82 25.7889 79.8822 25.9663C79.9421 26.1436 79.9744 26.352 79.9744 26.587V29.5401H80.8962V26.587C80.8962 26.2389 80.8455 25.9463 80.7487 25.7091C80.6496 25.4741 80.5182 25.2923 80.3523 25.1681C80.1864 25.0262 80.002 24.9353 79.7992 24.8932C79.5964 24.8467 79.3798 24.8223 79.154 24.8223C78.8521 24.8223 78.5871 24.8755 78.3612 24.9819C78.14 25.0839 77.9602 25.1925 77.8266 25.31H77.7805C77.7298 25.1925 77.6376 25.0972 77.5039 25.0262C77.3749 24.9553 77.1744 24.9198 76.9048 24.9198H75.9922V25.1149H76.195C76.5015 25.1149 76.6951 25.208 76.7757 25.3898C76.861 25.5672 76.9048 25.8022 76.9048 26.0904V29.5401H77.8266Z" fill="white"/>
<path d="M83.3206 23.8914C83.3206 23.7206 83.2653 23.5721 83.1547 23.4479C83.0487 23.3238 82.915 23.2617 82.7491 23.2617C82.4357 23.2617 82.279 23.408 82.279 23.6963C82.279 23.8692 82.3343 24.0155 82.4449 24.1397C82.5602 24.2638 82.6984 24.3259 82.8597 24.3259C83.1662 24.3259 83.3206 24.1818 83.3206 23.8914ZM83.3852 29.5404V26.0907C83.3852 25.6118 83.3229 25.2925 83.2008 25.1329C83.1271 25.0442 83.028 24.9888 82.9058 24.9644C82.7883 24.9356 82.6408 24.9201 82.4634 24.9201H81.5508V25.1152H81.7536C82.0601 25.1152 82.2537 25.2083 82.3343 25.3901C82.4196 25.5674 82.4634 25.8024 82.4634 26.0907V29.5404H83.3852Z" fill="white"/>
<path d="M85.893 29.5401V25.78C86.0266 25.6381 86.181 25.5184 86.3539 25.4164C86.5244 25.3167 86.7157 25.2657 86.9254 25.2657C87.2319 25.2657 87.49 25.361 87.6997 25.5495C87.8034 25.6514 87.8864 25.7889 87.9486 25.9663C88.0085 26.1436 88.0408 26.352 88.0408 26.587V29.5401H88.9626V26.587C88.9626 26.2389 88.9119 25.9463 88.8151 25.7091C88.716 25.4741 88.5846 25.2923 88.4187 25.1681C88.2528 25.0262 88.0684 24.9353 87.8656 24.8932C87.6628 24.8467 87.4462 24.8223 87.2204 24.8223C86.9185 24.8223 86.6535 24.8755 86.4276 24.9819C86.2064 25.0839 86.0266 25.1925 85.893 25.31H85.8469C85.7962 25.1925 85.704 25.0972 85.5703 25.0262C85.4413 24.9553 85.2408 24.9198 84.9712 24.9198H84.0586V25.1149H84.2614C84.5679 25.1149 84.7615 25.208 84.8421 25.3898C84.9274 25.5672 84.9712 25.8022 84.9712 26.0904V29.5401H85.893Z" fill="white"/>
<path d="M90.2255 26.3032C90.2255 26.6114 90.3016 26.8775 90.456 27.1014C90.6081 27.3209 90.7832 27.4805 90.9814 27.5803C90.9123 27.629 90.8362 27.6933 90.7509 27.7754C90.6634 27.8529 90.6219 27.966 90.6219 28.1123C90.6219 28.2675 90.6634 28.3917 90.7509 28.4848C90.8362 28.5801 90.9284 28.6511 91.0275 28.6976C90.7256 28.7996 90.4652 28.9615 90.244 29.1854C90.0227 29.4049 89.9121 29.6731 89.9121 29.9924C89.9121 30.2695 89.9697 30.5023 90.0873 30.693C90.2094 30.8814 90.3684 31.0388 90.5666 31.163C90.774 31.2871 91.0114 31.3714 91.2764 31.4202C91.5391 31.4734 91.8318 31.5 92.1521 31.5C92.4839 31.5 92.7835 31.4734 93.0555 31.4202C93.3251 31.3714 93.5578 31.2871 93.756 31.163C93.9634 31.0388 94.1247 30.8814 94.2354 30.693C94.3506 30.5023 94.4105 30.2695 94.4105 29.9924C94.4105 29.7086 94.3483 29.4736 94.2261 29.2829C94.1086 29.0945 93.945 28.9349 93.7376 28.8041C93.3251 28.5735 92.7973 28.4582 92.1521 28.4582C91.4331 28.4582 91.0736 28.3429 91.0736 28.1123C91.0736 27.8884 91.4331 27.7754 92.1521 27.7754C92.4217 27.7754 92.6775 27.7532 92.9172 27.7044C93.1615 27.6512 93.3712 27.5692 93.544 27.4561C93.7145 27.3452 93.8505 27.1945 93.9496 27.0038C94.0464 26.8154 94.0971 26.5826 94.0971 26.3032C94.0971 26.0439 94.028 25.8221 93.8943 25.6381C93.7583 25.4497 93.5901 25.3078 93.3873 25.2125V25.1681L94.051 25.0706V24.8223H92.1521C91.894 24.8223 91.6451 24.8489 91.4054 24.9021C91.1658 24.9509 90.956 25.0262 90.7786 25.1327C90.6127 25.2457 90.4767 25.3965 90.373 25.5849C90.2739 25.7756 90.2255 26.015 90.2255 26.3032ZM93.1845 26.3032C93.1845 26.5116 93.1569 26.6846 93.1015 26.8265C93.0508 26.9684 92.9817 27.0836 92.8895 27.1723C92.7098 27.3452 92.4655 27.4295 92.1521 27.4295C91.8502 27.4295 91.6105 27.3452 91.4331 27.1723C91.3524 27.0836 91.281 26.9684 91.2211 26.8265C91.1658 26.6846 91.1381 26.5116 91.1381 26.3032C91.1381 26.086 91.1658 25.9042 91.2211 25.7623C91.281 25.616 91.3524 25.4962 91.4331 25.4076C91.6105 25.2479 91.8502 25.1681 92.1521 25.1681C92.4402 25.1681 92.6821 25.2568 92.8803 25.4342C93.0831 25.6115 93.1845 25.902 93.1845 26.3032ZM91.7004 28.8041L92.2627 28.8484C93.0785 28.9615 93.4887 29.3428 93.4887 29.9924C93.4887 30.3826 93.362 30.6664 93.1108 30.8437C92.8642 31.0211 92.5439 31.1098 92.1521 31.1098C91.7695 31.1098 91.4538 31.0211 91.2026 30.8437C90.9491 30.6664 90.8247 30.3826 90.8247 29.9924C90.8247 29.6731 90.903 29.4226 91.0644 29.2386C91.2303 29.0501 91.4423 28.906 91.7004 28.8041Z" fill="white"/>
<path d="M103.797 25.1149H104.018C104.018 24.82 104.004 24.5385 103.981 24.2724C103.963 24.0064 103.884 23.7935 103.751 23.6339C103.566 23.4277 103.271 23.2481 102.866 23.093C102.46 22.9333 101.972 22.8535 101.4 22.8535C100.962 22.8535 100.552 22.9488 100.165 23.1373C99.7823 23.3213 99.4505 23.5718 99.1693 23.8911C98.8789 24.1993 98.6531 24.5695 98.4872 24.9996C98.3212 25.4319 98.2383 25.8953 98.2383 26.3919C98.2383 27.3452 98.524 28.1345 99.0956 28.7597C99.3652 29.0612 99.697 29.3006 100.091 29.478C100.483 29.6487 100.921 29.7352 101.4 29.7352C101.713 29.7352 102.004 29.7086 102.276 29.6554C102.545 29.6066 102.794 29.5201 103.022 29.3893C103.248 29.2474 103.465 29.0789 103.668 28.8838C103.87 28.6843 104.055 28.4271 104.221 28.1123L104.018 27.9704C103.728 28.4205 103.4 28.7641 103.032 28.9991C102.668 29.2297 102.23 29.345 101.713 29.345C101.276 29.345 100.905 29.263 100.598 29.0967C100.289 28.926 100.031 28.6976 99.8238 28.4138C99.6256 28.1367 99.4827 27.8241 99.3905 27.4738C99.2984 27.1257 99.2523 26.7644 99.2523 26.3919C99.2523 25.8022 99.3168 25.3078 99.4458 24.9109C99.5749 24.5096 99.7523 24.1837 99.9805 23.9354C100.206 23.6871 100.469 23.5098 100.764 23.4033C101.064 23.2969 101.382 23.2437 101.713 23.2437C102.285 23.2437 102.741 23.3945 103.087 23.696C103.437 23.9975 103.672 24.4719 103.797 25.1149Z" fill="white"/>
<path d="M109.11 27.3852L109.119 26.9772C109.119 26.2855 108.953 25.7534 108.622 25.381C108.29 25.0085 107.776 24.8223 107.082 24.8223C106.762 24.8223 106.474 24.8843 106.216 25.0085C105.962 25.1327 105.748 25.3056 105.57 25.5228C105.391 25.7423 105.259 25.9973 105.174 26.2855C105.086 26.5759 105.045 26.893 105.045 27.2344C105.045 27.567 105.086 27.8773 105.174 28.1656C105.259 28.456 105.391 28.7109 105.57 28.9282C105.748 29.1477 105.971 29.3228 106.243 29.4514C106.513 29.58 106.824 29.6465 107.174 29.6465C107.566 29.6465 107.914 29.5667 108.216 29.4071C108.516 29.2475 108.783 28.9814 109.018 28.609L108.815 28.4582C108.635 28.7132 108.433 28.9083 108.207 29.0435C107.985 29.1743 107.709 29.2386 107.377 29.2386C107.16 29.2386 106.971 29.192 106.806 29.0967C106.64 29.0036 106.492 28.875 106.363 28.7154C106.123 28.3784 106.004 27.935 106.004 27.3852H109.11ZM108.161 26.9772H106.004C106.004 26.4584 106.107 26.0372 106.317 25.7179C106.409 25.5583 106.515 25.4342 106.64 25.3455C106.769 25.2568 106.916 25.2125 107.082 25.2125C107.444 25.2125 107.714 25.3677 107.893 25.6736C108.071 25.9751 108.161 26.4097 108.161 26.9772Z" fill="white"/>
<path d="M111.364 29.5401V25.78C111.497 25.6381 111.652 25.5184 111.825 25.4164C111.995 25.3167 112.186 25.2657 112.396 25.2657C112.703 25.2657 112.961 25.361 113.17 25.5495C113.274 25.6514 113.357 25.7889 113.419 25.9663C113.479 26.1436 113.511 26.352 113.511 26.587V29.5401H114.433V26.587C114.433 26.2389 114.383 25.9463 114.286 25.7091C114.187 25.4741 114.055 25.2923 113.889 25.1681C113.723 25.0262 113.539 24.9353 113.336 24.8932C113.134 24.8467 112.917 24.8223 112.691 24.8223C112.389 24.8223 112.124 24.8755 111.898 24.9819C111.677 25.0839 111.497 25.1925 111.364 25.31H111.318C111.267 25.1925 111.175 25.0972 111.041 25.0262C110.912 24.9553 110.712 24.9198 110.442 24.9198H109.529V25.1149H109.732C110.039 25.1149 110.232 25.208 110.313 25.3898C110.398 25.5672 110.442 25.8022 110.442 26.0904V29.5401H111.364Z" fill="white"/>
<path d="M116.048 25.3101V28.3519C116.048 28.8086 116.161 29.139 116.389 29.3451C116.621 29.5447 116.914 29.6467 117.264 29.6467C117.442 29.6467 117.601 29.6311 117.744 29.6023C117.884 29.5713 118.004 29.538 118.103 29.4959C118.207 29.456 118.292 29.4139 118.361 29.3717C118.428 29.3252 118.49 29.2808 118.546 29.2387L118.454 29.0436C118.348 29.0968 118.237 29.1456 118.122 29.1855C118.011 29.221 117.866 29.2387 117.688 29.2387C117.209 29.2387 116.969 28.9439 116.969 28.3519V25.3101H118.186V24.9199H116.969V23.439H116.545L116.048 24.042V24.9199H115.338V25.3101H116.048Z" fill="white"/>
<path d="M123.108 27.3852L123.117 26.9772C123.117 26.2855 122.951 25.7534 122.62 25.381C122.288 25.0085 121.774 24.8223 121.08 24.8223C120.76 24.8223 120.472 24.8843 120.214 25.0085C119.96 25.1327 119.746 25.3056 119.568 25.5228C119.389 25.7423 119.257 25.9973 119.172 26.2855C119.084 26.5759 119.043 26.893 119.043 27.2344C119.043 27.567 119.084 27.8773 119.172 28.1656C119.257 28.456 119.389 28.7109 119.568 28.9282C119.746 29.1477 119.969 29.3228 120.241 29.4514C120.511 29.58 120.822 29.6465 121.172 29.6465C121.564 29.6465 121.912 29.5667 122.214 29.4071C122.514 29.2475 122.781 28.9814 123.016 28.609L122.813 28.4582C122.633 28.7132 122.431 28.9083 122.205 29.0435C121.984 29.1743 121.707 29.2386 121.375 29.2386C121.159 29.2386 120.97 29.192 120.804 29.0967C120.638 29.0036 120.49 28.875 120.361 28.7154C120.121 28.3784 120.002 27.935 120.002 27.3852H123.108ZM122.159 26.9772H120.002C120.002 26.4584 120.105 26.0372 120.315 25.7179C120.407 25.5583 120.513 25.4342 120.638 25.3455C120.767 25.2568 120.914 25.2125 121.08 25.2125C121.442 25.2125 121.712 25.3677 121.891 25.6736C122.069 25.9751 122.159 26.4097 122.159 26.9772Z" fill="white"/>
<path d="M125.297 29.5401V25.8953C125.518 25.5716 125.841 25.4076 126.265 25.4076C126.652 25.4076 126.922 25.5051 127.076 25.7002L127.5 25.4076C127.431 25.3078 127.373 25.2213 127.325 25.1504C127.274 25.0794 127.214 25.0218 127.14 24.973C127.067 24.9198 126.968 24.8821 126.846 24.8577C126.728 24.8356 126.617 24.8223 126.514 24.8223C126.212 24.8223 125.961 24.8821 125.758 24.9996C125.555 25.1193 125.401 25.2369 125.297 25.3544H125.242C125.186 25.208 125.094 25.0972 124.965 25.0262C124.836 24.9553 124.636 24.9198 124.366 24.9198H123.555V25.1149H123.665C123.965 25.1149 124.156 25.208 124.237 25.3898C124.322 25.5672 124.366 25.8022 124.366 26.0904V29.5401H125.297Z" fill="white"/>
<path d="M6.50544 14.3979C6.85572 14.3979 7.14609 14.4223 7.38115 14.4689C7.62082 14.5177 7.80057 14.5975 7.92501 14.7083C8.05407 14.8148 8.12781 14.9522 8.14625 15.1163C8.16468 15.2759 8.1739 15.522 8.1739 15.8523H7.98032C7.94806 15.4754 7.8167 15.2183 7.58395 15.0808C7.34889 14.9389 7.06082 14.868 6.71745 14.868C6.21968 14.868 5.85557 15.0232 5.62973 15.3291C5.40158 15.6306 5.28866 16.043 5.28866 16.5618C5.28866 16.8101 5.31171 17.0451 5.3624 17.2624C5.41771 17.4818 5.50528 17.6703 5.62973 17.8299C5.87401 18.1802 6.2312 18.3531 6.69902 18.3531H12.5432C12.7023 18.3531 12.859 18.331 13.0134 18.2822C13.1655 18.229 13.3083 18.1469 13.4374 18.0339C13.5526 17.923 13.6517 17.7745 13.7324 17.5905C13.8107 17.4087 13.8614 17.1825 13.8799 16.9165V14.5221H15.6497V14.664H15.5022C15.2741 14.664 15.1335 14.7261 15.0782 14.8502C15.0229 14.9699 14.9952 15.1229 14.9952 15.3114V16.9165C15.0068 17.1825 15.0528 17.4087 15.1335 17.5905C15.2188 17.7745 15.3271 17.923 15.4561 18.0339C15.5783 18.1469 15.7165 18.229 15.8709 18.2822C16.023 18.331 16.1797 18.3531 16.3411 18.3531H16.5807V18.7079H15.7419C15.2556 18.7079 14.8201 18.5083 14.4329 18.1048C14.0642 18.5083 13.631 18.7079 13.1332 18.7079H6.50544C6.13672 18.7079 5.80717 18.6524 5.51911 18.5394C5.23566 18.4219 4.99368 18.2622 4.79089 18.0605C4.37147 17.6703 4.16406 17.1715 4.16406 16.5618C4.16406 16.2669 4.21476 15.9898 4.32077 15.7282C4.42447 15.4621 4.58118 15.2293 4.79089 15.0276C4.99368 14.8325 5.23566 14.6795 5.51911 14.5664C5.80717 14.4556 6.13672 14.3979 6.50544 14.3979ZM10.0544 19.5415C10.2134 19.5415 10.3447 19.5902 10.4508 19.6922C10.5614 19.7986 10.6167 19.9272 10.6167 20.0824C10.6167 20.2243 10.5614 20.3485 10.4508 20.4549C10.3447 20.5613 10.2134 20.6145 10.0544 20.6145C9.90689 20.6145 9.77784 20.5613 9.66722 20.4549C9.5566 20.3485 9.5013 20.2243 9.5013 20.0824C9.5013 19.9272 9.5566 19.7986 9.66722 19.6922C9.77784 19.5902 9.90689 19.5415 10.0544 19.5415Z" fill="white"/>
<path d="M19.3266 14.6639H19.1791C18.951 14.6639 18.8104 14.7259 18.7551 14.8501C18.6998 14.9698 18.6721 15.1228 18.6721 15.3112V16.6415C18.6721 16.9607 18.6122 17.2489 18.497 17.5017C18.3864 17.75 18.2412 17.9606 18.0637 18.1313C17.6881 18.5171 17.271 18.7077 16.8101 18.7077H15.9805V18.353H16.2201C16.3722 18.353 16.5266 18.3308 16.681 18.2821C16.8331 18.2289 16.976 18.1468 17.1051 18.0338C17.2272 17.9229 17.3286 17.7744 17.4093 17.5903C17.4876 17.4085 17.5383 17.1824 17.5567 16.9164V14.522H19.3266V14.6639ZM17.2433 19.5413C17.4023 19.5413 17.5337 19.5901 17.6397 19.6921C17.7434 19.7985 17.7964 19.9249 17.7964 20.0734C17.7964 20.2197 17.7434 20.3483 17.6397 20.4548C17.5337 20.5612 17.4023 20.6144 17.2433 20.6144C17.082 20.6144 16.9507 20.5612 16.847 20.4548C16.741 20.3483 16.6903 20.2197 16.6903 20.0734C16.6903 19.9249 16.741 19.7985 16.847 19.6921C16.9507 19.5901 17.082 19.5413 17.2433 19.5413ZM18.626 19.5413C18.7851 19.5413 18.921 19.5901 19.0316 19.6921C19.1422 19.7985 19.1976 19.9249 19.1976 20.0734C19.1976 20.2197 19.1422 20.3483 19.0316 20.4548C18.921 20.5612 18.7851 20.6144 18.626 20.6144C18.4786 20.6144 18.3495 20.5612 18.2389 20.4548C18.1329 20.3483 18.0822 20.2197 18.0822 20.0734C18.0822 19.9249 18.1329 19.7985 18.2389 19.6921C18.3495 19.5901 18.4786 19.5413 18.626 19.5413Z" fill="white"/>
<path d="M22.0129 14.6372H21.8562C21.6396 14.6372 21.5013 14.697 21.4414 14.8145C21.3861 14.9276 21.3585 15.0784 21.3585 15.2668V18.7076C21.3585 19.0912 21.2778 19.4016 21.1188 19.6388C20.9575 19.8738 20.7731 20.0667 20.5657 20.2152C20.3445 20.3571 20.1256 20.4591 19.9112 20.5256C19.7015 20.5965 19.5379 20.6431 19.4135 20.6675C19.3167 20.6897 19.2637 20.6874 19.2568 20.6586C19.2337 20.6409 19.2475 20.6165 19.3028 20.5877C19.5195 20.4635 19.6854 20.3216 19.8098 20.162C19.932 20.0024 20.0311 19.8361 20.1048 19.6654C20.1601 19.5058 20.197 19.3417 20.2154 19.1776C20.2385 19.018 20.2523 18.8673 20.2523 18.7254V14.4775H22.0129V14.6372Z" fill="white"/>
<path d="M24.5291 14.3979C24.8978 14.3979 25.2227 14.4556 25.5062 14.5664C25.7943 14.6795 26.0408 14.8325 26.2436 15.0276C26.6538 15.4488 26.8612 15.9587 26.8612 16.5618V16.8899C26.9165 17.8654 27.3959 18.3531 28.2992 18.3531H28.5205V18.7079H27.6816C27.4835 18.6968 27.3221 18.668 27.1931 18.6192C27.064 18.5726 26.9188 18.4862 26.7598 18.362C26.5985 18.2511 26.4695 18.1093 26.3727 17.9363C26.1745 18.1736 25.921 18.362 25.6076 18.5039C25.2942 18.6413 24.9347 18.7079 24.5291 18.7079H22.75V18.3531H24.3355C24.801 18.3531 25.1582 18.1802 25.4048 17.8299C25.5269 17.6703 25.6122 17.4818 25.6629 17.2624C25.7182 17.0451 25.7459 16.8101 25.7459 16.5618C25.7459 16.043 25.6283 15.6306 25.3956 15.3291C25.1605 15.0232 24.801 14.868 24.3171 14.868C23.9714 14.868 23.6833 14.9389 23.4506 15.0808C23.2155 15.2183 23.0842 15.4754 23.0542 15.8523H22.8606C22.8606 15.522 22.8698 15.2759 22.8883 15.1163C22.9067 14.9522 22.9805 14.8148 23.1095 14.7083C23.2316 14.5975 23.4091 14.5177 23.6441 14.4689C23.8838 14.4223 24.1788 14.3979 24.5291 14.3979Z" fill="white"/>
<path d="M29.1149 12.6152C29.2739 12.6152 29.4053 12.6684 29.5113 12.7749C29.615 12.8813 29.668 13.0121 29.668 13.1651C29.668 13.3069 29.615 13.4311 29.5113 13.5375C29.4053 13.6395 29.2739 13.6883 29.1149 13.6883C28.9536 13.6883 28.8222 13.6395 28.7185 13.5375C28.6125 13.4311 28.5618 13.3069 28.5618 13.1651C28.5618 13.0121 28.6125 12.8813 28.7185 12.7749C28.8222 12.6684 28.9536 12.6152 29.1149 12.6152ZM30.4976 12.6152C30.6566 12.6152 30.7926 12.6684 30.9032 12.7749C31.0138 12.8813 31.0691 13.0121 31.0691 13.1651C31.0691 13.3069 31.0138 13.4311 30.9032 13.5375C30.7926 13.6395 30.6566 13.6883 30.4976 13.6883C30.3501 13.6883 30.2211 13.6395 30.1105 13.5375C29.9998 13.4311 29.9445 13.3069 29.9445 13.1651C29.9445 13.0121 29.9998 12.8813 30.1105 12.7749C30.2211 12.6684 30.3501 12.6152 30.4976 12.6152ZM31.023 14.6638H30.8755C30.6543 14.6638 30.5114 14.7258 30.4515 14.85C30.3962 14.9697 30.3686 15.1227 30.3686 15.3111V18.3529H32.3596V18.7076H27.9258V18.3529H29.2532V14.5219H31.023V14.6638Z" fill="white"/>
<path d="M35.1045 12.5V12.6596C34.8141 12.6596 34.6344 12.7195 34.5606 12.837C34.4869 12.9501 34.45 13.1008 34.45 13.2893V16.8897C34.4984 17.8652 34.9754 18.353 35.8788 18.353H36.1V18.7077H35.252C35.0538 18.6966 34.8925 18.6678 34.7634 18.619C34.639 18.5724 34.4961 18.486 34.3302 18.3618C34.1873 18.2798 34.0836 18.1756 34.0168 18.0514C33.6596 18.4904 33.1825 18.7077 32.588 18.7077H31.7676V18.353H31.9888C32.1478 18.353 32.3045 18.3264 32.4589 18.2731C32.6179 18.2199 32.7585 18.1357 32.883 18.016C32.9982 17.9051 33.0973 17.7588 33.1779 17.5814C33.2563 17.3996 33.307 17.1713 33.3254 16.8986V12.5H35.1045Z" fill="white"/>
<path d="M38.8704 12.5V12.6596C38.5801 12.6596 38.4003 12.7195 38.3266 12.837C38.2528 12.9501 38.216 13.1008 38.216 13.2893V16.7124C38.216 17.3154 38.0362 17.8009 37.6813 18.1667C37.5085 18.3397 37.308 18.4727 37.0821 18.5658C36.8609 18.6611 36.6166 18.7077 36.3539 18.7077H35.5059V18.353H35.7547C35.9138 18.353 36.0728 18.3264 36.2341 18.2731C36.3931 18.2199 36.5314 18.1357 36.6489 18.016C36.771 17.9051 36.8701 17.7588 36.9439 17.5814C37.0222 17.3996 37.0752 17.1713 37.1006 16.8986V12.5H38.8704Z" fill="white"/>
<path d="M44.172 12.6152C44.331 12.6152 44.4623 12.6684 44.5683 12.7749C44.672 12.8813 44.725 13.0121 44.725 13.1651C44.725 13.3069 44.672 13.4311 44.5683 13.5375C44.4623 13.6395 44.331 13.6883 44.172 13.6883C44.0107 13.6883 43.8793 13.6395 43.7756 13.5375C43.6696 13.4311 43.6189 13.3069 43.6189 13.1651C43.6189 13.0121 43.6696 12.8813 43.7756 12.7749C43.8793 12.6684 44.0107 12.6152 44.172 12.6152ZM45.5547 12.6152C45.7137 12.6152 45.8496 12.6684 45.9603 12.7749C46.0709 12.8813 46.1262 13.0121 46.1262 13.1651C46.1262 13.3069 46.0709 13.4311 45.9603 13.5375C45.8496 13.6395 45.7137 13.6883 45.5547 13.6883C45.4072 13.6883 45.2781 13.6395 45.1675 13.5375C45.0569 13.4311 45.0016 13.3069 45.0016 13.1651C45.0016 13.0121 45.0569 12.8813 45.1675 12.7749C45.2781 12.6684 45.4072 12.6152 45.5547 12.6152ZM47.8315 14.6372H47.7025C47.4743 14.6372 47.3337 14.697 47.2784 14.8145C47.2231 14.9342 47.1955 15.0894 47.1955 15.2845V18.7076H44.8725C44.5822 18.7076 44.2872 18.6544 43.9876 18.548C43.6926 18.4372 43.4253 18.2886 43.1856 18.1046C42.946 17.9162 42.7478 17.6945 42.5957 17.4395C42.4413 17.1868 42.3652 16.903 42.3652 16.5882C42.3652 15.9497 42.6464 15.4397 43.2133 15.054C43.4829 14.8722 43.8125 14.7303 44.1996 14.6283C44.5868 14.5285 45.02 14.4775 45.4994 14.4775H47.8315V14.6372ZM46.0801 18.3529V15.0096C45.7782 14.9276 45.474 14.8943 45.1675 14.9121C44.8587 14.9298 44.5776 15.0074 44.3195 15.1427C44.0613 15.2735 43.8493 15.4619 43.6834 15.7102C43.5221 15.9541 43.4437 16.249 43.4437 16.597C43.4437 17.0892 43.5682 17.506 43.8217 17.8474C44.0729 18.1844 44.4162 18.3529 44.8541 18.3529H46.0801Z" fill="white"/>
<path d="M50.3533 14.3979C50.722 14.3979 51.047 14.4556 51.3304 14.5664C51.6185 14.6795 51.8651 14.8325 52.0678 15.0276C52.478 15.4488 52.6855 15.9587 52.6855 16.5618V16.8899C52.7408 17.8654 53.2201 18.3531 54.1235 18.3531H54.3447V18.7079H53.5059C53.3077 18.6968 53.1464 18.668 53.0173 18.6192C52.8883 18.5726 52.7431 18.4862 52.5841 18.362C52.4227 18.2511 52.2937 18.1093 52.1969 17.9363C51.9987 18.1736 51.7452 18.362 51.4318 18.5039C51.1184 18.6413 50.7589 18.7079 50.3533 18.7079H48.5742V18.3531H50.1597C50.6252 18.3531 50.9824 18.1802 51.229 17.8299C51.3511 17.6703 51.4364 17.4818 51.4871 17.2624C51.5424 17.0451 51.5701 16.8101 51.5701 16.5618C51.5701 16.043 51.4525 15.6306 51.2198 15.3291C50.9847 15.0232 50.6252 14.868 50.1413 14.868C49.7956 14.868 49.5075 14.9389 49.2748 15.0808C49.0397 15.2183 48.9084 15.4754 48.8784 15.8523H48.6848C48.6848 15.522 48.6941 15.2759 48.7125 15.1163C48.7309 14.9522 48.8047 14.8148 48.9337 14.7083C49.0559 14.5975 49.2333 14.5177 49.4684 14.4689C49.708 14.4223 50.003 14.3979 50.3533 14.3979Z" fill="white"/>
<path d="M55.0774 15.3379L56.3126 14.1318C57.0063 14.8058 57.5847 15.3645 58.0456 15.8079C58.5065 16.2513 58.8867 16.6127 59.1886 16.8898C59.3223 17.0317 59.4467 17.1603 59.5574 17.2712C59.6726 17.3776 59.7717 17.4707 59.8523 17.5461L60.2303 17.9097C60.3155 17.9939 60.3801 18.0649 60.4238 18.1225C60.4722 18.1757 60.5299 18.2533 60.599 18.3531H61.8987V18.7078H60.7926C60.8894 18.9428 60.9424 19.1711 60.9493 19.3906C60.9608 19.6146 60.9424 19.8163 60.894 19.9937C60.8571 20.1755 60.7972 20.3395 60.7188 20.4814C60.6382 20.6277 60.5736 20.743 60.5252 20.8273C60.4745 20.9027 60.4354 20.9359 60.4054 20.9248C60.3731 20.9248 60.3685 20.9004 60.387 20.8539C60.4469 20.6277 60.4653 20.4149 60.4423 20.2154C60.4169 20.0136 60.3639 19.8296 60.2856 19.6655C60.2049 19.5059 60.1104 19.3596 59.9998 19.231C59.8938 19.1002 59.7901 18.9827 59.6864 18.8763L59.5113 18.7078H53.75V18.3531H59.1518L56.1006 15.4443C55.9577 15.3091 55.8241 15.2204 55.695 15.1783C55.566 15.1317 55.4277 15.1849 55.2802 15.3379L55.1788 15.4443L55.0774 15.3379Z" fill="white"/>
<path d="M62.4899 12.6152C62.6489 12.6152 62.7803 12.6684 62.8863 12.7749C62.99 12.8813 63.043 13.0121 63.043 13.1651C63.043 13.3069 62.99 13.4311 62.8863 13.5375C62.7803 13.6395 62.6489 13.6883 62.4899 13.6883C62.3286 13.6883 62.1972 13.6395 62.0935 13.5375C61.9875 13.4311 61.9368 13.3069 61.9368 13.1651C61.9368 13.0121 61.9875 12.8813 62.0935 12.7749C62.1972 12.6684 62.3286 12.6152 62.4899 12.6152ZM63.8726 12.6152C64.0316 12.6152 64.1676 12.6684 64.2782 12.7749C64.3888 12.8813 64.4441 13.0121 64.4441 13.1651C64.4441 13.3069 64.3888 13.4311 64.2782 13.5375C64.1676 13.6395 64.0316 13.6883 63.8726 13.6883C63.7251 13.6883 63.5961 13.6395 63.4855 13.5375C63.3748 13.4311 63.3195 13.3069 63.3195 13.1651C63.3195 13.0121 63.3748 12.8813 63.4855 12.7749C63.5961 12.6684 63.7251 12.6152 63.8726 12.6152ZM64.398 14.6638H64.2505C64.0293 14.6638 63.8864 14.7258 63.8265 14.85C63.7712 14.9697 63.7436 15.1227 63.7436 15.3111V18.3529H65.7346V18.7076H61.3008V18.3529H62.6282V14.5219H64.398V14.6638Z" fill="white"/>
<path d="M69.4013 14.4951C69.7885 14.4951 70.1434 14.5572 70.4706 14.6813C70.8024 14.8055 71.0698 14.9696 71.2726 15.1691C71.5053 15.3886 71.6735 15.6369 71.7796 15.914C71.8902 16.1934 71.9547 16.4816 71.9731 16.7831V16.9693C71.9847 17.2487 72.0192 17.4748 72.0745 17.6522C72.1344 17.8295 72.2174 17.9714 72.3234 18.0778C72.4202 18.1843 72.5354 18.2596 72.6645 18.2995C72.7935 18.335 72.9364 18.3528 73.0977 18.3528H73.66V18.7075H72.6921C72.5446 18.6897 72.4064 18.6631 72.2773 18.6277C72.1483 18.5878 72.0377 18.5212 71.9455 18.4326C71.8948 18.386 71.8487 18.3395 71.8072 18.2907C71.7703 18.2441 71.7335 18.1909 71.6966 18.131C71.5675 18.3616 71.397 18.57 71.1896 18.7518C70.9868 18.9403 70.7218 19.0888 70.3968 19.1952C70.0581 19.3061 69.6778 19.3637 69.2538 19.3637C68.8667 19.3637 68.5118 19.3016 68.1937 19.1775C67.8734 19.0533 67.6084 18.8893 67.401 18.6897C67.3134 18.6077 67.2351 18.5212 67.1613 18.4326C67.0922 18.3395 67.0346 18.2441 66.9862 18.1488C66.8571 18.386 66.6682 18.5434 66.4239 18.6188C66.281 18.6676 66.1404 18.6964 65.9999 18.7075H65.1426V18.3528H65.6035C65.751 18.3528 65.8846 18.335 66.0091 18.2995C66.1312 18.2641 66.2441 18.1998 66.3501 18.1044C66.546 17.916 66.6636 17.5812 66.7004 17.1023V16.9339C66.7004 16.1889 66.9493 15.5948 67.4471 15.1514C67.9011 14.7146 68.5532 14.4951 69.4013 14.4951ZM69.3552 14.8853C68.8759 14.8853 68.5025 15.0582 68.2398 15.3997C68.1108 15.577 68.0094 15.7721 67.9356 15.985C67.8665 16.1978 67.8342 16.4638 67.8342 16.7831C67.8342 17.1511 67.8757 17.4526 67.9633 17.6876C68.0486 17.9182 68.1592 18.1399 68.2951 18.3528C68.5832 18.7474 68.9519 18.9469 69.4013 18.9469C69.8668 18.9469 70.2332 18.7718 70.4982 18.4237C70.6388 18.253 70.7333 18.0645 70.784 17.8561C70.8324 17.65 70.8577 17.3906 70.8577 17.0757C70.8577 16.7099 70.8232 16.4062 70.7564 16.1623C70.6941 15.9207 70.595 15.699 70.4614 15.4972C70.1779 15.0893 69.8092 14.8853 69.3552 14.8853Z" fill="white"/>
<path d="M76.431 12.5V12.6596C76.1406 12.6596 75.9609 12.7195 75.8871 12.837C75.8134 12.9501 75.7765 13.1008 75.7765 13.2893V16.7124C75.7765 17.3154 75.5968 17.8009 75.2419 18.1667C75.069 18.3397 74.8685 18.4727 74.6427 18.5658C74.4215 18.6611 74.1772 18.7077 73.9145 18.7077H73.0664V18.353H73.3153C73.4743 18.353 73.6333 18.3264 73.7946 18.2731C73.9536 18.2199 74.0919 18.1357 74.2094 18.016C74.3316 17.9051 74.4307 17.7588 74.5044 17.5814C74.5828 17.3996 74.6358 17.1713 74.6611 16.8986V12.5H76.431Z" fill="white"/>
<path d="M78.8563 12.5177V12.6419C78.566 12.6419 78.3885 12.704 78.3217 12.8281C78.2526 12.9478 78.2203 13.1008 78.2203 13.2893V18.7077H77.0957V12.5L78.8563 12.5177Z" fill="white"/>
<path d="M82.7937 12.6152C82.9527 12.6152 83.084 12.6684 83.19 12.7749C83.3007 12.8813 83.356 13.0054 83.356 13.1473C83.356 13.3025 83.3007 13.4311 83.19 13.5375C83.084 13.6395 82.9527 13.6883 82.7937 13.6883C82.6462 13.6883 82.5171 13.6395 82.4065 13.5375C82.2959 13.4311 82.2406 13.3025 82.2406 13.1473C82.2406 13.0054 82.2959 12.8813 82.4065 12.7749C82.5171 12.6684 82.6462 12.6152 82.7937 12.6152ZM84.0012 14.6372H83.8445C83.6279 14.6372 83.4896 14.697 83.4297 14.8145C83.3744 14.9276 83.3467 15.0784 83.3467 15.2668V18.7076C83.3467 19.0912 83.2661 19.4016 83.1071 19.6388C82.9458 19.8738 82.7614 20.0667 82.554 20.2152C82.3328 20.3571 82.1138 20.4591 81.8995 20.5256C81.6898 20.5965 81.5262 20.6431 81.4017 20.6675C81.305 20.6897 81.252 20.6874 81.245 20.6586C81.222 20.6409 81.2358 20.6165 81.2911 20.5877C81.5078 20.4635 81.6737 20.3216 81.7981 20.162C81.9203 20.0024 82.0194 19.8361 82.0931 19.6654C82.1484 19.5058 82.1853 19.3417 82.2037 19.1776C82.2268 19.018 82.2406 18.8673 82.2406 18.7254V14.4775H84.0012V14.6372Z" fill="white"/>
<path d="M86.4989 12.5V12.6419C86.2086 12.6419 86.0288 12.704 85.9551 12.8281C85.8813 12.9478 85.8444 13.1008 85.8444 13.2893V18.353H87.1534V18.7077H84.7383V12.5H86.4989Z" fill="white"/>
<path d="M87.8899 15.3379L89.1251 14.1318C89.8188 14.8058 90.3972 15.3645 90.8581 15.8079C91.319 16.2513 91.6992 16.6127 92.0011 16.8898C92.1348 17.0317 92.2592 17.1603 92.3699 17.2712C92.4851 17.3776 92.5842 17.4707 92.6648 17.5461L93.0428 17.9097C93.128 17.9939 93.1926 18.0649 93.2363 18.1225C93.2847 18.1757 93.3424 18.2533 93.4115 18.3531H94.7112V18.7078H93.6051C93.7019 18.9428 93.7549 19.1711 93.7618 19.3906C93.7733 19.6146 93.7549 19.8163 93.7065 19.9937C93.6696 20.1755 93.6097 20.3395 93.5313 20.4814C93.4507 20.6277 93.3861 20.743 93.3377 20.8273C93.287 20.9027 93.2479 20.9359 93.2179 20.9248C93.1856 20.9248 93.181 20.9004 93.1995 20.8539C93.2594 20.6277 93.2778 20.4149 93.2548 20.2154C93.2294 20.0136 93.1764 19.8296 93.0981 19.6655C93.0174 19.5059 92.9229 19.3596 92.8123 19.231C92.7063 19.1002 92.6026 18.9827 92.4989 18.8763L92.3238 18.7078H86.5625V18.3531H91.9643L88.9131 15.4443C88.7702 15.3091 88.6366 15.2204 88.5075 15.1783C88.3785 15.1317 88.2402 15.1849 88.0927 15.3379L87.9913 15.4443L87.8899 15.3379ZM89.6874 19.5414C89.8464 19.5414 89.9778 19.5902 90.0838 19.6922C90.1944 19.7986 90.2497 19.9249 90.2497 20.0735C90.2497 20.2198 90.1944 20.3484 90.0838 20.4548C89.9778 20.5612 89.8464 20.6144 89.6874 20.6144C89.5399 20.6144 89.4109 20.5612 89.3003 20.4548C89.1896 20.3484 89.1343 20.2198 89.1343 20.0735C89.1343 19.9249 89.1896 19.7986 89.3003 19.6922C89.4109 19.5902 89.5399 19.5414 89.6874 19.5414Z" fill="white"/>
<path d="M96.2426 12.6152C96.4017 12.6152 96.533 12.6684 96.639 12.7749C96.7496 12.8813 96.8049 13.0121 96.8049 13.1651C96.8049 13.3069 96.7496 13.4311 96.639 13.5375C96.533 13.6395 96.4017 13.6883 96.2426 13.6883C96.0952 13.6883 95.9661 13.6395 95.8555 13.5375C95.7449 13.4311 95.6896 13.3069 95.6896 13.1651C95.6896 13.0121 95.7449 12.8813 95.8555 12.7749C95.9661 12.6684 96.0952 12.6152 96.2426 12.6152ZM97.4594 14.6638H97.3119C97.0838 14.6638 96.9432 14.7258 96.8879 14.85C96.8326 14.9697 96.8049 15.1227 96.8049 15.3111V16.6414C96.8049 16.9606 96.745 17.2488 96.6298 17.5016C96.5192 17.7499 96.374 17.9605 96.1966 18.1312C95.8209 18.517 95.4038 18.7076 94.9429 18.7076H94.1133V18.3529H94.3529C94.505 18.3529 94.6594 18.3307 94.8139 18.282C94.9659 18.2288 95.1088 18.1467 95.2379 18.0337C95.36 17.9228 95.4614 17.7743 95.5421 17.5903C95.6204 17.4085 95.6711 17.1823 95.6896 16.9163V14.5219H97.4594V14.6638Z" fill="white"/>
<path d="M99.8785 12.5177V12.6419C99.5881 12.6419 99.4038 12.704 99.3254 12.8281C99.2517 12.9478 99.2148 13.1008 99.2148 13.2893V18.7077H98.1178V12.5L99.8785 12.5177ZM98.8 19.5413C99.118 19.5413 99.3346 19.579 99.4452 19.6566C99.5005 19.7031 99.5328 19.7541 99.5466 19.8073C99.5582 19.865 99.5651 19.9537 99.5651 20.0734H99.4729C99.4545 19.9359 99.3922 19.8428 99.2885 19.7896C99.1825 19.7364 99.0512 19.7098 98.8922 19.7098C98.664 19.7098 98.4981 19.7652 98.3944 19.8783C98.2884 19.9958 98.2377 20.1465 98.2377 20.3306C98.2377 20.519 98.2884 20.6764 98.3944 20.8006C98.4981 20.9247 98.664 20.9868 98.8922 20.9868H99.6019V21.1908H97.5371V21.0045H98.1916C97.8828 20.856 97.7307 20.6321 97.7307 20.3306C97.7307 20.1044 97.8229 19.916 98.0072 19.763C98.1962 19.6145 98.4612 19.5413 98.8 19.5413Z" fill="white"/>
<path d="M103.898 12.6152C104.057 12.6152 104.193 12.6684 104.303 12.7749C104.414 12.8813 104.469 13.0054 104.469 13.1473C104.469 13.3025 104.414 13.4311 104.303 13.5375C104.193 13.6395 104.057 13.6883 103.898 13.6883C103.75 13.6883 103.621 13.6395 103.511 13.5375C103.405 13.4311 103.354 13.3025 103.354 13.1473C103.354 13.0054 103.405 12.8813 103.511 12.7749C103.621 12.6684 103.75 12.6152 103.898 12.6152ZM105.105 14.6372H104.958C104.741 14.6372 104.603 14.697 104.543 14.8145C104.481 14.9276 104.451 15.0784 104.451 15.2668V18.3529H106.267V18.7076H104.442C104.442 19.0912 104.361 19.4016 104.202 19.6388C104.041 19.8738 103.856 20.0667 103.649 20.2152C103.439 20.3571 103.227 20.4591 103.013 20.5256C102.796 20.5965 102.633 20.6431 102.515 20.6675C102.418 20.6897 102.363 20.6874 102.349 20.6586C102.331 20.6409 102.347 20.6165 102.395 20.5877C102.617 20.4635 102.787 20.3216 102.912 20.162C103.034 20.0024 103.128 19.8361 103.197 19.6654C103.257 19.5058 103.299 19.3417 103.317 19.1776C103.34 19.018 103.354 18.8673 103.354 18.7254V14.4775H105.105V14.6372Z" fill="white"/>
<path d="M109.928 12.6865C110.161 12.6865 110.373 12.7752 110.564 12.9526C110.76 13.1299 110.926 13.3051 111.062 13.4758L110.933 13.6088L110.841 13.5201C110.79 13.4736 110.76 13.4492 110.749 13.4492C110.458 13.2186 110.186 13.1366 109.928 13.2009C109.67 13.2607 109.423 13.4004 109.191 13.6177L108.204 14.5666H111.882C112.251 14.5666 112.578 14.6286 112.869 14.7528C113.157 14.877 113.406 15.0454 113.615 15.2583C114.026 15.684 114.233 16.2072 114.233 16.8279V18.708H105.66V18.3533H113.118V16.8279C113.118 16.3269 112.998 15.9034 112.758 15.5598C112.523 15.2117 112.163 15.0366 111.68 15.0366H106.988L108.757 13.3605C108.983 13.1543 109.195 12.9947 109.393 12.8816C109.596 12.7641 109.774 12.6998 109.928 12.6865Z" fill="white"/>
<path d="M116.995 14.6372H116.839C116.622 14.6372 116.484 14.697 116.424 14.8145C116.369 14.9276 116.341 15.0784 116.341 15.2668V18.3529H118.157V18.7076H116.322C116.322 19.0912 116.242 19.4016 116.083 19.6388C115.921 19.8738 115.737 20.0667 115.53 20.2152C115.32 20.3571 115.108 20.4591 114.894 20.5256C114.684 20.5965 114.52 20.6431 114.396 20.6675C114.299 20.6897 114.246 20.6874 114.239 20.6586C114.216 20.6409 114.23 20.6165 114.285 20.5877C114.502 20.4635 114.668 20.3216 114.792 20.162C114.914 20.0024 115.013 19.8361 115.087 19.6654C115.143 19.5058 115.179 19.3417 115.198 19.1776C115.221 19.018 115.235 18.8673 115.235 18.7254V14.4775H116.995V14.6372Z" fill="white"/>
<path d="M121.819 14.4951C122.206 14.4951 122.561 14.5572 122.889 14.6813C123.22 14.8055 123.488 14.9696 123.691 15.1691C124.156 15.6192 124.391 16.2111 124.391 16.9427C124.391 17.7009 124.147 18.2885 123.663 18.7075C123.195 19.1442 122.531 19.3637 121.672 19.3637C121.285 19.3637 120.93 19.3016 120.612 19.1775C120.291 19.0533 120.026 18.8893 119.819 18.6897C119.731 18.6077 119.653 18.5212 119.579 18.4326C119.51 18.3395 119.453 18.2441 119.404 18.1488C119.275 18.386 119.086 18.5434 118.842 18.6188C118.699 18.6676 118.558 18.6964 118.418 18.7075H117.561V18.3528H118.021C118.169 18.3528 118.303 18.335 118.427 18.2995C118.549 18.2641 118.662 18.1998 118.768 18.1044C118.964 17.916 119.082 17.5812 119.118 17.1023V16.9339C119.118 16.1889 119.367 15.5948 119.865 15.1514C120.319 14.7146 120.971 14.4951 121.819 14.4951ZM121.773 14.8853C121.294 14.8853 120.921 15.0582 120.658 15.3997C120.529 15.577 120.427 15.7721 120.354 15.985C120.284 16.1978 120.252 16.4638 120.252 16.7831C120.252 17.1511 120.294 17.4526 120.381 17.6876C120.467 17.9182 120.577 18.1399 120.713 18.3528C121.001 18.7474 121.37 18.9469 121.819 18.9469C122.285 18.9469 122.651 18.7718 122.916 18.4237C123.057 18.253 123.151 18.0645 123.202 17.8561C123.25 17.65 123.276 17.3906 123.276 17.0757C123.276 16.7099 123.241 16.4062 123.174 16.1623C123.112 15.9207 123.013 15.699 122.879 15.4972C122.596 15.0893 122.227 14.8853 121.773 14.8853Z" fill="white"/>
<g clip-path="url(#clip0_619_4168)">
<path d="M164.298 13.7522L163.93 14.5113H170.151L166.995 8.74789L166.666 9.5228C166.666 9.5228 161.594 7.15966 157.051 6.89746L156.404 7.45192L157.051 11.5361C157.051 11.5361 162.519 12.5272 164.297 13.7522H164.298Z" fill="white"/>
<path d="M148.937 12.9212C148.937 12.9212 146.877 13.8397 146.092 15.1532H139.939C139.939 15.1532 142.555 9.28881 148.937 7.74316C148.937 7.74316 148.701 11.2879 148.937 12.922V12.9212Z" fill="white"/>
<path d="M167.472 22.068C166.593 21.3783 165.686 20.8572 164.867 20.469C163.287 19.7191 162.048 19.4719 162.048 19.4719V18.3613L156.403 20.1708L160.711 24.3861L161.109 23.1753C168.388 24.8437 168.66 31.5832 165.55 35.6732L165.174 36.1342C164.781 36.5859 164.345 36.9968 163.872 37.3541C160.145 40.1741 155.312 39.5528 153.463 39.1728C152.977 39.0726 152.698 38.9875 152.698 38.9875L149.758 39.9787L147.394 40.7945L147.053 40.9139C155.404 46.3399 169.811 43.0716 171.341 32.5711C172.115 27.2461 169.922 23.9961 167.472 22.068Z" fill="white"/>
<path d="M165.551 35.6734C165.43 35.8304 165.304 35.9874 165.175 36.1343C163.284 35.3627 160.854 35.6358 157.582 37.2599C156.384 37.8528 154.977 38.5517 153.463 39.173C151.541 39.9629 149.446 40.6285 147.395 40.7946C145.35 40.9675 143.352 40.641 141.614 39.4494C141.614 39.4494 138.791 37.3919 139.938 34.6354C139.938 34.6354 134.338 33.7169 137.998 28.027C137.998 28.027 135.184 27.2646 135.529 24.0881C135.795 21.6357 137.733 21.0244 137.733 21.0244C137.733 21.0244 134.227 17.0956 138.589 15.069C141.673 13.636 148.938 14.7675 148.938 14.7675C148.938 14.7675 146.264 2.30715 153.534 0.654623C154.033 0.538553 154.549 0.500977 155.061 0.500977H157.229C157.229 0.500977 156.556 11.7606 158.949 15.1533C161.026 18.0951 166.592 17.129 167.474 22.069C166.595 21.3793 165.688 20.8582 164.869 20.4699C164.869 19.6533 163.861 18.7982 162.764 18.2905C160.779 17.372 157.126 16.6505 156.405 11.0491C155.687 5.44771 155.949 2.07585 155.949 2.07585C155.949 2.07585 152.766 1.00367 150.873 2.97601C147.314 6.68272 149.735 15.5992 149.735 15.5992C149.735 15.5992 141.607 14.512 139.427 16.6689C138.592 17.4956 137.977 18.9176 139.323 21.3325C139.323 21.3325 137.382 22.7755 137.777 25.1837C138.175 27.5894 139.718 28.0721 139.718 28.0721C139.718 28.0721 137.954 29.91 138.485 32.1395C139.013 34.3724 141.219 34.1094 141.219 34.1094C141.219 34.1094 139.788 38.6194 144.747 39.4911C151.717 40.7178 157.252 36.9092 158.94 36.1519C161.035 35.2108 163.417 34.8609 165.552 35.675L165.551 35.6734Z" fill="white"/>
</g>
<defs>
<clipPath id="clip0_619_4168">
<rect width="36" height="43" fill="white" transform="translate(135.5 0.5)"/>
</clipPath>
</defs>
</svg>
