<svg width="46" height="46" viewBox="0 0 46 46" fill="none" xmlns="http://www.w3.org/2000/svg">
<path d="M6.63057 35.4348C5.54369 36.4705 5.42233 37.2838 5.36738 38.9155C5.32984 40.0296 5.48657 41.3985 6.14055 42.0635C6.90195 42.8376 7.99819 42.8206 9.08897 42.8417C16.9417 42.9934 24.7944 43.1452 32.6471 43.2969C34.0369 43.3238 35.6361 43.2586 36.502 42.1813C37.0204 41.5365 37.1308 40.6822 37.0379 39.8463C37.1756 39.139 37.0467 37.0018 37.0098 36.403C36.944 35.3347 35.8606 34.5114 34.4896 34.4868C26.2205 34.3415 17.8285 34.3169 8.83301 34.4123C8.59094 34.4149 8.36199 34.4513 8.14084 34.5018C8.17296 34.4817 8.1983 34.4531 8.23145 34.4343C8.15457 34.4612 8.08438 34.5033 8.00919 34.5344C7.41974 34.6962 6.93514 35.0165 6.63057 35.4348ZM7.22783 36.4184C7.24321 35.843 7.96781 35.3667 8.84317 35.3575C17.8297 35.2627 26.2129 35.2873 34.4729 35.432C35.3175 35.4467 36.0323 35.9083 36.0664 36.4609C36.1286 37.4682 36.1849 38.539 36.1329 39.5795C36.1055 40.1278 35.3578 40.5869 34.496 40.5869C34.3892 40.5869 14.0838 40.5722 8.71425 40.5014C7.96018 40.4921 7.08777 40.0613 7.10445 39.4195C7.13198 38.4221 7.20172 37.4287 7.22783 36.4184Z" fill="#5D9D9F"/>
<path d="M9.65791 16.4736C9.157 16.4736 8.71117 16.753 8.49302 17.2034C8.46537 17.2605 8.45506 17.321 8.43625 17.3799C7.93411 18.0438 7.69627 18.8665 7.96723 19.7836C8.24414 20.7209 8.89182 21.4906 9.52269 22.23C12.2571 25.435 14.9972 28.646 18.0312 31.5595C19.2571 32.7368 20.5659 33.6856 22.0986 32.8653C22.2899 32.8006 22.4673 32.6971 22.6102 32.5507C26.8056 28.2618 30.6494 23.3741 34.7185 18.7782C35.4589 17.9428 34.8703 16.6281 33.756 16.6281H27.4907C27.5133 12.9638 27.781 9.31994 27.7876 5.53051C27.7894 4.1527 26.7704 3.0112 25.4169 2.87581C22.7317 2.60751 20.2558 2.64382 17.8478 2.98658C17.6299 3.0175 17.4258 3.08439 17.2293 3.16611C16.0157 3.46038 15.0041 3.93313 14.5361 5.35598C13.8631 7.40196 14.7394 9.23957 14.4342 16.5064C14.0259 16.5036 10.0773 16.4765 9.65791 16.4736ZM16.1368 17.4631C16.3962 17.4631 16.6076 17.2539 16.6094 16.9936C16.6354 13.2386 16.5534 9.33425 16.5497 5.59636C16.5491 4.75761 17.1642 4.03824 17.9808 3.92194C20.313 3.59087 22.7145 3.55641 25.323 3.8161C26.1904 3.90286 26.8436 4.63946 26.8424 5.52928C26.8363 9.38841 26.5439 13.3275 26.5439 17.1007C26.5439 17.3616 26.7556 17.5733 27.0165 17.5733H33.756C34.0583 17.5733 34.2094 17.9275 34.0108 18.1517C29.9331 22.7576 26.1018 27.6284 21.9342 31.8898C21.7744 32.0548 21.5447 32.0079 21.4287 31.8781C15.9722 25.8192 11.92 21.1436 9.38531 17.9806C9.20293 17.753 9.36635 17.4188 9.65761 17.4188C9.72104 17.4192 16.2225 17.4631 16.1368 17.4631Z" fill="#5D9D9F"/>
<path d="M35.0972 14.915L35.8716 12.2646C35.9445 12.0141 35.8009 11.752 35.5501 11.6788C35.3015 11.6062 35.0372 11.7495 34.964 12L34.1901 14.6504C34.1169 14.9008 34.2606 15.163 34.511 15.2362C34.7613 15.3092 35.0239 15.1663 35.0972 14.915Z" fill="#5D9D9F"/>
<path d="M39.3612 14.0017C39.5516 13.8232 39.5612 13.5242 39.3824 13.334C39.2039 13.1426 38.9049 13.134 38.7144 13.3125L36.3778 15.5038C36.0668 15.7957 36.2746 16.321 36.7012 16.321C37.0353 16.321 36.952 16.1981 39.3612 14.0017Z" fill="#5D9D9F"/>
<path d="M40.1658 18.9757C40.3981 18.9757 40.6008 18.8041 40.6335 18.5678C40.6688 18.3093 40.4882 18.0705 40.2298 18.0348L37.0265 17.5936C36.7652 17.5567 36.5293 17.7389 36.4936 17.9973C36.4582 18.2558 36.6388 18.4945 36.8972 18.5302L40.1005 18.9714C40.1227 18.9745 40.1442 18.9757 40.1658 18.9757Z" fill="#5D9D9F"/>
</svg>
