<svg width="47" height="46" viewBox="0 0 47 46" fill="none" xmlns="http://www.w3.org/2000/svg">
<path d="M10.85 24.5038C11.3808 24.9461 11.7346 25.2114 12.0885 25.3884C14.0346 26.6268 15.45 28.573 16.1577 30.6961L18.1039 36.623C18.0154 36.623 17.9269 36.623 17.8385 36.623C17.3962 36.7114 17.0423 36.8884 16.7769 37.2422C16.5116 37.5076 16.3346 37.9499 16.2462 38.3922V38.6576V38.8345V39.1884C16.2462 39.5422 16.3346 42.4614 16.3346 42.2845V42.6384V43.0807C16.4231 43.7884 17.0423 44.4076 17.8385 44.5845C18.2808 44.673 18.4577 44.5845 18.7231 44.5845L20.3154 44.4961C22.35 44.4076 24.4731 44.2307 26.5077 44.0538C24.4731 43.8768 22.35 43.6999 20.3154 43.6114L18.7231 43.523C18.4577 43.523 18.1923 43.523 18.0154 43.4345C17.75 43.3461 17.5731 43.0807 17.4846 42.8153V42.7268V42.5499C17.4846 42.373 17.5731 38.923 17.5731 39.0999V38.7461V38.5691V38.4807C17.5731 38.3922 17.6616 38.3038 17.75 38.2153C17.9269 38.0384 18.0154 38.0384 18.6346 38.1268H18.9H19.1654H20.4039L26.4192 38.2153L32.6116 38.1268H34.2039C34.8231 38.1268 34.9116 38.1268 35.0885 38.2153C35.1769 38.3038 35.1769 38.3922 35.2654 38.4807V38.5691V38.7461V39.0999C35.2654 39.4538 35.3539 42.373 35.3539 42.1961V42.5499V42.7268V42.8153C35.3539 42.9922 35.2654 43.0807 35.1769 43.1691C35 43.4345 34.7346 43.4345 34.1154 43.4345L32.5231 43.523C30.4885 43.6114 28.3654 43.7884 26.3308 43.9653C28.3654 44.1422 30.4885 44.3191 32.5231 44.4076L34.1154 44.4961C34.3808 44.4961 34.5577 44.5845 35 44.4961C35.3539 44.4076 35.7077 44.2307 35.9731 43.9653C36.2385 43.6999 36.4154 43.3461 36.5039 42.9922C36.5039 42.8153 36.5039 42.6384 36.5039 42.5499C36.5039 42.4614 36.5923 40.5153 36.5923 40.6038L36.6808 39.0114V38.6576V38.4807C36.6808 38.3922 36.6808 38.3038 36.6808 38.2153C36.5923 37.4191 35.9731 36.7114 35.0885 36.5345C35 36.5345 35 36.5345 34.9116 36.5345L36.0616 30.873C36.5039 28.6614 36.7692 26.3614 36.8577 24.1499C36.8577 23.0884 36.8577 22.1153 36.8577 22.0268C36.8577 21.5845 36.6808 21.0538 36.4154 20.6999C35.7077 19.6384 34.1154 19.2845 33.0539 20.0807L32.9654 20.1691C32.9654 20.0807 32.9654 19.9038 32.9654 19.8153C32.9654 19.5499 32.8769 19.2845 32.7 19.0191C32.2577 17.9576 31.1077 17.2499 29.9577 17.2499C29.4269 17.2499 28.8962 17.4268 28.4539 17.6922C28.1 16.4538 26.8616 15.5691 25.6231 15.5691C25.0039 15.5691 24.2962 15.8345 23.7654 16.1884L23.8539 13.3576C25.0039 13.0037 26.1539 12.1191 26.8616 11.0576C27.6577 9.81913 28.0116 8.22683 27.7462 6.72298C27.5692 5.21913 26.6846 3.80375 25.5346 2.74221C24.3846 1.76913 22.7923 1.1499 21.2 1.1499C19.6077 1.1499 18.1039 1.76913 16.8654 2.74221C15.7154 3.80375 14.9192 5.21913 14.6539 6.72298C14.3885 8.22683 14.8308 9.81913 15.6269 11.0576C16.3346 12.1191 17.3077 12.9153 18.3692 13.2691L18.2808 17.5153L18.1923 22.9114C17.5731 22.1153 16.6885 21.4961 15.8039 21.0538H15.7154C15.45 20.8768 15.0962 20.7884 14.8308 20.6999C14.1231 20.523 13.5039 20.4345 12.7077 20.4345C11.8231 20.4345 11.0269 20.6114 10.4077 21.2307C9.78848 21.8499 10.4077 21.3191 10.3192 21.3191C10.0539 21.673 9.78847 22.0268 9.70001 22.5576C9.61155 23.0884 9.78848 23.6191 10.0539 24.0614C10.5846 24.2384 10.7616 24.4153 10.85 24.5038ZM24.3846 19.5499C24.3846 19.1076 24.3846 18.4884 24.4731 18.3114C24.65 17.7807 25.1808 17.3384 25.8 17.3384C26.3308 17.3384 26.95 17.6922 27.1269 18.3114C27.2154 18.4884 27.2154 19.1076 27.2154 19.5499V19.9038V20.3461V20.6999C27.2154 21.1422 27.3039 21.4961 27.3039 21.9384C27.3923 23.5307 27.6577 25.2114 28.0116 26.8038C28.3654 25.2114 28.5423 23.5307 28.7192 21.9384C28.7192 21.4961 28.8077 21.1422 28.8077 20.6999C28.8077 20.6114 28.8077 20.523 28.8077 20.4345C28.8077 20.3461 28.8077 20.3461 28.8077 20.2576C28.8077 20.1691 28.8962 19.9922 28.9846 19.9038C29.25 19.4614 29.6923 19.1961 30.2231 19.1961C30.6654 19.1961 31.1962 19.4614 31.4616 19.9038C31.55 19.9922 31.55 20.1691 31.6385 20.2576V20.4345C31.6385 20.9653 31.6385 21.1422 31.7269 21.9384C31.8154 23.5307 32.0808 25.2114 32.4346 26.8038C32.7885 25.2114 32.9654 23.5307 33.1423 21.9384C33.1423 21.5845 33.2308 21.3191 33.2308 20.9653C33.3192 20.8768 33.4962 20.6999 33.5846 20.6114C34.4692 20.0807 35.6192 20.4345 36.15 21.2307C36.3269 21.4961 36.4154 21.8499 36.4154 22.2038V22.6461V22.9999C36.4154 23.4422 36.4154 23.8845 36.3269 24.2384C36.15 26.4499 35.7962 28.6614 35.2654 30.7845L33.85 36.623H32.8769L26.6846 36.5345L20.4923 36.623C20.3154 36.623 20.2269 36.623 20.05 36.623L18.0154 30.1653C17.8385 29.6345 17.5731 29.1038 17.3962 28.6614C16.4231 26.8038 15.0962 25.123 13.2385 23.973C13.0616 23.7961 12.7962 23.7076 12.6192 23.6191C12.3539 23.4422 12.1769 23.2653 12 23.0884V22.9999C11.9116 22.9114 11.9116 22.823 12 22.6461C12 22.5576 12.0885 22.5576 12.0885 22.4691C12.4423 22.0268 13.7692 22.0268 14.7423 22.2922C15.3616 22.4691 15.9808 22.823 16.5116 23.1768C17.6616 24.0614 18.3692 25.2999 18.5462 26.6268V26.8922C18.5462 26.9807 18.5462 27.0691 18.6346 27.1576C18.6346 27.2461 18.7231 27.2461 18.8116 27.3345V27.423C18.9885 27.5999 19.1654 27.5999 19.3423 27.5999C19.7846 27.5999 20.1385 27.2461 20.1385 26.8038L19.9616 17.6038C19.9616 17.5153 19.8731 11.4999 19.8731 11.7653C19.8731 11.4114 19.8731 11.1461 20.05 10.8807C20.3154 10.3499 20.8462 9.99606 21.3769 9.99606C22.2616 9.9076 23.0577 10.6153 23.1462 11.6768V12.8268L23.2346 16.9845C23.0577 17.2499 22.8808 17.6038 22.7923 17.9576C22.7039 18.223 22.7039 18.6653 22.7039 18.8422C22.7923 19.8153 22.7039 19.8153 22.7923 20.9653C22.8808 22.9114 23.1462 24.7691 23.5 26.7153C23.8539 24.7691 24.0308 22.9114 24.2077 20.9653C24.2962 20.523 24.3846 20.0807 24.3846 19.5499ZM16.2462 7.07683C16.5116 5.92683 17.2192 4.86529 18.1039 4.15759C21.0231 1.76913 25.5346 3.09606 26.5962 7.07683C27.2154 9.28836 26.1539 11.8537 24.0308 13.2691V12.8268V11.6768C24.0308 10.5268 23.3231 9.28836 21.9077 9.02298C21.7308 9.02298 21.5539 8.93452 21.2885 8.93452C19.7846 8.93452 18.5462 10.2614 18.5462 11.7653C18.5462 11.8537 18.5462 13.2691 18.5462 13.1807C16.6 11.6768 15.7154 9.1999 16.2462 7.07683Z" fill="#5D9D9F"/>
</svg>
