<svg width="46" height="46" viewBox="0 0 46 46" fill="none" xmlns="http://www.w3.org/2000/svg">
<path d="M39.245 6.8627C39.2518 5.23484 38.6649 1.98001 37.4896 1.94523C37.0305 1.67426 36.3821 1.71545 35.8794 1.75167C35.5506 1.77483 32.5242 1.7287 28.8068 1.70546C21.7534 1.6631 18.6047 1.71949 9.41529 1.76097C8.65098 1.76418 7.37263 1.75616 6.90416 2.64882C6.40308 3.60422 7.36163 3.21468 6.91579 42.4904C6.87773 42.5521 6.87055 42.6455 6.90982 42.7853C7.03897 43.2451 7.28916 43.7449 7.72591 43.9788C8.18042 44.2222 8.69462 44.1393 9.18667 44.1507C12.1648 44.2199 29.0169 44.5697 38.0603 43.9369C38.3458 43.9169 38.6476 43.8914 38.8807 43.7252C39.3266 43.4074 39.1004 42.2885 39.1026 41.8148C39.1266 36.6647 39.0345 57.3887 39.245 6.8627ZM7.77693 3.10703C7.96752 2.74316 8.94297 2.74669 9.41273 2.74669C22.9314 2.68566 22.4796 2.61724 35.495 2.75599C35.8503 2.75792 36.882 2.62915 37.0102 2.80348C37.0521 2.86931 37.061 2.88343 37.0191 2.8176C37.127 2.99011 37.1073 41.3749 37.1039 42.3026C27.3064 42.2828 17.6878 42.0295 7.9072 42.0097C8.39709 -1.54793 7.37715 3.86785 7.77693 3.10703Z" fill="#5D9D9F"/>
<path d="M8.90701 11.1063C9.03531 12.1758 9.61704 12.7709 10.779 12.7722C10.8561 12.7723 34.1439 12.7982 34.0729 12.7982C35.3384 12.7982 36.0424 12.1263 36.1091 10.855C36.2417 8.35546 35.9888 6.78018 35.9718 6.20306C35.9301 4.62814 35.2593 4.37687 33.6988 4.5018C33.1594 4.54476 30.947 4.5184 28.3909 4.49539C22.7732 4.44523 15.7905 4.43171 9.94406 4.65679C8.81993 4.70042 8.65299 5.72919 8.70935 6.8525C8.81731 9.20311 8.85501 10.4594 8.90701 11.1063ZM9.81507 5.69865C10.0627 5.42846 25.4072 5.45886 25.4729 5.45832C29.3603 5.48019 33.0225 5.54605 33.777 5.48431C34.0459 5.46345 34.7602 5.4057 34.8725 5.55137C34.972 5.68036 34.9797 5.97203 34.9867 6.22937C35.0034 6.94157 35.2571 8.29072 35.1247 10.8031C35.0637 11.9636 34.3193 11.7477 34.0703 11.8125L10.7802 11.7865C10.2354 11.7859 10.0827 11.6181 9.99797 11.4361C9.85067 11.1179 9.87179 10.9898 9.69378 6.80373C9.67774 6.48126 9.64822 5.88123 9.81507 5.69865Z" fill="#5D9D9F"/>
<path d="M35.2255 22.1785C35.2409 22.0011 35.2601 21.7806 35.1074 21.5952C34.9149 21.3612 34.6254 21.385 34.5112 21.3956C27.2215 21.4101 27.5753 21.2847 27.5753 21.9003L27.5246 26.3559C27.5214 26.6242 27.7338 26.8456 28.002 26.8539C30.1563 26.9208 32.1852 26.8758 34.2539 26.8193C34.7034 26.8443 34.7641 26.7408 34.8302 26.7249C35.1487 26.541 35.1681 26.2077 35.1529 25.8441C35.1926 24.6246 35.2293 23.7944 35.2255 22.1785ZM34.1666 25.8319C32.323 25.8916 30.3599 25.9253 28.5161 25.882L28.5552 22.3938C28.9798 22.3918 34.1713 22.382 34.2378 22.3819C34.246 24.6936 34.1538 25.512 34.1666 25.8319Z" fill="#5D9D9F"/>
<path d="M26.5312 22.1734C26.5459 21.9992 26.5639 21.782 26.4131 21.5952C26.2199 21.36 25.9337 21.3854 25.8156 21.3956C18.5281 21.4101 18.8803 21.2844 18.8803 21.9007L18.8296 26.356C18.8264 26.6242 19.0388 26.8456 19.3071 26.854C21.4954 26.9219 23.5274 26.8748 25.5596 26.8193C25.7097 26.8276 25.9369 26.8389 26.1346 26.7253C26.4553 26.5379 26.4733 26.2099 26.458 25.8442C26.5111 24.2465 26.4975 24.6518 26.4997 24.5848C26.5228 23.7906 26.5324 22.9968 26.5312 22.1734ZM25.4716 25.832C23.6314 25.8915 21.6611 25.9258 19.8211 25.882L19.8603 22.3939C20.2845 22.3918 25.4767 22.3821 25.5435 22.382C25.5454 23.1068 25.459 25.5164 25.4716 25.832Z" fill="#5D9D9F"/>
<path d="M17.8362 22.1785C17.8516 22.0011 17.8709 21.7806 17.7182 21.5952C17.5256 21.3612 17.2362 21.385 17.122 21.3956C10.1282 21.406 10.221 21.3511 10.1854 21.9006L10.1354 26.3559C10.1321 26.6242 10.3446 26.8456 10.6128 26.8539C11.9146 26.8943 13.2382 26.8944 14.5313 26.8735C17.8743 26.8199 17.205 26.7818 17.4409 26.7249C17.7937 26.5213 17.7756 26.1245 17.7612 25.7543C17.7785 25.3651 17.792 24.9759 17.8054 24.5847C17.8285 23.7906 17.8382 22.9964 17.8362 22.1785ZM16.7774 25.8319C14.9399 25.8914 12.9765 25.9253 11.1262 25.882L11.1653 22.3938C11.5896 22.3918 16.782 22.382 16.8486 22.3819C16.8568 24.7074 16.7639 25.4959 16.7774 25.8319Z" fill="#5D9D9F"/>
<path d="M19.3071 33.6048C21.4608 33.6727 23.4849 33.6262 25.5615 33.5705C25.7104 33.5785 25.9376 33.5894 26.1346 33.4762C26.4553 33.2888 26.4733 32.9608 26.458 32.5951C26.4983 31.3845 26.5337 30.5381 26.5312 28.9246C26.5459 28.7501 26.5639 28.5328 26.4131 28.3461C26.2199 28.1106 25.9337 28.1366 25.8156 28.1465C18.4827 28.1581 18.8803 28.1231 18.8803 28.6516L18.8296 33.1069C18.8264 33.3751 19.0388 33.5965 19.3071 33.6048ZM19.8603 29.1447C20.1858 29.1432 25.4778 29.133 25.5435 29.1329C25.5497 31.4769 25.459 32.2676 25.4716 32.5832C23.6319 32.6419 21.6745 32.6764 19.8211 32.6329L19.8603 29.1447Z" fill="#5D9D9F"/>
<path d="M25.7078 34.4409C9.61459 34.4567 10.3226 34.3181 10.2797 34.9405C10.2121 39.5406 10.0465 39.4845 10.3015 39.7503C10.3933 39.8453 10.5184 39.8999 10.6506 39.9018C15.8049 39.9722 23.0073 39.9027 23.9475 39.8697C25.2806 39.8246 26.3657 40.0894 26.4111 39.365C26.6361 34.8311 26.7983 34.8836 26.5549 34.6106C26.3649 34.3953 26.0976 34.4335 25.7078 34.4409ZM25.4517 38.8949C25.386 38.8983 16.3275 38.9848 11.1627 38.9225L11.2526 35.4427C11.3674 35.4423 25.5623 35.427 25.6629 35.4269L25.4517 38.8949Z" fill="#5D9D9F"/>
<path d="M34.6261 27.5679C27.184 27.5959 27.3711 27.5483 27.3571 28.1047L27.3044 39.838C27.3032 40.0963 27.5015 40.3116 27.7588 40.3315C29.9447 40.5025 32.1561 40.4021 34.3245 40.2391C34.814 40.2991 35.1037 40.0884 35.2101 39.7491C35.2884 39.5027 35.2877 39.0839 35.2787 38.5189C35.273 38.1311 35.4295 28.2804 35.3236 27.9578C35.3063 27.9058 35.1414 27.4485 34.6261 27.5679ZM34.2911 39.2498C34.0879 39.2547 31.0876 39.5523 28.2921 39.3804L28.3402 28.5867C28.762 28.5817 34.3085 28.5555 34.3758 28.5552C34.3741 28.6232 34.3004 39.0527 34.2911 39.2498Z" fill="#5D9D9F"/>
<path d="M10.6128 33.6049C12.7676 33.6728 14.7972 33.6261 16.8666 33.5706C17.3119 33.5945 17.3748 33.4919 17.4409 33.4759C17.7594 33.292 17.7789 32.9586 17.7637 32.5951C17.8032 31.3824 17.84 30.5451 17.8362 28.9298C17.8516 28.7524 17.8709 28.5316 17.7182 28.3461C17.5256 28.1122 17.2362 28.136 17.122 28.1466C10.1282 28.1573 10.2215 28.096 10.1854 28.6516L10.1354 33.1069C10.1321 33.3751 10.3446 33.5965 10.6128 33.6049ZM11.1653 29.1448C11.4911 29.1432 16.7829 29.133 16.8486 29.1329C16.8568 31.4445 16.7641 32.2516 16.7774 32.5832C14.9292 32.6423 12.975 32.6757 11.1262 32.633L11.1653 29.1448Z" fill="#5D9D9F"/>
<path d="M26.5735 14.306C26.1938 14.0062 25.7783 14.1669 24.2119 14.1705C22.9274 14.172 20.146 14.1748 19.2583 14.1815C18.8226 14.185 18.478 14.5424 18.4728 14.9955L18.4228 19.7893C18.4183 20.2366 18.7655 20.6107 19.1974 20.6233C21.8505 20.7012 25.5702 20.5912 25.5044 20.5912C25.687 20.5912 26.0812 20.6833 26.4195 20.4962C26.8414 20.2587 26.8792 19.7663 26.87 19.2878C26.9433 15.3989 27.102 14.7195 26.5735 14.306ZM25.883 19.1405C25.8796 19.266 25.8946 19.475 25.8779 19.6276C24.4704 19.5831 22.5559 19.7264 19.4104 19.6433L19.4566 15.1659C22.2212 15.1508 24.2567 15.1778 25.9344 15.1142C25.9376 15.1142 25.9395 15.1155 25.9395 15.1155C25.982 15.7735 25.8853 19.0743 25.883 19.1405Z" fill="#5D9D9F"/>
<path d="M35.2678 14.3054C34.9743 14.076 34.6714 14.1158 33.7328 14.1485C32.6436 14.1904 30.5688 14.1621 27.9533 14.1816C27.5175 14.1851 27.1723 14.5425 27.1671 14.9956L27.1177 19.7894C27.1132 20.2367 27.4604 20.6109 27.8923 20.6234C31.6901 20.735 33.6931 20.5465 34.3386 20.6003C35.3037 20.6804 35.5847 20.2409 35.5643 19.2841C35.6043 16.5455 35.686 16.096 35.6176 15.0518C35.5964 14.727 35.4758 14.4691 35.2678 14.3054ZM34.5786 19.3049C34.5805 19.379 34.5837 19.5273 34.5722 19.6277C33.1639 19.5831 31.2843 19.7273 28.1047 19.6434L28.1509 15.166C32.1721 15.1441 24.55 15.1981 34.6344 15.1156C34.6884 15.9515 34.5554 18.2095 34.5786 19.3049Z" fill="#5D9D9F"/>
<path d="M16.8062 20.5912C17.1288 20.6208 17.4498 20.6473 17.7194 20.4988C18.1465 20.2645 18.1852 19.7642 18.175 19.284C18.1763 19.2183 18.2051 17.6928 18.2033 17.7897C18.2569 15.4245 18.3793 14.6994 17.8786 14.3054C17.6029 14.09 10.9176 14.1789 10.5634 14.1815C10.1276 14.185 9.78299 14.5425 9.77786 14.9956L9.72781 19.791C9.7246 20.2376 10.0724 20.6108 10.503 20.6233C13.3598 20.7073 15.8011 20.5993 16.8062 20.5912ZM10.7617 15.1659C12.1908 15.1581 17.5911 15.1166 17.24 15.1143C17.2432 15.1143 17.2452 15.1149 17.2452 15.1156C17.3209 16.2929 17.1656 18.1832 17.1893 19.3049C17.1913 19.379 17.1945 19.5272 17.1829 19.6276C15.8684 19.5861 13.8015 19.7248 10.7154 19.6434L10.7617 15.1659Z" fill="#5D9D9F"/>
<path d="M30.3752 34.3024C30.6531 34.2578 30.9399 34.2829 31.205 34.3746C31.4623 34.4635 31.7434 34.3279 31.8326 34.0704C31.9218 33.8134 31.7851 33.5327 31.5284 33.4435C31.11 33.2981 30.6563 33.2596 30.2186 33.3295C29.9497 33.3725 29.7668 33.6257 29.8105 33.8943C29.8541 34.1635 30.1134 34.3483 30.3752 34.3024Z" fill="#5D9D9F"/>
<path d="M31.6625 34.7955C31.1652 34.6563 30.6146 34.7047 30.1499 34.9264C29.6784 35.1517 29.8389 35.864 30.363 35.864C30.6117 35.864 30.8538 35.594 31.3968 35.7447C31.66 35.8201 31.9314 35.6648 32.0046 35.4029C32.0777 35.1408 31.9243 34.8687 31.6625 34.7955Z" fill="#5D9D9F"/>
<path d="M18.5312 36.6855C18.4651 36.6855 16.2632 36.7336 16.3294 36.7343C16.0573 36.7404 15.8417 36.966 15.8475 37.2381C15.8539 37.5067 16.0727 37.72 16.3403 37.72C16.4065 37.72 18.6083 37.672 18.5421 37.6713C18.8142 37.6652 19.0299 37.4396 19.0241 37.1675C19.0177 36.8989 18.7988 36.6855 18.5312 36.6855Z" fill="#5D9D9F"/>
</svg>
