<svg width="48" height="64" viewBox="0 0 48 64" fill="none" xmlns="http://www.w3.org/2000/svg">
<path d="M34.9984 31.4641C43.0866 33.0718 48 39.4258 48 45.933V46.2392C48 57.799 37.8709 64 23.811 64C14.3622 64 5.36693 61.244 0 57.1866L6.12284 45.3206C10.2047 48.6124 16.4787 50.6029 22.6016 50.6029C29.5559 50.6029 33.9402 48.4593 33.9402 43.9426V43.7895C33.9402 39.5789 29.4803 37.1292 22.2236 37.1292H17.2346V26.0287H21.3165C28.5732 26.0287 32.8819 23.7321 32.8819 19.6746V19.5215C32.8819 15.311 28.8 13.3206 22.6772 13.3206C17.0079 13.3206 10.5827 15.2345 6.57638 18.5263L0.377953 6.66029C5.82047 2.60287 17.0835 0 24.2646 0C37.8709 0 46.9417 5.43541 46.9417 16.689V16.9952C46.9417 22.7368 42.9354 29.4737 34.9984 31.4641Z" fill="url(#paint0_linear_246_8718)"/>
<defs>
<linearGradient id="paint0_linear_246_8718" x1="24" y1="0" x2="24" y2="64" gradientUnits="userSpaceOnUse">
<stop stop-color="#5D9D9F"/>
<stop offset="1" stop-color="white" stop-opacity="0"/>
</linearGradient>
</defs>
</svg>
