<svg width="20" height="20" viewBox="0 0 20 20" fill="none" xmlns="http://www.w3.org/2000/svg">
<path d="M14.1667 9.00375C14.1667 8.71567 14.1667 8.57167 14.21 8.44333C14.336 8.07037 14.6682 7.92563 15.0009 7.77407C15.375 7.60368 15.562 7.51849 15.7473 7.5035C15.9577 7.48648 16.1685 7.53182 16.3483 7.63274C16.5867 7.76653 16.753 8.02077 16.9232 8.22752C17.7094 9.18233 18.1024 9.65983 18.2462 10.1863C18.3623 10.6112 18.3623 11.0555 18.2462 11.4803C18.0365 12.2482 17.3737 12.892 16.8832 13.4878C16.6322 13.7926 16.5067 13.945 16.3483 14.0339C16.1685 14.1348 15.9577 14.1802 15.7473 14.1632C15.562 14.1482 15.375 14.063 15.0009 13.8926C14.6682 13.741 14.336 13.5963 14.21 13.2233C14.1667 13.095 14.1667 12.951 14.1667 12.6629V9.00375Z" stroke="#5D9D9F" stroke-width="1.25"/>
<path d="M5.83332 9.00383C5.83332 8.64117 5.82314 8.31518 5.52991 8.06017C5.42326 7.96742 5.28186 7.90301 4.99908 7.77421C4.625 7.60382 4.43796 7.51863 4.25262 7.50363C3.69658 7.45867 3.39742 7.83818 3.07676 8.22765C2.29061 9.1825 1.89754 9.65992 1.75371 10.1864C1.63764 10.6113 1.63764 11.0557 1.75371 11.4805C1.96349 12.2484 2.62626 12.8921 3.11683 13.488C3.42606 13.8636 3.72146 14.2063 4.25262 14.1633C4.43796 14.1483 4.625 14.0631 4.99908 13.8928C5.28186 13.7639 5.42326 13.6995 5.52991 13.6068C5.82314 13.3518 5.83332 13.0258 5.83332 12.6631V9.00383Z" stroke="#5D9D9F" stroke-width="1.25"/>
<path d="M4.16666 7.5C4.16666 4.73857 6.77833 2.5 9.99999 2.5C13.2217 2.5 15.8333 4.73857 15.8333 7.5" stroke="#5D9D9F" stroke-width="1.25" stroke-linecap="square" stroke-linejoin="round"/>
<path d="M15.8333 14.1667V14.8333C15.8333 16.3061 14.3409 17.5 12.5 17.5H10.8333" stroke="#5D9D9F" stroke-width="1.25" stroke-linecap="round" stroke-linejoin="round"/>
</svg>
