<svg width="48" height="42" viewBox="0 0 48 42" fill="none" xmlns="http://www.w3.org/2000/svg">
<path d="M17.4243 29.773C26.422 19.3962 36.3831 9.29224 47.2968 0.909415C47.3131 0.897121 47.3331 0.890682 47.3535 0.891136C47.374 0.891589 47.3936 0.89891 47.4094 0.911916C47.4251 0.924923 47.4361 0.942856 47.4404 0.962827C47.4447 0.982797 47.4422 1.00364 47.4332 1.02199C46.9107 2.06985 46.3471 3.11337 45.7423 4.15256C37.9246 17.5993 28.3683 29.6929 18.444 41.3946C18.3993 41.4466 18.3495 41.4517 18.2946 41.4098C11.4143 36.1229 5.14669 29.6539 0.909809 22.0202C0.720733 21.6796 0.596607 21.3404 0.537431 21.0026C0.533682 20.9797 0.535856 20.9562 0.543739 20.9344C0.551623 20.9125 0.564946 20.8931 0.582404 20.8781C0.599862 20.863 0.620858 20.8528 0.643335 20.8485C0.665812 20.8441 0.689 20.8458 0.71063 20.8533C6.73579 22.8775 12.1504 26.0189 17.1862 29.7968C17.2215 29.8238 17.2657 29.8363 17.3099 29.8319C17.3541 29.8274 17.395 29.8064 17.4243 29.773Z" fill="#5D9D9F"/>
</svg>
