<svg width="17" height="16" viewBox="0 0 17 16" fill="none" xmlns="http://www.w3.org/2000/svg">
<g clip-path="url(#clip0_245_2435)">
<path d="M8.25 16C12.6683 16 16.25 12.4183 16.25 8C16.25 3.58172 12.6683 0 8.25 0C3.83172 0 0.25 3.58172 0.25 8C0.25 12.4183 3.83172 16 8.25 16Z" fill="#F0F0F0"/>
<path d="M1.90379 3.12842C1.27538 3.94601 0.801541 4.88836 0.525635 5.91207H4.68745L1.90379 3.12842Z" fill="#0052B4"/>
<path d="M15.9747 5.91253C15.6988 4.88884 15.225 3.9465 14.5966 3.12891L11.813 5.91253H15.9747Z" fill="#0052B4"/>
<path d="M0.525635 10.0869C0.801572 11.1106 1.27542 12.0529 1.90379 12.8705L4.68736 10.0869H0.525635Z" fill="#0052B4"/>
<path d="M13.1203 1.65309C12.3027 1.02468 11.3604 0.55084 10.3367 0.274902V4.43669L13.1203 1.65309Z" fill="#0052B4"/>
<path d="M3.37939 14.3451C4.19699 14.9735 5.13933 15.4473 6.16302 15.7233V11.5615L3.37939 14.3451Z" fill="#0052B4"/>
<path d="M6.16299 0.274902C5.1393 0.55084 4.19696 1.02468 3.37939 1.65306L6.16299 4.43665V0.274902Z" fill="#0052B4"/>
<path d="M10.3367 15.7233C11.3604 15.4473 12.3027 14.9735 13.1203 14.3451L10.3367 11.5615V15.7233Z" fill="#0052B4"/>
<path d="M11.813 10.0869L14.5966 12.8705C15.225 12.053 15.6988 11.1106 15.9747 10.0869H11.813Z" fill="#0052B4"/>
<path d="M16.1823 6.95653H9.29353H9.2935V0.0677188C8.95191 0.02325 8.60366 0 8.25 0C7.89628 0 7.54809 0.02325 7.20653 0.0677188V6.95647V6.9565H0.317719C0.27325 7.29809 0.25 7.64634 0.25 8C0.25 8.35372 0.27325 8.70191 0.317719 9.04347H7.20647H7.2065V15.9323C7.54809 15.9768 7.89628 16 8.25 16C8.60366 16 8.95191 15.9768 9.29347 15.9323V9.04353V9.0435H16.1823C16.2268 8.70191 16.25 8.35372 16.25 8C16.25 7.64634 16.2268 7.29809 16.1823 6.95653Z" fill="#D80027"/>
<path d="M10.3369 10.0874L13.9068 13.6573C14.071 13.4932 14.2276 13.3216 14.377 13.1437L11.3207 10.0874H10.3369V10.0874Z" fill="#D80027"/>
<path d="M6.16292 10.0874H6.16286L2.59302 13.6572C2.75714 13.8214 2.92874 13.9781 3.10661 14.1275L6.16292 11.0711V10.0874Z" fill="#D80027"/>
<path d="M6.16293 5.91274V5.91268L2.59305 2.34277C2.42887 2.5069 2.27224 2.67849 2.1228 2.85637L5.17915 5.91271H6.16293V5.91274Z" fill="#D80027"/>
<path d="M10.3369 5.91369L13.9068 2.34375C13.7427 2.17957 13.5711 2.02294 13.3932 1.87354L10.3369 4.92988V5.91369Z" fill="#D80027"/>
</g>
<defs>
<clipPath id="clip0_245_2435">
<rect width="16" height="16" fill="white" transform="translate(0.25)"/>
</clipPath>
</defs>
</svg>
