<svg width="1152" height="350" viewBox="0 0 1152 350" fill="none" xmlns="http://www.w3.org/2000/svg">
<g clip-path="url(#clip0_206_5400)">
<path opacity="0.5" d="M1107.5 243.434H1082.23C1079.57 243.434 1077.41 245.595 1077.41 248.26V337.855C1077.41 340.52 1079.57 342.681 1082.23 342.681H1107.5C1110.16 342.681 1112.33 340.52 1112.33 337.855V248.26C1112.33 245.595 1110.16 243.434 1107.5 243.434Z" fill="#3D898D"/>
<path opacity="0.5" d="M1027.02 186.21H1007.51V177.987H975.791V186.21H966.395V342.681H1058.74V231.734V186.21V177.987H1027.02V186.21Z" fill="#3D898D"/>
<path d="M70.8624 227.975H25.2691V322.618H70.8624V227.975Z" fill="#3D898D"/>
<path d="M1144.65 225.932H1143.14V224.41H1140.36V202.898H1137.58V224.41H1106.79V346.4H1143.14V253.322H1144.65V225.932Z" fill="#3D898D"/>
<path d="M206.018 159.695H171.096V345.831H206.018V159.695Z" fill="#3D898D"/>
<path d="M443.623 150.629H372.803V345.831H443.623V150.629Z" fill="#3D898D"/>
<path d="M518.331 202.898H447.511V347.695H518.331V202.898Z" fill="#3D898D"/>
<path d="M667.184 98.4258H626.805V347.694H667.184V98.4258Z" fill="#3D898D"/>
<path d="M925.631 163.43H901.087V205.945H886.146V347.694H910.691V305.179H925.631V163.43Z" fill="#3D898D"/>
<path d="M1067.43 314.235V302.077H1060.65V293.233H1051.96V281.798C1051.96 278.692 1049.17 276.17 1045.71 276.17H1039.28V254.612H1035.29V253.184C1035.29 250.075 1032.49 247.562 1029.04 247.562H1003.44V232.32H994.615V156.989H956.151V296.187H942.115V259.578H935.972V251.858C935.972 251.768 935.926 251.68 935.851 251.62L935.368 251.226L935.667 247.261C935.67 247.21 935.664 247.164 935.645 247.12L935.36 246.429V243.848C935.36 243.814 935.357 243.773 935.34 243.739L934.833 242.34C934.775 242.183 934.6 242.087 934.419 242.108C934.239 242.139 934.109 242.277 934.109 242.44V245.083L933.753 245.183L933.277 244.352C933.198 244.221 933.033 244.144 932.862 244.183C932.692 244.221 932.577 244.352 932.577 244.508V246.145L931.585 246.314H930.401V219.628C930.401 219.447 930.237 219.297 930.033 219.297H929.835C929.821 219.249 929.795 219.207 929.761 219.168L929.233 218.599V217.565C929.233 217.384 929.066 217.233 928.868 217.233H928.361C928.154 217.233 927.983 217.384 927.983 217.565V218.49L927.911 218.547V209.808C927.96 209.745 927.983 209.676 927.983 209.596V201.117C927.983 201.039 927.96 200.97 927.911 200.914V199.133C927.911 199.067 927.885 199.001 927.847 198.946L927.362 198.315L926.56 196.302C926.51 196.158 926.362 196.064 926.195 196.073C926.043 196.079 925.897 196.179 925.856 196.32L925.499 197.483L923.017 192.081V190.127C923.017 190.081 923.005 190.034 922.985 189.991L922.403 188.821V186.983C922.403 186.871 922.332 186.765 922.231 186.708L921.681 186.386V185.415C921.681 185.367 921.672 185.331 921.657 185.289L921.077 184.048V182.028C921.077 181.844 920.908 181.694 920.705 181.694H920.091C919.891 181.694 919.723 181.844 919.723 182.028V184.482L919.343 185.288C919.323 185.329 919.314 185.366 919.314 185.413V186.385L918.772 186.707C918.665 186.764 918.599 186.87 918.599 186.982V188.82L918.017 189.989C917.999 190.032 917.989 190.08 917.989 190.126V192.031C917.989 192.031 917.982 192.044 917.982 192.047L915.522 197.554L915.143 196.32C915.097 196.179 914.963 196.079 914.802 196.073C914.644 196.064 914.494 196.158 914.435 196.302L913.639 198.315L913.155 198.946C913.112 199.002 913.091 199.067 913.091 199.133V202.621C913.078 202.659 913.061 202.699 913.061 202.746V204.332C913.061 204.371 913.078 204.413 913.091 204.45V206.119C913.078 206.156 913.061 206.197 913.061 206.247V207.826C913.061 207.873 913.078 207.913 913.091 207.957V209.001C913.078 209.032 913.061 209.079 913.061 209.127V218.536L913.015 218.491V217.566C913.015 217.385 912.848 217.235 912.647 217.235H912.137C911.931 217.235 911.764 250.672 911.764 250.859V251.89L911.241 252.463C911.202 252.499 911.182 252.544 911.167 252.59H910.963C910.756 252.59 910.596 252.737 910.596 252.921V279.604H908.853L908.427 279.532V277.804C908.427 277.654 908.308 277.511 908.141 277.479C907.977 277.439 907.806 277.509 907.72 277.654L907.254 278.476L906.893 278.376V275.736C906.893 275.573 906.763 275.436 906.588 275.401C906.403 275.383 906.231 275.476 906.168 275.633L905.66 277.037C905.65 277.067 905.65 277.109 905.65 277.143V279.727L905.362 280.414C905.339 280.459 905.335 280.508 905.339 280.552L905.433 281.797L897.35 279.997L891.693 281.384V269.889H873.102V256.911C873.102 256.811 873.053 256.718 872.962 256.655C872.962 256.649 872.955 256.649 872.955 256.649V227.015H875.549V149.001H843.633V219.361H825.246V263.386H814.567V274.516H805.454V271.056L800.746 270.136V231.709L798.039 232.122V199.368H794.053V185.763L782.453 175.326V249.615H776.089V231.433H776.114V182.489H768.713V181.955C768.713 181.855 768.664 181.755 768.57 181.692L766.926 180.541V176.222C766.926 176.128 766.884 176.044 766.809 175.972L765.466 174.884V170.253C765.466 170.196 765.446 170.141 765.418 170.093L764.602 168.731V164.468C764.602 164.444 764.602 164.424 764.599 164.411C764.574 164.267 764.381 163.314 763.925 162.555C763.745 157.855 763.444 149.803 763.252 143.937L763.212 140.156C763.208 140.063 763.176 139.984 763.134 139.9C763.114 139.272 763.1 138.709 763.094 138.251V136.882L763.082 136.635H761.977V138.247C761.894 142.788 761.384 156.332 761.134 162.84C760.787 163.534 760.635 164.29 760.61 164.411C760.61 164.424 760.606 164.442 760.606 164.468V168.731L759.789 170.093C759.764 170.139 759.743 170.196 759.743 170.253V174.884L758.404 175.972C758.327 176.044 758.287 176.128 758.287 176.222V180.541L756.634 181.692C756.543 181.755 756.494 181.855 756.494 181.955V182.489H749.927V207.387C749.767 208.14 749.649 208.9 749.588 209.671H749.497C749.29 209.671 749.124 209.828 749.124 210.006V213.666H730.369V249.225H720.864L719.093 237.471C719.082 237.425 719.057 237.384 719.019 237.339L718.915 237.227L718.836 236.739L717.631 235.548H717.264L715.943 234.204L714.962 209.563C714.962 209.484 714.906 209.406 714.839 209.363C714.757 209.319 714.659 209.309 714.573 209.348L701.434 214.548L701.426 214.077H701.409L700.669 176.672C700.669 176.534 700.543 176.431 700.394 176.431H700.391C700.239 176.431 700.121 176.53 700.116 176.669L698.537 217.371L688.741 234.404C688.724 234.428 688.713 234.46 688.713 234.488L686.154 257.27H680.745V265.989H639.448V133.991H618.623V216.865H601.122V209.286H584.215L583.237 172.071H583.264V171.74H583.228L581.651 111.62L581.668 111.189H574.72V98.8628H547.062V111.189H543.457L541.787 175.014H541.153V177.824H536.698V175.014H535.941V177.824H531.486V175.014H530.729V177.824H526.277V175.014H525.514V177.824H523.997V165.473C523.997 162.363 521.197 159.851 517.74 159.851H498.926C495.467 159.851 492.669 162.364 492.669 165.473V207.273H492.277V197.769C492.277 197.585 492.108 197.44 491.901 197.44H491.692V194.253C491.692 194.075 491.525 193.925 491.321 193.925V273.023H466.769V161.148H451.644V212.527H435.669V187.035H411.117V217.215H411.937V244.312H345.609V253.578H343.17V247.552C343.17 247.275 342.92 247.049 342.617 247.049H340.964V244.312H335.908V247.049H334.095C333.794 247.049 333.543 247.275 333.543 247.552V253.578H325.736C325.428 253.578 325.177 253.801 325.177 254.075V261.876C325.177 262.157 325.428 262.38 325.736 262.38H326.598V264.783H325.736C325.428 264.783 325.177 265.014 325.177 265.289V289.632L323.496 286.406V272.134H323.074V270.003L312.509 260.495L310.11 262.657L308.823 261.508L307.847 260.62V256.403H304.267V252.978H300.564V241.525H297.434L297.337 263.96H287.294V307.025L279.877 310.247L274.948 302.403V291.511L255.715 280.77V252.533C255.715 252.349 255.548 252.205 255.342 252.205H254.602V244.213C254.602 244.126 254.562 244.038 254.496 243.982C254.464 243.831 254.314 243.713 254.132 243.713H252.898V242.216C252.898 242.153 252.883 242.1 252.844 242.047L247.439 233.528V188.378H192.607V248.818L191.701 247.371V332.608L184.758 289.653V271.596C185.183 270.724 185.418 269.76 185.418 268.745C185.418 265.1 182.38 262.097 178.46 261.666L178.17 257.153H176.897L176.612 261.654C172.961 262.016 170.063 264.596 169.613 267.864H167.699V276.03H165.161V289.653L148.797 332.608V294.052H145.709V230.29H144.821V229.159C144.821 226.053 142.017 223.537 138.565 223.537H128.142C124.689 223.537 121.887 226.052 121.887 229.159V230.29H119.982L117.603 305.245C116.698 303.825 117.153 305.245 117.153 305.245V311.517L114.377 309.018H109.423V312.762H33.817V347.361H113.878V347.417H141.716V347.489H166.197V347.417H221.037C221.088 347.548 221.201 347.655 221.362 347.655H261.988C262.152 347.655 262.261 347.549 262.315 347.417H284.108V347.655H353.262L357.353 347.664L357.343 347.655H358.485C358.675 347.655 358.844 347.559 358.942 347.417H392.586V347.463H407.618C407.65 347.566 407.741 347.654 407.868 347.654H498.449V347.56H498.582V347.516C498.608 347.494 498.608 347.45 498.632 347.416H504.494C504.568 347.557 504.725 347.654 504.904 347.654H535.863C536.047 347.654 536.204 347.557 536.277 347.416H538.083C538.196 347.557 538.368 347.654 538.577 347.654H586.495C586.697 347.654 586.877 347.557 586.984 347.416H590.546V347.654H622.373V347.416H628.127C628.138 347.546 628.248 347.654 628.399 347.654H678.136C678.146 347.654 678.157 347.635 678.171 347.635H682.721C682.735 347.635 682.74 347.654 682.757 347.654H728.123C728.267 347.654 728.378 347.548 728.39 347.416H737.47C737.523 347.546 737.635 347.654 737.799 347.654H896.755C896.902 347.654 897.02 347.548 897.028 347.416H905.069C905.123 347.543 905.233 347.638 905.389 347.638H927.277C927.297 347.654 927.322 347.654 927.345 347.654H930.031C930.059 347.654 930.08 347.654 930.103 347.638H935.601C935.754 347.638 935.876 347.545 935.92 347.416H974.168V348.8H1023.76L1039.28 347.422H1067.43V345.884H1116.56V314.236H1067.43L1067.43 314.235Z" fill="#3D898D"/>
<path d="M1076.72 271.12L1076.88 260.373L1064.02 258.076V242.694H1061.72V257.617L1050.47 260.373V271.12H1046.58V290.98H998.706V345.559H1046.58V347.196H1082.59V271.12H1076.72Z" fill="#3D898D"/>
<path d="M683.105 312.954V193.291H681.175V176.912H673.621V167.296H656.827V146.312H655.094V167.296H651.144V190.5H649.666V193.291H643.241L640.757 312.954H620.364V347.684H691.794V312.954H683.105Z" fill="#3D898D"/>
<path d="M604.298 131.86L604.346 131.441H604.154V131.547L604.226 131.662C604.258 131.716 604.283 131.8 604.3 131.858L604.298 131.86Z" fill="#3D898D"/>
<path d="M172.134 219.488V202.431H168.451V181.714H156.584V170.141H151.674V141.507H148.4V170.141H144.715V181.714H141.034V347.428H164.766V348.039H170.497V348.653H174.588V219.488H172.134Z" fill="#3D898D"/>
<path d="M84.9677 260.307V255.398H79.6483V253.351H76.7836V255.398H75.1471V253.351H72.6908V255.398H70.646V253.351H67.7813V255.398H66.1448V253.351H63.2817V255.398H61.6437V260.307H60.8254V349.879H107.883V260.307H84.9677Z" fill="#3D898D"/>
<path d="M1104.46 280.327H1065.65V347.531H1104.46V280.327Z" fill="#3D898D"/>
<path d="M286.231 310.911V310.853H281.924L281.921 278.289V143.107H281.819L281.783 143.072C281.769 143.015 281.749 142.958 281.718 142.906L281.414 142.389H281.56V141.312H280.785L279.88 139.768C279.773 139.581 279.575 139.464 279.357 139.464L250.655 139.477V135.564C250.99 135.561 251.262 135.36 251.262 135.025C251.262 134.691 250.99 134.493 250.655 134.49V133.77C250.99 133.764 251.262 133.386 251.262 133.049C251.262 132.711 250.99 132.338 250.655 132.332V100.27C250.655 99.9293 250.276 99.6577 249.938 99.6577C249.601 99.6577 249.218 99.9293 249.218 100.27V130.535H248.394C248.055 130.535 247.781 130.81 247.781 131.145V139.475H245.145C244.809 139.475 244.545 139.753 244.545 140.09V306.181H219.645C219.304 306.181 219.032 306.452 219.032 306.791V330.965H214.253C213.915 330.965 213.642 331.24 213.642 331.577V344.252H213.697C213.792 344.465 214.004 344.617 214.253 344.617H281.317C281.479 344.617 281.635 344.522 281.75 344.405C281.792 344.364 281.818 344.307 281.845 344.252H285.98C286.317 344.252 286.592 343.982 286.592 343.643V311.462C286.592 311.215 286.443 311.005 286.233 310.908L286.231 310.911Z" fill="#3D898D"/>
<path d="M514.843 235.647C514.82 235.509 514.762 235.388 514.68 235.285V231.291C514.68 230.841 514.315 230.474 513.864 230.474H513.578C513.612 227.691 513.176 220.421 508.286 213.777C507.721 213.005 506.573 211.634 505.242 210.436H505.271V209.614H504.255C504.184 209.56 504.114 209.506 504.043 209.454V207.161H504.454V206.342H504.043V192.435H504.454V191.619H504.043V190.392H503.254L503.239 170.368L502.818 170.35V160.125H500.363V170.35L499.989 170.375L500.019 190.392H499.135V191.619H498.725V192.435H499.135V206.342H498.725V207.161H499.135V208.707C497.082 209.815 494.726 212.287 493.628 213.778C488.725 220.442 488.317 227.737 488.36 230.504C487.976 230.569 487.675 230.89 487.675 231.292V235.793C487.675 235.9 487.698 236.001 487.736 236.095C487.747 236.124 487.767 236.146 487.781 236.173C487.815 236.235 487.85 236.293 487.897 236.344C487.921 236.368 487.948 236.388 487.974 236.41C488.025 236.451 488.076 236.488 488.135 236.517C488.169 236.534 488.203 236.545 488.238 236.557C488.269 236.568 488.297 236.586 488.33 236.592C489.675 237.27 495.272 242.871 494.787 257.396C494.755 258.352 494.714 259.472 494.663 260.74H493.406C492.956 260.74 492.587 261.105 492.587 261.559V264.423C492.587 264.875 492.954 265.242 493.406 265.242H494.471C493.826 279.647 492.411 306.405 490.38 342.506L490.268 344.544C490.254 344.766 490.335 344.987 490.49 345.153C490.645 345.316 490.86 345.406 491.085 345.406H511.291C511.516 345.406 511.731 345.313 511.888 345.153C512.041 344.984 512.121 344.762 512.107 344.538C511.988 342.546 509.132 289.733 508.064 265.242H510.185C510.637 265.242 511.002 264.877 511.002 264.423V261.559C511.002 261.107 510.637 260.74 510.185 260.74H507.875C507.826 259.497 507.783 258.371 507.75 257.396C507.256 242.526 513.153 237.026 514.332 236.554C514.702 236.416 514.92 236.035 514.848 235.647H514.843Z" fill="#3D898D"/>
<path d="M1107.58 168.547C1107.53 168.536 1106.24 168.249 1104.26 168.249C1102.6 168.249 1100.53 168.452 1098.34 169.136V140.766C1098.34 140.247 1097.92 139.828 1097.41 139.828H1094.42C1093.91 139.828 1093.49 140.247 1093.49 140.766V171.49C1092.94 171.863 1092.4 172.276 1091.87 172.733C1091.59 172.983 1091.31 173.25 1091.04 173.548C1090.79 173.822 1090.55 174.123 1090.31 174.438C1090.31 174.447 1090.3 174.453 1090.29 174.459C1090.04 174.806 1089.8 175.176 1089.57 175.572C1089.33 175.173 1089.08 174.795 1088.83 174.444C1088.59 174.123 1088.34 173.824 1088.1 173.548C1087.83 173.255 1087.55 172.983 1087.26 172.733C1085.43 171.158 1083.5 170.118 1081.63 169.438V140.766C1081.63 140.247 1081.21 139.828 1080.69 139.828H1077.71C1077.19 139.828 1076.77 140.247 1076.77 140.766V168.36C1076.06 168.292 1075.39 168.266 1074.78 168.266C1072.74 168.266 1071.4 168.559 1071.34 168.574C1070.91 168.668 1070.61 169.049 1070.61 169.486V344.062C1070.61 344.58 1071.03 344.996 1071.55 344.996H1089.12C1089.32 344.996 1089.49 344.939 1089.64 344.843H1090.3C1090.45 344.939 1090.63 344.996 1090.82 344.996H1107.37C1107.89 344.996 1108.31 344.579 1108.31 344.062V169.463C1108.31 169.024 1108.01 168.644 1107.58 168.547H1107.58Z" fill="#3D898D"/>
<path d="M1039.27 265.786L1036.5 251.936L1039.08 245.341C1039.16 245.165 1039.16 244.976 1039.1 244.8L1036.78 237.411L1037.94 229.595C1037.95 229.555 1037.95 229.515 1037.95 229.478V208.871C1037.95 208.418 1037.59 208.051 1037.14 208.051H999.761C999.308 208.051 998.946 208.42 998.946 208.871V229.695L997.475 237.476C997.453 237.606 997.459 237.735 997.489 237.853L999.492 244.708L996.921 251.267C996.856 251.426 996.85 251.597 996.893 251.762L1000.4 265.771L997.937 273.861C997.915 273.936 997.903 274.019 997.903 274.1V347.631C997.903 347.85 997.991 348.053 998.144 348.208C998.301 348.361 998.502 348.446 998.721 348.446L1010.63 348.378C1010.73 348.423 1010.84 348.446 1010.95 348.446H1011.17C1011.17 348.446 1011.17 348.446 1011.18 348.446H1011.18L1023.1 348.38C1023.19 348.421 1023.3 348.446 1023.41 348.446C1023.53 348.446 1023.64 348.421 1023.74 348.375L1037.13 348.3C1037.58 348.298 1037.95 347.93 1037.95 347.482L1037.65 273.881L1039.27 266.107C1039.29 266.001 1039.29 265.894 1039.27 265.785L1039.27 265.786Z" fill="#3D898D"/>
<path d="M833.163 191.691L827.871 184.718C827.819 184.646 827.757 184.585 827.687 184.54L820.903 180.017C820.774 179.931 820.636 179.877 820.47 179.886L818.175 179.906V179.622H818.419C818.844 179.622 819.19 179.279 819.19 178.855V175.295C819.19 174.867 818.844 174.526 818.419 174.526H815.981V170.661C815.981 170.236 815.636 169.889 815.21 169.889H813.884L813.878 169.005C814.166 168.893 814.368 168.614 814.368 168.289V148.269C814.368 147.887 814.091 147.568 813.727 147.508L813.625 124.902C813.813 124.763 813.936 124.536 813.936 124.284C813.936 124.236 813.932 124.189 813.921 124.141L813.479 104.247C813.47 103.827 813.127 103.492 812.708 103.492H809.741C809.32 103.492 808.978 103.827 808.97 104.247L808.526 124.267C808.52 124.474 808.6 124.674 808.746 124.824C808.772 124.85 808.798 124.872 808.826 124.895L808.672 147.519C808.333 147.598 808.08 147.901 808.08 148.267V168.287C808.08 168.565 808.225 168.806 808.445 168.941L808.434 169.888H807.525C807.098 169.888 806.756 170.233 806.756 170.66V174.525H804.028C803.601 174.525 803.256 174.867 803.256 175.294V178.854C803.256 179.277 803.601 179.621 804.028 179.621H804.271V179.905L802.306 179.883C802.154 179.885 801.999 179.928 801.87 180.014L795.084 184.537C795.01 184.582 794.951 184.643 794.898 184.715L789.608 191.688C789.43 191.924 789.401 192.242 789.538 192.504L793.199 199.607C793.254 199.716 793.333 199.806 793.429 199.877L799.941 204.655C800.072 204.752 800.233 204.809 800.397 204.809H801.93V207.057C801.93 207.482 802.273 207.825 802.7 207.825H802.981V212.245C802.981 212.575 803.187 212.852 803.477 212.967V216.73H803.388C803.277 216.73 803.175 216.754 803.079 216.797H800.011C799.751 216.797 799.524 216.929 799.383 217.118C799.223 217.259 799.122 217.466 799.122 217.695V221.907C799.122 222.091 799.185 222.26 799.295 222.395C799.412 222.676 799.687 222.875 800.011 222.875H803.477V230.396C803.477 230.537 803.512 230.667 803.578 230.781V341.847C803.578 342.275 803.925 342.621 804.351 342.621H819.262C819.689 342.621 820.032 342.275 820.032 341.847V222.875H823.603C824.027 222.875 824.372 222.529 824.372 222.105V217.572C824.372 217.143 824.027 216.797 823.603 216.797H821.723C821.627 216.754 821.523 216.73 821.411 216.73H820.032V212.944C820.3 212.823 820.484 212.559 820.484 212.245V207.825H820.768C821.193 207.825 821.537 207.48 821.537 207.057V204.809H822.377C822.539 204.809 822.701 204.752 822.831 204.655L829.343 199.877C829.44 199.806 829.518 199.717 829.572 199.607L833.235 192.504C833.37 192.24 833.346 191.924 833.164 191.688L833.163 191.691Z" fill="#3D898D"/>
<path d="M893.529 133.144C893.779 133.037 893.954 132.791 893.954 132.503C893.954 132.199 893.761 131.947 893.489 131.851L893.475 131.381L894.763 81.562C894.763 81.5175 894.763 81.4715 894.76 81.4255L888.021 15.2616C887.963 14.7261 887.516 14.3194 886.971 14.3164L880.216 14.2979C880.168 14.2841 880.084 14.3056 880.027 14.3164H866.316C865.839 14.3164 865.412 14.6401 865.302 15.1066L860.583 33.6151H860.302L854.407 15.4703C854.262 15.0391 853.865 14.7445 853.406 14.7445H846.955C846.398 14.7445 845.935 15.1818 845.903 15.7373L839.446 131.436V131.548L839.482 132.274C839.442 132.391 839.42 132.513 839.448 132.642L839.514 132.954L842.025 184.396L839.879 235.536C839.876 235.561 839.876 235.593 839.879 235.622L844.064 343.101L843.904 344.249C843.863 344.556 843.954 344.857 844.153 345.084C844.354 345.312 844.641 345.447 844.941 345.447H892.138C892.705 345.447 893.171 344.992 893.187 344.425L894.762 285.186L895.049 183.999V183.503L893.528 133.139L893.529 133.144Z" fill="#3D898D"/>
<path d="M341.312 339.827C341.166 339.67 340.962 339.569 340.732 339.569H339.699C339.68 339.472 339.642 339.385 339.588 339.299C339.493 339.153 337.2 335.688 331.739 333.669L331.722 333.707C331.231 333.459 330.261 333.141 328.335 332.673C327.833 332.552 327.466 332.116 327.434 331.602L325.756 303.531V302.937C325.756 302.886 325.738 302.84 325.713 302.8L314.272 111.433C314.264 111.301 314.224 111.171 314.15 111.054L312.043 107.729C311.943 107.571 311.881 107.388 311.864 107.204C311.602 104.296 311.327 101.805 311.042 99.7683C311.034 99.7161 311.031 99.6655 311.031 99.6118V66.7838C311.031 66.414 310.778 66.0933 310.418 66.0043C310.054 65.9214 309.689 66.0902 309.519 66.4186C308.958 67.5096 307.31 67.1198 307.3 65.8923L306.765 0.791775C306.76 0.36213 306.415 0.0107411 305.985 0H305.965C305.543 0 305.191 0.331441 305.166 0.756483L300.564 84.3885L300.48 84.5634C300.429 84.6724 300.401 84.7906 300.401 84.9118V87.3147C300.401 87.3362 300.401 87.3577 300.4 87.3792L298.32 125.176C298.313 125.199 298.304 125.223 298.304 125.249C298.304 125.265 298.31 125.277 298.313 125.291L298.272 126.04C298.238 126.661 297.722 127.149 297.099 127.149H295.404C295.048 127.149 294.735 127.384 294.637 127.726C294.538 128.07 294.681 128.436 294.982 128.624C294.994 128.628 296.253 129.417 296.966 130.045C297.196 130.249 297.366 130.414 297.491 130.548C297.71 130.783 297.813 131.1 297.79 131.419L288.454 259.191C288.45 259.21 288.444 259.227 288.444 259.245V259.343L285.352 301.663C285.289 301.711 285.247 301.783 285.247 301.871V303.057C285.247 303.086 285.247 303.113 285.244 303.143L283.192 331.24C283.155 331.748 282.79 332.176 282.294 332.294C280.544 332.714 279.345 333.126 278.617 333.413C278.597 333.42 278.579 333.426 278.557 333.433C272.347 335.34 269.46 339.089 269.343 339.248C269.269 339.345 269.22 339.452 269.199 339.567H267.559C267.323 339.567 267.117 339.675 266.971 339.837C266.753 339.949 266.589 340.126 266.589 340.368V343.307C266.589 343.548 266.749 343.718 266.962 343.825C267.108 343.996 267.317 344.108 267.559 344.108H340.735C340.971 344.108 341.177 344 341.325 343.836C341.564 343.73 341.748 343.555 341.748 343.305V340.367C341.748 340.115 341.558 339.934 341.315 339.824L341.312 339.827Z" fill="#3D898D"/>
<path d="M997.11 278.067C996.978 277.653 996.595 277.376 996.162 277.376H992.736V274.157H995.032C995.527 274.157 995.944 273.796 996.016 273.305C996.089 272.822 995.791 272.357 995.321 272.21L963.547 262.618C963.523 262.596 963.495 262.577 963.469 262.552C963.25 262.386 962.972 262.326 962.705 262.369C962.439 262.326 962.161 262.386 961.939 262.552C961.912 262.577 961.886 262.595 961.86 262.618L930.088 272.21C929.617 272.357 929.322 272.821 929.393 273.305C929.465 273.795 929.884 274.157 930.378 274.157H933.591V277.376H928.142C927.702 277.376 927.316 277.659 927.188 278.079C927.139 278.242 926.035 282.09 931.026 284.981C933.31 286.307 937.663 288.386 941.871 290.399C945.724 292.242 949.364 293.984 950.633 294.777C952.873 296.178 952.873 299.663 952.873 307.3V346.374C952.873 346.925 953.319 347.372 953.868 347.372H970.434C970.984 347.372 971.429 346.925 971.429 346.374V307.3C971.429 301.361 971.429 297.781 972.551 295.911C972.84 295.437 973.196 295.073 973.67 294.777C975.259 293.789 980.161 291.406 984.899 289.107C988.11 287.553 991.141 286.086 993.23 285.004C997.372 282.874 997.576 279.535 997.106 278.067H997.11Z" fill="#3D898D"/>
<path d="M220.004 240.553H219.922V221.694H218.269V223.015H213.64V221.694H211.325V223.015H207.027V221.694H204.713V223.015H200.083V221.694H197.768V223.015H193.473V221.694H190.826V223.015H186.858V221.694H184.214V223.015H179.916V221.694H177.602V227.313H175.659L171.05 197.514C170.992 197.128 170.658 196.908 170.267 196.908H135.538C135.145 196.908 134.812 197.175 134.754 197.562L130.223 227.916C130.197 228.09 130.242 228.254 130.318 228.401V343.965C130.318 344.404 130.695 344.967 131.134 344.967H185.088C185.324 344.967 185.531 344.801 185.673 344.58H220.005C220.443 344.58 220.799 344.224 220.799 343.786V241.346C220.799 240.909 220.444 240.553 220.005 240.553H220.004ZM155.845 203.115C155.964 203.115 156.079 203.127 156.197 203.132C157.091 203.287 157.944 203.669 158.719 204.241L158.793 204.715L159.185 204.657L159.177 204.613C161.134 206.314 162.484 209.214 162.484 212.366C162.484 214.326 161.905 216.385 160.901 218.056L160.882 218.059L160.885 218.081C159.67 220.092 157.837 221.536 155.634 221.536C155.537 221.536 155.448 221.559 155.362 221.591C150.23 221.349 146.129 217.31 146.129 212.368C146.129 207.425 150.489 203.115 155.845 203.115ZM218.269 225.331V240.553H213.64V225.331H218.269ZM211.325 225.331V240.553H207.027V225.331H211.325ZM204.713 225.331V240.553H200.083V225.331H204.713ZM197.768 225.331V240.553H193.473V225.331H197.768ZM190.825 225.331V240.553H186.856V225.331H190.825ZM179.914 225.331H184.213V227.313H179.914V225.331Z" fill="#3D898D"/>
<path d="M107.785 304.863H13.8673V347.531H107.785V304.863Z" fill="#3D898D"/>
<path d="M486.091 235.72H479.081V227.925C479.081 226.147 477.857 225.091 475.808 225.091H438.928C436.985 225.091 436.114 226.749 436.114 227.925V235.72H430.85C428.836 235.72 427.932 237.146 427.932 238.154V259.831C427.932 260.898 429.169 261.897 430.13 261.897H433.251V344.901C433.251 345.836 434.119 346.969 435.196 346.969H480.773C481.718 346.969 482.357 346.141 482.357 344.901V261.897H486.094C487.041 261.897 487.676 261.068 487.676 259.831V238.154C487.676 236.982 487.181 235.72 486.094 235.72H486.091ZM436.114 258.628C436.005 258.628 435.906 258.659 435.807 258.69C435.709 258.659 435.609 258.628 435.5 258.628H436.113H436.114Z" fill="#3D898D"/>
<path d="M146.366 345.308C144.761 339.776 139.015 312.29 138.957 312.009C138.909 311.779 138.713 311.613 138.479 311.595C138.453 311.469 138.44 311.401 138.44 311.401H137.936C137.936 311.401 137.681 310.453 137.242 308.549H135.802C135.719 308.165 135.63 307.694 135.537 307.195C135.444 306.701 135.345 306.184 135.243 305.693H136.603C136.418 304.745 136.214 303.792 136 302.836H134.637C134.629 302.801 134.623 302.768 134.615 302.733C134.442 301.881 134.253 300.965 134.063 299.986H135.426C135.251 299.034 135.07 298.079 134.878 297.129H133.513C133.507 297.094 133.501 297.062 133.493 297.026C133.323 296.15 133.152 295.227 132.977 294.274H134.342C134.178 293.321 134.009 292.372 133.832 291.42H132.468C132.462 291.389 132.457 291.358 132.451 291.328L132.265 290.247C132.171 289.701 132.075 289.144 131.976 288.564H133.343C133.185 287.611 133.028 286.66 132.865 285.71H131.497C131.493 285.682 131.488 285.653 131.484 285.626C131.336 284.726 131.19 283.803 131.04 282.854H132.409C132.26 281.903 132.113 280.953 131.963 279.997H130.595L130.583 279.919C130.477 279.23 130.372 278.53 130.263 277.815L130.166 277.148H131.53L131.109 274.291H129.752L129.337 271.436H130.705C130.573 270.485 130.443 269.535 130.312 268.581H128.941L128.931 268.506C128.842 267.855 128.756 267.195 128.667 266.531L128.562 265.728H129.929C129.804 264.775 129.68 263.824 129.557 262.871H128.189L128.057 261.858C127.982 261.251 127.902 260.635 127.825 260.017H129.195C129.076 259.063 128.961 258.116 128.842 257.161H127.472C127.469 257.14 127.466 257.119 127.465 257.097C127.385 256.44 127.308 255.785 127.23 255.118L127.136 254.307H128.505C128.395 253.359 128.281 252.403 128.172 251.453H126.804L126.672 250.309C126.608 249.741 126.545 249.17 126.484 248.602H127.853C127.804 248.127 127.758 247.743 127.71 247.316C127.652 246.79 127.597 246.219 127.544 245.747H126.173C126.172 245.73 126.169 245.71 126.167 245.693C126.074 244.757 125.985 243.823 125.9 242.89H127.273C127.187 241.941 127.11 240.991 127.039 240.036H125.668C125.668 240.023 125.667 240.011 125.665 239.997C125.595 239.052 125.527 238.114 125.472 237.177H126.846C126.784 236.229 126.732 235.279 126.683 234.327H125.311C125.311 234.317 125.311 234.306 125.309 234.295C125.262 233.348 125.22 232.408 125.182 231.473H126.554C126.52 230.52 126.491 229.569 126.464 228.616H125.09V228.602C125.067 227.676 125.053 226.761 125.039 225.853V225.761H126.41C126.396 224.809 126.391 223.859 126.387 222.905H125.013C125.007 221.946 125.013 220.99 125.027 220.055C125.027 220.054 125.027 220.052 125.027 220.049H126.399C126.407 219.101 126.419 218.148 126.441 217.195H125.067C125.085 216.238 125.113 215.293 125.142 214.357C125.142 214.352 125.142 214.347 125.142 214.343H126.514C126.543 213.39 126.582 212.438 126.625 211.489H125.252C125.291 210.539 125.335 209.595 125.387 208.658C125.387 208.648 125.387 208.639 125.389 208.63H126.761C126.807 207.679 126.866 206.729 126.927 205.776H125.556C125.616 204.828 125.682 203.885 125.753 202.959C125.753 202.946 125.754 202.936 125.756 202.923H127.128C127.2 201.974 127.276 201.016 127.357 200.069H125.986C126.068 199.121 126.157 198.179 126.243 197.263C126.244 197.246 126.246 197.229 126.247 197.212H127.618C127.709 196.264 127.807 195.311 127.908 194.355H126.539C126.642 193.41 126.745 192.48 126.857 191.568L126.861 191.525C126.861 191.525 126.863 191.513 126.864 191.507H128.235C128.35 190.557 128.464 189.6 128.587 188.65H127.217C127.345 187.66 127.469 186.723 127.595 185.865C127.598 185.842 127.601 185.819 127.604 185.794H128.972C129.104 184.846 129.247 183.893 129.385 182.945H128.019C128.163 181.986 128.31 181.059 128.452 180.177L128.458 180.137C128.461 180.121 128.464 180.105 128.465 180.088H129.832C129.876 179.61 129.918 179.594 129.956 179.345C130.081 178.642 130.199 177.708 130.318 177.232H128.955C129.124 176.255 129.294 175.34 129.456 174.485C129.463 174.447 129.47 174.413 129.477 174.375H130.837C131.034 173.424 131.223 172.474 131.399 171.522H130.041C130.252 170.479 130.449 169.581 130.621 168.805C130.624 168.794 130.625 168.786 130.629 168.776C130.649 168.742 130.665 168.704 130.678 168.668H132.006C132.029 168.668 132.058 168.434 132.079 168.32C132.319 167.218 132.5 166.479 132.6 166.103C132.647 165.908 132.67 165.814 132.67 165.814H122.663C122.658 165.481 122.655 165.144 122.653 164.802H122.715V164.45H122.652C122.652 164.398 122.652 164.346 122.652 164.294C122.656 163.988 122.662 163.681 122.667 163.373H122.716V163.018H122.675C122.681 162.661 122.689 162.303 122.696 161.944H122.718V161.593H122.704C122.851 154.551 123.115 147.109 123.277 142.887C123.384 140.8 123.462 139.497 123.465 139.452C123.481 139.231 123.353 139.026 123.152 138.937L107.338 131.912C107.191 131.848 107.024 131.852 106.881 131.923C106.74 131.998 106.637 132.132 106.605 132.288C106.597 132.325 106.445 133.063 106.188 134.473H106.06V134.828H106.126C105.811 136.577 105.361 139.216 104.83 142.745L102.189 141.832V141.55H101.836V141.71L97.9046 140.35V140.124H97.55V140.227L95.1582 139.4C94.997 139.347 94.8174 139.371 94.6777 139.468C94.538 139.571 94.4551 139.73 94.4551 139.897C94.4551 140.258 94.3323 172.887 95.1367 202.991H95.1106V203.342H95.1475C95.1567 203.701 95.1674 204.059 95.1766 204.418H95.1106V204.772H95.1858C95.1966 205.13 95.2058 205.487 95.2165 205.845H95.1106V206.199H95.2273C95.238 206.558 95.2488 206.916 95.2595 207.273H95.1121V207.628H95.2703C95.281 207.987 95.2918 208.345 95.304 208.702H95.1121V209.057H95.3148C95.347 210.072 95.3808 211.082 95.4146 212.084C95.5819 216.934 95.8045 222.167 96.064 227.554V227.61H96.067C96.0839 227.967 96.1023 228.323 96.1192 228.682H96.064V229.037H96.1361C97.6114 259.076 100.138 293.327 100.167 293.738C100.169 293.758 100.18 293.775 100.183 293.795L100.191 294.295C100.204 295.26 100.224 296.21 100.247 297.155L100.25 297.269C100.269 298.185 100.287 299.1 100.31 300.012C100.323 300.531 100.338 301.05 100.352 301.562L100.617 309.687C100.64 310.303 100.663 310.927 100.691 311.524C101.165 323.109 101.832 332.538 102.312 338.461V344.725H102.665V342.593C102.82 344.312 102.917 345.257 102.92 345.291C102.949 345.561 103.173 345.767 103.445 345.767L145.879 346.08H145.89C146.183 346.08 146.419 345.842 146.419 345.547C146.419 345.466 146.403 345.391 146.369 345.32L146.366 345.308ZM97.2675 230.456H97.2798C97.2998 230.812 97.3197 231.171 97.3412 231.529H97.3228C97.3044 231.171 97.2875 230.813 97.2691 230.456H97.2675ZM97.9445 241.519H97.9031V240.861C97.9169 241.08 97.9307 241.3 97.9445 241.519ZM98.1288 244.376H98.0136C97.9937 244.019 97.9722 243.66 97.9522 243.301H98.0582C98.0812 243.66 98.1042 244.017 98.1288 244.376ZM97.9031 241.877H97.9676C97.9906 242.234 98.0136 242.592 98.0367 242.949H97.9338C97.9231 242.77 97.9138 242.589 97.9031 242.409V241.877ZM98.0336 244.728H98.1518C98.1748 245.087 98.1994 245.444 98.2224 245.804H98.095C98.075 245.446 98.0535 245.087 98.0336 244.728ZM98.115 246.155H98.2454C98.2685 246.514 98.293 246.873 98.3176 247.232H98.1779C98.1564 246.873 98.1364 246.514 98.115 246.155ZM98.1979 247.583H98.3406C98.3652 247.943 98.3882 248.3 98.4128 248.658H98.2608C98.2393 248.3 98.2193 247.941 98.1979 247.583ZM97.3381 231.883H97.3596C97.3796 232.241 97.4011 232.6 97.4211 232.959H97.3934C97.375 232.6 97.3566 232.242 97.3381 231.883ZM97.4118 233.312H97.4425C97.464 233.669 97.484 234.028 97.5055 234.387H97.4671C97.4487 234.028 97.4303 233.671 97.4118 233.312ZM97.4855 234.734H97.5254C97.5331 234.858 97.5408 234.981 97.5469 235.105V235.811H97.5408C97.5224 235.452 97.5024 235.093 97.484 234.734H97.4855ZM98.4358 249.012C98.6077 251.545 98.7828 254.065 98.9578 256.549C99.0023 258.573 99.0499 260.534 99.1005 262.426C98.8288 258.145 98.5525 253.628 98.2808 249.012H98.4358ZM97.1693 228.466C97.1724 228.535 97.177 228.602 97.18 228.671C97.177 228.602 97.1739 228.535 97.1693 228.466ZM97.2 229.024C97.2199 229.383 97.2399 229.742 97.2599 230.101H97.2506C97.2322 229.741 97.2153 229.383 97.1969 229.024H97.2Z" fill="#3D898D"/>
<path d="M97.2368 305.656V305.596H84.1433V306.821H82.9996V283.569H82.9151V283.509H80.1349V271.709H80.049V271.646H79.2307V283.509H67.4497V281.525H67.3637V281.462H62.2393L62.2332 281.525H62.1656L62.1303 281.894C62.1272 281.943 61.9292 283.819 61.0695 286.782H45.7638V282.345H45.6762V282.285H35.6761L35.6577 282.345H35.6024L35.4934 282.579C35.4443 282.688 30.5056 293.48 30.5056 309.066C30.5056 322.276 32.7546 331.634 33.4562 334.227H31.7629V346.497H31.8473V346.557H95.2733V335.107H97.3197V305.658H97.2353L97.2368 305.656ZM81.2771 286.782H69.0862V285.206H81.2771V286.782ZM64.8568 286.782H61.9737C62.3913 285.618 62.6492 284.169 62.8058 283.301L64.8568 286.782ZM66.547 282.345V284.145C66.547 284.191 66.5532 284.396 66.5332 284.743C66.4641 285.228 66.3521 285.918 66.1771 286.782H65.9161L63.3001 282.345H66.547Z" fill="#3D898D"/>
<path d="M246.386 321.021V319.565C246.386 319.508 246.375 319.452 246.354 319.403C246.283 319.143 246.056 318.949 245.773 318.949C245.436 318.949 245.161 319.224 245.161 319.565C245.161 319.508 245.148 319.452 245.129 319.403C245.056 319.143 244.829 318.949 244.547 318.949C244.209 318.949 243.934 319.224 243.934 319.565C243.934 319.508 243.922 319.452 243.902 319.403C243.83 319.143 243.603 318.949 243.32 318.949C242.982 318.949 242.706 319.224 242.706 319.565C242.706 319.508 242.694 319.452 242.674 319.403C242.602 319.143 242.376 318.949 242.093 318.949C241.756 318.949 241.479 319.224 241.479 319.565C241.479 319.508 241.467 319.452 241.447 319.403C241.375 319.143 241.148 318.949 240.867 318.949C240.528 318.949 240.251 319.224 240.251 319.565V303.841C240.251 303.786 240.239 303.732 240.219 303.683C240.217 303.678 240.213 303.674 240.21 303.669C240.191 303.628 240.167 303.588 240.136 303.557L240.503 302.119C240.598 302.044 240.661 301.926 240.661 301.797V299.75C240.661 299.522 240.478 299.344 240.25 299.344H239.433V280.936C239.433 280.883 239.421 280.83 239.405 280.786L240.147 277.518C240.208 277.445 240.248 277.356 240.248 277.255C240.248 277.22 240.236 277.189 240.228 277.157L240.505 275.94C240.598 275.865 240.66 275.75 240.66 275.621V272.758C240.66 272.532 240.477 272.348 240.248 272.348H239.431V266.623C239.657 266.623 239.84 266.439 239.84 266.213V263.347C239.84 263.121 239.657 262.94 239.431 262.94H239.266L238.612 262.503V259.624C238.612 259.568 238.602 259.515 238.579 259.465C238.552 259.399 237.929 257.964 236.662 257.708C236.412 252.761 236.016 252.761 235.633 252.761C235.506 252.761 235.385 252.811 235.293 252.905C235.179 253.02 234.837 253.367 234.881 257.714C233.888 257.949 233.417 258.971 233.301 259.546C233.297 259.568 233.294 259.597 233.294 259.624V262.458L232.173 262.974C231.998 263.055 231.903 263.246 231.944 263.436C231.963 263.517 232.007 263.592 232.066 263.648V266.21C232.066 266.436 232.25 266.62 232.474 266.62V272.345H231.656C231.429 272.345 231.247 272.529 231.247 272.755V275.796C231.247 275.83 231.251 275.874 231.263 275.908L232.732 281.045C232.758 281.133 232.812 281.208 232.884 281.257V299.339H232.473C232.248 299.339 232.064 299.517 232.064 299.746V301.43C232.01 301.455 231.966 301.49 231.929 301.542C231.851 301.642 231.825 301.771 231.857 301.895L232.473 304.211V318.984C232.408 318.961 232.34 318.943 232.268 318.943C231.961 318.943 231.717 319.173 231.673 319.471C231.657 319.454 231.642 319.434 231.627 319.416C231.625 319.409 231.625 319.402 231.622 319.396C231.57 319.207 231.439 319.055 231.261 318.986C228.07 315.294 217.911 304.892 204.241 304.113V304.025L203.596 304.053C203.596 304.053 203.369 304.062 203.229 304.068C203.065 304.062 202.839 304.053 202.836 304.053H202.193V304.113C188.278 304.906 178.03 315.673 175.048 319.181C174.935 319.038 174.768 318.942 174.573 318.942C174.234 318.942 173.961 319.216 173.961 319.557C173.961 319.5 173.948 319.445 173.928 319.396C173.856 319.135 173.627 318.942 173.347 318.942C173.007 318.942 172.732 319.216 172.732 319.557C172.732 319.5 172.72 319.445 172.7 319.396C172.628 319.135 172.401 318.942 172.12 318.942C171.779 318.942 171.506 319.216 171.506 319.557C171.506 319.5 171.494 319.445 171.474 319.396C171.401 319.135 171.173 318.942 170.892 318.942C170.553 318.942 170.279 319.216 170.279 319.557C170.279 319.5 170.267 319.445 170.247 319.396C170.175 319.136 169.946 318.942 169.665 318.942C169.327 318.942 169.051 319.216 169.051 319.557C169.051 319.5 169.039 319.445 169.019 319.396C168.947 319.135 168.719 318.942 168.439 318.942C168.099 318.942 167.824 319.216 167.824 319.557C167.824 319.5 167.812 319.445 167.792 319.396C167.72 319.135 167.493 318.942 167.212 318.942C166.871 318.942 166.598 319.216 166.598 319.557C166.598 319.5 166.586 319.445 166.566 319.396C166.493 319.135 166.266 318.942 165.984 318.942C165.646 318.942 165.371 319.216 165.371 319.557C165.371 319.5 165.359 319.445 165.339 319.396C165.267 319.135 165.038 318.942 164.757 318.942C164.419 318.942 164.145 319.216 164.145 319.557C164.145 319.5 164.132 319.445 164.112 319.396C164.04 319.135 163.812 318.942 163.529 318.942C163.193 318.942 162.917 319.216 162.917 319.557C162.917 319.5 162.904 319.445 162.884 319.396C162.812 319.135 162.585 318.942 162.302 318.942C161.965 318.942 161.69 319.216 161.69 319.557C161.69 319.5 161.678 319.445 161.658 319.396C161.586 319.135 161.358 318.942 161.076 318.942C160.738 318.942 160.462 319.216 160.462 319.557C160.462 319.5 160.449 319.445 160.43 319.396C160.359 319.135 160.133 318.942 159.849 318.942C159.51 318.942 159.235 319.216 159.235 319.557C159.235 319.5 159.223 319.445 159.203 319.396C159.131 319.135 158.905 318.942 158.621 318.942C158.283 318.942 158.009 319.216 158.009 319.557V321.829H158.417V344.324H246.803V321.015H246.394L246.386 321.021ZM237.793 272.35H236.975V266.624H237.793V272.35ZM236.158 266.623V272.348H235.749V266.623H236.158ZM234.93 266.623V272.348H234.111V266.623H234.93Z" fill="#3D898D"/>
<path d="M425.015 345.117L424.364 341.849C424.343 341.735 424.3 341.628 424.237 341.534L421.762 337.752V314.965C421.762 314.474 421.361 314.072 420.868 314.072H417V311.993C417 311.499 416.602 311.1 416.108 311.1H406.815C407.588 307.542 409.784 296.007 408.582 284.927C407.376 273.781 402.019 262.805 397.431 258.712C397.28 258.576 397.13 258.447 396.979 258.326L396.788 252.909C396.889 252.727 397.05 252.427 397.253 252.042C399.672 247.485 408.585 229.116 408.585 205.86C408.585 182.604 400.543 177.115 397.552 175.625C399.575 172.225 406.298 160.024 406.428 147.816C406.579 133.718 403.708 129.659 397.575 124.316C397.475 124.229 397.374 124.138 397.274 124.051C392.52 119.839 387.755 114.952 386.503 109.741C386.385 109.213 386.241 108.694 386.178 108.195C386.144 107.847 386.061 107.497 386.061 107.152V92.2739C386.061 91.7798 385.662 91.3809 385.169 91.3809C384.676 91.3809 384.276 91.7798 384.276 92.2739V105.429C384.276 105.429 384.276 105.43 384.276 105.432C384.228 105.533 384.199 105.645 384.193 105.763C384.191 105.795 384.127 106.905 383.891 108.723C383.098 109.664 376.884 117.316 372.662 130.319C371.842 130.713 371.256 131.138 370.958 131.556C370.3 132.478 370.3 133.397 370.425 134.048L370.534 134.457C370.582 134.597 370.622 134.681 370.622 134.681C370.673 134.781 370.749 134.87 370.846 134.932L371.196 135.41C370.837 136.836 370.51 138.318 370.215 139.845H365.835C365.507 139.845 365.207 140.026 365.051 140.314C364.966 140.465 356.753 155.84 356.753 173.603C356.753 177.959 357.293 182.309 358.107 186.403C359.361 198.077 362.295 204.071 364.787 207.127C365.137 207.905 365.413 208.49 365.582 208.841C364.311 211.672 357.051 228.481 357.051 243.274V244.21C357.046 259.339 357.045 271.321 366.463 283.104C366.342 283.425 366.148 283.92 365.924 284.496C365.232 286.265 364.076 289.222 362.461 293.612C361.239 296.928 358.391 307.973 357.657 310.855H349.644C349.16 310.855 348.764 311.238 348.752 311.72L348.709 313.451L345.159 313.403C344.917 313.389 344.691 313.495 344.519 313.663C344.35 313.83 344.257 314.058 344.257 314.299L344.249 339.9L342.938 341.548C342.869 341.634 342.82 341.734 342.786 341.84L341.782 345.031C341.696 345.301 341.742 345.598 341.912 345.826C342.08 346.053 342.348 346.188 342.631 346.188H424.135C424.402 346.188 424.654 346.075 424.825 345.865C424.997 345.662 425.063 345.387 425.009 345.123L425.015 345.117ZM383.227 112.854C382.512 116.538 381.29 121.235 379.219 125.881C378.674 127.107 378.23 128.074 377.842 128.889C376.838 129.036 375.921 129.226 375.103 129.446C377.764 121.743 381.077 116.07 383.227 112.854ZM372.787 137.583L372.925 137.773C372.828 137.948 372.73 138.122 372.627 138.307C372.679 138.066 372.731 137.822 372.787 137.583ZM396.691 131.554C396.459 131.229 396.049 130.901 395.498 130.586C393.605 129.486 389.927 128.548 385.194 128.548H382.655C381.769 128.548 380.925 128.584 380.114 128.642C380.386 128.042 380.685 127.382 381.024 126.607C383.332 121.367 384.6 116.161 385.292 112.271C386.58 115.799 389.3 119.915 394.928 124.625C395.212 124.863 395.487 125.1 395.754 125.34C395.777 125.361 395.804 125.383 395.827 125.404C396.057 125.613 396.279 125.82 396.499 126.03C402.454 131.78 403.895 137.792 404.239 140.44H393.941V138.838L397.075 134.233C397.115 134.177 397.144 134.109 397.159 134.042C397.316 133.428 397.359 132.493 396.689 131.553L396.691 131.554Z" fill="#3D898D"/>
<path d="M792.072 235.307C791.492 232.8 790.912 230.288 790.324 227.792C797.772 195.961 797.141 159.543 797.132 159.185C797.132 159.117 797.124 159.048 797.114 158.979V156.174C797.114 155.802 796.811 155.495 796.437 155.495H794.293C793.916 155.495 793.61 155.802 793.61 156.174V157.517L751.648 157.505V156.174C751.648 155.802 751.345 155.495 750.968 155.495H748.854C748.478 155.495 748.174 155.802 748.174 156.174V160.225C748.174 160.305 748.19 160.385 748.221 160.462C748.244 166.794 748.682 196.271 754.07 226.558C754.053 226.642 754.053 226.731 754.07 226.82C754.078 226.859 754.196 227.427 754.406 228.421C754.433 228.557 754.456 228.696 754.482 228.834C754.468 228.878 754.456 228.923 754.448 228.966C745.799 266.535 748.553 321.728 751.944 342.929C752.079 343.756 752.788 344.359 753.631 344.359H753.645L791.329 344.131C792.169 344.131 792.872 343.529 793.005 342.707C794.003 336.467 802.461 280.462 792.069 235.311L792.072 235.307Z" fill="#3D898D"/>
<path d="M733.784 96.5366C733.611 96.4246 733.39 96.4093 733.199 96.4921L720.978 101.992C720.757 102.091 720.619 102.309 720.619 102.547V107.706H716.46V87.8885C716.46 87.5524 716.187 87.2747 715.849 87.2747H715.697V81.1691C715.697 80.9006 715.519 80.6704 715.278 80.5906V66.5121C715.278 66.1745 715.003 65.9014 714.664 65.9014H713.976C713.64 65.9014 713.365 66.1745 713.365 66.5121V80.5906C713.119 80.672 712.944 80.9021 712.944 81.1691V87.2747H712.792C712.453 87.2747 712.181 87.5524 712.181 87.8885V107.706H708.44V87.8885C708.44 87.5524 708.167 87.2747 707.826 87.2747H707.677V81.1691C707.677 80.9006 707.499 80.6704 707.256 80.5906V66.5121C707.256 66.1745 706.982 65.9014 706.645 65.9014H705.959C705.62 65.9014 705.345 66.1745 705.345 66.5121V80.5906C705.103 80.672 704.926 80.9021 704.926 81.1691V87.2747H704.776C704.436 87.2747 704.162 87.5524 704.162 87.8885V107.706H699.542V102.547C699.542 102.309 699.402 102.091 699.181 101.992L686.96 96.4921C686.769 96.4077 686.548 96.4246 686.375 96.5366C686.201 96.6502 686.097 96.8435 686.097 97.0491V345.332C686.097 345.668 686.369 345.943 686.71 345.943H689.434C689.539 346.027 689.663 346.082 689.806 346.082H730.413C730.557 346.082 730.683 346.027 730.788 345.943H733.453C733.79 345.943 734.065 345.668 734.065 345.332V97.0491C734.065 96.8435 733.959 96.6502 733.786 96.5366H733.784ZM720.619 139.633H719.252V136.105C719.252 135.769 718.976 135.493 718.635 135.493H716.807V122.366H720.619V139.633ZM711.202 122.366V135.493H708.812V122.366H711.202ZM703.21 122.366V135.493H700.815C700.479 135.493 700.204 135.769 700.204 136.105V139.633H699.539V122.366H703.21Z" fill="#3D898D"/>
<path d="M476.895 338.125H476.942V338.16C476.929 338.145 476.91 338.137 476.895 338.125ZM694.703 338.157V338.123H694.749C694.734 338.136 694.717 338.143 694.703 338.157ZM698.561 336.153C698.557 335.748 698.228 335.424 697.827 335.424H697.824L673.834 335.493V329.208C673.834 328.802 673.507 328.476 673.1 328.476H656.37V323.477H658.198C658.602 323.477 658.932 323.149 658.932 322.744V321.102C658.932 320.7 658.6 320.371 658.198 320.371H625.189V39.0256C625.189 38.4149 624.696 37.9239 624.09 37.9239H623.693C623.693 37.9239 623.683 37.9224 623.678 37.9224H549.116C549.116 37.9224 549.105 37.9239 549.099 37.9239H548.787C548.176 37.9239 547.688 38.4149 547.688 39.0256V320.374H513.443C513.038 320.374 512.707 320.703 512.707 321.105V322.747C512.707 323.152 513.038 323.48 513.443 323.48H515.27V328.479H498.542C498.137 328.479 497.807 328.805 497.807 329.211V335.496L473.82 335.427H473.817C473.415 335.427 473.086 335.751 473.083 336.156L473.058 338.665C473.057 338.858 473.131 339.053 473.272 339.193C473.408 339.328 473.596 339.408 473.791 339.408H475.684V343.25C475.684 343.655 476.012 343.988 476.416 343.991L574.824 344.118C574.87 344.118 574.911 344.102 574.954 344.094H596.688C596.733 344.103 596.773 344.118 596.819 344.118H596.822L695.228 343.991C695.63 343.988 695.956 343.655 695.956 343.25V339.408H697.853C698.047 339.408 698.234 339.328 698.374 339.193C698.514 339.053 698.587 338.86 698.587 338.665L698.563 336.156L698.561 336.153ZM603.119 104.735C597.387 126.982 588.42 136.402 585.819 136.402C583.054 136.402 577.29 132.372 569.749 105.374C562.401 79.0717 560.409 59.3325 559.956 53.606C565.373 52.0209 576.147 49.3249 586.769 49.3249C598.056 49.3249 608.4 51.8091 612.87 53.0536C612.003 59.0701 608.05 85.6207 603.12 104.737L603.119 104.735Z" fill="#3D898D"/>
<path d="M725.048 312.477H722.77C722.742 304.886 721.373 299.679 720.226 296.66C718.48 291.587 714.404 282.113 706.724 275.688C706.63 275.61 706.512 275.567 706.394 275.567H705.462V268.312C705.462 268.122 705.31 267.97 705.123 267.97H704.989V262.224C704.989 262.036 704.834 261.884 704.644 261.884H704.263C704.073 261.884 703.922 262.038 703.922 262.224V267.97H703.79C703.6 267.97 703.448 268.122 703.448 268.312V275.567H702.209C701.923 275.567 701.694 275.799 701.694 276.081V278.076H701.295C700.462 277.221 699.605 276.416 698.732 275.688C698.64 275.61 698.523 275.567 698.402 275.567H697.471V268.312C697.471 268.122 697.318 267.97 697.126 267.97H696.992V262.224C696.992 262.036 696.839 261.884 696.653 261.884H696.269C696.083 261.884 695.928 262.038 695.928 262.224V267.97H695.795C695.606 267.97 695.452 268.122 695.452 268.312V275.567H694.215C693.93 275.567 693.701 275.802 693.701 276.084V282.291H690.406C690.288 282.291 690.175 282.329 690.084 282.403L689.706 282.705C689.682 282.722 689.656 282.748 689.637 282.77C688.629 283.937 686.191 286.899 683.823 290.895C683.202 288.418 682.647 286.79 682.39 286.081C682.414 285.992 682.414 285.897 682.388 285.808C680.412 278.883 676.975 272.687 674.146 268.351C674.141 268.331 674.132 268.315 674.115 268.303C672.377 265.645 670.873 263.69 670.084 262.708C670.065 262.684 670.044 262.659 670.019 262.639L669.556 262.242C669.462 262.165 669.345 262.119 669.219 262.119H665.097V259.05C665.116 259.035 665.13 259.013 665.13 258.986C665.13 258.96 665.116 258.938 665.096 258.921V253.844C665.105 253.698 665.054 253.562 664.959 253.456C664.861 253.354 664.723 253.293 664.583 253.293H662.999V243.606C662.999 243.416 662.844 243.264 662.655 243.264H662.417V235.612C662.417 235.423 662.265 235.272 662.078 235.272H661.611C661.422 235.272 661.27 235.424 661.27 235.612V243.264H661.034C660.843 243.264 660.69 243.414 660.69 243.606V253.293H659.48C659.354 253.293 659.231 253.339 659.138 253.425C658.108 254.356 657.098 255.369 656.113 256.452H655.358V253.807C655.358 253.522 655.128 253.293 654.844 253.293H653.261V243.606C653.261 243.416 653.108 243.264 652.917 243.264H652.681V235.612C652.681 235.423 652.529 235.272 652.34 235.272H651.875C651.686 235.272 651.532 235.424 651.532 235.612V243.264H651.295C651.106 243.264 650.952 243.414 650.952 243.606V253.293H649.744C649.617 253.293 649.494 253.339 649.4 253.425C646.669 255.889 644.316 258.696 642.297 261.599H642.24C642.192 261.599 642.153 261.634 642.153 261.682C642.153 261.711 642.171 261.732 642.192 261.748C637.378 268.716 634.493 276.216 633.007 280.869C631.601 284.869 629.926 291.725 629.911 301.756H627.026C626.741 301.756 626.511 301.987 626.511 302.271V347.982C626.511 348.265 626.741 348.495 627.026 348.495H630.146C630.227 348.544 630.321 348.576 630.424 348.576H686.066C686.171 348.576 686.264 348.544 686.344 348.495H692.015C692.132 348.495 692.233 348.449 692.319 348.384H722.257C722.344 348.384 722.429 348.358 722.502 348.317H725.048C725.333 348.317 725.564 348.09 725.564 347.804V312.986C725.564 312.705 725.333 312.472 725.048 312.472V312.477ZM701.694 278.249V278.487C701.618 278.407 701.539 278.329 701.464 278.249H701.694ZM655.955 256.63C655.756 256.853 655.555 257.074 655.358 257.303V256.63H655.955Z" fill="#3D898D"/>
<path d="M990.722 332.237C990.722 332.237 990.728 332.237 990.74 332.234C990.655 332.172 990.722 332.237 990.722 332.237Z" fill="#3D898D"/>
<path d="M990.722 332.151H990.74C990.655 332.086 990.722 332.151 990.722 332.151Z" fill="#3D898D"/>
<path d="M1128.04 329.165C1127.9 328.892 1127.61 328.722 1127.3 328.722C1127.27 328.722 1127.25 328.731 1127.22 328.736C1125.95 328.43 1118.85 326.302 1110.65 315.552L1110.3 310.058C1110.28 309.619 1109.91 309.277 1109.48 309.273C1109.47 309.273 1109.47 309.274 1109.47 309.274C1109.03 309.302 1108.67 309.607 1108.63 310.037L1108.21 315.11C1108.01 315.275 1107.67 315.53 1107.22 315.843C1106.61 315.127 1106.01 314.381 1105.43 313.618L1105.1 308.43C1105.08 307.991 1104.72 307.649 1104.28 307.646H1104.27C1103.83 307.646 1103.47 307.978 1103.44 308.415L1103.03 313.282C1102.53 313.611 1101.48 314.309 1099.58 315.541C1098.61 314.105 1097.75 312.547 1097.02 310.911L1096.66 305.183C1096.63 304.743 1096.27 304.402 1095.83 304.399C1095.83 304.399 1095.83 304.399 1095.82 304.399C1095.37 304.399 1095.02 304.731 1094.98 305.165L1094.51 310.862C1093.86 311.926 1091.9 314.811 1088.23 317.708C1086.42 315.182 1085.16 312.467 1084.46 309.633C1084.45 309.613 1084.45 309.598 1084.45 309.583L1084.12 304.273C1084.09 303.836 1083.72 303.494 1083.28 303.488H1083.28C1082.84 303.488 1082.48 303.821 1082.44 304.257L1081.96 309.983C1080.96 311.607 1077.08 317.649 1073.31 320.925C1070.69 316.586 1069.16 311.045 1068.62 308.843C1068.64 308.769 1068.65 308.693 1068.65 308.613C1068.65 308.548 1068.64 308.486 1068.63 308.421L1068.25 302.388C1068.23 301.949 1067.87 301.605 1067.43 301.604H1067.42C1066.98 301.604 1066.62 301.938 1066.58 302.369L1066.11 307.976C1065.17 312.312 1062.55 320.279 1058.48 323.85C1053.63 319.564 1051.64 309.48 1051.39 308.088L1051.03 302.388C1051 301.949 1050.64 301.605 1050.2 301.604H1050.19C1049.76 301.604 1049.39 301.935 1049.36 302.369L1048.84 308.544C1048.83 308.64 1048.84 308.736 1048.87 308.828C1048.33 311.019 1046.8 316.578 1044.17 320.925C1040.24 317.511 1036.2 311.094 1035.37 309.736L1035.04 304.468C1035.01 304.031 1034.65 303.686 1034.21 303.683C1034.21 303.683 1034.21 303.684 1034.2 303.686C1033.79 303.696 1033.41 304.019 1033.37 304.45L1032.89 310.117C1032.17 312.784 1030.95 315.331 1029.25 317.708C1025.4 314.669 1023.44 311.648 1022.89 310.733L1022.56 305.377C1022.53 304.938 1022.17 304.596 1021.73 304.593H1021.72C1021.29 304.593 1020.92 304.923 1020.89 305.36L1020.41 311.025C1019.69 312.622 1018.85 314.138 1017.91 315.539C1016.1 314.367 1015.06 313.684 1014.55 313.341L1014.24 308.429C1014.21 307.99 1013.85 307.648 1013.41 307.645H1013.41C1012.97 307.645 1012.61 307.976 1012.57 308.413L1012.15 313.499C1011.54 314.307 1010.9 315.093 1010.26 315.842C1009.87 315.578 1009.57 315.348 1009.37 315.188L1009.04 309.988C1009.01 309.552 1008.65 309.207 1008.21 309.204H1008.2C1007.77 309.204 1007.4 309.535 1007.37 309.971L1006.91 315.444C998.692 326.27 991.529 328.424 990.255 328.733C990.23 328.729 990.212 328.722 990.184 328.722C990.184 328.722 990.181 328.722 990.178 328.722C989.868 328.722 989.582 328.892 989.44 329.165C989.352 329.328 989.338 329.523 989.372 329.71C989.368 329.833 989.384 329.957 989.437 330.077L996.265 345.271C996.405 345.584 996.706 345.77 997.027 345.77C997.145 345.77 997.26 345.742 997.37 345.694C997.79 345.506 997.98 345.012 997.79 344.585L993.786 335.668C993.964 335.906 994.145 336.147 994.338 336.405C997.031 339.995 998.662 342.756 999.567 344.462L999.676 344.761V344.863C999.676 345.097 999.775 345.309 999.931 345.461L1000.27 346.389C1000.39 346.727 1000.71 346.939 1001.05 346.939C1001.08 346.939 1001.1 346.931 1001.13 346.93C1001.28 346.959 1001.43 346.966 1001.58 346.91C1002.01 346.753 1002.24 346.279 1002.09 345.848C1002.09 345.843 1002.07 345.785 1002.04 345.7H1003.74V345.707C1003.89 346.006 1004.19 346.184 1004.5 346.184C1004.62 346.184 1004.75 346.155 1004.86 346.099C1005.04 346.014 1005.17 345.866 1005.25 345.7H1006.84L1007.1 346.389C1007.2 346.673 1007.44 346.861 1007.72 346.916C1007.8 346.942 1007.88 346.959 1007.97 346.959C1008.43 346.983 1008.84 346.597 1008.84 346.126C1008.84 345.98 1008.8 345.845 1008.74 345.73C1008.74 345.722 1008.74 345.708 1008.73 345.7H1012.11C1012.26 345.984 1012.55 346.155 1012.86 346.155C1012.98 346.155 1013.1 346.129 1013.22 346.073C1013.38 345.992 1013.5 345.855 1013.58 345.7H1019.06L1019.31 346.389C1019.44 346.724 1019.75 346.939 1020.1 346.939C1020.11 346.939 1020.12 346.939 1020.12 346.939C1020.17 346.95 1020.22 346.962 1020.28 346.962H1020.3C1020.75 346.957 1021.12 346.584 1021.12 346.126C1021.12 346.02 1021.11 345.921 1021.07 345.829C1021.06 345.794 1021.06 345.748 1021.05 345.7H1029.33C1029.48 345.905 1029.73 346.023 1029.99 346.023C1030.09 346.023 1030.2 346.003 1030.31 345.96C1030.44 345.903 1030.54 345.808 1030.63 345.702H1036.66C1036.68 345.779 1036.71 345.849 1036.72 345.911C1036.72 346.058 1036.77 346.201 1036.84 346.323C1036.94 346.727 1037.31 346.999 1037.73 346.957C1037.76 346.954 1037.79 346.942 1037.82 346.936C1037.83 346.936 1037.84 346.939 1037.85 346.939H1037.9C1038.27 346.917 1038.58 346.652 1038.66 346.288C1038.67 346.271 1038.71 346.056 1038.8 345.7H1048.68C1048.83 345.975 1049.1 346.155 1049.41 346.155C1049.48 346.155 1049.55 346.145 1049.62 346.132C1049.86 346.07 1050.05 345.908 1050.15 345.702H1057.83V346.127C1057.83 346.574 1058.18 346.943 1058.63 346.96C1058.64 346.963 1058.65 346.963 1058.67 346.963C1058.7 346.963 1058.73 346.951 1058.76 346.948C1058.78 346.948 1058.79 346.959 1058.81 346.959H1058.87C1059.32 346.931 1059.67 346.557 1059.65 346.103L1059.65 345.826C1059.65 345.789 1059.65 345.743 1059.65 345.7H1067.34C1067.44 345.906 1067.62 346.07 1067.87 346.13C1067.94 346.145 1068.01 346.153 1068.07 346.153C1068.38 346.153 1068.66 345.974 1068.81 345.699H1078.68C1078.76 346.055 1078.81 346.27 1078.82 346.287C1078.91 346.65 1079.21 346.916 1079.58 346.937H1079.64C1079.64 346.937 1079.66 346.934 1079.66 346.934C1079.69 346.94 1079.72 346.953 1079.75 346.956C1080.16 346.996 1080.53 346.738 1080.64 346.356C1080.72 346.225 1080.77 346.07 1080.77 345.908V345.869C1080.78 345.819 1080.8 345.757 1080.82 345.697H1086.86C1086.94 345.803 1087.04 345.898 1087.18 345.955C1087.28 346 1087.39 346.018 1087.5 346.018C1087.76 346.018 1088 345.9 1088.16 345.696H1096.44C1096.41 345.846 1096.39 345.938 1096.39 345.949C1096.3 346.388 1096.57 346.819 1097 346.928C1097.12 346.96 1097.25 346.956 1097.37 346.933C1097.37 346.933 1097.38 346.933 1097.38 346.933C1097.73 346.933 1098.04 346.718 1098.17 346.383L1098.42 345.694H1103.9C1103.98 345.848 1104.1 345.986 1104.27 346.067C1104.39 346.122 1104.51 346.149 1104.63 346.149C1104.94 346.149 1105.23 345.98 1105.37 345.694H1108.75C1108.72 345.783 1108.7 345.836 1108.7 345.842C1108.55 346.273 1108.77 346.747 1109.2 346.903C1109.35 346.957 1109.5 346.953 1109.64 346.926C1109.97 346.91 1110.27 346.706 1110.39 346.383L1110.64 345.694H1112.24C1112.32 345.86 1112.45 346.007 1112.62 346.093C1112.74 346.149 1112.86 346.178 1112.98 346.178C1113.3 346.178 1113.6 346.001 1113.74 345.7L1113.74 345.694H1115.44C1115.42 345.777 1115.4 345.837 1115.39 345.842C1115.24 346.273 1115.47 346.747 1115.9 346.903C1116.05 346.959 1116.2 346.953 1116.35 346.923C1116.38 346.925 1116.4 346.933 1116.43 346.933C1116.77 346.933 1117.09 346.721 1117.21 346.383L1117.51 345.555C1117.75 345.406 1117.91 345.156 1117.91 344.857V344.448C1118.82 342.741 1120.45 339.985 1123.14 336.397C1123.34 336.13 1123.53 335.882 1123.71 335.635L1119.7 344.576C1119.5 345.001 1119.69 345.496 1120.11 345.685C1120.23 345.733 1120.34 345.76 1120.46 345.76C1120.78 345.76 1121.08 345.573 1121.22 345.262L1128.05 330.068C1128.1 329.945 1128.12 329.816 1128.11 329.689C1128.14 329.506 1128.12 329.316 1128.04 329.156L1128.04 329.165ZM1088.83 335.882C1088.94 335.805 1089.04 335.73 1089.14 335.656C1089.44 335.433 1089.74 335.222 1090.04 335.022C1090.1 334.978 1090.16 334.932 1090.23 334.889C1090.54 334.682 1090.83 334.488 1091.12 334.306C1091.18 334.267 1091.24 334.232 1091.3 334.195L1090.58 335.882H1088.83H1088.83ZM1093.28 334.688C1093.34 334.764 1093.41 334.84 1093.47 334.918C1093.72 335.231 1093.95 335.556 1094.17 335.885H1092.4L1093.03 334.415C1093.11 334.508 1093.2 334.594 1093.28 334.689L1093.28 334.688ZM1065.23 335.852C1065.25 335.831 1065.28 335.808 1065.3 335.786C1065.62 335.527 1065.93 335.282 1066.24 335.048C1066.29 335.015 1066.33 334.981 1066.38 334.947C1066.69 334.723 1066.99 334.511 1067.29 334.313C1067.33 334.287 1067.37 334.261 1067.41 334.235C1067.72 334.034 1068.02 333.842 1068.32 333.669C1068.32 333.669 1068.32 333.669 1068.33 333.666C1068.62 333.491 1068.91 333.331 1069.19 333.181C1069.22 333.163 1069.26 333.144 1069.29 333.126C1069.56 332.986 1069.81 332.86 1070.05 332.742C1070.1 332.721 1070.14 332.699 1070.18 332.678C1070.26 332.639 1070.33 332.609 1070.41 332.573L1069.58 335.885H1065.19C1065.2 335.875 1065.21 335.863 1065.23 335.854V335.852ZM1072.31 332.682C1072.37 332.733 1072.44 332.787 1072.5 332.84C1072.71 333.018 1072.92 333.205 1073.12 333.399C1073.17 333.44 1073.21 333.479 1073.25 333.522C1073.49 333.756 1073.73 334 1073.96 334.252C1074 334.301 1074.05 334.353 1074.09 334.404C1074.28 334.611 1074.46 334.823 1074.63 335.038C1074.69 335.11 1074.75 335.18 1074.81 335.252C1074.98 335.46 1075.14 335.67 1075.3 335.883H1071.3L1072.14 332.555C1072.2 332.598 1072.26 332.636 1072.31 332.682ZM1027.13 334.135C1027.21 334.188 1027.3 334.241 1027.39 334.3C1027.7 334.497 1028.02 334.706 1028.36 334.933C1028.38 334.946 1028.4 334.961 1028.42 334.976C1028.74 335.193 1029.07 335.427 1029.4 335.671C1029.49 335.737 1029.58 335.803 1029.68 335.871C1029.68 335.874 1029.69 335.878 1029.69 335.882H1026.91L1026.03 333.824C1026.1 333.75 1026.16 333.667 1026.23 333.595C1026.52 333.761 1026.82 333.942 1027.13 334.132L1027.13 334.135ZM1024.35 335.883C1024.49 335.667 1024.65 335.457 1024.81 335.245L1025.08 335.883H1024.35ZM1047.56 332.325C1047.6 332.342 1047.64 332.357 1047.68 332.374C1047.88 332.463 1048.1 332.564 1048.33 332.673C1048.38 332.695 1048.43 332.719 1048.47 332.742C1048.71 332.859 1048.96 332.983 1049.22 333.12C1049.26 333.141 1049.3 333.163 1049.34 333.182C1049.61 333.328 1049.89 333.482 1050.17 333.652C1050.19 333.657 1050.19 333.663 1050.2 333.669C1050.49 333.839 1050.79 334.028 1051.1 334.223C1051.14 334.257 1051.19 334.286 1051.24 334.316C1051.53 334.51 1051.83 334.717 1052.13 334.936C1052.18 334.978 1052.24 335.018 1052.29 335.058C1052.59 335.283 1052.9 335.521 1053.2 335.773C1053.24 335.806 1053.28 335.84 1053.32 335.874C1053.32 335.875 1053.33 335.878 1053.33 335.882H1047.9L1046.96 332.111C1046.97 332.104 1046.98 332.093 1046.99 332.084C1047.16 332.151 1047.36 332.236 1047.56 332.323L1047.56 332.325ZM1043.22 335.883C1043.24 335.866 1043.25 335.849 1043.26 335.834C1043.4 335.654 1043.53 335.478 1043.67 335.303C1043.76 335.196 1043.84 335.09 1043.93 334.984C1044.07 334.811 1044.22 334.643 1044.36 334.478C1044.44 334.395 1044.51 334.309 1044.58 334.227C1044.8 333.99 1045.02 333.759 1045.25 333.537C1045.31 333.477 1045.37 333.422 1045.43 333.367C1045.46 333.337 1045.5 333.313 1045.52 333.284L1046.18 335.883H1043.22Z" fill="#3D898D"/>
<path d="M990.722 331.397C990.722 331.397 990.728 331.397 990.74 331.397C990.655 331.335 990.722 331.397 990.722 331.397Z" fill="#3D898D"/>
<path d="M990.722 331.312C990.722 331.312 990.728 331.309 990.74 331.309C990.655 331.244 990.722 331.312 990.722 331.312Z" fill="#3D898D"/>
<path d="M953.65 302.082L953.883 301.602L954.884 302.082H953.65ZM954.424 300.494L955.799 297.666H957.172C957.29 299.033 957.413 300.421 957.537 301.835C957.542 301.894 957.548 301.958 957.553 302.018L954.424 300.494ZM961.292 300.525C960.783 294.623 960.325 289.211 959.877 283.829C957.546 255.911 955.864 235.742 949.436 193.43C940.765 136.287 936.725 122.089 935.328 118.59L934.397 99.9771C934.384 99.8237 934.368 99.6703 934.338 99.5229L934.066 98.122C933.737 96.4264 932.263 95.1958 930.563 95.1958C930.429 95.1958 930.283 95.205 930.217 95.2157C930.116 95.2219 930.014 95.2372 929.915 95.2572C929.827 95.2403 929.75 95.2296 929.691 95.225C929.568 95.2065 929.42 95.1958 929.265 95.1958C927.567 95.1958 926.095 96.4249 925.767 98.122L925.489 99.572C925.464 99.7347 925.441 99.8958 925.437 100.039L924.505 118.59C923.111 122.084 919.072 136.279 910.399 193.43C903.97 235.741 902.288 255.911 899.949 283.924C899.536 288.897 899.065 294.533 898.546 300.525C897.444 313.247 897.056 341.841 897.26 344.631C897.387 346.512 898.952 347.987 900.82 347.987H959.017C960.882 347.987 962.447 346.514 962.579 344.636C962.781 341.812 962.39 313.176 961.292 300.525ZM951.034 261.653L951.155 261.298L951.763 261.653H951.034ZM913.051 221.776H912.036L912.836 221.189L913.051 221.776ZM908.35 261.653H907.823L908.25 261.443L908.35 261.653ZM954.02 261.53L951.567 260.095L952.499 257.37H953.618C953.754 258.762 953.888 260.147 954.02 261.53ZM947.139 221.776L947.311 221.117L948.133 221.776H947.138H947.139ZM928.24 156.545H921.04L928.24 152.928V156.545ZM928.24 162.563H920.429L928.24 158.634V162.563ZM928.24 168.384H920.211L928.24 164.347V168.384ZM928.24 169.689V174.702H918.006L927.982 169.689H928.24ZM922.494 143.997L922.756 144.442L923.06 145.024L923.071 144.976L926.402 150.628H921.256C921.691 148.243 922.102 146.041 922.494 143.996V143.997ZM928.24 151.934V151.996L920.294 155.991C920.549 154.547 920.797 153.16 921.038 151.825V151.934H928.238H928.24ZM920.022 157.536V157.847H927.954L919.205 162.245C919.485 160.617 919.756 159.046 920.022 157.536ZM918.929 163.869H927.34L918.418 168.355C918.404 168.363 918.395 168.375 918.381 168.384H918.169C918.428 166.832 918.682 165.328 918.93 163.87L918.929 163.869ZM917.949 169.689H926.127L917.211 174.169C917.461 172.633 917.708 171.14 917.949 169.689ZM916.91 176.004H928.24V176.476C924.939 176.766 921.941 178.099 919.575 180.147H916.241C916.468 178.736 916.691 177.353 916.909 176.004H916.91ZM916.032 181.452H918.241C917.457 182.316 916.764 183.265 916.193 184.292C916.25 184.269 916.314 184.244 916.373 184.22C915.878 185.095 915.47 186.021 915.154 186.991C915.452 185.093 915.745 183.247 916.032 181.452ZM910.875 215.862L912.42 220.065L910.083 221.777H910.019C910.281 219.833 910.555 217.841 910.842 215.791L910.875 215.862ZM905.851 257.37H906.302L907.721 260.333L905.458 261.456C905.585 260.098 905.717 258.739 905.852 257.37H905.851ZM947.631 219.9L948.652 216.006C948.905 217.815 949.147 219.577 949.382 221.303L947.631 219.9ZM931.227 169.689H931.961L941.934 174.702H931.227V169.689ZM931.227 168.384V164.108L939.732 168.384H931.227ZM931.227 162.563V158.395L939.516 162.563H931.227ZM931.227 152.687L938.906 156.545H931.227V152.687ZM914.405 191.791C914.405 191.818 914.403 191.846 914.403 191.874C914.403 198.222 918.266 203.669 923.772 205.992H912.252C912.822 202.125 913.431 198.074 914.093 193.789C914.197 193.115 914.3 192.452 914.403 191.791H914.405ZM935.692 205.992C941.2 203.667 945.062 198.22 945.062 191.874C945.062 191.855 945.061 191.837 945.061 191.817V191.803C945.164 192.461 945.265 193.118 945.369 193.789C946.031 198.074 946.642 202.125 947.212 205.992H935.692ZM941.098 181.452H943.432C943.719 183.244 944.011 185.087 944.309 186.98C943.633 184.909 942.531 183.031 941.1 181.452H941.098ZM939.76 180.147C937.425 178.127 934.476 176.798 931.227 176.483V176.004H942.554C942.773 177.352 942.996 178.736 943.223 180.147H939.76ZM933.816 169.689H941.516C941.743 171.059 941.977 172.463 942.211 173.907L933.816 169.689ZM932.606 163.869H940.537C940.778 165.277 941.022 166.73 941.273 168.228L932.607 163.869H932.606ZM931.992 157.85H939.499C939.732 159.182 939.972 160.56 940.214 161.983L931.992 157.85ZM931.576 151.934H938.446C938.667 153.155 938.892 154.416 939.126 155.728L931.577 151.934H931.576ZM932.828 150.629L936.961 143.931C937.354 145.994 937.77 148.22 938.209 150.629H932.828ZM931.804 98.5608L932.078 99.9557L933.037 118.903L933.125 119.29C934.129 121.69 938.111 134.154 947.161 193.776C949.901 211.832 951.776 225.843 953.21 238.165C951.739 225.774 949.815 211.67 947.012 193.531C937.285 130.557 933.297 119.73 932.486 118.051L931.5 98.7711C931.5 98.7312 931.496 98.6928 931.487 98.6544L931.31 97.7629C931.557 97.9532 931.738 98.2309 931.803 98.5624L931.804 98.5608ZM927.956 98.9414L926.984 118.051C926.923 118.179 926.843 118.36 926.745 118.608L927.758 99.9618L927.956 98.9414ZM905.923 302.082H904.604L905.702 301.608L905.923 302.082ZM901.931 301.835C902.056 300.421 902.177 299.033 902.295 297.666H903.863L905.183 300.5L901.921 301.934C901.924 301.903 901.927 301.868 901.93 301.835H901.931Z" fill="#3D898D"/>
<path d="M406.596 319.086C406.596 318.94 406.594 318.786 406.591 318.63C406.604 318.92 406.596 319.086 406.596 319.086ZM440.387 289.973C438.79 289.5 436.243 289.08 433.382 288.819C431.298 287.927 427.738 285.983 425.775 282.517C425.644 282.285 425.52 282.047 425.405 281.803C424.754 280.428 424.158 279.178 423.616 278.041C423.18 277.126 422.781 276.288 422.419 275.521C421.332 273.219 420.571 271.548 420.121 270.29C420.044 270.082 419.969 269.821 419.891 269.54C419.527 268.295 419.014 266.532 417.712 265.914C417.411 265.771 417.069 265.69 416.676 265.69C416.656 265.69 416.634 265.69 416.614 265.693C414.714 265.883 414.081 267.731 413.415 269.681C413.326 269.943 413.237 270.209 413.14 270.474C412.454 272.397 411.206 275.659 408.304 281.8C406.479 285.662 402.621 287.806 400.418 288.76C396.835 289.064 394.276 289.466 392.815 289.96C392.05 290.22 391.417 290.672 390.968 291.278C390.955 291.291 390.943 291.309 390.934 291.324C390.077 292.481 390.004 293.878 390.008 294.378C390.005 294.387 390.002 294.393 389.999 294.399C389.979 294.453 389.962 294.493 389.945 294.538C389.927 294.591 389.873 294.7 389.873 294.7C389.836 294.782 389.818 294.869 389.818 294.956V297.82C389.818 297.932 389.815 298.048 389.81 298.17C389.735 300.382 390.298 302.586 397.953 307.092C398.128 307.198 398.303 307.264 398.458 307.327C398.594 307.381 398.713 307.43 398.8 307.487C398.909 307.559 399.011 307.593 399.084 307.608C399.17 307.671 399.261 307.723 399.351 307.777C399.43 307.82 399.508 307.867 399.582 307.921C399.634 307.955 399.686 307.993 399.738 308.027C399.783 308.058 399.829 308.087 399.872 308.117L400.041 308.243C400.122 308.303 400.205 308.361 400.282 308.424L400.317 308.452C400.401 308.515 400.483 308.582 400.561 308.648L400.609 308.684C400.713 308.771 400.82 308.862 400.923 308.949C401.014 309.027 401.1 309.103 401.186 309.181C401.299 309.284 401.41 309.383 401.516 309.488C401.597 309.563 401.677 309.647 401.757 309.726C401.861 309.825 401.964 309.936 402.066 310.039C402.138 310.117 402.21 310.189 402.28 310.267C402.377 310.379 402.475 310.487 402.569 310.599L402.63 310.668C402.67 310.714 402.715 310.761 402.753 310.812C402.855 310.933 402.95 311.056 403.046 311.177L403.183 311.352C403.303 311.509 403.418 311.668 403.532 311.834C403.532 311.834 403.57 311.889 403.576 311.894C403.817 312.244 404.047 312.615 404.261 312.994L404.284 313.034C404.284 313.034 404.304 313.071 404.307 313.077C404.39 313.224 404.47 313.374 404.545 313.523L404.599 313.626C404.668 313.767 404.737 313.904 404.798 314.045L404.847 314.145C404.912 314.289 404.97 314.433 405.028 314.57L405.059 314.648C405.078 314.696 405.097 314.745 405.117 314.798C405.099 314.892 405.102 314.998 405.13 315.091C405.182 315.36 405.366 317.298 405.366 319.089V343.425C405.366 343.766 405.641 344.04 405.98 344.04H427.074C427.413 344.04 427.686 343.766 427.686 343.425V343.33C427.686 341.619 427.694 317.849 427.835 315.546C427.841 315.512 427.88 315.415 427.904 315.362C427.929 315.302 427.952 315.246 427.97 315.196L428.005 315.096C428.055 314.958 428.105 314.812 428.173 314.65L428.207 314.568C428.26 314.436 428.317 314.3 428.379 314.165L428.432 314.039C428.494 313.904 428.558 313.776 428.626 313.638L428.689 313.513C428.758 313.376 428.833 313.232 428.913 313.094L428.973 312.982C429.066 312.813 429.165 312.647 429.267 312.481L429.292 312.442C429.404 312.26 429.527 312.076 429.651 311.895L429.726 311.786C429.829 311.642 429.931 311.499 430.041 311.355L430.201 311.153C430.288 311.044 430.377 310.927 430.471 310.815C430.515 310.761 430.562 310.709 430.611 310.652L430.667 310.583C430.758 310.48 430.85 310.381 430.945 310.27C431.011 310.198 431.08 310.126 431.174 310.029C431.268 309.927 431.363 309.83 431.464 309.732C431.549 309.647 431.633 309.563 431.719 309.482C431.822 309.385 431.925 309.288 432.032 309.192C432.124 309.107 432.215 309.026 432.309 308.945C432.419 308.845 432.537 308.751 432.651 308.654L432.683 308.63C432.769 308.555 432.858 308.486 432.946 308.414C433.07 308.317 433.201 308.22 433.329 308.121L433.42 308.055C433.491 308.001 433.561 307.946 433.637 307.892C433.778 307.792 433.924 307.692 434.089 307.582L434.206 307.501C434.263 307.461 434.32 307.422 434.378 307.382C434.608 307.235 434.851 307.086 435.093 306.939L435.173 306.888C441.085 303.407 442.387 301.604 442.872 300.184C442.931 300.057 442.977 299.796 443.015 298.638V294.547C443.015 293.497 442.542 290.616 440.385 289.974L440.387 289.973Z" fill="#3D898D"/>
<path d="M80.0582 345.319C79.8908 345.231 64.2796 336.911 59.7001 334.338C59.3578 334.145 59.0707 333.981 58.8619 333.858C56.2015 332.293 55.2589 330.054 55.2589 325.317C55.2589 321.096 55.2926 293.669 55.2988 288.898C55.3387 288.879 55.3771 288.856 55.417 288.836C55.6795 288.707 55.9389 288.569 56.1938 288.426C56.2966 288.368 56.3995 288.309 56.5008 288.249C56.7511 288.102 56.9982 287.949 57.2392 287.789C57.2822 287.76 57.3267 287.734 57.3697 287.706C57.6583 287.511 57.9393 287.304 58.2156 287.092C58.2739 287.048 58.3307 287.002 58.3876 286.957C59.8982 285.762 61.1969 284.312 62.2132 282.667H62.2593V282.595C62.2869 282.55 62.3115 282.506 62.3391 282.461C63.426 280.752 64.1122 278.845 64.4346 276.812C64.4607 276.664 64.4853 276.517 64.5068 276.37C64.5129 276.328 64.5175 276.287 64.5221 276.245C64.6235 275.507 64.6803 274.757 64.6803 273.991C64.6803 272.713 64.5298 271.47 64.2535 270.275C64.2489 270.252 64.2427 270.227 64.2366 270.204C64.166 269.902 64.0877 269.604 64.0002 269.308C62.6891 264.749 59.4883 261.01 55.1437 259.017C54.9487 258.925 54.7522 258.834 54.5527 258.75C54.5296 258.74 54.5066 258.728 54.4836 258.719V251.177H52.8471V249.537H54.0752V241.771H52.8471V238.09H43.0265V241.771H41.7984V249.537H43.0265V251.177H42.2098V258.558C36.0077 260.945 31.594 266.96 31.594 273.991C31.594 280.496 35.369 286.13 40.845 288.829C40.8512 293.391 40.885 321.071 40.885 325.317C40.885 330.055 39.9393 332.293 37.2727 333.858C34.2929 335.61 16.253 345.223 16.0718 345.317L13.9041 346.471H82.2258L80.0582 345.317V345.319ZM32.9005 273.993C32.9005 273.878 32.9066 273.767 32.9097 273.652C33.163 272.552 34.0073 269.244 35.1188 268.331C35.4949 270.372 35.0758 274.08 35.0758 274.08H32.9035C32.9035 274.053 32.9005 274.02 32.9005 273.993ZM34.5462 267.094C34.5462 267.094 34.5493 267.094 34.5508 267.094L34.537 267.112C34.537 267.112 34.5431 267.099 34.5462 267.092V267.094ZM39.1272 268.432C39.6737 270.451 39.577 274.08 39.577 274.08H36.2241V273.852L37.1161 273.807C37.1161 273.807 37.9543 269.657 39.1287 268.43L39.1272 268.432ZM53.2647 269.235C53.7421 270.439 54.023 271.897 54.1719 272.897C54.2702 273.6 54.304 274.08 54.304 274.08H53.2554V269.215C53.2554 269.215 53.2616 269.227 53.2647 269.235ZM59.2058 274.002C59.2119 274.05 59.215 274.08 59.215 274.08H55.4431C55.4431 274.08 55.3064 270.074 55.9359 268.133C57.3344 268.955 58.3031 273.809 58.3031 273.809L59.1858 273.849C59.1935 273.905 59.2012 273.967 59.2058 274.002ZM63.1205 274.08H60.0993C60.11 272.788 60.0271 271.694 59.9442 270.939C59.9488 270.837 59.9534 270.734 59.9611 270.631C59.9627 270.605 59.9642 270.58 59.9657 270.554C59.978 270.362 59.9934 270.171 60.0118 269.98C60.0148 269.943 60.0195 269.908 60.0241 269.871C60.0425 269.687 60.064 269.506 60.0885 269.33C60.0931 269.302 60.0977 269.276 60.1024 269.247C60.1607 268.851 60.2359 268.483 60.3311 268.168C60.4278 268.116 60.5337 268.085 60.6566 268.085C61.8693 268.085 62.8734 270.91 63.3815 272.658C63.4183 273.101 63.4414 273.546 63.4414 273.993C63.4414 274.02 63.4398 274.053 63.4398 274.08H63.1205ZM42.2098 267.952V274.08H40.5334C40.5334 273.796 40.5119 273.52 40.515 273.261C40.69 271.929 41.3777 269.333 42.1868 267.979C42.1945 267.97 42.2021 267.961 42.2098 267.952ZM47.5277 290.513C47.5599 290.513 47.5922 290.513 47.6259 290.516C47.9238 290.523 47.9545 290.53 48.1402 290.53C48.3444 290.53 48.7574 290.523 48.7574 290.514V335.022H47.5292V290.514L47.5277 290.513Z" fill="#3D898D"/>
<path d="M54.5158 339.56C53.2554 339.56 52.2054 340.41 51.8799 341.564C51.6696 341.539 51.4562 341.519 51.2382 341.519C50.0546 341.519 48.9692 341.911 48.0865 342.566C48.0727 342.547 48.0604 342.532 48.0466 342.515C48.1909 342.216 48.2784 341.878 48.2784 341.518C48.2784 340.23 47.2329 339.187 45.9434 339.187C45.8083 339.187 45.6824 339.202 45.555 339.224C45.555 339.208 45.558 339.199 45.558 339.187C45.558 338.108 44.6845 337.237 43.6068 337.237C43.4426 337.237 43.2875 337.264 43.134 337.303C43.1678 337.161 43.1908 337.019 43.1908 336.868C43.1908 335.856 42.3664 335.033 41.3532 335.033C40.34 335.033 39.5156 335.856 39.5156 336.868C39.5156 337.324 39.6906 337.743 39.9669 338.062C39.9423 338.062 39.9224 338.056 39.8978 338.056C38.2552 338.056 36.9226 339.382 36.9165 341.025C36.8996 341.025 36.8858 341.019 36.8689 341.019C35.257 341.019 33.8661 341.941 33.1998 343.279C32.2557 342.767 31.1258 342.466 29.9069 342.466C26.7444 342.466 24.1638 344.485 23.9626 347.031H56.5192C56.5223 346.959 56.5284 346.884 56.5284 346.813C56.5284 346.02 56.3519 345.27 56.0387 344.597C56.7771 344.103 57.2653 343.259 57.2653 342.307C57.2653 340.79 56.0326 339.56 54.5143 339.56H54.5158ZM41.7262 338.696C41.7139 338.69 41.7063 338.678 41.6955 338.671C41.7078 338.668 41.7232 338.665 41.7354 338.665C41.7324 338.674 41.7293 338.687 41.7262 338.696Z" fill="#3D898D"/>
<path d="M241.412 338.674C240.153 338.674 239.103 339.528 238.778 340.678C238.566 340.657 238.354 340.642 238.137 340.642C236.955 340.642 235.868 341.03 234.989 341.682C234.972 341.67 234.96 341.654 234.944 341.64C235.09 341.337 235.178 340.999 235.178 340.64C235.178 339.35 234.132 338.306 232.842 338.306C232.712 338.306 232.582 338.325 232.453 338.34C232.454 338.331 232.46 338.318 232.46 338.306C232.46 337.23 231.585 336.356 230.509 336.356C230.343 336.356 230.187 336.383 230.035 336.419C230.068 336.284 230.093 336.138 230.093 335.991C230.093 334.975 229.27 334.152 228.254 334.152C227.238 334.152 226.419 334.975 226.419 335.991C226.419 336.446 226.593 336.862 226.869 337.184C226.846 337.184 226.823 337.175 226.8 337.175C225.156 337.175 223.825 338.499 223.817 340.141H223.771C222.158 340.141 220.767 341.063 220.1 342.398C219.156 341.889 218.026 341.59 216.812 341.59C213.647 341.59 211.066 343.609 210.866 346.156H243.423C243.426 346.081 243.434 346.009 243.434 345.934C243.434 345.141 243.254 344.393 242.941 343.715C243.679 343.224 244.166 342.383 244.166 341.43C244.166 339.911 242.935 338.677 241.413 338.677L241.412 338.674ZM228.622 337.815C228.615 337.809 228.604 337.8 228.595 337.787C228.608 337.787 228.621 337.784 228.636 337.784C228.633 337.797 228.63 337.806 228.624 337.815H228.622ZM230.546 340.256C230.27 340.313 230.002 340.401 229.743 340.503C229.758 340.385 229.78 340.272 229.78 340.154C229.78 340.138 229.775 340.126 229.775 340.114C230.004 340.204 230.25 340.258 230.511 340.258C230.521 340.258 230.534 340.255 230.547 340.255V340.258L230.546 340.256Z" fill="#3D898D"/>
<path d="M166.263 339.747C165.007 339.747 163.959 340.594 163.632 341.743C163.423 341.722 163.207 341.71 162.99 341.71C161.811 341.71 160.727 342.096 159.845 342.75C159.831 342.735 159.819 342.719 159.802 342.699C159.947 342.4 160.033 342.066 160.033 341.71C160.033 340.419 158.99 339.376 157.702 339.376C157.568 339.376 157.442 339.394 157.313 339.413C157.313 339.4 157.319 339.391 157.319 339.376C157.319 338.297 156.446 337.425 155.371 337.425C155.205 337.425 155.049 337.456 154.897 337.491C154.931 337.35 154.954 337.208 154.954 337.06C154.954 336.048 154.131 335.227 153.119 335.227C152.107 335.227 151.284 336.049 151.284 337.06C151.284 337.519 151.458 337.932 151.736 338.254C151.711 338.251 151.69 338.245 151.665 338.245C150.024 338.245 148.695 339.571 148.685 341.211H148.641C147.03 341.211 145.64 342.13 144.975 343.464C144.034 342.954 142.904 342.655 141.688 342.655C138.529 342.655 135.948 344.674 135.751 347.215H168.262C168.268 347.14 168.276 347.068 168.276 346.993C168.276 346.202 168.096 345.455 167.783 344.777C168.521 344.283 169.005 343.448 169.005 342.495C169.005 340.973 167.775 339.749 166.257 339.749L166.263 339.747ZM153.494 338.885C153.483 338.875 153.472 338.869 153.463 338.86C153.475 338.857 153.489 338.857 153.504 338.857C153.501 338.863 153.495 338.872 153.495 338.885H153.494ZM155.411 341.318C155.135 341.381 154.866 341.463 154.611 341.572C154.625 341.453 154.643 341.343 154.643 341.219C154.643 341.209 154.64 341.194 154.64 341.176C154.868 341.272 155.113 341.32 155.374 341.32C155.386 341.32 155.397 341.32 155.411 341.317V341.32V341.318Z" fill="#3D898D"/>
<path d="M386.694 337.293C385.206 337.293 383.966 338.297 383.579 339.663C383.33 339.635 383.078 339.612 382.822 339.612C381.425 339.612 380.142 340.071 379.098 340.846C379.082 340.827 379.067 340.806 379.05 340.789C379.219 340.43 379.323 340.035 379.323 339.61C379.323 338.085 378.087 336.851 376.566 336.851C376.406 336.851 376.256 336.873 376.104 336.894C376.106 336.879 376.109 336.867 376.109 336.851C376.109 335.579 375.079 334.551 373.804 334.551C373.611 334.551 373.425 334.579 373.244 334.626C373.285 334.458 373.313 334.292 373.313 334.114C373.313 332.917 372.341 331.946 371.142 331.946C369.943 331.946 368.973 332.917 368.973 334.114C368.973 334.651 369.176 335.142 369.506 335.527C369.477 335.524 369.448 335.515 369.421 335.515C367.482 335.515 365.907 337.086 365.9 339.021C365.88 339.021 365.866 339.018 365.844 339.018C363.939 339.018 362.295 340.109 361.506 341.686C360.391 341.087 359.056 340.731 357.619 340.731C353.879 340.731 350.829 343.115 350.594 346.124H389.063C389.066 346.04 389.076 345.952 389.076 345.865C389.076 344.927 388.861 344.042 388.493 343.242C389.366 342.658 389.941 341.665 389.941 340.542C389.941 338.748 388.487 337.292 386.691 337.292L386.694 337.293ZM371.584 336.274C371.571 336.265 371.56 336.253 371.548 336.244C371.561 336.241 371.581 336.241 371.597 336.241C371.592 336.25 371.586 336.259 371.586 336.274H371.584ZM373.852 339.156C373.523 339.225 373.209 339.325 372.905 339.446C372.92 339.31 372.948 339.181 372.948 339.036C372.948 339.015 372.943 339.001 372.943 338.986C373.21 339.089 373.499 339.155 373.806 339.155C373.821 339.155 373.835 339.152 373.852 339.148V339.155V339.156Z" fill="#3D898D"/>
<path d="M551.366 343.691C550.674 343.691 550.025 343.817 549.437 344.022C549.458 343.913 549.481 343.81 549.481 343.691C549.481 342.434 548.09 341.412 546.369 341.412C545.029 341.412 543.899 342.037 543.462 342.907C543.106 342.985 542.759 343.085 542.432 343.203C542.352 343.152 542.271 343.1 542.181 343.049C542.231 342.89 542.26 342.724 542.26 342.549C542.26 341.747 541.707 341.048 540.873 340.629C540.873 340.623 540.877 340.608 540.877 340.593C540.877 338.808 538.902 337.355 536.46 337.355C534.017 337.355 532.043 338.808 532.043 340.593C532.043 341.111 532.227 341.599 532.521 342.03C529.794 342.25 527.645 343.824 527.292 345.808H555.565C554.911 344.57 553.284 343.689 551.365 343.689L551.366 343.691Z" fill="#3D898D"/>
<path d="M465.792 344.241C465.848 343.898 465.884 343.545 465.884 343.186C465.884 339.577 462.957 336.65 459.343 336.65C456.457 336.65 454.013 338.525 453.147 341.113C452.943 341.169 452.742 341.238 452.548 341.312C451.877 339.259 449.945 337.772 447.665 337.772C445.536 337.772 443.71 339.069 442.927 340.916C442.602 340.838 442.264 340.79 441.916 340.79C441.47 340.79 441.044 340.859 440.638 340.981C440.641 340.915 440.657 340.859 440.657 340.79C440.657 339.056 439.249 337.643 437.508 337.643C435.767 337.643 434.361 339.056 434.361 340.79C434.361 340.984 434.381 341.172 434.416 341.353C433.865 340.985 433.202 340.769 432.487 340.769C431.082 340.769 429.881 341.604 429.335 342.804C428.877 342.26 428.203 341.91 427.44 341.91C426.065 341.91 424.952 343.029 424.952 344.401C424.952 344.808 425.056 345.182 425.225 345.516C424.585 345.8 424.08 346.33 423.801 346.973H467.737C467.61 345.757 466.847 344.742 465.789 344.241H465.792ZM435.924 343.856C435.91 343.729 435.898 343.594 435.869 343.469C435.987 343.539 436.107 343.606 436.231 343.666C436.127 343.729 436.022 343.787 435.922 343.856H435.924Z" fill="#3D898D"/>
<path d="M1016.13 344.241C1016.18 343.898 1016.22 343.545 1016.22 343.186C1016.22 339.577 1013.29 336.65 1009.68 336.65C1006.79 336.65 1004.35 338.525 1003.48 341.113C1003.28 341.169 1003.08 341.238 1002.88 341.312C1002.21 339.259 1000.28 337.772 998.001 337.772C995.872 337.772 994.047 339.069 993.264 340.916C992.938 340.838 992.601 340.79 992.252 340.79C991.807 340.79 991.38 340.859 990.975 340.981C990.978 340.915 990.993 340.859 990.993 340.79C990.993 339.056 989.586 337.643 987.845 337.643C986.104 337.643 984.697 339.056 984.697 340.79C984.697 340.984 984.717 341.172 984.753 341.353C984.202 340.985 983.538 340.769 982.825 340.769C981.42 340.769 980.219 341.604 979.673 342.804C979.215 342.26 978.541 341.91 977.778 341.91C976.403 341.91 975.29 343.029 975.29 344.401C975.29 344.808 975.394 345.182 975.563 345.516C974.925 345.8 974.418 346.33 974.139 346.973H1018.08C1017.95 345.757 1017.18 344.742 1016.13 344.241H1016.13ZM986.259 343.856C986.245 343.729 986.233 343.594 986.204 343.469C986.322 343.539 986.441 343.606 986.566 343.666C986.461 343.729 986.357 343.787 986.257 343.856H986.259Z" fill="#3D898D"/>
<path d="M828.648 343.338C828.497 343.338 828.356 343.369 828.212 343.385C827.992 343.232 827.728 343.138 827.441 343.138C827.246 343.138 827.062 343.183 826.898 343.256C826.91 343.154 826.928 343.048 826.928 342.94C826.928 341.518 825.777 340.369 824.357 340.369C823.962 340.369 823.591 340.462 823.258 340.625C822.796 340.459 822.304 340.369 821.786 340.369C819.649 340.369 817.868 341.882 817.452 343.893C817.051 343.553 816.538 343.336 815.975 343.336C814.856 343.336 813.929 344.143 813.73 345.205H832.004C831.304 344.09 830.068 343.336 828.651 343.336L828.648 343.338Z" fill="#3D898D"/>
<path d="M1066.36 342.744C1066.16 342.744 1065.97 342.784 1065.78 342.807C1065.5 342.604 1065.15 342.482 1064.77 342.482C1064.51 342.482 1064.27 342.538 1064.05 342.638C1064.07 342.5 1064.09 342.36 1064.09 342.222C1064.09 340.347 1062.58 338.831 1060.7 338.831C1060.19 338.831 1059.69 338.957 1059.26 339.169C1058.65 338.952 1058 338.831 1057.32 338.831C1054.5 338.831 1052.15 340.826 1051.61 343.479C1051.08 343.029 1050.4 342.744 1049.66 342.744C1048.18 342.744 1046.96 343.806 1046.7 345.207H1070.78C1069.85 343.738 1068.23 342.744 1066.36 342.744H1066.36Z" fill="#3D898D"/>
<path d="M563.022 344.532C563.017 344.484 563.012 344.435 563 344.384C563.045 344.409 563.091 344.435 563.139 344.463C563.1 344.484 563.059 344.503 563.023 344.532H563.022Z" fill="#3D898D"/>
<path d="M533.62 335.343C533.62 335.343 532.775 332.208 526.583 331.337H526.57C529.423 328.69 528.977 326.631 528.977 326.631C528.977 326.631 525.341 326.419 522.524 328.888C522.705 328.204 522.844 327.404 522.918 326.476C523.353 320.95 521.484 319.798 521.484 319.798C521.484 319.798 519.585 322.37 518.962 325.977C516.633 323.358 514.717 323.649 514.717 323.649C514.717 323.649 514.467 325.73 515.348 328.027C515.098 327.955 514.835 327.889 514.556 327.828C509.823 326.809 508.294 328.705 508.294 328.705C508.294 328.705 510.505 331.644 514.257 332.362C513.429 333.04 512.615 333.978 511.852 335.253C511.852 335.253 513.302 338.988 517.745 337.179C518.044 337.056 518.319 336.925 518.583 336.79C518.544 340.054 518.871 343.856 520.35 345.939L523.951 345.807C523.951 345.807 521.437 341.592 520.288 336.803C520.955 338.463 522.227 340.168 524.624 341.36C524.624 341.36 526.833 339.391 524.575 335.434C527.105 336.233 530.273 336.585 533.62 335.346V335.343Z" fill="#3D898D"/>
<path d="M787.215 327.801C787.215 327.801 787.207 327.804 787.204 327.804C788.725 324.223 787.476 322.526 787.476 322.526C787.476 322.526 784.071 323.816 782.51 327.223C782.396 326.523 782.195 325.734 781.883 324.86C780.021 319.638 777.843 319.35 777.843 319.35C777.843 319.35 777.161 322.472 778.068 326.018C774.87 324.577 773.242 325.624 773.242 325.624C773.242 325.624 773.863 327.626 775.609 329.365C775.351 329.399 775.085 329.446 774.803 329.506C770.065 330.51 769.447 332.865 769.447 332.865C769.447 332.865 772.666 334.643 776.383 333.764C775.904 334.72 775.544 335.911 775.369 337.386C775.369 337.386 778.219 340.201 781.535 336.735C781.756 336.503 781.949 336.275 782.133 336.047C782.037 339.459 782.295 343.691 783.885 345.929L787.487 345.797C787.487 345.797 784.369 340.571 783.492 335.144C784.783 336.48 786.701 337.625 789.522 337.74C789.522 337.74 790.734 335.039 787.055 332.353C789.691 332.049 792.726 331.074 795.276 328.578C795.276 328.578 793.224 326.063 787.213 327.797L787.215 327.801Z" fill="#3D898D"/>
<path d="M861.406 329.509C861.125 329.449 860.859 329.403 860.6 329.368C862.345 327.631 862.967 325.627 862.967 325.627C862.967 325.627 861.338 324.58 858.14 326.021C859.048 322.474 858.366 319.353 858.366 319.353C858.366 319.353 856.188 319.641 854.327 324.863C854.014 325.737 853.814 326.525 853.701 327.226C852.139 323.819 848.734 322.529 848.734 322.529C848.734 322.529 847.485 324.226 849.006 327.807C849.003 327.807 848.998 327.804 848.995 327.804C842.986 326.07 840.934 328.585 840.934 328.585C843.484 331.082 846.517 332.058 849.153 332.36C846.746 334.119 846.436 335.877 846.507 336.887C845.378 335.886 843.897 335.272 842.27 335.272C839.445 335.272 837.053 337.101 836.207 339.635C836.006 339.692 835.81 339.756 835.622 339.834C834.962 337.821 833.074 336.368 830.845 336.368C828.761 336.368 826.975 337.637 826.212 339.44C825.892 339.365 825.565 339.323 825.223 339.323C824.787 339.323 824.368 339.386 823.975 339.504C823.978 339.442 823.992 339.386 823.992 339.323C823.992 337.62 822.613 336.242 820.911 336.242C819.208 336.242 817.833 337.62 817.833 339.323C817.833 339.508 817.854 339.692 817.889 339.87C817.349 339.508 816.701 339.297 816.001 339.297C814.629 339.297 813.453 340.117 812.92 341.284C812.472 340.76 811.815 340.413 811.067 340.413C809.722 340.413 808.631 341.504 808.631 342.851C808.631 343.245 808.732 343.614 808.899 343.942C808.275 344.22 807.776 344.735 807.502 345.365H848.972C848.817 345.645 848.724 345.802 848.724 345.802L852.325 345.934C853.915 343.695 854.173 339.463 854.077 336.052C854.259 336.279 854.454 336.508 854.675 336.739C857.991 340.206 860.841 337.39 860.841 337.39C860.666 335.915 860.306 334.725 859.827 333.769C863.546 334.646 866.763 332.87 866.763 332.87C866.763 332.87 866.145 330.513 861.407 329.511L861.406 329.509ZM819.357 342.322C819.345 342.19 819.334 342.062 819.303 341.937C819.418 342.009 819.535 342.078 819.661 342.127C819.558 342.19 819.454 342.253 819.355 342.32L819.357 342.322ZM849.826 343.718C849.499 343.284 849.07 342.929 848.573 342.696C848.63 342.359 848.664 342.015 848.664 341.662C848.664 340.16 848.142 338.782 847.274 337.691C849.772 337.45 851.519 336.388 852.716 335.15C852.182 338.463 850.814 341.699 849.827 343.718H849.826Z" fill="#3D898D"/>
<path d="M1091.87 327.324C1091.58 327.355 1091.31 327.393 1091.06 327.439C1092.18 325.248 1092.15 323.152 1092.15 323.152C1092.15 323.152 1090.28 322.658 1087.68 325.018C1087.45 321.364 1085.83 318.605 1085.83 318.605C1085.83 318.605 1083.85 319.552 1083.7 325.096C1083.67 326.024 1083.72 326.833 1083.83 327.537C1081.29 324.782 1077.66 324.607 1077.66 324.607C1077.66 324.607 1076.99 326.606 1079.55 329.541H1079.54C1073.29 329.75 1072.11 332.779 1072.11 332.779C1075.31 334.364 1078.5 334.355 1081.1 333.826C1078.43 337.519 1080.42 339.713 1080.42 339.713C1083.07 338.73 1084.53 337.046 1085.35 335.378C1086.19 340.81 1084.85 346.746 1084.85 346.746L1088.31 345.754C1089.13 343.134 1088.07 339.029 1086.92 335.816C1087.16 335.975 1087.42 336.133 1087.7 336.285C1091.93 338.558 1093.77 334.998 1093.77 334.998C1093.14 333.648 1092.43 332.626 1091.68 331.866C1095.49 331.55 1098 328.866 1098 328.866C1098 328.866 1096.68 326.816 1091.87 327.326V327.324Z" fill="#3D898D"/>
<path d="M321.726 329.509C321.445 329.449 321.18 329.403 320.922 329.368C322.666 327.631 323.289 325.627 323.289 325.627C323.289 325.627 321.66 324.58 318.463 326.021C319.37 322.474 318.688 319.353 318.688 319.353C318.688 319.353 316.51 319.641 314.649 324.863C314.336 325.737 314.136 326.525 314.023 327.226C312.462 323.819 309.057 322.529 309.057 322.529C309.057 322.529 307.807 324.226 309.328 327.807C309.325 327.807 309.321 327.804 309.318 327.804C303.307 326.07 301.255 328.585 301.255 328.585C303.805 331.082 306.838 332.058 309.474 332.36C305.796 335.047 307.007 337.748 307.007 337.748C309.829 337.632 311.745 336.488 313.036 335.151C312.159 340.577 309.041 345.803 309.041 345.803L312.643 345.935C314.233 343.697 314.491 339.465 314.394 336.053C314.579 336.281 314.772 336.511 314.993 336.741C318.309 340.207 321.158 337.392 321.158 337.392C320.983 335.917 320.624 334.726 320.145 333.77C323.863 334.648 327.081 332.871 327.081 332.871C327.081 332.871 326.462 330.514 321.725 329.512L321.726 329.509Z" fill="#3D898D"/>
<path d="M1148.83 350H3.17168C1.42158 350 0 348.645 0 346.971C0 345.297 1.42158 343.943 3.17168 343.943H1148.83C1150.58 343.943 1152 345.298 1152 346.971C1152 348.643 1150.58 350 1148.83 350H1148.83Z" fill="#3D898D"/>
</g>
<defs>
<clipPath id="clip0_206_5400">
<rect width="1152" height="350" fill="white"/>
</clipPath>
</defs>
</svg>
