<svg width="129" height="55" viewBox="0 0 129 55" fill="none" xmlns="http://www.w3.org/2000/svg">
<path d="M17.4243 29.773C26.422 19.3962 36.3831 9.29224 47.2968 0.909415C47.3131 0.897121 47.3331 0.890682 47.3535 0.891136C47.374 0.891589 47.3936 0.89891 47.4094 0.911916C47.4251 0.924923 47.4361 0.942856 47.4404 0.962827C47.4447 0.982797 47.4422 1.00364 47.4332 1.02199C46.9107 2.06985 46.3471 3.11337 45.7423 4.15256C37.9246 17.5993 28.3683 29.6929 18.444 41.3946C18.3993 41.4466 18.3495 41.4517 18.2946 41.4098C11.4143 36.1229 5.14669 29.6539 0.909809 22.0202C0.720733 21.6796 0.596607 21.3404 0.537431 21.0026C0.533682 20.9797 0.535856 20.9562 0.543739 20.9344C0.551623 20.9125 0.564946 20.8931 0.582404 20.8781C0.599862 20.863 0.620858 20.8528 0.643335 20.8485C0.665812 20.8441 0.689 20.8458 0.71063 20.8533C6.73579 22.8775 12.1504 26.0189 17.1862 29.7968C17.2215 29.8238 17.2657 29.8363 17.3099 29.8319C17.3541 29.8274 17.395 29.8064 17.4243 29.773Z" fill="white"/>
<path d="M94.671 19.2751C96.0497 19.2751 97.1673 18.1575 97.1673 16.7789C97.1673 15.4003 96.0497 14.2827 94.671 14.2827C93.2924 14.2827 92.1748 15.4003 92.1748 16.7789C92.1748 18.1575 93.2924 19.2751 94.671 19.2751Z" fill="white"/>
<path d="M128.551 15.7334H125.143C125.112 15.7334 125.087 15.7586 125.087 15.7896V40.1414C125.087 40.1725 125.112 40.1977 125.143 40.1977H128.551C128.582 40.1977 128.607 40.1725 128.607 40.1414V15.7896C128.607 15.7586 128.582 15.7334 128.551 15.7334Z" fill="white"/>
<path d="M94.6708 25.2133C96.0483 25.2133 97.1649 24.0966 97.1649 22.7192C97.1649 21.3418 96.0483 20.2251 94.6708 20.2251C93.2934 20.2251 92.1768 21.3418 92.1768 22.7192C92.1768 24.0966 93.2934 25.2133 94.6708 25.2133Z" fill="white"/>
<path d="M39.7776 26.2292C37.9461 25.1553 36.0452 24.9561 33.9365 24.8197C33.8788 24.8154 33.8492 24.7844 33.8477 24.7267L33.7979 22.8713C33.7973 22.8349 33.8111 22.7997 33.8362 22.7734C33.8613 22.7471 33.8958 22.7317 33.9322 22.7305C41.0918 22.5075 47.2685 26.1036 47.4287 33.9885C47.4547 35.312 47.4756 36.6377 47.4915 37.9655C47.4915 38.0435 47.5312 38.0824 47.6105 38.0824C50.832 38.0897 54.0485 38.0918 57.2599 38.0889C59.2127 38.0889 60.6827 37.9482 61.4773 36.134C62.0272 34.8739 61.7761 32.4448 61.828 30.9965C62.0229 25.5515 66.0519 22.0616 71.5813 22.7933C75.2444 23.2783 77.8402 25.9953 78.4356 29.5546C78.9942 32.893 77.0695 38.076 82.5599 38.0824C84.569 38.0853 86.5781 38.0875 88.5872 38.0889C89.6683 38.0904 90.4607 37.9872 90.9644 37.7794C92.2562 37.2453 92.8977 36.1744 92.8891 34.5665C92.8775 32.631 92.8768 30.6948 92.8869 28.7579C92.8869 28.6857 92.923 28.6496 92.9951 28.6496L96.2903 28.6756C96.374 28.6756 96.4151 28.7174 96.4137 28.8012C96.3761 32.0126 96.3898 34.0606 96.4548 34.9454C96.5558 36.3497 97.1757 37.2915 98.3145 37.7707C98.824 37.9857 99.6922 38.0918 100.919 38.0889C102.668 38.0861 104.408 38.0861 106.139 38.0889C106.152 38.0886 106.165 38.0844 106.177 38.0769C106.188 38.0694 106.197 38.0589 106.202 38.0467C106.207 38.0345 106.209 38.0212 106.206 38.0083C106.204 37.9954 106.198 37.9836 106.189 37.9742C103.625 35.2355 103.062 31.0441 104.465 27.6732C105.966 24.0685 109.31 22.3625 113.117 22.7457C117.843 23.2198 120.467 26.8159 120.542 31.3688C120.542 31.3993 120.531 31.4284 120.509 31.45C120.488 31.4715 120.46 31.4836 120.43 31.4836H117.137C117.072 31.4836 117.037 31.4518 117.033 31.3883C116.881 29.613 116.747 28.2058 115.699 26.699C114.041 24.3175 110.523 24.2482 108.756 26.463C106.533 29.2536 106.572 36.2076 110.51 37.7794C111.015 37.9814 111.77 38.0832 112.774 38.0846C115.331 38.0889 117.881 38.0889 120.426 38.0846C120.456 38.0846 120.485 38.0967 120.507 38.1182C120.528 38.1397 120.54 38.1689 120.54 38.1994V40.0851C120.54 40.1572 120.504 40.1933 120.432 40.1933C113.54 40.2005 106.648 40.2056 99.7564 40.2085C97.909 40.2099 96.2369 39.686 94.7401 38.6367C94.7117 38.6171 94.678 38.6067 94.6434 38.6071C94.6089 38.6075 94.5754 38.6186 94.5474 38.6389C93.1214 39.6578 91.6651 40.1731 90.1785 40.1847C88.8016 40.1962 85.9698 40.1948 81.6831 40.1803C79.5831 40.1731 77.7948 39.4803 76.3183 38.1019C76.262 38.05 76.2021 38.0471 76.1386 38.0933C74.9197 39.0004 74.0385 39.678 72.4927 39.9811C69.4112 40.5888 66.6855 39.9227 64.3156 37.9829C64.255 37.9338 64.1965 37.9367 64.1402 37.9915C62.1419 39.9617 60.2541 40.1868 57.2512 40.1911C48.9045 40.2012 40.5577 40.202 32.211 40.1933C32.1374 40.1933 32.1006 40.1572 32.1006 40.0851V38.195C32.1006 38.1229 32.1367 38.0868 32.2088 38.0868H43.837C43.8933 38.0868 43.9229 38.0586 43.9257 38.0023C44.1184 33.6226 44.0318 28.7254 39.7776 26.2292ZM68.0978 25.3783C63.8198 27.8551 64.4043 37.6386 70.1524 38.0868C75.9221 38.5393 76.2815 28.4656 72.8326 25.7507C71.5596 24.7483 69.5483 24.5405 68.0978 25.3783Z" fill="white"/>
<path d="M45.0692 43.982C45.4498 43.982 45.7584 43.6735 45.7584 43.2928C45.7584 42.9121 45.4498 42.6035 45.0692 42.6035C44.6885 42.6035 44.3799 42.9121 44.3799 43.2928C44.3799 43.6735 44.6885 43.982 45.0692 43.982Z" fill="white"/>
<path d="M45.0775 45.6759C45.4581 45.6759 45.7667 45.3673 45.7667 44.9866C45.7667 44.606 45.4581 44.2974 45.0775 44.2974C44.6968 44.2974 44.3882 44.606 44.3882 44.9866C44.3882 45.3673 44.6968 45.6759 45.0775 45.6759Z" fill="white"/>
<path d="M26.4727 49.7756C26.4598 49.7707 26.446 49.7689 26.4323 49.7705C26.4186 49.772 26.4054 49.7768 26.394 49.7844C26.3825 49.7921 26.373 49.8024 26.3663 49.8144C26.3597 49.8265 26.3559 49.8399 26.3555 49.8537C26.2857 52.2145 24.3128 53.3866 22.0915 52.9261C18.2601 52.1364 18.9522 46.8957 22.7306 47.0883C22.7847 47.0906 22.8361 47.1125 22.8752 47.1499C22.9143 47.1873 22.9385 47.2377 22.9433 47.2916C22.9481 47.3455 22.9331 47.3994 22.9012 47.4431C22.8692 47.4868 22.8225 47.5174 22.7696 47.5292C21.4674 47.8343 20.7335 48.5133 20.5679 49.5663C20.0293 53.007 25.1779 53.4228 25.2672 50.169C25.3304 47.8436 25.3593 45.5162 25.3537 43.1871C25.3537 43.0643 25.4151 43.0029 25.5379 43.0029H26.1295C26.2578 43.0029 26.322 43.0671 26.322 43.1954C26.3239 44.8307 26.3313 46.4622 26.3443 48.0901C26.3555 49.3123 27.9182 49.957 28.5573 49.0026C28.9786 48.3691 28.7638 45.9525 28.7693 45.1125C28.7712 45.0028 28.827 44.9526 28.9368 44.9619L29.5619 45.0065C29.6846 45.0158 29.7451 45.0819 29.7432 45.2046C29.7405 46.1423 29.9721 48.4584 29.5172 49.2091C28.9507 50.1383 27.3796 50.1104 26.4727 49.7756Z" fill="white"/>
<path d="M31.8223 51.9048C34.3031 51.7345 34.8389 48.7598 34.4008 46.8259C34.1524 45.7321 32.7627 44.9423 32.1181 46.2511C31.3703 47.7747 31.6819 48.8733 33.053 49.5467C33.1002 49.5692 33.1381 49.6074 33.16 49.6549C33.1819 49.7024 33.1865 49.7561 33.1728 49.8066C33.1592 49.8571 33.1283 49.9012 33.0855 49.9312C33.0427 49.9613 32.9907 49.9753 32.9386 49.9709C29.5592 49.7393 30.3238 44.2363 33.6613 45.0791C36.2063 45.7209 34.8501 48.7738 36.1198 49.2872C38.0955 50.0853 37.5039 47.624 37.6937 46.8427C38.355 44.0996 42.4404 44.5098 42.446 47.4734C42.4488 48.5031 42.4655 49.7867 43.9082 49.357C44.7677 49.1003 44.6254 47.5375 44.6031 46.8539C44.5994 46.7515 44.6487 46.7004 44.751 46.7004H45.3538C45.4056 46.7004 45.4555 46.7207 45.4929 46.7571C45.5304 46.7935 45.5525 46.8432 45.5547 46.8957L45.6328 48.9021C45.6346 48.9329 45.6427 48.963 45.6567 48.9904C45.6706 49.0177 45.69 49.0419 45.7137 49.0612C46.5425 49.7058 47.6699 49.477 47.6699 48.2994C47.6699 46.5822 47.6708 44.8642 47.6727 43.1452C47.6727 43.0503 47.7201 43.0029 47.815 43.0029H48.5071C48.6001 43.0029 48.6466 43.0503 48.6466 43.1452C48.6503 44.7284 48.6513 46.3106 48.6494 47.8919C48.6466 48.8379 48.8419 49.65 50.0056 49.3793C50.5414 49.2547 50.8139 48.8807 50.8232 48.2575C50.8474 46.559 50.8344 44.8633 50.7842 43.1703C50.7805 43.0587 50.8344 43.0029 50.946 43.0029H51.6437C51.7367 43.0029 51.7841 43.0494 51.786 43.1424C51.7916 44.8633 51.7944 46.585 51.7944 48.3077C51.7944 50.1523 49.534 50.2779 48.309 49.6388C48.2178 49.5923 48.1266 49.5914 48.0355 49.636C47.0792 50.1086 46.1212 50.1067 45.1612 49.6305C45.131 49.6149 45.0973 49.607 45.0627 49.6075C45.0282 49.608 44.994 49.6168 44.9631 49.6333C43.9008 50.1783 42.8785 50.1337 41.8962 49.4993C41.8218 49.4509 41.7483 49.4509 41.6758 49.4993C40.6005 50.1839 39.5326 50.1681 38.4722 49.4519C38.396 49.3998 38.3206 49.4007 38.2462 49.4547C37.3923 50.0593 36.4621 50.17 35.4556 49.7867C35.3682 49.7532 35.3087 49.7811 35.277 49.8704C34.7357 51.4201 33.6408 52.3075 31.9926 52.5326C31.9493 52.5389 31.9051 52.5298 31.8675 52.507C31.8299 52.4841 31.8011 52.4488 31.7861 52.4071L31.6856 52.1141C31.6409 51.9838 31.6865 51.9141 31.8223 51.9048ZM40.1197 49.4231C40.3047 49.4176 40.4864 49.3626 40.6544 49.2613C40.8225 49.1599 40.9736 49.0141 41.0991 48.8323C41.2246 48.6505 41.3221 48.4362 41.386 48.2016C41.4499 47.967 41.4789 47.7167 41.4715 47.465C41.464 47.2134 41.4202 46.9653 41.3425 46.7349C41.2648 46.5045 41.1548 46.2963 41.0187 46.1223C40.8826 45.9482 40.7231 45.8117 40.5494 45.7204C40.3756 45.6292 40.191 45.5851 40.006 45.5906C39.821 45.5961 39.6393 45.6511 39.4713 45.7524C39.3032 45.8538 39.1521 45.9996 39.0266 46.1814C38.9011 46.3632 38.8036 46.5775 38.7397 46.8121C38.6758 47.0467 38.6468 47.297 38.6542 47.5486C38.6617 47.8003 38.7055 48.0484 38.7832 48.2788C38.8609 48.5092 38.9709 48.7174 39.107 48.8914C39.2431 49.0655 39.4026 49.202 39.5763 49.2933C39.7501 49.3845 39.9347 49.4286 40.1197 49.4231Z" fill="white"/>
<path d="M27.7648 52.3821C28.147 52.3821 28.4569 52.0722 28.4569 51.69C28.4569 51.3078 28.147 50.998 27.7648 50.998C27.3826 50.998 27.0728 51.3078 27.0728 51.69C27.0728 52.0722 27.3826 52.3821 27.7648 52.3821Z" fill="white"/>
<path d="M27.773 54.1094C28.1567 54.1094 28.4678 53.7983 28.4678 53.4145C28.4678 53.0308 28.1567 52.7197 27.773 52.7197C27.3892 52.7197 27.0781 53.0308 27.0781 53.4145C27.0781 53.7983 27.3892 54.1094 27.773 54.1094Z" fill="white"/>
</svg>
