<svg width="218" height="60" viewBox="0 0 218 60" fill="none" xmlns="http://www.w3.org/2000/svg">
<path d="M0.5 7.99927C0.5 3.58099 4.08172 -0.000732422 8.5 -0.000732422H209.5C213.918 -0.000732422 217.5 3.58099 217.5 7.99927V51.9993C217.5 56.4175 213.918 59.9993 209.5 59.9993H8.5C4.08172 59.9993 0.5 56.4175 0.5 51.9993V7.99927Z" fill="#404040"/>
<path d="M0 7.99927C0 3.58099 3.58172 -0.000732422 8 -0.000732422H209C213.418 -0.000732422 217 3.58099 217 7.99927V51.9993C217 56.4175 213.418 59.9993 209 59.9993H8C3.58172 59.9993 0 56.4175 0 51.9993V7.99927Z" fill="#404040"/>
<path d="M30.6992 30.6663V36.2087C30.6992 36.4735 30.7148 36.6843 30.7459 36.8411C30.7771 36.9954 30.829 37.1188 30.9017 37.2113C30.9769 37.3077 31.073 37.3707 31.1872 37.4015C31.304 37.4324 31.4519 37.4478 31.6284 37.4478H32.5628V37.2422H32.3552C32.0502 37.2422 31.8529 37.1496 31.7634 36.9645C31.6725 36.7769 31.6284 36.5249 31.6284 36.2087V30.6663H30.6992Z" fill="white"/>
<path d="M34.5687 37.448V33.5148C34.7062 33.3708 34.862 33.2474 35.0359 33.1446C35.2085 33.0392 35.4005 32.9852 35.6121 32.9852C35.93 32.9852 36.1948 33.0855 36.4063 33.2834C36.5101 33.3862 36.5932 33.5302 36.6555 33.7153C36.7204 33.8978 36.7541 34.1138 36.7541 34.3631V37.448H37.6833V34.3631C37.6833 33.9968 37.6327 33.6922 37.5328 33.4479C37.4354 33.2011 37.3018 33.0109 37.1331 32.8772C36.9631 32.7307 36.7749 32.6343 36.5672 32.5893C36.3622 32.5418 36.1442 32.5173 35.9132 32.5173C35.6082 32.5173 35.3421 32.5726 35.1137 32.6819C34.8879 32.7885 34.7062 32.9055 34.5687 33.0315H34.522C34.47 32.9055 34.3779 32.8053 34.2468 32.7333C34.1145 32.6613 33.912 32.6253 33.6395 32.6253H32.7051V32.8258H32.9127C33.2268 32.8258 33.4266 32.9209 33.5097 33.1086C33.5953 33.2975 33.6395 33.5431 33.6395 33.8438V37.448H34.5687Z" fill="white"/>
<path d="M38.967 34.0649C38.967 34.3875 39.0449 34.6652 39.2006 34.8978C39.359 35.1279 39.5394 35.2937 39.7405 35.3965C39.6678 35.448 39.5874 35.5174 39.5017 35.6022C39.4187 35.6845 39.3771 35.8053 39.3771 35.9621C39.3771 36.1163 39.4187 36.2436 39.5017 36.3426C39.5874 36.4428 39.6834 36.5174 39.7872 36.5688C39.4823 36.6755 39.2162 36.8439 38.9878 37.0726C38.762 37.3027 38.6504 37.5829 38.6504 37.9158C38.6504 38.2102 38.7101 38.4557 38.8321 38.6511C38.9528 38.849 39.1137 39.0123 39.3148 39.1395C39.5251 39.2758 39.7639 39.3709 40.0312 39.4223C40.3012 39.4737 40.5983 39.4994 40.9241 39.4994C41.2628 39.4994 41.5691 39.4737 41.8429 39.4223C42.1154 39.3709 42.3529 39.2758 42.5541 39.1395C42.7643 39.0123 42.9278 38.849 43.042 38.6511C43.1588 38.4557 43.2185 38.2102 43.2185 37.9158C43.2185 37.6241 43.1575 37.3798 43.0368 37.1806C42.9149 36.9827 42.7487 36.8156 42.5385 36.6819C42.1154 36.4428 41.5782 36.322 40.9241 36.322C40.1973 36.322 39.834 36.2025 39.834 35.9621C39.834 35.723 40.1973 35.6022 40.9241 35.6022C41.2005 35.6022 41.4614 35.5765 41.7079 35.5251C41.9571 35.4711 42.166 35.3863 42.3361 35.2731C42.5125 35.1575 42.6501 34.9994 42.7513 34.8001C42.8513 34.6022 42.9019 34.3567 42.9019 34.0649C42.9019 33.795 42.8318 33.5636 42.6942 33.3708C42.5593 33.1754 42.3854 33.0263 42.1751 32.9235V32.8772L42.8552 32.7795V32.5173H40.9241C40.6606 32.5173 40.4076 32.543 40.1662 32.5945C39.9235 32.6459 39.712 32.7281 39.5329 32.8412C39.3668 32.9582 39.2292 33.1163 39.1228 33.3143C39.019 33.5135 38.967 33.7641 38.967 34.0649ZM41.9675 34.0649C41.9675 34.2847 41.9415 34.4685 41.8896 34.615C41.8377 34.759 41.765 34.8798 41.6716 34.9749C41.4912 35.1536 41.242 35.2423 40.9241 35.2423C40.6191 35.2423 40.3764 35.1536 40.1973 34.9749C40.1143 34.8798 40.0429 34.759 39.9845 34.615C39.9248 34.4685 39.8962 34.2847 39.8962 34.0649C39.8962 33.8361 39.9248 33.6459 39.9845 33.4942C40.0429 33.3438 40.1143 33.2204 40.1973 33.124C40.3764 32.9595 40.6191 32.8772 40.9241 32.8772C41.2213 32.8772 41.4691 32.9724 41.6664 33.16C41.8663 33.3451 41.9675 33.6472 41.9675 34.0649ZM40.4673 36.6819L41.0383 36.7282C41.8689 36.8413 42.2841 37.2372 42.2841 37.9158C42.2841 38.3233 42.157 38.6215 41.9052 38.8105C41.6521 38.9981 41.3251 39.0932 40.9241 39.0932C40.536 39.0932 40.2142 38.9981 39.9585 38.8105C39.7055 38.6215 39.5796 38.3233 39.5796 37.9158C39.5796 37.5829 39.6601 37.322 39.8236 37.1292C39.9897 36.9338 40.2038 36.7847 40.4673 36.6819Z" fill="white"/>
<path d="M47.7898 37.448V34.6767C47.7898 34.2179 47.7392 33.8438 47.6392 33.5559C47.538 33.268 47.4031 33.0469 47.2343 32.8927C47.0643 32.7461 46.8684 32.6459 46.6478 32.5945C46.4258 32.543 46.1987 32.5173 45.9677 32.5173C45.7977 32.5173 45.6381 32.5263 45.4901 32.543C45.3448 32.5572 45.1994 32.5739 45.0541 32.5945C44.7348 32.6664 44.5194 32.7616 44.4052 32.8772C44.2767 33.0006 44.2028 33.142 44.182 33.2988C44.1612 33.4531 44.1508 33.6202 44.1508 33.7976H44.6232C44.6985 33.4659 44.8335 33.2371 45.0281 33.1137C45.2215 32.9878 45.4668 32.9235 45.7653 32.9235C46.0897 32.9235 46.348 33.034 46.5387 33.2526C46.6322 33.3862 46.7074 33.5688 46.7671 33.7976C46.8255 34.0276 46.8554 34.3207 46.8554 34.6767H46.5387C46.178 34.6767 45.8405 34.6973 45.5265 34.7384C45.2111 34.7796 44.9308 34.8593 44.6855 34.9749C44.4428 35.0778 44.2508 35.2243 44.1093 35.412C43.9666 35.6009 43.8965 35.8361 43.8965 36.1163C43.8965 36.3978 43.9484 36.6305 44.0522 36.8156C44.1586 36.9981 44.2871 37.1446 44.4364 37.2577C44.5817 37.3644 44.74 37.4403 44.9139 37.484C45.0904 37.5315 45.2527 37.5559 45.4019 37.5559C45.799 37.5559 46.1144 37.4942 46.3467 37.3709C46.5777 37.2449 46.7477 37.1138 46.8554 36.9801H46.9021L47.2655 37.448H47.7898ZM46.8554 35.0829V36.4762C46.7477 36.6343 46.6179 36.777 46.4661 36.903C46.3129 37.0264 46.1105 37.0881 45.8587 37.0881C45.5849 37.0881 45.3578 37.0097 45.1787 36.8516C45.0956 36.7693 45.0242 36.669 44.9658 36.5482C44.9061 36.4287 44.8776 36.2847 44.8776 36.1163C44.8776 35.8053 45.0242 35.5546 45.3188 35.3657C45.616 35.178 46.0222 35.0829 46.5387 35.0829H46.8554Z" fill="white"/>
<path d="M52.9865 32.6252H49.8252C49.4852 32.6252 49.249 32.7101 49.114 32.8772C49.0413 32.9492 48.992 33.0353 48.9686 33.1342C48.9479 33.2345 48.9375 33.3348 48.9375 33.4376V33.9569H49.1451C49.1451 33.6625 49.2503 33.435 49.4618 33.2731C49.672 33.1124 49.9991 33.0314 50.4429 33.0314H51.6265L48.9375 37.2577V37.4479H52.9865V37.0417H50.1885L52.9865 32.6252Z" fill="white"/>
<path d="M57.4004 30.6663V36.2087C57.4004 36.4735 57.416 36.6843 57.4471 36.8411C57.4783 36.9954 57.5302 37.1188 57.6028 37.2113C57.6781 37.3077 57.7741 37.3707 57.8884 37.4015C58.0052 37.4324 58.1531 37.4478 58.3296 37.4478H59.264V37.2422H59.0563C58.7514 37.2422 58.5541 37.1496 58.4646 36.9645C58.3737 36.7769 58.3296 36.5249 58.3296 36.2087V30.6663H57.4004Z" fill="white"/>
<path d="M61.2698 37.4479V33.5147C61.4074 33.3707 61.5631 33.2473 61.737 33.1445C61.9096 33.0391 62.1017 32.9851 62.3132 32.9851C62.6312 32.9851 62.8959 33.0853 63.1075 33.2833C63.2113 33.3861 63.2944 33.5301 63.3567 33.7152C63.4215 33.8977 63.4553 34.1136 63.4553 34.363V37.4479H64.3845V34.363C64.3845 33.9967 64.3339 33.692 64.2339 33.4478C64.1366 33.201 64.0029 33.0108 63.8342 32.8771C63.6642 32.7306 63.476 32.6342 63.2684 32.5892C63.0634 32.5416 62.8453 32.5172 62.6143 32.5172C62.3094 32.5172 62.0433 32.5725 61.8149 32.6817C61.5891 32.7884 61.4074 32.9054 61.2698 33.0314H61.2231C61.1712 32.9054 61.0791 32.8051 60.948 32.7332C60.8156 32.6612 60.6132 32.6252 60.3406 32.6252H59.4062V32.8257H59.6139C59.928 32.8257 60.1278 32.9208 60.2109 33.1085C60.2965 33.2974 60.3406 33.5429 60.3406 33.8437V37.4479H61.2698Z" fill="white"/>
<path d="M66.0314 33.0314V36.2088C66.0314 36.6792 66.1469 37.0212 66.3792 37.2371C66.6102 37.4492 66.9048 37.5559 67.2617 37.5559C67.4408 37.5559 67.6017 37.5404 67.7445 37.5096C67.8859 37.4787 68.0105 37.4428 68.1182 37.4016C68.2221 37.3605 68.3077 37.3168 68.3778 37.2679C68.4466 37.2204 68.5076 37.1754 68.5595 37.1343L68.466 36.9286C68.3583 36.9839 68.2454 37.0314 68.1286 37.0726C68.0144 37.1137 67.8691 37.1343 67.6926 37.1343C67.2046 37.1343 66.9606 36.8258 66.9606 36.2088V33.0314H68.1961V32.6252H66.9606V31.0725H66.535L66.0314 31.6998V32.6252H65.3047V33.0314H66.0314Z" fill="white"/>
<path d="M73.1894 35.1909L73.205 34.7693C73.205 34.0495 73.035 33.4942 72.6962 33.1035C72.3601 32.7127 71.8397 32.5173 71.1337 32.5173C70.808 32.5173 70.516 32.5829 70.2564 32.7127C69.9995 32.8438 69.7815 33.0238 69.6024 33.2526C69.422 33.4826 69.287 33.7487 69.1975 34.0495C69.1066 34.3515 69.0625 34.6806 69.0625 35.0366C69.0625 35.3798 69.1066 35.7037 69.1975 36.0084C69.287 36.3104 69.422 36.5765 69.6024 36.8053C69.7815 37.0354 70.0086 37.2192 70.2824 37.3554C70.5549 37.4891 70.8716 37.5559 71.2324 37.5559C71.6295 37.5559 71.9812 37.4737 72.2862 37.3092C72.5937 37.1421 72.8637 36.8644 73.096 36.4762L72.8935 36.322C72.7131 36.5829 72.5094 36.7834 72.281 36.9235C72.0552 37.0649 71.7735 37.1343 71.4348 37.1343C71.2129 37.1343 71.0169 37.0855 70.8482 36.9852C70.6821 36.8863 70.5342 36.7526 70.407 36.5842C70.1643 36.232 70.0436 35.7667 70.0436 35.1909H73.1894ZM72.2291 34.7693H70.0436C70.0436 34.2281 70.1487 33.7898 70.3603 33.4531C70.4563 33.2885 70.5679 33.16 70.6925 33.0675C70.8197 32.9724 70.9676 32.9235 71.1337 32.9235C71.5036 32.9235 71.7787 33.0829 71.9591 33.4017C72.1382 33.7204 72.2291 34.1767 72.2291 34.7693Z" fill="white"/>
<path d="M75.4186 37.448V33.6433C75.6392 33.2975 75.9663 33.124 76.3997 33.124C76.7903 33.124 77.0642 33.2294 77.2199 33.4377L77.6508 33.124C77.5846 33.0212 77.5262 32.9338 77.4743 32.8618C77.4223 32.7873 77.3601 32.723 77.2874 32.6716C77.2108 32.6202 77.1122 32.5829 76.9915 32.5585C76.8695 32.5315 76.7579 32.5173 76.6541 32.5173C76.3452 32.5173 76.0895 32.5816 75.8858 32.7076C75.6807 32.831 75.525 32.9544 75.4186 33.0778H75.3563C75.3044 32.9209 75.2122 32.8053 75.0812 32.7333C74.9488 32.6613 74.7451 32.6253 74.4686 32.6253H73.6484V32.8258H73.7574C74.065 32.8258 74.261 32.9209 74.344 33.1086C74.4271 33.2975 74.4686 33.5431 74.4686 33.8438V37.448H75.4186Z" fill="white"/>
<path d="M79.5921 37.4479V33.5147C79.7297 33.3707 79.8854 33.2473 80.0593 33.1445C80.2319 33.0391 80.424 32.9851 80.6355 32.9851C80.9535 32.9851 81.2182 33.0853 81.4297 33.2833C81.5336 33.3861 81.6166 33.5301 81.6789 33.7152C81.7438 33.8977 81.7776 34.1136 81.7776 34.363V37.4479H82.7068V34.363C82.7068 33.9967 82.6561 33.692 82.5562 33.4478C82.4589 33.201 82.3252 33.0108 82.1565 32.8771C81.9865 32.7306 81.7983 32.6342 81.5907 32.5892C81.3856 32.5416 81.1676 32.5172 80.9366 32.5172C80.6316 32.5172 80.3656 32.5725 80.1372 32.6817C79.9114 32.7884 79.7297 32.9054 79.5921 33.0314H79.5454C79.4935 32.9054 79.4013 32.8051 79.2703 32.7332C79.1379 32.6612 78.9354 32.6252 78.6629 32.6252H77.7285V32.8257H77.9362C78.2502 32.8257 78.4501 32.9208 78.5331 33.1085C78.6188 33.2974 78.6629 33.5429 78.6629 33.8437V37.4479H79.5921Z" fill="white"/>
<path d="M87.7058 37.448V34.6767C87.7058 34.2179 87.6552 33.8438 87.5553 33.5559C87.454 33.268 87.3191 33.0469 87.1504 32.8927C86.9804 32.7461 86.7844 32.6459 86.5638 32.5945C86.3418 32.543 86.1147 32.5173 85.8837 32.5173C85.7137 32.5173 85.5541 32.5263 85.4062 32.543C85.2608 32.5572 85.1155 32.5739 84.9701 32.5945C84.6509 32.6664 84.4354 32.7616 84.3212 32.8772C84.1927 33.0006 84.1188 33.142 84.098 33.2988C84.0772 33.4531 84.0669 33.6202 84.0669 33.7976H84.5392C84.6145 33.4659 84.7495 33.2371 84.9442 33.1137C85.1375 32.9878 85.3828 32.9235 85.6813 32.9235C86.0057 32.9235 86.264 33.034 86.4548 33.2526C86.5482 33.3862 86.6235 33.5688 86.6832 33.7976C86.7416 34.0276 86.7714 34.3207 86.7714 34.6767H86.4548C86.094 34.6767 85.7566 34.6973 85.4425 34.7384C85.1271 34.7796 84.8468 34.8593 84.6015 34.9749C84.3589 35.0778 84.1668 35.2243 84.0253 35.412C83.8826 35.6009 83.8125 35.8361 83.8125 36.1163C83.8125 36.3978 83.8644 36.6305 83.9682 36.8156C84.0746 36.9981 84.2031 37.1446 84.3524 37.2577C84.4977 37.3644 84.656 37.4403 84.8299 37.484C85.0064 37.5315 85.1687 37.5559 85.3179 37.5559C85.715 37.5559 86.0304 37.4942 86.2627 37.3709C86.4937 37.2449 86.6637 37.1138 86.7714 36.9801H86.8181L87.1815 37.448H87.7058ZM86.7714 35.0829V36.4762C86.6637 36.6343 86.5339 36.777 86.3821 36.903C86.2289 37.0264 86.0265 37.0881 85.7747 37.0881C85.5009 37.0881 85.2738 37.0097 85.0947 36.8516C85.0116 36.7693 84.9403 36.669 84.8819 36.5482C84.8222 36.4287 84.7936 36.2847 84.7936 36.1163C84.7936 35.8053 84.9403 35.5546 85.2349 35.3657C85.532 35.178 85.9382 35.0829 86.4548 35.0829H86.7714Z" fill="white"/>
<path d="M89.3478 33.0314V36.2088C89.3478 36.6792 89.4633 37.0212 89.6956 37.2371C89.9266 37.4492 90.2212 37.5559 90.5781 37.5559C90.7572 37.5559 90.9181 37.5404 91.0609 37.5096C91.2024 37.4787 91.3269 37.4428 91.4347 37.4016C91.5385 37.3605 91.6241 37.3168 91.6942 37.2679C91.763 37.2204 91.824 37.1754 91.8759 37.1343L91.7825 36.9286C91.6747 36.9839 91.5618 37.0314 91.445 37.0726C91.3308 37.1137 91.1855 37.1343 91.009 37.1343C90.521 37.1343 90.277 36.8258 90.277 36.2088V33.0314H91.5125V32.6252H90.277V31.0725H89.8514L89.3478 31.6998V32.6252H88.6211V33.0314H89.3478Z" fill="white"/>
<path d="M93.6783 31.5456C93.6783 31.3682 93.6225 31.2139 93.5121 31.0828C93.4005 30.953 93.2604 30.8875 93.0917 30.8875C92.7763 30.8875 92.6193 31.0391 92.6193 31.3399C92.6193 31.5186 92.6764 31.6728 92.7906 31.8026C92.9074 31.9337 93.0462 31.998 93.2059 31.998C93.5199 31.998 93.6783 31.8476 93.6783 31.5456ZM93.7405 37.4479V33.8438C93.7405 33.3438 93.6783 33.0096 93.5537 32.8412C93.4771 32.7487 93.3785 32.6908 93.2578 32.6664C93.1358 32.6394 92.9878 32.6253 92.8113 32.6253H91.877V32.8258H92.0846C92.3987 32.8258 92.5985 32.9209 92.6816 33.1086C92.7672 33.2975 92.8113 33.543 92.8113 33.8438V37.4479H93.7405Z" fill="white"/>
<path d="M94.9258 35.0365C94.9258 35.7563 95.1256 36.3463 95.5279 36.8052C95.7174 37.0353 95.951 37.2191 96.2287 37.3553C96.5091 37.489 96.8335 37.5558 97.2047 37.5558C97.5641 37.5558 97.886 37.489 98.1702 37.3553C98.4531 37.2191 98.6958 37.0353 98.897 36.8052C99.0968 36.5764 99.2448 36.3103 99.3382 36.0082C99.4342 35.7036 99.4835 35.3797 99.4835 35.0365C99.4835 34.6805 99.4342 34.3514 99.3382 34.0494C99.2448 33.7486 99.0968 33.4825 98.897 33.2524C98.6958 33.0236 98.4531 32.8437 98.1702 32.7126C97.886 32.5828 97.5641 32.5172 97.2047 32.5172C96.8335 32.5172 96.5091 32.5828 96.2287 32.7126C95.951 32.8437 95.7174 33.0236 95.5279 33.2524C95.1256 33.7126 94.9258 34.3064 94.9258 35.0365ZM98.5024 35.0365C98.5024 35.6329 98.3856 36.1291 98.1546 36.5224C98.0365 36.7113 97.8964 36.8604 97.7342 36.9697C97.5706 37.0802 97.3941 37.1342 97.2047 37.1342C97.0139 37.1342 96.8387 37.0802 96.6804 36.9697C96.5246 36.8604 96.3871 36.7113 96.2703 36.5224C96.0276 36.1394 95.9069 35.6432 95.9069 35.0365C95.9069 34.4195 96.0276 33.9183 96.2703 33.5301C96.3871 33.345 96.5246 33.1985 96.6804 33.0879C96.8387 32.9787 97.0139 32.9234 97.2047 32.9234C97.3941 32.9234 97.5706 32.9787 97.7342 33.0879C97.8964 33.1985 98.0365 33.345 98.1546 33.5301C98.3856 33.9285 98.5024 34.4298 98.5024 35.0365Z" fill="white"/>
<path d="M101.787 37.4479V33.5147C101.925 33.3707 102.081 33.2473 102.255 33.1445C102.427 33.0391 102.619 32.9851 102.831 32.9851C103.149 32.9851 103.414 33.0853 103.625 33.2833C103.729 33.3861 103.812 33.5301 103.874 33.7152C103.939 33.8977 103.973 34.1136 103.973 34.363V37.4479H104.902V34.363C104.902 33.9967 104.851 33.692 104.752 33.4478C104.654 33.201 104.521 33.0108 104.352 32.8771C104.182 32.7306 103.994 32.6342 103.786 32.5892C103.581 32.5416 103.363 32.5172 103.132 32.5172C102.827 32.5172 102.561 32.5725 102.332 32.6817C102.107 32.7884 101.925 32.9054 101.787 33.0314H101.741C101.689 32.9054 101.597 32.8051 101.466 32.7332C101.333 32.6612 101.131 32.6252 100.858 32.6252H99.9238V32.8257H100.131C100.446 32.8257 100.645 32.9208 100.728 33.1085C100.814 33.2974 100.858 33.5429 100.858 33.8437V37.4479H101.787Z" fill="white"/>
<path d="M109.903 37.448V34.6767C109.903 34.2179 109.852 33.8438 109.753 33.5559C109.651 33.268 109.516 33.0469 109.348 32.8927C109.178 32.7461 108.982 32.6459 108.761 32.5945C108.539 32.543 108.312 32.5173 108.081 32.5173C107.911 32.5173 107.751 32.5263 107.603 32.543C107.458 32.5572 107.313 32.5739 107.167 32.5945C106.848 32.6664 106.633 32.7616 106.518 32.8772C106.39 33.0006 106.316 33.142 106.295 33.2988C106.275 33.4531 106.264 33.6202 106.264 33.7976H106.737C106.812 33.4659 106.947 33.2371 107.141 33.1137C107.335 32.9878 107.58 32.9235 107.879 32.9235C108.203 32.9235 108.461 33.034 108.652 33.2526C108.745 33.3862 108.821 33.5688 108.88 33.7976C108.939 34.0276 108.969 34.3207 108.969 34.6767H108.652C108.291 34.6767 107.954 34.6973 107.64 34.7384C107.324 34.7796 107.044 34.8593 106.799 34.9749C106.556 35.0778 106.364 35.2243 106.223 35.412C106.08 35.6009 106.01 35.8361 106.01 36.1163C106.01 36.3978 106.062 36.6305 106.165 36.8156C106.272 36.9981 106.4 37.1446 106.55 37.2577C106.695 37.3644 106.853 37.4403 107.027 37.484C107.204 37.5315 107.366 37.5559 107.515 37.5559C107.912 37.5559 108.228 37.4942 108.46 37.3709C108.691 37.2449 108.861 37.1138 108.969 36.9801H109.015L109.379 37.448H109.903ZM108.969 35.0829V36.4762C108.861 36.6343 108.731 36.777 108.579 36.903C108.426 37.0264 108.224 37.0881 107.972 37.0881C107.698 37.0881 107.471 37.0097 107.292 36.8516C107.209 36.7693 107.138 36.669 107.079 36.5482C107.019 36.4287 106.991 36.2847 106.991 36.1163C106.991 35.8053 107.138 35.5546 107.432 35.3657C107.729 35.178 108.136 35.0829 108.652 35.0829H108.969Z" fill="white"/>
<path d="M112.317 37.4478V31.9053C112.317 31.3912 112.252 31.0519 112.125 30.8873C112.052 30.8025 111.955 30.7434 111.834 30.7125C111.712 30.6817 111.561 30.6663 111.382 30.6663H110.453V30.8719H110.656C110.963 30.8719 111.16 30.967 111.247 31.1547C111.337 31.3398 111.382 31.5904 111.382 31.9053V37.4478H112.317Z" fill="white"/>
<path d="M120.256 30.8719C121.488 30.8719 122.23 31.4722 122.483 32.6715H122.691C122.691 32.5558 122.691 32.4324 122.691 32.3013C122.691 32.1714 122.681 32.0442 122.66 31.9208C122.65 31.7948 122.625 31.674 122.587 31.5609C122.548 31.4452 122.499 31.3501 122.437 31.2781C122.246 31.0596 121.94 30.8694 121.518 30.7074C121.095 30.5429 120.569 30.4606 119.94 30.4606C119.454 30.4606 119.012 30.5532 118.611 30.7383C118.209 30.9208 117.871 31.1676 117.599 31.4786C117.017 32.1367 116.727 32.9632 116.727 33.9568C116.727 34.4684 116.812 34.9478 116.986 35.3964C117.163 35.8463 117.403 36.237 117.708 36.5687C118.026 36.9054 118.399 37.1702 118.829 37.3656C119.261 37.5571 119.737 37.6535 120.256 37.6535C120.761 37.6535 121.217 37.6034 121.622 37.5044C122.027 37.4054 122.419 37.2409 122.8 37.0108V35.0674C122.8 34.9208 122.807 34.7872 122.821 34.6663C122.838 34.5468 122.873 34.4452 122.925 34.363C123.042 34.1856 123.258 34.0956 123.574 34.0956V33.8951C123.186 33.8951 122.878 33.9311 122.65 34.0031C122.424 34.0751 122.252 34.1702 122.136 34.2859C122.021 34.399 121.946 34.5262 121.912 34.6663C121.881 34.8077 121.866 34.9517 121.866 35.0982V36.8823C121.665 36.989 121.437 37.0764 121.186 37.1445C120.933 37.2101 120.622 37.2422 120.256 37.2422C119.916 37.2422 119.597 37.1882 119.296 37.0777C118.995 36.9684 118.728 36.7833 118.497 36.5224C118.264 36.2627 118.083 35.9234 117.952 35.5044C117.819 35.0866 117.754 34.5712 117.754 33.9568C117.754 33.5699 117.801 33.1946 117.895 32.8308C117.991 32.4645 118.14 32.1355 118.341 31.8437C118.551 31.5493 118.813 31.3141 119.125 31.1393C119.436 30.9619 119.813 30.8719 120.256 30.8719Z" fill="white"/>
<path d="M125.501 37.448V33.6433C125.721 33.2975 126.048 33.124 126.482 33.124C126.872 33.124 127.146 33.2294 127.302 33.4377L127.733 33.124C127.667 33.0212 127.608 32.9338 127.556 32.8618C127.504 32.7873 127.442 32.723 127.369 32.6716C127.293 32.6202 127.194 32.5829 127.074 32.5585C126.952 32.5315 126.84 32.5173 126.736 32.5173C126.427 32.5173 126.172 32.5816 125.968 32.7076C125.763 32.831 125.607 32.9544 125.501 33.0778H125.438C125.386 32.9209 125.294 32.8053 125.163 32.7333C125.031 32.6613 124.827 32.6253 124.551 32.6253H123.73V32.8258H123.839C124.147 32.8258 124.343 32.9209 124.426 33.1086C124.509 33.2975 124.551 33.5431 124.551 33.8438V37.448H125.501Z" fill="white"/>
<path d="M128.314 35.0366C128.314 35.7564 128.514 36.3464 128.917 36.8053C129.106 37.0354 129.34 37.2192 129.617 37.3554C129.898 37.4891 130.222 37.5559 130.593 37.5559C130.953 37.5559 131.275 37.4891 131.559 37.3554C131.842 37.2192 132.084 37.0354 132.286 36.8053C132.485 36.5765 132.633 36.3104 132.727 36.0084C132.823 35.7037 132.872 35.3798 132.872 35.0366C132.872 34.6806 132.823 34.3515 132.727 34.0495C132.633 33.7487 132.485 33.4826 132.286 33.2526C132.084 33.0238 131.842 32.8438 131.559 32.7127C131.275 32.5829 130.953 32.5173 130.593 32.5173C130.222 32.5173 129.898 32.5829 129.617 32.7127C129.34 32.8438 129.106 33.0238 128.917 33.2526C128.514 33.7127 128.314 34.3066 128.314 35.0366ZM131.891 35.0366C131.891 35.633 131.774 36.1292 131.543 36.5225C131.425 36.7115 131.285 36.8606 131.123 36.9698C130.959 37.0804 130.783 37.1343 130.593 37.1343C130.403 37.1343 130.227 37.0804 130.069 36.9698C129.913 36.8606 129.776 36.7115 129.659 36.5225C129.416 36.1395 129.296 35.6433 129.296 35.0366C129.296 34.4197 129.416 33.9184 129.659 33.5302C129.776 33.3451 129.913 33.1986 130.069 33.088C130.227 32.9788 130.403 32.9235 130.593 32.9235C130.783 32.9235 130.959 32.9788 131.123 33.088C131.285 33.1986 131.425 33.3451 131.543 33.5302C131.774 33.9287 131.891 34.4299 131.891 35.0366Z" fill="white"/>
<path d="M137.216 32.6252V36.5379C137.081 36.6857 136.925 36.8142 136.749 36.9235C136.575 37.034 136.383 37.088 136.173 37.088C136.038 37.088 135.9 37.0623 135.763 37.0109C135.624 36.9569 135.503 36.8772 135.399 36.7744C135.295 36.6716 135.208 36.5315 135.14 36.3528C135.07 36.1754 135.036 35.9556 135.036 35.6947V33.8438C135.036 33.3438 134.971 33.0096 134.844 32.8412C134.771 32.7486 134.674 32.6908 134.553 32.6664C134.431 32.6394 134.28 32.6252 134.101 32.6252H133.266V32.8258H133.375C133.678 32.8258 133.876 32.9209 133.966 33.1085C134.056 33.2975 134.101 33.543 134.101 33.8438V35.6947C134.101 36.0726 134.151 36.3785 134.252 36.615C134.352 36.8489 134.487 37.0366 134.657 37.1806C134.826 37.3181 135.012 37.4145 135.217 37.4685C135.421 37.5263 135.634 37.5559 135.856 37.5559C136.174 37.5559 136.445 37.5006 136.671 37.3914C136.899 37.2821 137.081 37.1651 137.216 37.0417H137.263L137.626 37.4479H138.15V32.6252H137.216Z" fill="white"/>
<path d="M140.725 39.4069V37.2423C140.883 37.3182 141.065 37.3888 141.27 37.4531C141.478 37.5212 141.728 37.5559 142.023 37.5559C142.361 37.5559 142.653 37.4891 142.9 37.3554C143.149 37.2192 143.357 37.0354 143.523 36.8053C143.681 36.5765 143.801 36.3104 143.881 36.0084C143.96 35.7037 144 35.3798 144 35.0366C144 34.2963 143.841 33.7024 143.523 33.2526C143.378 33.0238 143.185 32.8438 142.947 32.7127C142.711 32.5829 142.439 32.5173 142.132 32.5173C141.744 32.5173 141.439 32.5816 141.218 32.7076C140.996 32.831 140.831 32.9544 140.725 33.0778H140.678C140.626 32.9209 140.534 32.8053 140.403 32.7333C140.271 32.6613 140.068 32.6253 139.796 32.6253H138.861V32.8258H139.069C139.383 32.8258 139.583 32.9209 139.666 33.1086C139.752 33.2975 139.796 33.5431 139.796 33.8438V39.4069H140.725ZM140.725 36.8361V33.5508C140.831 33.3837 140.97 33.2359 141.14 33.1086C141.223 33.0572 141.322 33.0148 141.436 32.9801C141.553 32.9428 141.681 32.9235 141.82 32.9235C142.028 32.9235 142.206 32.9788 142.355 33.088C142.503 33.1986 142.63 33.3451 142.734 33.5302C142.83 33.7191 142.9 33.9415 142.942 34.1986C142.983 34.4557 143.004 34.7359 143.004 35.0366C143.004 35.3284 142.983 35.6022 142.942 35.8593C142.9 36.1138 142.82 36.3349 142.703 36.5225C142.599 36.7115 142.467 36.8606 142.308 36.9698C142.149 37.0804 141.947 37.1343 141.706 37.1343C141.546 37.1343 141.382 37.1035 141.213 37.0418C141.047 36.9801 140.883 36.912 140.725 36.8361Z" fill="white"/>
<path d="M32.0505 20.6329C32.2296 20.6329 32.3788 20.6946 32.4969 20.818C32.6137 20.9388 32.6734 21.0892 32.6734 21.2704C32.6734 21.4388 32.6137 21.584 32.4969 21.7074C32.3788 21.8283 32.2296 21.8874 32.0505 21.8874C31.8662 21.8874 31.7156 21.8283 31.5988 21.7074C31.4808 21.584 31.4224 21.4388 31.4224 21.2704C31.4224 21.0892 31.4808 20.9388 31.5988 20.818C31.7156 20.6946 31.8662 20.6329 32.0505 20.6329ZM33.6234 20.6329C33.8025 20.6329 33.9556 20.6946 34.0802 20.818C34.2048 20.9388 34.2671 21.0892 34.2671 21.2704C34.2671 21.4388 34.2048 21.584 34.0802 21.7074C33.9556 21.8283 33.8025 21.8874 33.6234 21.8874C33.4534 21.8874 33.3067 21.8283 33.1821 21.7074C33.0575 21.584 32.9952 21.4388 32.9952 21.2704C32.9952 21.0892 33.0575 20.9388 33.1821 20.818C33.3067 20.6946 33.4534 20.6329 33.6234 20.6329ZM36.2293 22.9979H36.0632C35.814 22.9979 35.6544 23.0686 35.5856 23.2087C35.5194 23.3463 35.487 23.5262 35.487 23.7486V27.3373H36.9924V27.7589H32.8291C32.1154 27.7358 31.4769 27.5005 30.9136 27.0545C30.6437 26.8322 30.4231 26.5738 30.2544 26.2782C30.0844 25.98 30 25.6458 30 25.2756C30 24.5288 30.3218 23.9337 30.9655 23.4915C31.6092 23.0493 32.4774 22.8283 33.5715 22.8283H36.2293V22.9979ZM34.2151 27.3373V23.4298C33.8855 23.3308 33.5429 23.2936 33.1873 23.3167C32.8343 23.3373 32.5099 23.4272 32.2166 23.5841C31.922 23.7383 31.6819 23.9594 31.495 24.2473C31.3107 24.5327 31.2199 24.8797 31.2199 25.291C31.2199 25.8643 31.3717 26.345 31.6767 26.7358C31.8117 26.9144 31.9778 27.0597 32.1751 27.1728C32.3723 27.2833 32.5903 27.3373 32.8291 27.3373H34.2151Z" fill="white"/>
<path d="M39.834 23.0288H39.6679C39.4187 23.0288 39.2591 23.0995 39.1903 23.2396C39.1241 23.381 39.0917 23.5622 39.0917 23.7846V27.3373H41.3602V27.7589H36.3145V27.3373H37.8199V22.8591H39.834V23.0288ZM37.6693 28.7307C37.8484 28.7307 37.9977 28.7924 38.1158 28.9157C38.2326 29.0391 38.2923 29.1844 38.2923 29.3528C38.2923 29.5301 38.2326 29.6818 38.1158 29.8052C37.9977 29.9286 37.8484 29.9903 37.6693 29.9903C37.4889 29.9903 37.3384 29.9286 37.2177 29.8052C37.0996 29.6818 37.0412 29.5301 37.0412 29.3528C37.0412 29.1844 37.0996 29.0391 37.2177 28.9157C37.3384 28.7924 37.4889 28.7307 37.6693 28.7307ZM39.2422 28.7307C39.4213 28.7307 39.5744 28.7924 39.699 28.9157C39.8236 29.0391 39.8859 29.1844 39.8859 29.3528C39.8859 29.5301 39.8236 29.6818 39.699 29.8052C39.5744 29.9286 39.4213 29.9903 39.2422 29.9903C39.0722 29.9903 38.9256 29.9286 38.801 29.8052C38.6764 29.6818 38.6141 29.5301 38.6141 29.3528C38.6141 29.1844 38.6764 29.0391 38.801 28.9157C38.9256 28.7924 39.0722 28.7307 39.2422 28.7307Z" fill="white"/>
<path d="M45.5269 22.8284C45.9655 22.8284 46.3704 22.9029 46.7416 23.0495C47.1153 23.1934 47.4216 23.3824 47.6604 23.615C47.9199 23.8721 48.1094 24.1639 48.2314 24.4891C48.356 24.8155 48.43 25.1562 48.4546 25.5122V25.7281C48.465 26.0546 48.5026 26.322 48.5688 26.5302C48.6376 26.7359 48.7298 26.8991 48.844 27.0186C48.9582 27.142 49.0879 27.2269 49.2333 27.2706C49.3786 27.3156 49.5422 27.3374 49.7264 27.3374H50.3701V27.759H49.2696C49.0996 27.7359 48.94 27.7012 48.792 27.6562C48.6467 27.6125 48.5221 27.5405 48.4183 27.4402C48.3625 27.3863 48.3119 27.331 48.2677 27.2757C48.2223 27.2179 48.1769 27.1562 48.1328 27.0906C47.9874 27.358 47.798 27.5996 47.567 27.8156C47.3347 28.0341 47.0323 28.2063 46.6585 28.3297C46.2744 28.4634 45.8396 28.5302 45.3556 28.5302C44.9156 28.5302 44.5146 28.4557 44.1512 28.3091C43.7904 28.1652 43.4933 27.9762 43.2584 27.7436C43.1545 27.6408 43.0624 27.5366 42.9832 27.43C42.9067 27.3246 42.8392 27.2166 42.7808 27.106C42.6354 27.3837 42.42 27.5675 42.1371 27.6562C41.9814 27.7153 41.823 27.7487 41.6647 27.759H40.6836V27.3374H41.2079C41.3766 27.3374 41.531 27.3194 41.6699 27.2809C41.8114 27.2436 41.9398 27.1677 42.054 27.0546C42.2786 26.8323 42.4135 26.4415 42.4589 25.8824V25.6819C42.4589 24.8078 42.7406 24.1137 43.3051 23.5996C43.8242 23.0854 44.5639 22.8284 45.5269 22.8284ZM45.475 23.2808C44.9312 23.2808 44.5068 23.4813 44.2031 23.8824C44.0578 24.0957 43.9449 24.3245 43.8657 24.5713C43.7853 24.8181 43.7463 25.1317 43.7463 25.5122C43.7463 25.9377 43.7943 26.2873 43.8917 26.5611C43.9877 26.8361 44.1149 27.0945 44.2706 27.3374C44.599 27.8066 45.0181 28.0418 45.5269 28.0418C46.0564 28.0418 46.4729 27.8361 46.7779 27.4248C46.9362 27.223 47.044 27.0019 47.0998 26.7616C47.1543 26.5225 47.1828 26.2166 47.1828 25.8464C47.1828 25.4222 47.1465 25.0675 47.0738 24.7821C47.0011 24.4981 46.8843 24.2371 46.726 24.0006C46.4106 23.5212 45.9941 23.2808 45.475 23.2808Z" fill="white"/>
<path d="M53.5153 20.4993V20.6792C53.1856 20.6792 52.978 20.7486 52.8923 20.8849C52.8093 21.0186 52.7678 21.1972 52.7678 21.4196V25.4299C52.7678 26.133 52.5653 26.6973 52.1604 27.1214C51.9696 27.3245 51.7464 27.4813 51.4908 27.5945C51.2377 27.705 50.9587 27.759 50.655 27.759H49.6895V27.3374H49.975C50.1541 27.3374 50.3344 27.3091 50.5148 27.25C50.6978 27.1883 50.8574 27.0893 50.9924 26.9518C51.1274 26.8181 51.239 26.6459 51.3298 26.4325C51.4194 26.2204 51.4765 25.9582 51.5011 25.6458V20.4993H53.5153Z" fill="white"/>
<path d="M56.2759 20.4993V20.6638C55.9463 20.6638 55.7386 20.7345 55.653 20.8746C55.5699 21.016 55.5284 21.1972 55.5284 21.4196V27.3374H57.0182V27.759H54.2773V20.4993H56.2759Z" fill="white"/>
<path d="M60.507 22.6946C61.3298 22.6946 61.867 22.8115 62.1162 23.0442C62.2642 23.1676 62.3498 23.3257 62.3706 23.5172C62.3939 23.7062 62.4069 23.9954 62.4069 24.3861H62.1837C62.1487 23.9517 61.9981 23.6496 61.7321 23.4812C61.4686 23.3141 61.1403 23.2293 60.7458 23.2293C60.1812 23.2293 59.7699 23.4092 59.5103 23.7691C59.2507 24.1265 59.121 24.6059 59.121 25.2087C59.121 25.4902 59.1443 25.7537 59.1936 26.0005C59.2456 26.2447 59.3286 26.462 59.4428 26.6535C59.6673 27.0442 60.0112 27.273 60.4758 27.3373H63.8968V27.7589H56.3438V27.3373H59.0016C58.2333 26.8681 57.8492 26.1586 57.8492 25.2087C57.8492 24.863 57.9076 24.5378 58.0257 24.2319C58.1463 23.9234 58.3241 23.656 58.5603 23.4298C58.7849 23.2074 59.0613 23.0288 59.3909 22.8951C59.7192 22.7614 60.0917 22.6946 60.507 22.6946Z" fill="white"/>
<path d="M67.0426 20.4993V20.6792C66.713 20.6792 66.5053 20.7486 66.4197 20.8849C66.3366 21.0186 66.2951 21.1972 66.2951 21.4196V25.4299C66.2951 26.133 66.0927 26.6973 65.6877 27.1214C65.497 27.3245 65.2738 27.4813 65.0181 27.5945C64.765 27.705 64.486 27.759 64.1823 27.759H63.2168V27.3374H63.5023C63.6814 27.3374 63.8618 27.3091 64.0422 27.25C64.2252 27.1883 64.3848 27.0893 64.5198 26.9518C64.6547 26.8181 64.7663 26.6459 64.8572 26.4325C64.9467 26.2204 65.0038 25.9582 65.0285 25.6458V20.4993H67.0426Z" fill="white"/>
<path d="M69.8033 20.5147V20.6638C69.4736 20.6638 69.2699 20.7345 69.1907 20.8746C69.1141 21.016 69.0765 21.1972 69.0765 21.4196V27.759H67.8047V20.4993L69.8033 20.5147Z" fill="white"/>
<path d="M74.2699 20.6331C74.449 20.6331 74.6021 20.6948 74.7267 20.8181C74.8513 20.939 74.9136 21.0829 74.9136 21.25C74.9136 21.4326 74.8513 21.5842 74.7267 21.7076C74.6021 21.8284 74.449 21.8876 74.2699 21.8876C74.0999 21.8876 73.9533 21.8284 73.8287 21.7076C73.7041 21.5842 73.6418 21.4326 73.6418 21.25C73.6418 21.0829 73.7041 20.939 73.8287 20.8181C73.9533 20.6948 74.0999 20.6331 74.2699 20.6331ZM75.6404 22.9981H75.4742C75.2251 22.9981 75.0654 23.065 74.9967 23.1986C74.9305 23.3323 74.898 23.511 74.898 23.7333V27.7591C74.898 28.2038 74.8059 28.5676 74.6229 28.8491C74.4425 29.1293 74.2349 29.3542 74 29.5226C73.7508 29.6871 73.5042 29.808 73.2628 29.8876C73.0202 29.9661 72.832 30.0226 72.697 30.0573C72.5828 30.0779 72.5205 30.0727 72.5101 30.0419C72.4868 30.0175 72.5037 29.9879 72.5621 29.9545C72.8086 29.8105 73.0007 29.646 73.1435 29.4609C73.2849 29.2758 73.3952 29.083 73.4757 28.8851C73.5406 28.6923 73.5847 28.5007 73.6055 28.3092C73.6288 28.1203 73.6418 27.9416 73.6418 27.7745V22.813H75.6404V22.9981Z" fill="white"/>
<path d="M78.4868 20.4993V20.6638C78.1572 20.6638 77.9496 20.7345 77.8639 20.8746C77.7809 21.016 77.7393 21.1972 77.7393 21.4196V27.3374H79.2292V27.759H76.4883V20.4993H78.4868Z" fill="white"/>
<path d="M80.0601 23.8154L81.4669 22.4067C82.2559 23.192 82.9126 23.845 83.4395 24.3656C83.9651 24.8836 84.3959 25.3052 84.7321 25.6304C84.8904 25.7987 85.0344 25.9478 85.1629 26.0777C85.294 26.2049 85.4043 26.3129 85.4951 26.4016L85.9208 26.818C86.0207 26.9209 86.0947 27.007 86.144 27.0751C86.1959 27.1407 86.2608 27.2281 86.3413 27.3373H87.8156V27.7589H86.5645C86.6748 28.0391 86.7358 28.309 86.7462 28.5661C86.7592 28.8232 86.7384 29.0571 86.6839 29.2705C86.6346 29.4826 86.5658 29.6715 86.4763 29.8361C86.3854 30.0032 86.3127 30.1394 86.2582 30.2422C86.2024 30.3309 86.157 30.3708 86.1233 30.3605C86.0882 30.3605 86.083 30.3309 86.1077 30.2731C86.1726 30.0057 86.1921 29.7538 86.1648 29.5173C86.1362 29.2834 86.0778 29.0726 85.9883 28.8849C85.8975 28.6921 85.791 28.5211 85.6665 28.3707C85.5419 28.2191 85.4225 28.0828 85.3083 27.9594L85.1058 27.7589H78.5547V27.3373H84.7009L81.2281 23.9337C81.0685 23.7794 80.9166 23.6766 80.7713 23.6252C80.6259 23.5738 80.4676 23.6381 80.2989 23.8154L80.1795 23.9337L80.0601 23.8154ZM82.1106 28.7306C82.2897 28.7306 82.4428 28.7923 82.5674 28.9157C82.692 29.0391 82.7543 29.1844 82.7543 29.3528C82.7543 29.5301 82.692 29.6818 82.5674 29.8052C82.4428 29.9286 82.2897 29.9903 82.1106 29.9903C81.9406 29.9903 81.7939 29.9286 81.6693 29.8052C81.5447 29.6818 81.4825 29.5301 81.4825 29.3528C81.4825 29.1844 81.5447 29.0391 81.6693 28.9157C81.7939 28.7923 81.9406 28.7306 82.1106 28.7306Z" fill="white"/>
<path d="M89.5577 20.6331C89.7368 20.6331 89.8899 20.6948 90.0145 20.8181C90.1391 20.939 90.2014 21.0894 90.2014 21.2706C90.2014 21.439 90.1391 21.5842 90.0145 21.7076C89.8899 21.8284 89.7368 21.8876 89.5577 21.8876C89.3877 21.8876 89.2411 21.8284 89.1165 21.7076C88.9945 21.5842 88.9348 21.439 88.9348 21.2706C88.9348 21.0894 88.9945 20.939 89.1165 20.8181C89.2411 20.6948 89.3877 20.6331 89.5577 20.6331ZM90.9489 23.029H90.7776C90.5181 23.029 90.3571 23.0997 90.2948 23.2398C90.2326 23.3812 90.2014 23.5624 90.2014 23.7848V25.3426C90.2014 25.7128 90.1352 26.047 90.0041 26.3452C89.8757 26.6408 89.7096 26.8889 89.5058 27.0907C89.0762 27.5367 88.6026 27.7591 88.0834 27.7591H87.1387V27.3375H87.4086C87.5877 27.3375 87.7642 27.3105 87.9381 27.2552C88.1146 27.2012 88.2768 27.1061 88.4261 26.9725C88.561 26.8388 88.6726 26.6665 88.7635 26.4532C88.853 26.2411 88.9101 25.9776 88.9348 25.6614V22.8593H90.9489V23.029Z" fill="white"/>
<path d="M93.6923 20.5147V20.6638C93.3627 20.6638 93.155 20.7345 93.0694 20.8746C92.9863 21.016 92.9448 21.1972 92.9448 21.4196V27.759H91.6938V20.4993L93.6923 20.5147ZM92.4724 28.7307C92.8319 28.7307 93.0746 28.7744 93.1992 28.8644C93.2641 28.9222 93.303 28.9839 93.3134 29.0495C93.3263 29.1176 93.3341 29.2191 93.3341 29.3528H93.2303C93.2095 29.1947 93.1382 29.0855 93.0175 29.0238C92.8994 28.9621 92.7501 28.9312 92.571 28.9312C92.3115 28.9312 92.122 28.9981 92.0052 29.1317C91.8871 29.268 91.8287 29.4428 91.8287 29.6562C91.8287 29.8785 91.8871 30.0623 92.0052 30.2063C92.122 30.3528 92.3115 30.4274 92.571 30.4274H93.386V30.6588H91.0293V30.4428H91.7768C91.4264 30.2744 91.2525 30.0122 91.2525 29.6562C91.2525 29.3991 91.3589 29.1793 91.5744 28.9981C91.7885 28.8194 92.0883 28.7307 92.4724 28.7307Z" fill="white"/>
<path d="M99.3806 20.6331C99.5596 20.6331 99.7089 20.6948 99.827 20.8181C99.9438 20.939 100.003 21.0894 100.003 21.2706C100.003 21.439 99.9438 21.5842 99.827 21.7076C99.7089 21.8284 99.5596 21.8876 99.3806 21.8876C99.1963 21.8876 99.0457 21.8284 98.9289 21.7076C98.8108 21.5842 98.7524 21.439 98.7524 21.2706C98.7524 21.0894 98.8108 20.939 98.9289 20.8181C99.0457 20.6948 99.1963 20.6331 99.3806 20.6331ZM100.953 20.6331C101.133 20.6331 101.286 20.6948 101.41 20.8181C101.535 20.939 101.597 21.0894 101.597 21.2706C101.597 21.439 101.535 21.5842 101.41 21.7076C101.286 21.8284 101.133 21.8876 100.953 21.8876C100.783 21.8876 100.637 21.8284 100.512 21.7076C100.388 21.5842 100.325 21.439 100.325 21.2706C100.325 21.0894 100.388 20.939 100.512 20.8181C100.637 20.6948 100.783 20.6331 100.953 20.6331ZM103.559 22.9981H103.393C103.144 22.9981 102.984 23.0688 102.916 23.2089C102.849 23.3465 102.817 23.5264 102.817 23.7488V27.3375H104.322V27.7591H100.159C99.4454 27.736 98.8069 27.5007 98.2437 27.0547C97.9738 26.8323 97.7532 26.574 97.5844 26.2784C97.4144 25.9802 97.3301 25.646 97.3301 25.2758C97.3301 24.529 97.6519 23.9339 98.2956 23.4917C98.9393 23.0495 99.8075 22.8285 100.902 22.8285H103.559V22.9981ZM101.545 27.3375V23.43C101.216 23.331 100.873 23.2938 100.517 23.3169C100.164 23.3375 99.84 23.4274 99.5467 23.5842C99.2521 23.7385 99.012 23.9596 98.8251 24.2475C98.6408 24.5328 98.55 24.8799 98.55 25.2912C98.55 25.8645 98.7018 26.3452 99.0068 26.7359C99.1418 26.9146 99.3079 27.0599 99.5051 27.173C99.7024 27.2835 99.9204 27.3375 100.159 27.3375H101.545Z" fill="white"/>
<path d="M107.81 22.6946C108.633 22.6946 109.17 22.8115 109.419 23.0442C109.567 23.1676 109.653 23.3257 109.673 23.5172C109.697 23.7062 109.71 23.9954 109.71 24.3861H109.486C109.451 23.9517 109.301 23.6496 109.035 23.4812C108.771 23.3141 108.443 23.2293 108.049 23.2293C107.484 23.2293 107.073 23.4092 106.813 23.7691C106.553 24.1265 106.424 24.6059 106.424 25.2087C106.424 25.4902 106.447 25.7537 106.496 26.0005C106.548 26.2447 106.631 26.462 106.746 26.6535C106.97 27.0442 107.314 27.273 107.779 27.3373H110.468V27.7589H103.646V27.3373H106.304C105.536 26.8681 105.152 26.1586 105.152 25.2087C105.152 24.863 105.21 24.5378 105.328 24.2319C105.449 23.9234 105.627 23.656 105.863 23.4298C106.088 23.2074 106.364 23.0288 106.694 22.8951C107.022 22.7614 107.394 22.6946 107.81 22.6946Z" fill="white"/>
<path d="M117.377 22.9617H117.206C116.957 22.9617 116.797 23.0285 116.728 23.1622C116.662 23.2959 116.63 23.4758 116.63 23.7021V27.3371H118.119V27.7587H116.598V27.9952C116.598 28.4399 116.51 28.8024 116.334 29.08C116.157 29.3602 115.951 29.58 115.716 29.7381C115.467 29.9052 115.22 30.026 114.979 30.098C114.736 30.17 114.548 30.2227 114.413 30.2574C114.309 30.2805 114.252 30.2754 114.242 30.242C114.207 30.2176 114.218 30.188 114.278 30.1546C114.523 30.0209 114.717 29.8615 114.859 29.6764C115.001 29.4939 115.111 29.2972 115.192 29.0852C115.271 28.8821 115.321 28.6661 115.342 28.4373C115.366 28.2073 115.378 27.981 115.378 27.7587H114.496C114 27.7587 113.546 27.6957 113.131 27.5684C112.718 27.4386 112.368 27.2677 112.077 27.0543C111.782 26.8319 111.553 26.5736 111.387 26.2779C111.223 25.9797 111.143 25.6455 111.143 25.2754C111.143 24.5144 111.464 23.9077 112.108 23.4553C112.752 23.0028 113.621 22.7766 114.719 22.7766H117.377V22.9617ZM114.532 23.265C113.899 23.265 113.377 23.4334 112.97 23.7689C112.565 24.1057 112.362 24.607 112.362 25.2754C112.362 25.9129 112.542 26.4116 112.902 26.7715C113.266 27.1288 113.717 27.3345 114.257 27.3885H115.358V23.3833C115.111 23.3049 114.836 23.265 114.532 23.265Z" fill="white"/>
<path d="M122.287 22.8283C122.725 22.8283 123.13 22.9029 123.501 23.0494C123.875 23.1934 124.181 23.3823 124.42 23.6149C124.68 23.872 124.869 24.1638 124.991 24.489C125.116 24.8155 125.19 25.1561 125.214 25.5121V25.7281C125.225 26.0546 125.262 26.3219 125.329 26.5301C125.397 26.7358 125.49 26.899 125.604 27.0186C125.718 27.142 125.848 27.2268 125.993 27.2705C126.138 27.3155 126.302 27.3373 126.486 27.3373H127.13V27.7589H126.029C125.859 27.7358 125.7 27.7011 125.552 27.6561C125.406 27.6124 125.282 27.5404 125.178 27.4402C125.122 27.3862 125.072 27.3309 125.028 27.2757C124.982 27.2178 124.937 27.1561 124.893 27.0906C124.747 27.3579 124.558 27.5996 124.327 27.8155C124.094 28.034 123.792 28.2063 123.418 28.3296C123.034 28.4633 122.599 28.5302 122.115 28.5302C121.675 28.5302 121.274 28.4556 120.911 28.3091C120.55 28.1651 120.253 27.9762 120.018 27.7435C119.914 27.6407 119.822 27.5366 119.743 27.4299C119.666 27.3245 119.599 27.2165 119.541 27.106C119.395 27.3836 119.18 27.5674 118.897 27.6561C118.741 27.7152 118.583 27.7487 118.424 27.7589H117.443V27.3373H117.968C118.136 27.3373 118.291 27.3194 118.43 27.2808C118.571 27.2435 118.7 27.1677 118.814 27.0546C119.038 26.8322 119.173 26.4415 119.219 25.8823V25.6818C119.219 24.8078 119.5 24.1137 120.065 23.5995C120.584 23.0854 121.324 22.8283 122.287 22.8283ZM122.235 23.2808C121.691 23.2808 121.267 23.4813 120.963 23.8823C120.818 24.0957 120.705 24.3245 120.625 24.5713C120.545 24.818 120.506 25.1317 120.506 25.5121C120.506 25.9376 120.554 26.2872 120.651 26.561C120.747 26.8361 120.875 27.0944 121.03 27.3373C121.359 27.8065 121.778 28.0417 122.287 28.0417C122.816 28.0417 123.233 27.8361 123.538 27.4248C123.696 27.223 123.804 27.0019 123.86 26.7615C123.914 26.5224 123.943 26.2165 123.943 25.8463C123.943 25.4222 123.906 25.0674 123.834 24.7821C123.761 24.498 123.644 24.2371 123.486 24.0006C123.17 23.5211 122.754 23.2808 122.235 23.2808Z" fill="white"/>
<path d="M127.955 23.8152L129.361 22.4065C130.15 23.1918 130.807 23.8448 131.334 24.3654C131.86 24.8834 132.29 25.305 132.627 25.6302C132.785 25.7986 132.929 25.9477 133.057 26.0775C133.189 26.2047 133.299 26.3127 133.39 26.4014L133.815 26.8178C133.915 26.9207 133.989 27.0068 134.039 27.0749C134.09 27.1405 134.155 27.2279 134.236 27.3371H135.71V27.7587H134.459C134.569 28.0389 134.63 28.3089 134.641 28.5659C134.654 28.823 134.633 29.0569 134.578 29.2703C134.529 29.4824 134.46 29.6713 134.371 29.8359C134.28 30.003 134.207 30.1392 134.153 30.242C134.097 30.3307 134.052 30.3706 134.018 30.3603C133.983 30.3603 133.978 30.3307 134.002 30.2729C134.067 30.0055 134.087 29.7536 134.059 29.5171C134.031 29.2832 133.972 29.0724 133.883 28.8847C133.792 28.6919 133.686 28.5209 133.561 28.3706C133.436 28.2189 133.317 28.0826 133.203 27.9592L133 27.7587H126.449V27.3371H132.595L129.123 23.9335C128.963 23.7793 128.811 23.6764 128.666 23.625C128.52 23.5736 128.362 23.6379 128.193 23.8152L128.074 23.9335L127.955 23.8152ZM130.005 28.7305C130.184 28.7305 130.337 28.7922 130.462 28.9156C130.587 29.0389 130.649 29.1842 130.649 29.3526C130.649 29.53 130.587 29.6816 130.462 29.805C130.337 29.9284 130.184 29.9901 130.005 29.9901C129.835 29.9901 129.688 29.9284 129.564 29.805C129.439 29.6816 129.377 29.53 129.377 29.3526C129.377 29.1842 129.439 29.0389 129.564 28.9156C129.688 28.7922 129.835 28.7305 130.005 28.7305Z" fill="white"/>
<path d="M139.876 22.8284C140.315 22.8284 140.72 22.9029 141.091 23.0495C141.465 23.1934 141.771 23.3824 142.01 23.615C142.539 24.1433 142.804 24.8374 142.804 25.6973C142.804 26.579 142.527 27.2654 141.974 27.759C141.444 28.2732 140.688 28.5302 139.705 28.5302C139.265 28.5302 138.864 28.4557 138.501 28.3091C138.14 28.1652 137.843 27.9762 137.608 27.7436C137.504 27.6408 137.412 27.5366 137.333 27.43C137.256 27.3246 137.189 27.2166 137.13 27.106C136.985 27.3837 136.77 27.5675 136.487 27.6562C136.331 27.7153 136.173 27.7487 136.014 27.759H135.033V27.3374H135.558C135.726 27.3374 135.881 27.3194 136.02 27.2809C136.161 27.2436 136.289 27.1677 136.404 27.0546C136.628 26.8323 136.763 26.4415 136.809 25.8824V25.6819C136.809 24.8078 137.09 24.1137 137.655 23.5996C138.174 23.0854 138.914 22.8284 139.876 22.8284ZM139.825 23.2808C139.281 23.2808 138.856 23.4813 138.553 23.8824C138.407 24.0957 138.294 24.3245 138.215 24.5713C138.135 24.8181 138.096 25.1317 138.096 25.5122C138.096 25.9377 138.144 26.2873 138.241 26.5611C138.337 26.8361 138.465 27.0945 138.62 27.3374C138.949 27.8066 139.368 28.0418 139.876 28.0418C140.406 28.0418 140.823 27.8361 141.128 27.4248C141.286 27.223 141.394 27.0019 141.449 26.7616C141.504 26.5225 141.532 26.2166 141.532 25.8464C141.532 25.4222 141.496 25.0675 141.423 24.7821C141.351 24.4981 141.234 24.2371 141.076 24.0006C140.76 23.5212 140.344 23.2808 139.825 23.2808Z" fill="white"/>
<g clip-path="url(#clip0_612_322)">
<path d="M180.798 21.7515L180.43 22.5106H186.651L183.495 16.7472L183.166 17.5221C183.166 17.5221 178.094 15.1589 173.551 14.8967L172.904 15.4512L173.551 19.5353C173.551 19.5353 179.019 20.5265 180.797 21.7515H180.798Z" fill="white"/>
<path d="M165.437 20.9205C165.437 20.9205 163.377 21.839 162.592 23.1525H156.439C156.439 23.1525 159.055 17.2881 165.437 15.7424C165.437 15.7424 165.201 19.2871 165.437 20.9213V20.9205Z" fill="white"/>
<path d="M183.972 30.0673C183.093 29.3776 182.186 28.8565 181.367 28.4682C179.787 27.7184 178.548 27.4712 178.548 27.4712V26.3606L172.903 28.1701L177.211 32.3854L177.609 31.1746C184.888 32.843 185.16 39.5825 182.05 43.6725L181.674 44.1334C181.281 44.5852 180.845 44.996 180.372 45.3534C176.645 48.1733 171.812 47.5521 169.963 47.1721C169.477 47.0719 169.198 46.9867 169.198 46.9867L166.258 47.9779L163.894 48.7937L163.553 48.9132C171.904 54.3392 186.311 51.0709 187.841 40.5703C188.615 35.2453 186.422 31.9954 183.972 30.0673Z" fill="white"/>
<path d="M182.051 43.6725C181.93 43.8295 181.804 43.9864 181.675 44.1334C179.784 43.3618 177.354 43.6349 174.082 45.259C172.884 45.8519 171.477 46.5508 169.963 47.1721C168.041 47.962 165.946 48.6275 163.895 48.7937C161.85 48.9666 159.852 48.6401 158.114 47.4485C158.114 47.4485 155.291 45.391 156.438 42.6345C156.438 42.6345 150.838 41.716 154.498 36.0261C154.498 36.0261 151.684 35.2637 152.029 32.0872C152.295 29.6347 154.233 29.0235 154.233 29.0235C154.233 29.0235 150.727 25.0947 155.089 23.068C158.173 21.6351 165.438 22.7666 165.438 22.7666C165.438 22.7666 162.764 10.3062 170.034 8.65371C170.533 8.53764 171.049 8.50006 171.561 8.50006H173.729C173.729 8.50006 173.056 19.7596 175.449 23.1524C177.526 26.0942 183.092 25.1281 183.974 30.0681C183.095 29.3784 182.188 28.8573 181.369 28.469C181.369 27.6524 180.361 26.7973 179.264 26.2896C177.279 25.3711 173.626 24.6496 172.905 19.0482C172.187 13.4468 172.449 10.0749 172.449 10.0749C172.449 10.0749 169.266 9.00275 167.373 10.9751C163.814 14.6818 166.235 23.5983 166.235 23.5983C166.235 23.5983 158.107 22.5111 155.927 24.668C155.092 25.4946 154.477 26.9167 155.823 29.3316C155.823 29.3316 153.882 30.7746 154.277 33.1828C154.675 35.5885 156.218 36.0712 156.218 36.0712C156.218 36.0712 154.454 37.9091 154.985 40.1386C155.513 42.3715 157.719 42.1084 157.719 42.1084C157.719 42.1084 156.288 46.6185 161.247 47.4902C168.217 48.7169 173.752 44.9083 175.44 44.1509C177.535 43.2099 179.917 42.86 182.052 43.6741L182.051 43.6725Z" fill="white"/>
</g>
<defs>
<clipPath id="clip0_612_322">
<rect width="36" height="43" fill="white" transform="translate(152 8.49927)"/>
</clipPath>
</defs>
</svg>
