<svg width="24" height="25" viewBox="0 0 24 25" fill="none" xmlns="http://www.w3.org/2000/svg">
<path d="M22 12.5C22 6.97715 17.5228 2.5 12 2.5C6.47715 2.5 2 6.97715 2 12.5C2 18.0228 6.47715 22.5 12 22.5C17.5228 22.5 22 18.0228 22 12.5Z" stroke="white" stroke-width="1.5"/>
<path d="M20 6.19899C19.0653 6.26636 17.8681 6.62824 17.0379 7.70277C15.5385 9.64361 14.039 9.80556 13.0394 9.15861C11.5399 8.1882 12.8 6.61636 11.0401 5.76215C9.89313 5.20542 9.73321 3.69045 10.3716 2.5" stroke="white" stroke-width="1.5" stroke-linejoin="round"/>
<path d="M2 11.5C2.7625 12.1621 3.83046 12.7682 5.08874 12.7682C7.68843 12.7682 8.20837 13.2649 8.20837 15.2518C8.20837 17.2387 8.20837 17.2387 8.72831 18.7288C9.06651 19.6981 9.18472 20.6674 8.5106 21.5" stroke="white" stroke-width="1.5" stroke-linejoin="round"/>
<path d="M22 13.9523C21.1129 13.4411 20 13.2308 18.8734 14.0405C16.7177 15.5898 15.2314 14.306 14.5619 15.5889C13.5765 17.4775 17.0957 18.0711 14 22.5" stroke="white" stroke-width="1.5" stroke-linejoin="round"/>
</svg>
