<svg width="110" height="22" viewBox="0 0 110 22" fill="none" xmlns="http://www.w3.org/2000/svg">
<path id="path4" d="M8.7577 0.5015C8.22381 0.5015 7.77896 0.831597 7.57134 1.31153L0.096788 19.7288C-0.229473 20.5087 0.30474 21.4086 1.16488 21.4985H10.1813C10.8635 21.4985 11.3975 20.9286 11.3975 20.2687C11.3975 19.5788 10.8635 19.0087 10.1813 19.0087H3.1517L8.69813 5.33072L9.05415 4.43119L9.41018 5.33072L15.6687 20.6886C15.8466 21.1686 16.3211 21.4987 16.855 21.4987C17.7448 21.4987 18.3675 20.5688 18.0116 19.7289L10.5667 1.31165C10.3591 0.831718 9.88458 0.501621 9.38035 0.501621L8.7577 0.5015ZM28.5286 0.5015C27.8761 0.5015 27.3125 1.07148 27.3125 1.73138V20.2686C27.3125 20.9285 27.8761 21.4985 28.5286 21.4985C29.2108 21.4985 29.7741 20.9285 29.7741 20.2686V1.73138C29.7741 1.07148 29.2108 0.5015 28.5286 0.5015ZM33.1554 0.5015C32.4732 0.5015 31.9099 1.07148 31.9099 1.73138C31.9099 2.42128 32.4732 2.99136 33.1554 2.99136H33.8972C38.0793 2.99136 41.49 6.59061 41.49 11C41.49 15.4093 38.0793 19.0086 33.8972 19.0086H33.1554C32.4732 19.0086 31.9099 19.5786 31.9099 20.2685C31.9099 20.9284 32.4732 21.4984 33.1554 21.4984H33.8972C39.4437 21.4984 43.9516 16.7891 43.9516 11C43.9516 5.21084 39.4434 0.501538 33.8972 0.501538L33.1554 0.5015ZM52.6569 0.5015C51.7671 0.5015 51.1443 1.43138 51.4705 2.27126L58.9447 20.6885C59.1523 21.1684 59.5971 21.4985 60.131 21.4985H60.7542C61.2584 21.4985 61.7329 21.1684 61.9405 20.6885L69.385 2.27126C69.7409 1.46138 69.1776 0.591487 68.3471 0.5015H59.3306C58.6485 0.5015 58.0848 1.04148 58.0848 1.73138C58.0848 2.42128 58.6485 2.99136 59.3306 2.99136H66.3599L60.8134 16.6693L60.4276 17.5689L60.072 16.6693L53.8434 1.3114C53.6358 0.801475 53.1908 0.5015 52.6569 0.5015ZM79.8741 0.5015C79.2216 0.5015 78.658 1.07148 78.658 1.73138V20.2686C78.658 20.9285 79.2216 21.4985 79.8741 21.4985C80.5563 21.4985 81.1196 20.9285 81.1196 20.2686V1.73138C81.1196 1.07148 80.5563 0.5015 79.8741 0.5015ZM91.8737 0.5015C90.8652 0.5015 90.2719 1.67131 90.8652 2.48119L97.0958 11.0008L90.8652 19.5203C90.2719 20.3302 90.8652 21.5 91.8737 21.5C92.2593 21.5 92.6152 21.3198 92.8525 20.9898L98.6065 13.1012L99.6151 11.7513C99.9413 11.3014 99.9413 10.7016 99.6151 10.2517L98.6065 8.90179L92.8525 1.01317C92.6152 0.683221 92.2593 0.503 91.8737 0.503V0.5015ZM108.75 0.5015C108.365 0.5015 108.009 0.681725 107.771 1.01167L102.017 8.90029L101.009 10.2502C100.683 10.7001 100.683 11.2999 101.009 11.7498L102.017 13.0997L107.771 20.9883C108.009 21.3183 108.365 21.4985 108.75 21.4985C109.788 21.4985 110.352 20.3287 109.759 19.5188L103.559 10.9993L109.757 2.47969C110.35 1.66981 109.786 0.5 108.748 0.5L108.75 0.5015Z" fill="#544CFC"/>
</svg>
