<svg width="20" height="20" viewBox="0 0 20 20" fill="none" xmlns="http://www.w3.org/2000/svg">
<g id="logo icon-design 1">
<path id="path2" d="M9.7522 1.66723C9.31009 1.66723 8.94161 1.92918 8.76969 2.31015L2.5802 16.9287C2.31002 17.5478 2.75192 18.2623 3.46422 18.3337H10.9312C11.4961 18.3337 11.9383 17.8812 11.9383 17.3573C11.9383 16.8097 11.4961 16.3574 10.9312 16.3574H5.10991L9.70299 5.49979L9.99794 4.78551L10.2926 5.49979L15.4753 17.6906C15.6227 18.0716 16.0154 18.3336 16.4575 18.3336C17.1944 18.3336 17.7104 17.5953 17.4157 16.9287L11.2504 2.31007C11.0785 1.92895 10.6859 1.66699 10.2675 1.66699L9.7522 1.66723Z" fill="#544CFC"/>
</g>
</svg>
