<svg width="142" height="32" viewBox="0 0 142 32" fill="none" xmlns="http://www.w3.org/2000/svg">
<g id="Advix logo">
<path id="Advix logo_2" d="M9.55385 4.00164C8.97143 4.00164 8.48613 4.36318 8.25964 4.88881L0.105587 25.0601C-0.250334 25.9143 0.332443 26.8998 1.27078 26.9984H11.1069C11.8511 26.9984 12.4336 26.3741 12.4336 25.6514C12.4336 24.8958 11.8511 24.2714 11.1069 24.2714H3.43821L9.48887 9.29078L9.87726 8.30558L10.2657 9.29078L17.0931 26.1114C17.2872 26.637 17.8049 26.9985 18.3873 26.9985C19.358 26.9985 20.0373 25.9801 19.649 25.0602L11.5273 4.88895C11.3008 4.36331 10.7832 4.00178 10.2331 4.00178L9.55385 4.00164ZM31.1221 4.00164C30.4103 4.00164 29.7954 4.6259 29.7954 5.34865V25.6513C29.7954 26.3741 30.4103 26.9984 31.1221 26.9984C31.8663 26.9984 32.4809 26.3741 32.4809 25.6513V5.34865C32.4809 4.6259 31.8663 4.00164 31.1221 4.00164ZM36.1695 4.00164C35.4253 4.00164 34.8108 4.6259 34.8108 5.34865C34.8108 6.10426 35.4253 6.72863 36.1695 6.72863H36.9788C41.541 6.72863 45.2618 10.6707 45.2618 15.5C45.2618 20.3292 41.541 24.2713 36.9788 24.2713H36.1695C35.4253 24.2713 34.8108 24.8957 34.8108 25.6513C34.8108 26.374 35.4253 26.9983 36.1695 26.9983H36.9788C43.0294 26.9983 47.9472 21.8405 47.9472 15.5C47.9472 9.15949 43.0292 4.00168 36.9788 4.00168L36.1695 4.00164ZM57.4439 4.00164C56.4732 4.00164 55.7937 5.02008 56.1497 5.93995L64.3033 26.1112C64.5298 26.6369 65.0151 26.9984 65.5975 26.9984H66.2773C66.8273 26.9984 67.345 26.6369 67.5715 26.1112L75.6927 5.93995C76.081 5.05294 75.4665 4.1002 74.5605 4.00164H64.7243C63.9801 4.00164 63.3652 4.59305 63.3652 5.34865C63.3652 6.10426 63.9801 6.72863 64.7243 6.72863H72.3926L66.3419 21.7093L65.9211 22.6945L65.5331 21.7093L58.7383 4.88867C58.5118 4.33019 58.0263 4.00164 57.4439 4.00164ZM87.1354 4.00164C86.4236 4.00164 85.8087 4.6259 85.8087 5.34865V25.6513C85.8087 26.3741 86.4236 26.9984 87.1354 26.9984C87.8796 26.9984 88.4941 26.3741 88.4941 25.6513V5.34865C88.4941 4.6259 87.8796 4.00164 87.1354 4.00164ZM100.226 4.00164C99.1257 4.00164 98.4785 5.28286 99.1256 6.16987L105.923 15.5008L99.1256 24.8318C98.4785 25.7188 99.1257 27 100.226 27C100.646 27 101.035 26.8026 101.294 26.4412L107.571 17.8013L108.671 16.3229C109.027 15.8301 109.027 15.1732 108.671 14.6804L107.571 13.202L101.294 4.56205C101.035 4.20067 100.647 4.00329 100.226 4.00329V4.00164ZM118.637 4.00164C118.216 4.00164 117.828 4.19903 117.569 4.5604L111.292 13.2003L110.192 14.6788C109.836 15.1716 109.836 15.8284 110.192 16.3212L111.292 17.7997L117.569 26.4396C117.828 26.801 118.216 26.9984 118.637 26.9984C119.769 26.9984 120.384 25.7171 119.737 24.8301L112.974 15.4992L119.735 6.16823C120.382 5.28122 119.767 4 118.634 4L118.637 4.00164Z" fill="white"/>
</g>
</svg>
