<svg width="254" height="75" viewBox="0 0 254 75" fill="none" xmlns="http://www.w3.org/2000/svg">
<path d="M1.68018 38.2877V46.9471C1.68018 47.3608 1.70424 47.6902 1.75236 47.9352C1.80049 48.1762 1.8807 48.369 1.99299 48.5136C2.10929 48.6642 2.25768 48.7626 2.43414 48.8108C2.61461 48.859 2.84321 48.8831 3.11592 48.8831H4.55969V48.5618H4.23885C3.76762 48.5618 3.46283 48.4172 3.32446 48.128C3.1841 47.8348 3.11592 47.4412 3.11592 46.9471V38.2877H1.68018Z" fill="white"/>
<path d="M7.6593 48.883V42.7378C7.87185 42.5129 8.11248 42.3201 8.38118 42.1594C8.64787 41.9948 8.94465 41.9104 9.2715 41.9104C9.76278 41.9104 10.1719 42.0671 10.4987 42.3763C10.6591 42.537 10.7875 42.7619 10.8837 43.0511C10.984 43.3363 11.0361 43.6736 11.0361 44.0632V48.883H12.4718V44.0632C12.4718 43.4909 12.3936 43.0149 12.2392 42.6334C12.0889 42.2478 11.8823 41.9506 11.6216 41.7417C11.3589 41.5128 11.0682 41.3622 10.7474 41.2919C10.4305 41.2176 10.0936 41.1794 9.73672 41.1794C9.26549 41.1794 8.85441 41.2658 8.50149 41.4365C8.15258 41.6032 7.87185 41.7859 7.6593 41.9827H7.58711C7.5069 41.7859 7.36453 41.6293 7.162 41.5168C6.95747 41.4043 6.64465 41.3481 6.22355 41.3481H4.77979V41.6614H5.10062C5.58589 41.6614 5.89469 41.81 6.02303 42.1032C6.15537 42.3984 6.22355 42.782 6.22355 43.2519V48.883H7.6593Z" fill="white"/>
<path d="M14.4551 43.5973C14.4551 44.1014 14.5754 44.5352 14.816 44.8987C15.0607 45.2581 15.3394 45.5172 15.6502 45.6779C15.5379 45.7582 15.4136 45.8666 15.2813 45.9992C15.1529 46.1277 15.0887 46.3165 15.0887 46.5615C15.0887 46.8025 15.1529 47.0013 15.2813 47.1559C15.4136 47.3125 15.562 47.429 15.7224 47.5094C15.2512 47.676 14.8401 47.9391 14.4872 48.2966C14.1383 48.6561 13.9658 49.0938 13.9658 49.614C13.9658 50.0739 14.0581 50.4574 14.2466 50.7627C14.433 51.0719 14.6817 51.327 14.9925 51.5258C15.3173 51.7387 15.6863 51.8873 16.0994 51.9676C16.5165 52.0479 16.9757 52.0881 17.479 52.0881C18.0023 52.0881 18.4756 52.0479 18.8987 51.9676C19.3198 51.8873 19.6867 51.7387 19.9976 51.5258C20.3224 51.327 20.5751 51.0719 20.7515 50.7627C20.932 50.4574 21.0242 50.0739 21.0242 49.614C21.0242 49.1581 20.93 48.7765 20.7435 48.4653C20.555 48.156 20.2983 47.8949 19.9735 47.6861C19.3198 47.3125 18.4896 47.1238 17.479 47.1238C16.3561 47.1238 15.7946 46.937 15.7946 46.5615C15.7946 46.1879 16.3561 45.9992 17.479 45.9992C17.9061 45.9992 18.3092 45.959 18.6901 45.8787C19.0751 45.7943 19.398 45.6618 19.6607 45.4851C19.9334 45.3043 20.1459 45.0573 20.3023 44.746C20.4568 44.4368 20.535 44.0532 20.535 43.5973C20.535 43.1756 20.4267 42.8141 20.2141 42.5129C20.0056 42.2076 19.7369 41.9747 19.412 41.814V41.7417L20.4628 41.5891V41.1794H17.479C17.0719 41.1794 16.6809 41.2196 16.3079 41.2999C15.933 41.3802 15.6061 41.5088 15.3294 41.6855C15.0727 41.8682 14.8602 42.1153 14.6957 42.4245C14.5353 42.7358 14.4551 43.1274 14.4551 43.5973ZM19.0912 43.5973C19.0912 43.9407 19.0511 44.2279 18.9709 44.4568C18.8907 44.6818 18.7784 44.8705 18.634 45.0192C18.3553 45.2983 17.9703 45.4369 17.479 45.4369C17.0078 45.4369 16.6328 45.2983 16.3561 45.0192C16.2277 44.8705 16.1174 44.6818 16.0272 44.4568C15.935 44.2279 15.8908 43.9407 15.8908 43.5973C15.8908 43.2399 15.935 42.9426 16.0272 42.7057C16.1174 42.4707 16.2277 42.2779 16.3561 42.1273C16.6328 41.8703 17.0078 41.7417 17.479 41.7417C17.9382 41.7417 18.3212 41.8903 18.626 42.1835C18.9348 42.4727 19.0912 42.9447 19.0912 43.5973ZM16.7731 47.6861L17.6554 47.7584C18.9388 47.9351 19.5805 48.5536 19.5805 49.614C19.5805 50.2506 19.384 50.7165 18.9949 51.0117C18.6039 51.3049 18.0986 51.4535 17.479 51.4535C16.8794 51.4535 16.3821 51.3049 15.9871 51.0117C15.5961 50.7165 15.4016 50.2506 15.4016 49.614C15.4016 49.0938 15.5259 48.6862 15.7785 48.3849C16.0352 48.0797 16.3661 47.8467 16.7731 47.6861Z" fill="white"/>
<path d="M28.0875 48.883V44.5532C28.0875 43.8363 28.0093 43.2519 27.8549 42.8021C27.6985 42.3522 27.4899 42.0068 27.2292 41.7658C26.9665 41.5369 26.6638 41.3802 26.3229 41.2999C25.98 41.2196 25.6291 41.1794 25.2721 41.1794C25.0094 41.1794 24.7628 41.1935 24.5342 41.2196C24.3096 41.2417 24.085 41.2678 23.8604 41.2999C23.3672 41.4124 23.0343 41.561 22.8578 41.7417C22.6593 41.9345 22.545 42.1554 22.5129 42.4004C22.4808 42.6414 22.4648 42.9025 22.4648 43.1796H23.1947C23.311 42.6615 23.5196 42.304 23.8203 42.1112C24.1191 41.9144 24.4981 41.814 24.9593 41.814C25.4606 41.814 25.8597 41.9867 26.1544 42.3281C26.2988 42.537 26.4151 42.8222 26.5073 43.1796C26.5976 43.5391 26.6437 43.997 26.6437 44.5532H26.1544C25.597 44.5532 25.0756 44.5854 24.5903 44.6496C24.1031 44.7139 23.6699 44.8384 23.291 45.0192C22.916 45.1798 22.6192 45.4087 22.4006 45.7019C22.1801 45.9972 22.0718 46.3647 22.0718 46.8025C22.0718 47.2423 22.152 47.6057 22.3124 47.8949C22.4768 48.1801 22.6754 48.409 22.906 48.5858C23.1305 48.7524 23.3752 48.8709 23.6439 48.9392C23.9166 49.0135 24.1672 49.0517 24.3978 49.0517C25.0114 49.0517 25.4987 48.9553 25.8577 48.7625C26.2146 48.5657 26.4773 48.3608 26.6437 48.152H26.7159L27.2774 48.883H28.0875ZM26.6437 45.1878V47.3648C26.4773 47.6118 26.2767 47.8347 26.0421 48.0315C25.8055 48.2243 25.4927 48.3207 25.1037 48.3207C24.6806 48.3207 24.3297 48.1982 24.0529 47.9512C23.9246 47.8226 23.8143 47.666 23.7241 47.4772C23.6318 47.2905 23.5877 47.0655 23.5877 46.8025C23.5877 46.3165 23.8143 45.9249 24.2695 45.6297C24.7287 45.3365 25.3563 45.1878 26.1544 45.1878H26.6437Z" fill="white"/>
<path d="M36.1186 41.3485H31.2339C30.7085 41.3485 30.3436 41.4811 30.135 41.7422C30.0227 41.8546 29.9465 41.9892 29.9104 42.1438C29.8783 42.3004 29.8623 42.4571 29.8623 42.6177V43.4291H30.1831C30.1831 42.9692 30.3456 42.6137 30.6724 42.3607C30.9973 42.1097 31.5026 41.9831 32.1884 41.9831H34.0171L29.8623 48.5862V48.8834H36.1186V48.2488H31.7953L36.1186 41.3485Z" fill="white"/>
<path d="M42.937 38.2877V46.9471C42.937 47.3608 42.9611 47.6902 43.0092 47.9352C43.0573 48.1762 43.1375 48.369 43.2498 48.5136C43.3661 48.6642 43.5145 48.7626 43.691 48.8108C43.8714 48.859 44.1 48.8831 44.3728 48.8831H45.8165V48.5618H45.4957C45.0245 48.5618 44.7197 48.4172 44.5813 48.128C44.4409 47.8348 44.3728 47.4412 44.3728 46.9471V38.2877H42.937Z" fill="white"/>
<path d="M48.9166 48.883V42.7378C49.1292 42.5129 49.3698 42.3201 49.6385 42.1594C49.9052 41.9948 50.202 41.9104 50.5288 41.9104C51.0201 41.9104 51.4292 42.0671 51.756 42.3763C51.9164 42.537 52.0448 42.7619 52.141 43.0511C52.2413 43.3363 52.2934 43.6736 52.2934 44.0632V48.883H53.7292V44.0632C53.7292 43.4909 53.651 43.0149 53.4966 42.6334C53.3462 42.2478 53.1396 41.9506 52.879 41.7417C52.6163 41.5128 52.3255 41.3622 52.0047 41.2919C51.6878 41.2176 51.351 41.1794 50.994 41.1794C50.5228 41.1794 50.1117 41.2658 49.7588 41.4365C49.4099 41.6032 49.1292 41.7859 48.9166 41.9827H48.8444C48.7642 41.7859 48.6219 41.6293 48.4193 41.5168C48.2148 41.4043 47.902 41.3481 47.4809 41.3481H46.0371V41.6614H46.3579C46.8432 41.6614 47.152 41.81 47.2804 42.1032C47.4127 42.3984 47.4809 42.782 47.4809 43.2519V48.883H48.9166Z" fill="white"/>
<path d="M56.2733 41.983V46.9473C56.2733 47.6823 56.4518 48.2165 56.8107 48.5539C57.1677 48.8852 57.6228 49.0519 58.1743 49.0519C58.451 49.0519 58.6996 49.0278 58.9202 48.9796C59.1388 48.9314 59.3313 48.8752 59.4977 48.8109C59.6581 48.7467 59.7905 48.6784 59.8988 48.6021C60.0051 48.5278 60.0993 48.4575 60.1795 48.3932L60.0351 48.0719C59.8687 48.1583 59.6942 48.2326 59.5138 48.2968C59.3373 48.3611 59.1127 48.3932 58.84 48.3932C58.086 48.3932 57.7091 47.9113 57.7091 46.9473V41.983H59.618V41.3484H57.7091V38.9224H57.0513L56.2733 39.9024V41.3484H55.1504V41.983H56.2733Z" fill="white"/>
<path d="M67.3342 45.3565L67.3582 44.6978C67.3582 43.5732 67.0955 42.7057 66.5722 42.0952C66.0528 41.4847 65.2487 41.1794 64.1579 41.1794C63.6546 41.1794 63.2034 41.2818 62.8023 41.4847C62.4053 41.6895 62.0684 41.9707 61.7917 42.3281C61.513 42.6876 61.3044 43.1033 61.1661 43.5732C61.0257 44.0452 60.9575 44.5593 60.9575 45.1155C60.9575 45.6517 61.0257 46.1578 61.1661 46.6338C61.3044 47.1057 61.513 47.5214 61.7917 47.8789C62.0684 48.2383 62.4193 48.5255 62.8424 48.7384C63.2635 48.9472 63.7528 49.0517 64.3103 49.0517C64.9239 49.0517 65.4673 48.9231 65.9385 48.6661C66.4138 48.405 66.8308 47.9712 67.1898 47.3648L66.877 47.1238C66.5982 47.5314 66.2834 47.8447 65.9305 48.0636C65.5816 48.2845 65.1464 48.393 64.6231 48.393C64.2802 48.393 63.9774 48.3167 63.7167 48.16C63.46 48.0054 63.2315 47.7965 63.0349 47.5335C62.66 46.9832 62.4735 46.2562 62.4735 45.3565H67.3342ZM65.8503 44.6978H62.4735C62.4735 43.8524 62.6359 43.1676 62.9627 42.6414C63.1111 42.3844 63.2836 42.1835 63.4761 42.0389C63.6726 41.8903 63.9012 41.814 64.1579 41.814C64.7294 41.814 65.1545 42.063 65.4332 42.5611C65.7099 43.0591 65.8503 43.772 65.8503 44.6978Z" fill="white"/>
<path d="M70.7796 48.883V42.9386C71.1205 42.3984 71.6258 42.1273 72.2955 42.1273C72.8991 42.1273 73.3222 42.292 73.5628 42.6173L74.2286 42.1273C74.1263 41.9666 74.0361 41.8301 73.9559 41.7176C73.8756 41.6011 73.7794 41.5007 73.6671 41.4204C73.5488 41.3401 73.3964 41.2818 73.2099 41.2437C73.0214 41.2015 72.849 41.1794 72.6885 41.1794C72.2113 41.1794 71.8163 41.2798 71.5015 41.4766C71.1846 41.6694 70.944 41.8622 70.7796 42.055H70.6833C70.6031 41.81 70.4607 41.6293 70.2582 41.5168C70.0537 41.4043 69.7389 41.3481 69.3117 41.3481H68.0444V41.6614H68.2129C68.6881 41.6614 68.9909 41.81 69.1192 42.1032C69.2476 42.3984 69.3117 42.782 69.3117 43.2519V48.883H70.7796Z" fill="white"/>
<path d="M77.2277 48.883V42.7378C77.4402 42.5129 77.6808 42.3201 77.9495 42.1594C78.2162 41.9948 78.513 41.9104 78.8399 41.9104C79.3311 41.9104 79.7402 42.0671 80.0671 42.3763C80.2275 42.537 80.3558 42.7619 80.4521 43.0511C80.5523 43.3363 80.6045 43.6736 80.6045 44.0632V48.883H82.0402V44.0632C82.0402 43.4909 81.962 43.0149 81.8076 42.6334C81.6572 42.2478 81.4507 41.9506 81.19 41.7417C80.9273 41.5128 80.6365 41.3622 80.3157 41.2919C79.9989 41.2176 79.662 41.1794 79.3051 41.1794C78.8338 41.1794 78.4228 41.2658 78.0699 41.4365C77.7209 41.6032 77.4402 41.7859 77.2277 41.9827H77.1555C77.0753 41.7859 76.9329 41.6293 76.7304 41.5168C76.5258 41.4043 76.213 41.3481 75.7919 41.3481H74.3481V41.6614H74.669C75.1542 41.6614 75.4631 41.81 75.5914 42.1032C75.7237 42.3984 75.7919 42.782 75.7919 43.2519V48.883H77.2277Z" fill="white"/>
<path d="M89.7647 48.883V44.5532C89.7647 43.8363 89.6865 43.2519 89.5321 42.8021C89.3757 42.3522 89.1672 42.0068 88.9065 41.7658C88.6438 41.5369 88.341 41.3802 88.0001 41.2999C87.6572 41.2196 87.3063 41.1794 86.9494 41.1794C86.6867 41.1794 86.44 41.1935 86.2114 41.2196C85.9869 41.2417 85.7623 41.2678 85.5377 41.2999C85.0444 41.4124 84.7115 41.561 84.5351 41.7417C84.3366 41.9345 84.2223 42.1554 84.1902 42.4004C84.1581 42.6414 84.142 42.9025 84.142 43.1796H84.872C84.9883 42.6615 85.1968 42.304 85.4976 42.1112C85.7964 41.9144 86.1754 41.814 86.6366 41.814C87.1379 41.814 87.5369 41.9867 87.8317 42.3281C87.976 42.537 88.0924 42.8222 88.1846 43.1796C88.2748 43.5391 88.3209 43.997 88.3209 44.5532H87.8317C87.2742 44.5532 86.7529 44.5854 86.2676 44.6496C85.7803 44.7139 85.3472 44.8384 84.9682 45.0192C84.5932 45.1798 84.2965 45.4087 84.0779 45.7019C83.8573 45.9972 83.749 46.3647 83.749 46.8025C83.749 47.2423 83.8292 47.6057 83.9897 47.8949C84.1541 48.1801 84.3526 48.409 84.5832 48.5858C84.8078 48.7524 85.0524 48.8709 85.3211 48.9392C85.5938 49.0135 85.8445 49.0517 86.0751 49.0517C86.6887 49.0517 87.176 48.9553 87.5349 48.7625C87.8918 48.5657 88.1545 48.3608 88.3209 48.152H88.3931L88.9546 48.883H89.7647ZM88.3209 45.1878V47.3648C88.1545 47.6118 87.954 47.8347 87.7194 48.0315C87.4828 48.2243 87.1699 48.3207 86.7809 48.3207C86.3578 48.3207 86.0069 48.1982 85.7302 47.9512C85.6019 47.8226 85.4916 47.666 85.4013 47.4772C85.3091 47.2905 85.265 47.0655 85.265 46.8025C85.265 46.3165 85.4916 45.9249 85.9468 45.6297C86.406 45.3365 87.0336 45.1878 87.8317 45.1878H88.3209Z" fill="white"/>
<path d="M92.3026 41.983V46.9473C92.3026 47.6823 92.4811 48.2165 92.84 48.5539C93.1969 48.8852 93.6521 49.0519 94.2036 49.0519C94.4803 49.0519 94.7289 49.0278 94.9495 48.9796C95.1681 48.9314 95.3606 48.8752 95.527 48.8109C95.6874 48.7467 95.8198 48.6784 95.9281 48.6021C96.0344 48.5278 96.1286 48.4575 96.2088 48.3932L96.0644 48.0719C95.898 48.1583 95.7235 48.2326 95.5431 48.2968C95.3666 48.3611 95.142 48.3932 94.8693 48.3932C94.1153 48.3932 93.7384 47.9113 93.7384 46.9473V41.983H95.6473V41.3484H93.7384V38.9224H93.0806L92.3026 39.9024V41.3484H91.1797V41.983H92.3026Z" fill="white"/>
<path d="M98.9927 39.6613C98.9927 39.3841 98.9065 39.1432 98.7361 38.9383C98.5636 38.7355 98.347 38.6331 98.0864 38.6331C97.5991 38.6331 97.3565 38.87 97.3565 39.34C97.3565 39.6191 97.4447 39.8601 97.6212 40.0629C97.8016 40.2678 98.0162 40.3682 98.2628 40.3682C98.7481 40.3682 98.9927 40.1332 98.9927 39.6613ZM99.089 48.8831V43.252C99.089 42.4708 98.9927 41.9487 98.8002 41.6856C98.6819 41.541 98.5295 41.4506 98.343 41.4125C98.1545 41.3703 97.926 41.3482 97.6532 41.3482H96.2095V41.6615H96.5303C97.0156 41.6615 97.3244 41.8101 97.4527 42.1033C97.5851 42.3985 97.6532 42.7821 97.6532 43.252V48.8831H99.089Z" fill="white"/>
<path d="M100.919 45.1155C100.919 46.2402 101.228 47.1619 101.85 47.8789C102.143 48.2383 102.504 48.5255 102.933 48.7384C103.366 48.9472 103.867 49.0517 104.441 49.0517C104.996 49.0517 105.493 48.9472 105.933 48.7384C106.37 48.5255 106.745 48.2383 107.055 47.8789C107.364 47.5214 107.593 47.1057 107.737 46.6338C107.886 46.1578 107.962 45.6517 107.962 45.1155C107.962 44.5593 107.886 44.0452 107.737 43.5732C107.593 43.1033 107.364 42.6876 107.055 42.3281C106.745 41.9707 106.37 41.6895 105.933 41.4847C105.493 41.2818 104.996 41.1794 104.441 41.1794C103.867 41.1794 103.366 41.2818 102.933 41.4847C102.504 41.6895 102.143 41.9707 101.85 42.3281C101.228 43.0471 100.919 43.9749 100.919 45.1155ZM106.446 45.1155C106.446 46.0474 106.265 46.8225 105.908 47.4371C105.726 47.7323 105.509 47.9652 105.259 48.1359C105.006 48.3086 104.733 48.393 104.441 48.393C104.146 48.393 103.875 48.3086 103.631 48.1359C103.39 47.9652 103.177 47.7323 102.997 47.4371C102.622 46.8386 102.435 46.0634 102.435 45.1155C102.435 44.1516 102.622 43.3684 102.997 42.7619C103.177 42.4727 103.39 42.2438 103.631 42.0711C103.875 41.9004 104.146 41.814 104.441 41.814C104.733 41.814 105.006 41.9004 105.259 42.0711C105.509 42.2438 105.726 42.4727 105.908 42.7619C106.265 43.3845 106.446 44.1677 106.446 45.1155Z" fill="white"/>
<path d="M111.522 48.883V42.7378C111.735 42.5129 111.975 42.3201 112.244 42.1594C112.511 41.9948 112.807 41.9104 113.134 41.9104C113.626 41.9104 114.035 42.0671 114.361 42.3763C114.522 42.537 114.65 42.7619 114.747 43.0511C114.847 43.3363 114.899 43.6736 114.899 44.0632V48.883H116.335V44.0632C116.335 43.4909 116.256 43.0149 116.102 42.6334C115.952 42.2478 115.745 41.9506 115.484 41.7417C115.222 41.5128 114.931 41.3622 114.61 41.2919C114.293 41.2176 113.956 41.1794 113.6 41.1794C113.128 41.1794 112.717 41.2658 112.364 41.4365C112.015 41.6032 111.735 41.7859 111.522 41.9827H111.45C111.37 41.7859 111.227 41.6293 111.025 41.5168C110.82 41.4043 110.507 41.3481 110.086 41.3481H108.643V41.6614H108.963C109.449 41.6614 109.757 41.81 109.886 42.1032C110.018 42.3984 110.086 42.782 110.086 43.2519V48.883H111.522Z" fill="white"/>
<path d="M124.061 48.883V44.5532C124.061 43.8363 123.982 43.2519 123.828 42.8021C123.672 42.3522 123.463 42.0068 123.202 41.7658C122.94 41.5369 122.637 41.3802 122.296 41.2999C121.953 41.2196 121.602 41.1794 121.245 41.1794C120.983 41.1794 120.736 41.1935 120.507 41.2196C120.283 41.2417 120.058 41.2678 119.834 41.2999C119.34 41.4124 119.007 41.561 118.831 41.7417C118.632 41.9345 118.518 42.1554 118.486 42.4004C118.454 42.6414 118.438 42.9025 118.438 43.1796H119.168C119.284 42.6615 119.493 42.304 119.793 42.1112C120.092 41.9144 120.471 41.814 120.932 41.814C121.434 41.814 121.833 41.9867 122.128 42.3281C122.272 42.537 122.388 42.8222 122.48 43.1796C122.571 43.5391 122.617 43.997 122.617 44.5532H122.128C121.57 44.5532 121.049 44.5854 120.563 44.6496C120.076 44.7139 119.643 44.8384 119.264 45.0192C118.889 45.1798 118.592 45.4087 118.374 45.7019C118.153 45.9972 118.045 46.3647 118.045 46.8025C118.045 47.2423 118.125 47.6057 118.286 47.8949C118.45 48.1801 118.648 48.409 118.879 48.5858C119.104 48.7524 119.348 48.8709 119.617 48.9392C119.89 49.0135 120.14 49.0517 120.371 49.0517C120.985 49.0517 121.472 48.9553 121.831 48.7625C122.188 48.5657 122.45 48.3608 122.617 48.152H122.689L123.251 48.883H124.061ZM122.617 45.1878V47.3648C122.45 47.6118 122.25 47.8347 122.015 48.0315C121.779 48.2243 121.466 48.3207 121.077 48.3207C120.654 48.3207 120.303 48.1982 120.026 47.9512C119.898 47.8226 119.787 47.666 119.697 47.4772C119.605 47.2905 119.561 47.0655 119.561 46.8025C119.561 46.3165 119.787 45.9249 120.243 45.6297C120.702 45.3365 121.329 45.1878 122.128 45.1878H122.617Z" fill="white"/>
<path d="M127.793 48.8831V40.2236C127.793 39.4203 127.692 38.8901 127.496 38.6331C127.384 38.5005 127.233 38.4082 127.047 38.36C126.858 38.3118 126.626 38.2877 126.349 38.2877H124.913V38.609H125.226C125.701 38.609 126.006 38.7576 126.14 39.0508C126.279 39.34 126.349 39.7316 126.349 40.2236V48.8831H127.793Z" fill="white"/>
<path d="M140.059 38.609C141.962 38.609 143.109 39.5468 143.5 41.4205H143.821C143.821 41.2398 143.821 41.047 143.821 40.8421C143.821 40.6393 143.804 40.4405 143.772 40.2477C143.756 40.0509 143.718 39.8621 143.66 39.6854C143.6 39.5047 143.524 39.356 143.428 39.2436C143.133 38.9022 142.66 38.605 142.008 38.3519C141.354 38.0949 140.542 37.9664 139.569 37.9664C138.819 37.9664 138.136 38.1109 137.516 38.4001C136.894 38.6853 136.373 39.0709 135.952 39.5569C135.054 40.5851 134.604 41.8764 134.604 43.4287C134.604 44.228 134.737 44.9771 135.006 45.6779C135.278 46.3808 135.649 46.9913 136.12 47.5095C136.612 48.0356 137.189 48.4493 137.853 48.7546C138.521 49.0538 139.257 49.2044 140.059 49.2044C140.839 49.2044 141.543 49.1261 142.168 48.9714C142.794 48.8168 143.399 48.5598 143.989 48.2003V45.1638C143.989 44.9349 143.999 44.726 144.021 44.5373C144.047 44.3505 144.101 44.1919 144.181 44.0633C144.362 43.7862 144.697 43.6456 145.184 43.6456V43.3323C144.585 43.3323 144.109 43.3886 143.756 43.501C143.407 43.6135 143.143 43.7621 142.962 43.9428C142.786 44.1196 142.67 44.3184 142.617 44.5373C142.569 44.7582 142.545 44.9831 142.545 45.212V47.9995C142.234 48.1661 141.883 48.3027 141.494 48.4091C141.103 48.5116 140.624 48.5618 140.059 48.5618C139.533 48.5618 139.04 48.4774 138.575 48.3047C138.11 48.134 137.697 47.8448 137.34 47.4372C136.981 47.0315 136.7 46.5013 136.497 45.8466C136.293 45.194 136.193 44.3887 136.193 43.4287C136.193 42.8243 136.265 42.2379 136.409 41.6695C136.558 41.0972 136.788 40.5831 137.099 40.1272C137.424 39.6673 137.829 39.2998 138.31 39.0267C138.791 38.7496 139.373 38.609 140.059 38.609Z" fill="white"/>
<path d="M148.163 48.883V42.9386C148.504 42.3984 149.01 42.1273 149.679 42.1273C150.283 42.1273 150.706 42.292 150.947 42.6173L151.612 42.1273C151.51 41.9666 151.42 41.8301 151.34 41.7176C151.259 41.6011 151.163 41.5007 151.051 41.4204C150.933 41.3401 150.78 41.2818 150.594 41.2437C150.405 41.2015 150.233 41.1794 150.072 41.1794C149.595 41.1794 149.2 41.2798 148.885 41.4766C148.568 41.6694 148.328 41.8622 148.163 42.055H148.067C147.987 41.81 147.845 41.6293 147.642 41.5168C147.437 41.4043 147.123 41.3481 146.696 41.3481H145.428V41.6614H145.597C146.072 41.6614 146.375 41.81 146.503 42.1032C146.631 42.3984 146.696 42.782 146.696 43.2519V48.883H148.163Z" fill="white"/>
<path d="M152.509 45.1155C152.509 46.2402 152.818 47.1619 153.439 47.8789C153.732 48.2383 154.093 48.5255 154.522 48.7384C154.955 48.9472 155.456 49.0517 156.03 49.0517C156.585 49.0517 157.083 48.9472 157.522 48.7384C157.959 48.5255 158.334 48.2383 158.645 47.8789C158.954 47.5214 159.182 47.1057 159.327 46.6338C159.475 46.1578 159.551 45.6517 159.551 45.1155C159.551 44.5593 159.475 44.0452 159.327 43.5732C159.182 43.1033 158.954 42.6876 158.645 42.3281C158.334 41.9707 157.959 41.6895 157.522 41.4847C157.083 41.2818 156.585 41.1794 156.03 41.1794C155.456 41.1794 154.955 41.2818 154.522 41.4847C154.093 41.6895 153.732 41.9707 153.439 42.3281C152.818 43.0471 152.509 43.9749 152.509 45.1155ZM158.035 45.1155C158.035 46.0474 157.855 46.8225 157.498 47.4371C157.315 47.7323 157.099 47.9652 156.848 48.1359C156.595 48.3086 156.323 48.393 156.03 48.393C155.735 48.393 155.464 48.3086 155.22 48.1359C154.979 47.9652 154.767 47.7323 154.586 47.4371C154.211 46.8386 154.025 46.0634 154.025 45.1155C154.025 44.1516 154.211 43.3684 154.586 42.7619C154.767 42.4727 154.979 42.2438 155.22 42.0711C155.464 41.9004 155.735 41.814 156.03 41.814C156.323 41.814 156.595 41.9004 156.848 42.0711C157.099 42.2438 157.315 42.4727 157.498 42.7619C157.855 43.3845 158.035 44.1677 158.035 45.1155Z" fill="white"/>
<path d="M166.264 41.3485V47.4616C166.055 47.6925 165.814 47.8934 165.542 48.0641C165.273 48.2368 164.976 48.3211 164.651 48.3211C164.443 48.3211 164.23 48.2809 164.018 48.2006C163.803 48.1163 163.617 47.9918 163.456 47.8311C163.296 47.6704 163.161 47.4515 163.055 47.1724C162.947 46.8953 162.895 46.5519 162.895 46.1442V43.2523C162.895 42.4711 162.795 41.949 162.598 41.6859C162.486 41.5413 162.335 41.451 162.149 41.4128C161.96 41.3706 161.728 41.3485 161.451 41.3485H160.16V41.6618H160.328C160.797 41.6618 161.102 41.8104 161.242 42.1036C161.381 42.3988 161.451 42.7824 161.451 43.2523V46.1442C161.451 46.7346 161.527 47.2126 161.684 47.5821C161.838 47.9476 162.047 48.2408 162.309 48.4657C162.57 48.6806 162.859 48.8312 163.176 48.9155C163.49 49.0059 163.819 49.0521 164.162 49.0521C164.653 49.0521 165.072 48.9657 165.421 48.795C165.774 48.6243 166.055 48.4416 166.264 48.2488H166.336L166.897 48.8834H167.707V41.3485H166.264Z" fill="white"/>
<path d="M171.685 51.9435V48.5617C171.929 48.6802 172.21 48.7906 172.527 48.891C172.848 48.9974 173.235 49.0517 173.69 49.0517C174.213 49.0517 174.664 48.9472 175.045 48.7384C175.43 48.5255 175.751 48.2383 176.008 47.8789C176.253 47.5214 176.437 47.1057 176.561 46.6338C176.684 46.1578 176.746 45.6517 176.746 45.1155C176.746 43.9588 176.499 43.031 176.008 42.3281C175.783 41.9707 175.487 41.6895 175.118 41.4847C174.753 41.2818 174.334 41.1794 173.858 41.1794C173.259 41.1794 172.788 41.2798 172.447 41.4766C172.104 41.6694 171.849 41.8622 171.685 42.055H171.612C171.532 41.81 171.39 41.6293 171.187 41.5168C170.983 41.4043 170.67 41.3481 170.249 41.3481H168.805V41.6614H169.126C169.611 41.6614 169.92 41.81 170.048 42.1032C170.181 42.3984 170.249 42.782 170.249 43.2519V51.9435H171.685ZM171.685 47.9271V42.794C171.849 42.533 172.064 42.302 172.326 42.1032C172.455 42.0229 172.607 41.9566 172.784 41.9024C172.964 41.8441 173.163 41.814 173.377 41.814C173.698 41.814 173.973 41.9004 174.203 42.0711C174.432 42.2438 174.628 42.4727 174.789 42.7619C174.937 43.0571 175.045 43.4045 175.11 43.8062C175.174 44.2078 175.206 44.6456 175.206 45.1155C175.206 45.5714 175.174 45.9992 175.11 46.4008C175.045 46.7984 174.921 47.1439 174.741 47.4371C174.58 47.7323 174.376 47.9652 174.131 48.1359C173.884 48.3086 173.574 48.393 173.201 48.393C172.954 48.393 172.699 48.3448 172.439 48.2484C172.182 48.152 171.929 48.0455 171.685 47.9271Z" fill="white"/>
<path d="M3.76885 22.6117C4.04557 22.6117 4.27617 22.7081 4.45865 22.9009C4.63912 23.0896 4.73136 23.3246 4.73136 23.6078C4.73136 23.8708 4.63912 24.0978 4.45865 24.2905C4.27617 24.4793 4.04557 24.5717 3.76885 24.5717C3.48411 24.5717 3.2515 24.4793 3.07103 24.2905C2.88855 24.0978 2.79832 23.8708 2.79832 23.6078C2.79832 23.3246 2.88855 23.0896 3.07103 22.9009C3.2515 22.7081 3.48411 22.6117 3.76885 22.6117ZM6.19919 22.6117C6.47591 22.6117 6.71253 22.7081 6.90503 22.9009C7.09753 23.0896 7.19378 23.3246 7.19378 23.6078C7.19378 23.8708 7.09753 24.0978 6.90503 24.2905C6.71253 24.4793 6.47591 24.5717 6.19919 24.5717C5.9365 24.5717 5.70991 24.4793 5.51741 24.2905C5.32491 24.0978 5.22866 23.8708 5.22866 23.6078C5.22866 23.3246 5.32491 23.0896 5.51741 22.9009C5.70991 22.7081 5.9365 22.6117 6.19919 22.6117ZM10.2257 26.3068H9.96902C9.58402 26.3068 9.33737 26.4173 9.2311 26.6362C9.12883 26.851 9.0787 27.1322 9.0787 27.4796V33.0866H11.4048V33.7453H4.97199C3.86911 33.7091 2.88254 33.3416 2.01227 32.6448C1.59518 32.2974 1.25429 31.8937 0.993611 31.4318C0.730926 30.9659 0.600586 30.4438 0.600586 29.8654C0.600586 28.6986 1.09788 27.7688 2.09248 27.078C3.08707 26.3871 4.42857 26.0417 6.11898 26.0417H10.2257V26.3068ZM7.11357 33.0866V26.9816C6.60425 26.8269 6.07486 26.7687 5.52543 26.8049C4.98001 26.837 4.4787 26.9776 4.02552 27.2226C3.57033 27.4635 3.19936 27.809 2.91061 28.2588C2.62587 28.7046 2.4855 29.2469 2.4855 29.8895C2.4855 30.7852 2.72011 31.5362 3.19134 32.1467C3.39989 32.4259 3.65656 32.6528 3.96135 32.8295C4.26615 33.0022 4.60303 33.0866 4.97199 33.0866H7.11357Z" fill="white"/>
<path d="M15.7961 26.3551H15.5394C15.1544 26.3551 14.9078 26.4655 14.8015 26.6844C14.6992 26.9053 14.6491 27.1885 14.6491 27.5359V33.0867H18.1542V33.7454H10.3579V33.0867H12.684V26.09H15.7961V26.3551ZM12.4514 35.2636C12.7281 35.2636 12.9587 35.36 13.1412 35.5528C13.3216 35.7455 13.4139 35.9725 13.4139 36.2356C13.4139 36.5127 13.3216 36.7497 13.1412 36.9425C12.9587 37.1352 12.7281 37.2316 12.4514 37.2316C12.1726 37.2316 11.94 37.1352 11.7536 36.9425C11.5711 36.7497 11.4808 36.5127 11.4808 36.2356C11.4808 35.9725 11.5711 35.7455 11.7536 35.5528C11.94 35.36 12.1726 35.2636 12.4514 35.2636ZM14.8817 35.2636C15.1584 35.2636 15.395 35.36 15.5876 35.5528C15.7801 35.7455 15.8763 35.9725 15.8763 36.2356C15.8763 36.5127 15.7801 36.7497 15.5876 36.9425C15.395 37.1352 15.1584 37.2316 14.8817 37.2316C14.619 37.2316 14.3924 37.1352 14.1999 36.9425C14.0074 36.7497 13.9112 36.5127 13.9112 36.2356C13.9112 35.9725 14.0074 35.7455 14.1999 35.5528C14.3924 35.36 14.619 35.2636 14.8817 35.2636Z" fill="white"/>
<path d="M24.5905 26.0418C25.2682 26.0418 25.8939 26.1583 26.4673 26.3872C27.0449 26.6121 27.5181 26.9073 27.8871 27.2708C28.2881 27.6725 28.5809 28.1283 28.7694 28.6364C28.9619 29.1465 29.0762 29.6787 29.1143 30.235V30.5723C29.1303 31.0824 29.1884 31.5001 29.2907 31.8255C29.397 32.1468 29.5394 32.4018 29.7158 32.5886C29.8923 32.7814 30.0928 32.9139 30.3174 32.9822C30.542 33.0525 30.7946 33.0866 31.0794 33.0866H32.074V33.7453H30.3735C30.1109 33.7092 29.8642 33.655 29.6356 33.5847C29.411 33.5164 29.2185 33.4039 29.0581 33.2473C28.9719 33.163 28.8937 33.0766 28.8255 32.9903C28.7553 32.8999 28.6851 32.8035 28.617 32.7011C28.3924 33.1188 28.0996 33.4963 27.7427 33.8337C27.3837 34.1751 26.9165 34.4442 26.339 34.637C25.7455 34.8459 25.0737 34.9503 24.3258 34.9503C23.646 34.9503 23.0264 34.8338 22.4649 34.6049C21.9075 34.3799 21.4483 34.0847 21.0853 33.7212C20.9249 33.5606 20.7825 33.3979 20.6602 33.2312C20.5419 33.0666 20.4376 32.8979 20.3474 32.7252C20.1228 33.1589 19.7899 33.4461 19.3528 33.5847C19.1122 33.6771 18.8675 33.7293 18.6229 33.7453H17.1069V33.0866H17.917C18.1777 33.0866 18.4163 33.0585 18.6309 32.9983C18.8495 32.94 19.048 32.8216 19.2245 32.6448C19.5714 32.2974 19.7799 31.6869 19.8501 30.8133V30.5001C19.8501 29.1345 20.2852 28.05 21.1575 27.2467C21.9596 26.4434 23.1026 26.0418 24.5905 26.0418ZM24.5102 26.7487C23.6701 26.7487 23.0143 27.062 22.5451 27.6885C22.3205 28.0219 22.1461 28.3794 22.0238 28.7649C21.8994 29.1505 21.8393 29.6405 21.8393 30.235C21.8393 30.8997 21.9135 31.4459 22.0639 31.8737C22.2123 32.3034 22.4088 32.7071 22.6494 33.0866C23.1567 33.8197 23.8044 34.1872 24.5905 34.1872C25.4086 34.1872 26.0523 33.8658 26.5235 33.2232C26.7681 32.9079 26.9346 32.5625 27.0208 32.187C27.105 31.8134 27.1491 31.3355 27.1491 30.7571C27.1491 30.0944 27.093 29.5401 26.9807 29.0943C26.8684 28.6505 26.6879 28.2428 26.4433 27.8733C25.956 27.1242 25.3123 26.7487 24.5102 26.7487Z" fill="white"/>
<path d="M36.9344 22.403V22.6842C36.425 22.6842 36.1042 22.7926 35.9719 23.0055C35.8435 23.2143 35.7794 23.4935 35.7794 23.8409V30.1066C35.7794 31.2051 35.4665 32.0867 34.8409 32.7494C34.5461 33.0667 34.2012 33.3117 33.8062 33.4884C33.4152 33.6611 32.9841 33.7455 32.5148 33.7455H31.0229V33.0868H31.4641C31.7408 33.0868 32.0195 33.0426 32.2983 32.9502C32.581 32.8538 32.8277 32.6992 33.0362 32.4843C33.2447 32.2755 33.4172 32.0064 33.5576 31.673C33.6959 31.3416 33.7842 30.932 33.8223 30.444V22.403H36.9344Z" fill="white"/>
<path d="M41.1999 22.403V22.6601C40.6905 22.6601 40.3697 22.7705 40.2374 22.9894C40.109 23.2103 40.0449 23.4935 40.0449 23.8409V33.0868H42.3469V33.7455H38.1118V22.403H41.1999Z" fill="white"/>
<path d="M47.737 25.8329C49.0083 25.8329 49.8385 26.0156 50.2235 26.3791C50.4521 26.5719 50.5844 26.8189 50.6165 27.1181C50.6526 27.4133 50.6726 27.8652 50.6726 28.4757H50.3277C50.2736 27.7969 50.041 27.325 49.6299 27.0619C49.2229 26.8008 48.7155 26.6683 48.1059 26.6683C47.2337 26.6683 46.598 26.9494 46.197 27.5117C45.7959 28.07 45.5954 28.8191 45.5954 29.761C45.5954 30.2008 45.6315 30.6124 45.7077 30.998C45.7879 31.3796 45.9162 31.719 46.0927 32.0182C46.4396 32.6287 46.971 32.9862 47.6889 33.0866H52.9746V33.7453H41.3042V33.0866H45.4109C44.2238 32.3536 43.6303 31.245 43.6303 29.761C43.6303 29.2207 43.7205 28.7127 43.903 28.2347C44.0895 27.7527 44.3642 27.335 44.7291 26.9816C45.076 26.6341 45.5032 26.355 46.0125 26.1461C46.5198 25.9373 47.0953 25.8329 47.737 25.8329Z" fill="white"/>
<path d="M57.8352 22.403V22.6842C57.3259 22.6842 57.0051 22.7926 56.8727 23.0055C56.7444 23.2143 56.6802 23.4935 56.6802 23.8409V30.1066C56.6802 31.2051 56.3674 32.0867 55.7418 32.7494C55.447 33.0667 55.1021 33.3117 54.7071 33.4884C54.3161 33.6611 53.8849 33.7455 53.4157 33.7455H51.9238V33.0868H52.365C52.6417 33.0868 52.9204 33.0426 53.1992 32.9502C53.4819 32.8538 53.7285 32.6992 53.9371 32.4843C54.1456 32.2755 54.3181 32.0064 54.4584 31.673C54.5968 31.3416 54.685 30.932 54.7231 30.444V22.403H57.8352Z" fill="white"/>
<path d="M62.1008 22.4271V22.6601C61.5914 22.6601 61.2766 22.7705 61.1543 22.9894C61.036 23.2103 60.9778 23.4935 60.9778 23.8409V33.7455H59.0127V22.403L62.1008 22.4271Z" fill="white"/>
<path d="M69.0048 22.6118C69.2815 22.6118 69.5181 22.7082 69.7106 22.901C69.9031 23.0898 69.9994 23.3147 69.9994 23.5758C69.9994 23.8609 69.9031 24.0979 69.7106 24.2907C69.5181 24.4795 69.2815 24.5718 69.0048 24.5718C68.7421 24.5718 68.5155 24.4795 68.323 24.2907C68.1305 24.0979 68.0343 23.8609 68.0343 23.5758C68.0343 23.3147 68.1305 23.0898 68.323 22.901C68.5155 22.7082 68.7421 22.6118 69.0048 22.6118ZM71.1223 26.3069H70.8656C70.4806 26.3069 70.234 26.4114 70.1277 26.6202C70.0254 26.8291 69.9753 27.1082 69.9753 27.4557V33.7454C69.9753 34.4403 69.8329 35.0086 69.5502 35.4484C69.2715 35.8862 68.9506 36.2376 68.5877 36.5007C68.2027 36.7578 67.8217 36.9465 67.4487 37.071C67.0737 37.1935 66.783 37.2819 66.5744 37.3361C66.398 37.3683 66.3017 37.3602 66.2857 37.312C66.2496 37.2739 66.2757 37.2277 66.3659 37.1755C66.7469 36.9506 67.0437 36.6935 67.2642 36.4043C67.4828 36.1151 67.6533 35.8139 67.7776 35.5046C67.8778 35.2034 67.946 34.9042 67.9781 34.6049C68.0142 34.3097 68.0343 34.0306 68.0343 33.7695V26.0178H71.1223V26.3069Z" fill="white"/>
<path d="M75.5207 22.403V22.6601C75.0113 22.6601 74.6905 22.7705 74.5582 22.9894C74.4298 23.2103 74.3657 23.4935 74.3657 23.8409V33.0868H76.6677V33.7455H72.4326V22.403H75.5207Z" fill="white"/>
<path d="M77.9506 27.5842L80.1242 25.3832C81.3434 26.6102 82.3581 27.6304 83.1722 28.4437C83.9843 29.2531 84.6501 29.9118 85.1694 30.4198C85.414 30.6829 85.6366 30.9159 85.8351 31.1187C86.0377 31.3175 86.2081 31.4862 86.3485 31.6248L87.0062 32.2754C87.1606 32.4361 87.2749 32.5706 87.3511 32.6771C87.4313 32.7795 87.5316 32.9161 87.6559 33.0868H89.9338V33.7455H88.0008C88.1712 34.1833 88.2655 34.605 88.2815 35.0066C88.3016 35.4083 88.2695 35.7738 88.1853 36.1071C88.1091 36.4385 88.0028 36.7337 87.8644 36.9908C87.7241 37.2518 87.6118 37.4647 87.5276 37.6254C87.4413 37.7639 87.3712 37.8262 87.319 37.8101C87.2649 37.8101 87.2569 37.7639 87.295 37.6736C87.3952 37.2558 87.4253 36.8622 87.3832 36.4927C87.3391 36.1272 87.2488 35.7979 87.1105 35.5047C86.9701 35.2034 86.8057 34.9363 86.6132 34.7014C86.4207 34.4644 86.2362 34.2515 86.0597 34.0587L85.7469 33.7455H75.6245V33.0868H85.1213L79.7553 27.769C79.5086 27.528 79.274 27.3673 79.0494 27.287C78.8249 27.2067 78.5802 27.3071 78.3195 27.5842L78.1351 27.769L77.9506 27.5842ZM81.1188 35.2637C81.3956 35.2637 81.6322 35.3601 81.8247 35.5529C82.0172 35.7457 82.1134 35.9726 82.1134 36.2357C82.1134 36.5128 82.0172 36.7498 81.8247 36.9426C81.6322 37.1353 81.3956 37.2317 81.1188 37.2317C80.8562 37.2317 80.6296 37.1353 80.4371 36.9426C80.2446 36.7498 80.1483 36.5128 80.1483 36.2357C80.1483 35.9726 80.2446 35.7457 80.4371 35.5529C80.6296 35.3601 80.8562 35.2637 81.1188 35.2637Z" fill="white"/>
<path d="M92.6245 22.6118C92.9012 22.6118 93.1378 22.7082 93.3303 22.901C93.5228 23.0898 93.6191 23.3247 93.6191 23.6079C93.6191 23.871 93.5228 24.0979 93.3303 24.2907C93.1378 24.4795 92.9012 24.5718 92.6245 24.5718C92.3618 24.5718 92.1352 24.4795 91.9427 24.2907C91.7542 24.0979 91.662 23.871 91.662 23.6079C91.662 23.3247 91.7542 23.0898 91.9427 22.901C92.1352 22.7082 92.3618 22.6118 92.6245 22.6118ZM94.7741 26.3551H94.5094C94.1083 26.3551 93.8597 26.4656 93.7634 26.6845C93.6672 26.9054 93.6191 27.1886 93.6191 27.536V29.97C93.6191 30.5483 93.5168 31.0705 93.3143 31.5364C93.1157 31.9983 92.8591 32.3859 92.5443 32.7011C91.8805 33.398 91.1486 33.7454 90.3465 33.7454H88.8867V33.0867H89.3038C89.5805 33.0867 89.8532 33.0446 90.1219 32.9582C90.3947 32.8739 90.6453 32.7252 90.8759 32.5164C91.0845 32.3075 91.2569 32.0384 91.3973 31.7051C91.5356 31.3737 91.6239 30.962 91.662 30.468V26.0901H94.7741V26.3551Z" fill="white"/>
<path d="M99.0137 22.4271V22.6601C98.5043 22.6601 98.1835 22.7705 98.0511 22.9894C97.9228 23.2103 97.8586 23.4935 97.8586 23.8409V33.7455H95.9256V22.403L99.0137 22.4271ZM97.1287 35.2637C97.6842 35.2637 98.0592 35.332 98.2517 35.4726C98.3519 35.5629 98.4121 35.6593 98.4281 35.7618C98.4482 35.8682 98.4602 36.0268 98.4602 36.2357H98.2998C98.2677 35.9887 98.1574 35.818 97.9709 35.7216C97.7885 35.6252 97.5579 35.577 97.2811 35.577C96.8801 35.577 96.5873 35.6814 96.4069 35.8903C96.2244 36.1032 96.1341 36.3763 96.1341 36.7096C96.1341 37.0571 96.2244 37.3442 96.4069 37.5692C96.5873 37.7981 96.8801 37.9146 97.2811 37.9146H98.5404V38.2761H94.8989V37.9387H96.0539C95.5125 37.6756 95.2438 37.2659 95.2438 36.7096C95.2438 36.308 95.4083 35.9646 95.7411 35.6814C96.072 35.4023 96.5352 35.2637 97.1287 35.2637Z" fill="white"/>
<path d="M107.804 22.6118C108.08 22.6118 108.311 22.7082 108.493 22.901C108.674 23.0898 108.766 23.3247 108.766 23.6079C108.766 23.871 108.674 24.0979 108.493 24.2907C108.311 24.4795 108.08 24.5718 107.804 24.5718C107.519 24.5718 107.286 24.4795 107.106 24.2907C106.923 24.0979 106.833 23.871 106.833 23.6079C106.833 23.3247 106.923 23.0898 107.106 22.901C107.286 22.7082 107.519 22.6118 107.804 22.6118ZM110.234 22.6118C110.511 22.6118 110.747 22.7082 110.94 22.901C111.132 23.0898 111.228 23.3247 111.228 23.6079C111.228 23.871 111.132 24.0979 110.94 24.2907C110.747 24.4795 110.511 24.5718 110.234 24.5718C109.971 24.5718 109.745 24.4795 109.552 24.2907C109.36 24.0979 109.263 23.871 109.263 23.6079C109.263 23.3247 109.36 23.0898 109.552 22.901C109.745 22.7082 109.971 22.6118 110.234 22.6118ZM114.26 26.3069H114.004C113.619 26.3069 113.372 26.4174 113.266 26.6363C113.163 26.8512 113.113 27.1323 113.113 27.4798V33.0867H115.439V33.7454H109.007C107.904 33.7093 106.917 33.3418 106.047 32.6449C105.63 32.2975 105.289 31.8938 105.028 31.4319C104.766 30.966 104.635 30.4439 104.635 29.8655C104.635 28.6987 105.133 27.7689 106.127 27.0781C107.122 26.3873 108.463 26.0419 110.154 26.0419H114.26V26.3069ZM111.148 33.0867V26.9817C110.639 26.8271 110.11 26.7688 109.56 26.805C109.015 26.8371 108.513 26.9777 108.06 27.2227C107.605 27.4637 107.234 27.8091 106.945 28.2589C106.661 28.7048 106.52 29.247 106.52 29.8896C106.52 30.7853 106.755 31.5364 107.226 32.1469C107.435 32.426 107.691 32.6529 107.996 32.8297C108.301 33.0024 108.638 33.0867 109.007 33.0867H111.148Z" fill="white"/>
<path d="M120.826 25.8329C122.097 25.8329 122.927 26.0156 123.312 26.3791C123.541 26.5719 123.673 26.8189 123.705 27.1181C123.741 27.4133 123.762 27.8652 123.762 28.4757H123.417C123.362 27.7969 123.13 27.325 122.719 27.0619C122.312 26.8008 121.804 26.6683 121.195 26.6683C120.323 26.6683 119.687 26.9494 119.286 27.5117C118.885 28.07 118.684 28.8191 118.684 29.761C118.684 30.2008 118.72 30.6124 118.797 30.998C118.877 31.3796 119.005 31.719 119.182 32.0182C119.528 32.6287 120.06 32.9862 120.778 33.0866H124.933V33.7453H114.393V33.0866H118.5C117.313 32.3536 116.719 31.245 116.719 29.761C116.719 29.2207 116.809 28.7127 116.992 28.2347C117.178 27.7527 117.453 27.335 117.818 26.9816C118.165 26.6341 118.592 26.355 119.101 26.1461C119.609 25.9373 120.184 25.8329 120.826 25.8329Z" fill="white"/>
<path d="M135.611 26.2505H135.346C134.961 26.2505 134.715 26.355 134.609 26.5638C134.506 26.7727 134.456 27.0538 134.456 27.4073V33.0865H136.758V33.7452H134.408V34.1148C134.408 34.8096 134.272 35.3759 133.999 35.8097C133.726 36.2475 133.407 36.5909 133.044 36.8379C132.659 37.099 132.278 37.2878 131.905 37.4002C131.531 37.5127 131.24 37.595 131.031 37.6492C130.871 37.6854 130.783 37.6774 130.767 37.6251C130.712 37.587 130.73 37.5408 130.823 37.4886C131.202 37.2797 131.5 37.0307 131.721 36.7415C131.94 36.4564 132.11 36.1491 132.234 35.8177C132.357 35.5004 132.435 35.1631 132.467 34.8056C132.503 34.4461 132.523 34.0927 132.523 33.7452H131.16C130.394 33.7452 129.692 33.6468 129.05 33.448C128.412 33.2452 127.871 32.9781 127.422 32.6447C126.967 32.2973 126.612 31.8937 126.355 31.4318C126.102 30.9659 125.978 30.4437 125.978 29.8654C125.978 28.6765 126.475 27.7286 127.47 27.0217C128.465 26.3148 129.808 25.9614 131.504 25.9614H135.611V26.2505ZM131.216 26.7245C130.237 26.7245 129.431 26.9876 128.801 27.5117C128.176 28.0379 127.863 28.8211 127.863 29.8654C127.863 30.8614 128.14 31.6406 128.697 32.2029C129.259 32.7612 129.956 33.0825 130.791 33.1669H132.491V26.9092C132.11 26.7867 131.685 26.7245 131.216 26.7245Z" fill="white"/>
<path d="M143.195 26.0418C143.873 26.0418 144.499 26.1583 145.072 26.3872C145.65 26.6121 146.123 26.9073 146.492 27.2708C146.893 27.6725 147.186 28.1283 147.374 28.6364C147.567 29.1465 147.681 29.6787 147.719 30.235V30.5723C147.735 31.0824 147.793 31.5001 147.896 31.8255C148.002 32.1468 148.144 32.4018 148.321 32.5886C148.497 32.7814 148.698 32.9139 148.922 32.9822C149.147 33.0525 149.4 33.0866 149.684 33.0866H150.679V33.7453H148.979C148.716 33.7092 148.469 33.655 148.241 33.5847C148.016 33.5164 147.824 33.4039 147.663 33.2473C147.577 33.163 147.499 33.0766 147.43 32.9903C147.36 32.8999 147.29 32.8035 147.222 32.7011C146.997 33.1188 146.705 33.4963 146.348 33.8337C145.989 34.1751 145.522 34.4442 144.944 34.637C144.35 34.8459 143.679 34.9503 142.931 34.9503C142.251 34.9503 141.631 34.8338 141.07 34.6049C140.512 34.3799 140.053 34.0847 139.69 33.7212C139.53 33.5606 139.388 33.3979 139.265 33.2312C139.147 33.0666 139.043 32.8979 138.952 32.7252C138.728 33.1589 138.395 33.4461 137.958 33.5847C137.717 33.6771 137.473 33.7293 137.228 33.7453H135.712V33.0866H136.522C136.783 33.0866 137.021 33.0585 137.236 32.9983C137.454 32.94 137.653 32.8216 137.829 32.6448C138.176 32.2974 138.385 31.6869 138.455 30.8133V30.5001C138.455 29.1345 138.89 28.05 139.762 27.2467C140.565 26.4434 141.708 26.0418 143.195 26.0418ZM143.115 26.7487C142.275 26.7487 141.619 27.062 141.15 27.6885C140.926 28.0219 140.751 28.3794 140.629 28.7649C140.504 29.1505 140.444 29.6405 140.444 30.235C140.444 30.8997 140.518 31.4459 140.669 31.8737C140.817 32.3034 141.014 32.7071 141.254 33.0866C141.762 33.8197 142.409 34.1872 143.195 34.1872C144.014 34.1872 144.657 33.8658 145.128 33.2232C145.373 32.9079 145.54 32.5625 145.626 32.187C145.71 31.8134 145.754 31.3355 145.754 30.7571C145.754 30.0944 145.698 29.5401 145.586 29.0943C145.473 28.6505 145.293 28.2428 145.048 27.8733C144.561 27.1242 143.917 26.7487 143.115 26.7487Z" fill="white"/>
<path d="M151.954 27.5842L154.128 25.3832C155.347 26.6102 156.361 27.6304 157.176 28.4437C157.988 29.2531 158.653 29.9118 159.173 30.4198C159.417 30.6829 159.64 30.9159 159.839 31.1187C160.041 31.3175 160.212 31.4862 160.352 31.6248L161.01 32.2754C161.164 32.4361 161.278 32.5706 161.355 32.6771C161.435 32.7795 161.535 32.9161 161.659 33.0868H163.937V33.7455H162.004C162.175 34.1833 162.269 34.605 162.285 35.0066C162.305 35.4083 162.273 35.7738 162.189 36.1071C162.112 36.4385 162.006 36.7337 161.868 36.9908C161.727 37.2518 161.615 37.4647 161.531 37.6254C161.445 37.7639 161.375 37.8262 161.322 37.8101C161.268 37.8101 161.26 37.7639 161.298 37.6736C161.399 37.2558 161.429 36.8622 161.387 36.4927C161.342 36.1272 161.252 35.7979 161.114 35.5047C160.974 35.2034 160.809 34.9363 160.617 34.7014C160.424 34.4644 160.24 34.2515 160.063 34.0587L159.75 33.7455H149.628V33.0868H159.125L153.759 27.769C153.512 27.528 153.277 27.3673 153.053 27.287C152.828 27.2067 152.584 27.3071 152.323 27.5842L152.138 27.769L151.954 27.5842ZM155.122 35.2637C155.399 35.2637 155.636 35.3601 155.828 35.5529C156.021 35.7457 156.117 35.9726 156.117 36.2357C156.117 36.5128 156.021 36.7498 155.828 36.9426C155.636 37.1353 155.399 37.2317 155.122 37.2317C154.86 37.2317 154.633 37.1353 154.44 36.9426C154.248 36.7498 154.152 36.5128 154.152 36.2357C154.152 35.9726 154.248 35.7457 154.44 35.5529C154.633 35.3601 154.86 35.2637 155.122 35.2637Z" fill="white"/>
<path d="M170.374 26.0418C171.051 26.0418 171.677 26.1583 172.251 26.3872C172.828 26.6121 173.301 26.9073 173.67 27.2708C174.488 28.0962 174.897 29.1806 174.897 30.5242C174.897 31.9018 174.468 32.9742 173.614 33.7453C172.796 34.5486 171.627 34.9503 170.109 34.9503C169.429 34.9503 168.81 34.8338 168.248 34.6049C167.691 34.3799 167.231 34.0847 166.869 33.7212C166.708 33.5606 166.566 33.3979 166.443 33.2312C166.325 33.0666 166.221 32.8979 166.131 32.7252C165.906 33.1589 165.573 33.4461 165.136 33.5847C164.895 33.6771 164.651 33.7293 164.406 33.7453H162.89V33.0866H163.7C163.961 33.0866 164.2 33.0585 164.414 32.9983C164.633 32.94 164.831 32.8216 165.008 32.6448C165.355 32.2974 165.563 31.6869 165.633 30.8133V30.5001C165.633 29.1345 166.068 28.05 166.941 27.2467C167.743 26.4434 168.886 26.0418 170.374 26.0418ZM170.293 26.7487C169.453 26.7487 168.798 27.062 168.328 27.6885C168.104 28.0219 167.929 28.3794 167.807 28.7649C167.683 29.1505 167.622 29.6405 167.622 30.235C167.622 30.8997 167.697 31.4459 167.847 31.8737C167.995 32.3034 168.192 32.7071 168.433 33.0866C168.94 33.8197 169.588 34.1872 170.374 34.1872C171.192 34.1872 171.835 33.8658 172.307 33.2232C172.551 32.9079 172.718 32.5625 172.804 32.187C172.888 31.8134 172.932 31.3355 172.932 30.7571C172.932 30.0944 172.876 29.5401 172.764 29.0943C172.652 28.6505 172.471 28.2428 172.226 27.8733C171.739 27.1242 171.096 26.7487 170.293 26.7487Z" fill="white"/>
<g clip-path="url(#clip0_172_1675)">
<path d="M241.601 22.9569L240.968 24.2719H251.676L246.243 14.2876L245.678 15.63C245.678 15.63 236.946 11.5362 229.126 11.082L228.012 12.0425L229.126 19.1177C229.126 19.1177 238.538 20.8348 241.6 22.9569H241.601Z" fill="white"/>
<path d="M215.156 21.5183C215.156 21.5183 211.61 23.1095 210.259 25.385H199.667C199.667 25.385 204.17 15.2256 215.156 12.548C215.156 12.548 214.751 18.6888 215.156 21.5197V21.5183Z" fill="white"/>
<path d="M247.066 37.3637C245.554 36.1689 243.992 35.2662 242.582 34.5936C239.861 33.2945 237.729 32.8663 237.729 32.8663V30.9424L228.01 34.0771L235.427 41.3794L236.112 39.2819C248.644 42.1722 249.112 53.8475 243.757 60.9328L243.109 61.7313C242.434 62.5139 241.684 63.2256 240.868 63.8448C234.453 68.7299 226.133 67.6536 222.95 66.9954C222.112 66.8218 221.633 66.6743 221.633 66.6743L216.572 68.3914L212.503 69.8047L211.915 70.0115C226.291 79.4114 251.092 73.7495 253.726 55.5588C255.059 46.334 251.283 40.7039 247.066 37.3637Z" fill="white"/>
<path d="M243.759 60.933C243.552 61.205 243.334 61.477 243.111 61.7316C239.856 60.3949 235.673 60.8679 230.04 63.6815C227.979 64.7086 225.557 65.9194 222.95 66.9956C219.641 68.3641 216.034 69.517 212.503 69.8049C208.983 70.1043 205.543 69.5387 202.551 67.4745C202.551 67.4745 197.692 63.9101 199.667 59.1349C199.667 59.1349 190.025 57.5437 196.326 47.6867C196.326 47.6867 191.483 46.366 192.077 40.8632C192.535 36.6146 195.87 35.5557 195.87 35.5557C195.87 35.5557 189.836 28.7496 197.345 25.2388C202.653 22.7564 215.16 24.7165 215.16 24.7165C215.16 24.7165 210.557 3.13073 223.072 0.267955C223.931 0.0668812 224.819 0.00178528 225.7 0.00178528H229.433C229.433 0.00178528 228.274 19.5074 232.393 25.3849C235.969 30.4812 245.551 28.8075 247.069 37.3654C245.557 36.1705 243.995 35.2679 242.585 34.5952C242.585 33.1805 240.85 31.6992 238.962 30.8197C235.544 29.2284 229.255 27.9786 228.014 18.2749C226.778 8.57131 227.23 2.73003 227.23 2.73003C227.23 2.73003 221.751 0.872624 218.491 4.28944C212.364 10.7108 216.532 26.1573 216.532 26.1573C216.532 26.1573 202.54 24.2739 198.788 28.0104C197.349 29.4425 196.29 31.906 198.608 36.0895C198.608 36.0895 195.267 38.5892 195.947 42.7611C196.632 46.9287 199.287 47.7649 199.287 47.7649C199.287 47.7649 196.251 50.9488 197.165 54.8111C198.073 58.6793 201.872 58.2236 201.872 58.2236C201.872 58.2236 199.408 66.0366 207.945 67.5468C219.944 69.6718 229.473 63.074 232.379 61.7619C235.985 60.1316 240.085 59.5255 243.76 60.9359L243.759 60.933Z" fill="white"/>
</g>
<defs>
<clipPath id="clip0_172_1675">
<rect width="61.9741" height="74.4915" fill="white" transform="translate(192.026 -4.57764e-05)"/>
</clipPath>
</defs>
</svg>
