<svg width="17" height="16" viewBox="0 0 17 16" fill="none" xmlns="http://www.w3.org/2000/svg">
<g clip-path="url(#clip0_245_2423)">
<path d="M8.75 16C13.1683 16 16.75 12.4183 16.75 8C16.75 3.58172 13.1683 0 8.75 0C4.33172 0 0.75 3.58172 0.75 8C0.75 12.4183 4.33172 16 8.75 16Z" fill="#6DA544"/>
<path d="M5.27222 9.56543C5.27222 10.1417 5.7394 10.6089 6.31569 10.6089H9.44613C9.44613 11.0891 9.83544 11.4785 10.3157 11.4785H11.3592C11.8394 11.4785 12.2287 11.0891 12.2287 10.6089V9.56543H5.27222Z" fill="#F0F0F0"/>
<path d="M12.315 4.52246V6.95724C12.315 7.34083 12.003 7.65289 11.6194 7.65289V8.69636C12.5784 8.69636 13.3585 7.91617 13.3585 6.95724V4.52246H12.315Z" fill="#F0F0F0"/>
<path d="M4.83701 6.95675C4.83701 7.34034 4.52495 7.65241 4.14136 7.65241V8.69587C5.10033 8.69587 5.88048 7.91569 5.88048 6.95675V4.52197H4.83701V6.95675Z" fill="#F0F0F0"/>
<path d="M11.7937 4.52246H10.7502V6.95724H11.7937V4.52246Z" fill="#F0F0F0"/>
<path d="M9.18494 5.91377C9.18494 6.00968 9.10691 6.08768 9.01104 6.08768C8.91516 6.08768 8.83713 6.00965 8.83713 5.91377V4.52246H7.79366V5.91377C7.79366 6.00968 7.71563 6.08768 7.61975 6.08768C7.52388 6.08768 7.44585 6.00965 7.44585 5.91377V4.52246H6.40234V5.91377C6.40234 6.58505 6.94847 7.13118 7.61975 7.13118C7.87828 7.13118 8.11803 7.04993 8.31541 6.91193C8.51275 7.0499 8.75254 7.13118 9.01107 7.13118C9.06313 7.13118 9.11432 7.12752 9.16466 7.12112C9.09072 7.42577 8.81635 7.6529 8.48932 7.6529V8.69637C9.44829 8.69637 10.2284 7.91618 10.2284 6.95724V5.91377V4.52246H9.18497V5.91377H9.18494Z" fill="#F0F0F0"/>
<path d="M7.96756 7.65234H6.40234V8.69581H7.96756V7.65234Z" fill="#F0F0F0"/>
</g>
<defs>
<clipPath id="clip0_245_2423">
<rect width="16" height="16" fill="white" transform="translate(0.75)"/>
</clipPath>
</defs>
</svg>
