<svg width="168" height="55" viewBox="0 0 168 55" fill="none" xmlns="http://www.w3.org/2000/svg">
<path d="M39.0457 20.6786C39.0457 21.0095 39.0144 21.3482 38.9362 21.6974C38.8138 22.3384 38.7043 22.6589 38.6157 22.6589C38.5662 22.6589 38.5324 22.526 38.5167 22.2602C38.4829 21.6974 38.462 21.3769 38.462 21.3091C38.3239 19.9282 37.9695 17.6014 37.4015 14.3339C37.24 13.4272 37.0263 12.0722 36.7605 10.264C36.6277 10.1467 36.5729 10.0581 36.5938 9.99817C36.6485 9.83663 36.7423 9.59952 36.87 9.27903C36.969 9.01326 37.0341 8.88037 37.0576 8.88037C37.1019 8.88037 37.3234 9.30508 37.722 10.1623C38.165 11.1134 38.3578 11.6111 38.2979 11.6553C38.2431 11.6892 38.1259 11.6215 37.9539 11.4339C37.9044 11.3792 37.7767 11.2463 37.5683 11.0352C37.8236 12.3953 38.1988 14.5658 38.6965 17.5466C38.9258 19.1022 39.0457 20.1496 39.0457 20.6786Z" fill="white"/>
<path d="M18.5604 21.2913C18.5604 21.9661 18.3936 22.4898 18.0627 22.8598C17.8152 23.1256 16.885 23.7353 15.2773 24.6838C13.4534 25.7573 12.2756 26.2992 11.7493 26.2992C11.064 26.2992 10.7201 25.8745 10.7201 25.0173C10.7201 24.2538 10.8973 23.4487 11.2621 22.6071C11.4392 22.198 11.5591 21.987 11.6268 22C11.7206 22 11.6711 22.2605 11.4601 22.7791C11.2542 23.2976 11.15 23.7614 11.15 24.1783C11.15 24.7854 11.4158 25.0954 11.9473 25.0954C12.4554 25.0954 13.5394 24.616 15.1965 23.6467C17.2081 22.4924 18.2138 21.8567 18.2138 21.7342C18.2138 21.4632 17.8829 21.1479 17.2081 20.7832C16.6948 20.5278 16.1736 20.2699 15.6499 20.0093C14.7614 19.5351 14.0422 18.9358 13.4951 18.2166C13.4638 18.2114 13.4117 18.1671 13.3518 18.0837C13.3466 18.0499 13.3413 17.8518 13.3413 17.4871C13.3361 17.1119 13.3413 16.9242 13.3648 16.9112C13.4534 16.9008 13.7296 17.0337 14.2064 17.3203C14.6754 17.6069 14.9021 17.7737 14.8813 17.8284C14.8708 17.8779 14.7145 17.9066 14.4279 17.917C15.0089 18.4381 15.7151 18.8889 16.5488 19.2771C17.3774 19.6575 17.8986 19.9389 18.0966 20.1187C18.404 20.4053 18.5604 20.7936 18.5604 21.2913Z" fill="white"/>
<path d="M2.98137 18.6308C2.84066 19.1284 2.61918 19.3838 2.31172 19.3838C2.13975 19.3838 2.01208 19.3212 1.92609 19.1936C1.74631 18.9044 1.65771 18.5969 1.65771 18.266C1.65771 18.0315 1.6968 17.7084 1.78278 17.2915C1.87659 16.7808 2.04856 16.2075 2.29348 15.5692C2.38729 15.3347 2.46545 15.22 2.52017 15.22C2.53841 15.2278 2.55144 15.2539 2.55144 15.2982C2.55144 15.3737 2.52278 15.4858 2.46806 15.6343C2.36644 15.9418 2.21792 16.5228 2.02511 17.3775C1.93912 17.8517 1.95996 18.2165 2.08764 18.4614C2.17362 18.6334 2.29348 18.7167 2.45503 18.7167C2.54883 18.7167 2.62961 18.6829 2.69736 18.6047C2.73644 18.55 2.79637 18.464 2.87454 18.3467C2.91362 18.2529 2.94489 18.206 2.96834 18.206C3.05432 18.2008 3.06735 18.3415 2.98137 18.6308ZM12.6221 15.8897C12.6221 16.0721 12.583 16.2649 12.4997 16.4707C12.4215 16.6713 12.3564 16.7756 12.3016 16.7756C12.273 16.7756 12.1792 16.6713 12.0202 16.4603C11.8665 16.2492 11.7284 16.145 11.6059 16.145C11.275 16.145 10.7539 16.4837 10.0478 17.169C9.34167 17.8491 8.9873 18.3702 8.9873 18.722C8.9873 18.8861 9.15927 19.0581 9.50843 19.2301C9.80547 19.3864 10.0947 19.4724 10.3709 19.4958C11.1448 19.5662 11.6685 19.6834 11.9525 19.8398C12.2078 19.9935 12.3407 20.215 12.3407 20.5146C12.3407 21.0957 12.1974 21.5699 11.8978 21.9399C11.4236 22.5496 10.4829 23.1776 9.08892 23.8316C7.57506 24.5273 6.25402 24.8816 5.131 24.8816C3.68488 24.8816 2.68693 24.2406 2.15799 22.9587C1.86877 22.2447 1.8375 21.3875 2.0694 20.3817C2.20229 19.8059 2.3951 19.2587 2.65566 18.735C2.83285 18.3806 2.94489 18.2165 2.9996 18.2373C3.05432 18.2582 3.02827 18.4458 2.90059 18.8132C2.60355 19.66 2.44722 20.327 2.44722 20.8247C2.44722 21.6116 2.67912 22.263 3.15334 22.7815C3.69531 23.3782 4.47959 23.6778 5.50881 23.6778C6.37127 23.6778 7.34316 23.4668 8.4271 23.0473C9.23484 22.7372 10.0295 22.3438 10.8164 21.8643C11.4783 21.4657 11.8118 21.2338 11.8118 21.1556C11.8118 20.9498 11.5147 20.8117 10.9155 20.7465C9.27913 20.5641 8.46097 20.1055 8.46097 19.376C8.46097 18.5135 8.88568 17.5625 9.74293 16.5124C10.5663 15.5066 11.2698 14.9985 11.8535 14.9985C12.0593 14.9985 12.2417 15.0871 12.3954 15.2695C12.544 15.4415 12.6221 15.6525 12.6221 15.8897ZM9.16448 25.6529L8.6121 26.6482L7.48386 25.9864L7.02007 26.815L5.87099 26.1401L6.42338 25.1448L7.55161 25.8092L8.01541 24.9806L9.16448 25.6529Z" fill="white"/>
<path d="M20.8298 20.6892C20.4755 20.6683 20.2983 20.5798 20.2983 20.4365C20.2983 20.3713 20.3478 20.3036 20.4364 20.2488C20.5302 20.1889 20.6084 20.1602 20.6631 20.1602C20.9393 20.1837 21.205 20.3609 21.4708 20.6814C21.2936 20.7022 21.0774 20.7022 20.8298 20.6892ZM35.6427 15.9287C35.3223 14.1882 35.0122 12.4528 34.7125 10.7227C34.9132 10.9234 35.0435 11.0536 35.0982 11.1084C35.2858 11.2855 35.3978 11.3585 35.4421 11.3298C35.4577 11.3116 35.4656 11.296 35.4656 11.2855C35.4656 11.1969 35.2649 10.7097 34.8793 9.83942C34.5041 8.97697 34.2826 8.54443 34.2175 8.54443C34.1836 8.54443 34.1185 8.68253 34.0168 8.95352C33.8944 9.27401 33.8084 9.51633 33.7406 9.68308C33.7094 9.74301 33.7745 9.82639 33.9283 9.9254C34.1888 11.7389 34.3921 13.099 34.5354 14.0058C35.2154 17.8543 35.5542 20.1811 35.5542 20.981C35.5542 21.0696 35.4265 21.1869 35.1737 21.3171C34.921 21.4552 34.7021 21.5204 34.5223 21.523C34.4676 21.523 34.4155 21.5204 34.3608 21.5126C34.1237 21.4865 33.9074 21.4031 33.7094 21.2676C33.5791 21.1895 33.4853 21.1009 33.4202 20.9967C33.3472 20.8794 33.3159 20.7465 33.3211 20.5928C33.3264 20.5276 33.329 20.4703 33.3316 20.4208C33.3368 20.301 33.3316 20.2358 33.3211 20.228C33.243 20.1941 33.1231 20.3374 32.9564 20.6371C32.8678 20.8377 32.7688 21.0357 32.6697 21.2233C32.5134 21.4552 32.2711 21.5543 31.9402 21.5438C31.5441 21.5308 31.3174 21.3901 31.2575 21.1243C31.2888 20.9263 31.3383 20.7309 31.3487 20.5329C31.3748 20.426 31.3695 20.3713 31.3305 20.3609C31.2523 20.3426 31.1429 20.4547 30.9865 20.6814C30.8406 20.8976 30.7155 21.0722 30.6087 21.2051C30.5722 21.2416 30.5305 21.2755 30.4888 21.3093C30.1788 21.5725 29.7984 21.8122 29.3919 21.8591C29.3398 21.8643 29.2851 21.8643 29.2303 21.8669C29.2225 21.8669 29.2173 21.8669 29.2095 21.8669C29.1261 21.8643 29.0401 21.8513 28.9541 21.8304C28.9281 21.8252 28.902 21.82 28.876 21.8148C28.605 21.7158 28.4487 21.4813 28.407 21.1165C28.407 20.9967 28.4226 20.8507 28.4513 20.6866C28.4669 20.5824 28.4513 20.5198 28.407 20.5094C28.3522 20.4938 28.2689 20.5433 28.1516 20.6423C27.9901 20.8117 27.852 20.955 27.7373 21.0696C27.667 21.1426 27.6044 21.2051 27.5523 21.2598C27.4742 21.3302 27.396 21.4005 27.3152 21.4683C27.2553 21.5178 27.1954 21.5673 27.1328 21.6116C27.0286 21.6897 26.9192 21.7653 26.8045 21.8304C26.7316 21.8721 26.656 21.9034 26.5726 21.9243C26.3616 21.979 26.1401 22.0128 25.9186 22.0155C25.7883 22.0181 25.658 22.0076 25.5304 21.9868C25.2933 21.9451 25.1109 21.7471 25.09 21.5074C25.077 21.3536 25.1004 21.1921 25.1317 21.0488C25.1838 20.8273 25.2203 20.598 25.2828 20.3791C25.3115 20.2749 25.348 20.1733 25.3949 20.0769C25.6137 19.9544 25.8483 19.8606 26.0828 19.772C26.3694 19.6626 26.6586 19.561 26.9322 19.4229C27.1146 19.3239 27.3308 19.2483 27.482 19.1024C27.5289 19.0555 27.5706 19.0034 27.6018 18.9408C27.7321 18.7063 27.8624 18.464 27.9041 18.1956C27.3361 18.3858 26.8123 18.6803 26.2443 18.8653C25.989 18.9643 25.7206 19.0659 25.4496 19.1258C25.4444 19.1258 25.4392 19.1284 25.434 19.1284C25.1083 19.1988 24.7721 19.2118 24.4464 19.0893C23.7716 18.8991 23.2739 18.3832 22.9169 17.7996C22.8753 17.7344 22.8388 17.6667 22.7997 17.5989C22.7137 17.3983 22.5704 17.1039 22.8049 16.9501C23.4928 16.5254 24.3292 16.4863 25.1109 16.416C25.6554 16.3456 26.1661 16.5932 26.7029 16.5932C26.1635 16.1268 25.5121 15.7307 24.7826 15.6838C24.1129 15.6004 23.3703 15.6968 22.857 16.1711C22.4375 16.5098 22.2186 17.0413 22.1639 17.5677C22.1535 17.651 22.1587 17.7344 22.1717 17.8178C22.2108 18.0471 22.2734 18.2764 22.3593 18.4953C22.4114 18.6255 22.4714 18.7558 22.5417 18.8783C22.6642 19.0972 22.8153 19.2978 22.9977 19.475C23.1853 19.6339 23.3886 19.7746 23.5814 19.931C23.1827 20.1003 22.7971 20.3192 22.3776 20.4338C22.302 20.2749 22.2082 20.1133 22.0962 19.9492C21.7262 19.4072 21.3431 19.1258 20.9471 19.0972C20.5719 19.0763 20.241 19.2743 19.9517 19.6834C19.6912 20.0534 19.5661 20.4234 19.5661 20.8012C19.5661 21.4422 19.9648 21.7627 20.7595 21.7627C21.3301 21.7627 21.7783 21.7028 22.0988 21.5855C22.1978 21.7288 22.2421 21.8904 22.2421 22.0728C22.2421 22.3698 21.7105 22.9144 20.6501 23.7091C19.4827 24.582 18.4952 25.0119 17.6875 25.0119C17.1116 25.0119 16.6583 24.8191 16.3326 24.4361C16.0016 24.0504 15.8401 23.5736 15.8401 23.0108C15.8401 22.6799 15.8844 22.3359 15.9626 21.9946C16.0433 21.6533 16.0824 21.4865 16.0824 21.4865C16.0824 21.4526 16.072 21.4344 16.059 21.4318C15.9704 21.4109 15.8505 21.6481 15.7046 22.1379C15.5378 22.6799 15.4623 23.1984 15.4623 23.7091C15.4623 24.4282 15.6342 25.0015 15.9704 25.434C16.3404 25.9161 16.8771 26.1532 17.5728 26.1532C18.318 26.1532 19.1987 25.7884 20.2045 25.0588C21.0852 24.4282 21.747 23.7873 22.1952 23.1228C22.4557 22.745 22.5912 22.1926 22.6043 21.4605C23.3312 21.2572 24.152 20.8559 25.064 20.2593C24.8425 20.9159 24.6731 21.6168 24.8008 22.3099C24.8894 22.6069 25.0822 22.9014 25.3923 22.9952C25.8326 23.0759 26.312 23.0577 26.7133 22.8414C26.8201 22.7971 26.9165 22.7398 27.0051 22.6695C27.3387 22.4766 27.6357 22.1822 27.8989 21.7888C27.8989 22.5783 28.2637 22.9717 28.9828 22.9717C29.6889 22.9717 30.2882 22.5522 30.7755 21.7236C30.7416 21.9659 30.8093 22.1822 30.9579 22.3698C31.0595 22.4923 31.1767 22.5757 31.3096 22.6173C31.38 22.6408 31.4581 22.6512 31.5389 22.6512C32.1486 22.6512 32.589 22.2604 32.8782 21.4787C32.8938 21.4787 32.9329 21.5543 32.985 21.695C32.985 21.695 32.9876 21.6976 32.9876 21.7002C33.071 21.8878 33.1492 22.0207 33.2195 22.1093C33.4749 22.435 33.8058 22.5991 34.2175 22.6069C34.2201 22.6069 34.2227 22.6069 34.2253 22.6069C34.2279 22.6069 34.2305 22.6069 34.2331 22.6069C34.2357 22.6069 34.2383 22.6069 34.2383 22.6069C34.2409 22.6069 34.2435 22.6069 34.2435 22.6069C35.0956 22.6017 35.6427 22.1379 35.8825 21.226C36.031 20.6345 36.1039 20.1316 36.1039 19.7121C36.117 19.0737 35.9554 17.8126 35.6427 15.9287Z" fill="white"/>
<path d="M17.1142 14.7221C17.0231 15.0478 16.8771 15.2146 16.6765 15.2146C16.5645 15.2146 16.4811 15.1729 16.4238 15.0895C16.3065 14.9019 16.2466 14.7013 16.2466 14.485C16.2466 14.3313 16.2726 14.1202 16.3274 13.8466C16.3873 13.5131 16.4993 13.1405 16.6609 12.721C16.7208 12.5673 16.7729 12.4917 16.8094 12.4917C16.8224 12.4969 16.8302 12.5152 16.8302 12.5438C16.8302 12.5907 16.812 12.6663 16.7781 12.7627C16.713 12.9633 16.6166 13.3437 16.4863 13.9013C16.4316 14.2114 16.4446 14.4485 16.528 14.6101C16.5853 14.7221 16.6635 14.7768 16.7677 14.7768C16.8276 14.7768 16.8823 14.7534 16.9266 14.7013C16.9527 14.6648 16.9892 14.6101 17.0413 14.5345C17.0647 14.4746 17.0882 14.4433 17.1012 14.4433C17.1612 14.4433 17.169 14.5345 17.1142 14.7221Z" fill="white"/>
<path d="M15.4675 26.1504C15.4883 26.1817 15.4753 26.2572 15.4258 26.3614C15.3789 26.4631 15.3424 26.5204 15.3163 26.5308C14.6311 26.7862 13.9432 27.0415 13.2553 27.2995C12.3824 27.633 11.7493 27.9092 11.3584 28.1333C11.3376 28.089 11.335 28.003 11.3584 27.8805C11.3819 27.7711 11.4105 27.7059 11.4444 27.6825C12.6769 27.1301 14.0161 26.6194 15.4675 26.1504Z" fill="white"/>
<path d="M24.2979 11.6032C24.2979 11.6345 24.2745 11.6944 24.2276 11.7882C24.1807 11.8794 24.152 11.9263 24.1416 11.9263C24.0113 11.9081 23.8654 11.8638 23.7012 11.7934C23.3938 12.2728 22.7606 12.7809 21.8044 13.3125C21.7262 13.3516 21.5256 13.4349 21.2025 13.56C20.8794 13.6825 20.71 13.7424 20.6865 13.7294C20.6787 13.7111 20.8429 13.6043 21.1894 13.4063C22.3776 12.7731 23.1801 12.2181 23.5892 11.7439C23.2348 11.5824 23.0551 11.3895 23.0551 11.1629C23.0551 11.0378 23.1306 10.8788 23.2843 10.6912C23.4329 10.5036 23.5788 10.4072 23.7169 10.4072C23.8888 10.4072 23.9774 10.6 23.9774 10.9883C23.9774 11.1368 23.954 11.2879 23.8993 11.4364C24.165 11.525 24.2979 11.5798 24.2979 11.6032ZM23.7638 11.3921C23.8498 11.0248 23.795 10.8398 23.5918 10.8398C23.4094 10.8398 23.3156 10.9153 23.3156 11.0691C23.313 11.1785 23.4641 11.2853 23.7638 11.3921Z" fill="white"/>
<path d="M32.3987 13.3879C32.3987 13.4191 32.3753 13.4791 32.3284 13.5729C32.2815 13.6641 32.2528 13.711 32.2424 13.711C32.1121 13.6901 31.9662 13.6484 31.8021 13.5755C31.4946 14.0549 30.8614 14.563 29.9052 15.0946C29.827 15.1336 29.6264 15.2144 29.3033 15.3421C28.9802 15.4645 28.8108 15.5245 28.7874 15.5114C28.7796 15.4932 28.9463 15.3864 29.2903 15.191C30.4784 14.5578 31.2809 14.0028 31.69 13.5286C31.3357 13.367 31.1559 13.1742 31.1559 12.9475C31.1559 12.8225 31.2314 12.6635 31.3852 12.4759C31.5337 12.2857 31.6796 12.1919 31.8177 12.1919C31.9897 12.1919 32.0783 12.3847 32.0783 12.7755C32.0783 12.9241 32.0548 13.0726 32.0001 13.2237C32.2659 13.3097 32.3987 13.3644 32.3987 13.3879ZM31.8646 13.1768C31.9506 12.8094 31.8959 12.6244 31.69 12.6244C31.5102 12.6244 31.4164 12.7 31.4164 12.8537C31.4164 12.9632 31.565 13.07 31.8646 13.1768Z" fill="white"/>
<path d="M31.8334 24.5767C31.8334 24.8607 31.7292 25.004 31.5207 25.004C31.4373 25.004 31.367 24.9754 31.3045 24.918C31.2732 24.8946 31.2419 24.8998 31.2159 24.9415C31.1168 25.0926 30.9735 25.1708 30.7885 25.1708C30.7156 25.1708 30.6504 25.1552 30.6009 25.1187C30.4342 25.0197 30.2283 25.0197 29.9808 25.1317C29.874 25.189 29.689 25.3375 29.4258 25.5747C29.2747 25.6971 29.1288 25.8248 28.9829 25.9499C28.7431 26.1349 28.4565 26.2938 28.1256 26.4319C27.8572 26.5387 27.6748 26.5935 27.5836 26.5935C27.5602 26.5935 27.5446 26.5882 27.5446 26.57C27.568 26.5466 27.6201 26.5205 27.6853 26.4944C27.8103 26.4528 27.9823 26.3772 28.2012 26.2652C28.605 26.0359 28.9594 25.7701 29.2617 25.46C29.5118 25.1812 29.7802 24.9728 30.0694 24.8268C30.27 24.72 30.442 24.7096 30.5879 24.8034C30.653 24.8529 30.7234 24.879 30.8016 24.879C31.01 24.879 31.1559 24.7799 31.2315 24.5767C31.2706 24.4542 31.3201 24.3891 31.3826 24.3891C31.3983 24.3891 31.4061 24.4073 31.3957 24.4516C31.3696 24.5454 31.3644 24.5949 31.3826 24.6158C31.4373 24.6888 31.5259 24.7148 31.6354 24.6809C31.7083 24.6653 31.7187 24.6314 31.6588 24.5793C31.6145 24.5559 31.6067 24.5168 31.6354 24.4647C31.6849 24.3474 31.7135 24.2901 31.7344 24.2901C31.7995 24.2875 31.8334 24.3813 31.8334 24.5767Z" fill="white"/>
<path d="M8.99256 13.0913C8.99256 13.4821 8.90397 13.8078 8.71636 14.0814C8.53918 14.342 8.35158 14.4775 8.15355 14.4775C8.03369 14.4775 7.93728 14.4306 7.86172 14.342C7.56468 14.6416 7.29891 14.7979 7.07222 14.7979C6.74131 14.7979 6.56934 14.6025 6.56934 14.2117C6.56934 14.0684 6.62405 13.8521 6.74131 13.5603C6.85335 13.2684 6.94715 13.1173 7.02271 13.1173C7.08264 13.1173 7.11131 13.1773 7.09307 13.2997C7.0618 13.5681 7.04356 13.7036 7.04356 13.7036C7.04356 13.787 7.1113 13.8339 7.2494 13.8339C7.45003 13.8339 7.62982 13.7296 7.79658 13.5134C7.96334 13.3049 8.0389 13.1955 8.02327 13.1955C8.09362 13.1955 8.14313 13.2476 8.16658 13.357C8.19003 13.4613 8.2213 13.5134 8.2708 13.5134C8.44799 13.5134 8.59129 13.4092 8.69552 13.1955C8.79974 12.987 8.85967 12.875 8.87791 12.875C8.95347 12.8776 8.99256 12.9506 8.99256 13.0913Z" fill="white"/>
<path d="M32.3441 16.1656C32.3441 16.5565 32.2555 16.8822 32.0679 17.1558C31.8907 17.4163 31.7031 17.5518 31.5051 17.5518C31.3827 17.5518 31.2889 17.5049 31.2133 17.4163C30.9162 17.716 30.6505 17.8723 30.4238 17.8723C30.0929 17.8723 29.9209 17.6769 29.9209 17.2861C29.9209 17.1427 29.9756 16.9265 30.0929 16.6347C30.2023 16.3428 30.2987 16.1917 30.3743 16.1917C30.4342 16.1917 30.4629 16.2516 30.4446 16.3741C30.4134 16.6399 30.3951 16.778 30.3951 16.778C30.3951 16.8613 30.4603 16.9082 30.601 16.9082C30.799 16.9082 30.9814 16.804 31.1481 16.5878C31.3149 16.3793 31.3905 16.2673 31.3748 16.2673C31.4478 16.2673 31.4973 16.3194 31.5181 16.4288C31.539 16.533 31.5729 16.5851 31.6224 16.5851C31.7995 16.5851 31.9429 16.4809 32.0471 16.2647C32.1513 16.0562 32.2112 15.9468 32.2295 15.9468C32.305 15.952 32.3441 16.0223 32.3441 16.1656Z" fill="white"/>
<path d="M25.0509 25.8797C24.7018 26.3357 24.2458 26.5624 23.683 26.5624C23.2869 26.5519 23.0863 26.3956 23.0863 26.0934C23.0863 25.9501 23.1462 25.7468 23.2661 25.4732C23.399 25.1788 23.5267 24.9834 23.6491 24.8896C23.4329 24.7228 23.3182 24.5613 23.3182 24.4049C23.3182 24.2772 23.4016 24.1079 23.5709 23.8942C23.7403 23.6806 23.8967 23.5737 24.04 23.5737C24.1598 23.5737 24.2223 23.6623 24.2223 23.8447C24.2223 23.8968 24.2067 23.9672 24.1702 24.0636C24.139 24.147 24.1051 24.1965 24.0738 24.1965C24.0556 24.1861 24.0373 24.1574 24.0269 24.1209C24.0087 24.0453 23.9618 24.0037 23.894 24.0037C23.8628 24.0037 23.8107 24.0271 23.7299 24.0844C23.6543 24.1313 23.6126 24.1834 23.6126 24.2356C23.6126 24.4023 23.7664 24.4857 24.0738 24.4857C24.139 24.4857 24.2406 24.4284 24.3709 24.3163C24.4595 24.2251 24.5272 24.1834 24.5845 24.1965C24.6158 24.1965 24.6132 24.3007 24.5689 24.5091C24.5481 24.556 24.4907 24.6082 24.4047 24.6629C24.2197 24.7384 23.9983 24.913 23.7455 25.1892C23.4719 25.4602 23.3364 25.6582 23.3364 25.7911C23.3364 25.9813 23.5214 26.0803 23.894 26.0803C24.1989 26.0803 24.5585 25.9813 24.9649 25.7729C25.0301 25.7494 25.0718 25.7416 25.0978 25.7546C25.1187 25.7703 25.1056 25.8146 25.0509 25.8797Z" fill="white"/>
<path d="M78.5936 19.746C78.5936 20.0769 78.5624 20.4156 78.4842 20.7622C78.3617 21.4031 78.2523 21.7236 78.1637 21.7236C78.1142 21.7236 78.0803 21.5907 78.0647 21.325C78.0308 20.7622 78.01 20.4417 78.01 20.3739C77.8719 18.9929 77.5175 16.6661 76.9495 13.3987C76.788 12.4919 76.5743 11.137 76.3085 9.33133C76.1756 9.21408 76.1209 9.12549 76.1418 9.06556C76.1965 8.90402 76.2903 8.6669 76.418 8.34641C76.517 8.08064 76.5821 7.94775 76.6056 7.94775C76.6499 7.94775 76.8713 8.37247 77.27 9.22972C77.7129 10.1808 77.9058 10.6784 77.8458 10.7227C77.7911 10.754 77.6739 10.6889 77.5019 10.5013C77.4524 10.4465 77.3247 10.3137 77.1163 10.1026C77.3716 11.4627 77.7468 13.6358 78.2445 16.614C78.4712 18.1722 78.5936 19.2144 78.5936 19.746Z" fill="white"/>
<path d="M75.1204 21.4186C74.8155 21.4186 74.5237 21.2362 74.2475 20.8767C74.3908 20.8167 74.6123 20.8115 74.9119 20.8532C75.0162 20.8688 75.1204 20.9314 75.2324 21.0304C75.3445 21.1346 75.3992 21.2232 75.3992 21.2962C75.3966 21.3795 75.3028 21.4186 75.1204 21.4186ZM74.7556 19.6729C74.495 19.6729 74.1563 19.7563 73.7551 19.923C73.5831 19.441 73.4059 18.7088 73.2261 17.7161C72.8327 14.644 72.5513 12.1843 72.3845 10.3422C72.5851 10.5532 72.705 10.6757 72.7493 10.72C72.916 10.918 73.0255 11.0014 73.0932 10.9727V10.9076C73.0932 10.819 72.9265 10.3448 72.6086 9.48232C72.2829 8.61987 72.077 8.18994 71.9989 8.18994C71.965 8.18994 71.8999 8.32803 71.8008 8.59902C71.7123 8.76578 71.595 8.99768 71.4569 9.29733C71.4387 9.36247 71.5012 9.45627 71.6237 9.57352C71.8321 13.0911 72.1213 15.8687 72.4965 17.9089C72.7024 19.097 72.8744 19.8683 73.0099 20.22C73.0151 20.2305 73.0151 20.2409 73.0203 20.2513C72.0744 20.6891 71.4517 20.9027 71.1416 20.9027C71.113 20.9027 71.0869 20.9079 71.0635 20.9131C70.7899 20.8819 70.571 20.7855 70.3938 20.6239C70.3339 20.5796 70.2505 20.4572 70.1515 20.2591C70.0629 20.082 69.9978 19.9934 69.9639 19.9934C69.9326 19.9934 69.8857 20.1601 69.831 20.491C69.7711 20.8219 69.7424 21.0226 69.7424 21.0773C69.7424 21.033 69.8753 21.2831 70.1411 21.8121C70.4068 22.3488 70.5397 22.7762 70.5397 23.0888C70.5397 23.3051 69.9535 23.808 68.794 24.5923C67.7387 25.2984 66.8085 25.6528 66.0086 25.6528C64.7527 25.6528 64.1299 25.043 64.1299 23.8392C64.1299 23.4745 64.2081 23.0445 64.3618 22.5469C64.4843 22.1274 64.5286 21.9163 64.5156 21.9163C64.4374 21.872 64.3488 21.9371 64.2394 22.1143C63.8746 22.7996 63.6974 23.6178 63.6974 24.5688C63.6974 26.0462 64.3931 26.781 65.7871 26.781C66.5115 26.781 67.4026 26.4605 68.4526 25.8299C69.4818 25.2202 70.1828 24.6027 70.5658 23.9721C70.6856 23.7793 70.782 23.464 70.8472 23.0263C70.9175 22.5859 70.9306 22.2498 70.8967 22.0075C71.3084 22.0049 71.7618 21.8955 72.2646 21.687C72.6346 21.5098 73.0046 21.3326 73.3694 21.1555C73.8723 22.0622 74.4091 22.5156 74.9719 22.5156C75.6024 22.5156 75.9125 21.9476 75.9125 20.8141C75.9047 20.0481 75.5164 19.6729 74.7556 19.6729Z" fill="white"/>
<path d="M49.5776 16.8746L48.4285 16.1997L47.8761 17.1951L49.0252 17.8699L49.5776 16.8746Z" fill="white"/>
<path d="M68.4578 18.2791C68.1686 18.0029 67.8377 17.7944 67.4625 17.6485C66.798 17.4062 65.748 17.3723 64.3123 17.5391C62.1913 17.7605 60.5993 17.9429 59.5362 18.081C57.879 18.2296 56.6466 18.2426 55.8441 18.1253C54.9425 18.0055 54.4943 17.8048 54.4943 17.5182C54.4943 17.242 54.9477 16.7887 55.8441 16.1581C57.4543 15.0533 58.7076 14.5009 59.604 14.5009C59.7316 14.5009 59.8124 14.5322 59.8593 14.5895C59.9818 14.7432 60.0469 14.8214 60.0599 14.8214C60.1251 14.8214 60.2032 14.6937 60.2814 14.4436C60.3648 14.1909 60.4013 14.0006 60.4013 13.8704C60.4013 13.5655 60.2814 13.417 60.0365 13.417C59.0854 13.417 57.8243 13.959 56.2557 15.0429C54.6533 16.1477 53.856 17.1977 53.856 18.1931C53.856 18.7246 54.3745 19.0503 55.4037 19.165C56.399 19.29 57.8426 19.2405 59.7264 19.0321C62.0037 18.7715 63.5749 18.5996 64.4348 18.5136C65.4457 18.425 66.1935 18.4589 66.6678 18.6022C67.5485 18.8627 68.0982 19.277 68.3249 19.8529C66.2248 20.2619 63.885 20.6163 61.3158 20.9133C58.7389 21.2182 56.6831 21.3667 55.1457 21.3667C55.1405 21.3667 55.1353 21.3667 55.1301 21.3693C55.1249 21.3693 55.1197 21.3667 55.1171 21.3667C52.092 21.3667 50.2133 20.7466 49.4785 19.5089C49.3743 19.3369 49.3066 19.2536 49.2805 19.2536C49.2466 19.2536 49.1919 19.449 49.1085 19.8346C49.02 20.2228 48.9913 20.4313 49.0043 20.46C49.6401 21.312 49.9554 21.9869 49.9554 22.4949C49.9554 22.6226 49.9111 22.7268 49.8225 22.8154C49.4916 23.1802 48.8714 23.6336 47.9647 24.1756C46.7817 24.8556 45.8203 25.1918 45.0672 25.1918C43.8296 25.1918 43.212 24.5846 43.212 23.3782C43.212 23.0135 43.2772 22.5835 43.4101 22.0859C43.5377 21.6664 43.5872 21.4449 43.5768 21.4345C43.4934 21.4006 43.4101 21.4788 43.3215 21.6559C42.9463 22.3412 42.7587 23.1594 42.7587 24.1104C42.7587 25.5852 43.4622 26.32 44.8588 26.32C45.7655 26.32 46.8547 25.9005 48.121 25.0589C49.2597 24.2954 49.9241 23.6779 50.1117 23.2011C50.2993 22.7868 50.3879 22.3282 50.3879 21.8201C51.266 22.2396 52.759 22.4506 54.8643 22.4506C54.8643 22.4506 54.8669 22.4506 54.8695 22.4506H54.8722C56.5241 22.4506 59.1063 22.2188 62.6239 21.755C65.5656 21.3407 67.2957 21.0697 67.809 20.9368C68.0227 20.8925 68.2285 20.8482 68.4161 20.8039C68.4604 20.8039 68.5829 20.5954 68.7809 20.1786C68.9816 19.759 69.0806 19.5219 69.0806 19.4672C69.0754 19.0321 68.8643 18.6386 68.4578 18.2791Z" fill="white"/>
<path d="M42.8368 25.5591L42.2844 26.5545L41.1588 25.89L40.6924 26.7186L39.5433 26.0438L40.0957 25.0484L41.224 25.7129L41.6877 24.8843" fill="white"/>
<path d="M47.4045 15.6397C47.4045 15.8221 47.3654 16.0149 47.2847 16.2207C47.2065 16.4187 47.1414 16.523 47.084 16.523C47.0554 16.523 46.9642 16.4187 46.8026 16.2077C46.6489 15.9992 46.5108 15.8924 46.3883 15.8924C46.0574 15.8924 45.5363 16.2285 44.8302 16.9164C44.1241 17.5965 43.7697 18.115 43.7697 18.4693C43.7697 18.6361 43.9417 18.8055 44.2882 18.9774C44.5853 19.1312 44.8745 19.2198 45.1507 19.2432C45.9245 19.3162 46.4509 19.4308 46.7323 19.5872C46.9876 19.7409 47.1179 19.9624 47.1179 20.262C47.1179 20.8431 46.9746 21.3173 46.675 21.6899C46.2007 22.297 45.2601 22.9276 43.8661 23.579C42.3522 24.2747 41.0312 24.629 39.9082 24.629C38.4595 24.629 37.4641 23.988 36.9352 22.7061C36.6486 21.9921 36.6147 21.1349 36.8466 20.1291C36.9795 19.5533 37.1723 19.0061 37.4328 18.4824C37.61 18.128 37.7195 17.9639 37.7742 17.9847C37.8289 18.0082 37.8028 18.1932 37.6752 18.5605C37.3781 19.4048 37.2218 20.0744 37.2218 20.5721C37.2218 21.359 37.4537 22.0104 37.9279 22.5289C38.4699 23.1256 39.2542 23.4252 40.2834 23.4252C41.1458 23.4252 42.1177 23.2142 43.2017 22.7947C44.0094 22.4846 44.8041 22.0912 45.5884 21.6117C46.2528 21.2131 46.5838 20.9812 46.5838 20.9056C46.5838 20.6998 46.2867 20.5643 45.69 20.4965C44.0537 20.3141 43.2355 19.8555 43.2355 19.126C43.2355 18.2635 43.6629 17.3125 44.5175 16.2624C45.3409 15.2566 46.0444 14.7485 46.6307 14.7485C46.8365 14.7485 47.0163 14.8371 47.1726 15.0195C47.3264 15.1915 47.4045 15.4025 47.4045 15.6397Z" fill="white"/>
<path d="M69.6877 11.8823C69.6877 11.9136 69.6564 12.0126 69.5835 12.1794C69.5131 12.3409 69.4584 12.4295 69.4115 12.4425C67.426 13.107 65.8522 13.6437 64.6875 14.058C62.478 14.8293 60.899 15.4312 59.9453 15.8533C59.9453 15.7464 59.9844 15.6266 60.0704 15.4911C60.1512 15.3608 60.2293 15.2774 60.2945 15.2357C63.0225 14.0945 66.1519 12.9793 69.6877 11.8823Z" fill="white"/>
<path d="M53.2646 24.1802C53.2828 24.2114 53.2724 24.287 53.2229 24.3912C53.1734 24.4928 53.1369 24.5502 53.1134 24.5606C52.4281 24.8159 51.7403 25.0713 51.0524 25.3293C50.1795 25.6628 49.5463 25.939 49.1581 26.1604C49.1373 26.1161 49.1347 26.0302 49.1581 25.9103C49.1816 25.8009 49.2102 25.7357 49.2415 25.7123C50.4713 25.1573 51.8106 24.6466 53.2646 24.1802Z" fill="white"/>
<path d="M75.7561 24.1231C75.7561 24.4201 75.704 24.5712 75.5945 24.5712C75.3001 24.5712 75.0395 24.4722 74.8076 24.269C74.779 24.4383 74.706 24.5999 74.5862 24.7536C74.4455 24.9152 73.9973 25.1549 73.2417 25.4728C72.6189 25.7542 72.2489 25.9079 72.1317 25.9444C71.6288 26.0512 71.191 26.1294 70.8237 26.1789H70.7429C70.7246 26.1711 70.7168 26.1607 70.7299 26.1502C70.7299 26.132 70.7533 26.1164 70.8028 26.1059C70.9357 26.0695 71.2822 25.9366 71.8477 25.7151C72.4886 25.465 72.9551 25.2747 73.2443 25.1419C73.9504 24.8448 74.3907 24.6077 74.5679 24.4357C74.6695 24.3315 74.7373 24.2455 74.766 24.1648C74.8024 24.0319 74.8832 23.8886 75.0057 23.7348C75.1229 23.5811 75.2271 23.5029 75.3105 23.5029C75.4174 23.5029 75.519 23.5681 75.6154 23.7062C75.7066 23.8417 75.7561 23.9798 75.7561 24.1231ZM75.4981 24.2117C75.4981 23.9902 75.42 23.8807 75.2636 23.8807C75.1307 23.8807 75.0656 23.925 75.0656 24.0136C75.0656 24.0319 75.1177 24.0683 75.2245 24.1205C75.3236 24.1726 75.4174 24.2012 75.4981 24.2117Z" fill="white"/>
<path d="M44.5618 11.3346C44.5618 11.3659 44.5384 11.4258 44.4915 11.5197C44.4446 11.6108 44.4159 11.6577 44.4055 11.6577C44.2752 11.6395 44.1319 11.5952 43.9652 11.5249C43.6577 12.0043 43.0245 12.5124 42.0683 13.0439C41.9901 13.083 41.7895 13.1638 41.4664 13.2915C41.1433 13.4139 40.9739 13.4739 40.9505 13.4608C40.9426 13.4426 41.1094 13.3358 41.4533 13.1377C42.6415 12.5046 43.444 11.9496 43.8531 11.478C43.4987 11.3164 43.319 11.1236 43.319 10.8943C43.319 10.7692 43.3945 10.6103 43.5483 10.4227C43.6968 10.2325 43.8427 10.1387 43.9808 10.1387C44.1528 10.1387 44.2413 10.3315 44.2413 10.7197C44.2413 10.8682 44.2179 11.0194 44.1632 11.1679C44.4289 11.2565 44.5618 11.3112 44.5618 11.3346ZM44.0277 11.1236C44.1137 10.7562 44.059 10.5712 43.8557 10.5712C43.6733 10.5712 43.5795 10.6468 43.5795 10.8005C43.5795 10.9099 43.728 11.0168 44.0277 11.1236Z" fill="white"/>
<path d="M44.4263 13.3907C44.4263 13.7816 44.3377 14.1073 44.1501 14.3809C43.9729 14.6414 43.7853 14.7769 43.5873 14.7769C43.4674 14.7769 43.371 14.73 43.2954 14.6388C42.9984 14.9385 42.7326 15.0948 42.5059 15.0948C42.175 15.0948 42.0031 14.8994 42.0031 14.5086C42.0031 14.3652 42.0578 14.1516 42.175 13.8572C42.2871 13.5653 42.3809 13.4142 42.4564 13.4142C42.5164 13.4142 42.545 13.4715 42.5268 13.5966C42.4955 13.8624 42.4773 14.0005 42.4773 14.0005C42.4773 14.0864 42.5424 14.1307 42.6805 14.1307C42.8811 14.1307 43.0609 14.0265 43.2277 13.8129C43.3944 13.6044 43.47 13.4924 43.4544 13.4924C43.5247 13.4924 43.5742 13.5445 43.5977 13.6539C43.6211 13.7581 43.6524 13.8102 43.7019 13.8102C43.8791 13.8102 44.0224 13.706 44.1266 13.4898C44.2308 13.2813 44.2908 13.1719 44.309 13.1719C44.3872 13.1771 44.4263 13.2474 44.4263 13.3907Z" fill="white"/>
<path d="M55.3152 10.3498C55.3542 10.3941 55.3542 10.5062 55.3152 10.6912C55.2865 10.8709 55.25 10.9648 55.1953 10.9648C55.1953 10.9648 55.1588 10.91 55.0781 10.785C55.0025 10.6625 54.9217 10.6 54.8253 10.6C54.6455 10.6 54.5178 10.9986 54.4345 11.8038C54.3589 12.6063 54.2886 13.0023 54.2208 12.9867C54.1452 12.9867 54.0645 12.8121 53.9707 12.4552C53.8664 12.0174 53.6893 11.6709 53.4417 11.4233C53.4313 11.452 53.4131 11.4781 53.3844 11.5119C53.3479 11.5276 53.2411 11.4833 53.0613 11.366C52.8893 11.254 52.7955 11.1471 52.7799 11.0586C52.7434 10.6443 52.8034 10.4358 52.9753 10.4358C53.2828 10.4254 53.6163 10.811 53.9681 11.6057C54.015 11.7725 54.0853 11.9653 54.1817 12.179C54.2182 11.7985 54.2703 11.4155 54.3381 11.0299C54.4423 10.329 54.6038 9.98243 54.8227 9.99806C54.9921 10.0007 55.151 10.1127 55.3152 10.3498Z" fill="white"/>
<path d="M62.3633 23.7375C62.3997 23.7818 62.3997 23.8939 62.3633 24.0789C62.3346 24.2586 62.2981 24.3524 62.2434 24.3524C62.2434 24.3524 62.2069 24.2977 62.1235 24.1727C62.048 24.0502 61.9672 23.9877 61.8734 23.9877C61.6936 23.9877 61.5659 24.3863 61.4826 25.1915C61.407 25.994 61.334 26.3926 61.2689 26.3744C61.1933 26.3744 61.1126 26.2024 61.0162 25.8429C60.9119 25.4051 60.7374 25.0586 60.4898 24.811C60.4794 24.8397 60.4612 24.8657 60.4325 24.8996C60.396 24.9179 60.2892 24.871 60.1094 24.7537C59.9374 24.6417 59.8436 24.5348 59.828 24.4462C59.7915 24.032 59.8514 23.8235 60.0234 23.8235C60.3309 23.8131 60.6644 24.1987 61.0162 24.996C61.0631 25.1628 61.136 25.3556 61.2298 25.5667C61.2663 25.1862 61.3184 24.8058 61.3862 24.4176C61.4904 23.7167 61.6519 23.3701 61.8708 23.3858C62.0402 23.391 62.2017 23.503 62.3633 23.7375Z" fill="white"/>
<path d="M71.4543 15.7642C71.4543 16.3792 71.1807 16.6892 70.6284 16.6892C70.3548 16.6892 70.2167 16.5225 70.2167 16.1759C70.2167 15.7981 70.3417 15.4229 70.5919 15.0581C70.6544 14.8471 70.7065 14.7402 70.7456 14.7402C70.7847 14.7402 70.7925 14.7637 70.7638 14.8236C70.7274 14.9096 70.7065 14.9904 70.7065 15.0581C71.2042 15.3552 71.4543 15.5923 71.4543 15.7642ZM71.2198 15.9597C71.2198 15.9362 71.1234 15.8554 70.9332 15.7147C70.7456 15.5792 70.644 15.5089 70.631 15.5089C70.6075 15.5089 70.5684 15.5714 70.5215 15.7043C70.4772 15.8346 70.4538 15.9258 70.4538 15.9779C70.4538 16.1212 70.5267 16.1942 70.67 16.1942C70.7326 16.1942 70.8368 16.1655 70.9905 16.1082C71.1443 16.0509 71.2198 15.9987 71.2198 15.9597Z" fill="white"/>
<path d="M105.497 22.2004C105.497 22.5313 105.463 22.87 105.385 23.2192C105.265 23.8602 105.153 24.1807 105.064 24.1807C105.015 24.1807 104.981 24.0478 104.965 23.782C104.934 23.2192 104.91 22.8987 104.91 22.8309C104.772 21.45 104.418 19.1232 103.85 15.8557C103.691 14.949 103.475 13.5941 103.209 11.7884C103.076 11.6711 103.021 11.5825 103.042 11.5226C103.097 11.361 103.191 11.1239 103.318 10.8034C103.417 10.5377 103.485 10.4048 103.506 10.4048C103.55 10.4048 103.772 10.8295 104.168 11.6867C104.611 12.6378 104.804 13.1355 104.744 13.1798C104.689 13.211 104.572 13.1459 104.402 12.9583C104.353 12.9036 104.225 12.7707 104.014 12.5596C104.269 13.9198 104.645 16.0928 105.142 19.071C105.374 20.6266 105.497 21.6715 105.497 22.2004Z" fill="white"/>
<path d="M89.9229 17.9664L88.7738 17.2915L88.2214 18.2868L89.3705 18.9617L89.9229 17.9664Z" fill="white"/>
<path d="M97.2446 24.092L98.3937 24.7669L98.9461 23.7715L97.797 23.0967L97.2446 24.092Z" fill="white"/>
<path d="M102.135 17.0649C101.914 15.723 101.682 14.3785 101.44 13.0314C101.653 13.2477 101.781 13.3858 101.825 13.4405C101.989 13.6307 102.101 13.701 102.167 13.6724V13.6281C102.167 13.5291 101.974 13.047 101.593 12.1794C101.216 11.3169 100.997 10.887 100.942 10.887C100.908 10.887 100.819 11.0694 100.666 11.429C100.562 11.7051 100.494 11.8928 100.468 11.9918C100.449 12.0517 100.507 12.1455 100.621 12.268C100.864 13.959 101.064 15.1862 101.208 15.9601C101.596 18.1827 101.823 19.7565 101.893 20.6919C101.909 20.9811 101.755 21.2287 101.44 21.4319C101.166 21.6117 100.872 21.6977 100.556 21.7055C100.541 21.7003 100.525 21.6951 100.507 21.6951C100.152 21.6951 99.8762 21.5778 99.6782 21.3511C99.5115 21.1583 99.462 20.8535 99.5115 20.4444C99.5271 20.3115 99.4958 20.2437 99.4229 20.2437C99.3786 20.2437 99.2457 20.3115 99.0372 20.4444C98.4405 20.8092 97.6224 21.1062 96.5828 21.3511C95.6109 21.583 94.7197 21.6951 93.9172 21.6951C92.2262 21.6951 91.1709 21.4241 90.7436 20.8899C90.5012 20.5851 90.4335 20.2932 90.5455 20.0144C90.5846 19.9154 90.556 19.8711 90.4804 19.8711C90.3527 19.8711 90.1495 20.103 89.8603 20.5694C89.4408 21.2651 88.977 21.6091 88.4793 21.6091C88.461 21.6091 88.4428 21.6143 88.4272 21.6143C88.0754 21.57 87.8096 21.4084 87.6351 21.1322C87.398 20.7544 87.1869 19.9988 87.0045 18.8654C86.7622 17.3072 86.572 16.1451 86.4417 15.3843C86.0222 12.5884 85.6574 10.6238 85.3578 9.49298C85.2145 8.93017 85.1259 8.65137 85.0816 8.65137C85.0633 8.65137 85.0086 8.85721 84.92 9.25326C84.8262 9.65713 84.7819 9.89425 84.7819 9.9646C84.7819 9.9203 85.0581 11.4863 85.6001 14.6521C86.1473 17.8257 86.4183 19.6705 86.4183 20.202C86.4183 20.5773 86.2515 20.8769 85.9206 21.0854C85.2145 21.5387 84.3181 21.9582 83.2446 22.3465C81.9444 22.8233 80.824 23.0552 79.873 23.0552C78.9923 23.0552 78.3018 22.8337 77.7989 22.3986C77.2908 21.9556 77.0407 21.385 77.0407 20.6789C77.0407 20.4626 77.0954 20.1369 77.1944 19.707C77.2934 19.3578 77.3064 19.1754 77.2387 19.165C77.1605 19.1103 77.0667 19.2249 76.9495 19.4959C76.6628 20.1473 76.5195 20.7727 76.5195 21.3746C76.5195 22.2266 76.7853 22.9067 77.3142 23.42C77.8666 23.9724 78.6692 24.2486 79.714 24.2486C80.5713 24.2486 81.6656 24.0062 82.9971 23.5294C84.253 23.0552 85.2249 22.5679 85.9154 22.0598C86.3245 21.7576 86.5668 21.2756 86.6554 20.6111C86.8925 21.8983 87.3928 22.5888 88.1458 22.6956C88.164 22.706 88.1849 22.7139 88.2083 22.7139C88.2344 22.7139 88.2578 22.7086 88.2839 22.7086C88.3099 22.7086 88.3334 22.7139 88.3594 22.7139C88.4037 22.7139 88.4428 22.706 88.4819 22.693C88.9717 22.6174 89.3678 22.3413 89.6596 21.8514C89.9202 21.4215 90.0583 21.2104 90.0687 21.2104C90.3996 22.2709 91.593 22.8024 93.6488 22.8024C94.5556 22.8024 95.5926 22.6357 96.7547 22.3048C97.8334 21.9999 98.6177 21.6794 99.1102 21.3433C99.1936 22.3152 99.5688 22.8024 100.238 22.8024C100.275 22.8024 100.311 22.7972 100.343 22.7894C101.018 22.7582 101.549 22.4507 101.932 21.8644C102.297 21.2886 102.464 20.6111 102.453 19.8321C102.456 19.178 102.346 18.2609 102.135 17.0649Z" fill="white"/>
<path d="M80.0215 20.2881C80.9048 20.2542 81.4468 20.1761 81.6344 20.051C81.8298 19.9181 82.0487 19.681 82.2988 19.3397C82.6037 18.9202 82.7522 18.5658 82.7522 18.2792C82.7522 17.9926 82.5255 17.8467 82.0721 17.8467C81.6188 17.8467 81.3921 17.8024 81.3921 17.7138C81.3921 17.4089 81.624 17.2213 82.0773 17.151C82.1216 17.1353 82.1972 16.9972 82.304 16.7315C82.4135 16.4657 82.463 16.2885 82.463 16.1999C82.463 16.1556 82.4317 16.1348 82.364 16.1348C82.1269 16.1348 81.7933 16.4266 81.3738 17.0024C80.9491 17.5835 80.7381 18.0577 80.7381 18.4355C80.7381 18.8211 81.168 19.0218 82.0304 19.0322C81.9314 19.2094 81.637 19.4126 81.1471 19.6393C80.7693 19.7878 80.3837 19.9494 79.985 20.1135C79.8626 20.1578 79.8079 20.1969 79.8079 20.2256C79.8105 20.2829 79.8808 20.3011 80.0215 20.2881Z" fill="white"/>
<path d="M83.8361 14.8863C83.7449 15.212 83.599 15.3788 83.3984 15.3788C83.2864 15.3788 83.203 15.3371 83.1456 15.2537C83.0284 15.0661 82.9711 14.8629 82.9711 14.6466C82.9711 14.4929 82.9971 14.2818 83.0518 14.0082C83.1118 13.6747 83.2238 13.3021 83.3854 12.8826C83.4453 12.7289 83.4974 12.6533 83.5339 12.6533C83.5469 12.6585 83.5547 12.6768 83.5547 12.7054C83.5547 12.7523 83.5365 12.8279 83.5 12.9243C83.4349 13.1249 83.3385 13.5054 83.2108 14.063C83.1561 14.373 83.1691 14.6101 83.2525 14.7717C83.3072 14.8837 83.388 14.9384 83.4922 14.9384C83.5521 14.9384 83.6068 14.915 83.6511 14.8629C83.6772 14.8264 83.7163 14.7717 83.7658 14.6961C83.7918 14.6362 83.8127 14.6049 83.8257 14.6049C83.8856 14.6049 83.8935 14.6961 83.8361 14.8863Z" fill="white"/>
<path d="M96.5229 20.3583C96.4317 20.684 96.2858 20.8508 96.0851 20.8508C95.9731 20.8508 95.8897 20.8091 95.835 20.7257C95.7178 20.5381 95.6578 20.3349 95.6578 20.1186C95.6578 19.9649 95.6839 19.7538 95.7386 19.4829C95.7985 19.1467 95.9106 18.7741 96.0721 18.3572C96.132 18.2035 96.1842 18.1279 96.2206 18.1279C96.2337 18.1331 96.2415 18.1514 96.2415 18.18C96.2415 18.2269 96.2232 18.3025 96.1894 18.3989C96.1242 18.5995 96.0252 18.98 95.8975 19.5376C95.8428 19.8476 95.8559 20.0847 95.9392 20.2463C95.9939 20.3583 96.0747 20.413 96.179 20.413C96.2389 20.413 96.2936 20.3896 96.3379 20.3375C96.364 20.301 96.4004 20.2463 96.4525 20.1707C96.4786 20.1108 96.4994 20.0795 96.5151 20.0795C96.5724 20.0795 96.5802 20.1707 96.5229 20.3583Z" fill="white"/>
<path d="M100.809 15.7148C100.809 15.7461 100.778 15.8451 100.705 16.0119C100.635 16.1734 100.58 16.2646 100.533 16.2751C98.5475 16.9395 96.9737 17.4762 95.809 17.8905C93.5994 18.6618 92.0204 19.2637 91.0668 19.6832C91.0668 19.579 91.1085 19.4565 91.1919 19.3236C91.2726 19.1933 91.3508 19.1074 91.4159 19.0683C94.144 17.9296 97.2733 16.8118 100.809 15.7148Z" fill="white"/>
<path d="M83.4219 12.0441C83.4219 12.0754 83.3984 12.1353 83.3515 12.2291C83.3046 12.3203 83.2759 12.3672 83.2629 12.3672C83.1326 12.349 82.9893 12.3047 82.8226 12.2343C82.5151 12.7138 81.8819 13.2219 80.9257 13.7534C80.8475 13.7925 80.6469 13.8759 80.3238 14.0009C80.0007 14.1234 79.8313 14.1833 79.8079 14.1703C79.8001 14.1521 79.9642 14.0452 80.3108 13.8472C81.4989 13.214 82.3015 12.659 82.7105 12.1874C82.3562 12.0259 82.1764 11.8331 82.1764 11.6038C82.1764 11.4787 82.2519 11.3198 82.4057 11.1322C82.5542 10.9446 82.7001 10.8481 82.8382 10.8481C83.0102 10.8481 83.0988 11.041 83.0988 11.4292C83.0988 11.5777 83.0753 11.7288 83.0206 11.8774C83.289 11.966 83.4219 12.0207 83.4219 12.0441ZM82.8877 11.8331C82.9737 11.4657 82.919 11.2807 82.7157 11.2807C82.5334 11.2807 82.4422 11.3562 82.4422 11.51C82.4395 11.6194 82.5881 11.7262 82.8877 11.8331Z" fill="white"/>
<path d="M95.1679 11.1033C95.194 11.132 95.194 11.2336 95.1679 11.4108C95.1523 11.4785 95.1236 11.4811 95.0793 11.4108C95.022 11.3039 94.9438 11.2518 94.8552 11.2518C94.725 11.2518 94.6572 11.3404 94.6572 11.5306C94.6416 11.8694 94.6259 12.2706 94.6051 12.7344C94.6468 12.7344 94.7328 12.7996 94.8605 12.9272C94.9881 13.0549 95.0559 13.1383 95.0637 13.1774C95.0715 13.2295 95.0637 13.2972 95.0324 13.3806C95.0038 13.4588 94.9803 13.5005 94.9621 13.5005C94.7797 13.5187 94.5895 13.576 94.3914 13.6698C94.1934 13.761 94.097 13.8522 94.1074 13.9382C94.4305 15.7804 94.5921 16.7888 94.5921 16.9555C94.5921 17.0806 94.579 17.1431 94.5556 17.1431C94.54 17.1353 94.5269 17.1014 94.5165 17.0441C94.4592 16.635 94.3576 16.0436 94.2169 15.2749C94.0762 14.5974 94.0058 14.1727 94.0058 13.9955C94.0058 13.7819 94.0684 13.5891 94.2038 13.4223C94.3133 13.279 94.4462 13.1904 94.6051 13.1591C94.5634 13.1227 94.4983 13.0992 94.4149 13.0992C94.3602 13.0992 94.3159 13.1409 94.2794 13.2243C94.2481 13.3077 94.2221 13.3494 94.2038 13.3494C94.196 13.3494 94.1908 13.3259 94.1908 13.2738C94.1908 13.1696 94.2169 13.0627 94.269 12.9507C94.3263 12.8074 94.3967 12.7318 94.4774 12.7318C94.4722 12.6641 94.4175 12.5286 94.3185 12.3332C94.2091 12.1013 94.1126 11.9527 94.0319 11.898C94.0162 11.9814 94.0006 12.0257 93.9798 12.0257C93.9485 12.0257 93.8599 11.9762 93.7192 11.872C93.5785 11.7703 93.5107 11.7 93.5107 11.6583C93.5107 11.3795 93.5472 11.2362 93.6306 11.2362C93.7583 11.2362 93.9042 11.3222 94.071 11.4994C94.2533 11.7026 94.4071 11.9736 94.5322 12.3045V12.2889C94.5322 12.1221 94.5348 11.8511 94.5452 11.4681C94.5764 11.0773 94.6728 10.8818 94.8318 10.8818C94.9334 10.887 95.0455 10.9574 95.1679 11.1033Z" fill="white"/>
<path d="M89.691 14.0629C89.691 14.6778 89.4175 14.9879 88.8677 14.9879C88.5941 14.9879 88.4534 14.8211 88.4534 14.4746C88.4534 14.0968 88.5784 13.7216 88.8286 13.3568C88.8911 13.1457 88.9432 13.0415 88.9823 13.0415C89.0214 13.0415 89.0292 13.065 89.0005 13.1223C88.9615 13.2083 88.9432 13.289 88.9432 13.3568C89.4409 13.6564 89.691 13.8909 89.691 14.0629ZM89.4565 14.2609C89.4565 14.2375 89.3601 14.1541 89.1673 14.016C88.9797 13.8831 88.8781 13.8102 88.8651 13.8102C88.8416 13.8102 88.8025 13.8727 88.753 14.0056C88.7113 14.1359 88.6853 14.2271 88.6853 14.2792C88.6853 14.4225 88.7582 14.4954 88.9015 14.4954C88.9641 14.4954 89.0683 14.4668 89.222 14.4095C89.3758 14.3521 89.4565 14.3 89.4565 14.2609Z" fill="white"/>
<path d="M62.7542 31.8777H106.763V31.4868H62.7542V31.8777Z" fill="white"/>
<path d="M0.388794 31.8777H44.3976V31.4868H0.388794V31.8777Z" fill="white"/>
<path d="M47.8057 30.7338C47.7067 30.3742 47.5322 29.9703 47.0475 29.9703C46.6202 29.9703 46.417 30.2726 46.417 30.5774C46.417 30.9735 46.6827 31.1637 47.1465 31.3878C47.6312 31.6249 48.1367 31.8907 48.1367 32.5056C48.1367 33.1049 47.626 33.5843 46.8443 33.5843C46.6072 33.5843 46.417 33.5426 46.271 33.4931C46.1277 33.4462 46.047 33.4019 45.987 33.3759C45.9479 33.2638 45.8646 32.7557 45.8307 32.4847L46.0027 32.4352C46.0991 32.7922 46.3779 33.3759 46.9641 33.3759C47.381 33.3759 47.626 33.1205 47.626 32.7166C47.626 32.3128 47.3185 32.1199 46.8834 31.8907C46.4873 31.69 45.9401 31.4112 45.9401 30.7963C45.9401 30.2387 46.3909 29.7749 47.1387 29.7749C47.4097 29.7749 47.665 29.84 47.8813 29.9104C47.9048 30.1084 47.9308 30.3377 47.9803 30.7051" fill="white"/>
<path d="M50.2576 30.5434H50.2446C50.0622 31.0046 49.8824 31.484 49.7104 31.9348H50.7579L50.2576 30.5434ZM50.8204 33.4956V33.334C51.1748 33.2845 51.2243 33.235 51.1487 33.0083C51.068 32.7868 50.9664 32.5054 50.8413 32.1849H49.614C49.5176 32.4429 49.4421 32.6592 49.3691 32.8806C49.2466 33.222 49.2935 33.2871 49.7261 33.3314V33.493H48.465V33.3314C48.835 33.2741 48.9157 33.235 49.119 32.7373L50.3202 29.819L50.5182 29.7695C50.8856 30.7597 51.253 31.755 51.6308 32.7373C51.8132 33.2298 51.894 33.2923 52.2666 33.3314V33.493" fill="white"/>
<path d="M55.8154 33.496V33.3345C56.2792 33.2875 56.3027 33.2511 56.2949 32.6622L56.2766 30.4162H56.2532L54.8514 33.4595H54.7367L53.4469 30.4917H53.4313L53.3479 32.0629C53.3245 32.5267 53.3245 32.7638 53.3375 32.9853C53.3479 33.2511 53.4834 33.2875 53.8612 33.3266V33.4934H52.5167V33.3266C52.8476 33.2954 52.9571 33.2146 53.004 32.9931C53.0352 32.7977 53.0691 32.5554 53.116 31.9561L53.1994 30.8305C53.2489 30.1035 53.215 30.0722 52.7017 30.0227V29.856H53.6762L54.9738 32.6049L56.2897 29.856H57.2928V30.0227C56.7925 30.0644 56.7587 30.0826 56.7769 30.6376L56.829 32.657C56.8473 33.2459 56.8629 33.2849 57.3606 33.3292V33.4908" fill="white"/>
<path d="M59.4372 30.5434H59.4268C59.2444 31.0046 59.0646 31.484 58.8926 31.9348H59.9401L59.4372 30.5434ZM60 33.4956V33.334C60.3544 33.2845 60.4039 33.235 60.3283 33.0083C60.2475 32.7868 60.1459 32.5054 60.0208 32.1849H58.7936C58.6972 32.4429 58.6216 32.6592 58.5487 32.8806C58.4262 33.222 58.4731 33.2871 58.9056 33.3314V33.493H57.6445V33.3314C58.0145 33.2741 58.0953 33.235 58.2985 32.7373L59.4997 29.819L59.7004 29.7695C60.0677 30.7597 60.4351 31.755 60.8129 32.7373C60.9953 33.2298 61.0761 33.2923 61.4487 33.3314V33.493" fill="white"/>
<path d="M5.07632 38.1836C4.83921 37.3211 4.41449 36.3466 3.2602 36.3466C2.23099 36.3466 1.74634 37.071 1.74634 37.8058C1.74634 38.7516 2.37951 39.2102 3.49992 39.7495C4.66463 40.3176 5.87624 40.9507 5.87624 42.4307C5.87624 43.8716 4.64639 45.0181 2.77556 45.0181C2.20754 45.0181 1.74634 44.9165 1.3998 44.7992C1.05064 44.6898 0.857829 44.5777 0.719732 44.5152C0.628536 44.2494 0.425299 43.03 0.341919 42.3786L0.75621 42.2588C0.985504 43.1108 1.65515 44.5152 3.05957 44.5152C4.06013 44.5152 4.64639 43.9003 4.64639 42.9388C4.64639 41.9669 3.91161 41.5057 2.86676 40.9559C1.9131 40.4791 0.599876 39.8095 0.599876 38.3321C0.599876 36.9928 1.68381 35.8828 3.47126 35.8828C4.12266 35.8828 4.73759 36.0392 5.25089 36.2033C5.30561 36.6801 5.37075 37.2325 5.49061 38.1106" fill="white"/>
<path d="M10.1234 41.5966C9.84722 41.7347 9.29743 41.9927 9.01342 42.1203C8.48188 42.3496 8.18744 42.6154 8.18744 43.1105C8.18744 43.8166 8.71899 44.1293 9.12286 44.1293C9.44335 44.1293 9.8863 43.926 10.1234 43.6889V41.5966ZM11.1969 44.9657C10.939 44.9657 10.6471 44.8458 10.4986 44.6999C10.3136 44.5253 10.2328 44.3403 10.1677 44.1319C9.61792 44.481 8.97433 44.9657 8.5887 44.9657C7.56991 44.9657 6.90027 44.1579 6.90027 43.3137C6.90027 42.6441 7.26766 42.2402 8.01026 42.0005C8.88054 41.7269 9.82637 41.3777 10.1208 41.1302V40.8905C10.1208 39.9264 9.68046 39.4131 9.02905 39.4131C8.79194 39.4131 8.5887 39.5043 8.45061 39.6502C8.27603 39.8248 8.15878 40.127 8.03632 40.5596C7.95294 40.7967 7.80702 40.8905 7.59597 40.8905C7.33019 40.8905 6.97323 40.6169 6.97323 40.2938C6.97323 40.0932 7.1478 39.9264 7.41357 39.744C7.80702 39.46 8.73462 38.9467 9.49546 38.8008C9.92799 38.8008 10.3214 38.9024 10.6341 39.1395C11.1396 39.5616 11.2855 40.1218 11.2855 40.8384V43.2512C11.2855 43.8479 11.5226 44.0511 11.7728 44.0511C11.9291 44.0511 12.1115 43.986 12.26 43.9026L12.3981 44.2622" fill="white"/>
<path d="M19.4099 44.4891C19.0972 44.5256 18.7116 44.609 18.3363 44.7002C17.9611 44.8018 17.5937 44.893 17.3097 44.966L17.2185 44.893V43.9393C16.9059 44.1686 16.6401 44.3979 16.2545 44.6272C15.8506 44.8487 15.5562 44.966 15.1705 44.966C14.2169 44.966 13.4456 44.3979 13.4456 42.957V40.3957C13.4456 39.6609 13.3362 39.5984 12.987 39.515L12.6196 39.4238V39.1033C12.8932 39.0929 13.2606 39.0486 13.6462 39.0121C14.0319 38.9652 14.4357 38.9027 14.6755 38.8662C14.639 39.2779 14.639 39.9215 14.639 40.81V42.6183C14.639 43.7387 15.207 44.0879 15.8141 44.0879C16.2909 44.0879 16.7782 43.9029 17.2185 43.4912V40.3983C17.2185 39.6635 17.0987 39.5828 16.6583 39.5098L16.1711 39.4264V39.1059C16.5567 39.0955 17.0414 39.0512 17.4556 38.9965C17.8595 38.9678 18.1904 38.9053 18.3989 38.8688V43.2905C18.3989 43.9888 18.5109 44.08 19.0425 44.1165L19.4099 44.1348" fill="white"/>
<path d="M24.8087 40.0101C24.4777 39.5411 23.9462 39.3118 23.4225 39.3118C22.844 39.3118 21.7054 39.7964 21.7054 41.7428C21.7054 43.3479 22.7242 44.0827 23.5684 44.0827C24.0192 44.0827 24.4778 43.8795 24.8061 43.6606V40.0101H24.8087ZM27.0286 44.4605C26.7368 44.5152 25.6711 44.6898 24.8087 44.966V44.1035L24.0009 44.5804C23.459 44.893 23.102 44.966 22.9535 44.966C21.8148 44.966 20.3583 43.9941 20.3583 42.1128C20.3583 40.2498 22.0285 38.8011 23.928 38.8011C24.1208 38.8011 24.4777 38.8376 24.8087 38.947V37.058C24.8087 36.1851 24.7175 36.1486 23.7534 36.0861V35.7369C24.5168 35.6457 25.4522 35.4451 25.9916 35.2705V43.2254C25.9916 43.9602 26.0932 44.0254 26.643 44.0801L27.0286 44.1166" fill="white"/>
<path d="M28.2663 36.9352C28.2663 36.5052 28.6155 36.1821 29.0194 36.1821C29.4232 36.1821 29.7359 36.5026 29.7359 36.9352C29.7359 37.3208 29.4232 37.6621 29.0011 37.6621C28.6129 37.6621 28.2663 37.3208 28.2663 36.9352ZM27.5498 44.8093V44.4497C28.4018 44.3664 28.5035 44.2856 28.5035 43.3476V40.6507C28.5035 39.8065 28.4566 39.7414 27.6514 39.6033V39.2828C28.3862 39.1655 29.0741 39.0092 29.689 38.7695V43.3476C29.689 44.2752 29.7802 44.3481 30.6531 44.4497V44.8093" fill="white"/>
<path d="M41.6278 42.5063C41.4454 43.1473 41.0676 44.2051 40.8305 44.6351C40.4266 44.7263 39.215 45.0207 38.1962 45.0207C34.6552 45.0207 33.0762 42.6809 33.0762 40.5625C33.0762 37.7354 35.3613 35.8828 38.5454 35.8828C39.7205 35.8828 40.7106 36.2033 41.0962 36.2685C41.2083 37.0319 41.3073 37.6077 41.3907 38.3712L40.9764 38.4624C40.6012 36.9772 39.684 36.3883 38.1858 36.3883C35.8459 36.3883 34.5978 38.2774 34.5978 40.2785C34.5978 42.8111 36.1482 44.4996 38.3056 44.4996C39.7283 44.4996 40.5074 43.7387 41.2317 42.3526" fill="white"/>
<path d="M45.2731 39.3033C44.6869 39.3033 44.098 39.8271 43.9052 40.9449C44.6296 40.9449 45.3539 40.9449 46.1148 40.9162C46.3545 40.9058 46.4352 40.8328 46.4352 40.6609C46.4352 39.9547 45.9949 39.3033 45.2783 39.3033H45.2731ZM47.639 43.6156C46.7583 44.7256 45.776 44.9653 45.3357 44.9653C43.655 44.9653 42.6649 43.6156 42.6649 42.12C42.6649 41.2315 42.9854 40.4212 43.5352 39.8271C44.1215 39.1861 44.8667 38.7979 45.591 38.7979H45.6014C46.7662 38.7979 47.6938 39.7984 47.6938 40.8641C47.6938 41.1221 47.6208 41.2419 47.3733 41.2966C47.1257 41.3331 45.4191 41.4712 43.8401 41.5259C43.8687 43.2613 44.8875 43.9934 45.8307 43.9934C46.3909 43.9934 46.9147 43.7824 47.4097 43.3238" fill="white"/>
<path d="M52.6886 44.8093V44.4498C53.4677 44.3664 53.5615 44.257 53.5615 43.3111V41.1276C53.5615 40.1922 53.1837 39.632 52.3499 39.632C51.8366 39.632 51.3311 39.9525 50.9194 40.2938V43.3945C50.9194 44.3117 50.9924 44.3664 51.7819 44.4498V44.8093H48.7542V44.4498C49.6635 44.3403 49.7365 44.2752 49.7365 43.3763V40.6795C49.7365 39.8066 49.6453 39.7545 48.9287 39.6242V39.2854C49.5801 39.1838 50.2863 39.0119 50.9194 38.7539V39.8352C51.193 39.6346 51.4874 39.4235 51.8366 39.1943C52.2222 38.9467 52.5636 38.8008 52.9674 38.8008C54.0488 38.8008 54.7366 39.5617 54.7366 40.8931V43.3945C54.7366 44.3117 54.82 44.3482 55.6095 44.4498V44.8093" fill="white"/>
<path d="M59.1454 44.7805C58.8979 44.9186 58.6868 44.9629 58.567 44.9629C57.6602 44.9629 57.1547 44.4496 57.1547 43.3657V39.5119H56.2271L56.162 39.3556L56.5398 38.9517H57.1547V37.9798L58.1553 37.0444L58.3377 37.0809V38.9517H59.862C60 39.0977 59.9531 39.3921 59.7708 39.5119H58.3377V42.8966C58.3377 43.9806 58.8067 44.163 59.1454 44.163C59.4659 44.163 59.7708 44.0327 59.9714 43.9337L60.0912 44.3011" fill="white"/>
<path d="M63.541 40.2498C63.9918 39.5151 64.552 38.8011 65.1825 38.8011C65.6776 38.8011 66.0085 39.1581 66.0085 39.489C66.0085 39.8017 65.8261 40.0753 65.5317 40.2134C65.3675 40.2785 65.2477 40.2499 65.1643 40.1769C64.9532 39.9841 64.7969 39.9033 64.5676 39.9033C64.2185 39.9033 63.8068 40.2967 63.5123 41.0133V43.4078C63.5123 44.2885 63.5775 44.3719 64.6406 44.4553V44.8149H61.3835V44.4553C62.2095 44.3719 62.3294 44.2912 62.3294 43.4078V40.6277C62.3294 39.773 62.2564 39.7183 61.493 39.6089V39.3066C62.173 39.1972 62.814 39.0408 63.5123 38.7568V40.2525" fill="white"/>
<path d="M70.1854 41.5966C69.9092 41.7347 69.3594 41.9927 69.0754 42.1203C68.5438 42.3496 68.2494 42.6154 68.2494 43.1105C68.2494 43.8166 68.781 44.1293 69.1848 44.1293C69.5053 44.1293 69.9483 43.926 70.1854 43.6889V41.5966ZM71.2589 44.9657C71.0009 44.9657 70.7091 44.8458 70.5606 44.6999C70.3756 44.5253 70.2948 44.3403 70.2297 44.1319C69.6799 44.481 69.0363 44.9657 68.6533 44.9657C67.6345 44.9657 66.9648 44.1579 66.9648 43.3137C66.9648 42.6441 67.3322 42.2402 68.0748 42.0005C68.9477 41.7269 69.8909 41.3777 70.1854 41.1302V40.8905C70.1854 39.9264 69.745 39.4131 69.0936 39.4131C68.8565 39.4131 68.6533 39.5043 68.5152 39.6502C68.3406 39.8248 68.2234 40.127 68.1009 40.5596C68.0175 40.7967 67.8716 40.8905 67.6605 40.8905C67.3948 40.8905 67.0378 40.6169 67.0378 40.2938C67.0378 40.0932 67.2124 39.9264 67.4781 39.744C67.8742 39.46 68.7992 38.9467 69.5626 38.8008C69.9952 38.8008 70.3886 38.9024 70.7013 39.1395C71.2068 39.5616 71.3527 40.1218 71.3527 40.8384V43.2512C71.3527 43.8479 71.5898 44.0511 71.8399 44.0511C71.9963 44.0511 72.1787 43.986 72.3272 43.9026L72.4653 44.2622" fill="white"/>
<path d="M72.5903 44.8095V44.4499C73.4424 44.3483 73.5622 44.2753 73.5622 43.3764V37.0813C73.5622 36.1719 73.471 36.1458 72.6268 36.0625V35.7316C73.3616 35.6482 74.2423 35.4189 74.7374 35.2651V43.3764C74.7374 44.2858 74.8572 44.3665 75.7483 44.4499V44.8095" fill="white"/>
<path d="M80.7928 43.0845C80.7928 44.085 81.0586 44.3404 81.921 44.3325C82.9945 44.3143 83.969 43.7645 83.969 42.3783C83.969 41.0286 83.0336 40.4137 81.3634 40.4137H80.7954V43.0845H80.7928ZM81.3895 39.9473C82.8773 39.9473 83.5 39.3688 83.5 38.2589C83.5 37.2948 82.9581 36.5339 81.71 36.5339C81.3791 36.5339 81.069 36.6069 80.9491 36.6981C80.8293 36.7815 80.7928 36.9352 80.7928 37.3495V39.9473H81.3895ZM82.9685 40.1193C84.3729 40.3017 85.4464 40.8905 85.4464 42.2376C85.4464 43.1366 84.9513 43.8349 84.1436 44.2752C83.4375 44.653 82.5021 44.8068 81.4077 44.8068H78.2523V44.4211C79.4275 44.3378 79.5186 44.2466 79.5186 43.1183V37.7872C79.5186 36.6408 79.4535 36.5574 78.3722 36.4844V36.0806H82.007C83.0545 36.0806 83.6485 36.2369 84.1097 36.5496C84.5866 36.8701 84.881 37.4563 84.881 38.0817C84.881 39.3584 83.771 39.8796 82.9737 40.0724" fill="white"/>
<path d="M89.8342 41.5966C89.558 41.7347 89.0082 41.9927 88.7242 42.1203C88.1927 42.3496 87.8983 42.6154 87.8983 43.1105C87.8983 43.8166 88.4298 44.1293 88.8337 44.1293C89.1542 44.1293 89.5971 43.926 89.8342 43.6889V41.5966ZM90.9077 44.9657C90.6498 44.9657 90.358 44.8458 90.2094 44.6999C90.027 44.5253 89.9437 44.3403 89.8785 44.1319C89.3287 44.481 88.6851 44.9657 88.2995 44.9657C87.2807 44.9657 86.6111 44.1579 86.6111 43.3137C86.6111 42.6441 86.9785 42.2402 87.7211 42.0005C88.594 41.7269 89.5372 41.3777 89.8316 41.1302V40.8905C89.8316 39.9264 89.3913 39.4131 88.7399 39.4131C88.5028 39.4131 88.2995 39.5043 88.1614 39.6502C87.9869 39.8248 87.8696 40.127 87.7471 40.5596C87.6637 40.7967 87.5178 40.8905 87.3068 40.8905C87.041 40.8905 86.684 40.6169 86.684 40.2938C86.684 40.0932 86.8586 39.9264 87.1244 39.744C87.5204 39.46 88.4454 38.9467 89.2089 38.8008C89.6414 38.8008 90.0349 38.9024 90.3475 39.1395C90.8504 39.5616 90.9989 40.1218 90.9989 40.8384V43.2512C90.9989 43.8479 91.2361 44.0511 91.4862 44.0511C91.6425 44.0511 91.8249 43.986 91.9708 43.9026L92.1089 44.2622" fill="white"/>
<path d="M96.4056 44.8093V44.4498C97.1847 44.3664 97.2759 44.257 97.2759 43.3111V41.1276C97.2759 40.1922 96.8981 39.632 96.0643 39.632C95.551 39.632 95.0455 39.9525 94.6338 40.2938V43.3945C94.6338 44.3117 94.7067 44.3664 95.4962 44.4498V44.8093H92.4685V44.4498C93.3753 44.3403 93.4508 44.2752 93.4508 43.3763V40.6795C93.4508 39.8066 93.3596 39.7545 92.6431 39.6242V39.2854C93.2945 39.1838 94.0006 39.0119 94.6338 38.7539V39.8352C94.9074 39.6346 95.2018 39.4235 95.5509 39.1943C95.9366 38.9467 96.2753 38.8008 96.6792 38.8008C97.7631 38.8008 98.451 39.5617 98.451 40.8931V43.3945C98.451 44.3117 98.5344 44.3482 99.3213 44.4498V44.8093" fill="white"/>
<path d="M104.827 44.8383C104.204 44.1582 103.35 43.0483 102.636 42.1962C102.469 41.9956 102.359 41.9226 102.24 41.9226C102.185 41.9122 102.12 41.9226 102.039 41.9409V43.4C102.039 44.2911 102.159 44.3537 103.029 44.4553V44.8149H99.8737V44.4553C100.78 44.3537 100.874 44.2625 100.874 43.4V37.0866C100.874 36.2137 100.791 36.1408 99.9675 36.0574V35.7369C100.608 35.6718 101.437 35.4529 102.042 35.2705V41.5917C102.445 41.5083 102.664 41.3259 102.886 41.1253C103.18 40.8413 103.592 40.2993 103.821 39.9502C104.095 39.5463 104.04 39.4369 103.417 39.3639V38.9965L106.281 38.8767V39.2258C105.353 39.3743 105.007 39.5203 104.483 40.0049C104.123 40.3436 103.897 40.6016 103.337 41.2452C103.621 41.6569 105.033 43.2645 105.465 43.7231C105.934 44.2104 106.32 44.4292 106.815 44.4579V44.8175" fill="white"/>
<path d="M134.414 36.1717H133.929C133.945 35.5489 134.414 35.5776 134.414 35.5776V36.1717ZM135.375 32.7739C134.93 33.1127 134.484 33.4514 133.997 33.725C134.111 33.8553 134.234 33.9882 134.354 34.1184C134.354 34.267 134.354 34.4207 134.359 34.5718C133.966 34.7177 133.494 34.8141 133.265 35.2024C132.949 35.7339 133.061 36.3749 133.03 36.9611C133.814 36.9638 134.596 36.9664 135.38 36.9611C135.37 35.5645 135.352 34.1679 135.375 32.7739Z" fill="white"/>
<path d="M146.618 36.2707C146.376 36.2707 146.181 36.0753 146.181 35.833C146.181 35.5907 146.376 35.3953 146.618 35.3953C146.861 35.3953 147.056 35.5907 147.056 35.833C147.056 36.0753 146.861 36.2707 146.618 36.2707ZM147.919 35.5021C147.674 35.0409 147.298 34.5198 146.717 34.5302C146.274 34.4937 145.912 34.8142 145.652 35.1347C145.316 35.6793 145.24 36.3411 145.323 36.9638C145.774 37.0707 146.272 36.9482 146.743 37.0186C146.577 37.7742 145.712 37.8836 145.068 37.8002C145.078 37.868 145.097 38.0035 145.104 38.0712C145.456 38.2145 145.818 38.3422 146.199 38.3943C147.567 38.3969 148.567 36.7033 147.919 35.5021Z" fill="white"/>
<path d="M141.741 33.5923H140.756L142.952 35.9895H140.993V35.9686C140.995 35.88 140.985 35.794 140.969 35.7106C140.972 35.7341 140.975 35.7576 140.975 35.781L140.962 35.6872C140.964 35.695 140.967 35.7028 140.969 35.7106C140.964 35.6768 140.964 35.6455 140.959 35.6142C140.878 35.0462 140.399 34.6111 139.812 34.6007C139.807 34.5981 139.799 34.598 139.792 34.598H137.332C137.202 34.4782 137.069 34.3557 136.938 34.2411C136.665 34.7283 136.326 35.1765 135.987 35.6194C136.206 35.6168 136.493 35.6142 136.816 35.6116C136.985 35.6116 137.16 35.609 137.35 35.609H139.823V35.9895H135.987V36.9587H136.699C138.835 36.9718 141.636 36.9587 143.846 36.9587L144.146 37.2896H145.123L142.16 33.7825C142.053 33.6626 141.9 33.5923 141.741 33.5923Z" fill="white"/>
<path d="M146.736 23.0343H145.977V22.5366L146.186 22.276H146.527L146.736 22.5366V23.0343ZM147.697 22.2656C147.629 22.0598 147.46 21.9165 147.356 21.7341C147.468 21.4735 147.76 21.2859 147.726 20.9706C147.726 20.8091 147.723 20.6501 147.721 20.4886C147.726 19.9206 147.715 19.3525 147.721 18.7845C147.721 18.6282 147.721 18.4718 147.726 18.3181C147.767 18.2947 147.83 18.266 147.893 18.2321C147.932 18.2113 147.971 18.193 148.01 18.1722C148.02 18.167 148.028 18.1618 148.036 18.1592C148.064 18.1461 148.091 18.1305 148.111 18.1227C147.976 18.0185 147.846 17.9038 147.726 17.7866C147.619 17.6849 147.515 17.5755 147.413 17.4661C147.34 17.3879 147.27 17.3097 147.197 17.2316C147.145 17.1716 147.09 17.1143 147.035 17.057C146.931 16.945 146.824 16.8329 146.715 16.7261C146.71 17.1586 146.707 17.5911 146.704 18.0263C146.704 18.279 146.707 18.5318 146.707 18.7845C146.707 19.1232 146.71 19.462 146.707 19.8007C146.699 20.0326 146.717 20.2932 146.707 20.5459C146.699 20.7465 146.676 20.942 146.605 21.1165C146.574 21.1191 146.535 21.1191 146.493 21.1165H146.488C146.446 21.1165 146.4 21.1139 146.358 21.1139V21.1165C146.235 21.1165 146.134 21.1165 146.11 21.1165C146.04 20.9394 146.016 20.7439 146.009 20.5459C145.998 20.2932 146.016 20.0352 146.009 19.8007C146.009 19.462 146.009 19.1232 146.009 18.7845C146.009 18.5318 146.009 18.2764 146.011 18.0263C146.009 17.5937 146.003 17.1586 146.001 16.7261C145.889 16.8329 145.785 16.945 145.68 17.057C145.626 17.1143 145.574 17.1716 145.519 17.2316C145.446 17.3097 145.376 17.3879 145.303 17.4661C145.201 17.5755 145.097 17.6823 144.99 17.7866C144.867 17.9038 144.74 18.0185 144.604 18.1227C144.625 18.1331 144.651 18.1461 144.68 18.1592C144.688 18.1644 144.698 18.1696 144.706 18.1722C144.745 18.1904 144.784 18.2113 144.823 18.2321C144.886 18.2634 144.948 18.2947 144.99 18.3181C144.995 18.4718 144.995 18.6282 144.995 18.7845C145 19.3525 144.987 19.9206 144.995 20.4886C144.995 20.6475 144.992 20.8091 144.99 20.9706C144.956 21.2859 145.245 21.4735 145.36 21.7341C145.253 21.9165 145.086 22.0624 145.019 22.2656C144.972 22.8258 145.021 23.386 144.99 23.9462H147.726C147.694 23.386 147.741 22.8232 147.697 22.2656Z" fill="white"/>
<path d="M143.32 18.8964C143.273 18.542 143.606 18.344 143.799 18.1043C143.44 17.9141 143.072 17.6978 142.859 17.3408C142.715 17.0933 142.528 16.877 142.296 16.7129C142.306 19.1231 142.275 21.5359 142.311 23.9461H143.328C143.328 22.2628 143.315 20.5796 143.32 18.8964Z" fill="white"/>
<path d="M133.945 22.9667C133.947 22.9615 133.95 22.9563 133.95 22.9511C134.005 22.4169 134.427 22.443 134.427 22.443V23.0371H133.942C133.942 23.0136 133.945 22.9902 133.947 22.9667H133.945ZM141.363 23.9464C141.399 22.2476 141.342 20.3324 141.352 18.657C141.306 18.3392 141.571 18.1516 141.767 17.9561C141.167 17.6617 140.881 17.0259 140.352 16.6455C140.362 18.7352 140.365 20.8249 140.347 22.9146C138.684 22.9042 137.024 22.912 135.365 22.9381C135.388 21.8463 135.352 20.7546 135.378 19.6628C134.937 20.0198 134.453 20.3064 133.973 20.6034C134.106 20.7337 134.242 20.8614 134.382 20.9891C134.375 21.1584 134.364 21.3304 134.349 21.4998C133.986 21.6665 133.549 21.7577 133.304 22.1017C132.965 22.5629 133.043 23.3497 133.046 23.9464" fill="white"/>
<path d="M144.878 31.1059H144.12V30.6082L144.328 30.3476H144.669L144.878 30.6082V31.1059ZM145.839 30.3372C145.772 30.134 145.602 29.9881 145.498 29.8057C145.61 29.5451 145.902 29.3575 145.865 29.0422C145.865 28.8807 145.863 28.7217 145.86 28.5602C145.868 27.9922 145.855 27.4241 145.86 26.8561C145.86 26.6998 145.863 26.5434 145.865 26.3897C145.907 26.3689 145.97 26.3376 146.032 26.3063C146.074 26.2855 146.113 26.2646 146.149 26.2464C146.16 26.2412 146.168 26.236 146.178 26.2334C146.207 26.2204 146.233 26.2047 146.254 26.1969C146.115 26.0927 145.988 25.978 145.865 25.8608C145.759 25.7592 145.654 25.6497 145.553 25.5403C145.48 25.4621 145.407 25.3839 145.336 25.3058C145.282 25.2485 145.23 25.1885 145.175 25.1312C145.071 25.0192 144.964 24.9071 144.854 24.8003C144.849 25.2328 144.847 25.6654 144.844 26.0979C144.844 26.3506 144.847 26.606 144.847 26.8561C144.847 27.1948 144.847 27.5362 144.847 27.8749C144.839 28.1068 144.857 28.3674 144.847 28.6175C144.839 28.8181 144.815 29.0136 144.745 29.1907C144.714 29.1907 144.675 29.1907 144.635 29.1907H144.63C144.589 29.1907 144.542 29.1881 144.5 29.1881V29.1907C144.378 29.1907 144.276 29.1907 144.252 29.1907C144.182 29.0136 144.159 28.8181 144.151 28.6175C144.14 28.3674 144.159 28.1068 144.151 27.8749C144.151 27.5362 144.151 27.1948 144.151 26.8561C144.151 26.6034 144.151 26.3506 144.153 26.0979C144.148 25.6654 144.146 25.2328 144.143 24.8003C144.031 24.9071 143.927 25.0192 143.82 25.1312C143.765 25.1885 143.713 25.2485 143.658 25.3058C143.588 25.3839 143.515 25.4621 143.442 25.5403C143.341 25.6497 143.236 25.7565 143.129 25.8608C143.007 25.978 142.879 26.0927 142.741 26.1969C142.762 26.2073 142.788 26.2204 142.817 26.2334C142.827 26.2386 142.835 26.2438 142.845 26.2464C142.882 26.2646 142.924 26.2855 142.963 26.3063C143.028 26.3376 143.088 26.3689 143.132 26.3897C143.137 26.546 143.137 26.7024 143.137 26.8561C143.142 27.4241 143.129 27.9922 143.137 28.5602C143.137 28.7217 143.135 28.8807 143.135 29.0422C143.098 29.3575 143.39 29.5451 143.502 29.8057C143.398 29.9881 143.228 30.134 143.161 30.3372C143.116 30.8974 143.163 31.4602 143.132 32.0204H145.871C145.837 31.4602 145.884 30.8974 145.839 30.3372Z" fill="white"/>
<path d="M141.438 26.94C141.405 26.6481 141.665 26.4866 141.855 26.325C141.879 26.2834 141.923 26.2 141.947 26.1583C141.225 25.9655 141.016 25.1708 140.414 24.832C140.427 27.2292 140.498 29.6237 140.446 32.0209H141.459C141.475 30.3273 141.478 28.6336 141.438 26.94Z" fill="white"/>
<path d="M147.616 26.9691C147.569 26.6148 147.903 26.4168 148.096 26.177C147.736 25.9868 147.369 25.7706 147.155 25.4136C147.012 25.1661 146.827 24.9498 146.592 24.7856C146.603 27.1958 146.571 29.6086 146.611 32.0188H147.627C147.627 30.3356 147.611 28.6524 147.616 26.9691Z" fill="white"/>
<path d="M134.44 31.1766H133.955C133.971 30.5539 134.44 30.5851 134.44 30.5851V31.1766ZM139.08 25.4156C138.932 25.155 138.757 24.9127 138.533 24.7173C138.51 24.9466 138.497 25.1785 138.505 25.4104C138.551 27.2942 138.476 29.1755 138.518 31.0593C138.085 31.0593 137.65 31.0724 137.22 31.0698C137.233 29.6575 137.207 28.2453 137.22 26.8304C137.173 26.523 137.457 26.3406 137.629 26.1295C137.053 25.7908 136.694 25.2228 136.206 24.7798C136.248 26.8747 136.238 28.9722 136.206 31.0646C135.933 31.0672 135.662 31.0724 135.391 31.075C135.401 29.9754 135.401 28.8784 135.386 27.7789C134.945 28.1228 134.502 28.4589 134.015 28.7325C134.328 28.9462 134.432 29.2745 134.396 29.6419C134.002 29.7852 133.546 29.892 133.301 30.2646C132.965 30.7858 133.072 31.4293 133.061 32.0156H139.401C139.432 32.0156 139.466 32.0156 139.497 32.0156C139.466 30.6815 139.419 29.3449 139.482 28.0056C139.505 27.5392 139.385 27.0649 139.518 26.6064C139.617 26.4057 139.802 26.2702 139.953 26.1087C139.641 25.9133 139.265 25.7543 139.08 25.4156Z" fill="white"/>
<path d="M119.213 17.8279C120.195 15.561 121.492 13.4139 123.15 11.5718C123.447 11.6838 123.647 11.947 123.871 12.158C123.527 12.6531 123.035 13.0283 122.759 13.5729C122.131 14.3207 121.696 15.2014 121.164 16.017C120.904 16.5068 120.664 17.0097 120.429 17.5152C120.737 17.6689 121.258 17.8904 121.453 17.4657C122.107 16.0743 122.936 14.7715 123.905 13.5807C124.095 13.3071 124.273 13.0049 124.57 12.8277C124.687 13.3592 124.882 13.8725 125.151 14.3494C124.867 14.3884 124.51 14.2504 124.283 14.4744C123.353 15.5948 122.709 16.9029 122.014 18.1744C121.855 18.5496 121.417 18.6929 121.039 18.6069C120.354 18.5522 119.835 18.0624 119.213 17.8279Z" fill="white"/>
<path d="M132.118 5.28204C132.577 5.06316 133.067 4.91985 133.544 4.75049C134.015 5.53999 133.531 6.38681 133.228 7.13201C133.968 7.78081 135.042 8.12736 135.399 9.13313C135.758 10.0347 134.956 10.7747 134.734 11.5954C133.572 10.6652 132.308 9.87833 131.107 9.00024C130.842 8.76834 130.557 9.15918 130.287 9.2113C130.049 9.07059 129.857 8.86996 129.674 8.67193C129.638 8.69017 129.565 8.72665 129.528 8.7475C130.039 8.44003 130.503 8.04137 131.071 7.83292C131.621 8.02053 131.938 8.56771 132.452 8.82827C133.127 9.20608 133.684 9.9565 134.526 9.93305C134.463 9.58911 134.388 9.22433 134.138 8.96116C133.486 8.36447 132.715 7.92412 131.959 7.47856C132.116 7.0304 132.478 6.66561 132.499 6.16273C131.535 6.63955 130.503 6.99652 129.617 7.61405C128.809 8.02835 128.119 8.61722 127.353 9.09926C127.053 9.31031 126.818 9.59953 126.521 9.81319C125.917 10.2275 125.474 10.8294 124.88 11.2515C124.77 10.9492 124.403 10.6235 124.536 10.303C126.099 8.80482 127.822 7.44469 129.742 6.4285C130.474 5.93865 131.331 5.6833 132.118 5.28204Z" fill="white"/>
<path d="M130.86 41.8282C131.138 41.5103 131.204 40.9762 131.613 40.7964C131.803 41.4504 131.886 42.1331 132.1 42.7819C131.845 42.8757 131.548 42.8991 131.331 43.0711C130.531 44.3583 129.713 45.635 128.929 46.93C128.647 47.0134 128.371 46.7632 128.121 46.6486C127.881 46.5444 128.066 46.2812 128.16 46.1405C128.616 45.5073 129.004 44.8325 129.382 44.155C129.914 43.402 130.284 42.55 130.86 41.8282Z" fill="white"/>
<path d="M119.473 20.6083C119.83 20.6083 120.119 20.8975 120.119 21.2545C120.119 21.6115 119.83 21.9007 119.473 21.9007C119.116 21.9007 118.827 21.6115 118.827 21.2545C118.827 20.8975 119.116 20.6083 119.473 20.6083ZM129.729 39.1785C129.687 39.1863 129.604 39.202 129.559 39.2072C128.564 40.8539 127.451 42.4303 126.467 44.0849C126.235 44.1266 126.081 43.9364 125.927 43.8035C125.265 43.1703 124.562 42.5788 123.981 41.8701C124.635 41.362 125.218 40.7757 125.927 40.3406C125.583 40.0879 125.195 39.9029 124.848 39.6553C124.575 40.3328 123.866 40.6507 123.361 41.1275C122.821 40.4579 122.248 39.796 121.868 39.0248C122.571 38.673 123.176 38.1623 123.892 37.834C123.892 37.7949 123.887 37.7168 123.887 37.6777C123.608 37.4119 123.309 37.1696 123.035 36.9038C122.636 37.5318 121.935 37.834 121.294 38.1519C120.862 37.5318 120.661 36.7839 120.226 36.169C120.26 36.1273 120.328 36.0518 120.364 36.0101C121.122 35.7443 121.839 35.3795 122.574 35.046C122.232 34.7828 121.943 34.4676 121.706 34.1106C121.279 34.7229 120.505 34.8949 119.856 35.1685C119.142 33.4618 118.725 31.6457 118.509 29.8087C119.369 29.9624 120.067 30.507 120.862 30.8249C120.815 30.4236 120.799 30.0224 120.726 29.6263C120.223 29.3866 119.658 29.2511 119.132 29.0609C119.609 28.756 120.151 28.5815 120.666 28.36C120.653 27.9223 120.633 27.4845 120.586 27.0468C120.171 27.2474 119.885 27.6226 119.489 27.8493C119.116 28.0656 118.743 28.2766 118.371 28.4877C118.264 27.7242 118.288 26.953 118.303 26.1843C118.293 25.0248 118.598 23.8992 118.707 22.7527C119.322 22.7631 119.994 22.7657 120.492 22.3436C120.838 22.031 121.245 21.7939 121.594 21.4812C121.409 21.4577 121.227 21.4395 121.044 21.4239C120.823 20.9444 120.653 20.3738 120.164 20.095C119.853 19.8891 119.437 19.7563 119.067 19.8214C118.895 19.8527 118.73 19.9204 118.595 20.0533C118.194 20.3243 118.121 20.835 118.011 21.2675C117.99 21.2571 117.967 21.2467 117.946 21.2363C117.662 21.106 117.355 20.9757 117.214 20.676C116.925 20.168 117.131 19.5739 117.123 19.0293C116.589 19.5687 116.161 20.3894 116.492 21.1477C116.669 21.7339 117.209 22.0544 117.678 22.3905C117.37 23.894 117.209 25.4469 117.209 27.0416C117.209 34.6864 120.924 41.461 126.646 45.6613L126.758 45.4841C126.777 45.4606 126.795 45.4346 126.81 45.4059C126.876 45.3017 126.941 45.1975 127.006 45.0932C127.801 43.8217 128.627 42.571 129.424 41.3021C129.578 41.0676 129.893 41.0676 130.13 40.9607C130.013 40.364 129.869 39.7726 129.729 39.1785Z" fill="white"/>
<path d="M161.129 35.1895C160.827 35.5986 161.223 36.0285 161.567 36.2395C161.809 36.164 162.117 36.1979 162.302 35.992C162.544 35.807 162.505 35.4579 162.442 35.1973C162.205 34.6684 161.374 34.6658 161.129 35.1895ZM156.462 31.0961C156.874 30.6714 157.301 30.2623 157.724 29.8428C158.057 29.9861 158.331 30.2962 158.729 30.2623C160.363 30.2597 161.986 30.4759 163.623 30.4681C163.49 31.7553 163.167 33.0112 162.737 34.228C163.013 34.5225 163.378 34.8195 163.378 35.2624C163.461 35.8174 163.255 36.3933 162.823 36.7503C162.492 37.0734 162.005 37.0734 161.58 37.1646C161.298 37.8707 160.85 38.496 160.493 39.1657C160.954 39.58 161.601 39.9239 161.7 40.5961C161.741 41.1303 161.509 41.826 160.934 41.9745C160.913 41.641 160.928 41.3049 160.923 40.9687C160.407 40.4346 159.745 40.0698 159.078 39.7597C158.766 39.593 158.411 39.5982 158.073 39.5982C158.091 39.0484 158.078 38.5012 157.997 37.9567C158.513 38.2146 158.979 38.5742 159.532 38.7644C160.006 38.1885 160.329 37.4824 160.683 36.8206C160.155 36.2083 159.899 35.2182 160.472 34.5511C160.762 34.043 161.356 33.9101 161.882 33.7981C162.14 33.0373 162.346 32.2608 162.507 31.4713C161.517 31.2993 160.517 31.2472 159.516 31.1873C158.5 31.07 157.479 31.0726 156.462 31.0961Z" fill="white"/>
<path d="M133.233 43.8109C133.622 43.011 134.617 43.0396 135.289 42.6045C135.404 43.1725 135.479 43.7484 135.675 44.2955C135.985 45.2179 136.113 46.1872 136.415 47.1096C136.621 47.18 136.954 47.0601 137.09 47.2894C137.194 47.5578 137.215 47.8522 137.275 48.1336C136.686 48.0685 136.113 47.92 135.529 47.8288C135.248 46.5494 135.115 45.2153 134.552 44.0194C134.476 44.0246 134.33 44.0376 134.257 44.0428C133.856 44.7672 134.119 45.5801 134.323 46.3175C134.44 46.7396 134.552 47.1669 134.695 47.5838C134.304 47.6672 133.927 47.7975 133.562 47.9642C133.562 48.0164 133.562 48.1258 133.562 48.1779C134.948 48.7121 136.425 48.9309 137.887 49.1446C139.443 49.2723 141.014 49.3817 142.572 49.1993C142.502 49.5354 142.405 49.8663 142.304 50.1946C140.545 50.3145 138.77 50.2702 137.032 49.9862C135.198 49.7986 133.468 49.1498 131.738 48.5583C131.886 47.662 132.793 47.3154 133.468 46.8777C133.301 45.8798 132.788 44.8141 133.233 43.8109Z" fill="white"/>
<path d="M156.757 29.0714C157.325 28.6181 157.752 28.0084 158.372 27.6201C158.628 27.766 158.807 28.0657 159.115 28.1048C160.686 28.1725 162.268 28.1386 163.834 28.2976C163.821 28.6129 163.805 28.9255 163.787 29.2382C161.442 29.2069 159.097 29.1157 156.757 29.0714Z" fill="white"/>
<path d="M156.322 40.5234C156.778 40.2446 157.364 40.3592 157.763 40.6902C158.13 40.9533 158.5 41.2425 158.721 41.649C158.01 42.6444 157.085 43.4625 156.225 44.3276C154.75 45.6356 153.119 46.756 151.384 47.6862C150.363 48.137 149.378 48.679 148.296 48.9812C147.322 49.2496 146.384 49.6587 145.373 49.7785C145.415 50.3231 145.607 50.9432 145.266 51.4305C144.964 51.7301 144.508 51.7979 144.104 51.7275C144.25 51.566 144.417 51.4096 144.508 51.2064C144.612 50.6045 144.393 50.013 144.284 49.4294C144.182 48.9812 143.893 48.6138 143.585 48.2881C144.036 47.9963 144.383 47.5872 144.737 47.1912C144.891 47.7488 145.06 48.3038 145.17 48.8744C146.514 48.6164 147.788 48.1162 149.081 47.6784C151.9 46.4746 154.521 44.7732 156.647 42.5506C156.924 42.2249 157.231 41.9226 157.57 41.6568C157.333 41.4614 157.043 41.1592 156.705 41.3181C156.418 41.4979 156.197 41.7637 155.946 41.9852C154.516 43.486 152.822 44.721 151.027 45.7502C150.469 46.0186 149.917 46.2948 149.367 46.5736C148.679 46.9124 147.919 47.0557 147.231 47.3892C147.051 47.4648 146.858 47.483 146.673 47.5221C147.158 46.8915 147.442 46.1437 147.869 45.4767C148.171 44.9686 148.375 44.4005 148.698 43.9029C148.692 44.6898 148.307 45.3959 148.091 46.1333C150.587 45.1979 152.861 43.7048 154.79 41.8731C155.345 41.4666 155.66 40.784 156.322 40.5234Z" fill="white"/>
<path d="M144.174 45.6378C144.174 45.3226 143.919 45.0698 143.606 45.0698C143.291 45.0698 143.036 45.3252 143.036 45.6378C143.036 45.9505 143.291 46.2059 143.606 46.2059C143.919 46.2059 144.174 45.9531 144.174 45.6378Z" fill="white"/>
<path d="M147.559 4.76367C147.898 4.85487 148.234 4.96952 148.57 5.07374C148.213 6.42605 147.7 7.72365 147.345 9.07336C147.145 9.95145 146.712 10.7514 146.525 11.6321C146.183 11.0119 145.86 10.3814 145.537 9.75343C145.777 9.5554 146.087 9.41209 146.207 9.10462C146.431 8.59132 146.519 8.02851 146.71 7.50478C147.064 6.61366 147.319 5.68866 147.559 4.76367Z" fill="white"/>
<path d="M149.667 5.55566C150.337 5.78496 150.988 6.07679 151.595 6.44418C154.915 8.18473 157.757 10.7877 159.868 13.8754C160.415 14.5346 160.73 15.3423 161.21 16.0485C161.835 17.3643 162.484 18.6775 162.857 20.095C163.526 22.0752 163.818 24.1702 163.857 26.2573C163.398 26.2677 162.943 26.2911 162.487 26.2963C162.656 25.9811 162.823 25.6475 162.797 25.2775C162.804 23.8314 162.489 22.4009 162.15 21.0017C161.864 20.2643 161.666 19.4983 161.379 18.7609C160.629 16.8484 159.584 15.0688 158.367 13.4194C158.325 13.4012 158.25 13.3699 158.211 13.3543C158.07 13.5523 157.919 13.7425 157.815 13.9614C157.809 14.2819 158.057 14.519 158.232 14.7613C159.334 16.3924 160.29 18.1434 160.887 20.0272C161.543 21.6505 161.733 23.4015 161.96 25.1212C161.379 24.733 160.936 24.1832 160.386 23.7585C159.967 23.438 159.573 23.0888 159.138 22.7944C159.026 22.6876 158.917 22.5729 158.82 22.4557C159.579 22.6876 160.267 23.1071 160.905 23.5735C160.579 22.229 160.373 20.8376 159.769 19.5791C159.438 18.5629 158.906 17.6353 158.411 16.6947C158.002 15.939 157.416 15.2902 157.056 14.5086C156.754 13.8207 157.179 13.0781 157.755 12.6898C157.356 12.1036 156.84 11.6189 156.327 11.1369C155.931 11.7648 155.029 12.14 155.136 13.0025C154.68 12.8149 154.211 12.6716 153.732 12.5778C154.339 11.8404 155.006 11.1551 155.613 10.4151C154.862 9.82887 154.18 9.15662 153.356 8.67197C152.903 9.28169 152.262 9.88098 152.343 10.7122C151.934 10.4959 151.48 10.4099 151.03 10.3317C151.475 9.54485 152.069 8.85698 152.554 8.09614C151.793 7.70269 151.108 7.16854 150.297 6.88192C150.066 7.95804 149.641 8.97684 149.378 10.0451C149.187 10.9284 148.846 11.7701 148.643 12.6481C148.593 12.6455 148.494 12.6429 148.445 12.6429C148.262 12.0593 147.788 11.6241 147.619 11.0379C147.786 10.991 147.95 10.9389 148.114 10.8763C148.429 10.3552 148.437 9.72725 148.635 9.16444C149.049 7.9841 149.344 6.76467 149.667 5.55566Z" fill="white"/>
<path d="M154.951 6.56656C154.951 6.25388 154.696 5.99854 154.381 5.99854C154.065 5.99854 153.812 6.25388 153.812 6.56656C153.812 6.88184 154.068 7.13719 154.381 7.13719C154.693 7.13719 154.951 6.87923 154.951 6.56656Z" fill="white"/>
<path d="M154.003 14.11C154.003 13.7947 153.747 13.542 153.435 13.542C153.119 13.542 152.864 13.7973 152.864 14.11C152.864 14.4227 153.119 14.678 153.435 14.678C153.747 14.6806 154.003 14.4253 154.003 14.11Z" fill="white"/>
<mask id="mask0_572_1295" style="mask-type:luminance" maskUnits="userSpaceOnUse" x="112" y="0" width="57" height="55">
<path d="M168 0.0761719H112.904V54.9243H168V0.0761719Z" fill="white"/>
</mask>
<g mask="url(#mask0_572_1295)">
<path d="M140.573 54.1426C125.883 54.1426 113.931 42.1907 113.931 27.5002C113.931 13.9615 124.082 2.74692 137.176 1.07412C137.324 2.21277 138.03 3.17685 139.013 3.67973C137.905 4.24775 137.144 5.39944 137.144 6.7283C137.144 8.05716 137.903 9.20885 139.013 9.77687C137.905 10.3449 137.144 11.4966 137.144 12.8254C137.144 12.8359 137.144 12.8437 137.144 12.8515C130.49 14.4018 125.529 20.3713 125.529 27.4976C125.529 35.8043 132.264 42.5398 140.571 42.5398C148.877 42.5398 155.613 35.8043 155.613 27.4976C155.613 20.3687 150.652 14.4018 143.995 12.8515C143.995 12.8411 143.995 12.8332 143.995 12.8254C143.995 11.494 143.236 10.3449 142.129 9.77687C143.236 9.20885 143.995 8.05977 143.995 6.7283C143.995 5.39683 143.236 4.24775 142.129 3.67973C143.111 3.17685 143.817 2.21277 143.966 1.07412C157.056 2.74692 167.211 13.9615 167.211 27.5002C167.216 42.1907 155.264 54.1426 140.573 54.1426ZM137.916 6.73091C137.916 5.26395 139.109 4.07057 140.576 4.07057C142.04 4.07057 143.234 5.26395 143.234 6.73091C143.234 8.19526 142.04 9.38863 140.576 9.38863C139.109 9.38863 137.916 8.19526 137.916 6.73091ZM140.573 12.458C139.667 12.458 138.781 12.5414 137.921 12.6952C137.991 11.2907 139.151 10.1677 140.573 10.1677C141.993 10.1677 143.156 11.2907 143.226 12.6952C142.366 12.5414 141.48 12.458 140.573 12.458ZM137.999 13.4768C138.835 13.3231 139.695 13.2397 140.576 13.2397C141.457 13.2397 142.314 13.3231 143.15 13.4768C143.403 13.5237 143.653 13.5759 143.903 13.6358C150.167 15.1392 154.837 20.783 154.837 27.5029C154.837 35.3666 148.44 41.7634 140.576 41.7634C132.712 41.7634 126.315 35.3666 126.315 27.5029C126.315 20.783 130.985 15.1392 137.249 13.6358C137.494 13.5759 137.746 13.5237 137.999 13.4768ZM140.573 0.857856C141.462 0.857856 142.34 0.902151 143.205 0.988136C143.028 2.28573 141.915 3.28889 140.573 3.28889C139.229 3.28889 138.116 2.28313 137.942 0.988136C138.809 0.904757 139.685 0.857856 140.573 0.857856ZM143.984 0.287226C143.724 0.255959 143.458 0.2273 143.195 0.201244C142.332 0.12047 141.457 0.0761719 140.573 0.0761719C139.69 0.0761719 138.815 0.12047 137.952 0.201244C137.689 0.224695 137.426 0.253353 137.163 0.287226C123.626 1.96785 113.149 13.5107 113.149 27.5002C113.149 42.6441 125.427 54.9243 140.573 54.9243C155.717 54.9243 167.997 42.6467 167.997 27.5002C167.997 13.5107 157.52 1.96785 143.984 0.287226Z" fill="white"/>
</g>
</svg>
