<svg width="500" height="500" viewBox="0 0 500 500" fill="none" xmlns="http://www.w3.org/2000/svg">
<path d="M434.5 349C429.95 353.15 425.28 357.16 420.57 361C388.01 387.73 350.32 407.5 307.77 411.32L304.63 411.58C225.13 417.41 226.63 322.58 217.11 299.26C207.59 275.94 46.4501 259.2 18.7401 203C-4.99993 155 24.2701 111 66.1501 85.93C95.0701 68.64 127.85 58.14 160.44 50.31C257 27.1 360 30.12 437.82 99.32C447.27 107.72 454.54 116.6 461.82 126.84C482.16 155.43 495.64 189.55 496.67 224.84C498.1 274.05 470.75 315.7 435.67 347.95L434.5 349Z" fill="#5D9D9F"/>
<path opacity="0.7" d="M434.5 349C429.95 353.15 425.28 357.16 420.57 361C388.01 387.73 350.32 407.5 307.77 411.32L304.63 411.58C225.13 417.41 226.63 322.58 217.11 299.26C207.59 275.94 46.4501 259.2 18.7401 203C-4.99993 155 24.2701 111 66.1501 85.93C95.0701 68.64 127.85 58.14 160.44 50.31C257 27.1 360 30.12 437.82 99.32C447.27 107.72 454.54 116.6 461.82 126.84C482.16 155.43 495.64 189.55 496.67 224.84C498.1 274.05 470.75 315.7 435.67 347.95L434.5 349Z" fill="white"/>
<path d="M406.86 252.91V371.51H273.55L274.45 252.91L275 251.76L299.42 200.42L311.09 175.88L313.47 170.89L340.66 113.71L341.22 114.89L378.07 192.37L406.86 252.91Z" fill="#DBDBDB"/>
<path d="M409.96 366.42L406.86 366.99L382.48 371.51H322.53L279.02 279.53L275 251.76L299.42 200.42L311.09 175.88L313.47 170.89L340.66 113.71L341.22 114.89L323.68 245.27L338.98 210.39L338.37 278.31L359.17 252V289.94L351.83 277.09L345.1 334.6L381.81 247.72L406.86 353.35L409.96 366.42Z" fill="#B8B8B8"/>
<path d="M311.09 175.88L309 180.27L332.86 152.26L340.82 185.3L350 157.16L359.79 169.96L363.43 161.59L341.22 114.89L340.66 113.71L313.47 170.89L311.09 175.88Z" fill="white" stroke="#263238" stroke-linecap="round" stroke-linejoin="round"/>
<path d="M406.86 252.91V371.51H273.55L274.45 252.91L275 251.76L299.42 200.42L311.09 175.88L313.47 170.89L340.66 113.71L341.22 114.89L378.07 192.37L406.86 252.91Z" stroke="#263238" stroke-linecap="round" stroke-linejoin="round"/>
<path d="M473.18 391.26L448.01 374.35L444.47 405.81L420.48 396.37L414.59 430.97L373.69 404.24H339.09L341.05 369.24L379.55 286.46L381.29 282.73L403.97 233.97L422.06 268.58L425.16 276.02L429.51 286.46L473.18 391.26Z" fill="#DBDBDB"/>
<path d="M445.78 355.96L448.33 374.56L457.59 380.79L445.78 355.96Z" fill="#B8B8B8"/>
<path d="M420.48 396.37L439.46 403.84L437.2 396.6L430.33 385.15L435.48 377.71L434.5 349.02L416.02 374.85L414.88 319.9L396.56 356.53L406.28 238.39L403.97 233.97L381.29 282.73L379.55 286.46L341.05 369.24L339.09 404.24H373.69L414.59 430.97L420.48 396.37Z" fill="#B8B8B8"/>
<path d="M475.8 396.6L406.11 228.31L327.31 398.13" stroke="#263238" stroke-linecap="round" stroke-linejoin="round"/>
<path d="M413.04 291.24L418.19 286.55L430.84 300.6L431.89 290.57L406.11 228.31L376.08 293.04L376.04 293.58L402.74 265.48L413.04 291.24Z" fill="white" stroke="#263238" stroke-linecap="round" stroke-linejoin="round"/>
<path d="M358.72 433.14L361.06 460.77L342.14 451.44L317.36 439.22L293.62 427.52L280.97 437.36L246.32 422.84L215.41 452.81L191.05 431.74L162.02 437.82L163.89 409.72L213.79 298.09L220.27 283.58L264.58 184.46L279.1 217.71L292.68 235.51L352.4 380.21L363.67 365.88L400.4 451.87L358.72 433.14Z" fill="#DBDBDB"/>
<path d="M271.67 356.63L260.05 341.95L267.39 268.52L233.74 335.22L263.11 209.78L264.97 185.34L264.58 184.46L220.27 283.58L213.79 298.09L163.89 409.72L162.02 437.82L191.05 431.74L215.41 452.81L246.32 422.84L256.75 427.21L259.44 384.78L280.24 400.08L277.79 341.95L271.67 356.63Z" fill="#B8B8B8"/>
<path d="M405.14 463.16L363.67 365.88L352.4 380.21L267.71 175.73L167.05 403.25" stroke="#263238" stroke-linecap="round" stroke-linejoin="round"/>
<path d="M297.7 248.15L267.71 175.73L232.61 255.07L259.92 224.66L276.65 236.24L279.22 227.88L297.7 248.15Z" fill="white" stroke="#263238" stroke-linecap="round" stroke-linejoin="round"/>
<path d="M342.14 451.44L317.36 439.22L300.32 363.17L342.14 451.44Z" fill="#B8B8B8"/>
<path d="M362.21 175.88H311.09L313.47 170.88H313.62C316 170.64 316.24 168.98 319.57 168.5C322.9 168.02 325.29 169.93 327.91 168.74C330.53 167.55 332.2 163.02 337.44 163.74C342.68 164.46 350.06 172.07 350.06 172.07C352.92 172.07 354.11 171.36 357.21 172.55C359.096 173.289 360.802 174.424 362.21 175.88Z" fill="#263238" stroke="#263238" stroke-linecap="round" stroke-linejoin="round"/>
<path d="M352.65 169.49C352.65 169.49 345.26 161.86 340.02 161.15C334.78 160.44 333.11 164.96 330.49 166.15C327.87 167.34 325.49 165.44 322.16 165.91C318.83 166.38 318.58 168.06 316.16 168.3C313.74 168.54 312.11 166.87 309.49 167.3C306.87 167.73 305.49 170.64 304.01 170.64C302.53 170.64 300.2 168.97 297.58 168.97C294.96 168.97 290.91 171.35 290.91 171.35L274.71 173.26H364.8C363.394 171.799 361.688 170.66 359.8 169.92C356.7 168.77 355.51 169.49 352.65 169.49Z" fill="white" stroke="#263238" stroke-linecap="round" stroke-linejoin="round"/>
<path d="M444.62 150.19C444.62 150.19 437.24 142.57 432 141.85C426.76 141.13 425.09 145.66 422.47 146.85C419.85 148.04 417.47 146.13 414.13 146.61C410.79 147.09 410.56 148.75 408.18 148.99C405.8 149.23 404.13 147.56 401.51 148.04C398.89 148.52 397.46 151.37 396.03 151.37C394.6 151.37 392.22 149.7 389.6 149.7C386.98 149.7 382.93 152.09 382.93 152.09L366.73 153.99H456.73C455.321 152.534 453.616 151.399 451.73 150.66C448.67 149.48 447.48 150.19 444.62 150.19Z" fill="white" stroke="#263238" stroke-linecap="round" stroke-linejoin="round"/>
<path d="M399.11 313.65C399.11 313.65 385.88 300 376.48 298.71C367.08 297.42 364.11 305.54 359.41 307.71C354.71 309.88 350.41 306.43 344.47 307.28C338.53 308.13 338.07 311.13 333.8 311.55C329.53 311.97 326.54 308.99 321.85 309.85C317.16 310.71 314.59 315.85 312.03 315.85C309.47 315.85 305.2 312.85 300.51 312.85C295.82 312.85 288.51 317.12 288.51 317.12L259.51 320.54H420.88C418.351 317.911 415.28 315.864 411.88 314.54C406.36 312.37 404.23 313.65 399.11 313.65Z" fill="#263238" stroke="#263238" stroke-linecap="round" stroke-linejoin="round"/>
<path d="M404.15 311.13C404.15 311.13 390.92 297.47 381.52 296.19C372.12 294.91 369.15 303.02 364.45 305.19C359.75 307.36 355.45 303.91 349.51 304.76C343.57 305.61 343.11 308.61 338.84 309.03C334.57 309.45 331.58 306.47 326.89 307.33C322.2 308.19 319.63 313.33 317.07 313.33C314.51 313.33 310.24 310.33 305.55 310.33C300.86 310.33 293.55 314.6 293.55 314.6L264.55 318.02H425.92C423.391 315.391 420.32 313.344 416.92 312.02C411.4 309.85 409.27 311.13 404.15 311.13Z" fill="white" stroke="#263238" stroke-linecap="round" stroke-linejoin="round"/>
<path d="M429.51 286.46H379.51L381.25 282.73C382.381 283.241 383.57 283.614 384.79 283.84C386.22 283.84 387.65 280.98 390.27 280.51C392.89 280.04 394.56 281.7 396.94 281.46C399.32 281.22 399.56 279.55 402.94 279.08C406.32 278.61 408.65 280.51 411.27 279.31C413.89 278.11 415.56 273.6 420.8 274.31C422.348 274.6 423.828 275.18 425.16 276.02L429.51 286.46Z" fill="#263238" stroke="#263238" stroke-linecap="round" stroke-linejoin="round"/>
<path d="M435.67 279.51C435.67 279.51 428.29 271.88 423.05 271.17C417.81 270.46 416.14 274.98 413.52 276.17C410.9 277.36 408.52 275.46 405.18 275.93C401.84 276.4 401.61 278.08 399.23 278.31C396.85 278.54 395.18 276.89 392.56 277.36C389.94 277.83 388.51 280.7 387.08 280.7C385.65 280.7 383.27 279.03 380.65 279.03C378.03 279.03 373.98 281.41 373.98 281.41L357.78 283.32H447.78C446.374 281.86 444.668 280.72 442.78 279.98C439.72 278.79 438.53 279.51 435.67 279.51Z" fill="white" stroke="#263238" stroke-linecap="round" stroke-linejoin="round"/>
<path d="M299.07 298.09H213.79L220.27 283.58C222.123 283.832 224.01 283.566 225.72 282.81C231.33 280.27 234.89 270.59 246.1 272.12C257.31 273.65 273.1 289.94 273.1 289.94C279.21 289.94 281.76 288.42 288.38 290.94C292.416 292.528 296.062 294.966 299.07 298.09Z" fill="#263238" stroke="#263238" stroke-linecap="round" stroke-linejoin="round"/>
<path d="M276.71 286.84C276.71 286.84 260.92 270.54 249.71 269.01C238.5 267.48 234.94 277.16 229.33 279.71C223.72 282.26 218.64 278.18 211.51 279.2C204.38 280.22 203.87 283.78 198.77 284.29C193.67 284.8 190.11 281.24 184.51 282.29C178.91 283.34 175.85 289.42 172.8 289.42C169.75 289.42 164.65 285.85 159.04 285.85C153.43 285.85 144.78 290.95 144.78 290.95L110.16 295H302.69C299.679 291.879 296.029 289.447 291.99 287.87C285.37 285.31 282.83 286.84 276.71 286.84Z" fill="white" stroke="#263238" stroke-linecap="round" stroke-linejoin="round"/>
<path d="M231.18 111.43C231.18 111.43 215.39 95.13 204.18 93.6C192.97 92.07 189.41 101.75 183.8 104.3C178.19 106.85 173.11 102.77 165.97 103.79C158.83 104.81 158.33 108.37 153.24 108.88C148.15 109.39 144.58 105.88 138.98 106.88C133.38 107.88 130.33 114 127.27 114C124.21 114 119.12 110.43 113.52 110.43C107.92 110.43 99.2601 115.53 99.2601 115.53L64.6201 119.6H257.16C254.147 116.482 250.498 114.05 246.46 112.47C239.84 109.9 237.29 111.43 231.18 111.43Z" fill="white" stroke="#263238" stroke-linecap="round" stroke-linejoin="round"/>
<path d="M442.54 433.88C442.54 433.88 419.83 410.44 403.71 408.24C387.59 406.04 382.47 419.96 374.41 423.63C366.35 427.3 359.02 421.43 348.77 422.89C338.52 424.35 337.77 429.49 330.45 430.22C323.13 430.95 318 425.82 309.94 427.29C301.88 428.76 297.48 437.55 293.09 437.55C288.7 437.55 281.37 432.42 273.31 432.42C265.25 432.42 252.79 439.74 252.79 439.74L203 445.6H479.9C475.572 441.115 470.326 437.618 464.52 435.35C455 431.68 451.33 433.88 442.54 433.88Z" fill="white" stroke="#263238" stroke-linecap="round" stroke-linejoin="round"/>
<path d="M340.66 113.71V72.6901" stroke="#263238" stroke-linecap="round" stroke-linejoin="round"/>
<path d="M366.8 106.76V99.17C368.375 100.024 369.713 101.258 370.69 102.76C370.858 103.078 370.992 103.414 371.09 103.76C370.127 103.617 369.146 103.849 368.348 104.407C367.55 104.964 366.996 105.807 366.8 106.76Z" fill="#263238" stroke="#263238" stroke-linecap="round" stroke-linejoin="round"/>
<path d="M350.4 77.24C344.49 77.46 341.4 75.15 340.62 74.54V85.84L340.82 98.94C342.58 101.71 354.94 101.71 362.01 101.71C369.08 101.71 371.09 103.71 371.09 103.71V79C367.31 75.48 357.21 77 350.4 77.24Z" fill="#5D9D9F" stroke="#263238" stroke-miterlimit="10"/>
<path d="M371.09 103.73C371.09 103.73 366.68 103.4 366.8 106.73C366.86 108.32 368.8 109.5 375.88 109C382.96 108.5 393.82 110.09 393.82 110.09L387 98L397.09 94C393.437 91.2789 389.349 89.1961 385 87.84C380.483 86.4791 375.776 85.8577 371.06 86L371.09 103.73Z" fill="#5D9D9F" stroke="#263238" stroke-miterlimit="10"/>
<path d="M360.59 44.54V57.41" stroke="#263238" stroke-linecap="round" stroke-linejoin="round"/>
<path d="M360.59 120.51V133.38" stroke="#263238" stroke-linecap="round" stroke-linejoin="round"/>
<path d="M312.8 62.3101L327.5 73.9501" stroke="#263238" stroke-linecap="round" stroke-linejoin="round"/>
<path d="M405.93 62.3101L391.22 73.9501" stroke="#263238" stroke-linecap="round" stroke-linejoin="round"/>
<path d="M405.93 128.88L391.22 117.24" stroke="#263238" stroke-linecap="round" stroke-linejoin="round"/>
<path d="M312.19 128.88L326.89 117.24" stroke="#263238" stroke-linecap="round" stroke-linejoin="round"/>
<path d="M321.38 95.39H301.77" stroke="#263238" stroke-linecap="round" stroke-linejoin="round"/>
<path d="M421.85 95.39H402.25" stroke="#263238" stroke-linecap="round" stroke-linejoin="round"/>
<path d="M155.83 470.29L163.06 453.52C163.06 453.52 165.95 446 167.69 443.69C169.195 441.467 170.548 439.145 171.74 436.74L181 422.86L190.26 394.5L164.57 403.07L144.82 418.26L117.82 431.55L24.4004 450.55" fill="white"/>
<path d="M155.83 470.29L163.06 453.52C163.06 453.52 165.95 446 167.69 443.69C169.195 441.467 170.548 439.145 171.74 436.74L181 422.86L190.26 394.5L164.57 403.07L144.82 418.26L117.82 431.55L24.4004 450.55" stroke="#263238" stroke-linecap="round" stroke-linejoin="round"/>
<path d="M25.3502 379.46H139.34L190.26 394.5L185.05 402.6L174.63 406.08L163.06 408.97L153.8 422.28L146.28 428.64L121.4 432.69L22.4502 454.68" fill="white"/>
<path d="M25.3502 379.46H139.34L190.26 394.5L185.05 402.6L174.63 406.08L163.06 408.97L153.8 422.28L146.28 428.64L121.4 432.69L22.4502 454.68" stroke="#263238" stroke-linecap="round" stroke-linejoin="round"/>
<path d="M163.06 408.97L164.22 430.38L157.85 442.53L153.22 450.05L140.64 470.29" fill="white"/>
<path d="M163.06 408.97L164.22 430.38L157.85 442.53L153.22 450.05L140.64 470.29" stroke="#263238" stroke-linecap="round" stroke-linejoin="round"/>
<path d="M146.28 428.64L144.55 446.58L135.87 451.79L124.29 458.73" fill="white"/>
<path d="M146.28 428.64L144.55 446.58L135.87 451.79L124.29 458.73" stroke="#263238" stroke-linecap="round" stroke-linejoin="round"/>
<path opacity="0.21" d="M131.71 403.64C131.71 407.13 112.93 409.95 89.7598 409.95C66.5898 409.95 47.7598 407.13 47.7598 403.64C47.7598 400.15 66.5498 397.33 89.7598 397.33C112.97 397.33 131.71 400.16 131.71 403.64Z" fill="black"/>
<path d="M155.09 170.75C155.09 170.75 157.75 168.57 159.32 167.49C160.89 166.41 163.68 163.37 163.92 162.16C164.16 160.95 165.49 153.69 165.49 153.69C164.557 153.636 163.62 153.717 162.71 153.93C160.9 154.3 159.32 154.78 159.32 154.78L154.48 160.59L155.09 170.75Z" fill="white" stroke="#263238" stroke-miterlimit="10"/>
<path d="M161.62 154.18C161.62 154.18 161.26 156.18 161.98 156.84C162.7 157.5 166.82 157.56 167.43 156.35C168.04 155.14 168.16 153.09 167.43 153.09C166.7 153.09 161.62 154.18 161.62 154.18Z" fill="white" stroke="#263238" stroke-miterlimit="10"/>
<path d="M164.65 157.81C164.65 157.81 158.96 158.05 158.72 158.81C158.48 159.57 158.11 160.99 158.48 161.23C158.85 161.47 164.77 161.48 165.37 160.75C165.97 160.02 166.82 157.08 164.65 157.81Z" fill="white" stroke="#263238" stroke-miterlimit="10"/>
<path d="M164.28 161.07C164.28 161.07 158.6 161.31 158.35 162.07C158.1 162.83 157.75 164.25 158.11 164.49C158.47 164.73 164.4 164.73 165.01 164.01C165.62 163.29 166.46 160.35 164.28 161.07Z" fill="white" stroke="#263238" stroke-miterlimit="10"/>
<path d="M162.62 164.19C162.62 164.19 158.32 164.37 158.14 164.92C157.96 165.47 157.68 166.57 157.95 166.75C158.22 166.93 162.71 166.93 163.16 166.38C163.61 165.83 164.26 163.64 162.62 164.19Z" fill="white" stroke="#263238" stroke-miterlimit="10"/>
<path d="M187.87 149.63L148.87 155.52H148.39H148C147.219 155.428 146.498 155.055 145.971 154.472C145.444 153.889 145.146 153.134 145.132 152.348C145.119 151.562 145.391 150.798 145.898 150.197C146.405 149.596 147.113 149.199 147.89 149.08L185.3 143.45L186.89 143.21C187.315 143.132 187.753 143.139 188.175 143.233C188.598 143.326 188.997 143.503 189.35 143.754C189.703 144.004 190.003 144.323 190.231 144.691C190.458 145.059 190.61 145.469 190.677 145.896C190.744 146.324 190.724 146.761 190.62 147.181C190.515 147.601 190.327 147.995 190.067 148.341C189.807 148.688 189.481 148.978 189.107 149.196C188.733 149.414 188.319 149.555 187.89 149.61L187.87 149.63Z" fill="white" stroke="#263238" stroke-miterlimit="10"/>
<path d="M185.1 149.94L148 155.54C147.219 155.448 146.498 155.075 145.971 154.492C145.444 153.909 145.146 153.154 145.132 152.368C145.119 151.582 145.391 150.818 145.898 150.217C146.405 149.616 147.113 149.219 147.89 149.1L185.3 143.47C186.053 143.634 186.724 144.056 187.197 144.664C187.671 145.272 187.916 146.027 187.889 146.797C187.863 147.567 187.568 148.303 187.054 148.878C186.541 149.452 185.842 149.828 185.08 149.94H185.1Z" fill="#B5B5B5" stroke="#263238" stroke-miterlimit="10"/>
<path d="M121.57 158.67C120.98 158.68 120.409 158.464 119.973 158.066C119.537 157.668 119.27 157.119 119.227 156.531C119.184 155.942 119.367 155.359 119.739 154.902C120.112 154.444 120.645 154.147 121.23 154.07L148 150C148.309 149.934 148.629 149.932 148.939 149.995C149.249 150.057 149.543 150.182 149.804 150.362C150.064 150.542 150.284 150.774 150.451 151.042C150.619 151.311 150.729 151.611 150.776 151.924C150.823 152.236 150.806 152.556 150.725 152.861C150.645 153.167 150.502 153.453 150.307 153.702C150.111 153.951 149.867 154.157 149.589 154.308C149.311 154.459 149.005 154.552 148.69 154.58L121.88 158.58L121.57 158.67Z" fill="#B5B5B5" stroke="#263238" stroke-miterlimit="10"/>
<path d="M148.31 172.45C148.31 172.45 151.46 161.8 151.7 159.86C151.94 157.92 154.12 156.23 154.12 156.23C154.12 156.23 158.12 152.97 159.12 151.23C160.12 149.49 160.94 151.59 160.94 153.05C160.94 154.51 156.22 158.98 156.22 158.98C156.646 160.957 156.927 162.962 157.06 164.98C156.869 166.683 156.335 168.329 155.49 169.82L153.19 176.47L148.31 172.45Z" fill="white" stroke="#263238" stroke-miterlimit="10"/>
<path d="M147.1 170.87L156.18 177.53L152.91 183.09L144.56 176.08L147.1 170.87Z" fill="white" stroke="#263238" stroke-miterlimit="10"/>
<path d="M144.8 174.87L156.06 183.94C156.06 183.94 132.46 218.79 131.01 219.76C129.679 220.483 128.251 221.011 126.77 221.33L121.21 204.15L144.8 174.87Z" fill="#5D9D9F" stroke="#263238" stroke-miterlimit="10"/>
<path d="M112.38 179.1L117.94 182.61H115.04L113.59 183.94L110.92 183.7L109.96 180.55L112.38 179.1Z" fill="white" stroke="#263238" stroke-linecap="round" stroke-linejoin="round"/>
<path d="M119.39 142.8C119.39 142.8 122.78 151.27 122.3 152.12C121.82 152.97 121.09 154.3 121.3 155.12C121.51 155.94 124.93 160.12 124.57 160.81C123.74 162.025 122.849 163.196 121.9 164.32C121.9 164.32 120.69 169.76 120.9 170.25C121.11 170.74 122.23 172.06 121.5 173.39C120.77 174.72 118.91 175 117.7 175C116.769 174.978 115.841 174.898 114.92 174.76L111.41 181.41L91.6899 173.91L94.6899 167.25C93.3492 163.736 93.136 159.891 94.0799 156.25C95.6599 150.08 107.52 142.94 112.48 142.25C117.44 141.56 119.39 142.8 119.39 142.8Z" fill="white" stroke="#263238" stroke-linecap="round" stroke-linejoin="round"/>
<path d="M114.8 144.37C114.8 144.37 117.94 148.49 117.34 149.7C116.266 151.184 115.05 152.561 113.71 153.81C113.71 153.81 114.71 158.05 114.19 158.53C113.875 158.795 113.506 158.987 113.108 159.092C112.71 159.198 112.294 159.214 111.89 159.14C111.41 158.89 108.38 153.14 106.45 154.42C104.52 155.7 104.15 158.89 104.99 160.71C105.429 161.684 105.958 162.614 106.57 163.49C106.57 163.49 101.73 167.97 99.0697 168.49C96.4097 169.01 94.3497 169.22 93.6197 168.13C92.8897 167.04 88.4197 157.24 88.2997 150.34C88.1797 143.44 92.7697 137.64 95.5597 136.34C98.3497 135.04 103.66 134.89 103.66 134.89C103.66 134.89 104.03 131.74 107.78 131.89C111.53 132.04 115.4 135.04 115.4 135.04C115.4 135.04 114.19 130.68 117.09 133.22C119.99 135.76 122.09 137.22 121.45 141.22C120.81 145.22 114.8 144.37 114.8 144.37Z" fill="#263238" stroke="#263238" stroke-linecap="round" stroke-linejoin="round"/>
<path d="M106.57 163.49L109.23 164.22L110.32 166.4" stroke="#263238" stroke-linecap="round" stroke-linejoin="round"/>
<path d="M117.7 175C116.86 174.574 116.051 174.09 115.28 173.55C114.28 172.82 112.13 171.25 112.13 171.25L113.34 177.05L114.92 174.76L117.7 175Z" fill="#263238" stroke="#263238" stroke-linecap="round" stroke-linejoin="round"/>
<path d="M86.9699 172.08L85.8799 177.16L109.83 183.82L121.45 193.86L112.13 182.73L110.68 179.22L86.9699 172.08Z" fill="white" stroke="#263238" stroke-linecap="round" stroke-linejoin="round"/>
<path d="M113.59 183.94C113.59 183.94 120.3 186.26 125.42 200.13C130.54 214 144.91 269.23 144.91 269.23L136.98 271.23C134.559 257.886 131.306 244.707 127.24 231.77C121 212.51 113.59 183.94 113.59 183.94Z" fill="#5D9D9F" stroke="#263238" stroke-linecap="round" stroke-linejoin="round"/>
<path d="M138.13 266.33C138.13 266.33 135.42 295.67 134.28 309.73C133.14 323.79 121.93 361.8 120.6 366.93C119.27 372.06 118.7 387.83 118.7 387.83L120.6 389.16V390.68L127.06 394.86C127.06 394.86 136.56 398.29 134.47 400.38C132.38 402.47 128.58 401.71 123.26 401.71C117.94 401.71 112.26 399.81 110.53 399.81C109.133 399.866 107.735 399.803 106.35 399.62C105.59 399.43 103.88 400.19 103.88 398.48C103.576 395.732 103.132 393.002 102.55 390.3C102.55 390.3 101 388 101 386.5C101 385 101.38 379.85 102.14 377.95C102.9 376.05 104.04 368.45 104.04 368.45L105.18 348.5L98.5297 362.94L92.8297 386.88C92.8297 386.88 95.6797 387.83 95.6797 388.59C95.6797 389.35 95.1097 392.77 95.1097 392.77C95.1097 392.77 98.7197 396.38 100.43 397.77C103.803 399.922 107.292 401.889 110.88 403.66C111.45 403.85 113.88 405.94 112.4 406.89C110.92 407.84 103.28 408.41 97.1997 408.41C91.1197 408.41 83.3197 405.75 83.3197 405.75L81.6097 406.89L75.3397 405.37C74.5797 405.18 74.1997 401.76 74.3397 400.43C74.436 399.225 74.436 398.015 74.3397 396.81C74.3397 396.05 73.7697 392.06 74.1497 390.73C74.5297 389.4 75.8597 385.79 75.8597 385.79C75.8597 385.79 78.7097 355.01 79.4697 350.26C80.2297 345.51 85.4397 335 85.4397 335C85.4397 335 88.1097 316.37 88.4397 312.76C88.7697 309.15 89.0097 295.47 89.0097 295.47C87.1838 290.84 85.7194 286.076 84.6297 281.22C83.4897 275.14 84.4397 273.81 84.4397 273.81L86.9997 264.31L138.13 266.33Z" fill="#263238" stroke="#263238" stroke-linecap="round" stroke-linejoin="round"/>
<path d="M108.91 343.51C108.91 343.51 114.7 324.22 115.66 318.43C116.62 312.64 123.06 290.77 123.06 290.77L129.17 286.59" stroke="#8C8C8C" stroke-linecap="round" stroke-linejoin="round"/>
<path d="M86.7197 340.62C86.7197 340.62 100.55 332.26 108.59 317.79" stroke="#8C8C8C" stroke-linecap="round" stroke-linejoin="round"/>
<path d="M110.51 309.1C110.51 309.1 102.15 321.97 96.3599 327.1" stroke="#8C8C8C" stroke-linecap="round" stroke-linejoin="round"/>
<path d="M125.2 203.18C125.2 203.18 135 249.82 136.32 256.09C137.64 262.36 138.13 266.33 138.13 266.33C136.115 266.729 134.078 267.002 132.03 267.15C130.21 267.15 126.25 266.99 126.25 266.99L120.25 200.62L125.2 203.18Z" fill="white" stroke="#263238" stroke-linecap="round" stroke-linejoin="round"/>
<path d="M82.9996 175.35V180.43C82.9996 180.43 77.4396 202.7 78.1596 209.71C78.8796 216.72 85.7896 239.24 85.7896 239.24C85.7896 239.24 84.0896 242.02 83.9696 242.38C84.0796 243.446 84.2837 244.5 84.5796 245.53L78.3796 276C78.3796 276 101.97 281 117.46 279.63C132.95 278.26 134 277.47 134 277.47C134 277.47 132 248.68 132.1 241.9C132.2 235.12 126.53 206.45 125.2 203.18C123.87 199.91 121.45 193.86 121.45 193.86L109.83 183.86L82.9996 175.35Z" fill="#5D9D9F" stroke="#263238" stroke-linecap="round" stroke-linejoin="round"/>
<path d="M100.88 211.65C100.88 211.65 88.0597 223.27 86.2397 224" stroke="#263238" stroke-linecap="round" stroke-linejoin="round"/>
<path d="M104.63 211.29C104.63 211.29 101 217.22 99.4297 219.88" stroke="#263238" stroke-linecap="round" stroke-linejoin="round"/>
<path d="M103.06 220.48L99.1899 227.86" stroke="#263238" stroke-linecap="round" stroke-linejoin="round"/>
<path d="M126.53 167C126.53 167 126.9 158.41 127.26 157C128.3 154.402 129.471 151.859 130.77 149.38C130.77 149.38 132.7 147.8 133.55 148.38C134.4 148.96 134.28 150.38 134.28 150.38C134.28 150.38 135.73 148.38 136.58 148.57C137.43 148.76 138.27 150.51 138.27 150.51C139.132 150.248 140.046 150.204 140.93 150.38C141.93 150.75 142.63 150.51 142.38 151.59C142.13 152.67 139.72 158.59 139.72 158.59C139.72 158.59 144.8 156.66 144.8 157.59C144.8 158.52 143.96 158.93 142.87 159.65C141.78 160.37 137.79 162.43 137.79 162.43L134.79 165.43L134.31 168.21L126.53 167Z" fill="white" stroke="#263238" stroke-linecap="round" stroke-linejoin="round"/>
<path d="M127 171.48L126.51 167C127.645 166.645 128.831 166.482 130.02 166.52C131.869 166.816 133.692 167.261 135.47 167.85L135.71 172.45L127 171.48Z" fill="white" stroke="#263238" stroke-linecap="round" stroke-linejoin="round"/>
<path d="M85.88 189.87C85.88 189.87 90.72 188.54 92.17 188.42C93.62 188.3 124.84 191.2 124.84 191.2L126.41 169.91C127.575 169.701 128.772 169.742 129.92 170.03L138.75 172.57C138.75 172.57 139.24 194.57 139.24 199.57V207.68C138.293 208.034 137.32 208.315 136.33 208.52C135 208.77 101.97 211.52 95.92 211.52C89.87 211.52 83.46 212 82 205.84" fill="#5D9D9F"/>
<path d="M85.88 189.87C85.88 189.87 90.72 188.54 92.17 188.42C93.62 188.3 124.84 191.2 124.84 191.2L126.41 169.91C127.575 169.701 128.772 169.742 129.92 170.03L138.75 172.57C138.75 172.57 139.24 194.57 139.24 199.57V207.68C138.293 208.034 137.32 208.315 136.33 208.52C135 208.77 101.97 211.52 95.92 211.52C89.87 211.52 83.46 212 82 205.84" stroke="#263238" stroke-linecap="round" stroke-linejoin="round"/>
</svg>
