<svg width="500" height="500" viewBox="0 0 500 500" fill="none" xmlns="http://www.w3.org/2000/svg">
<path d="M500 382.4H0V382.65H500V382.4Z" fill="#EBEBEB"/>
<path d="M449.9 398.49H416.78V398.74H449.9V398.49Z" fill="#EBEBEB"/>
<path d="M331.22 401.21H322.53V401.46H331.22V401.21Z" fill="#EBEBEB"/>
<path d="M415.78 389.21H396.59V389.46H415.78V389.21Z" fill="#EBEBEB"/>
<path d="M95.65 390.89H52.46V391.14H95.65V390.89Z" fill="#EBEBEB"/>
<path d="M110.89 390.89H104.56V391.14H110.89V390.89Z" fill="#EBEBEB"/>
<path d="M225.15 395.11H131.47V395.36H225.15V395.11Z" fill="#EBEBEB"/>
<path d="M237 337.8H43.91C42.3973 337.797 40.9475 337.195 39.8788 336.124C38.8102 335.053 38.21 333.603 38.21 332.09V60.66C38.2231 59.156 38.8292 57.718 39.8964 56.6582C40.9637 55.5985 42.4059 55.0026 43.91 55H237C238.514 55 239.967 55.6016 241.038 56.6724C242.108 57.7433 242.71 59.1956 242.71 60.71V332.09C242.71 333.604 242.108 335.057 241.038 336.128C239.967 337.198 238.514 337.8 237 337.8ZM43.91 55.2C42.4636 55.2026 41.0774 55.7791 40.0556 56.8027C39.0338 57.8264 38.46 59.2136 38.46 60.66V332.09C38.46 333.536 39.0338 334.924 40.0556 335.947C41.0774 336.971 42.4636 337.547 43.91 337.55H237C238.447 337.547 239.834 336.971 240.858 335.948C241.881 334.924 242.457 333.537 242.46 332.09V60.66C242.457 59.2127 241.881 57.8255 240.858 56.8021C239.834 55.7787 238.447 55.2026 237 55.2H43.91Z" fill="#EBEBEB"/>
<path d="M453.31 337.8H260.21C258.696 337.797 257.246 337.195 256.175 336.125C255.105 335.054 254.503 333.604 254.5 332.09V60.66C254.516 59.1551 255.124 57.7171 256.193 56.6576C257.262 55.5981 258.705 55.0025 260.21 55H453.31C454.812 55.0052 456.252 55.6022 457.317 56.6617C458.382 57.7212 458.987 59.1578 459 60.66V332.09C459 333.601 458.401 335.05 457.335 336.121C456.268 337.191 454.821 337.795 453.31 337.8ZM260.21 55.2C258.763 55.2026 257.375 55.7787 256.352 56.8021C255.329 57.8255 254.753 59.2127 254.75 60.66V332.09C254.753 333.537 255.329 334.924 256.352 335.948C257.375 336.971 258.763 337.547 260.21 337.55H453.31C454.757 337.547 456.145 336.971 457.168 335.948C458.191 334.924 458.767 333.537 458.77 332.09V60.66C458.767 59.2127 458.191 57.8255 457.168 56.8021C456.145 55.7787 454.757 55.2026 453.31 55.2H260.21Z" fill="#EBEBEB"/>
<path d="M437.88 381.74V334.92H433.88V312.62H428.03V235.05H419.57V225.04L401.5 216.62V206.52H399V235.05H395.5V312.62H392V271.83H382.49V250.81H379.83V312.62H372.61V289.1H367.86V283.09H356.85V262.57H350.82V248.06H343.41V226.92H340.76V248.06H333.35V262.57H327.32V283.09H316.31V289.1H311.56V312.62H305.92V283.09H294.91V219.53H291.41V212.53H267.89V219.53H262.89V265.57H242.87V270.08H235.36V273.58H242.87V291.6H221.85V231.55H217.35V218.78H207.59V173.5H204.84V218.78H197.83V231.55H156.76V227.34H154.25V255.87H150.75V256.37H148.65V284.89H145.15V292.65H137.74V271.63H135.09V321.68H132.13V300.66H129.48V333.44H127.87V309.92H123.11V303.91H112.1V283.39H106.07V268.88H98.6599V247.74H96.0199V268.88H88.6099V283.39H82.5799V303.91H71.5699V309.92H66.8099V332.94H65.9599V333.44H63.6099V381.74H437.88Z" fill="#E6E6E6"/>
<path d="M182.51 234.35H179.67V237.19H182.51V234.35Z" fill="#F0F0F0"/>
<path d="M182.51 239.11H179.67V241.95H182.51V239.11Z" fill="#F0F0F0"/>
<path d="M182.51 258.12H179.67V260.96H182.51V258.12Z" fill="#F0F0F0"/>
<path d="M182.51 262.88H179.67V265.72H182.51V262.88Z" fill="#F0F0F0"/>
<path d="M182.51 267.63H179.67V270.47H182.51V267.63Z" fill="#F0F0F0"/>
<path d="M182.51 281.89H179.67V284.73H182.51V281.89Z" fill="#F0F0F0"/>
<path d="M182.51 286.65H179.67V289.49H182.51V286.65Z" fill="#F0F0F0"/>
<path d="M187.02 253.37H184.18V256.21H187.02V253.37Z" fill="#F0F0F0"/>
<path d="M187.02 258.12H184.18V260.96H187.02V258.12Z" fill="#F0F0F0"/>
<path d="M187.02 262.88H184.18V265.72H187.02V262.88Z" fill="#F0F0F0"/>
<path d="M187.02 267.63H184.18V270.47H187.02V267.63Z" fill="#F0F0F0"/>
<path d="M187.02 272.38H184.18V275.22H187.02V272.38Z" fill="#F0F0F0"/>
<path d="M187.02 281.89H184.18V284.73H187.02V281.89Z" fill="#F0F0F0"/>
<path d="M187.02 286.65H184.18V289.49H187.02V286.65Z" fill="#F0F0F0"/>
<path d="M191.52 234.35H188.68V237.19H191.52V234.35Z" fill="#F0F0F0"/>
<path d="M191.52 239.11H188.68V241.95H191.52V239.11Z" fill="#F0F0F0"/>
<path d="M191.52 243.86H188.68V246.7H191.52V243.86Z" fill="#F0F0F0"/>
<path d="M191.52 248.61H188.68V251.45H191.52V248.61Z" fill="#F0F0F0"/>
<path d="M191.52 253.37H188.68V256.21H191.52V253.37Z" fill="#F0F0F0"/>
<path d="M191.52 258.12H188.68V260.96H191.52V258.12Z" fill="#F0F0F0"/>
<path d="M191.52 262.88H188.68V265.72H191.52V262.88Z" fill="#F0F0F0"/>
<path d="M191.52 267.63H188.68V270.47H191.52V267.63Z" fill="#F0F0F0"/>
<path d="M191.52 272.38H188.68V275.22H191.52V272.38Z" fill="#F0F0F0"/>
<path d="M191.52 277.14H188.68V279.98H191.52V277.14Z" fill="#F0F0F0"/>
<path d="M191.52 286.65H188.68V289.49H191.52V286.65Z" fill="#F0F0F0"/>
<path d="M196.03 234.35H193.19V237.19H196.03V234.35Z" fill="#F0F0F0"/>
<path d="M196.03 239.11H193.19V241.95H196.03V239.11Z" fill="#F0F0F0"/>
<path d="M196.03 243.86H193.19V246.7H196.03V243.86Z" fill="#F0F0F0"/>
<path d="M196.03 248.61H193.19V251.45H196.03V248.61Z" fill="#F0F0F0"/>
<path d="M196.03 253.37H193.19V256.21H196.03V253.37Z" fill="#F0F0F0"/>
<path d="M196.03 258.12H193.19V260.96H196.03V258.12Z" fill="#F0F0F0"/>
<path d="M196.03 262.88H193.19V265.72H196.03V262.88Z" fill="#F0F0F0"/>
<path d="M196.03 305.66H193.19V308.5H196.03V305.66Z" fill="#F0F0F0"/>
<path d="M200.53 234.35H197.69V237.19H200.53V234.35Z" fill="#F0F0F0"/>
<path d="M200.53 239.11H197.69V241.95H200.53V239.11Z" fill="#F0F0F0"/>
<path d="M200.53 243.86H197.69V246.7H200.53V243.86Z" fill="#F0F0F0"/>
<path d="M200.53 248.61H197.69V251.45H200.53V248.61Z" fill="#F0F0F0"/>
<path d="M200.53 253.37H197.69V256.21H200.53V253.37Z" fill="#F0F0F0"/>
<path d="M200.53 258.12H197.69V260.96H200.53V258.12Z" fill="#F0F0F0"/>
<path d="M200.53 262.88H197.69V265.72H200.53V262.88Z" fill="#F0F0F0"/>
<path d="M200.53 267.63H197.69V270.47H200.53V267.63Z" fill="#F0F0F0"/>
<path d="M200.53 296.15H197.69V298.99H200.53V296.15Z" fill="#F0F0F0"/>
<path d="M200.53 300.91H197.69V303.75H200.53V300.91Z" fill="#F0F0F0"/>
<path d="M200.53 305.66H197.69V308.5H200.53V305.66Z" fill="#F0F0F0"/>
<path d="M200.53 310.42H197.69V313.26H200.53V310.42Z" fill="#F0F0F0"/>
<path d="M200.53 329.43H197.69V332.27H200.53V329.43Z" fill="#F0F0F0"/>
<path d="M205.03 234.35H202.19V237.19H205.03V234.35Z" fill="#F0F0F0"/>
<path d="M205.03 239.11H202.19V241.95H205.03V239.11Z" fill="#F0F0F0"/>
<path d="M205.03 243.86H202.19V246.7H205.03V243.86Z" fill="#F0F0F0"/>
<path d="M205.03 248.61H202.19V251.45H205.03V248.61Z" fill="#F0F0F0"/>
<path d="M205.03 253.37H202.19V256.21H205.03V253.37Z" fill="#F0F0F0"/>
<path d="M205.03 258.12H202.19V260.96H205.03V258.12Z" fill="#F0F0F0"/>
<path d="M205.03 262.88H202.19V265.72H205.03V262.88Z" fill="#F0F0F0"/>
<path d="M205.03 267.63H202.19V270.47H205.03V267.63Z" fill="#F0F0F0"/>
<path d="M205.03 272.38H202.19V275.22H205.03V272.38Z" fill="#F0F0F0"/>
<path d="M205.03 277.14H202.19V279.98H205.03V277.14Z" fill="#F0F0F0"/>
<path d="M205.03 291.4H202.19V294.24H205.03V291.4Z" fill="#F0F0F0"/>
<path d="M205.03 296.15H202.19V298.99H205.03V296.15Z" fill="#F0F0F0"/>
<path d="M205.03 300.91H202.19V303.75H205.03V300.91Z" fill="#F0F0F0"/>
<path d="M205.03 305.66H202.19V308.5H205.03V305.66Z" fill="#F0F0F0"/>
<path d="M205.03 310.42H202.19V313.26H205.03V310.42Z" fill="#F0F0F0"/>
<path d="M205.03 329.43H202.19V332.27H205.03V329.43Z" fill="#F0F0F0"/>
<path d="M209.54 234.35H206.7V237.19H209.54V234.35Z" fill="#F0F0F0"/>
<path d="M209.54 239.11H206.7V241.95H209.54V239.11Z" fill="#F0F0F0"/>
<path d="M209.54 243.86H206.7V246.7H209.54V243.86Z" fill="#F0F0F0"/>
<path d="M209.54 248.61H206.7V251.45H209.54V248.61Z" fill="#F0F0F0"/>
<path d="M209.54 253.37H206.7V256.21H209.54V253.37Z" fill="#F0F0F0"/>
<path d="M209.54 258.12H206.7V260.96H209.54V258.12Z" fill="#F0F0F0"/>
<path d="M209.54 262.88H206.7V265.72H209.54V262.88Z" fill="#F0F0F0"/>
<path d="M209.54 267.63H206.7V270.47H209.54V267.63Z" fill="#F0F0F0"/>
<path d="M209.54 272.38H206.7V275.22H209.54V272.38Z" fill="#F0F0F0"/>
<path d="M209.54 277.14H206.7V279.98H209.54V277.14Z" fill="#F0F0F0"/>
<path d="M209.54 281.89H206.7V284.73H209.54V281.89Z" fill="#F0F0F0"/>
<path d="M209.54 286.65H206.7V289.49H209.54V286.65Z" fill="#F0F0F0"/>
<path d="M209.54 291.4H206.7V294.24H209.54V291.4Z" fill="#F0F0F0"/>
<path d="M209.54 296.15H206.7V298.99H209.54V296.15Z" fill="#F0F0F0"/>
<path d="M209.54 300.91H206.7V303.75H209.54V300.91Z" fill="#F0F0F0"/>
<path d="M209.54 305.66H206.7V308.5H209.54V305.66Z" fill="#F0F0F0"/>
<path d="M209.54 310.42H206.7V313.26H209.54V310.42Z" fill="#F0F0F0"/>
<path d="M209.54 315.17H206.7V318.01H209.54V315.17Z" fill="#F0F0F0"/>
<path d="M214.04 234.35H211.2V237.19H214.04V234.35Z" fill="#F0F0F0"/>
<path d="M214.04 239.11H211.2V241.95H214.04V239.11Z" fill="#F0F0F0"/>
<path d="M214.04 243.86H211.2V246.7H214.04V243.86Z" fill="#F0F0F0"/>
<path d="M214.04 248.61H211.2V251.45H214.04V248.61Z" fill="#F0F0F0"/>
<path d="M214.04 253.37H211.2V256.21H214.04V253.37Z" fill="#F0F0F0"/>
<path d="M214.04 258.12H211.2V260.96H214.04V258.12Z" fill="#F0F0F0"/>
<path d="M214.04 262.88H211.2V265.72H214.04V262.88Z" fill="#F0F0F0"/>
<path d="M214.04 267.63H211.2V270.47H214.04V267.63Z" fill="#F0F0F0"/>
<path d="M214.04 272.38H211.2V275.22H214.04V272.38Z" fill="#F0F0F0"/>
<path d="M214.04 277.14H211.2V279.98H214.04V277.14Z" fill="#F0F0F0"/>
<path d="M214.04 291.4H211.2V294.24H214.04V291.4Z" fill="#F0F0F0"/>
<path d="M214.04 296.15H211.2V298.99H214.04V296.15Z" fill="#F0F0F0"/>
<path d="M214.04 300.91H211.2V303.75H214.04V300.91Z" fill="#F0F0F0"/>
<path d="M214.04 305.66H211.2V308.5H214.04V305.66Z" fill="#F0F0F0"/>
<path d="M218.55 234.35H215.71V237.19H218.55V234.35Z" fill="#F0F0F0"/>
<path d="M218.55 239.11H215.71V241.95H218.55V239.11Z" fill="#F0F0F0"/>
<path d="M218.55 243.86H215.71V246.7H218.55V243.86Z" fill="#F0F0F0"/>
<path d="M218.55 248.61H215.71V251.45H218.55V248.61Z" fill="#F0F0F0"/>
<path d="M218.55 253.37H215.71V256.21H218.55V253.37Z" fill="#F0F0F0"/>
<path d="M218.55 258.12H215.71V260.96H218.55V258.12Z" fill="#F0F0F0"/>
<path d="M218.55 262.88H215.71V265.72H218.55V262.88Z" fill="#F0F0F0"/>
<path d="M218.55 267.63H215.71V270.47H218.55V267.63Z" fill="#F0F0F0"/>
<path d="M218.55 272.38H215.71V275.22H218.55V272.38Z" fill="#F0F0F0"/>
<path d="M218.55 277.14H215.71V279.98H218.55V277.14Z" fill="#F0F0F0"/>
<path d="M218.55 291.4H215.71V294.24H218.55V291.4Z" fill="#F0F0F0"/>
<path d="M218.55 296.15H215.71V298.99H218.55V296.15Z" fill="#F0F0F0"/>
<path d="M218.55 300.91H215.71V303.75H218.55V300.91Z" fill="#F0F0F0"/>
<path d="M269.26 222.01H266.42V224.85H269.26V222.01Z" fill="#F0F0F0"/>
<path d="M269.26 226.76H266.42V229.6H269.26V226.76Z" fill="#F0F0F0"/>
<path d="M269.26 231.52H266.42V234.36H269.26V231.52Z" fill="#F0F0F0"/>
<path d="M269.26 236.27H266.42V239.11H269.26V236.27Z" fill="#F0F0F0"/>
<path d="M269.26 241.02H266.42V243.86H269.26V241.02Z" fill="#F0F0F0"/>
<path d="M269.26 245.78H266.42V248.62H269.26V245.78Z" fill="#F0F0F0"/>
<path d="M269.26 250.53H266.42V253.37H269.26V250.53Z" fill="#F0F0F0"/>
<path d="M269.26 255.29H266.42V258.13H269.26V255.29Z" fill="#F0F0F0"/>
<path d="M269.26 269.55H266.42V272.39H269.26V269.55Z" fill="#F0F0F0"/>
<path d="M269.26 274.3H266.42V277.14H269.26V274.3Z" fill="#F0F0F0"/>
<path d="M273.76 222.01H270.92V224.85H273.76V222.01Z" fill="#F0F0F0"/>
<path d="M273.76 226.76H270.92V229.6H273.76V226.76Z" fill="#F0F0F0"/>
<path d="M273.76 231.52H270.92V234.36H273.76V231.52Z" fill="#F0F0F0"/>
<path d="M273.76 236.27H270.92V239.11H273.76V236.27Z" fill="#F0F0F0"/>
<path d="M273.76 241.02H270.92V243.86H273.76V241.02Z" fill="#F0F0F0"/>
<path d="M273.76 245.78H270.92V248.62H273.76V245.78Z" fill="#F0F0F0"/>
<path d="M273.76 250.53H270.92V253.37H273.76V250.53Z" fill="#F0F0F0"/>
<path d="M273.76 255.29H270.92V258.13H273.76V255.29Z" fill="#F0F0F0"/>
<path d="M273.76 274.3H270.92V277.14H273.76V274.3Z" fill="#F0F0F0"/>
<path d="M278.26 222.01H275.42V224.85H278.26V222.01Z" fill="#F0F0F0"/>
<path d="M278.26 226.76H275.42V229.6H278.26V226.76Z" fill="#F0F0F0"/>
<path d="M278.26 231.52H275.42V234.36H278.26V231.52Z" fill="#F0F0F0"/>
<path d="M278.26 236.27H275.42V239.11H278.26V236.27Z" fill="#F0F0F0"/>
<path d="M278.26 241.02H275.42V243.86H278.26V241.02Z" fill="#F0F0F0"/>
<path d="M278.26 245.78H275.42V248.62H278.26V245.78Z" fill="#F0F0F0"/>
<path d="M278.26 250.53H275.42V253.37H278.26V250.53Z" fill="#F0F0F0"/>
<path d="M278.26 255.29H275.42V258.13H278.26V255.29Z" fill="#F0F0F0"/>
<path d="M282.77 222.01H279.93V224.85H282.77V222.01Z" fill="#F0F0F0"/>
<path d="M282.77 226.76H279.93V229.6H282.77V226.76Z" fill="#F0F0F0"/>
<path d="M282.77 231.52H279.93V234.36H282.77V231.52Z" fill="#F0F0F0"/>
<path d="M282.77 236.27H279.93V239.11H282.77V236.27Z" fill="#F0F0F0"/>
<path d="M282.77 241.02H279.93V243.86H282.77V241.02Z" fill="#F0F0F0"/>
<path d="M282.77 245.78H279.93V248.62H282.77V245.78Z" fill="#F0F0F0"/>
<path d="M282.77 255.29H279.93V258.13H282.77V255.29Z" fill="#F0F0F0"/>
<path d="M282.77 260.04H279.93V262.88H282.77V260.04Z" fill="#F0F0F0"/>
<path d="M282.77 274.3H279.93V277.14H282.77V274.3Z" fill="#F0F0F0"/>
<path d="M282.77 279.06H279.93V281.9H282.77V279.06Z" fill="#F0F0F0"/>
<path d="M282.77 283.81H279.93V286.65H282.77V283.81Z" fill="#F0F0F0"/>
<path d="M282.77 288.56H279.93V291.4H282.77V288.56Z" fill="#F0F0F0"/>
<path d="M282.77 293.32H279.93V296.16H282.77V293.32Z" fill="#F0F0F0"/>
<path d="M282.77 298.07H279.93V300.91H282.77V298.07Z" fill="#F0F0F0"/>
<path d="M282.77 302.83H279.93V305.67H282.77V302.83Z" fill="#F0F0F0"/>
<path d="M287.27 222.01H284.43V224.85H287.27V222.01Z" fill="#F0F0F0"/>
<path d="M287.27 226.76H284.43V229.6H287.27V226.76Z" fill="#F0F0F0"/>
<path d="M287.27 231.52H284.43V234.36H287.27V231.52Z" fill="#F0F0F0"/>
<path d="M287.27 236.27H284.43V239.11H287.27V236.27Z" fill="#F0F0F0"/>
<path d="M287.27 241.02H284.43V243.86H287.27V241.02Z" fill="#F0F0F0"/>
<path d="M287.27 245.78H284.43V248.62H287.27V245.78Z" fill="#F0F0F0"/>
<path d="M287.27 260.04H284.43V262.88H287.27V260.04Z" fill="#F0F0F0"/>
<path d="M287.27 264.79H284.43V267.63H287.27V264.79Z" fill="#F0F0F0"/>
<path d="M287.27 269.55H284.43V272.39H287.27V269.55Z" fill="#F0F0F0"/>
<path d="M287.27 274.3H284.43V277.14H287.27V274.3Z" fill="#F0F0F0"/>
<path d="M287.27 279.06H284.43V281.9H287.27V279.06Z" fill="#F0F0F0"/>
<path d="M287.27 283.81H284.43V286.65H287.27V283.81Z" fill="#F0F0F0"/>
<path d="M287.27 288.56H284.43V291.4H287.27V288.56Z" fill="#F0F0F0"/>
<path d="M287.27 293.32H284.43V296.16H287.27V293.32Z" fill="#F0F0F0"/>
<path d="M287.27 298.07H284.43V300.91H287.27V298.07Z" fill="#F0F0F0"/>
<path d="M287.27 302.83H284.43V305.67H287.27V302.83Z" fill="#F0F0F0"/>
<path d="M287.27 307.58H284.43V310.42H287.27V307.58Z" fill="#F0F0F0"/>
<path d="M287.27 317.09H284.43V319.93H287.27V317.09Z" fill="#F0F0F0"/>
<path d="M291.77 222.01H288.93V224.85H291.77V222.01Z" fill="#F0F0F0"/>
<path d="M291.77 226.76H288.93V229.6H291.77V226.76Z" fill="#F0F0F0"/>
<path d="M291.77 231.52H288.93V234.36H291.77V231.52Z" fill="#F0F0F0"/>
<path d="M291.77 236.27H288.93V239.11H291.77V236.27Z" fill="#F0F0F0"/>
<path d="M291.77 241.02H288.93V243.86H291.77V241.02Z" fill="#F0F0F0"/>
<path d="M291.77 245.78H288.93V248.62H291.77V245.78Z" fill="#F0F0F0"/>
<path d="M291.77 260.04H288.93V262.88H291.77V260.04Z" fill="#F0F0F0"/>
<path d="M291.77 264.79H288.93V267.63H291.77V264.79Z" fill="#F0F0F0"/>
<path d="M291.77 269.55H288.93V272.39H291.77V269.55Z" fill="#F0F0F0"/>
<path d="M291.77 274.3H288.93V277.14H291.77V274.3Z" fill="#F0F0F0"/>
<path d="M291.77 288.56H288.93V291.4H291.77V288.56Z" fill="#F0F0F0"/>
<path d="M291.77 293.32H288.93V296.16H291.77V293.32Z" fill="#F0F0F0"/>
<path d="M291.77 298.07H288.93V300.91H291.77V298.07Z" fill="#F0F0F0"/>
<path d="M291.77 302.83H288.93V305.67H291.77V302.83Z" fill="#F0F0F0"/>
<path d="M291.77 307.58H288.93V310.42H291.77V307.58Z" fill="#F0F0F0"/>
<path d="M291.77 317.09H288.93V319.93H291.77V317.09Z" fill="#F0F0F0"/>
<path d="M291.77 321.84H288.93V324.68H291.77V321.84Z" fill="#F0F0F0"/>
<path d="M332.64 266.21H329.8V269.05H332.64V266.21Z" fill="#F0F0F0"/>
<path d="M332.64 270.97H329.8V273.81H332.64V270.97Z" fill="#F0F0F0"/>
<path d="M332.64 275.72H329.8V278.56H332.64V275.72Z" fill="#F0F0F0"/>
<path d="M332.64 280.47H329.8V283.31H332.64V280.47Z" fill="#F0F0F0"/>
<path d="M332.64 285.23H329.8V288.07H332.64V285.23Z" fill="#F0F0F0"/>
<path d="M332.64 289.98H329.8V292.82H332.64V289.98Z" fill="#F0F0F0"/>
<path d="M332.64 294.74H329.8V297.58H332.64V294.74Z" fill="#F0F0F0"/>
<path d="M332.64 309H329.8V311.84H332.64V309Z" fill="#F0F0F0"/>
<path d="M332.64 313.75H329.8V316.59H332.64V313.75Z" fill="#F0F0F0"/>
<path d="M332.64 318.51H329.8V321.35H332.64V318.51Z" fill="#F0F0F0"/>
<path d="M337.15 266.21H334.31V269.05H337.15V266.21Z" fill="#F0F0F0"/>
<path d="M337.15 270.97H334.31V273.81H337.15V270.97Z" fill="#F0F0F0"/>
<path d="M337.15 275.72H334.31V278.56H337.15V275.72Z" fill="#F0F0F0"/>
<path d="M337.15 280.47H334.31V283.31H337.15V280.47Z" fill="#F0F0F0"/>
<path d="M337.15 285.23H334.31V288.07H337.15V285.23Z" fill="#F0F0F0"/>
<path d="M337.15 289.98H334.31V292.82H337.15V289.98Z" fill="#F0F0F0"/>
<path d="M337.15 294.74H334.31V297.58H337.15V294.74Z" fill="#F0F0F0"/>
<path d="M341.65 266.21H338.81V269.05H341.65V266.21Z" fill="#F0F0F0"/>
<path d="M341.65 270.97H338.81V273.81H341.65V270.97Z" fill="#F0F0F0"/>
<path d="M341.65 275.72H338.81V278.56H341.65V275.72Z" fill="#F0F0F0"/>
<path d="M341.65 280.47H338.81V283.31H341.65V280.47Z" fill="#F0F0F0"/>
<path d="M341.65 285.23H338.81V288.07H341.65V285.23Z" fill="#F0F0F0"/>
<path d="M341.65 289.98H338.81V292.82H341.65V289.98Z" fill="#F0F0F0"/>
<path d="M341.65 294.74H338.81V297.58H341.65V294.74Z" fill="#F0F0F0"/>
<path d="M346.15 266.21H343.31V269.05H346.15V266.21Z" fill="#F0F0F0"/>
<path d="M346.15 270.97H343.31V273.81H346.15V270.97Z" fill="#F0F0F0"/>
<path d="M346.15 275.72H343.31V278.56H346.15V275.72Z" fill="#F0F0F0"/>
<path d="M346.15 280.47H343.31V283.31H346.15V280.47Z" fill="#F0F0F0"/>
<path d="M346.15 285.23H343.31V288.07H346.15V285.23Z" fill="#F0F0F0"/>
<path d="M346.15 289.98H343.31V292.82H346.15V289.98Z" fill="#F0F0F0"/>
<path d="M346.15 294.74H343.31V297.58H346.15V294.74Z" fill="#F0F0F0"/>
<path d="M346.15 299.49H343.31V302.33H346.15V299.49Z" fill="#F0F0F0"/>
<path d="M346.15 304.24H343.31V307.08H346.15V304.24Z" fill="#F0F0F0"/>
<path d="M346.15 309H343.31V311.84H346.15V309Z" fill="#F0F0F0"/>
<path d="M346.15 313.75H343.31V316.59H346.15V313.75Z" fill="#F0F0F0"/>
<path d="M350.66 266.21H347.82V269.05H350.66V266.21Z" fill="#F0F0F0"/>
<path d="M350.66 270.97H347.82V273.81H350.66V270.97Z" fill="#F0F0F0"/>
<path d="M350.66 275.72H347.82V278.56H350.66V275.72Z" fill="#F0F0F0"/>
<path d="M350.66 280.47H347.82V283.31H350.66V280.47Z" fill="#F0F0F0"/>
<path d="M350.66 285.23H347.82V288.07H350.66V285.23Z" fill="#F0F0F0"/>
<path d="M350.66 289.98H347.82V292.82H350.66V289.98Z" fill="#F0F0F0"/>
<path d="M350.66 294.74H347.82V297.58H350.66V294.74Z" fill="#F0F0F0"/>
<path d="M350.66 299.49H347.82V302.33H350.66V299.49Z" fill="#F0F0F0"/>
<path d="M350.66 304.24H347.82V307.08H350.66V304.24Z" fill="#F0F0F0"/>
<path d="M350.66 309H347.82V311.84H350.66V309Z" fill="#F0F0F0"/>
<path d="M350.66 313.75H347.82V316.59H350.66V313.75Z" fill="#F0F0F0"/>
<path d="M350.66 318.51H347.82V321.35H350.66V318.51Z" fill="#F0F0F0"/>
<path d="M350.66 332.77H347.82V335.61H350.66V332.77Z" fill="#F0F0F0"/>
<path d="M350.66 337.52H347.82V340.36H350.66V337.52Z" fill="#F0F0F0"/>
<path d="M355.16 266.21H352.32V269.05H355.16V266.21Z" fill="#F0F0F0"/>
<path d="M355.16 270.97H352.32V273.81H355.16V270.97Z" fill="#F0F0F0"/>
<path d="M355.16 275.72H352.32V278.56H355.16V275.72Z" fill="#F0F0F0"/>
<path d="M355.16 289.98H352.32V292.82H355.16V289.98Z" fill="#F0F0F0"/>
<path d="M355.16 294.74H352.32V297.58H355.16V294.74Z" fill="#F0F0F0"/>
<path d="M355.16 299.49H352.32V302.33H355.16V299.49Z" fill="#F0F0F0"/>
<path d="M355.16 304.24H352.32V307.08H355.16V304.24Z" fill="#F0F0F0"/>
<path d="M355.16 309H352.32V311.84H355.16V309Z" fill="#F0F0F0"/>
<path d="M355.16 313.75H352.32V316.59H355.16V313.75Z" fill="#F0F0F0"/>
<path d="M355.16 318.51H352.32V321.35H355.16V318.51Z" fill="#F0F0F0"/>
<path d="M355.16 332.77H352.32V335.61H355.16V332.77Z" fill="#F0F0F0"/>
<path d="M355.16 337.52H352.32V340.36H355.16V337.52Z" fill="#F0F0F0"/>
<path d="M355.16 342.28H352.32V345.12H355.16V342.28Z" fill="#F0F0F0"/>
<path d="M402.37 237.69H399.53V240.53H402.37V237.69Z" fill="#F0F0F0"/>
<path d="M402.37 242.44H399.53V245.28H402.37V242.44Z" fill="#F0F0F0"/>
<path d="M402.37 247.2H399.53V250.04H402.37V247.2Z" fill="#F0F0F0"/>
<path d="M402.37 251.95H399.53V254.79H402.37V251.95Z" fill="#F0F0F0"/>
<path d="M402.37 256.7H399.53V259.54H402.37V256.7Z" fill="#F0F0F0"/>
<path d="M402.37 261.46H399.53V264.3H402.37V261.46Z" fill="#F0F0F0"/>
<path d="M402.37 266.21H399.53V269.05H402.37V266.21Z" fill="#F0F0F0"/>
<path d="M402.37 270.97H399.53V273.81H402.37V270.97Z" fill="#F0F0F0"/>
<path d="M402.37 275.72H399.53V278.56H402.37V275.72Z" fill="#F0F0F0"/>
<path d="M402.37 280.47H399.53V283.31H402.37V280.47Z" fill="#F0F0F0"/>
<path d="M402.37 285.23H399.53V288.07H402.37V285.23Z" fill="#F0F0F0"/>
<path d="M402.37 289.98H399.53V292.82H402.37V289.98Z" fill="#F0F0F0"/>
<path d="M402.37 294.74H399.53V297.58H402.37V294.74Z" fill="#F0F0F0"/>
<path d="M402.37 299.49H399.53V302.33H402.37V299.49Z" fill="#F0F0F0"/>
<path d="M402.37 304.24H399.53V307.08H402.37V304.24Z" fill="#F0F0F0"/>
<path d="M402.37 309H399.53V311.84H402.37V309Z" fill="#F0F0F0"/>
<path d="M402.37 313.75H399.53V316.59H402.37V313.75Z" fill="#F0F0F0"/>
<path d="M402.37 318.51H399.53V321.35H402.37V318.51Z" fill="#F0F0F0"/>
<path d="M402.37 323.26H399.53V326.1H402.37V323.26Z" fill="#F0F0F0"/>
<path d="M402.37 328.01H399.53V330.85H402.37V328.01Z" fill="#F0F0F0"/>
<path d="M402.37 332.77H399.53V335.61H402.37V332.77Z" fill="#F0F0F0"/>
<path d="M402.37 337.52H399.53V340.36H402.37V337.52Z" fill="#F0F0F0"/>
<path d="M402.37 342.28H399.53V345.12H402.37V342.28Z" fill="#F0F0F0"/>
<path d="M406.87 237.69H404.03V240.53H406.87V237.69Z" fill="#F0F0F0"/>
<path d="M406.87 242.44H404.03V245.28H406.87V242.44Z" fill="#F0F0F0"/>
<path d="M406.87 247.2H404.03V250.04H406.87V247.2Z" fill="#F0F0F0"/>
<path d="M406.87 251.95H404.03V254.79H406.87V251.95Z" fill="#F0F0F0"/>
<path d="M406.87 256.7H404.03V259.54H406.87V256.7Z" fill="#F0F0F0"/>
<path d="M406.87 261.46H404.03V264.3H406.87V261.46Z" fill="#F0F0F0"/>
<path d="M406.87 266.21H404.03V269.05H406.87V266.21Z" fill="#F0F0F0"/>
<path d="M406.87 270.97H404.03V273.81H406.87V270.97Z" fill="#F0F0F0"/>
<path d="M406.87 275.72H404.03V278.56H406.87V275.72Z" fill="#F0F0F0"/>
<path d="M406.87 280.47H404.03V283.31H406.87V280.47Z" fill="#F0F0F0"/>
<path d="M406.87 285.23H404.03V288.07H406.87V285.23Z" fill="#F0F0F0"/>
<path d="M406.87 289.98H404.03V292.82H406.87V289.98Z" fill="#F0F0F0"/>
<path d="M406.87 294.74H404.03V297.58H406.87V294.74Z" fill="#F0F0F0"/>
<path d="M406.87 299.49H404.03V302.33H406.87V299.49Z" fill="#F0F0F0"/>
<path d="M406.87 304.24H404.03V307.08H406.87V304.24Z" fill="#F0F0F0"/>
<path d="M406.87 309H404.03V311.84H406.87V309Z" fill="#F0F0F0"/>
<path d="M406.87 313.75H404.03V316.59H406.87V313.75Z" fill="#F0F0F0"/>
<path d="M406.87 318.51H404.03V321.35H406.87V318.51Z" fill="#F0F0F0"/>
<path d="M406.87 323.26H404.03V326.1H406.87V323.26Z" fill="#F0F0F0"/>
<path d="M411.38 237.69H408.54V240.53H411.38V237.69Z" fill="#F0F0F0"/>
<path d="M411.38 242.44H408.54V245.28H411.38V242.44Z" fill="#F0F0F0"/>
<path d="M411.38 247.2H408.54V250.04H411.38V247.2Z" fill="#F0F0F0"/>
<path d="M411.38 251.95H408.54V254.79H411.38V251.95Z" fill="#F0F0F0"/>
<path d="M411.38 256.7H408.54V259.54H411.38V256.7Z" fill="#F0F0F0"/>
<path d="M411.38 261.46H408.54V264.3H411.38V261.46Z" fill="#F0F0F0"/>
<path d="M411.38 266.21H408.54V269.05H411.38V266.21Z" fill="#F0F0F0"/>
<path d="M411.38 270.97H408.54V273.81H411.38V270.97Z" fill="#F0F0F0"/>
<path d="M411.38 275.72H408.54V278.56H411.38V275.72Z" fill="#F0F0F0"/>
<path d="M411.38 280.47H408.54V283.31H411.38V280.47Z" fill="#F0F0F0"/>
<path d="M411.38 285.23H408.54V288.07H411.38V285.23Z" fill="#F0F0F0"/>
<path d="M411.38 289.98H408.54V292.82H411.38V289.98Z" fill="#F0F0F0"/>
<path d="M411.38 294.74H408.54V297.58H411.38V294.74Z" fill="#F0F0F0"/>
<path d="M411.38 299.49H408.54V302.33H411.38V299.49Z" fill="#F0F0F0"/>
<path d="M411.38 304.24H408.54V307.08H411.38V304.24Z" fill="#F0F0F0"/>
<path d="M411.38 309H408.54V311.84H411.38V309Z" fill="#F0F0F0"/>
<path d="M411.38 313.75H408.54V316.59H411.38V313.75Z" fill="#F0F0F0"/>
<path d="M411.38 318.51H408.54V321.35H411.38V318.51Z" fill="#F0F0F0"/>
<path d="M411.38 323.26H408.54V326.1H411.38V323.26Z" fill="#F0F0F0"/>
<path d="M415.88 237.69H413.04V240.53H415.88V237.69Z" fill="#F0F0F0"/>
<path d="M415.88 242.44H413.04V245.28H415.88V242.44Z" fill="#F0F0F0"/>
<path d="M415.88 247.2H413.04V250.04H415.88V247.2Z" fill="#F0F0F0"/>
<path d="M415.88 251.95H413.04V254.79H415.88V251.95Z" fill="#F0F0F0"/>
<path d="M415.88 256.7H413.04V259.54H415.88V256.7Z" fill="#F0F0F0"/>
<path d="M415.88 261.46H413.04V264.3H415.88V261.46Z" fill="#F0F0F0"/>
<path d="M415.88 266.21H413.04V269.05H415.88V266.21Z" fill="#F0F0F0"/>
<path d="M415.88 270.97H413.04V273.81H415.88V270.97Z" fill="#F0F0F0"/>
<path d="M415.88 275.72H413.04V278.56H415.88V275.72Z" fill="#F0F0F0"/>
<path d="M415.88 280.47H413.04V283.31H415.88V280.47Z" fill="#F0F0F0"/>
<path d="M415.88 285.23H413.04V288.07H415.88V285.23Z" fill="#F0F0F0"/>
<path d="M415.88 289.98H413.04V292.82H415.88V289.98Z" fill="#F0F0F0"/>
<path d="M415.88 294.74H413.04V297.58H415.88V294.74Z" fill="#F0F0F0"/>
<path d="M415.88 299.49H413.04V302.33H415.88V299.49Z" fill="#F0F0F0"/>
<path d="M415.88 304.24H413.04V307.08H415.88V304.24Z" fill="#F0F0F0"/>
<path d="M420.38 237.69H417.54V240.53H420.38V237.69Z" fill="#F0F0F0"/>
<path d="M420.38 242.44H417.54V245.28H420.38V242.44Z" fill="#F0F0F0"/>
<path d="M420.38 247.2H417.54V250.04H420.38V247.2Z" fill="#F0F0F0"/>
<path d="M420.38 251.95H417.54V254.79H420.38V251.95Z" fill="#F0F0F0"/>
<path d="M420.38 256.7H417.54V259.54H420.38V256.7Z" fill="#F0F0F0"/>
<path d="M420.38 261.46H417.54V264.3H420.38V261.46Z" fill="#F0F0F0"/>
<path d="M420.38 266.21H417.54V269.05H420.38V266.21Z" fill="#F0F0F0"/>
<path d="M420.38 270.97H417.54V273.81H420.38V270.97Z" fill="#F0F0F0"/>
<path d="M420.38 275.72H417.54V278.56H420.38V275.72Z" fill="#F0F0F0"/>
<path d="M420.38 280.47H417.54V283.31H420.38V280.47Z" fill="#F0F0F0"/>
<path d="M420.38 285.23H417.54V288.07H420.38V285.23Z" fill="#F0F0F0"/>
<path d="M420.38 289.98H417.54V292.82H420.38V289.98Z" fill="#F0F0F0"/>
<path d="M420.38 294.74H417.54V297.58H420.38V294.74Z" fill="#F0F0F0"/>
<path d="M424.89 237.69H422.05V240.53H424.89V237.69Z" fill="#F0F0F0"/>
<path d="M424.89 242.44H422.05V245.28H424.89V242.44Z" fill="#F0F0F0"/>
<path d="M424.89 247.2H422.05V250.04H424.89V247.2Z" fill="#F0F0F0"/>
<path d="M424.89 251.95H422.05V254.79H424.89V251.95Z" fill="#F0F0F0"/>
<path d="M424.89 256.7H422.05V259.54H424.89V256.7Z" fill="#F0F0F0"/>
<path d="M424.89 261.46H422.05V264.3H424.89V261.46Z" fill="#F0F0F0"/>
<path d="M424.89 266.21H422.05V269.05H424.89V266.21Z" fill="#F0F0F0"/>
<path d="M424.89 270.97H422.05V273.81H424.89V270.97Z" fill="#F0F0F0"/>
<path d="M424.89 275.72H422.05V278.56H424.89V275.72Z" fill="#F0F0F0"/>
<path d="M424.89 280.47H422.05V283.31H424.89V280.47Z" fill="#F0F0F0"/>
<path d="M424.89 285.23H422.05V288.07H424.89V285.23Z" fill="#F0F0F0"/>
<path d="M424.89 289.98H422.05V292.82H424.89V289.98Z" fill="#F0F0F0"/>
<path d="M93.9401 272.38H91.1001V275.22H93.9401V272.38Z" fill="#F0F0F0"/>
<path d="M93.9401 277.14H91.1001V279.98H93.9401V277.14Z" fill="#F0F0F0"/>
<path d="M93.9401 281.89H91.1001V284.73H93.9401V281.89Z" fill="#F0F0F0"/>
<path d="M93.9401 286.65H91.1001V289.49H93.9401V286.65Z" fill="#F0F0F0"/>
<path d="M93.9401 291.4H91.1001V294.24H93.9401V291.4Z" fill="#F0F0F0"/>
<path d="M93.9401 296.15H91.1001V298.99H93.9401V296.15Z" fill="#F0F0F0"/>
<path d="M93.9401 300.91H91.1001V303.75H93.9401V300.91Z" fill="#F0F0F0"/>
<path d="M93.9401 305.66H91.1001V308.5H93.9401V305.66Z" fill="#F0F0F0"/>
<path d="M93.9401 310.42H91.1001V313.26H93.9401V310.42Z" fill="#F0F0F0"/>
<path d="M93.9401 315.17H91.1001V318.01H93.9401V315.17Z" fill="#F0F0F0"/>
<path d="M93.9401 319.92H91.1001V322.76H93.9401V319.92Z" fill="#F0F0F0"/>
<path d="M93.9401 324.68H91.1001V327.52H93.9401V324.68Z" fill="#F0F0F0"/>
<path d="M93.9401 329.43H91.1001V332.27H93.9401V329.43Z" fill="#F0F0F0"/>
<path d="M93.9401 334.19H91.1001V337.03H93.9401V334.19Z" fill="#F0F0F0"/>
<path d="M93.9401 338.94H91.1001V341.78H93.9401V338.94Z" fill="#F0F0F0"/>
<path d="M93.9401 343.69H91.1001V346.53H93.9401V343.69Z" fill="#F0F0F0"/>
<path d="M93.9401 348.45H91.1001V351.29H93.9401V348.45Z" fill="#F0F0F0"/>
<path d="M93.9401 353.2H91.1001V356.04H93.9401V353.2Z" fill="#F0F0F0"/>
<path d="M93.9401 357.96H91.1001V360.8H93.9401V357.96Z" fill="#F0F0F0"/>
<path d="M93.9401 362.71H91.1001V365.55H93.9401V362.71Z" fill="#F0F0F0"/>
<path d="M98.4401 272.38H95.6001V275.22H98.4401V272.38Z" fill="#F0F0F0"/>
<path d="M98.4401 277.14H95.6001V279.98H98.4401V277.14Z" fill="#F0F0F0"/>
<path d="M98.4401 281.89H95.6001V284.73H98.4401V281.89Z" fill="#F0F0F0"/>
<path d="M98.4401 286.65H95.6001V289.49H98.4401V286.65Z" fill="#F0F0F0"/>
<path d="M98.4401 291.4H95.6001V294.24H98.4401V291.4Z" fill="#F0F0F0"/>
<path d="M98.4401 296.15H95.6001V298.99H98.4401V296.15Z" fill="#F0F0F0"/>
<path d="M98.4401 300.91H95.6001V303.75H98.4401V300.91Z" fill="#F0F0F0"/>
<path d="M98.4401 305.66H95.6001V308.5H98.4401V305.66Z" fill="#F0F0F0"/>
<path d="M98.4401 310.42H95.6001V313.26H98.4401V310.42Z" fill="#F0F0F0"/>
<path d="M98.4401 315.17H95.6001V318.01H98.4401V315.17Z" fill="#F0F0F0"/>
<path d="M98.4401 319.92H95.6001V322.76H98.4401V319.92Z" fill="#F0F0F0"/>
<path d="M98.4401 324.68H95.6001V327.52H98.4401V324.68Z" fill="#F0F0F0"/>
<path d="M98.4401 329.43H95.6001V332.27H98.4401V329.43Z" fill="#F0F0F0"/>
<path d="M98.4401 334.19H95.6001V337.03H98.4401V334.19Z" fill="#F0F0F0"/>
<path d="M98.4401 338.94H95.6001V341.78H98.4401V338.94Z" fill="#F0F0F0"/>
<path d="M98.4401 343.69H95.6001V346.53H98.4401V343.69Z" fill="#F0F0F0"/>
<path d="M98.4401 348.45H95.6001V351.29H98.4401V348.45Z" fill="#F0F0F0"/>
<path d="M98.4401 353.2H95.6001V356.04H98.4401V353.2Z" fill="#F0F0F0"/>
<path d="M102.95 272.38H100.11V275.22H102.95V272.38Z" fill="#F0F0F0"/>
<path d="M102.95 277.14H100.11V279.98H102.95V277.14Z" fill="#F0F0F0"/>
<path d="M102.95 281.89H100.11V284.73H102.95V281.89Z" fill="#F0F0F0"/>
<path d="M102.95 286.65H100.11V289.49H102.95V286.65Z" fill="#F0F0F0"/>
<path d="M102.95 291.4H100.11V294.24H102.95V291.4Z" fill="#F0F0F0"/>
<path d="M102.95 296.15H100.11V298.99H102.95V296.15Z" fill="#F0F0F0"/>
<path d="M102.95 300.91H100.11V303.75H102.95V300.91Z" fill="#F0F0F0"/>
<path d="M102.95 305.66H100.11V308.5H102.95V305.66Z" fill="#F0F0F0"/>
<path d="M102.95 310.42H100.11V313.26H102.95V310.42Z" fill="#F0F0F0"/>
<path d="M102.95 315.17H100.11V318.01H102.95V315.17Z" fill="#F0F0F0"/>
<path d="M102.95 319.92H100.11V322.76H102.95V319.92Z" fill="#F0F0F0"/>
<path d="M102.95 324.68H100.11V327.52H102.95V324.68Z" fill="#F0F0F0"/>
<path d="M102.95 329.43H100.11V332.27H102.95V329.43Z" fill="#F0F0F0"/>
<path d="M102.95 334.19H100.11V337.03H102.95V334.19Z" fill="#F0F0F0"/>
<path d="M102.95 338.94H100.11V341.78H102.95V338.94Z" fill="#F0F0F0"/>
<path d="M102.95 343.69H100.11V346.53H102.95V343.69Z" fill="#F0F0F0"/>
<path d="M102.95 348.45H100.11V351.29H102.95V348.45Z" fill="#F0F0F0"/>
<path d="M102.95 353.2H100.11V356.04H102.95V353.2Z" fill="#F0F0F0"/>
<path d="M77.09 307.08H74.25V309.92H77.09V307.08Z" fill="#F0F0F0"/>
<path d="M77.09 311.83H74.25V314.67H77.09V311.83Z" fill="#F0F0F0"/>
<path d="M77.09 316.59H74.25V319.43H77.09V316.59Z" fill="#F0F0F0"/>
<path d="M77.09 321.34H74.25V324.18H77.09V321.34Z" fill="#F0F0F0"/>
<path d="M77.09 326.1H74.25V328.94H77.09V326.1Z" fill="#F0F0F0"/>
<path d="M77.09 330.85H74.25V333.69H77.09V330.85Z" fill="#F0F0F0"/>
<path d="M77.09 335.6H74.25V338.44H77.09V335.6Z" fill="#F0F0F0"/>
<path d="M77.09 340.36H74.25V343.2H77.09V340.36Z" fill="#F0F0F0"/>
<path d="M77.09 345.11H74.25V347.95H77.09V345.11Z" fill="#F0F0F0"/>
<path d="M77.09 349.87H74.25V352.71H77.09V349.87Z" fill="#F0F0F0"/>
<path d="M77.09 354.62H74.25V357.46H77.09V354.62Z" fill="#F0F0F0"/>
<path d="M77.09 359.38H74.25V362.22H77.09V359.38Z" fill="#F0F0F0"/>
<path d="M77.09 364.13H74.25V366.97H77.09V364.13Z" fill="#F0F0F0"/>
<path d="M81.5998 307.08H78.7598V309.92H81.5998V307.08Z" fill="#F0F0F0"/>
<path d="M81.5998 311.83H78.7598V314.67H81.5998V311.83Z" fill="#F0F0F0"/>
<path d="M81.5998 316.59H78.7598V319.43H81.5998V316.59Z" fill="#F0F0F0"/>
<path d="M81.5998 321.34H78.7598V324.18H81.5998V321.34Z" fill="#F0F0F0"/>
<path d="M81.5998 326.1H78.7598V328.94H81.5998V326.1Z" fill="#F0F0F0"/>
<path d="M81.5998 330.85H78.7598V333.69H81.5998V330.85Z" fill="#F0F0F0"/>
<path d="M81.5998 335.6H78.7598V338.44H81.5998V335.6Z" fill="#F0F0F0"/>
<path d="M81.5998 340.36H78.7598V343.2H81.5998V340.36Z" fill="#F0F0F0"/>
<path d="M81.5998 345.11H78.7598V347.95H81.5998V345.11Z" fill="#F0F0F0"/>
<path d="M81.5998 349.87H78.7598V352.71H81.5998V349.87Z" fill="#F0F0F0"/>
<path d="M81.5998 354.62H78.7598V357.46H81.5998V354.62Z" fill="#F0F0F0"/>
<path d="M81.5998 359.38H78.7598V362.22H81.5998V359.38Z" fill="#F0F0F0"/>
<path d="M81.5998 364.13H78.7598V366.97H81.5998V364.13Z" fill="#F0F0F0"/>
<path d="M86.0998 307.08H83.2598V309.92H86.0998V307.08Z" fill="#F0F0F0"/>
<path d="M86.0998 311.83H83.2598V314.67H86.0998V311.83Z" fill="#F0F0F0"/>
<path d="M86.0998 316.59H83.2598V319.43H86.0998V316.59Z" fill="#F0F0F0"/>
<path d="M86.0998 321.34H83.2598V324.18H86.0998V321.34Z" fill="#F0F0F0"/>
<path d="M86.0998 326.1H83.2598V328.94H86.0998V326.1Z" fill="#F0F0F0"/>
<path d="M86.0998 330.85H83.2598V333.69H86.0998V330.85Z" fill="#F0F0F0"/>
<path d="M86.0998 335.6H83.2598V338.44H86.0998V335.6Z" fill="#F0F0F0"/>
<path d="M86.0998 340.36H83.2598V343.2H86.0998V340.36Z" fill="#F0F0F0"/>
<path d="M86.0998 345.11H83.2598V347.95H86.0998V345.11Z" fill="#F0F0F0"/>
<path d="M86.0998 349.87H83.2598V352.71H86.0998V349.87Z" fill="#F0F0F0"/>
<path d="M86.0998 354.62H83.2598V357.46H86.0998V354.62Z" fill="#F0F0F0"/>
<path d="M86.0998 359.38H83.2598V362.22H86.0998V359.38Z" fill="#F0F0F0"/>
<path d="M86.0998 364.13H83.2598V366.97H86.0998V364.13Z" fill="#F0F0F0"/>
<path d="M86.0998 368.88H83.2598V371.72H86.0998V368.88Z" fill="#F0F0F0"/>
<path d="M111.12 308.5H108.28V311.34H111.12V308.5Z" fill="#F0F0F0"/>
<path d="M111.12 313.25H108.28V316.09H111.12V313.25Z" fill="#F0F0F0"/>
<path d="M111.12 318.01H108.28V320.85H111.12V318.01Z" fill="#F0F0F0"/>
<path d="M111.12 322.76H108.28V325.6H111.12V322.76Z" fill="#F0F0F0"/>
<path d="M111.12 327.51H108.28V330.35H111.12V327.51Z" fill="#F0F0F0"/>
<path d="M111.12 332.27H108.28V335.11H111.12V332.27Z" fill="#F0F0F0"/>
<path d="M111.12 337.02H108.28V339.86H111.12V337.02Z" fill="#F0F0F0"/>
<path d="M111.12 341.78H108.28V344.62H111.12V341.78Z" fill="#F0F0F0"/>
<path d="M111.12 346.53H108.28V349.37H111.12V346.53Z" fill="#F0F0F0"/>
<path d="M111.12 351.28H108.28V354.12H111.12V351.28Z" fill="#F0F0F0"/>
<path d="M111.12 365.55H108.28V368.39H111.12V365.55Z" fill="#F0F0F0"/>
<path d="M115.62 308.5H112.78V311.34H115.62V308.5Z" fill="#F0F0F0"/>
<path d="M115.62 313.25H112.78V316.09H115.62V313.25Z" fill="#F0F0F0"/>
<path d="M115.62 318.01H112.78V320.85H115.62V318.01Z" fill="#F0F0F0"/>
<path d="M115.62 322.76H112.78V325.6H115.62V322.76Z" fill="#F0F0F0"/>
<path d="M115.62 327.51H112.78V330.35H115.62V327.51Z" fill="#F0F0F0"/>
<path d="M115.62 332.27H112.78V335.11H115.62V332.27Z" fill="#F0F0F0"/>
<path d="M115.62 337.02H112.78V339.86H115.62V337.02Z" fill="#F0F0F0"/>
<path d="M115.62 341.78H112.78V344.62H115.62V341.78Z" fill="#F0F0F0"/>
<path d="M115.62 346.53H112.78V349.37H115.62V346.53Z" fill="#F0F0F0"/>
<path d="M115.62 360.79H112.78V363.63H115.62V360.79Z" fill="#F0F0F0"/>
<path d="M115.62 365.55H112.78V368.39H115.62V365.55Z" fill="#F0F0F0"/>
<path d="M120.13 308.5H117.29V311.34H120.13V308.5Z" fill="#F0F0F0"/>
<path d="M120.13 313.25H117.29V316.09H120.13V313.25Z" fill="#F0F0F0"/>
<path d="M120.13 318.01H117.29V320.85H120.13V318.01Z" fill="#F0F0F0"/>
<path d="M120.13 322.76H117.29V325.6H120.13V322.76Z" fill="#F0F0F0"/>
<path d="M120.13 327.51H117.29V330.35H120.13V327.51Z" fill="#F0F0F0"/>
<path d="M120.13 332.27H117.29V335.11H120.13V332.27Z" fill="#F0F0F0"/>
<path d="M120.13 337.02H117.29V339.86H120.13V337.02Z" fill="#F0F0F0"/>
<path d="M120.13 341.78H117.29V344.62H120.13V341.78Z" fill="#F0F0F0"/>
<path d="M120.13 356.04H117.29V358.88H120.13V356.04Z" fill="#F0F0F0"/>
<path d="M120.13 360.79H117.29V363.63H120.13V360.79Z" fill="#F0F0F0"/>
<path d="M120.13 365.55H117.29V368.39H120.13V365.55Z" fill="#F0F0F0"/>
<path d="M162 236.27H159.16V239.11H162V236.27Z" fill="#F0F0F0"/>
<path d="M162 241.02H159.16V243.86H162V241.02Z" fill="#F0F0F0"/>
<path d="M162 245.78H159.16V248.62H162V245.78Z" fill="#F0F0F0"/>
<path d="M162 250.53H159.16V253.37H162V250.53Z" fill="#F0F0F0"/>
<path d="M162 255.29H159.16V258.13H162V255.29Z" fill="#F0F0F0"/>
<path d="M162 260.04H159.16V262.88H162V260.04Z" fill="#F0F0F0"/>
<path d="M162 264.79H159.16V267.63H162V264.79Z" fill="#F0F0F0"/>
<path d="M162 269.55H159.16V272.39H162V269.55Z" fill="#F0F0F0"/>
<path d="M162 274.3H159.16V277.14H162V274.3Z" fill="#F0F0F0"/>
<path d="M162 279.06H159.16V281.9H162V279.06Z" fill="#F0F0F0"/>
<path d="M162 283.81H159.16V286.65H162V283.81Z" fill="#F0F0F0"/>
<path d="M162 288.56H159.16V291.4H162V288.56Z" fill="#F0F0F0"/>
<path d="M162 293.32H159.16V296.16H162V293.32Z" fill="#F0F0F0"/>
<path d="M162 298.07H159.16V300.91H162V298.07Z" fill="#F0F0F0"/>
<path d="M162 302.83H159.16V305.67H162V302.83Z" fill="#F0F0F0"/>
<path d="M162 307.58H159.16V310.42H162V307.58Z" fill="#F0F0F0"/>
<path d="M162 312.33H159.16V315.17H162V312.33Z" fill="#F0F0F0"/>
<path d="M162 321.84H159.16V324.68H162V321.84Z" fill="#F0F0F0"/>
<path d="M162 326.6H159.16V329.44H162V326.6Z" fill="#F0F0F0"/>
<path d="M162 331.35H159.16V334.19H162V331.35Z" fill="#F0F0F0"/>
<path d="M162 336.11H159.16V338.95H162V336.11Z" fill="#F0F0F0"/>
<path d="M162 340.86H159.16V343.7H162V340.86Z" fill="#F0F0F0"/>
<path d="M166.5 236.27H163.66V239.11H166.5V236.27Z" fill="#F0F0F0"/>
<path d="M166.5 241.02H163.66V243.86H166.5V241.02Z" fill="#F0F0F0"/>
<path d="M166.5 245.78H163.66V248.62H166.5V245.78Z" fill="#F0F0F0"/>
<path d="M166.5 250.53H163.66V253.37H166.5V250.53Z" fill="#F0F0F0"/>
<path d="M166.5 255.29H163.66V258.13H166.5V255.29Z" fill="#F0F0F0"/>
<path d="M166.5 260.04H163.66V262.88H166.5V260.04Z" fill="#F0F0F0"/>
<path d="M166.5 264.79H163.66V267.63H166.5V264.79Z" fill="#F0F0F0"/>
<path d="M166.5 269.55H163.66V272.39H166.5V269.55Z" fill="#F0F0F0"/>
<path d="M166.5 274.3H163.66V277.14H166.5V274.3Z" fill="#F0F0F0"/>
<path d="M166.5 279.06H163.66V281.9H166.5V279.06Z" fill="#F0F0F0"/>
<path d="M166.5 283.81H163.66V286.65H166.5V283.81Z" fill="#F0F0F0"/>
<path d="M166.5 288.56H163.66V291.4H166.5V288.56Z" fill="#F0F0F0"/>
<path d="M166.5 293.32H163.66V296.16H166.5V293.32Z" fill="#F0F0F0"/>
<path d="M166.5 298.07H163.66V300.91H166.5V298.07Z" fill="#F0F0F0"/>
<path d="M166.5 302.83H163.66V305.67H166.5V302.83Z" fill="#F0F0F0"/>
<path d="M166.5 307.58H163.66V310.42H166.5V307.58Z" fill="#F0F0F0"/>
<path d="M166.5 336.11H163.66V338.95H166.5V336.11Z" fill="#F0F0F0"/>
<path d="M166.5 340.86H163.66V343.7H166.5V340.86Z" fill="#F0F0F0"/>
<path d="M171 236.27H168.16V239.11H171V236.27Z" fill="#F0F0F0"/>
<path d="M171 241.02H168.16V243.86H171V241.02Z" fill="#F0F0F0"/>
<path d="M171 245.78H168.16V248.62H171V245.78Z" fill="#F0F0F0"/>
<path d="M171 250.53H168.16V253.37H171V250.53Z" fill="#F0F0F0"/>
<path d="M171 255.29H168.16V258.13H171V255.29Z" fill="#F0F0F0"/>
<path d="M171 260.04H168.16V262.88H171V260.04Z" fill="#F0F0F0"/>
<path d="M171 264.79H168.16V267.63H171V264.79Z" fill="#F0F0F0"/>
<path d="M171 269.55H168.16V272.39H171V269.55Z" fill="#F0F0F0"/>
<path d="M171 274.3H168.16V277.14H171V274.3Z" fill="#F0F0F0"/>
<path d="M171 279.06H168.16V281.9H171V279.06Z" fill="#F0F0F0"/>
<path d="M171 283.81H168.16V286.65H171V283.81Z" fill="#F0F0F0"/>
<path d="M171 288.56H168.16V291.4H171V288.56Z" fill="#F0F0F0"/>
<path d="M171 293.32H168.16V296.16H171V293.32Z" fill="#F0F0F0"/>
<path d="M171 298.07H168.16V300.91H171V298.07Z" fill="#F0F0F0"/>
<path d="M171 302.83H168.16V305.67H171V302.83Z" fill="#F0F0F0"/>
<path d="M171 307.58H168.16V310.42H171V307.58Z" fill="#F0F0F0"/>
<path d="M171 317.09H168.16V319.93H171V317.09Z" fill="#F0F0F0"/>
<path d="M171 321.84H168.16V324.68H171V321.84Z" fill="#F0F0F0"/>
<path d="M171 326.6H168.16V329.44H171V326.6Z" fill="#F0F0F0"/>
<path d="M171 331.35H168.16V334.19H171V331.35Z" fill="#F0F0F0"/>
<path d="M171 340.86H168.16V343.7H171V340.86Z" fill="#F0F0F0"/>
<path d="M145.65 296.15H142.81V298.99H145.65V296.15Z" fill="#F0F0F0"/>
<path d="M145.65 300.91H142.81V303.75H145.65V300.91Z" fill="#F0F0F0"/>
<path d="M145.65 305.66H142.81V308.5H145.65V305.66Z" fill="#F0F0F0"/>
<path d="M145.65 310.42H142.81V313.26H145.65V310.42Z" fill="#F0F0F0"/>
<path d="M145.65 315.17H142.81V318.01H145.65V315.17Z" fill="#F0F0F0"/>
<path d="M145.65 319.92H142.81V322.76H145.65V319.92Z" fill="#F0F0F0"/>
<path d="M145.65 324.68H142.81V327.52H145.65V324.68Z" fill="#F0F0F0"/>
<path d="M145.65 334.19H142.81V337.03H145.65V334.19Z" fill="#F0F0F0"/>
<path d="M145.65 338.94H142.81V341.78H145.65V338.94Z" fill="#F0F0F0"/>
<path d="M145.65 343.69H142.81V346.53H145.65V343.69Z" fill="#F0F0F0"/>
<path d="M145.65 348.45H142.81V351.29H145.65V348.45Z" fill="#F0F0F0"/>
<path d="M145.65 353.2H142.81V356.04H145.65V353.2Z" fill="#F0F0F0"/>
<path d="M145.65 357.96H142.81V360.8H145.65V357.96Z" fill="#F0F0F0"/>
<path d="M145.65 362.71H142.81V365.55H145.65V362.71Z" fill="#F0F0F0"/>
<path d="M145.65 367.47H142.81V370.31H145.65V367.47Z" fill="#F0F0F0"/>
<path d="M150.15 296.15H147.31V298.99H150.15V296.15Z" fill="#F0F0F0"/>
<path d="M150.15 300.91H147.31V303.75H150.15V300.91Z" fill="#F0F0F0"/>
<path d="M150.15 305.66H147.31V308.5H150.15V305.66Z" fill="#F0F0F0"/>
<path d="M150.15 310.42H147.31V313.26H150.15V310.42Z" fill="#F0F0F0"/>
<path d="M150.15 315.17H147.31V318.01H150.15V315.17Z" fill="#F0F0F0"/>
<path d="M150.15 319.92H147.31V322.76H150.15V319.92Z" fill="#F0F0F0"/>
<path d="M150.15 334.19H147.31V337.03H150.15V334.19Z" fill="#F0F0F0"/>
<path d="M150.15 338.94H147.31V341.78H150.15V338.94Z" fill="#F0F0F0"/>
<path d="M150.15 343.69H147.31V346.53H150.15V343.69Z" fill="#F0F0F0"/>
<path d="M150.15 348.45H147.31V351.29H150.15V348.45Z" fill="#F0F0F0"/>
<path d="M150.15 353.2H147.31V356.04H150.15V353.2Z" fill="#F0F0F0"/>
<path d="M150.15 357.96H147.31V360.8H150.15V357.96Z" fill="#F0F0F0"/>
<path d="M150.15 362.71H147.31V365.55H150.15V362.71Z" fill="#F0F0F0"/>
<path d="M150.15 367.47H147.31V370.31H150.15V367.47Z" fill="#F0F0F0"/>
<path d="M154.66 296.15H151.82V298.99H154.66V296.15Z" fill="#F0F0F0"/>
<path d="M154.66 300.91H151.82V303.75H154.66V300.91Z" fill="#F0F0F0"/>
<path d="M154.66 305.66H151.82V308.5H154.66V305.66Z" fill="#F0F0F0"/>
<path d="M154.66 310.42H151.82V313.26H154.66V310.42Z" fill="#F0F0F0"/>
<path d="M154.66 315.17H151.82V318.01H154.66V315.17Z" fill="#F0F0F0"/>
<path d="M154.66 319.92H151.82V322.76H154.66V319.92Z" fill="#F0F0F0"/>
<path d="M154.66 329.43H151.82V332.27H154.66V329.43Z" fill="#F0F0F0"/>
<path d="M154.66 334.19H151.82V337.03H154.66V334.19Z" fill="#F0F0F0"/>
<path d="M154.66 338.94H151.82V341.78H154.66V338.94Z" fill="#F0F0F0"/>
<path d="M154.66 343.69H151.82V346.53H154.66V343.69Z" fill="#F0F0F0"/>
<path d="M154.66 348.45H151.82V351.29H154.66V348.45Z" fill="#F0F0F0"/>
<path d="M154.66 353.2H151.82V356.04H154.66V353.2Z" fill="#F0F0F0"/>
<path d="M154.66 357.96H151.82V360.8H154.66V357.96Z" fill="#F0F0F0"/>
<path d="M154.66 362.71H151.82V365.55H154.66V362.71Z" fill="#F0F0F0"/>
<path d="M154.66 367.47H151.82V370.31H154.66V367.47Z" fill="#F0F0F0"/>
<path d="M249.57 269.55H246.73V272.39H249.57V269.55Z" fill="#F0F0F0"/>
<path d="M249.57 274.3H246.73V277.14H249.57V274.3Z" fill="#F0F0F0"/>
<path d="M249.57 279.06H246.73V281.9H249.57V279.06Z" fill="#F0F0F0"/>
<path d="M249.57 283.81H246.73V286.65H249.57V283.81Z" fill="#F0F0F0"/>
<path d="M249.57 288.56H246.73V291.4H249.57V288.56Z" fill="#F0F0F0"/>
<path d="M249.57 293.32H246.73V296.16H249.57V293.32Z" fill="#F0F0F0"/>
<path d="M249.57 298.07H246.73V300.91H249.57V298.07Z" fill="#F0F0F0"/>
<path d="M249.57 302.83H246.73V305.67H249.57V302.83Z" fill="#F0F0F0"/>
<path d="M249.57 307.58H246.73V310.42H249.57V307.58Z" fill="#F0F0F0"/>
<path d="M249.57 312.33H246.73V315.17H249.57V312.33Z" fill="#F0F0F0"/>
<path d="M249.57 317.09H246.73V319.93H249.57V317.09Z" fill="#F0F0F0"/>
<path d="M249.57 321.84H246.73V324.68H249.57V321.84Z" fill="#F0F0F0"/>
<path d="M249.57 326.6H246.73V329.44H249.57V326.6Z" fill="#F0F0F0"/>
<path d="M249.57 336.11H246.73V338.95H249.57V336.11Z" fill="#F0F0F0"/>
<path d="M249.57 340.86H246.73V343.7H249.57V340.86Z" fill="#F0F0F0"/>
<path d="M249.57 345.61H246.73V348.45H249.57V345.61Z" fill="#F0F0F0"/>
<path d="M249.57 350.37H246.73V353.21H249.57V350.37Z" fill="#F0F0F0"/>
<path d="M249.57 359.88H246.73V362.72H249.57V359.88Z" fill="#F0F0F0"/>
<path d="M249.57 364.63H246.73V367.47H249.57V364.63Z" fill="#F0F0F0"/>
<path d="M249.57 369.38H246.73V372.22H249.57V369.38Z" fill="#F0F0F0"/>
<path d="M254.08 269.55H251.24V272.39H254.08V269.55Z" fill="#F0F0F0"/>
<path d="M254.08 274.3H251.24V277.14H254.08V274.3Z" fill="#F0F0F0"/>
<path d="M254.08 279.06H251.24V281.9H254.08V279.06Z" fill="#F0F0F0"/>
<path d="M254.08 283.81H251.24V286.65H254.08V283.81Z" fill="#F0F0F0"/>
<path d="M254.08 288.56H251.24V291.4H254.08V288.56Z" fill="#F0F0F0"/>
<path d="M254.08 293.32H251.24V296.16H254.08V293.32Z" fill="#F0F0F0"/>
<path d="M254.08 298.07H251.24V300.91H254.08V298.07Z" fill="#F0F0F0"/>
<path d="M254.08 302.83H251.24V305.67H254.08V302.83Z" fill="#F0F0F0"/>
<path d="M254.08 307.58H251.24V310.42H254.08V307.58Z" fill="#F0F0F0"/>
<path d="M254.08 312.33H251.24V315.17H254.08V312.33Z" fill="#F0F0F0"/>
<path d="M254.08 317.09H251.24V319.93H254.08V317.09Z" fill="#F0F0F0"/>
<path d="M254.08 321.84H251.24V324.68H254.08V321.84Z" fill="#F0F0F0"/>
<path d="M254.08 326.6H251.24V329.44H254.08V326.6Z" fill="#F0F0F0"/>
<path d="M254.08 340.86H251.24V343.7H254.08V340.86Z" fill="#F0F0F0"/>
<path d="M254.08 345.61H251.24V348.45H254.08V345.61Z" fill="#F0F0F0"/>
<path d="M254.08 355.12H251.24V357.96H254.08V355.12Z" fill="#F0F0F0"/>
<path d="M254.08 359.88H251.24V362.72H254.08V359.88Z" fill="#F0F0F0"/>
<path d="M254.08 364.63H251.24V367.47H254.08V364.63Z" fill="#F0F0F0"/>
<path d="M254.08 369.38H251.24V372.22H254.08V369.38Z" fill="#F0F0F0"/>
<path d="M258.58 269.55H255.74V272.39H258.58V269.55Z" fill="#F0F0F0"/>
<path d="M258.58 274.3H255.74V277.14H258.58V274.3Z" fill="#F0F0F0"/>
<path d="M258.58 279.06H255.74V281.9H258.58V279.06Z" fill="#F0F0F0"/>
<path d="M258.58 283.81H255.74V286.65H258.58V283.81Z" fill="#F0F0F0"/>
<path d="M258.58 288.56H255.74V291.4H258.58V288.56Z" fill="#F0F0F0"/>
<path d="M258.58 293.32H255.74V296.16H258.58V293.32Z" fill="#F0F0F0"/>
<path d="M258.58 298.07H255.74V300.91H258.58V298.07Z" fill="#F0F0F0"/>
<path d="M258.58 302.83H255.74V305.67H258.58V302.83Z" fill="#F0F0F0"/>
<path d="M258.58 307.58H255.74V310.42H258.58V307.58Z" fill="#F0F0F0"/>
<path d="M258.58 312.33H255.74V315.17H258.58V312.33Z" fill="#F0F0F0"/>
<path d="M258.58 317.09H255.74V319.93H258.58V317.09Z" fill="#F0F0F0"/>
<path d="M258.58 321.84H255.74V324.68H258.58V321.84Z" fill="#F0F0F0"/>
<path d="M258.58 326.6H255.74V329.44H258.58V326.6Z" fill="#F0F0F0"/>
<path d="M258.58 331.35H255.74V334.19H258.58V331.35Z" fill="#F0F0F0"/>
<path d="M258.58 340.86H255.74V343.7H258.58V340.86Z" fill="#F0F0F0"/>
<path d="M258.58 350.37H255.74V353.21H258.58V350.37Z" fill="#F0F0F0"/>
<path d="M258.58 355.12H255.74V357.96H258.58V355.12Z" fill="#F0F0F0"/>
<path d="M258.58 359.88H255.74V362.72H258.58V359.88Z" fill="#F0F0F0"/>
<path d="M258.58 364.63H255.74V367.47H258.58V364.63Z" fill="#F0F0F0"/>
<path d="M258.58 369.38H255.74V372.22H258.58V369.38Z" fill="#F0F0F0"/>
<path d="M231.22 296.65H228.38V299.49H231.22V296.65Z" fill="#F0F0F0"/>
<path d="M231.22 301.41H228.38V304.25H231.22V301.41Z" fill="#F0F0F0"/>
<path d="M231.22 306.16H228.38V309H231.22V306.16Z" fill="#F0F0F0"/>
<path d="M231.22 310.92H228.38V313.76H231.22V310.92Z" fill="#F0F0F0"/>
<path d="M231.22 315.67H228.38V318.51H231.22V315.67Z" fill="#F0F0F0"/>
<path d="M231.22 320.43H228.38V323.27H231.22V320.43Z" fill="#F0F0F0"/>
<path d="M231.22 334.69H228.38V337.53H231.22V334.69Z" fill="#F0F0F0"/>
<path d="M231.22 339.44H228.38V342.28H231.22V339.44Z" fill="#F0F0F0"/>
<path d="M231.22 344.2H228.38V347.04H231.22V344.2Z" fill="#F0F0F0"/>
<path d="M231.22 348.95H228.38V351.79H231.22V348.95Z" fill="#F0F0F0"/>
<path d="M231.22 353.7H228.38V356.54H231.22V353.7Z" fill="#F0F0F0"/>
<path d="M231.22 358.46H228.38V361.3H231.22V358.46Z" fill="#F0F0F0"/>
<path d="M231.22 363.21H228.38V366.05H231.22V363.21Z" fill="#F0F0F0"/>
<path d="M235.73 296.65H232.89V299.49H235.73V296.65Z" fill="#F0F0F0"/>
<path d="M235.73 301.41H232.89V304.25H235.73V301.41Z" fill="#F0F0F0"/>
<path d="M235.73 306.16H232.89V309H235.73V306.16Z" fill="#F0F0F0"/>
<path d="M235.73 310.92H232.89V313.76H235.73V310.92Z" fill="#F0F0F0"/>
<path d="M235.73 315.67H232.89V318.51H235.73V315.67Z" fill="#F0F0F0"/>
<path d="M235.73 320.43H232.89V323.27H235.73V320.43Z" fill="#F0F0F0"/>
<path d="M235.73 334.69H232.89V337.53H235.73V334.69Z" fill="#F0F0F0"/>
<path d="M235.73 339.44H232.89V342.28H235.73V339.44Z" fill="#F0F0F0"/>
<path d="M235.73 344.2H232.89V347.04H235.73V344.2Z" fill="#F0F0F0"/>
<path d="M235.73 348.95H232.89V351.79H235.73V348.95Z" fill="#F0F0F0"/>
<path d="M235.73 353.7H232.89V356.54H235.73V353.7Z" fill="#F0F0F0"/>
<path d="M235.73 358.46H232.89V361.3H235.73V358.46Z" fill="#F0F0F0"/>
<path d="M235.73 367.97H232.89V370.81H235.73V367.97Z" fill="#F0F0F0"/>
<path d="M385.35 275.72H382.51V278.56H385.35V275.72Z" fill="#F0F0F0"/>
<path d="M385.35 280.47H382.51V283.31H385.35V280.47Z" fill="#F0F0F0"/>
<path d="M385.35 285.23H382.51V288.07H385.35V285.23Z" fill="#F0F0F0"/>
<path d="M385.35 289.98H382.51V292.82H385.35V289.98Z" fill="#F0F0F0"/>
<path d="M385.35 294.74H382.51V297.58H385.35V294.74Z" fill="#F0F0F0"/>
<path d="M385.35 299.49H382.51V302.33H385.35V299.49Z" fill="#F0F0F0"/>
<path d="M385.35 304.24H382.51V307.08H385.35V304.24Z" fill="#F0F0F0"/>
<path d="M385.35 309H382.51V311.84H385.35V309Z" fill="#F0F0F0"/>
<path d="M385.35 313.75H382.51V316.59H385.35V313.75Z" fill="#F0F0F0"/>
<path d="M385.35 318.51H382.51V321.35H385.35V318.51Z" fill="#F0F0F0"/>
<path d="M385.35 323.26H382.51V326.1H385.35V323.26Z" fill="#F0F0F0"/>
<path d="M385.35 332.77H382.51V335.61H385.35V332.77Z" fill="#F0F0F0"/>
<path d="M385.35 337.52H382.51V340.36H385.35V337.52Z" fill="#F0F0F0"/>
<path d="M385.35 342.28H382.51V345.12H385.35V342.28Z" fill="#F0F0F0"/>
<path d="M385.35 347.03H382.51V349.87H385.35V347.03Z" fill="#F0F0F0"/>
<path d="M385.35 351.79H382.51V354.63H385.35V351.79Z" fill="#F0F0F0"/>
<path d="M385.35 356.54H382.51V359.38H385.35V356.54Z" fill="#F0F0F0"/>
<path d="M385.35 361.29H382.51V364.13H385.35V361.29Z" fill="#F0F0F0"/>
<path d="M385.35 366.05H382.51V368.89H385.35V366.05Z" fill="#F0F0F0"/>
<path d="M389.86 275.72H387.02V278.56H389.86V275.72Z" fill="#F0F0F0"/>
<path d="M389.86 280.47H387.02V283.31H389.86V280.47Z" fill="#F0F0F0"/>
<path d="M389.86 285.23H387.02V288.07H389.86V285.23Z" fill="#F0F0F0"/>
<path d="M389.86 289.98H387.02V292.82H389.86V289.98Z" fill="#F0F0F0"/>
<path d="M389.86 294.74H387.02V297.58H389.86V294.74Z" fill="#F0F0F0"/>
<path d="M389.86 299.49H387.02V302.33H389.86V299.49Z" fill="#F0F0F0"/>
<path d="M389.86 304.24H387.02V307.08H389.86V304.24Z" fill="#F0F0F0"/>
<path d="M389.86 309H387.02V311.84H389.86V309Z" fill="#F0F0F0"/>
<path d="M389.86 313.75H387.02V316.59H389.86V313.75Z" fill="#F0F0F0"/>
<path d="M389.86 318.51H387.02V321.35H389.86V318.51Z" fill="#F0F0F0"/>
<path d="M389.86 323.26H387.02V326.1H389.86V323.26Z" fill="#F0F0F0"/>
<path d="M389.86 328.01H387.02V330.85H389.86V328.01Z" fill="#F0F0F0"/>
<path d="M389.86 332.77H387.02V335.61H389.86V332.77Z" fill="#F0F0F0"/>
<path d="M389.86 337.52H387.02V340.36H389.86V337.52Z" fill="#F0F0F0"/>
<path d="M389.86 342.28H387.02V345.12H389.86V342.28Z" fill="#F0F0F0"/>
<path d="M389.86 347.03H387.02V349.87H389.86V347.03Z" fill="#F0F0F0"/>
<path d="M389.86 351.79H387.02V354.63H389.86V351.79Z" fill="#F0F0F0"/>
<path d="M389.86 356.54H387.02V359.38H389.86V356.54Z" fill="#F0F0F0"/>
<path d="M389.86 361.29H387.02V364.13H389.86V361.29Z" fill="#F0F0F0"/>
<path d="M389.86 366.05H387.02V368.89H389.86V366.05Z" fill="#F0F0F0"/>
<path d="M363.17 294.24H360.33V297.08H363.17V294.24Z" fill="#F0F0F0"/>
<path d="M363.17 298.99H360.33V301.83H363.17V298.99Z" fill="#F0F0F0"/>
<path d="M363.17 303.74H360.33V306.58H363.17V303.74Z" fill="#F0F0F0"/>
<path d="M363.17 308.5H360.33V311.34H363.17V308.5Z" fill="#F0F0F0"/>
<path d="M363.17 313.25H360.33V316.09H363.17V313.25Z" fill="#F0F0F0"/>
<path d="M363.17 318.01H360.33V320.85H363.17V318.01Z" fill="#F0F0F0"/>
<path d="M363.17 322.76H360.33V325.6H363.17V322.76Z" fill="#F0F0F0"/>
<path d="M363.17 327.51H360.33V330.35H363.17V327.51Z" fill="#F0F0F0"/>
<path d="M363.17 332.27H360.33V335.11H363.17V332.27Z" fill="#F0F0F0"/>
<path d="M363.17 337.02H360.33V339.86H363.17V337.02Z" fill="#F0F0F0"/>
<path d="M367.67 294.24H364.83V297.08H367.67V294.24Z" fill="#F0F0F0"/>
<path d="M367.67 298.99H364.83V301.83H367.67V298.99Z" fill="#F0F0F0"/>
<path d="M367.67 303.74H364.83V306.58H367.67V303.74Z" fill="#F0F0F0"/>
<path d="M367.67 308.5H364.83V311.34H367.67V308.5Z" fill="#F0F0F0"/>
<path d="M367.67 313.25H364.83V316.09H367.67V313.25Z" fill="#F0F0F0"/>
<path d="M367.67 318.01H364.83V320.85H367.67V318.01Z" fill="#F0F0F0"/>
<path d="M367.67 322.76H364.83V325.6H367.67V322.76Z" fill="#F0F0F0"/>
<path d="M367.67 327.51H364.83V330.35H367.67V327.51Z" fill="#F0F0F0"/>
<path d="M367.67 332.27H364.83V335.11H367.67V332.27Z" fill="#F0F0F0"/>
<path d="M147.14 180.53C147.145 179.154 146.827 177.796 146.211 176.566C145.595 175.335 144.699 174.266 143.595 173.445C142.491 172.624 141.21 172.074 139.854 171.839C138.498 171.603 137.106 171.689 135.79 172.09C136.181 169.437 135.996 166.732 135.247 164.157C134.498 161.583 133.203 159.2 131.45 157.171C129.697 155.142 127.528 153.515 125.09 152.4C122.651 151.285 120.001 150.709 117.32 150.71C116.166 150.709 115.014 150.816 113.88 151.03C112.04 148.006 109.266 145.662 105.977 144.352C102.687 143.042 99.0615 142.837 95.6457 143.768C92.23 144.7 89.2098 146.716 87.0406 149.514C84.8713 152.312 83.6709 155.74 83.6202 159.28H83.3502C79.36 159.28 75.5332 160.865 72.7118 163.687C69.8903 166.508 68.3052 170.335 68.3052 174.325C68.3052 178.315 69.8903 182.142 72.7118 184.963C75.5332 187.785 79.36 189.37 83.3502 189.37H138.58C140.878 189.305 143.06 188.344 144.659 186.692C146.259 185.04 147.149 182.829 147.14 180.53Z" fill="#F0F0F0"/>
<path d="M218.87 164.68C218.87 163.187 219.463 161.755 220.519 160.699C221.575 159.643 223.007 159.05 224.5 159.05C225.048 159.05 225.594 159.127 226.12 159.28C226.031 158.711 225.988 158.136 225.99 157.56C225.99 154.399 227.246 151.367 229.481 149.131C231.717 146.896 234.749 145.64 237.91 145.64C238.648 145.64 239.384 145.707 240.11 145.84C241.285 143.909 243.057 142.413 245.157 141.576C247.257 140.74 249.572 140.61 251.753 141.205C253.934 141.8 255.862 143.088 257.247 144.874C258.632 146.661 259.398 148.85 259.43 151.11H259.6C262.094 151.191 264.459 152.238 266.194 154.03C267.93 155.823 268.9 158.22 268.9 160.715C268.9 163.21 267.93 165.607 266.194 167.4C264.459 169.192 262.094 170.24 259.6 170.32H224.34C222.873 170.278 221.48 169.665 220.459 168.612C219.437 167.558 218.867 166.148 218.87 164.68Z" fill="#F0F0F0"/>
<path d="M382.31 178.69C382.31 177.197 382.903 175.765 383.959 174.709C385.014 173.653 386.446 173.06 387.94 173.06C388.489 173.058 389.035 173.139 389.56 173.3C389.476 172.727 389.433 172.149 389.43 171.57C389.43 168.409 390.685 165.377 392.921 163.141C395.156 160.906 398.188 159.65 401.35 159.65C402.087 159.65 402.824 159.717 403.55 159.85C404.725 157.919 406.496 156.422 408.596 155.586C410.697 154.75 413.012 154.62 415.193 155.215C417.374 155.81 419.302 157.098 420.687 158.884C422.071 160.671 422.838 162.86 422.87 165.12H423C424.287 165.078 425.57 165.296 426.771 165.76C427.973 166.224 429.069 166.925 429.994 167.821C430.92 168.717 431.656 169.79 432.158 170.976C432.661 172.162 432.92 173.437 432.92 174.725C432.92 176.013 432.661 177.288 432.158 178.474C431.656 179.66 430.92 180.733 429.994 181.629C429.069 182.525 427.973 183.226 426.771 183.69C425.57 184.154 424.287 184.372 423 184.33H387.78C386.313 184.288 384.92 183.675 383.898 182.622C382.876 181.568 382.306 180.158 382.31 178.69Z" fill="#F0F0F0"/>
<path d="M157.92 108.46C157.919 108.007 158.007 107.557 158.18 107.138C158.353 106.719 158.607 106.338 158.928 106.018C159.248 105.697 159.629 105.443 160.048 105.27C160.467 105.097 160.917 105.009 161.37 105.01C161.709 105.008 162.046 105.059 162.37 105.16C162.318 104.809 162.291 104.455 162.29 104.1C162.29 102.164 163.059 100.307 164.428 98.9381C165.797 97.5691 167.654 96.8 169.59 96.8C170.043 96.7993 170.495 96.8395 170.94 96.92C171.66 95.7371 172.744 94.8205 174.031 94.3084C175.317 93.7963 176.735 93.7166 178.071 94.0812C179.407 94.4459 180.587 95.2352 181.435 96.33C182.283 97.4248 182.751 98.7656 182.77 100.15H182.88C184.399 100.213 185.835 100.86 186.887 101.957C187.94 103.054 188.527 104.515 188.527 106.035C188.527 107.555 187.94 109.016 186.887 110.113C185.835 111.21 184.399 111.857 182.88 111.92H161.28C160.378 111.899 159.521 111.525 158.892 110.877C158.264 110.23 157.914 109.362 157.92 108.46Z" fill="#F0F0F0"/>
<path d="M304.87 111C304.87 110.085 305.234 109.207 305.881 108.56C306.528 107.913 307.405 107.55 308.32 107.55C308.658 107.549 308.995 107.596 309.32 107.69C309.164 106.652 309.235 105.592 309.527 104.584C309.819 103.575 310.326 102.642 311.013 101.848C311.7 101.054 312.55 100.417 313.506 99.9829C314.462 99.5483 315.5 99.3256 316.55 99.33C317 99.3326 317.448 99.3761 317.89 99.46C318.607 98.2731 319.692 97.3522 320.979 96.8367C322.266 96.3212 323.687 96.2393 325.025 96.6032C326.363 96.9671 327.546 97.7571 328.395 98.8536C329.244 99.9501 329.713 101.293 329.73 102.68H329.83C331.39 102.68 332.885 103.299 333.988 104.402C335.091 105.505 335.71 107.001 335.71 108.56C335.71 110.119 335.091 111.615 333.988 112.718C332.885 113.82 331.39 114.44 329.83 114.44H308.23C307.332 114.419 306.477 114.047 305.849 113.405C305.221 112.762 304.87 111.899 304.87 111Z" fill="#F0F0F0"/>
<path d="M250 427.56C357.082 427.56 443.89 422.492 443.89 416.24C443.89 409.988 357.082 404.92 250 404.92C142.917 404.92 56.1099 409.988 56.1099 416.24C56.1099 422.492 142.917 427.56 250 427.56Z" fill="#F5F5F5"/>
<path d="M85.2198 229.22H73.2798V401.51H85.2198V229.22Z" fill="#5D9D9F"/>
<path d="M108.19 265.73H96.25V401.51H108.19V265.73Z" fill="#5D9D9F"/>
<path d="M131.16 294.22H119.22V401.51H131.16V294.22Z" fill="#5D9D9F"/>
<path d="M154.13 319.45H142.19V401.51H154.13V319.45Z" fill="#5D9D9F"/>
<path d="M177.09 341.52H165.15V401.52H177.09V341.52Z" fill="#5D9D9F"/>
<path d="M200.06 357.48H188.12V401.51H200.06V357.48Z" fill="#5D9D9F"/>
<path d="M223.03 370.6H211.09V401.51H223.03V370.6Z" fill="#5D9D9F"/>
<g opacity="0.7">
<path d="M85.2198 229.22H73.2798V401.51H85.2198V229.22Z" fill="white"/>
<path d="M108.19 265.73H96.25V401.51H108.19V265.73Z" fill="white"/>
<path d="M131.16 294.22H119.22V401.51H131.16V294.22Z" fill="white"/>
<path d="M154.13 319.45H142.19V401.51H154.13V319.45Z" fill="white"/>
<path d="M177.09 341.52H165.15V401.52H177.09V341.52Z" fill="white"/>
<path d="M200.06 357.48H188.12V401.51H200.06V357.48Z" fill="white"/>
<path d="M223.03 370.6H211.09V401.51H223.03V370.6Z" fill="white"/>
</g>
<path d="M71.62 182.6L69.21 196.09L82.69 190.69L71.62 182.6Z" fill="#5D9D9F"/>
<path d="M240 375.83C176.89 345.73 134.51 297.92 110.06 263.12C83.6 225.42 72.18 195.25 71.71 194L79.2 191.2C79.31 191.5 90.82 221.84 116.76 258.74C140.64 292.68 182 339.3 243.45 368.61L240 375.83Z" fill="#5D9D9F"/>
<path d="M358.36 405.38C358.36 405.38 350.36 389.86 352.36 388.38C354.36 386.9 358.36 401.38 358.36 400.22C358.36 399.06 358.13 379.36 361.81 380.14C365.49 380.92 361.81 399.09 361.81 399.09C361.81 399.09 366.75 389.81 368.69 390.51C370.63 391.21 363 402.21 363 402.21C363 402.21 367.57 399.45 368.72 399.66C369.87 399.87 363 405.38 363 405.38H358.36Z" fill="#5D9D9F"/>
<path d="M143.66 409.73C143.66 409.73 151.66 394.22 149.66 392.73C147.66 391.24 143.72 405.73 143.66 404.56C143.6 403.39 143.89 383.71 140.21 384.49C136.53 385.27 140.21 403.49 140.21 403.49C140.21 403.49 133.34 390.37 131.51 393.72C129.93 396.62 139.04 406.65 139.04 406.65C139.04 406.65 129.98 400.51 129.93 403.21C129.88 406.11 139.04 409.81 139.04 409.81L143.66 409.73Z" fill="#5D9D9F"/>
<path d="M265.58 396.68C265.58 396.68 258.03 387.29 260.93 386.43C263.83 385.57 265.82 393.38 266.33 392.35C266.84 391.32 266.51 381 271.33 382.55C276.15 384.1 269.53 392.9 269.53 392.9C269.53 392.9 273.89 389.57 275.06 390.42C276.23 391.27 269.83 397.42 269.83 397.42L265.58 396.68Z" fill="#5D9D9F"/>
<path d="M196.46 385.15C196.46 385.15 201.56 374.24 198.54 374.09C195.52 373.94 194.54 382.39 194.54 382.39C194.54 382.39 192.84 371.07 188.32 372.64C183.53 374.3 191.78 383.22 191.78 383.22C191.78 383.22 183.86 378.22 183.34 380.98C182.69 384.38 193.57 386.41 193.57 386.41L196.46 385.15Z" fill="#5D9D9F"/>
<path d="M116.53 416.91H385.88L374.81 404.92L294.57 396.47H266.51L246.24 380.05L193.6 384.34L150.37 400.54L141.48 408.74H127.67L116.53 416.91Z" fill="#263238"/>
<path opacity="0.5" d="M116.53 416.91H385.88L374.81 404.92L294.57 396.47H266.51L246.24 380.05L193.6 384.34L150.37 400.54L141.48 408.74H127.67L116.53 416.91Z" fill="white"/>
<path opacity="0.2" d="M141.48 408.74L169.83 413.57H185.18L167.78 410.56L150.37 400.54L141.48 408.74Z" fill="black"/>
<path opacity="0.2" d="M266.51 396.47H251.21L226.59 405.24L239.25 392.73L257.54 389.21L266.51 396.47Z" fill="black"/>
<path opacity="0.2" d="M374.809 404.92L345.799 413.57L320.609 407.06L343.029 416.91H385.879L374.809 404.92Z" fill="black"/>
<path d="M236.6 386.58L229.59 384.6L232.19 367.82L239.19 369.8L236.6 386.58Z" fill="#E4897B"/>
<path d="M229.44 378.73H238.31C238.454 378.727 238.595 378.774 238.708 378.863C238.822 378.953 238.9 379.079 238.93 379.22L240.44 385.69C240.475 385.848 240.473 386.011 240.436 386.168C240.399 386.325 240.326 386.471 240.224 386.596C240.123 386.721 239.994 386.822 239.847 386.89C239.701 386.958 239.542 386.992 239.38 386.99C236.53 386.94 234.44 386.77 230.85 386.77C228.64 386.77 221.97 387 218.91 387C215.85 387 215.43 384 216.68 383.71C222.27 382.48 226.48 380.79 228.26 379.17C228.585 378.881 229.006 378.724 229.44 378.73Z" fill="#263238"/>
<path d="M349.631 406.03L342.511 407.53L337.021 391.46L344.141 389.97L349.631 406.03Z" fill="#E4897B"/>
<path d="M287.29 247.29C287.29 247.29 254 284 245.05 298.48C236.1 312.96 228.25 374.38 228.25 374.38L241.49 377.58C241.49 377.58 256.89 317.73 260.99 311.73C265.09 305.73 308.64 265.11 308.64 265.11L287.29 247.29Z" fill="#263238"/>
<path opacity="0.1" d="M308.64 265.11L304.32 269.11C300.72 272.5 295.24 277.65 289.37 283.26C277.15 294.9 263.23 308.42 260.99 311.69C256.89 317.69 241.49 377.55 241.49 377.55L228.25 374.34C228.25 374.34 236.07 312.96 245.06 298.45C254.05 283.94 287.29 247.26 287.29 247.26L308.64 265.11Z" fill="white"/>
<path opacity="0.2" d="M304.32 269.15C300.72 272.54 295.24 277.69 289.37 283.3C293.26 272.75 302.66 265.92 302.66 265.92L304.32 269.15Z" fill="black"/>
<path d="M298.87 249.92C298.87 249.92 307.42 312.34 311.55 333.29C316.07 356.23 336.2 398.8 336.2 398.8L349.2 396.06C349.2 396.06 335.49 356.71 332.45 333.68C329.06 307.92 323.97 249.68 323.97 249.68L298.87 249.92Z" fill="#263238"/>
<g opacity="0.1">
<path d="M298.87 249.92C298.87 249.92 307.42 312.34 311.55 333.29C316.07 356.23 336.2 398.8 336.2 398.8L349.2 396.06C349.2 396.06 335.49 356.71 332.45 333.68C329.06 307.92 323.97 249.68 323.97 249.68L298.87 249.92Z" fill="white"/>
</g>
<path d="M248.171 171.89L247.601 164.49L255.271 167.49C255.271 167.49 255.381 174.12 251.961 174.03L248.171 171.89Z" fill="#E4897B"/>
<path d="M250.581 160.22L257.831 160.68L255.271 167.46L247.601 164.49L250.581 160.22Z" fill="#E4897B"/>
<path d="M247.91 173.19L248.11 171.14L254.31 172.41L253.82 174.56L247.91 173.19Z" fill="#5D9D9F"/>
<path opacity="0.7" d="M247.91 173.19L248.11 171.14L254.31 172.41L253.82 174.56L247.91 173.19Z" fill="white"/>
<path d="M277.48 162.2H261.43C260.86 162.2 260.43 163.43 260.43 164.94C260.43 166.45 260.89 167.67 261.43 167.67H277.48C278.04 167.67 278.48 166.45 278.48 164.94C278.48 163.43 278 162.2 277.48 162.2Z" fill="#5D9D9F"/>
<path opacity="0.4" d="M277.48 162.2H261.43C260.86 162.2 260.43 163.43 260.43 164.94C260.43 166.45 260.89 167.67 261.43 167.67H277.48C278.04 167.67 278.48 166.45 278.48 164.94C278.48 163.43 278 162.2 277.48 162.2Z" fill="white"/>
<path d="M261.19 161.45H242C241.28 161.45 240.7 163.01 240.7 164.94C240.7 166.87 241.28 168.42 242 168.42H261.15C261.87 168.42 262.46 166.86 262.46 164.94C262.46 163.02 261.91 161.45 261.19 161.45Z" fill="#5D9D9F"/>
<path opacity="0.2" d="M261.19 161.45H242C241.28 161.45 240.7 163.01 240.7 164.94C240.7 166.87 241.28 168.42 242 168.42H261.15C261.87 168.42 262.46 166.86 262.46 164.94C262.46 163.02 261.91 161.45 261.19 161.45Z" fill="white"/>
<path d="M242.31 160.75H222.31C221.44 160.75 220.74 162.62 220.74 164.94C220.74 167.26 221.44 169.12 222.31 169.12H242.31C243.17 169.12 243.88 167.25 243.88 164.94C243.88 162.63 243.17 160.75 242.31 160.75Z" fill="#5D9D9F"/>
<path opacity="0.4" d="M242.31 160.75H222.31C221.44 160.75 220.74 162.62 220.74 164.94C220.74 167.26 221.44 169.12 222.31 169.12H242.31C243.17 169.12 243.88 167.25 243.88 164.94C243.88 162.63 243.17 160.75 242.31 160.75Z" fill="white"/>
<path opacity="0.2" d="M223.87 164.94C223.87 167.25 223.17 169.12 222.3 169.12C221.43 169.12 220.73 167.25 220.73 164.94C220.73 162.63 221.43 160.75 222.3 160.75C223.17 160.75 223.87 162.62 223.87 164.94Z" fill="white"/>
<path d="M222.3 168.65C221.91 168.65 221.2 167.24 221.2 164.94C221.2 162.64 221.91 161.22 222.3 161.22C222.69 161.22 223.39 162.63 223.39 164.94C223.39 167.25 222.69 168.65 222.3 168.65Z" fill="black"/>
<path d="M339.921 400.27H348.791C348.937 400.27 349.078 400.32 349.192 400.411C349.307 400.501 349.387 400.628 349.421 400.77L350.921 407.24C350.955 407.396 350.954 407.558 350.917 407.714C350.881 407.87 350.809 408.015 350.708 408.139C350.607 408.263 350.479 408.363 350.334 408.431C350.189 408.498 350.031 408.532 349.871 408.53C347.011 408.53 344.931 408.32 341.331 408.32C339.121 408.32 332.451 408.55 329.391 408.55C326.331 408.55 325.911 405.55 327.161 405.25C332.751 404.03 336.961 402.34 338.741 400.72C339.064 400.428 339.485 400.268 339.921 400.27Z" fill="#263238"/>
<path d="M274.65 190.42C274.65 190.42 270.71 191.42 266.53 192.01C264.43 192.31 262.35 192.6 260.34 192.81C259.34 192.91 258.34 192.97 257.45 193.02H256.92C256.671 192.311 256.457 191.59 256.28 190.86C255.81 188.96 255.42 186.86 255.08 184.8C254.41 180.63 254.21 173.53 254.21 173.53L247.77 172C247.154 176.474 246.843 180.984 246.84 185.5C246.836 187.839 246.963 190.176 247.22 192.5C247.365 193.795 247.602 195.079 247.93 196.34C248.13 197.131 248.405 197.901 248.75 198.64C248.989 199.148 249.274 199.633 249.6 200.09C250.114 200.804 250.754 201.418 251.49 201.9C251.751 202.062 252.022 202.209 252.3 202.34C252.626 202.472 252.96 202.586 253.3 202.68L253.99 202.85C254.46 202.96 254.82 203.01 255.22 203.07C255.96 203.17 256.65 203.23 257.3 203.27C258.59 203.35 259.81 203.34 260.99 203.27C263.36 203.27 265.64 203.05 267.9 202.82C272.43 202.37 276.8 201.7 281.26 200.82L274.65 190.42Z" fill="#263238"/>
<path d="M316.31 188.05C316.114 195.665 316.505 203.285 317.48 210.84C318.14 216.47 319 221.84 319.9 226.64C322 237.98 324.28 246.5 324.65 249.48L285.65 255.2C270.13 213.69 275.54 190.26 275.54 190.26C278.561 189.228 281.644 188.387 284.77 187.74C285.43 187.6 286.1 187.48 286.77 187.37C292.272 186.647 297.811 186.243 303.36 186.16C304.36 186.16 305.45 186.16 306.47 186.16C309.828 186.276 313.148 186.914 316.31 188.05Z" fill="#5D9D9F"/>
<path opacity="0.7" d="M316.31 188.05C316.114 195.665 316.505 203.285 317.48 210.84C318.14 216.47 319 221.84 319.9 226.64C322 237.98 324.28 246.5 324.65 249.48L285.65 255.2C270.13 213.69 275.54 190.26 275.54 190.26C278.561 189.228 281.644 188.387 284.77 187.74C285.43 187.6 286.1 187.48 286.77 187.37C292.272 186.647 297.811 186.243 303.36 186.16C304.36 186.16 305.45 186.16 306.47 186.16C309.828 186.276 313.148 186.914 316.31 188.05Z" fill="white"/>
<path d="M290.25 196.79C289.76 199.79 288.25 207.58 288.25 215.24C288.97 216.72 289.94 220.34 290.81 221.81C291.45 220.14 292.56 216.69 293.32 215C292.65 207.72 291.32 200.42 291.75 196.6L290.25 196.79Z" fill="#5D9D9F"/>
<path d="M290.71 199.09L288.8 195.69L291.22 194.15L293.36 195.04L290.71 199.09Z" fill="#5D9D9F"/>
<path d="M298.53 169.07C298.35 174.48 298.89 184.26 303.15 187.2C301.797 189.139 300.041 190.763 298.003 191.96C295.965 193.158 293.692 193.902 291.34 194.14C286.79 194.73 286.95 190.92 287.67 189.02C292.41 187.02 291.56 183.09 289.87 179.16L298.53 169.07Z" fill="#E4897B"/>
<path d="M291.22 194.15C291.22 194.15 293.22 196.08 295.62 197.95C298.36 195.95 304.73 190.68 303.89 186.8C303.367 186.047 302.601 185.496 301.72 185.24C298.721 188.755 295.176 191.763 291.22 194.15Z" fill="white"/>
<path d="M291.22 194.15C289.928 195.61 288.844 197.242 288 199C285.64 197.81 286.48 190 287.17 189.11C288.166 187.833 289.447 186.805 290.91 186.11C290.024 188.737 290.134 191.599 291.22 194.15Z" fill="white"/>
<path opacity="0.2" d="M295 173.19L289.88 179.19C290.295 180.099 290.629 181.043 290.88 182.01C293.08 181.34 295.76 178.41 295.61 176.01C295.581 175.041 295.374 174.085 295 173.19Z" fill="black"/>
<path d="M279.84 156.58C278.72 159.29 278.72 165.07 282.77 163.58C286.82 162.09 281.76 151.91 279.84 156.58Z" fill="#263238"/>
<path d="M299.631 162.06C299.451 169.27 299.711 173.5 296.201 177.3C290.931 183 281.901 179.94 279.921 172.8C278.141 166.37 278.73 155.66 285.69 152.6C287.233 151.938 288.916 151.675 290.587 151.835C292.257 151.995 293.861 152.573 295.249 153.515C296.638 154.457 297.767 155.734 298.533 157.227C299.298 158.72 299.676 160.382 299.631 162.06Z" fill="#E4897B"/>
<path d="M295.271 149.82C295.011 149.82 294.811 149.93 294.601 149.93C294.601 149.93 295.221 164.03 298.461 167.11C306.751 164.77 311.001 149.06 295.271 149.82Z" fill="#263238"/>
<path d="M302.63 168C302.387 168.862 301.975 169.667 301.419 170.369C300.863 171.071 300.174 171.656 299.39 172.09C297.28 173.23 295.67 171.47 295.79 169.19C295.9 167.19 297.13 164.08 299.47 163.88C299.983 163.846 300.496 163.939 300.964 164.151C301.432 164.363 301.84 164.687 302.153 165.094C302.466 165.502 302.673 165.98 302.756 166.487C302.839 166.994 302.796 167.514 302.63 168Z" fill="#E4897B"/>
<path d="M282.13 164.54C282.13 165.12 281.85 165.61 281.47 165.62C281.09 165.63 280.76 165.16 280.74 164.57C280.72 163.98 281.01 163.5 281.39 163.49C281.77 163.48 282.1 164 282.13 164.54Z" fill="#263238"/>
<path d="M284.25 164.77C283.591 166.527 282.689 168.183 281.57 169.69C281.986 169.947 282.45 170.114 282.934 170.182C283.418 170.249 283.911 170.214 284.38 170.08L284.25 164.77Z" fill="#DE5753"/>
<path d="M287.61 172.24C287.356 172.284 287.098 172.308 286.84 172.31C286.797 172.31 286.755 172.293 286.723 172.264C286.692 172.234 286.673 172.193 286.67 172.15C286.667 172.127 286.669 172.104 286.676 172.083C286.683 172.061 286.694 172.041 286.709 172.024C286.725 172.007 286.743 171.993 286.764 171.984C286.785 171.974 286.807 171.97 286.83 171.97C287.56 171.969 288.278 171.794 288.927 171.46C289.575 171.126 290.135 170.643 290.56 170.05C290.572 170.031 290.588 170.014 290.607 170.001C290.626 169.988 290.647 169.979 290.67 169.974C290.692 169.969 290.715 169.969 290.738 169.974C290.76 169.978 290.781 169.987 290.8 170C290.819 170.011 290.836 170.026 290.849 170.044C290.862 170.062 290.871 170.082 290.876 170.104C290.88 170.126 290.88 170.148 290.876 170.17C290.872 170.191 290.863 170.212 290.85 170.23C290.479 170.771 289.999 171.23 289.442 171.576C288.884 171.922 288.26 172.148 287.61 172.24Z" fill="#263238"/>
<path d="M289.24 162.81C289.187 162.842 289.127 162.858 289.065 162.858C289.004 162.858 288.943 162.842 288.89 162.81C288.514 162.593 288.092 162.466 287.658 162.44C287.224 162.414 286.79 162.489 286.39 162.66C286.351 162.682 286.308 162.695 286.263 162.7C286.218 162.705 286.173 162.701 286.13 162.689C286.087 162.676 286.046 162.655 286.011 162.627C285.976 162.599 285.947 162.564 285.925 162.525C285.904 162.486 285.89 162.442 285.885 162.398C285.88 162.353 285.884 162.308 285.896 162.265C285.909 162.221 285.93 162.181 285.958 162.146C285.986 162.111 286.021 162.082 286.06 162.06C286.561 161.831 287.109 161.725 287.658 161.751C288.208 161.778 288.744 161.935 289.22 162.21C289.272 162.24 289.315 162.283 289.345 162.335C289.375 162.386 289.391 162.445 289.391 162.505C289.391 162.565 289.375 162.624 289.345 162.675C289.315 162.727 289.272 162.77 289.22 162.8L289.24 162.81Z" fill="#263238"/>
<path d="M278.81 161.9C278.746 161.888 278.686 161.857 278.64 161.81C278.576 161.745 278.54 161.657 278.54 161.565C278.54 161.473 278.576 161.385 278.64 161.32C279.023 160.924 279.495 160.627 280.018 160.452C280.54 160.278 281.096 160.233 281.64 160.32C281.729 160.341 281.806 160.396 281.856 160.472C281.906 160.548 281.925 160.64 281.91 160.73C281.902 160.774 281.885 160.816 281.86 160.853C281.835 160.891 281.803 160.923 281.766 160.948C281.729 160.973 281.687 160.991 281.643 161C281.599 161.009 281.554 161.009 281.51 161C281.08 160.94 280.642 160.986 280.234 161.134C279.827 161.282 279.461 161.528 279.17 161.85C279.12 161.89 279.061 161.917 278.997 161.925C278.934 161.934 278.869 161.925 278.81 161.9Z" fill="#263238"/>
<path d="M287.14 164.71C287.098 164.708 287.059 164.69 287.03 164.66C287.003 164.632 286.987 164.594 286.987 164.555C286.987 164.516 287.003 164.478 287.03 164.45C287.266 164.227 287.563 164.078 287.883 164.023C288.204 163.968 288.533 164.009 288.83 164.14C288.864 164.159 288.89 164.19 288.903 164.227C288.916 164.264 288.915 164.304 288.9 164.34C288.881 164.374 288.85 164.4 288.813 164.413C288.777 164.426 288.736 164.425 288.7 164.41C288.459 164.302 288.192 164.268 287.932 164.313C287.672 164.357 287.431 164.478 287.24 164.66C287.214 164.688 287.178 164.706 287.14 164.71Z" fill="#263238"/>
<path d="M297.2 159.16C296.232 159.072 295.306 158.725 294.52 158.154C293.733 157.584 293.115 156.812 292.73 155.92C291.44 152.85 290.34 155.35 290.34 155.35C290.34 155.35 289.92 154.43 287.14 153.87C284.36 153.31 282.53 160.78 279.53 159.57C278.712 159.26 278.04 158.655 277.648 157.873C277.255 157.091 277.17 156.191 277.41 155.35C277.41 155.35 278.72 154.71 280.2 150.64C281.86 146.05 289.87 144.01 296.81 147.48C303.75 150.95 297.2 159.16 297.2 159.16Z" fill="#263238"/>
<path d="M330.09 259L301 265.11L293.37 254.11L288.83 264.38L276.15 257.19L282.9 247.34C270.39 216.96 274.66 190.46 274.66 190.46C278.669 188.719 282.941 187.661 287.3 187.33C280.04 198.33 290.86 221.85 290.86 221.85C297.37 203.71 305.16 186.18 305.16 186.18C309.309 185.915 313.474 186.347 317.48 187.46C317.48 187.46 320.32 228.85 324.07 239.37C327.82 249.89 330.09 259 330.09 259Z" fill="#263238"/>
<path opacity="0.1" d="M300.9 201.14L307 208.8C307 208.8 292.8 218.97 288.62 235.8L290.12 225.94L278.44 209.54L283.81 202.83L277.43 198.09C277.43 198.09 282.92 188.84 287.31 187.24C280.05 198.24 290.87 221.76 290.87 221.76C297.38 203.62 305.17 186.09 305.17 186.09C308.81 189.04 311.55 192.951 313.08 197.38L300.9 201.14Z" fill="white"/>
<path d="M350.37 259.19C349.728 259.194 349.086 259.151 348.451 259.06C346.341 258.75 345.01 257.91 344.72 256.7C344.13 254.31 347.79 251.52 353.21 250.2C358.63 248.88 363.21 249.68 363.75 252.06C364.04 253.28 363.25 254.63 361.52 255.88C359.613 257.15 357.487 258.059 355.25 258.56C353.655 258.964 352.016 259.176 350.37 259.19ZM358.11 250.76C356.556 250.78 355.009 250.981 353.5 251.36C348.57 252.56 345.5 254.99 345.88 256.42C346.05 257.1 347.07 257.65 348.62 257.87C350.748 258.105 352.901 257.945 354.97 257.4C357.059 256.936 359.042 256.089 360.82 254.9C362.09 253.99 362.75 253.04 362.58 252.35C362.36 251.41 360.64 250.76 358.11 250.76Z" fill="#263238"/>
<path d="M376.931 249.75L384.631 281.37C384.693 281.617 384.706 281.874 384.668 282.126C384.63 282.378 384.543 282.62 384.411 282.837C384.279 283.055 384.104 283.245 383.898 283.394C383.692 283.544 383.459 283.651 383.211 283.71L337.091 294.94C336.844 295.001 336.587 295.013 336.336 294.975C336.084 294.936 335.843 294.849 335.625 294.717C335.408 294.585 335.219 294.411 335.069 294.206C334.918 294 334.81 293.767 334.751 293.52L327.051 261.9C326.93 261.401 327.011 260.875 327.278 260.437C327.544 259.998 327.973 259.683 328.471 259.56L374.591 248.33C374.838 248.269 375.094 248.257 375.346 248.295C375.597 248.334 375.838 248.421 376.056 248.553C376.273 248.685 376.463 248.859 376.613 249.064C376.763 249.27 376.871 249.503 376.931 249.75Z" fill="#263238"/>
<path opacity="0.1" d="M376.931 249.75L384.631 281.37C384.693 281.617 384.706 281.874 384.668 282.126C384.63 282.378 384.543 282.62 384.411 282.837C384.279 283.055 384.104 283.245 383.898 283.394C383.692 283.544 383.459 283.651 383.211 283.71L337.091 294.94C336.844 295.001 336.587 295.013 336.336 294.975C336.084 294.936 335.843 294.849 335.625 294.717C335.408 294.585 335.219 294.411 335.069 294.206C334.918 294 334.81 293.767 334.751 293.52L327.051 261.9C326.93 261.401 327.011 260.875 327.278 260.437C327.544 259.998 327.973 259.683 328.471 259.56L374.591 248.33C374.838 248.269 375.094 248.257 375.346 248.295C375.597 248.334 375.838 248.421 376.056 248.553C376.273 248.685 376.463 248.859 376.613 249.064C376.763 249.27 376.871 249.503 376.931 249.75Z" fill="white"/>
<path d="M331.581 260.8L339.281 292.42C339.386 292.917 339.297 293.436 339.034 293.871C338.77 294.306 338.35 294.623 337.861 294.76L337.091 294.94C336.844 295.001 336.587 295.013 336.336 294.974C336.084 294.936 335.843 294.848 335.625 294.717C335.408 294.585 335.219 294.411 335.069 294.206C334.918 294 334.81 293.767 334.751 293.52L327.051 261.9C326.93 261.401 327.011 260.875 327.278 260.437C327.544 259.998 327.973 259.683 328.471 259.56L329.241 259.38C329.488 259.317 329.745 259.305 329.996 259.342C330.248 259.38 330.49 259.468 330.708 259.6C330.926 259.732 331.115 259.906 331.265 260.112C331.415 260.318 331.522 260.552 331.581 260.8Z" fill="#263238"/>
<path d="M329.751 259.28C330.236 259.19 330.738 259.29 331.151 259.56C331.565 259.83 331.858 260.249 331.971 260.73L335.541 275.39C335.638 275.786 335.888 276.128 336.237 276.34C336.586 276.552 337.004 276.616 337.401 276.52L379.771 266.2C379.967 266.152 380.151 266.066 380.314 265.946C380.476 265.827 380.614 265.676 380.718 265.503C380.822 265.33 380.891 265.138 380.92 264.939C380.95 264.739 380.94 264.536 380.891 264.34L377.311 249.64C377.19 249.145 376.878 248.719 376.443 248.455C376.007 248.19 375.485 248.109 374.991 248.23L328.851 259.47L329.751 259.28Z" fill="#263238"/>
<path opacity="0.2" d="M329.751 259.28C330.236 259.19 330.738 259.29 331.151 259.56C331.565 259.83 331.858 260.249 331.971 260.73L335.541 275.39C335.638 275.786 335.888 276.128 336.237 276.34C336.586 276.552 337.004 276.616 337.401 276.52L379.771 266.2C379.967 266.152 380.151 266.066 380.314 265.946C380.476 265.827 380.614 265.676 380.718 265.503C380.822 265.33 380.891 265.138 380.92 264.939C380.95 264.739 380.94 264.536 380.891 264.34L377.311 249.64C377.19 249.145 376.878 248.719 376.443 248.455C376.007 248.19 375.485 248.109 374.991 248.23L328.851 259.47L329.751 259.28Z" fill="white"/>
<path d="M356.54 269.721L361.077 268.615L363.146 277.107C363.182 277.254 363.158 277.409 363.079 277.538C363 277.667 362.874 277.76 362.727 277.796L359.297 278.631C359.15 278.667 358.995 278.643 358.866 278.564C358.737 278.486 358.644 278.359 358.609 278.212L356.54 269.721Z" fill="#263238"/>
<path d="M358.24 276.67C358.022 276.669 357.808 276.611 357.62 276.5C357.487 276.418 357.372 276.31 357.281 276.183C357.19 276.056 357.125 275.912 357.09 275.76L356.63 273.87C356.591 273.719 356.583 273.561 356.605 273.407C356.627 273.252 356.68 273.104 356.76 272.97C356.928 272.701 357.193 272.508 357.5 272.43L361.5 271.43C361.652 271.39 361.81 271.382 361.965 271.406C362.12 271.43 362.268 271.486 362.4 271.57C362.534 271.65 362.65 271.756 362.743 271.881C362.836 272.006 362.903 272.149 362.94 272.3L363.4 274.2C363.47 274.504 363.42 274.822 363.26 275.09C363.18 275.224 363.074 275.34 362.949 275.433C362.824 275.526 362.681 275.593 362.53 275.63L358.53 276.63C358.436 276.659 358.338 276.673 358.24 276.67ZM361.75 272.03H361.6L357.6 273.03C357.525 273.049 357.455 273.082 357.393 273.129C357.331 273.175 357.279 273.233 357.24 273.3C357.197 273.364 357.169 273.436 357.157 273.512C357.145 273.588 357.149 273.666 357.17 273.74L357.63 275.64C357.668 275.789 357.761 275.918 357.89 276C357.956 276.043 358.03 276.071 358.108 276.083C358.185 276.095 358.264 276.09 358.34 276.07L362.34 275.07C362.415 275.051 362.485 275.018 362.547 274.971C362.609 274.925 362.661 274.867 362.7 274.8C362.778 274.667 362.803 274.51 362.77 274.36L362.31 272.46C362.269 272.31 362.173 272.181 362.04 272.1C361.955 272.04 361.854 272.005 361.75 272V272.03Z" fill="white"/>
<path d="M349.29 242.31L348 249.58L357 247.14C357 247.14 356.71 240.72 353.27 240.53L349.29 242.31Z" fill="#E4897B"/>
<path d="M350.871 254.92L358.221 252.55L357.041 247.14L348.021 249.58L350.871 254.92Z" fill="#E4897B"/>
<path d="M348.73 239.39L348.96 242.65L354.93 241.42L354.46 238.35L348.73 239.39Z" fill="#5D9D9F"/>
<path opacity="0.7" d="M348.73 239.39L348.96 242.65L354.93 241.42L354.46 238.35L348.73 239.39Z" fill="white"/>
<path d="M317.32 187.33C322.562 189.392 327.669 191.784 332.61 194.49C335.149 195.865 337.616 197.371 340 199C341.21 199.85 342.43 200.77 343.64 201.81C344.99 202.946 346.205 204.235 347.26 205.65C347.581 206.096 347.872 206.564 348.13 207.05C348.27 207.31 348.42 207.59 348.54 207.83L348.77 208.4L349.22 209.55L349.58 210.62C349.83 211.34 350.03 212.04 350.22 212.73C350.41 213.42 350.61 214.12 350.78 214.8C351.51 217.53 352.07 220.25 352.61 222.96C353.61 228.38 354.47 233.8 355.04 239.29L348.61 240.49C348.61 240.49 346.2 230.18 344.48 225.1C343.64 222.56 342.75 220.04 341.85 217.59C341.63 216.97 341.4 216.37 341.16 215.78C340.92 215.19 340.69 214.59 340.45 214.05L340.09 213.21L339.73 212.49L339.55 212.13C339.524 212.09 339.494 212.053 339.46 212.02C339.387 211.915 339.307 211.814 339.22 211.72C338.567 211.017 337.847 210.381 337.07 209.82C336.18 209.14 335.19 208.47 334.14 207.82C332.04 206.54 329.79 205.3 327.47 204.12C322.86 201.79 317.96 199.56 313.22 197.53L317.32 187.33Z" fill="#263238"/>
<path d="M376.24 190.13C402.434 190.13 423.67 168.895 423.67 142.7C423.67 116.505 402.434 95.27 376.24 95.27C350.045 95.27 328.81 116.505 328.81 142.7C328.81 168.895 350.045 190.13 376.24 190.13Z" fill="#5D9D9F"/>
<path opacity="0.7" d="M376.24 190.13C402.434 190.13 423.67 168.895 423.67 142.7C423.67 116.505 402.434 95.27 376.24 95.27C350.045 95.27 328.81 116.505 328.81 142.7C328.81 168.895 350.045 190.13 376.24 190.13Z" fill="white"/>
<path d="M327.49 165.76C330.257 165.76 332.5 163.517 332.5 160.75C332.5 157.983 330.257 155.74 327.49 155.74C324.724 155.74 322.48 157.983 322.48 160.75C322.48 163.517 324.724 165.76 327.49 165.76Z" fill="#5D9D9F"/>
<path opacity="0.7" d="M327.49 165.76C330.257 165.76 332.5 163.517 332.5 160.75C332.5 157.983 330.257 155.74 327.49 155.74C324.724 155.74 322.48 157.983 322.48 160.75C322.48 163.517 324.724 165.76 327.49 165.76Z" fill="white"/>
<path d="M319.63 164.19C319.591 164.757 319.384 165.299 319.037 165.748C318.69 166.197 318.217 166.534 317.679 166.714C317.14 166.894 316.56 166.911 316.012 166.762C315.464 166.613 314.973 166.304 314.6 165.876C314.228 165.447 313.991 164.918 313.919 164.354C313.848 163.791 313.945 163.219 314.199 162.711C314.452 162.203 314.851 161.781 315.344 161.5C315.838 161.219 316.403 161.09 316.97 161.13C317.728 161.184 318.434 161.536 318.932 162.11C319.431 162.684 319.682 163.432 319.63 164.19Z" fill="#5D9D9F"/>
<path opacity="0.7" d="M319.63 164.19C319.591 164.757 319.384 165.299 319.037 165.748C318.69 166.197 318.217 166.534 317.679 166.714C317.14 166.894 316.56 166.911 316.012 166.762C315.464 166.613 314.973 166.304 314.6 165.876C314.228 165.447 313.991 164.918 313.919 164.354C313.848 163.791 313.945 163.219 314.199 162.711C314.452 162.203 314.851 161.781 315.344 161.5C315.838 161.219 316.403 161.09 316.97 161.13C317.728 161.184 318.434 161.536 318.932 162.11C319.431 162.684 319.682 163.432 319.63 164.19Z" fill="white"/>
<path d="M311 163.42C310.982 163.704 310.879 163.977 310.706 164.203C310.532 164.429 310.296 164.599 310.026 164.69C309.756 164.782 309.465 164.791 309.19 164.718C308.915 164.644 308.668 164.49 308.48 164.276C308.292 164.061 308.172 163.796 308.135 163.513C308.098 163.231 308.146 162.944 308.272 162.688C308.399 162.433 308.598 162.221 308.845 162.079C309.092 161.936 309.376 161.871 309.66 161.89C310.039 161.918 310.393 162.094 310.643 162.381C310.894 162.667 311.022 163.04 311 163.42Z" fill="#5D9D9F"/>
<path opacity="0.7" d="M311 163.42C310.982 163.704 310.879 163.977 310.706 164.203C310.532 164.429 310.296 164.599 310.026 164.69C309.756 164.782 309.465 164.791 309.19 164.718C308.915 164.644 308.668 164.49 308.48 164.276C308.292 164.061 308.172 163.796 308.135 163.513C308.098 163.231 308.146 162.944 308.272 162.688C308.399 162.433 308.598 162.221 308.845 162.079C309.092 161.936 309.376 161.871 309.66 161.89C310.039 161.918 310.393 162.094 310.643 162.381C310.894 162.667 311.022 163.04 311 163.42Z" fill="white"/>
<path d="M382.879 165.308C392.479 161.874 396.801 149.416 392.532 137.482C388.264 125.547 377.021 118.655 367.422 122.089C357.822 125.522 353.5 137.98 357.769 149.915C362.037 161.85 373.28 168.741 382.879 165.308Z" fill="#5D9D9F"/>
<path d="M382.743 160.647C390.491 157.876 393.98 147.822 390.536 138.191C387.091 128.56 378.017 122.999 370.269 125.771C362.521 128.542 359.032 138.596 362.476 148.227C365.921 157.858 374.994 163.418 382.743 160.647Z" fill="white"/>
<path d="M388.93 138.77C391.69 146.49 388.93 154.54 382.69 156.77C376.45 159 369.21 154.53 366.45 146.82C363.69 139.11 366.45 131.06 372.7 128.82C378.95 126.58 386.17 131.06 388.93 138.77Z" fill="#5D9D9F"/>
<path d="M382.361 153.215C386.937 151.579 388.929 145.45 386.811 139.527C384.693 133.604 379.266 130.129 374.689 131.766C370.113 133.403 368.121 139.531 370.239 145.454C372.358 151.377 377.785 154.852 382.361 153.215Z" fill="white"/>
<path d="M385.26 140.45C386.77 144.67 385.46 149 382.34 150.12C379.22 151.24 375.47 148.71 373.96 144.49C372.45 140.27 373.75 135.94 376.87 134.82C379.99 133.7 383.75 136.23 385.26 140.45Z" fill="#5D9D9F"/>
<path d="M384.16 140.84C385.26 143.84 384.43 146.98 382.31 147.73C380.19 148.48 377.6 146.63 376.51 143.58C375.42 140.53 376.25 137.44 378.36 136.68C380.47 135.92 383.07 137.79 384.16 140.84Z" fill="white"/>
<path d="M409.35 127.06L403.67 129.09L402.58 134.25L406.7 137.56L412.38 135.52L408.17 132.26L409.35 127.06Z" fill="#5D9D9F"/>
<path d="M381.22 142.89C380.984 142.89 380.757 142.807 380.577 142.655C380.397 142.504 380.276 142.294 380.236 142.063C380.195 141.831 380.237 141.593 380.355 141.389C380.473 141.186 380.659 141.03 380.88 140.95L408.7 131C408.95 130.911 409.226 130.926 409.466 131.04C409.706 131.154 409.891 131.359 409.98 131.61C410.068 131.861 410.054 132.136 409.94 132.376C409.825 132.616 409.62 132.801 409.37 132.89L381.56 142.83C381.451 142.87 381.335 142.89 381.22 142.89Z" fill="#263238"/>
</svg>
