<svg width="64" height="64" viewBox="0 0 64 64" fill="none" xmlns="http://www.w3.org/2000/svg">
<path d="M45.1449 18.234L41.5797 19.5751C41.2302 19.7067 40.8317 19.5331 40.6967 19.1746C40.5637 18.8202 40.7431 18.4246 41.0976 18.2912L44.6628 16.9501C45.0172 16.8171 45.4119 16.9961 45.5458 17.3505C45.6789 17.705 45.4994 18.1005 45.1449 18.234Z" fill="white"/>
<path d="M38.694 15.751C38.5015 16.0822 38.0795 16.1892 37.7565 16.001C37.4288 15.8113 37.3172 15.3921 37.5065 15.0644L39.3467 11.8845C39.5378 11.5568 39.9565 11.443 40.2842 11.6345C40.6119 11.8242 40.7235 12.2434 40.5342 12.5711L38.694 15.751Z" fill="white"/>
<path d="M34.7333 14.3158C34.3741 14.3457 34.0289 14.0687 34.003 13.6783L33.7958 10.643C33.7699 10.2653 34.0556 9.93807 34.4333 9.91263C34.8119 9.88584 35.1387 10.172 35.1637 10.5501L35.3708 13.5854C35.3967 13.9631 35.111 14.2903 34.7333 14.3158Z" fill="white"/>
<path d="M60.9476 34.9153C57.5923 35.6861 54.2454 34.4826 50.9325 33.4229C44.3897 31.3662 42.2825 32.7166 40.0985 34.4171C38.3247 35.8011 37.5105 36.3501 34.2726 36.9944C27.1489 38.3748 24.7944 38.0666 23.0521 38.8064C22.3253 39.1189 21.4869 39.7716 21.3137 40.6685C21.0985 41.7609 21.9566 42.8439 22.8673 43.306C25.049 44.3875 28.7413 43.3625 31.2387 42.726C36.8031 41.3085 38.5014 41.1951 45.2575 42.5653L44.9851 43.9091C38.3832 42.5718 36.8874 42.7031 31.5771 44.0551C29.6902 44.5362 27.2527 45.16 25.2458 45.16C22.2801 45.16 20.5854 43.7394 20.058 41.9454L14.9057 39.8499C14.9927 40.1646 15.0432 40.4894 15.0128 40.8162C14.977 41.2011 14.6307 41.4729 14.2664 41.435C13.8887 41.4002 13.6119 41.0658 13.6467 40.6885C13.6869 40.2609 13.5012 39.8042 13.1735 39.5256C13.0266 39.4006 12.9474 39.227 12.9356 39.0486C11.4808 38.4562 10.2565 37.8542 9.21906 38.0015C8.60043 38.0909 7.89558 38.6557 7.9896 39.2484C8.02438 39.4579 8.02504 39.6458 8.05745 39.836C13.7669 43.6005 27.165 52.2225 34.0155 51.9323C36.2633 51.8288 38.503 50.9173 40.6494 50.1993C47.0655 48.0519 54.0289 47.1573 60.7744 47.6095C61.5495 47.6616 61.6625 48.7808 60.8698 48.953C59.4108 50.0621 52.6288 48.3829 43.2934 51.5868C41.7547 52.1148 40.2523 52.7466 38.6818 53.1907C29.8181 55.697 25.6528 52.4978 19.8249 49.2608C17.49 47.9639 15.0837 46.7971 12.7885 45.4286C8.53265 42.891 8.38395 42.0593 6.77743 40.6369C5.87431 40.0395 4.97598 39.4411 4.08156 38.8452C3.56817 38.5028 2.49941 37.7903 2.52084 36.6171C2.54584 35.3336 3.85299 34.5988 5.13692 34.4403C7.92888 34.0881 13.4583 37.6144 13.6914 37.7644C13.7714 37.8159 13.8369 37.8813 13.8873 37.9552L19.9654 40.4272C20.0383 40.2861 20.2343 38.3181 22.9157 37.3968C21.0097 36.0578 19.6164 34.1925 18.9396 31.9944C16.6429 24.5342 23.0158 16.0982 31.3789 16.7104C38.8466 17.2489 44.089 24.6975 41.1542 32.0253C47.5484 28.5522 54.5013 34.9914 60.6405 33.5787C61.0083 33.4939 61.378 33.7247 61.4619 34.0935C61.5467 34.4627 61.3164 34.8305 60.9476 34.9153ZM5.30478 35.801C4.6262 35.885 3.90031 36.2086 3.89227 36.6435C3.88298 37.1301 4.48783 37.4696 6.63491 38.8957C6.77087 37.7654 7.72897 36.9456 8.79774 36.7009C7.42743 36.1075 6.11694 35.7008 5.30478 35.801ZM39.4923 23.3627C37.8923 20.397 34.6691 18.3225 31.2807 18.0783C23.8473 17.5291 18.2478 25.0882 20.2503 31.5908C20.9628 33.9046 22.5869 35.8091 24.8333 36.9738C25.05 36.9467 31.721 36.2956 35.5162 35.3078C36.862 34.9571 37.5576 34.6204 38.6384 33.807C40.8467 30.7661 41.3262 26.7627 39.4923 23.3627Z" fill="white"/>
<path d="M22.644 41.4881C22.5011 40.3095 23.5574 39.4283 24.6244 39.1979C25.4285 39.0235 26.2269 39.0438 26.9449 38.939C27.2244 38.8993 27.502 39.0341 27.6422 39.2819C29.0364 41.7658 27.8917 43.581 25.9074 43.581C24.5723 43.581 22.8109 42.8854 22.644 41.4881ZM26.6449 40.3537C25.9999 40.4113 25.4409 40.4246 24.9136 40.5381C24.452 40.6381 23.9654 40.9948 24.0056 41.3238C24.1033 42.1402 27.8858 43.2301 26.6449 40.3537Z" fill="white"/>
<path d="M53.7253 42.3679C52.7396 41.2599 51.2673 40.5545 49.786 40.4804C48.8758 40.4354 48.9561 39.0639 49.8539 39.1108C51.7226 39.2041 53.5075 40.059 54.7503 41.4563C55.3567 42.138 54.319 43.0339 53.7253 42.3679Z" fill="white"/>
<path d="M30.9087 27.6058C30.9079 28.0895 30.9123 28.5744 30.9093 29.0568C30.9049 29.7381 30.8882 30.4196 30.8792 31.101C31.5264 30.9654 32.431 30.6337 32.6718 30.0153C32.8102 29.6621 33.2075 29.4876 33.5602 29.6255C34.6403 30.0466 33.6259 32.0829 30.8587 32.4995C30.8495 33.0124 30.8479 33.5253 30.8361 34.038C30.8271 34.4112 30.5218 34.7077 30.1503 34.7077H30.1343C29.7557 34.6987 29.4557 34.3845 29.4646 34.0059C29.4762 33.5094 29.4776 33.0126 29.4866 32.516C27.0084 32.2023 25.7324 30.217 26.0691 28.8246C26.2628 28.0211 27.0816 27.1496 27.8923 26.8822C28.4393 26.7019 28.9906 26.5842 29.5367 26.4775C29.5346 25.5113 29.5284 24.5506 29.5172 23.5871C28.6742 23.8068 27.921 24.3912 27.5244 25.1822C27.3548 25.5197 26.9423 25.659 26.6039 25.4876C26.2655 25.3179 26.128 24.9059 26.2977 24.567C27.3517 22.468 29.4065 22.2116 29.4979 22.1705C29.4911 21.749 29.4892 21.3231 29.4807 20.9037C29.4736 20.5251 29.7736 20.2121 30.1521 20.2041C30.1575 20.2041 30.1619 20.2041 30.1664 20.2041C30.5387 20.2041 30.8441 20.5019 30.8521 20.876C30.8607 21.3011 30.8627 21.7328 30.8695 22.1602C33.2876 22.5162 34.7493 24.5586 34.0146 26.0237C33.4786 27.1009 32.1584 27.3617 30.9087 27.6058ZM28.3218 28.1849C27.9593 28.3045 27.4861 28.7992 27.4021 29.1461C27.3155 29.5059 27.545 29.9309 27.7878 30.2086C28.2078 30.6869 28.8326 31.0229 29.5069 31.1402C29.5163 30.4427 29.5333 29.7455 29.5378 29.0479C29.5403 28.6578 29.5364 28.2655 29.5373 27.8746C29.1223 27.9605 28.7154 28.0551 28.3218 28.1849ZM32.3521 24.3162C31.9473 23.9317 31.4309 23.6857 30.8886 23.5667C30.8987 24.4477 30.9054 25.3258 30.908 26.2095C30.9257 26.2058 30.9434 26.2029 30.9611 26.1992C31.7269 26.041 32.5585 25.8722 32.7878 25.4108C32.9677 25.0549 32.6445 24.5951 32.3521 24.3162Z" fill="white"/>
</svg>
