<svg width="64" height="64" viewBox="0 0 64 64" fill="none" xmlns="http://www.w3.org/2000/svg">
<path d="M25.104 51.4318C17.2054 46.575 19.0185 34.4839 28.1751 32.2708C34.0192 30.9665 39.5002 34.5413 40.8146 40.0576C42.971 49.1164 33.0369 56.3092 25.104 51.4318ZM22.2691 38.6758C26.4549 38.582 30.8619 38.3904 34.7851 37.9378C34.0166 36.2332 33.0974 34.7546 31.9989 33.4271C27.933 32.7624 23.9698 34.9453 22.2691 38.6758ZM39.5355 40.3624C38.842 37.4516 36.7826 35.129 34.0879 34.0255C34.8991 35.2084 35.6055 36.4867 36.2012 37.8979C36.4788 38.4438 36.08 39.1128 35.5231 39.1698C35.5031 39.1726 35.4809 39.1749 35.4607 39.1776L34.822 40.5238C31.6137 40.7912 26.7048 40.9297 21.5517 41.0099C20.9482 44.7634 22.6522 48.3805 25.7928 50.3115C32.7162 54.5691 41.425 48.3002 39.5355 40.3624Z" fill="white"/>
<path d="M59.9299 57.9473C59.6276 58.6347 59.0025 59.1202 58.2968 59.3313C56.8265 59.7712 55.6098 59.0367 54.3092 58.463C52.6282 57.7216 44.3023 53.5524 42.654 52.7254C42.4162 52.6964 42.1746 52.626 41.9393 52.5206C41.9183 52.5408 41.8921 52.5611 41.8752 52.5813C38.8324 56.2082 33.9327 58.2396 29.216 57.7339C21.7914 56.9519 15.1108 49.7722 16.6875 41.0643C12.2412 41.0991 7.94295 41.0904 4.69969 41.0817L4.24709 39.8916C3.76017 39.8695 3.52091 39.4681 3.59245 39.1055C4.11685 36.4676 5.00213 33.1307 7.21317 30.7168C11.2273 26.3219 16.5106 24.8489 20.9931 25.6033C23.0145 25.9531 26.1965 27.0019 28.113 28.257C28.4054 28.4499 28.6853 28.645 28.9621 28.8423C38.1465 27.6419 46.0071 35.6512 44.3572 44.9429C45.8726 44.9455 46.8636 46.305 46.908 47.9072C50.9089 50.0028 55.2304 52.3079 59.0389 54.3015C60.0104 54.8096 60.8034 56.5268 60.2226 57.5592C60.1492 57.69 60.0456 57.8199 59.9299 57.9473ZM20.7718 26.9C16.7127 26.2162 11.882 27.5546 8.18364 31.6042C6.39211 33.5601 5.54964 36.2754 5.04151 38.599C13.7541 38.809 16.979 38.7406 17.2998 38.7426C17.7173 37.5422 18.284 36.3966 18.9897 35.3434C20.9029 32.2261 23.7278 30.1583 27.1498 29.2131C25.3644 28.1201 22.5805 27.2129 20.7718 26.9ZM42.9268 39.629C40.5151 29.4434 27.2828 26.6113 20.8446 34.9608C14.8013 42.8313 19.9057 54.8405 30.8463 55.0276C38.7539 55.0276 44.8066 47.5305 42.9268 39.629ZM44.0408 46.3043C43.5843 47.905 42.8512 49.4311 41.8249 50.7976C42.0195 51.1164 42.6065 51.4739 42.9251 51.43C43.4276 51.364 44.0762 51.0451 44.4666 50.6718C44.9486 50.2112 45.2727 49.6119 45.5171 48.7283C45.8554 47.5053 45.267 46.0201 44.0408 46.3043ZM58.4294 55.4668C54.7769 53.555 50.7337 51.399 46.7141 49.291C46.4638 50.112 46.1246 50.7623 45.6726 51.2912C49.7227 53.4188 53.7796 55.6757 57.6049 57.6774C57.8673 57.8195 58.8215 57.3683 59.0762 56.915C59.2273 56.6483 58.8509 55.6872 58.4294 55.4668Z" fill="white"/>
<path d="M25.5585 16.5819C25.3515 18.044 24.907 19.6353 23.9508 21.0096C22.4313 23.1936 19.7361 24.4266 17.3352 23.7292C14.0699 22.7821 13.2042 20.2024 12.6263 16.8912C10.5634 16.6199 10.3471 13.7141 11.5641 12.9015C10.5877 9.31503 12.3061 5.909 15.2303 4.83241C17.0698 4.15561 19.4011 4.66631 20.8433 6.01349C23.1825 5.41078 25.7563 7.19949 26.0826 10.534C26.1492 11.2162 26.1143 11.8841 26.0327 12.5082C26.9234 12.7391 27.3701 13.5883 27.2723 14.4942C27.1705 15.4388 26.3328 16.2812 25.5585 16.5819ZM22.8711 20.2588C23.789 18.9393 24.2751 17.2079 24.3907 14.8648C21.7899 14.9897 17.9983 13.2601 16.1614 10.9317C15.7674 12.4984 15.0917 13.973 13.7841 14.8929C13.7801 14.9125 13.7691 14.9298 13.7634 14.949C13.867 16.4565 14.0312 18.0324 14.6361 19.4501C15.2847 20.9698 16.4306 22.0974 17.7021 22.4664C19.6841 23.0435 21.8044 21.7917 22.8711 20.2588ZM24.7735 10.6625C24.5099 7.96472 22.4467 6.73159 20.914 7.3735C20.655 7.48138 20.3545 7.41289 20.1674 7.2027C19.143 6.04388 17.1318 5.53617 15.6841 6.06657C12.8918 7.09478 11.7817 10.6971 13.2508 13.6505C14.4838 12.622 14.9296 10.789 15.2136 8.92744C15.3193 8.23046 16.2987 8.17783 16.4944 8.84097C17.2338 11.3566 21.9099 13.7799 24.4991 13.5385C24.7626 12.3997 24.8548 11.4896 24.7735 10.6625Z" fill="white"/>
<path d="M38.5668 27.1689C37.972 27.1689 37.6846 26.4362 38.1173 26.0314L40.3699 23.924C40.6344 23.6766 41.0514 23.6898 41.2992 23.9553C41.5471 24.2207 41.5334 24.6368 41.268 24.8846C39.0031 26.9212 39.0242 27.1689 38.5668 27.1689Z" fill="white"/>
<path d="M35.6301 25.007C35.5543 25.3046 35.2872 25.5023 34.9936 25.5023C34.5645 25.5023 34.25 25.0979 34.3561 24.6826L35.8018 19.0135C35.8912 18.662 36.2491 18.4493 36.6014 18.5392C36.9533 18.6286 37.1656 18.9869 37.0757 19.3388L35.6301 25.007Z" fill="white"/>
<path d="M31.5296 24.4912C31.2817 24.4912 31.0441 24.3504 30.9328 24.1107C30.4178 23.0023 29.9902 21.8444 29.661 20.6689C29.563 20.3191 29.7671 19.9565 30.1169 19.8585C30.4658 19.7596 30.8292 19.9642 30.9272 20.3144C31.2372 21.4214 31.6404 22.5122 32.1254 23.5567C32.3281 23.9933 32.0071 24.4912 31.5296 24.4912Z" fill="white"/>
</svg>
