<svg width="64" height="64" viewBox="0 0 64 64" fill="none" xmlns="http://www.w3.org/2000/svg">
<path d="M50.9585 47.6981C53.6151 51.3208 55.1849 55.7887 55.3057 60.3774C55.3057 60.8604 54.9434 61.3434 54.3396 61.3434L43.1094 61.4642H31.8792H20.6491L9.41888 61.3434C8.93586 61.3434 8.45284 60.8604 8.45284 60.3774C8.57359 55.7887 10.1434 51.3208 12.8 47.6981C14.1283 45.8868 15.6981 44.317 17.5094 42.9887C18.9585 41.9019 20.5283 41.0566 22.2189 40.3321C20.6491 38.7623 19.4415 36.951 18.717 34.8981C17.8717 32.483 17.8717 29.9472 18.4755 27.6528C18.234 27.4113 17.9925 27.0491 17.751 26.8076C17.6302 26.4453 17.3887 26.083 17.3887 25.7208C17.2679 24.7547 17.6302 15.4566 17.6302 14.8528C16.9057 14.6113 16.1811 14.2491 15.4566 14.0076C15.4566 16.1811 15.3359 18.4755 15.2151 20.6491C14.9736 23.4264 14.7321 26.083 14.3698 28.8604C13.1623 29.2227 12.5585 30.3094 12.6793 31.2755C12.8 32.1208 13.5245 32.7245 14.3698 32.7245C15.0943 32.7245 15.9396 32.1208 16.0604 31.2755C16.1811 30.4302 15.6981 29.3434 14.3698 28.8604C14.9736 28.6189 15.6981 28.7396 16.3019 29.2227C16.9057 29.7057 17.2679 30.4302 17.3887 31.1547C17.5094 32 17.1472 32.8453 16.5434 33.4491C15.9396 34.0528 15.0943 34.4151 14.2491 34.4151C13.4038 34.4151 12.5585 34.0528 11.9547 33.4491C11.351 32.8453 11.1094 32 11.1094 31.1547C11.1094 30.3094 11.5925 29.5849 12.1962 29.2227C12.8 28.7396 13.5245 28.6189 14.1283 28.8604C13.6453 26.083 13.4038 23.4264 13.283 20.6491C13.1623 18.1132 13.0415 15.5774 13.0415 13.0415C12.0755 12.6793 10.9887 12.1962 10.0226 11.834C9.78114 11.7132 9.66039 11.5925 9.53963 11.351C9.41888 10.8679 9.66039 10.3849 10.1434 10.1434C13.766 8.81511 17.3887 7.60756 20.8906 6.27926C24.5132 5.07171 28.1359 3.74341 31.7585 2.65662C28.2566 4.34718 24.7547 5.79624 21.2528 7.36605C18.4755 8.5736 15.6981 9.78115 12.9208 10.8679C13.283 10.9887 13.6453 11.1094 14.0076 11.2302C15.4566 11.1094 16.9057 10.9887 18.3547 10.8679C19.8038 10.7472 21.2528 10.7472 22.7019 10.6264C24.8755 10.6264 27.0491 10.6264 29.3434 10.7472C29.1019 10.1434 29.4642 9.41888 29.9472 8.93586C31.034 7.96982 32.6038 7.84907 33.9321 8.45284C34.2943 8.5736 34.6566 8.93586 34.8981 9.29813C35.1396 9.66039 35.3811 10.1434 35.3811 10.7472C35.3811 11.351 35.1396 11.834 34.8981 12.1962C34.6566 12.5585 34.2943 12.8 33.9321 13.0415C32.6038 13.6453 31.034 13.5245 29.9472 12.5585C29.7057 12.317 29.4642 11.9547 29.3434 11.5925C27.1698 12.0755 25.117 12.4377 22.9434 12.8C21.6151 12.9208 20.4076 13.1623 19.0793 13.283C19.8038 13.5245 20.6491 13.8868 21.3736 14.1283L31.6377 18.1132C35.5019 16.6642 41.1774 14.3698 50.3547 10.9887C47.5774 9.78115 44.8 8.69435 42.0226 7.4868C38.5208 5.91699 35.0189 4.46794 31.517 2.77737C35.1396 3.86416 38.7623 5.19247 42.3849 6.40001C46.0076 7.60756 49.6302 8.93586 53.1321 10.2642C54.0981 9.9019 54.2189 10.1434 54.3396 10.3849C54.5811 10.8679 54.3396 11.351 53.8566 11.5925C51.3208 12.6793 48.9057 13.6453 46.3698 14.7321C46.3698 15.5774 46.7321 24.5132 46.6113 25.6C46.4906 26.4453 46.0076 27.1698 45.5245 27.5321C45.4038 27.6528 45.4038 27.6528 45.283 27.7736C46.3698 32 45.1623 36.8302 41.5396 40.3321C43.2302 41.0566 44.8 41.9019 46.2491 42.9887C48.0604 44.317 49.6302 45.8868 50.9585 47.6981ZM32.1208 10.7472C31.6377 10.8679 31.034 10.9887 30.5509 11.1094C30.6717 11.2302 30.9132 11.2302 31.034 11.2302C31.517 11.351 31.8793 11.2302 32.2415 11.2302C32.6038 11.1094 32.966 10.9887 33.2076 10.7472C33.3283 10.6264 33.4491 10.5057 33.4491 10.5057C33.4491 10.5057 33.4491 10.3849 33.2076 10.2642C32.966 10.0227 32.6038 9.9019 32.2415 9.78115C31.8793 9.66039 31.3962 9.66039 31.034 9.78115C30.551 9.9019 30.1887 10.0227 29.8264 10.5057C30.6717 10.6264 31.3962 10.6264 32.1208 10.7472ZM32.6038 20.1661C32.3623 20.2868 32 20.2868 31.7585 20.1661C22.0981 16.3019 22.5811 16.5434 19.5623 15.3359C19.8038 20.7698 19.8038 25.2377 19.8038 24.8755V25.117C19.8038 25.3585 20.0453 25.7208 20.2868 25.9623C23.7887 29.2227 40.2113 29.3434 43.9547 25.9623C44.317 25.7208 44.4377 25.3585 44.4377 25.117C44.4377 24.9962 44.4377 24.9962 44.4377 24.8755C44.4377 22.0981 44.5585 17.8717 44.6792 15.3359C41.7811 16.5434 42.9887 16.0604 32.6038 20.1661ZM44.9208 28.0151C39.9698 31.8793 23.9094 32 19.0793 27.7736C18.8377 36.2264 25.4792 42.1434 32.7245 41.6604C39.366 41.2981 45.0415 35.7434 44.9208 28.0151ZM41.4189 40.3321C39.0038 42.6264 35.9849 43.834 32.966 44.0755C29.2226 44.317 25.4793 43.1094 22.5811 40.3321C21.0113 41.1774 19.4415 42.2642 18.1132 43.351C16.5434 44.8 15.0943 46.4906 14.0076 48.3019C11.9547 51.5623 10.7472 55.4264 10.6264 59.2906L20.7698 59.1698H32H43.2302L53.3736 59.2906C53.2528 55.4264 52.0453 51.5623 49.9925 48.3019C48.9057 46.4906 47.4566 44.8 45.8868 43.351C44.4377 42.2642 42.9887 41.2981 41.4189 40.3321Z" fill="white"/>
</svg>
