<svg width="64" height="64" viewBox="0 0 64 64" fill="none" xmlns="http://www.w3.org/2000/svg">
<path d="M30.8416 6.20926L30.78 6.14997C44.413 6.01858 58.2106 17.029 57.9751 33.2117C57.7472 48.8657 45.1363 59.9046 30.4204 59.2281C28.4883 59.1393 26.5677 58.8335 24.7035 58.2974C22.3868 60.1169 18.5439 61.3285 16.0299 60.3088C15.0033 59.8835 14.0888 59.2009 13.3237 58.3282C10.4899 55.7397 10.0591 51.3213 10.728 47.4745C6.50776 41.4831 5.31493 34.5919 6.40003 28.1784C8.3958 16.3824 18.0974 6.20225 30.8416 6.20926ZM17.6271 12.0222C17.6726 12.1237 17.702 12.233 17.69 12.3516C17.4732 14.494 19.786 15.996 21.6549 14.9441C23.0355 14.1657 23.7934 12.1507 25.6437 11.4749C29.032 10.2349 31.5392 14.1821 34.2841 13.8978C35.3304 13.7865 36.3612 12.9672 36.9117 11.8105C37.3229 10.9452 37.5064 9.87535 37.5037 8.51063C30.4283 6.40964 23.4727 7.69418 17.6271 12.0222ZM54.3852 25.5947C49.7764 24.2086 43.561 27.1122 48.065 29.4509C49.1126 29.9793 50.1894 30.4659 50.7867 31.4629C51.5453 32.73 51.1514 34.5108 49.9263 35.3516C49.456 35.672 48.8419 35.9006 48.7739 36.1598C48.6159 36.7631 51.659 38.7759 55.0116 37.7835C55.3598 36.1851 55.5583 34.5394 55.5975 32.8644C55.6566 30.3548 55.3498 27.9277 54.6885 25.6063C54.59 25.624 54.4881 25.626 54.3852 25.5947ZM41.8535 48.6975C40.2965 45.8304 37.0158 45.0265 36.5898 45.5348C36.3192 45.8579 36.7532 46.753 36.8834 47.504C37.2423 49.539 35.2622 51.5432 33.2182 51.2129C30.8778 50.8296 29.7776 48.0923 27.9853 47.8619C27.136 47.7566 26.1489 48.272 25.3364 49.2506C24.1552 50.6721 23.4007 53.6236 23.5897 55.8035C26.053 56.6918 28.4847 57.1283 30.9382 57.1829C34.8985 57.2635 38.7252 56.3741 42.169 54.6129C42.6656 52.8655 42.6695 50.1994 41.8535 48.6975ZM25.1069 37.0357C25.1481 35.977 25.2767 34.9457 25.4348 33.5682C25.457 33.3655 25.5762 33.2005 25.7353 33.096C26.5965 32.2805 28.1004 30.6614 30.6317 28.8199C30.9621 28.5816 31.4215 28.6942 31.6043 29.0528C33.3356 32.4462 34.4228 35.6679 35.1078 39.4053C35.6821 39.1164 35.7177 39.0986 35.8278 39.0374C35.142 34.2934 35.0196 29.8036 34.9545 25.6042C34.9511 25.397 35.0461 25.2009 35.2096 25.0742C37.3912 23.385 39.3834 21.9697 41.2927 20.7523C41.6506 19.6478 41.9005 19.4738 41.7473 19.2386C41.6282 19.0541 41.5568 19.1662 40.3912 19.0408C37.9263 20.6829 35.6026 22.1179 33.4819 23.3088C33.3038 23.409 33.0881 23.4209 32.8989 23.3388C29.1549 21.7215 24.8826 20.3679 20.5187 19.4141C20.4659 19.4975 20.3777 19.642 20.3259 19.7299C23.4146 21.2379 26.5673 23.4701 29.4862 26.2377C29.7527 26.4899 29.7612 26.9102 29.505 27.1735C27.7644 28.9629 26.1917 30.4364 24.8312 31.5536C24.2424 32.0338 23.643 31.2035 20.3663 30.5511C20.2288 30.7127 20.084 30.9036 19.9407 31.1074C22.8601 32.9657 23.8616 33.7458 24.8418 37.1486C24.8442 37.1475 25.0535 37.0578 25.1069 37.0357ZM21.3811 33.7018C15.5971 39.9511 8.63506 51.7645 14.6195 57.779C10.4923 51.4039 16.3341 41.6994 22.8251 35.5131C22.4773 34.8013 21.9877 34.1876 21.3811 33.7018ZM14.684 51.9398C14.5242 53.6772 14.7535 54.9566 15.1619 55.9817C16.8931 58.5016 20.0753 58.7484 22.1845 57.4235C19.6667 56.3664 17.3367 54.8199 15.6243 52.7634C15.3024 52.5006 14.9944 52.219 14.684 51.9398ZM19.432 32.3442C19.1812 32.1807 18.9443 32.0315 18.7411 31.9156C18.7172 31.9049 18.6907 31.909 18.6677 31.8953C18.3569 31.7069 18.2567 31.3028 18.4442 30.992C18.6275 30.6889 19.1129 29.9235 19.6634 29.373C19.8141 29.2215 20.0299 29.1521 20.2422 29.1906C21.7165 29.4492 23.0221 29.8756 24.2781 30.3036C25.41 29.3533 26.69 28.1555 28.0932 26.7352C25.2114 24.087 22.124 21.9766 19.1309 20.611C18.8243 20.4712 18.6877 20.126 18.7884 19.8129C18.8042 19.7045 18.8373 19.5984 18.9091 19.5057C19.3357 18.954 19.6743 17.8941 20.4074 18.0451C24.8715 18.9946 29.2593 20.361 33.1198 22.0031C39.2872 18.5069 39.6749 17.6313 40.3107 17.7069C41.5161 17.8603 42.2752 17.6464 42.8466 18.516C43.1283 18.9449 43.1874 19.4877 43.0033 19.9672C41.786 22.9105 43.764 20.1509 36.2747 25.9132C36.3449 30.2574 36.4793 34.5596 37.1908 39.2643C37.3152 40.0907 35.9151 40.3143 35.1334 40.9064C34.7886 41.1662 34.2586 41.0386 34.115 40.5753C33.5443 40.0154 33.86 36.6737 30.7816 30.349C29.4431 31.3711 28.1608 32.5179 26.7111 33.98C26.6624 34.5082 26.5907 34.72 26.4413 37.0668C26.3778 38.0644 26.3217 37.9447 25.4177 38.3328C24.7449 38.624 24.7026 38.6538 24.4735 38.6215C24.1032 38.6781 23.7934 38.4327 23.7268 38.1042C23.6441 37.6946 23.509 37.2606 23.3599 36.8349C19.4072 40.6753 16.0399 44.8449 14.9145 50.3732C17.0759 52.459 19.5695 54.1031 22.2534 55.2583C22.2259 52.8447 23.0548 49.9387 24.3244 48.4098C25.4425 47.0639 26.8406 46.3918 28.1531 46.5571C30.5276 46.8626 31.6277 49.6207 33.4305 49.915C34.5745 50.1044 35.7901 48.8782 35.5889 47.7317C35.4386 46.8893 34.7614 45.668 35.5821 44.6906C36.0787 44.0947 36.934 43.9132 37.9922 44.1786C40.0975 44.7078 41.9733 46.1615 43.0093 48.0691C43.8216 49.5654 43.9682 51.8696 43.6921 53.7586C48.9165 50.5797 52.9057 45.439 54.6454 39.2351C52.4718 39.6573 50.2882 39.1541 48.6215 38.0108C47.7114 37.385 47.303 36.5896 47.5016 35.8268C47.7433 34.906 48.6666 34.6172 49.1831 34.2668C49.8321 33.8216 50.059 32.8062 49.6583 32.1384C49.2643 31.4788 48.4131 31.0988 47.4579 30.617C44.1288 28.8881 44.667 26.0261 47.7105 24.7283C49.74 23.8612 52.0884 23.6853 54.2408 24.2035C51.7242 17.0998 45.9004 11.4787 38.8268 8.94149C38.7216 12.9969 36.5507 14.9786 34.4245 15.206C31.3149 15.5299 28.5755 11.8033 26.0949 12.7095C24.6811 13.2272 23.9454 15.1625 22.3004 16.0896C19.9278 17.4272 16.7155 16.0196 16.394 12.998C11.8682 16.8258 8.82169 22.2197 7.7547 28.0226C6.67436 33.8981 7.62337 40.1928 11.121 45.7056C12.5046 40.6456 16.0766 36.2745 19.432 32.3442Z" fill="white"/>
<path d="M12.3381 24.6693C12.8088 24.342 12.8261 24.3272 12.7807 23.6941C12.7593 23.397 12.7354 23.0597 12.8261 22.7061C13.2959 20.8729 15.9518 20.7661 16.6985 22.6941C17.2248 24.0535 19.5897 24.7091 18.4862 27.5503C17.5351 30.0016 13.9313 30.9665 12.0076 29.1436C11.4152 28.5828 11.071 27.7378 11.0881 26.8842C11.1105 25.8243 11.5922 25.185 12.3381 24.6693ZM17.2602 27.0742C18.0361 25.0767 16.2034 25.0538 15.4725 23.1693C15.3408 22.8298 15.0052 22.5999 14.7122 22.5999C14.4425 22.5999 14.1609 22.7968 14.1001 23.0323C13.9932 23.4501 14.2908 24.1977 13.9134 24.9201C13.4147 25.8768 12.4266 25.7088 12.4032 26.9107C12.3554 29.3555 16.3812 29.3447 17.2602 27.0742Z" fill="white"/>
<path d="M17.6035 7.50575L17.1232 4.06825C17.0735 3.70866 17.3244 3.37647 17.684 3.32595C18.0453 3.27458 18.3757 3.52801 18.4263 3.88674L18.9066 7.32424C19.0255 8.18573 17.7247 8.36779 17.6035 7.50575Z" fill="white"/>
<path d="M13.5333 5.38841L15.6771 8.46461C16.1798 9.18452 15.0849 9.91516 14.5983 9.21632L12.4545 6.14012C12.2465 5.84218 12.3201 5.43208 12.618 5.22488C12.9177 5.01769 13.3261 5.09132 13.5333 5.38841Z" fill="white"/>
<path d="M12.1129 12.4757L8.31838 9.62985C8.02814 9.41239 7.96906 8.99972 8.18739 8.70948C8.40485 8.42009 8.81581 8.36016 9.10776 8.57848L12.9023 11.4244C13.6027 11.9492 12.799 12.9928 12.1129 12.4757Z" fill="white"/>
</svg>
