<svg width="64" height="64" viewBox="0 0 64 64" fill="none" xmlns="http://www.w3.org/2000/svg">
<path d="M34.2588 56.0941L35.0118 55.8117C35.3882 55.7176 35.7647 55.9058 35.8588 56.2823C35.9529 56.6588 35.7647 57.0352 35.3882 57.1294L34.6353 57.4117H34.4471C34.1647 57.4117 33.8824 57.2235 33.7882 56.9411C33.6941 56.6588 33.8824 56.1882 34.2588 56.0941Z" fill="white"/>
<path d="M44.5176 13.9294C45.4588 13.9294 46.4941 14.0235 47.5294 14.1176C49.4118 14.2117 52.9882 14.5882 54.8706 15.0588C55.1529 15.1529 55.4353 15.1529 55.6235 15.247C56.3765 15.4352 57.0353 15.6235 57.7882 15.9058C58.8235 16.2823 59.3882 16.5646 59.5765 17.5999C59.6706 17.6941 59.7647 17.8823 59.7647 18.0705C59.8588 27.2941 59.6706 37.647 59.3882 47.8117C59.3882 48.2823 59.2941 48.6588 59.0118 49.0352C58.7294 49.7882 58.2588 50.447 57.6 51.1058C56.5647 51.9529 54.5882 53.1764 53.3647 53.7411C47.4353 56.3764 41.7882 58.9176 35.8588 61.5529C34.9176 61.9294 33.9765 62.3999 32.9412 62.4941C31.9059 62.5882 30.7765 62.3058 30.1176 61.5529C29.7412 61.0823 29.5529 60.4235 29.3647 59.7646C29.0823 58.9176 29.0823 57.9764 29.0823 57.2235V49.2235C28.0471 49.3176 26.6353 49.0352 25.5059 49.0352C22.5882 49.0352 19.6706 48.7529 16.8471 48.2823C14.9647 47.9999 12.9882 47.4352 11.8588 45.8352C11.0118 44.6117 11.0118 43.1058 11.0118 41.5999C11.0118 40.7529 11.0118 39.9058 11.0118 39.0588C10.7294 38.7764 10.5412 38.4941 10.1647 38.3999C9.03529 37.9294 8 38.2117 7.05882 37.647C6.68235 37.647 6.30588 37.5529 5.92941 37.3646C4.61176 36.7058 4.42352 35.0117 4.32941 34.1646C4.23529 33.2235 4.14117 32.2823 4.23529 31.3411C4.42353 30.1176 4.98823 29.1764 5.83529 28.6117C6.68235 28.047 7.71764 27.9529 8.65882 27.8588C9.50588 27.8588 10.3529 27.7646 11.2 27.7646C11.2941 26.2588 11.4823 24.7529 11.6706 23.247C11.8588 21.8352 12.1412 20.4235 12.6118 19.1999C12.8941 17.5999 13.4588 15.9999 14.6823 14.9646C14.9647 14.6823 15.4353 14.4941 15.9059 14.3058C15.3412 11.8588 14.5882 9.50582 13.6471 7.34112C13.5529 7.15288 13.5529 6.87053 13.7412 6.6823C13.8353 6.49406 14.0235 6.39994 14.3059 6.30582C17.6 6.02347 20.8941 5.83524 24.1882 5.74112C23.9059 4.70582 23.5294 3.57641 23.1529 2.54112C23.0588 2.35288 23.0588 2.07053 23.2471 1.8823C23.3412 1.69406 23.6235 1.59994 23.8118 1.59994C30.4 1.41171 36.9882 1.50583 43.5765 2.07053C43.7647 2.07053 43.9529 2.16465 44.0471 2.35288C44.1412 2.54112 44.3294 2.63524 44.2353 2.82347C43.7647 6.49406 43.7647 10.2588 44.5176 13.9294ZM57.3176 17.2235C56.6588 16.9411 56 16.847 55.3412 16.6588C55.0588 16.5646 54.7765 16.5646 54.5882 16.4705C52.8 15.9999 49.3176 15.6235 47.5294 15.5294C46.5882 15.4352 45.6471 15.4352 44.8941 15.3411C45.1765 16.5646 45.5529 17.7882 45.9294 18.9176V19.0117C47.7176 19.0117 49.5059 19.1058 51.2941 19.1058C53.5529 18.6352 55.8118 18.0705 58.0706 17.5058C57.8823 17.4117 57.6941 17.3176 57.3176 17.2235ZM32.4706 18.7294C34.6353 18.7294 36.8941 18.8235 39.0588 18.8235C38.9647 16.9411 38.4941 15.5294 37.5529 14.5882C36.7059 13.647 34.9176 12.9882 33.7882 13.7411C33.1294 14.2117 32.5647 14.9646 32.4706 15.9999C32.3765 16.9411 32.3765 17.8823 32.4706 18.7294ZM32.3765 20.1411C26.3529 20.047 20.0471 19.8588 14.0235 19.8588V20.047C13.1765 25.6941 12.9882 31.4352 12.9882 37.1764V40.7529C12.9882 42.0705 12.9882 43.4823 13.7412 44.5176C14.5882 45.7411 16.3765 46.2117 17.9765 46.3999C21.7412 46.9646 25.4118 47.0588 29.1765 46.5882V44.7999C29.1765 45.1764 28.8941 45.4588 28.5176 45.4588L27.2 45.5529H27.1059C26.7294 45.5529 26.4471 45.2705 26.4471 44.8941C26.4471 44.5176 26.7294 44.1411 27.1059 44.1411L28.4235 44.047C28.8 44.047 29.0823 44.2352 29.1765 44.6117V33.8823C29.1765 31.5294 29.1765 28.2352 31.0588 25.7882C32.7529 23.5294 35.5765 22.6823 38.5882 21.9294C40.8471 21.3646 43.1059 20.8941 45.3647 20.3294C41.0353 20.3294 36.7059 20.2352 32.3765 20.1411ZM23.5294 16.7529C22.9647 16.3764 22.1176 16.3764 21.4588 16.7529C20.8941 17.1294 20.6118 17.8823 20.7059 18.5411C21.9294 18.5411 23.0588 18.5411 24.2823 18.6352C24.3765 17.8823 24.0941 17.1294 23.5294 16.7529ZM49.0353 21.0823C45.7412 21.8352 42.2588 22.5882 38.9647 23.4352C36.2353 24.0941 33.6941 24.847 32.2823 26.7294C30.8706 28.6117 30.6823 31.0588 30.6823 33.8823L30.5882 57.2235C30.5882 57.9764 30.5882 58.7294 30.7765 59.2941C30.9647 59.9529 31.3412 60.4235 31.8118 60.5176C32.4706 60.7999 33.3176 60.4235 34.1647 60.047C38.2118 58.0705 42.2588 56.1882 46.3059 54.2117C49.9765 52.5176 53.5529 50.7294 57.2235 49.0352C57.6941 48.847 57.9765 48.3764 58.0706 47.8117C58.2588 37.9294 58.4471 27.9529 58.3529 18.9176C55.2471 19.6705 52.0471 20.3294 49.0353 21.0823ZM8.84706 29.3646C8 29.4588 7.24706 29.4588 6.68235 29.8352C6.21176 30.2117 5.83529 30.8705 5.64706 31.6235C5.55294 32.3764 5.64705 33.2235 5.74117 34.1646C5.83529 35.0117 6.02353 35.8588 6.58823 36.2352C6.87058 36.4235 7.24706 36.4235 7.71764 36.4235L11.0118 36.5176C11.0118 34.1646 11.1059 31.7176 11.2 29.3646C10.4471 29.2705 9.69411 29.2705 8.84706 29.3646ZM14.4 18.447C15.2471 18.447 16.0941 18.447 16.8471 18.447C16.6588 17.5058 16.5647 16.5646 16.2823 15.6235C16 15.7176 15.8118 15.9058 15.7176 15.9999C15.0588 16.5646 14.5882 17.5058 14.4 18.447ZM15.4353 7.62347C16.2824 9.78818 16.9412 12.1411 17.5059 14.4941C17.7882 15.8117 18.0706 17.1294 18.2588 18.447C18.5412 18.447 18.9176 18.447 19.2 18.447C19.1059 17.3176 19.6706 16.0941 20.6118 15.5294C21.6471 14.7764 23.1529 14.8705 24.2823 15.6235C25.2235 16.2823 25.7882 17.5058 25.6 18.6352C25.7882 18.6352 25.9765 18.6352 26.1647 18.6352C26.1647 15.5294 25.7882 12.5176 25.2235 9.59994L19.7647 9.88229C19.7647 10.1646 19.6706 10.3529 19.6706 10.5411C19.4823 11.1058 19.0118 11.4823 18.4471 11.6705H18.3529C17.9765 11.6705 17.6941 11.3882 17.6941 11.1058C17.6 10.7294 17.8824 10.3529 18.2588 10.2588C18.3529 10.2588 18.3529 10.1646 18.3529 10.1646C18.4471 9.8823 18.4471 9.69406 18.4471 9.69406C18.3529 9.50582 18.2588 9.22347 18.3529 9.03524C18.4471 8.65877 18.6353 8.47053 18.9176 8.47053L24.9412 8.18818C24.8471 7.81171 24.7529 7.52935 24.6588 7.15288C21.6471 7.15288 18.5412 7.34112 15.4353 7.62347ZM24.8471 3.01171C26.6353 7.99994 27.5765 13.2705 27.6706 18.6352C28.8 18.6352 29.9294 18.6352 31.0588 18.7294C30.9647 17.7882 30.8706 16.847 31.0588 15.8117C31.3412 14.3999 32 13.1764 33.0353 12.5176C34.9176 11.3882 37.3647 12.1411 38.5882 13.647C39.7176 14.8705 40.2823 16.6588 40.4706 18.9176C41.7882 18.9176 43.0118 18.9176 44.3294 19.0117C43.8588 17.6941 43.4823 16.2823 43.2 14.8705C43.2 14.8705 43.2 14.8705 43.2 14.7764C42.4471 11.0117 42.2588 7.15288 42.7294 3.38818C36.8 3.01171 30.7765 2.82347 24.8471 3.01171Z" fill="white"/>
<path d="M10.6353 33.2234C10.447 34.0705 9.50586 34.5411 8.6588 34.3528C7.81174 34.1646 7.34115 33.2234 7.52939 32.3764C7.99997 30.3999 11.2 31.1528 10.6353 33.2234Z" fill="white"/>
<path d="M35.2941 44.3294C34.3585 44.3294 33.6 43.3181 33.6 42.0706C33.6 40.8231 34.3585 39.8118 35.2941 39.8118C36.2297 39.8118 36.9882 40.8231 36.9882 42.0706C36.9882 43.3181 36.2297 44.3294 35.2941 44.3294Z" fill="white"/>
<path d="M41.5059 6.96464C40.847 7.15288 40.0941 6.96464 39.6235 6.49405C39.3411 6.2117 39.247 5.92935 39.1529 5.55288H30.1176C30.1176 5.74111 30.1176 6.02346 30.0235 6.2117C29.9294 6.58817 29.5529 6.87052 29.1764 7.05876C28.9882 7.15288 28.7059 7.24699 28.5176 7.24699C28.3294 7.24699 28.1411 7.24699 27.9529 7.15288C27.5764 7.05876 27.3882 6.58817 27.5764 6.2117C27.6706 5.83523 28.1411 5.64699 28.5176 5.83523H28.6117L28.7059 5.74111V5.64699L28.6117 5.55288C28.3294 5.45876 28.1411 5.08229 28.1411 4.79994C28.2353 4.42346 28.5176 4.23523 28.8 4.23523H39.8117C40 4.23523 40.2823 4.32935 40.3764 4.51758C40.4706 4.70582 40.5647 4.98817 40.4706 5.17641C40.3764 5.27052 40.4706 5.45876 40.5647 5.55288C40.6588 5.64699 40.9411 5.74111 41.1294 5.64699C41.5059 5.55288 41.8823 5.74111 41.9764 6.11758C42.0706 6.49405 41.8823 6.87052 41.5059 6.96464Z" fill="white"/>
<path d="M55.8118 48.3764L53.4588 49.4117C53.3647 49.4117 53.2706 49.5058 53.1765 49.5058C52.8941 49.5058 52.6118 49.3175 52.5177 49.1293C52.3294 48.7528 52.5177 48.3764 52.8941 48.1881L55.2471 47.0587C55.6235 46.8705 56 47.0587 56.1882 47.4352C56.3765 47.8117 56.1882 48.1881 55.8118 48.3764Z" fill="white"/>
<path d="M45.6471 52.7058H45.553C45.2706 52.7058 44.8941 52.5176 44.8941 52.1411C44.8 51.7646 45.0824 51.3882 45.4588 51.294C46.6824 51.0117 47.8118 50.447 48.753 49.694C49.0353 49.4117 49.5059 49.5058 49.7883 49.7882C50.0706 50.0705 49.9765 50.5411 49.6941 50.8235C48.5647 51.7646 47.153 52.4235 45.6471 52.7058Z" fill="white"/>
<path d="M41.6 53.9293C41.7882 54.3058 41.6 54.6823 41.2235 54.8705L38.9647 55.8117C38.8706 55.8117 38.7765 55.9058 38.6823 55.9058C38.4 55.9058 38.1176 55.7176 38.0235 55.4352C37.8353 55.0587 38.0235 54.6823 38.4 54.494L40.6588 53.5528C41.0353 53.3646 41.5059 53.5528 41.6 53.9293Z" fill="white"/>
<path d="M55.8118 22.5882L53.3647 23.3412H53.1765C52.8941 23.3412 52.6118 23.1529 52.5176 22.8706C52.4235 22.4941 52.6118 22.1176 52.9882 22.0235L55.4353 21.2706C55.8118 21.1764 56.1882 21.3647 56.2824 21.7412C56.3765 22.1176 56.1882 22.4941 55.8118 22.5882Z" fill="white"/>
<path d="M48.9412 24.3764L46.3059 25.0352H46.1176C45.8353 25.0352 45.5529 24.847 45.4588 24.4705C45.3647 24.0941 45.5529 23.7176 45.9294 23.6235L48.5647 22.9647C48.9412 22.8705 49.3176 23.0588 49.4117 23.4352C49.5059 23.8117 49.3176 24.2823 48.9412 24.3764Z" fill="white"/>
<path d="M41.7882 26.3529L39.5294 27.0117H39.3411C39.0588 27.0117 38.7764 26.8235 38.6823 26.5411C38.5882 26.1646 38.7764 25.7882 39.1529 25.694L41.4117 25.0352C41.7882 24.9411 42.1647 25.1293 42.2588 25.5058C42.3529 25.8823 42.1647 26.2587 41.7882 26.3529Z" fill="white"/>
<path d="M36.0471 27.9529L34.5412 28.6117C34.4471 28.6117 34.3529 28.7058 34.2588 28.7058C33.9765 28.7058 33.6941 28.5176 33.6 28.3294C33.4118 27.9529 33.6 27.5764 33.9765 27.3882L35.4824 26.7294C35.8588 26.5411 36.2353 26.7294 36.4235 27.1058C36.6118 27.3882 36.4235 27.8588 36.0471 27.9529Z" fill="white"/>
<path d="M33.7883 22.7764L31.9059 23.0587H31.8118C31.4353 23.0587 31.153 22.7764 31.153 22.3999C31.0588 22.0234 31.3412 21.6469 31.8118 21.6469L33.6941 21.3646C34.0706 21.2705 34.4471 21.5528 34.4471 22.0234C34.4471 22.3058 34.1647 22.6822 33.7883 22.7764Z" fill="white"/>
<path d="M27.3882 22.494H24.4706C24.0941 22.494 23.8118 22.2117 23.8118 21.7411C23.8118 21.3646 24.0941 21.0823 24.5647 21.0823H27.4823C27.8588 21.0823 28.1412 21.3646 28.1412 21.8352C28.1412 22.2117 27.7647 22.494 27.3882 22.494Z" fill="white"/>
<path d="M21.0824 22.7764H18.7294C18.353 22.7764 17.9765 22.494 17.9765 22.0234C17.9765 21.5529 18.2589 21.2705 18.7294 21.2705H21.0824C21.4589 21.2705 21.8353 21.5529 21.8353 22.0234C21.8353 22.494 21.4589 22.7764 21.0824 22.7764Z" fill="white"/>
<path d="M24.2823 44.7999C24.2823 45.1764 23.9059 45.4588 23.6235 45.4588L21.6471 45.3646C21.2706 45.3646 20.9882 44.9882 20.9882 44.6117C20.9882 44.2352 21.3647 43.9529 21.7412 43.9529L23.5294 44.047C24 44.047 24.2823 44.4235 24.2823 44.7999Z" fill="white"/>
<path d="M18.7294 44.2352C18.7294 44.6117 18.4471 44.9882 18.0706 44.9882H17.6C17.0353 44.9882 16.4706 44.8941 15.9059 44.7058C15.5294 44.6117 15.3412 44.1411 15.5294 43.7646C15.6235 43.3882 16.0941 43.1999 16.4706 43.3882C16.9412 43.5764 17.5059 43.6705 18.0706 43.5764C18.353 43.5764 18.6353 43.8588 18.7294 44.2352Z" fill="white"/>
</svg>
