<svg width="64" height="64" viewBox="0 0 64 64" fill="none" xmlns="http://www.w3.org/2000/svg">
<path d="M8.20961 9.53633C9.10151 9.67012 8.90662 11.0305 8.00425 10.8917L4.83193 10.4087C4.45782 10.3515 4.20068 10.0015 4.25782 9.6274C4.31497 9.2524 4.66675 8.99705 5.03907 9.0533L8.20961 9.53633Z" fill="white"/>
<path d="M8.41406 4.54968C8.69888 4.30147 9.1337 4.33272 9.38102 4.61843L11.1873 6.70325C11.4346 6.98986 11.4033 7.4229 11.1176 7.67111C10.8293 7.91799 10.3986 7.88791 10.1498 7.60147L8.34531 5.51665C8.09709 5.23004 8.12834 4.797 8.41406 4.54968Z" fill="white"/>
<path d="M13.498 6.04171C13.123 6.04171 12.8167 5.73993 12.8122 5.36404L12.7872 3.09439C12.7837 2.71582 13.0872 2.406 13.4658 2.40154C13.823 2.37743 14.1542 2.70064 14.1587 3.08011L14.1837 5.34796C14.1881 5.72654 13.8846 6.03725 13.506 6.04171C13.5033 6.04171 13.5006 6.04171 13.498 6.04171Z" fill="white"/>
<path d="M54.3604 41.8265C54.5354 41.4917 54.9488 41.3613 55.2854 41.5337C55.6212 41.7087 55.7524 42.1221 55.5783 42.4587L53.4042 46.6488C53.2301 46.9831 52.8184 47.1158 52.4792 46.9417C52.1435 46.7667 52.0122 46.3533 52.1863 46.0167L54.3604 41.8265Z" fill="white"/>
<path d="M45.145 59.8124C42.7764 60.0163 40.3705 59.9388 38.0055 59.6274C36.1631 62.3718 32.1656 62.1203 30.7723 59.6902L24.1297 36.3298C23.9002 36.0774 23.8057 35.7968 23.6583 35.4891C21.7804 31.5711 19.8877 27.6106 18.9417 23.37C17.2408 21.5683 15.7194 19.687 14.2515 17.6908C13.7564 17.0174 13.2691 16.3224 12.991 15.5342C12.0581 12.8902 13.88 9.03674 18.2498 7.27927C20.3234 6.44643 23.7858 5.93369 25.8917 6.59623C27.0801 6.97034 28.0391 7.73641 28.5239 8.69981C29.8487 11.3437 28.2058 17.4165 27.7319 20.8927C27.726 20.9358 27.7037 20.971 27.6902 21.0108C29.0006 25.0276 30.2987 31.6367 30.74 33.7668L34.7157 47.8177C34.7856 46.6963 34.5441 46.1943 35.0114 45.8668C35.2741 45.6826 35.5253 45.737 35.8123 45.831C35.7486 45.5563 35.7625 45.406 35.731 43.0346C35.7261 42.6641 36.0095 42.337 36.4364 42.3528L36.6596 29.8453C36.6707 29.2791 37.2046 29.1791 37.5199 29.0659C37.7749 26.3811 36.7227 20.6484 39.5721 17.8248C40.1721 17.2293 40.8391 16.94 41.4676 16.9918C42.104 17.0423 42.4317 17.3903 42.6623 17.9489C44.4447 22.2376 43.8211 25.6783 44.0516 28.5873C44.0545 28.7261 44.0055 28.8438 43.9368 28.9472C44.7847 29.2034 45.2232 29.4695 45.1212 30.3614C45.0838 30.6607 45.1074 42.0209 45.0404 42.3427C45.5267 42.3388 45.7832 42.6682 45.7882 43.015C45.8322 46.1895 45.8501 45.6048 45.8167 45.7951C45.8624 45.7865 45.9103 45.7818 45.9578 45.7759L50.6453 36.4596C50.7944 36.1614 51.1408 36.0168 51.456 36.1114C54.0525 36.8971 56.4533 38.2837 58.656 39.6614C58.9167 39.8206 58.9963 39.974 59.09 40.0489C59.3906 40.2082 59.5124 40.5579 59.407 40.8715C59.4571 40.7849 59.5105 40.6974 59.5604 40.6108C59.6192 41.1458 59.6912 41.6794 59.75 42.2145C50.3555 60.4863 54.391 52.4606 52.0544 57.4495C51.688 58.2317 51.2853 59.3981 50.2712 59.4857C49.8956 59.5181 46.9645 59.5824 47.2517 58.7899C46.9691 59.5691 45.8734 59.7497 45.145 59.8124ZM29.9015 35.8404C28.8941 36.4643 27.8109 36.807 26.7632 36.807C26.6596 36.807 26.56 36.7826 26.4573 36.7761C33.1144 60.339 32.6524 58.86 32.7962 59.0605C33.2152 59.6431 34.1319 60.0136 35.156 59.7266C35.7766 59.5177 36.2176 58.7793 36.1792 58.0275L29.9015 35.8404ZM27.298 9.31498C26.9792 8.68195 26.3176 8.16766 25.481 7.90516C23.7168 7.35286 20.5751 7.82261 18.7614 8.55248C17.4194 9.09177 16.281 9.89356 15.4667 10.8712C13.6668 13.035 14.0121 14.0016 15.8489 16.3132C17.2915 18.1276 19.1201 19.9657 20.6829 21.9065C21.1465 21.8457 21.6123 21.7721 22.0811 21.6752C21.2818 20.5153 20.6867 19.2111 20.3676 17.8409C20.2819 17.4721 20.5114 17.1034 20.8801 17.0177C21.2507 16.9302 21.6185 17.1605 21.7033 17.5302C22.0233 18.9055 22.6546 20.2087 23.5186 21.3278C23.7367 21.2662 23.952 21.1862 24.1693 21.1174C25.0786 17.5756 23.1305 15.71 23.0337 12.8266C23.0212 12.448 23.3185 12.1311 23.6971 12.1186C24.0676 12.1302 24.3926 12.4034 24.4051 12.7819C24.4833 15.1546 26.2019 17.0662 25.6801 20.576C25.9353 20.4737 26.1915 20.3744 26.4429 20.2624C26.928 17.02 27.7126 14.1717 27.6426 11.2721C27.6266 10.5971 27.5864 9.88998 27.298 9.31498ZM26.4935 21.7418C24.8212 22.4382 23.0703 22.9373 21.3551 23.2052C22.3773 26.5161 25.4302 33.9233 26.1676 35.3846C27.2185 35.5686 28.406 35.2489 29.4775 34.4944C29.2433 32.83 27.5509 25.0729 26.4935 21.7418ZM37.3994 57.3022C38.4578 57.3315 40.7556 58.063 45.4801 57.2293C45.492 54.3041 45.5076 50.4306 45.5203 47.3007C43.7889 47.932 38.2346 47.8673 36.0891 47.3445L36.0715 52.6089L37.3994 57.3022ZM44.6589 46.1316C44.5568 46.0221 44.4813 45.8864 44.4703 45.7257C44.4478 45.3834 44.448 45.3878 44.4266 43.7427C42.9621 43.8735 41.2755 44.372 37.1132 43.8195C37.1027 45.6392 37.2683 45.7951 36.9891 46.1232C39.3441 46.5489 43.6707 46.3674 44.6589 46.1316ZM42.6783 28.5453C42.5681 25.5105 42.6754 24.2337 42.426 22.3633C41.4367 23.9868 40.4614 24.4947 39.4275 25.1302C39.315 25.1989 39.1908 25.2319 39.0685 25.2319C39.0132 25.2319 38.9633 25.2045 38.9099 25.1915C38.8993 26.9979 38.9012 26.9827 38.893 28.678C40.1502 28.4249 41.4505 28.4349 42.7034 28.6548C42.6963 28.6178 42.6792 28.5836 42.6783 28.5453ZM41.3551 18.3587C41.1444 18.3382 40.8346 18.5043 40.5382 18.798C39.3034 20.0236 39.0104 22.093 38.9384 23.8215C39.1244 23.6491 41.121 22.8995 41.9523 20.1013C41.7931 19.5484 41.3422 18.4191 41.3551 18.3587ZM43.7462 30.3275C42.2148 29.769 39.9742 29.6423 38.023 30.3319L37.8052 42.5238C40.7837 42.8678 42.0446 42.6601 43.7434 42.4435C43.7155 42.3682 43.6958 42.2885 43.6962 42.2034C43.746 29.5233 43.7348 30.47 43.7462 30.3275ZM51.6069 37.5998L46.8915 46.9708L46.8567 56.353C47.7256 56.7524 48.6039 57.1004 49.5248 57.3846L57.9185 40.8177C55.9552 39.59 53.8408 38.3614 51.6069 37.5998Z" fill="white"/>
<path d="M40.6935 39.8148C40.6846 39.8148 40.6757 39.8148 40.6667 39.8139C40.2882 39.7997 39.9935 39.4818 40.0078 39.1032C40.0605 37.6943 40.0239 36.2702 39.8989 34.872C39.8649 34.4943 40.1435 34.1613 40.5203 34.1273C40.9087 34.0916 41.231 34.372 41.2649 34.7488C41.3953 36.2059 41.4337 37.688 41.3774 39.155C41.3641 39.5247 41.0596 39.8148 40.6935 39.8148Z" fill="white"/>
</svg>
