<svg width="64" height="65" viewBox="0 0 64 65" fill="none" xmlns="http://www.w3.org/2000/svg">
<path d="M20.3077 34.3233C21.7846 36.0464 23.5077 37.4002 25.3538 38.2618C28.9231 39.9848 32.3692 39.4925 34.3384 38.8771C36.3077 38.1387 37.2923 37.5233 37.2923 37.4002C37.2923 37.2771 36.1846 37.7694 34.0923 38.1387C32.1231 38.631 29.0461 38.7541 25.8461 37.1541C24.2461 36.2925 22.6461 35.0618 21.4154 33.4618C20.1846 31.8618 19.2 29.7694 18.9538 27.431C18.7077 25.0925 19.0769 22.631 20.1846 20.4156C21.4154 18.2002 23.3846 16.3541 25.7231 15.1233C28.1846 13.8925 30.8923 13.5233 33.3538 13.8925C35.8154 14.2618 38.1538 15.2464 39.8769 16.8464C42.9538 19.6771 44.3077 23.9848 43.6923 28.1694C43.4461 29.8925 42.8308 31.4925 42.0923 32.7233C41.3538 33.9541 40.4923 34.9387 39.7538 35.5541C39.3846 35.9233 39.0154 36.1694 38.7692 36.4156C38.4 36.6618 38.1538 36.7848 37.9077 36.9079C37.0461 37.5233 37.0461 37.6464 38.0308 37.2771C38.2769 37.1541 38.6461 37.031 39.0154 36.9079C39.3846 36.6618 39.7538 36.4156 40.2461 36.1694C41.1077 35.5541 42.0923 34.5694 42.9538 33.3387C43.8154 31.9848 44.5538 30.3848 44.9231 28.5387C45.7846 23.6156 44.3077 18.8156 40.9846 15.8618C39.0154 14.0156 36.4308 12.7848 33.6 12.4156C30.7692 12.0464 27.6923 12.4156 24.9846 13.7694C22.2769 15.1233 20.0615 17.3387 18.7077 19.8002C17.3538 22.3848 16.9846 25.2156 17.3538 27.8002C17.6 30.1387 18.8308 32.4771 20.3077 34.3233Z" fill="#5D9D9F"/>
<path d="M38.5231 62.0156C39.1385 62.0156 39.7538 61.6463 40 61.2771C40.3692 60.9079 40.4923 60.5387 40.6154 60.0463C40.9846 59.3079 41.1077 58.4463 41.3538 58.2002C41.7231 57.7079 42.2154 57.4617 42.8308 57.2156C44.8 56.4771 47.0154 56.8463 49.3539 56.7233C49.7231 56.7233 50.2154 56.7233 50.7077 56.354C51.2 56.1079 51.5692 55.4925 51.6923 55.0002C51.8154 54.0156 51.4462 53.2771 51.2 52.6617C50.2154 50.8156 47.0154 44.2925 45.7846 42.5694C45.7846 42.4463 45.7846 42.3233 45.7846 42.3233C45.9077 41.831 46.0308 41.4617 46.1539 40.9694C46.2769 40.7233 46.4 40.6002 46.5231 40.4771C46.6462 40.354 46.7692 40.231 46.8923 40.231C47.1385 40.1079 47.6308 40.231 48.2462 40.231C49.7231 40.354 51.2 40.1079 52.0615 38.8771C52.5539 38.2617 52.6769 37.4002 52.6769 36.6617C52.6769 36.0463 52.5539 35.3079 52.3077 34.6925C52.1846 34.0771 51.9385 33.5848 52.0615 33.2156C52.0615 32.8463 52.3077 32.6002 52.6769 32.354C53.0462 32.1079 53.6615 31.8617 54.2769 31.4925C54.6462 31.2463 54.8923 31.0002 55.1385 30.631C55.3846 30.2617 55.5077 29.7694 55.6308 29.4002V28.7848C55.6308 28.5387 55.5077 28.2925 55.5077 28.1694C55.3846 27.8002 55.1385 27.431 54.8923 27.0617C54.4 26.4463 53.9077 26.0771 53.4154 25.7079C52.9231 25.3387 52.6769 24.9694 52.5539 24.6002C52.4308 24.231 52.5539 23.9848 52.8 23.3694C53.0462 22.8771 53.5385 22.2617 53.7846 21.4002C54.0308 20.5387 53.6615 19.431 53.1692 18.8156C52.6769 18.2002 52.0615 17.831 51.5692 17.3387C50.9539 16.8463 50.9539 16.8463 50.9539 16.354C50.9539 15.8617 51.2 15.2463 51.3231 14.631C51.4462 14.2617 51.5692 13.8925 51.5692 13.4002C51.5692 13.031 51.5692 12.5387 51.4462 12.0463C51.3231 11.554 50.8308 11.0617 50.3385 10.8156C49.8462 10.5694 49.3539 10.5694 48.9846 10.5694C48.6154 10.5694 48.3692 10.5694 48 10.5694C47.7539 10.5694 47.5077 10.5694 47.2615 10.4463C46.7692 10.3233 46.5231 10.0771 46.4 9.70789C46.4 9.58481 46.2769 9.21558 46.2769 8.84635C46.1538 7.98481 46.0308 7.24635 45.6615 6.50789C45.4154 6.13866 45.0462 5.64635 44.4308 5.52327C44.0615 5.27712 43.5692 5.27712 43.0769 5.4002C42.5846 5.52327 42.2154 5.64635 41.9692 5.8925C40.9846 6.38481 39.7539 6.38481 38.8923 5.8925C38.0308 5.52327 37.5385 4.2925 36.4308 3.18481C36.1846 2.93866 35.8154 2.6925 35.4462 2.44635C35.0769 2.32327 34.5846 2.2002 34.2154 2.2002C33.3538 2.2002 32.6154 2.32327 31.8769 2.6925C31.1385 3.06173 30.7692 3.55404 30.2769 3.92327C29.7846 4.2925 29.5385 4.2925 29.2923 4.16943C28.9231 4.04635 28.4308 3.55404 27.6923 3.30789C26.8308 3.06173 26.2154 3.06173 25.3538 3.18481C24.6154 3.30789 23.7538 3.92327 23.3846 4.66173C23.0154 5.4002 22.8923 6.01558 22.6462 6.38481C22.1538 7.24635 21.2923 7.86173 20.4308 7.86173C19.4462 7.98481 18.2154 7.73866 16.9846 7.86173C16.3692 7.98481 15.6308 8.23096 15.0154 8.72327C14.7692 8.96943 14.5231 9.33866 14.4 9.70789C14.2769 10.0771 14.1538 10.4463 14.1538 10.8156C14.1538 11.431 14.2769 12.0463 14.1538 12.2925C14.1538 12.6617 13.9077 12.9079 13.5385 13.154C12.8 13.6463 11.6923 13.8925 10.7077 14.8771C10.2154 15.3694 9.96923 16.354 10.2154 16.9694C10.3385 17.5848 10.5846 17.954 10.5846 18.3233C10.7077 18.9387 10.0923 19.6771 9.47693 20.4156C9.23077 20.7848 8.86154 21.154 8.61539 21.5233C8.36923 21.8925 8 22.5079 8.12308 23.2463C8.24616 23.9848 8.73846 24.4771 9.23077 24.7233C9.72308 24.9694 10.0923 25.0925 10.2154 25.3387C10.5846 25.7079 10.7077 26.4463 10.5846 27.1848C10.4615 27.9233 10.0923 28.5387 9.84616 29.2771C9.6 30.0156 9.35385 30.8771 9.72308 31.8617C9.96923 32.354 10.3385 32.6002 10.7077 32.7233C11.0769 32.8463 11.4462 32.9694 11.6923 33.0925C12.3077 33.3387 12.8 33.4617 13.0462 33.954C13.2923 34.3233 13.4154 34.9387 13.4154 35.3079C13.2923 35.8002 13.0462 36.1694 12.8 36.7848C12.5538 37.2771 12.6769 38.0156 12.9231 38.3848C13.1692 38.8771 13.4154 39.2463 13.7846 39.4925C14.5231 39.9848 15.1385 40.1079 15.6308 40.231C16.6154 40.4771 17.1077 40.7233 17.2308 40.7233C17.2308 40.7233 16.8615 40.354 15.7538 39.9848C15.2615 39.7387 14.6462 39.6156 14.0308 39.1233C13.5385 38.754 13.0462 37.7694 13.4154 37.031C13.5385 36.6617 13.9077 36.1694 14.1538 35.554C14.2769 35.1848 14.1538 34.8156 14.1538 34.5694C14.0308 34.2002 14.0308 33.954 13.7846 33.5848C12.9231 32.231 10.9538 32.354 10.5846 31.4925C10.4615 31.1233 10.5846 30.3848 10.8308 29.7694C11.0769 28.6617 11.4462 27.9233 11.6923 27.0617C11.8154 26.5694 11.8154 26.0771 11.8154 25.5848C11.6923 25.0925 11.5692 24.4771 11.0769 24.1079C10.5846 23.7387 10.2154 23.4925 9.84616 23.3694C9.72308 23.2463 9.6 23.2463 9.47693 23.1233L9.35385 23.0002V22.8771C9.35385 22.5079 9.96923 21.6463 10.5846 21.031C10.9538 20.6617 11.2 20.2925 11.4462 19.8002C11.6923 19.3079 11.9385 18.6925 11.9385 18.0771C11.9385 17.3387 11.5692 16.8463 11.4462 16.4771C11.3231 16.1079 11.4462 15.9848 11.6923 15.7387C12.1846 15.2463 13.2923 15.0002 14.2769 14.2617C14.7692 13.8925 15.3846 13.2771 15.5077 12.5387C15.6308 11.8002 15.5077 11.1848 15.5077 10.8156C15.5077 10.5694 15.5077 10.4463 15.6308 10.3233C15.7538 10.0771 15.7538 9.95404 15.8769 9.83096C16.1231 9.58481 16.4923 9.46173 16.9846 9.33866C17.9692 9.21558 19.0769 9.46173 20.4308 9.33866C21.9077 9.21558 23.2615 8.35404 24 7.12327C24.3692 6.50789 24.4923 5.76943 24.7385 5.52327C24.9846 5.15404 25.2308 5.03096 25.6 4.90789C25.9692 4.78481 26.5846 4.90789 26.9538 5.03096C27.3231 5.15404 27.6923 5.64635 28.5539 5.8925C28.9231 6.01558 29.5385 6.13866 30.0308 6.01558C30.5231 5.8925 30.8923 5.64635 31.1385 5.4002C31.7538 4.90789 32.1231 4.53866 32.6154 4.2925C32.9846 4.04635 33.6 3.92327 33.9692 4.04635C34.4615 4.04635 34.8308 4.16943 35.2 4.53866C35.5692 4.90789 35.9385 5.4002 36.3077 6.01558C36.6769 6.63096 37.2923 7.24635 38.0308 7.61558C39.5077 8.35404 41.2308 8.35404 42.7077 7.61558C43.3231 7.24635 43.5692 7.24635 43.9385 7.36943C44.1846 7.4925 44.4308 7.73866 44.5539 8.35404C44.5539 8.60019 44.6769 8.96943 44.6769 9.21558C44.6769 9.58481 44.6769 9.83096 44.8 10.3233C45.0462 11.3079 45.9077 12.0463 46.7692 12.2925C47.3846 12.5387 48 12.5387 48.6154 12.4156H49.1077C49.3539 12.4156 49.6 12.4156 49.7231 12.5387C49.8462 12.5387 49.8462 12.6617 49.9692 12.7848C49.9692 12.9079 50.0923 13.154 49.9692 13.5233C49.9692 13.7694 49.8462 14.0156 49.8462 14.3848C49.7231 15.0002 49.4769 15.6156 49.3539 16.6002C49.3539 17.0925 49.3539 17.5848 49.7231 18.0771C50.0923 18.5694 50.3385 18.6925 50.5846 18.9387C51.2 19.431 51.6923 19.6771 51.9385 20.1694C52.1846 20.5387 52.3077 20.9079 52.3077 21.2771C52.1846 21.6463 51.9385 22.1387 51.5692 22.754C51.4462 23.1233 51.2 23.3694 51.0769 23.8617C50.9539 24.354 50.9539 24.8463 51.0769 25.2156C51.3231 26.2002 51.9385 26.6925 52.4308 27.1848C52.9231 27.6771 53.4154 28.0463 53.7846 28.4156C54.1539 28.7848 54.2769 29.031 54.1539 29.5233C54.1539 29.8925 53.9077 30.1387 53.5385 30.3848C53.0462 30.631 52.5539 30.8771 51.9385 31.3694C51.3231 31.7387 50.7077 32.6002 50.5846 33.4617C50.4615 34.3233 50.7077 35.0617 50.9539 35.554C51.3231 36.5387 51.4462 37.7694 50.9539 38.2617C50.5846 38.8771 49.4769 39.1233 48.4923 39.0002C48 39.0002 47.3846 38.754 46.5231 39.0002C46.1539 39.1233 45.7846 39.3694 45.5385 39.6156C45.0462 40.1079 44.5538 41.0925 44.4308 42.2002C44.3077 42.9387 44.5539 43.554 44.5539 43.9233V44.4156C44.5539 44.5387 44.5538 44.5387 44.4308 44.6617C44.1846 44.6617 43.8154 44.6617 43.3231 44.6617C42.4615 44.5387 41.4769 44.0463 40.2462 44.1694C39.6308 44.1694 39.0154 44.4156 38.5231 44.9079C38.0308 45.4002 37.7846 45.8925 37.5385 46.2617C37.0462 47.1233 36.6769 47.2463 35.9385 47.1233C35.2 46.8771 34.4615 46.3848 33.7231 46.0156C33.3538 45.7694 32.8615 45.6463 32.2462 45.5233C31.6308 45.4002 31.0154 45.7694 30.6462 46.1387C30.2769 46.5079 30.1538 46.8771 29.9077 47.0002C29.6615 47.1233 29.4154 47.2463 29.1692 47.2463C28.5539 47.2463 27.9385 46.8771 27.5692 46.3848C27.0769 45.8925 26.5846 45.4002 26.0923 44.9079C25.6 44.4156 24.8615 44.0463 24.1231 44.0463C22.6462 44.0463 21.6615 44.7848 20.8 44.7848C19.9385 44.9079 19.3231 44.2925 18.9538 43.6771C18.7077 42.9387 18.4615 42.3233 18.2154 41.831C17.7231 40.7233 17.1077 40.6002 17.1077 40.6002C17.1077 40.7233 17.6 40.9694 17.8462 41.954C17.9692 42.4463 18.0923 43.0617 18.3385 43.8002C18.4615 44.1694 18.7077 44.6617 19.0769 44.9079C19.4462 45.2771 20.0615 45.4002 20.6769 45.4002C21.7846 45.4002 22.8923 44.7848 23.8769 44.7848C24.9846 44.7848 25.7231 45.8925 26.7077 47.0002C27.0769 47.3694 27.4462 47.6156 27.9385 47.8617C26.4615 50.2002 23.0154 57.2156 21.7846 59.6771C21.6615 59.9233 21.4154 60.0463 21.4154 60.1694H21.2923C21.1692 60.1694 21.0462 59.9233 20.9231 59.554C20.8 59.3079 20.6769 58.9387 20.4308 58.4463C19.4462 56.7233 17.6 55.9848 16 55.6156C15.1385 55.4925 14.1538 55.4925 13.4154 55.4925C12.6769 55.4925 11.9385 55.6156 11.3231 55.4925C11.0769 55.4925 10.7077 55.3694 10.7077 55.3694C10.7077 55.3694 10.5846 55.2463 10.5846 55.0002C10.5846 54.5079 10.7077 53.8925 10.9538 53.2771C11.9385 50.6925 13.0462 48.6002 14.0308 46.631C16 42.9387 17.1077 40.4771 16.8615 40.354C16.6154 40.231 15.1385 42.3233 12.9231 46.0156C11.8154 47.8617 10.4615 49.954 9.47693 52.6617C9.23077 53.4002 8.98462 54.0156 8.86154 55.0002C8.86154 55.4925 8.98462 56.1079 9.47693 56.6002C10.0923 57.0925 10.5846 57.0925 10.9538 57.2156C11.8154 57.3387 12.6769 57.2156 13.4154 57.2156C14.2769 57.0925 14.7692 57.2156 15.5077 57.3387C16.9846 57.5848 18.2154 58.2002 18.8308 59.1848C18.9538 59.431 19.0769 59.8002 19.3231 60.1694C19.5692 60.5387 19.6923 61.031 20.1846 61.4002C20.3077 61.5233 20.4308 61.5233 20.5539 61.6463L20.6769 61.7694C21.0462 62.1387 21.7846 62.754 22.8923 62.754C23.1385 62.754 23.5077 62.754 23.8769 62.631C24.2462 62.5079 24.4923 62.2617 24.7385 61.8925C25.2308 61.2771 25.3538 60.7848 25.6 60.2925C27.0769 57.4617 28.5539 54.2617 29.5385 51.6771C29.7846 52.9079 30.6462 55.6156 32 58.5694C32.3692 59.554 32.7385 60.6617 33.6 61.5233C34.3385 62.5079 35.5692 62.8771 36.4308 62.754C37.5385 62.5079 38.1538 62.2617 38.5231 62.0156ZM32.2462 46.5079C32.4923 46.5079 32.8615 46.631 33.2308 46.8771C33.9692 47.2463 34.5846 47.8617 35.6923 48.231C36.1846 48.354 36.9231 48.4771 37.5385 48.1079C38.1539 47.8617 38.5231 47.2463 38.7692 46.8771C39.2615 46.0156 39.6308 45.5233 40.3692 45.5233C41.1077 45.5233 42.0923 45.8925 43.2 46.1387C43.8154 46.2617 44.5539 46.1387 45.1692 45.7694C45.5385 45.5233 45.7846 45.154 45.9077 44.7848C45.9077 44.5387 46.0308 44.4156 46.0308 44.1694C46.4 45.2771 47.0154 46.754 47.7539 48.4771C48.1231 49.4617 48.6154 50.4463 49.1077 51.554C49.6 52.6617 50.3385 54.0156 50.2154 54.754C50.2154 54.8771 50.0923 55.0002 50.0923 55.0002C49.9692 55.0002 49.7231 55.1233 49.4769 55.1233C48.8615 55.1233 48.1231 55.1233 47.3846 55.1233C45.9077 55.1233 44.1846 55.0002 42.4615 55.6156C41.6 55.9848 40.7385 56.4771 40.2462 57.2156C40.1231 57.4617 40 57.5848 39.8769 57.831C39.5077 58.5694 39.2615 59.6771 38.8923 60.1694C38.7692 60.4156 38.7692 60.2925 38.7692 60.2925C38.6462 60.1694 38.6462 60.1694 38.5231 60.0463C38.0308 59.431 37.6615 58.3233 37.2923 57.4617C36.3077 55.2463 36.8 56.354 34.9538 52.6617C33.2308 49.3387 32.1231 47.1233 31.7538 46.8771C31.7538 46.754 31.8769 46.754 31.8769 46.631C31.7538 46.5079 32 46.3848 32.2462 46.5079ZM34.2154 57.831C34.2154 57.7079 34.2154 57.7079 34.0923 57.5848C33.6 56.4771 33.1077 55.4925 32.7385 54.631C32.9846 54.631 33.3538 54.631 33.6 54.5079C33.7231 54.3848 33.8462 54.3848 33.9692 54.2617C34.3385 55.2463 34.8308 56.354 35.3231 57.4617C35.0769 57.4617 34.9538 57.4617 34.7077 57.5848C34.4615 57.5848 34.3385 57.7079 34.2154 57.831ZM29.2923 47.9848C29.6615 47.9848 30.1538 47.9848 30.5231 47.7387C30.2769 48.1079 30.0308 48.6002 29.6615 49.0925C29.5385 48.9694 29.4154 48.8463 29.1692 48.7233C28.9231 48.6002 28.6769 48.6002 28.4308 48.6002C28.5539 48.231 28.6769 47.9848 28.6769 47.7387C28.8 47.9848 29.0462 47.9848 29.2923 47.9848ZM27.9385 52.1694C27.8154 52.1694 27.8154 52.0463 27.6923 52.0463C27.4462 51.9233 27.2 51.8002 27.0769 51.8002C27.3231 51.1848 27.5692 50.5694 27.8154 49.954C28.0615 50.3233 28.4308 50.4463 28.8 50.5694C28.5538 51.0617 28.3077 51.6771 27.9385 52.1694ZM26.4615 53.2771C26.5846 53.4002 26.7077 53.5233 26.8308 53.5233C26.9538 53.6463 27.0769 53.6463 27.2 53.6463C26.3385 55.2463 25.9692 56.231 25.9692 56.354C25.7231 56.231 25.4769 56.1079 25.2308 56.1079C25.6 55.2463 26.2154 53.7694 26.4615 53.2771ZM24.6154 59.431C24.3692 60.0463 24.2462 60.5387 24 60.9079C23.8769 61.154 23.6308 61.2771 23.2615 61.4002C23.0154 61.4002 22.6462 61.4002 22.4 61.4002C22.8923 61.031 23.1385 60.6617 23.3846 60.2925C23.8769 59.3079 24.2462 58.3233 24.7385 57.4617C24.8615 57.5848 24.9846 57.831 25.1077 57.954L25.2308 58.0771C24.9846 58.4463 24.8615 58.9387 24.6154 59.431ZM30.2769 50.6925C30.8923 49.0925 31.2615 47.8617 31.3846 47.2463C31.6308 48.1079 32.2462 49.954 33.3538 52.5387C33.2308 52.5387 32.9846 52.6617 32.8615 52.6617C32.6154 52.7848 32.3692 53.031 32.1231 53.154C31.2615 52.0463 30.6462 51.0617 30.2769 50.6925ZM35.3231 60.2925C35.0769 60.0463 34.9538 59.6771 34.8308 59.3079C34.9538 59.3079 35.2 59.3079 35.3231 59.1848C35.5692 59.0617 35.6923 58.9387 35.8154 58.8156C35.9385 59.1848 36.1846 59.554 36.3077 60.0463C36.4308 60.4156 36.6769 60.6617 36.9231 61.031L37.1692 61.2771C37.0462 61.2771 37.0462 61.2771 36.9231 61.2771C36.3077 61.154 35.6923 60.9079 35.3231 60.2925Z" fill="#5D9D9F"/>
</svg>
