<svg width="64" height="65" viewBox="0 0 64 65" fill="none" xmlns="http://www.w3.org/2000/svg">
<path d="M27.039 36.5615C27.45 36.6766 27.639 36.5185 27.8177 36.3214C27.9964 36.1244 28.1577 35.9432 27.8791 35.4853C26.7485 33.4623 21.6517 33.0053 19.4546 35.6173C19.1781 35.9783 19.0755 36.2457 19.1648 36.3397C19.2582 36.439 19.5305 36.3643 19.8988 36.2234C22.958 35.2285 23.9841 35.5231 27.039 36.5615Z" fill="#5D9D9F"/>
<path d="M44.4034 33.1671C42.1492 31.3032 39.8793 31.3527 38.3718 32.4741C37.7688 32.916 37.393 33.5334 37.3016 34.0104C37.2053 34.4914 37.3256 34.778 37.4466 34.7909C37.586 34.8105 37.7315 34.5849 37.9782 34.3375C38.2229 34.0869 38.5888 33.8229 39.0551 33.6561C41.2625 32.865 43.1577 34.7301 44.3007 35.0476C44.7502 35.1754 44.9146 34.9993 45.0788 34.7887C45.2425 34.5789 45.3808 34.3789 45.1356 33.9674C45.0114 33.7621 44.7931 33.5006 44.4034 33.1671Z" fill="#5D9D9F"/>
<path d="M41.8104 41.2966C41.5918 41.1315 41.3847 41.0437 40.642 41.6614C40.2656 41.9639 39.7508 42.4432 38.9346 43.0638C35.5854 45.551 31.8532 46.5559 28.0508 44.9216C26.8581 44.4145 25.9131 43.676 25.2867 43.0704C24.6616 42.4614 24.321 42.0031 24.1903 42.07C24.0835 42.1204 24.1979 42.7106 24.6985 43.5381C25.1974 44.3566 26.1283 45.3782 27.423 46.134C31.1701 48.3439 36.1037 47.9709 40.0773 44.4272C40.9376 43.6411 41.4029 43.0023 41.6779 42.5507C42.2139 41.6348 42.0169 41.4518 41.8104 41.2966Z" fill="#5D9D9F"/>
<path d="M4.92 39.1221C7.11883 40.5725 9.62642 39.9672 10.955 38.1645C11.1019 37.9938 11.2062 37.8279 11.2916 37.6857C11.4717 37.4059 11.5523 37.1926 11.5902 37.0409C11.6756 36.7328 11.5807 36.6427 11.4717 36.5668C11.3627 36.491 11.2394 36.4437 10.9834 36.5953C10.8554 36.6712 10.699 36.8086 10.4714 36.9888C9.16062 38.026 7.84575 38.9928 5.90134 37.643C4.66609 36.7754 3.38284 34.9637 2.85304 32.7221C2.48788 31.0633 2.48629 28.5836 3.2086 26.7393C4.4671 23.3738 8.89735 21.0973 11.1162 25.355C11.2868 25.6821 11.429 26.0234 11.5523 26.3647C12.2058 28.1986 12.5372 30.9843 12.1828 33.5708C12.0596 34.5094 11.8699 35.249 11.704 35.7514C11.6708 35.8511 11.6376 35.9411 11.6092 36.0217C11.4907 36.3535 11.4243 36.5337 11.4717 36.5668C11.4954 36.5858 11.5807 36.5337 11.6993 36.4057C11.9647 37.4392 12.2776 38.4346 12.6284 39.3876C13.5766 41.9761 14.7855 44.2705 16.1271 46.2712C18.7772 50.315 22.2284 53.0883 25.6702 54.3778C27.4053 54.9989 29.093 55.2881 30.6338 55.326C32.1793 55.3782 33.573 55.1552 34.8104 54.8851C37.2898 54.2973 39.1387 53.3823 40.5277 52.5242C43.2821 50.7512 44.3535 49.3811 44.8844 48.6984C45.3822 47.9873 45.3348 47.8593 45.24 47.7692C45.2827 47.7692 45.4438 47.6175 45.7188 47.3235C45.8658 47.1672 46.0459 46.9728 46.2593 46.7453C46.4536 46.4988 46.6764 46.2143 46.9277 45.8967C47.9043 44.6025 49.2127 42.6018 50.2462 39.8569C50.7553 38.5545 51.1978 37.0739 51.5157 35.46C51.7021 36.1072 51.9475 36.736 52.3104 37.3315C52.7378 38.0367 53.3858 38.7247 54.2519 39.024C54.2558 39.0254 54.2598 39.0261 54.2637 39.0275C54.0313 39.4446 53.7422 40.0154 53.4128 40.7257C52.6722 42.2896 51.7869 44.5081 50.6061 46.8002C49.4338 49.0867 47.8578 51.424 45.8102 52.937C43.797 54.4882 40.9545 55.6458 40.6114 58.6688C40.4916 59.7748 40.7237 60.9463 41.5275 61.8223C42.3372 62.7032 43.5991 62.9275 44.5161 62.6591C47.2373 61.9255 47.8276 59.3259 47.5942 56.5398C47.521 55.8003 47.4177 55.1782 47.275 54.679C47.2201 54.4879 47.1605 54.3224 47.0995 54.1688C49.2688 52.3453 50.7095 49.9684 51.8383 47.3881C52.9054 44.924 53.59 42.6373 54.1136 40.9969C54.3523 40.2265 54.5443 39.5997 54.6711 39.138C55.3922 39.286 56.1096 39.1708 56.6898 38.9558C60.1151 37.7146 62.5094 32.8589 62.0405 32.7173C61.8746 32.6479 59.5032 36.896 56.3148 37.7864C55.7643 37.9458 55.2008 37.9536 54.7407 37.7493C53.803 37.3657 53.2207 36.0272 52.9707 34.7255C52.3601 31.718 53.4238 27.5781 54.0873 24.7675C54.1543 24.4792 54.216 24.2529 54.2864 24.0911C54.36 23.9286 54.4167 23.8529 54.491 23.7945C54.6185 23.6794 54.8999 23.5881 55.2382 23.5723C58.0751 23.3939 61.8115 25.8908 61.8545 30.622C61.8429 31.5419 61.7616 32.035 61.7889 32.316C61.8075 32.5971 61.9168 32.6677 62.0405 32.7173C62.1642 32.7668 62.2877 32.7995 62.4962 32.5703C62.6937 32.3393 63.0075 31.8392 63.2136 30.7508C63.3047 30.208 63.3663 29.515 63.2618 28.6624C62.7178 24.2468 58.6192 21.4787 55.1339 21.647C54.9098 21.6606 54.6645 21.6893 54.411 21.7496C54.4254 21.2622 54.4013 20.4593 54.1378 19.1447C51.4372 6.18033 40.1035 -0.455157 27.9024 2.73475C25.6258 3.32665 23.3829 4.30779 21.3679 5.60651C19.3466 6.90073 17.5851 8.58244 16.2183 10.3565C13.4564 13.922 11.8889 17.6816 10.9742 20.4195C10.7558 21.0783 10.5765 21.6795 10.43 22.2162C10.2493 22.0885 10.0613 21.9687 9.85984 21.8659C7.2357 20.4876 3.05662 22.0467 1.44978 26.0376C0.536664 28.2542 0.519693 31.085 0.980447 33.1535C1.54822 35.4701 2.94058 37.8573 4.92 39.1221ZM44.0579 60.8239C43.6363 60.9308 43.224 60.8191 42.9329 60.5131C42.6369 60.2069 42.4468 59.5675 42.5301 58.8838C42.7152 57.1811 44.4815 56.1311 45.9449 55.0713C45.9771 55.4793 45.9933 55.9817 45.9955 56.6248C45.9891 58.3825 45.7821 60.4192 44.0579 60.8239ZM38.2759 19.247C38.2372 19.0155 38.1209 18.9639 37.9943 18.9223C37.8677 18.8806 37.7413 18.8569 37.566 19.0003C37.393 19.144 37.1772 19.4557 36.8035 20.0466C34.352 23.726 31.1964 26.3687 24.7153 28.2261C22.7214 28.8055 20.5379 29.2633 18.5295 29.6911C16.5166 30.1348 14.7401 30.4905 13.427 30.5625C13.4046 30.564 13.3852 30.5645 13.3631 30.5659C13.3673 30.4592 13.3752 30.3562 13.3775 30.2475C13.3964 29.0054 13.3016 27.6353 12.9224 26.2179C13.7464 20.5181 17.3477 14.851 23.8118 12.0477C25.8077 11.1897 27.9742 10.6018 30.1929 10.4312C37.2833 9.85562 43.8316 13.2508 47.3212 18.4572C48.5159 20.2113 49.3929 22.1265 49.9807 24.0561C50.3785 25.3861 50.6335 26.7212 50.7885 28.0324C50.646 27.9997 50.4484 27.9907 50.1623 28.0148C46.5472 28.2248 43.5425 27.9388 39.5257 24.3192C38.6213 23.5083 37.8603 22.705 37.3113 22.1571C37.661 21.5601 37.8839 21.0477 38.0314 20.6433C38.2859 19.8966 38.316 19.4793 38.2759 19.247ZM49.5398 39.6057C48.6438 42.3079 47.4681 44.3275 46.6101 45.6738C46.392 46.0105 46.1929 46.3091 46.027 46.5651C45.8468 46.8164 45.6904 47.0297 45.5671 47.2004C45.3253 47.5512 45.2115 47.7455 45.2352 47.7645C45.1357 47.6791 44.9935 47.6412 44.3392 48.177C43.6661 48.6794 42.5046 49.8314 39.8403 51.3438C38.4987 52.0738 36.7493 52.8466 34.4738 53.3206C32.2172 53.7805 29.3585 53.8753 26.3102 52.7138C23.2809 51.5334 20.1615 49.016 17.701 45.2234C16.4495 43.3366 15.3212 41.1654 14.4347 38.7286C13.8231 37.0409 13.3253 35.2158 13.0267 33.2863C13.1585 32.6912 13.2585 32.0219 13.3188 31.302C13.3505 31.3057 13.3786 31.3106 13.411 31.3139C14.7994 31.4767 16.7249 31.3077 18.757 31.0372C20.8006 30.7802 23.0537 30.4559 25.1683 29.9464C29.7752 28.8534 34.2188 26.7052 36.8829 22.8342C37.25 23.5136 37.8091 24.3761 38.5401 25.2639C42.3743 29.9277 47.7515 30.7534 50.5487 29.3243C50.6916 29.2466 50.7984 29.1761 50.8906 29.1087C50.9079 29.3397 50.9321 29.5731 50.9431 29.8018C51.1138 33.5375 50.4643 36.9224 49.5398 39.6057ZM17.2761 11.2196C18.6501 9.5814 20.307 8.11057 22.2152 6.96496C24.1216 5.81589 26.2227 4.96045 28.3385 4.45941C38.4885 2.04175 48.4435 6.09963 52.8132 19.4753C53.2585 20.868 53.4385 21.6469 53.6265 22.0591C53.5028 22.1302 53.3797 22.2098 53.2593 22.3077C52.9168 22.5811 52.6611 22.9773 52.513 23.3342C52.3614 23.6947 52.2834 24.0382 52.2163 24.3334C51.6878 26.7389 51.8415 26.0309 51.7455 26.5085C51.6079 25.5846 51.4179 24.6508 51.1612 23.7147C50.5876 21.662 49.701 19.6045 48.4542 17.6988C44.7888 11.971 37.7241 8.21121 30.0649 8.73869C27.6519 8.89517 25.2909 9.49726 23.1102 10.4122C18.3862 12.4104 14.6382 15.8185 12.4436 20.8418C12.235 21.3301 12.0169 21.8042 11.8841 22.3067C11.7798 22.6433 11.6708 22.9799 11.5712 23.3165C11.3763 23.0628 11.151 22.8225 10.9049 22.599C12.492 18.4815 14.4438 14.5841 17.2761 11.2196Z" fill="#5D9D9F"/>
</svg>
