<svg width="64" height="65" viewBox="0 0 64 65" fill="none" xmlns="http://www.w3.org/2000/svg">
<path d="M38.847 19.8979C38.7762 17.1853 36.5655 15.0441 33.8727 15.1068C29.5176 15.2269 27.5577 20.656 30.6972 23.6299C33.8245 26.5942 38.9609 24.2466 38.847 19.8979ZM34.9284 22.5833C33.9886 23.2184 32.7126 23.2725 31.7085 22.7587C29.4846 20.8118 30.416 17.1314 33.2613 16.5066C33.1177 16.5462 32.9729 16.5813 32.835 16.6417L33.7383 16.6811C34.9803 16.9122 36.0353 17.9636 36.2893 19.2231C36.5432 20.4827 35.9804 21.8724 34.9284 22.5833Z" fill="#5D9D9F"/>
<path d="M45.4421 13.5133C45.6741 13.5133 45.8984 13.3909 46.0183 13.1734L47.9618 9.65113C48.1373 9.3335 48.0226 8.93367 47.7041 8.75816C47.3856 8.58179 46.9858 8.69822 46.8111 9.01586L44.8676 12.5381C44.6232 12.9804 44.9496 13.5133 45.4421 13.5133Z" fill="#5D9D9F"/>
<path d="M48.0397 15.7841L52.2126 13.8294C52.5414 13.6753 52.6827 13.2832 52.5294 12.9544C52.3744 12.6248 51.984 12.4844 51.6544 12.6377L47.4815 14.5923C47.1527 14.7464 47.0114 15.1385 47.1647 15.4673C47.3177 15.7931 47.7066 15.938 48.0397 15.7841Z" fill="#5D9D9F"/>
<path d="M48.5131 18.9568C52.0901 20.2113 51.9215 20.1999 52.1304 20.1999C52.8651 20.1999 53.0447 19.1696 52.3504 18.9225L48.9532 17.717C48.6107 17.5972 48.2348 17.7752 48.1133 18.1169C47.9917 18.4593 48.1715 18.8352 48.5131 18.9568Z" fill="#5D9D9F"/>
<path d="M59.3648 55.5724C59.5739 54.9331 59.7104 54.5247 59.8835 53.9999C60.2449 53.8182 60.3316 53.4102 60.1724 53.1101C57.3058 47.6731 54.0977 42.0894 51.1484 36.6015C50.4703 35.343 49.1655 34.5613 47.7434 34.5613H40.3648C43.0055 29.7776 45.693 24.0329 45.603 20.5904C45.3881 12.3805 38.2553 7.02523 31.1438 8.92366C25.4511 9.37594 21.2052 13.7919 20.5185 19.1413C19.783 24.8707 23.0779 29.8666 25.9629 34.5613H20.5243C19.3393 34.5613 18.1972 35.1281 17.4669 36.0776C13.1621 41.6871 8.60387 47.1846 3.92066 52.4166C3.65009 52.7182 3.68671 53.23 4.15407 53.437C4.36602 53.9226 4.61409 54.3461 4.79046 54.8931C24.0478 59.3662 42.9931 50.1995 59.3648 55.5724ZM57.7478 51.3712C50.2086 47.3644 42.8194 44.292 35.7546 42.2287C35.9261 41.9659 36.1492 41.6211 36.4198 41.1959C41.2474 39.665 45.2764 38.4121 49.8076 36.9733C49.9965 37.2403 56.4326 48.9331 57.7478 51.3712ZM48.5082 36.0051C44.0559 37.4143 41.8476 38.0998 37.4946 39.477C38.1327 38.4384 38.8664 37.2128 39.6281 35.8764C48.0533 35.9259 47.7627 35.7678 48.5082 36.0051ZM23.7943 22.951C22.7734 15.6316 27.9036 9.86951 33.9403 9.86951C39.6278 9.86951 44.1271 14.4659 44.2879 20.6246C44.4201 25.6694 37.1973 37.7828 34.3539 42.0467C31.4557 38.1102 24.4672 27.7776 23.7943 22.951ZM26.7751 35.8764C27.728 37.3986 28.7142 38.9228 29.7725 40.4894C26.3026 38.8086 23.4414 37.4343 20.2837 35.9042C20.7973 35.8551 23.6181 35.8863 26.7751 35.8764ZM18.755 36.6245C31.3249 42.7244 30.3782 42.2466 30.5281 42.2856L6.7978 51.1366C14.7955 42.0147 17.9917 37.3805 18.755 36.6245ZM6.63983 52.5996C33.3083 42.6221 31.6453 43.3401 31.857 43.1216C32.5444 43.6194 33.7593 43.7122 34.5505 43.3224C34.6034 43.3128 34.6552 43.3032 34.7061 43.287C41.7488 45.285 49.135 48.3204 56.6805 52.2963C39.8288 50.1222 22.8228 55.2884 6.63983 52.5996Z" fill="#5D9D9F"/>
</svg>
