<svg width="64" height="65" viewBox="0 0 64 65" fill="none" xmlns="http://www.w3.org/2000/svg">
<path d="M9.92493 34.0609L9.92384 34.062C7.09755 37.8294 9.11707 42.721 12.9997 44.0142C16.7096 45.2497 22.1012 42.4135 22.1112 37.9928C22.69 34.5228 20.0457 31.0783 16.1256 30.8366C13.6592 30.7047 11.2778 31.9638 9.92493 34.0609ZM19.0742 40.5664C17.2168 42.166 15.1032 42.0644 15.1973 42.0461C13.792 42.0425 12.4078 41.4524 11.4942 40.4689C8.34776 37.0822 11.8024 31.9617 16.0392 32.2465C20.3454 32.5094 22.5279 37.5918 19.0742 40.5664Z" fill="#5D9D9F"/>
<path d="M2.34815 58.3C2.79978 58.6778 3.43713 58.7127 4.02571 58.73C11.5975 58.9524 19.1878 59.1743 26.7376 58.5562C27.6912 58.4782 28.7377 58.2741 28.8479 57.3271C28.9358 57.186 28.9857 57.0243 28.9611 56.8575C28.3352 52.6525 25.5963 48.8336 21.8122 46.8924C15.5434 43.675 7.40608 45.7827 3.79679 52.6842C2.74973 54.2375 0.937398 57.1197 2.34815 58.3ZM27.4106 56.2389C19.7539 56.1117 11.4471 56.4123 3.95195 56.2821C4.71298 52.8363 7.04938 49.7701 10.1937 48.1534C17.0449 44.632 25.6513 48.4207 27.4106 56.2389Z" fill="#5D9D9F"/>
<path d="M49.327 30.2224C46.8507 30.0896 44.4726 31.3524 43.1214 33.4543C40.3127 37.2058 42.3063 42.1032 46.2013 43.4004C49.9106 44.6359 55.3013 41.8007 55.3129 37.381C55.4675 36.4563 53.2484 30.4641 49.327 30.2224ZM52.2755 39.9531C50.4174 41.5519 48.3045 41.4502 48.3987 41.432C46.9942 41.4283 45.6101 40.8392 44.6955 39.8548C41.5611 36.4788 44.9937 31.3465 49.2406 31.6324C53.5491 31.8954 55.7283 36.9811 52.2755 39.9531Z" fill="#5D9D9F"/>
<path d="M62.1624 56.2439C61.5365 52.038 58.7976 48.22 55.0145 46.2797C48.7581 43.0702 40.6178 45.1545 37.0001 52.0683C35.9595 53.6117 34.1361 56.5041 35.5497 57.6868C36.0014 58.0646 36.6387 58.0996 37.2272 58.1168C44.799 58.3392 52.3894 58.5611 59.9392 57.9431C60.6105 57.8882 61.3469 57.7956 61.8026 57.2995C61.9476 57.1416 62.0246 56.9297 62.0496 56.7128C62.1372 56.5719 62.187 56.4104 62.1624 56.2439ZM60.6119 55.6253C56.7902 55.5628 52.7737 55.6051 48.8784 55.6483C44.9832 55.6896 40.9621 55.7337 37.1532 55.6694C37.9152 52.2236 40.2516 49.1565 43.395 47.5398C50.238 44.0254 58.8469 47.7911 60.6119 55.6253Z" fill="#5D9D9F"/>
<path d="M16.6056 24.8889C17.3482 25.4448 19.2775 25.4802 20.1935 25.6584C22.5059 26.1083 24.8346 26.4714 27.1721 26.7649L30.9786 34.1462C31.1101 34.4012 31.4059 34.587 31.7625 34.5058C32.4259 34.6201 32.8868 33.957 33.1953 33.3582C34.5859 30.6582 35.9764 27.9581 37.367 25.2579L45.8398 23.8723C46.1045 23.8291 46.3224 23.6389 46.4014 23.3815C46.4795 23.1251 46.4051 22.8457 46.2093 22.6619L39.2038 16.0709L40.6606 6.56352C40.749 5.98331 40.131 5.55704 39.6239 5.83834L31.1919 10.4643L22.599 6.14165C22.346 6.0137 22.0098 6.03398 21.7657 6.30019C21.6233 6.3365 21.5044 6.38705 21.5381 6.45093C20.8736 7.28376 21.0087 8.47839 21.1955 9.52722C21.6358 12.0001 22.1738 14.4553 22.8078 16.8857C20.6643 18.5849 18.6072 20.4533 16.9053 22.5952C16.3816 23.2542 15.8057 24.29 16.6056 24.8889ZM30.8886 11.8926C31.0963 11.9973 31.3426 11.9918 31.5448 11.8806L39.0485 7.76389L37.7525 16.2244C37.7176 16.4541 37.7976 16.6858 37.9667 16.8448L44.2001 22.7097L35.7534 24.0911C35.5246 24.1288 35.3279 24.2768 35.2286 24.4863L31.5779 32.228L27.6551 24.6214C27.5485 24.4146 27.3472 24.274 27.1165 24.2446L18.6257 23.1646L24.6477 17.0819C24.8113 16.9174 24.883 16.6821 24.8398 16.4541L23.2424 8.04514L30.8886 11.8926Z" fill="#5D9D9F"/>
<path d="M48.8214 14.5064C48.4538 14.3768 48.0503 14.5679 47.9198 14.9356C47.6698 15.6415 47.3242 16.306 46.8922 16.9126C46.6661 17.2297 46.7405 17.6709 47.0586 17.897C47.1826 17.9852 47.3251 18.0275 47.4666 18.0275C47.6872 18.0275 47.9051 17.9246 48.0429 17.7306C48.5503 17.0183 48.9565 16.2371 49.2506 15.408C49.3812 15.0404 49.1891 14.6369 48.8214 14.5064Z" fill="#5D9D9F"/>
<path d="M50.3223 17.7767L48.4308 18.4642C48.0641 18.5975 47.8747 19.0019 48.008 19.3686C48.1119 19.6554 48.383 19.8337 48.6716 19.8337C48.7516 19.8337 48.8334 19.8199 48.9124 19.7914L50.804 19.1039C51.1707 18.9706 51.36 18.5662 51.2268 18.1995C51.0944 17.8337 50.6872 17.6453 50.3223 17.7767Z" fill="#5D9D9F"/>
<path d="M49.1633 20.9846C48.8288 20.7879 48.395 20.9037 48.1992 21.241C48.0034 21.5774 48.1183 22.0094 48.4556 22.2052C49.1358 22.6004 49.8628 22.9184 50.6156 23.15C50.6845 23.1712 50.7543 23.1813 50.8233 23.1813C51.1247 23.1813 51.4042 22.9864 51.4979 22.6831C51.6128 22.3109 51.4032 21.9156 51.031 21.8007C50.3803 21.6004 49.7516 21.3256 49.1633 20.9846Z" fill="#5D9D9F"/>
</svg>
