<svg width="270" height="120" viewBox="0 0 270 120" fill="none" xmlns="http://www.w3.org/2000/svg">
<g clip-path="url(#clip0_198_883)">
<path d="M0 24C0 10.7452 10.7452 0 24 0H246C259.255 0 270 10.7452 270 24V96C270 109.255 259.255 120 246 120H24C10.7452 120 0 109.255 0 96V24Z" fill="#F8FBFC"/>
<g filter="url(#filter0_f_198_883)">
<circle cx="-2" cy="148" r="80" fill="#B4D1D3" fill-opacity="0.8"/>
</g>
</g>
<defs>
<filter id="filter0_f_198_883" x="-152" y="-2" width="300" height="300" filterUnits="userSpaceOnUse" color-interpolation-filters="sRGB">
<feFlood flood-opacity="0" result="BackgroundImageFix"/>
<feBlend mode="normal" in="SourceGraphic" in2="BackgroundImageFix" result="shape"/>
<feGaussianBlur stdDeviation="35" result="effect1_foregroundBlur_198_883"/>
</filter>
<clipPath id="clip0_198_883">
<path d="M0 24C0 10.7452 10.7452 0 24 0H246C259.255 0 270 10.7452 270 24V96C270 109.255 259.255 120 246 120H24C10.7452 120 0 109.255 0 96V24Z" fill="white"/>
</clipPath>
</defs>
</svg>
