<svg width="162" height="68" viewBox="0 0 162 68" fill="none" xmlns="http://www.w3.org/2000/svg">
<path d="M21.8817 36.7058C33.1811 23.6876 45.6904 11.0118 59.396 0.495128C59.4164 0.479705 59.4416 0.471627 59.4672 0.472196C59.4929 0.472764 59.5175 0.481949 59.5374 0.498266C59.5571 0.514584 59.5709 0.537081 59.5763 0.562136C59.5817 0.587189 59.5786 0.613337 59.5673 0.636358C58.9111 1.95095 58.2033 3.26009 57.4438 4.5638C47.6262 21.4333 35.6253 36.6053 23.1622 51.2856C23.1061 51.3509 23.0436 51.3573 22.9746 51.3047C14.3342 44.672 6.46328 36.5564 1.14255 26.9796C0.905105 26.5523 0.749226 26.1267 0.674912 25.7029C0.670204 25.6742 0.672934 25.6447 0.682834 25.6174C0.692735 25.5899 0.709466 25.5656 0.73139 25.5468C0.753314 25.5278 0.779681 25.515 0.807908 25.5096C0.836135 25.5041 0.865255 25.5062 0.892418 25.5156C8.4589 28.0551 15.2586 31.9961 21.5827 36.7357C21.627 36.7695 21.6825 36.7852 21.738 36.7797C21.7935 36.7741 21.8449 36.7477 21.8817 36.7058Z" fill="#5D9D9F"/>
<path d="M118.889 23.5357C120.621 23.5357 122.024 22.1336 122.024 20.4041C122.024 18.6745 120.621 17.2725 118.889 17.2725C117.158 17.2725 115.754 18.6745 115.754 20.4041C115.754 22.1336 117.158 23.5357 118.889 23.5357Z" fill="#90BBBD"/>
<path d="M161.436 19.0923H157.156C157.117 19.0923 157.086 19.1239 157.086 19.1628V49.7132C157.086 49.7522 157.117 49.7839 157.156 49.7839H161.436C161.475 49.7839 161.506 49.7522 161.506 49.7132V19.1628C161.506 19.1239 161.475 19.0923 161.436 19.0923Z" fill="#90BBBD"/>
<path d="M118.889 30.9855C120.619 30.9855 122.021 29.5845 122.021 27.8565C122.021 26.1285 120.619 24.7275 118.889 24.7275C117.159 24.7275 115.757 26.1285 115.757 27.8565C115.757 29.5845 117.159 30.9855 118.889 30.9855Z" fill="#90BBBD"/>
<path d="M49.9533 32.2598C47.6532 30.9125 45.2661 30.6626 42.6179 30.4915C42.5455 30.4861 42.5083 30.4472 42.5064 30.3748L42.4439 28.0471C42.4431 28.0015 42.4604 27.9573 42.492 27.9243C42.5235 27.8913 42.5668 27.872 42.6125 27.8705C51.6037 27.5907 59.3604 32.1022 59.5616 41.9942C59.5943 43.6546 59.6205 45.3177 59.6405 46.9835C59.6405 47.0813 59.6903 47.1301 59.7899 47.1301C63.8355 47.1393 67.8749 47.1419 71.9078 47.1383C74.3601 47.1383 76.2062 46.9618 77.204 44.6858C77.8946 43.1049 77.5793 40.0575 77.6445 38.2406C77.8892 31.4096 82.9489 27.0313 89.8928 27.9493C94.493 28.5577 97.7528 31.9663 98.5005 36.4316C99.202 40.6198 96.7849 47.1221 103.68 47.1301C106.203 47.1338 108.726 47.1365 111.249 47.1383C112.607 47.1402 113.602 47.0107 114.234 46.75C115.857 46.08 116.662 44.7365 116.651 42.7193C116.637 40.2911 116.636 37.8621 116.649 35.4321C116.649 35.3416 116.694 35.2963 116.785 35.2963L120.923 35.3289C121.028 35.3289 121.079 35.3813 121.078 35.4865C121.03 39.5153 121.048 42.0846 121.129 43.1946C121.256 44.9564 122.035 46.1379 123.465 46.7391C124.105 47.0088 125.195 47.1419 126.735 47.1383C128.932 47.1348 131.117 47.1348 133.291 47.1383C133.307 47.1379 133.323 47.1327 133.339 47.1232C133.352 47.1138 133.364 47.1007 133.37 47.0854C133.376 47.0701 133.379 47.0534 133.375 47.0372C133.372 47.021 133.365 47.0062 133.354 46.9944C130.134 43.5586 129.427 38.3003 131.189 34.0713C133.074 29.5491 137.273 27.4088 142.054 27.8896C147.989 28.4843 151.284 32.9958 151.378 38.7076C151.378 38.7459 151.365 38.7824 151.337 38.8095C151.311 38.8365 151.275 38.8517 151.238 38.8517H147.102C147.021 38.8517 146.977 38.8118 146.972 38.7321C146.781 36.5049 146.613 34.7395 145.296 32.8492C143.214 29.8615 138.796 29.7745 136.577 32.5531C133.786 36.054 133.835 44.7781 138.78 46.75C139.414 47.0034 140.362 47.1312 141.623 47.1329C144.834 47.1383 148.037 47.1383 151.233 47.1329C151.27 47.1329 151.307 47.1481 151.334 47.1751C151.361 47.202 151.376 47.2387 151.376 47.2769V49.6426C151.376 49.7331 151.331 49.7784 151.24 49.7784C142.585 49.7874 133.93 49.7938 125.275 49.7974C122.955 49.7992 120.856 49.1419 118.976 47.8255C118.94 47.801 118.898 47.7879 118.854 47.7884C118.811 47.7889 118.769 47.8028 118.734 47.8283C116.943 49.1066 115.114 49.753 113.247 49.7676C111.518 49.782 107.962 49.7802 102.579 49.7621C99.9416 49.753 97.6958 48.8839 95.8416 47.1546C95.7709 47.0895 95.6957 47.0859 95.6159 47.1438C94.0852 48.2818 92.9786 49.1319 91.0373 49.5122C87.1675 50.2745 83.7446 49.4389 80.7684 47.0053C80.6923 46.9437 80.6189 46.9474 80.5481 47.0161C78.0387 49.4878 75.6679 49.7702 71.8969 49.7756C61.415 49.7883 50.9329 49.7893 40.451 49.7784C40.3586 49.7784 40.3124 49.7331 40.3124 49.6426V47.2714C40.3124 47.181 40.3577 47.1357 40.4483 47.1357H55.0511C55.1218 47.1357 55.159 47.1003 55.1625 47.0297C55.4045 41.5351 55.2957 35.3914 49.9533 32.2598ZM85.5182 31.1923C80.1458 34.2995 80.8798 46.5734 88.0984 47.1357C95.344 47.7034 95.7954 35.0654 91.4642 31.6595C89.8655 30.4019 87.3397 30.1412 85.5182 31.1923Z" fill="#90BBBD"/>
<path d="M56.5985 54.5316C57.0765 54.5316 57.464 54.1446 57.464 53.667C57.464 53.1894 57.0765 52.8022 56.5985 52.8022C56.1205 52.8022 55.7329 53.1894 55.7329 53.667C55.7329 54.1446 56.1205 54.5316 56.5985 54.5316Z" fill="#90BBBD"/>
<path d="M56.6089 56.6566C57.0869 56.6566 57.4744 56.2695 57.4744 55.7919C57.4744 55.3144 57.0869 54.9272 56.6089 54.9272C56.1308 54.9272 55.7433 55.3144 55.7433 55.7919C55.7433 56.2695 56.1308 56.6566 56.6089 56.6566Z" fill="#90BBBD"/>
<path d="M33.2448 61.7999C33.2286 61.7937 33.2112 61.7915 33.194 61.7935C33.1768 61.7954 33.1603 61.8014 33.1459 61.8109C33.1315 61.8206 33.1196 61.8335 33.1112 61.8486C33.1029 61.8637 33.0981 61.8805 33.0976 61.8979C33.0099 64.8596 30.5323 66.33 27.7428 65.7523C22.9313 64.7616 23.8004 58.1869 28.5454 58.4285C28.6133 58.4314 28.6779 58.4589 28.727 58.5058C28.7761 58.5527 28.8065 58.616 28.8125 58.6836C28.8185 58.7512 28.7997 58.8188 28.7596 58.8737C28.7194 58.9285 28.6608 58.9669 28.5944 58.9817C26.959 59.3644 26.0374 60.2163 25.8294 61.5373C25.1531 65.8538 31.6187 66.3755 31.7309 62.2934C31.8103 59.3761 31.8465 56.4563 31.8395 53.5343C31.8395 53.3803 31.9166 53.3032 32.0708 53.3032H32.8138C32.9749 53.3032 33.0555 53.3838 33.0555 53.5447C33.0579 55.5963 33.0672 57.6431 33.0835 59.6853C33.0976 61.2187 35.0601 62.0275 35.8626 60.8301C36.3917 60.0354 36.122 57.0036 36.1289 55.9498C36.1313 55.8122 36.2013 55.7492 36.3392 55.7609L37.1242 55.8168C37.2783 55.8285 37.3543 55.9114 37.3519 56.0654C37.3485 57.2417 37.6394 60.1474 37.0681 61.0892C36.3567 62.2549 34.3837 62.2199 33.2448 61.7999Z" fill="#90BBBD"/>
<path d="M39.9629 64.4711C43.0783 64.2574 43.7512 60.5255 43.201 58.0993C42.889 56.7271 41.1438 55.7363 40.3343 57.3782C39.3952 59.2897 39.7866 60.6679 41.5084 61.5127C41.5677 61.5409 41.6153 61.5889 41.6428 61.6485C41.6703 61.7081 41.676 61.7754 41.6588 61.8388C41.6418 61.9021 41.603 61.9575 41.5492 61.9951C41.4955 62.0329 41.4302 62.0504 41.3647 62.0449C37.1208 61.7543 38.081 54.8506 42.2723 55.9079C45.4684 56.7131 43.7652 60.5431 45.3597 61.1872C47.8408 62.1884 47.0979 59.1006 47.3363 58.1204C48.1667 54.6791 53.2972 55.1937 53.3043 58.9117C53.3078 60.2035 53.3287 61.8138 55.1405 61.2747C56.2199 60.9527 56.0412 58.9921 56.0132 58.1345C56.0085 58.006 56.0704 57.9419 56.1989 57.9419H56.9559C57.021 57.9419 57.0836 57.9674 57.1306 58.013C57.1777 58.0587 57.2054 58.1211 57.2082 58.1869L57.3063 60.704C57.3085 60.7427 57.3187 60.7804 57.3363 60.8148C57.3538 60.8491 57.3781 60.8794 57.4079 60.9036C58.4487 61.7123 59.8645 61.4253 59.8645 59.9479C59.8645 57.7936 59.8656 55.6383 59.868 53.4817C59.868 53.3627 59.9275 53.3032 60.0467 53.3032H60.9159C61.0327 53.3032 61.0911 53.3627 61.0911 53.4817C61.0957 55.4679 61.097 57.4529 61.0946 59.4367C61.0911 60.6235 61.3363 61.6423 62.7977 61.3027C63.4706 61.1464 63.8128 60.6772 63.8245 59.8954C63.8549 57.7645 63.8385 55.6372 63.7755 53.5132C63.7708 53.3732 63.8385 53.3032 63.9787 53.3032H64.8549C64.9716 53.3032 65.0312 53.3616 65.0336 53.4782C65.0406 55.6372 65.0441 57.7971 65.0441 59.9583C65.0441 62.2725 62.2055 62.43 60.6671 61.6283C60.5526 61.5699 60.438 61.5688 60.3236 61.6247C59.1227 62.2176 57.9196 62.2153 56.714 61.6178C56.6761 61.5983 56.6338 61.5884 56.5903 61.589C56.547 61.5896 56.5041 61.6007 56.4653 61.6214C55.1312 62.3051 53.8474 62.2491 52.6138 61.4532C52.5204 61.3925 52.4281 61.3925 52.337 61.4532C50.9867 62.3121 49.6456 62.2923 48.3139 61.3938C48.2182 61.3284 48.1235 61.3296 48.0301 61.3973C46.9577 62.1558 45.7896 62.2947 44.5256 61.8138C44.4159 61.7718 44.3411 61.8068 44.3013 61.9188C43.6216 63.863 42.2466 64.9763 40.1767 65.2587C40.1224 65.2666 40.0668 65.2552 40.0196 65.2265C39.9724 65.1978 39.9362 65.1535 39.9174 65.1012L39.7912 64.7336C39.7351 64.5702 39.7923 64.4827 39.9629 64.4711ZM50.3829 61.3577C50.6152 61.3508 50.8434 61.2818 51.0543 61.1547C51.2654 61.0275 51.4552 60.8445 51.6128 60.6165C51.7704 60.3884 51.8928 60.1195 51.9731 59.8252C52.0533 59.5309 52.0898 59.2169 52.0805 58.9011C52.071 58.5855 52.016 58.2742 51.9185 57.9852C51.8209 57.6961 51.6827 57.4349 51.5118 57.2167C51.3409 56.9982 51.1406 56.827 50.9225 56.7124C50.7042 56.598 50.4724 56.5427 50.2401 56.5496C50.0077 56.5565 49.7796 56.6255 49.5686 56.7526C49.3575 56.8798 49.1677 57.0627 49.0101 57.2908C48.8525 57.5189 48.7301 57.7877 48.6498 58.082C48.5696 58.3764 48.5332 58.6904 48.5425 59.006C48.5519 59.3218 48.6069 59.633 48.7045 59.9221C48.802 60.2111 48.9402 60.4723 49.1111 60.6906C49.282 60.909 49.4823 61.0803 49.7004 61.1948C49.9187 61.3092 50.1505 61.3646 50.3829 61.3577Z" fill="#90BBBD"/>
<path d="M34.8674 65.0694C35.3474 65.0694 35.7366 64.6806 35.7366 64.2012C35.7366 63.7217 35.3474 63.333 34.8674 63.333C34.3875 63.333 33.9984 63.7217 33.9984 64.2012C33.9984 64.6806 34.3875 65.0694 34.8674 65.0694Z" fill="#90BBBD"/>
<path d="M34.8777 67.2366C35.3596 67.2366 35.7503 66.8463 35.7503 66.3648C35.7503 65.8835 35.3596 65.4932 34.8777 65.4932C34.3958 65.4932 34.0051 65.8835 34.0051 66.3648C34.0051 66.8463 34.3958 67.2366 34.8777 67.2366Z" fill="#90BBBD"/>
</svg>
