<svg width="64" height="64" viewBox="0 0 64 64" fill="none" xmlns="http://www.w3.org/2000/svg">
<rect width="64" height="64" rx="16" fill="url(#paint0_radial_252_11592)"/>
<path d="M45.3334 25H41.6148C40.8134 25 40.4126 25 40.0347 24.8856C39.6568 24.7712 39.3234 24.5489 38.6564 24.1043C37.6562 23.4374 36.515 22.6766 35.948 22.505C35.3812 22.3334 34.78 22.3334 33.5778 22.3334C31.9428 22.3334 30.889 22.3334 30.1539 22.6379C29.4188 22.9423 28.8408 23.5204 27.6846 24.6765L26.6672 25.694C26.4067 25.9545 26.2764 26.0848 26.196 26.2134C25.8978 26.6902 25.9309 27.3028 26.2785 27.7447C26.3723 27.8639 26.5159 27.9795 26.8029 28.2105C27.864 29.0644 29.3936 28.9791 30.3544 28.0126L32 26.3572H33.3334L41.3334 34.4048C42.0698 35.1456 42.0698 36.3465 41.3334 37.0873C40.597 37.8281 39.4031 37.8281 38.6667 37.0873L38 36.4167M38 36.4167L34 32.3929M38 36.4167C38.7364 37.1575 38.7364 38.3585 38 39.0992C37.2636 39.84 36.0698 39.84 35.3334 39.0992L34 37.758M34 37.758C34.7364 38.4987 34.7364 39.6997 34 40.4405C33.2636 41.1812 32.0698 41.1812 31.3334 40.4405L29.3334 38.4285M34 37.758L31.3334 35.0913M29.3334 38.4285L28.6667 37.758M29.3334 38.4285C30.0698 39.1693 30.0698 40.3704 29.3334 41.1112C28.597 41.8519 27.4031 41.8519 26.6667 41.1112L22.9018 37.2679C22.1282 36.4781 21.7414 36.0833 21.2458 35.8749C20.7502 35.6667 20.1975 35.6667 19.0919 35.6667H18.6667" stroke="white" stroke-width="2" stroke-linecap="round" stroke-linejoin="round"/>
<path d="M45.3333 35.6666H42" stroke="white" stroke-width="2" stroke-linecap="round"/>
<path d="M27.3334 25H18.6667" stroke="white" stroke-width="2" stroke-linecap="round"/>
<defs>
<radialGradient id="paint0_radial_252_11592" cx="0" cy="0" r="1" gradientUnits="userSpaceOnUse" gradientTransform="translate(103 -37.5) rotate(124.973) scale(123.868)">
<stop stop-color="white"/>
<stop offset="1" stop-color="#5D9D9F"/>
</radialGradient>
</defs>
</svg>
