<svg width="297" height="299" viewBox="0 0 297 299" fill="none" xmlns="http://www.w3.org/2000/svg">
<path fill-rule="evenodd" clip-rule="evenodd" d="M147.978 0.608398C151.948 0.608398 158.201 0.906647 161.874 1.2546C165.546 1.65227 170.707 2.34818 173.288 2.74585C175.868 3.19322 180.682 4.18738 183.957 4.98271C187.232 5.77804 192.344 7.26928 195.371 8.26344C198.398 9.25761 202.716 10.8483 205.048 11.8424C207.38 12.7869 212.393 15.1729 216.214 17.1115C220.035 19.0998 226.387 22.8279 230.357 25.5121C234.327 28.1467 239.439 31.8251 241.771 33.6643C244.104 35.5532 249.265 40.3252 253.235 44.3018C257.205 48.2785 262.217 53.7463 264.4 56.4803C266.584 59.2142 269.909 63.7874 271.844 66.6704C273.73 69.5535 276.658 74.2261 278.246 77.1091C279.884 79.9922 282.365 85.0127 283.854 88.2935C285.342 91.5742 287.625 97.6386 289.015 101.715C290.355 105.84 292.141 111.955 292.985 115.384C293.779 118.814 294.871 124.481 295.367 128.06C295.913 131.589 296.508 137.753 296.756 141.73C297.054 146.005 297.054 152.168 296.806 156.891C296.558 161.265 295.913 167.777 295.367 171.306C294.871 174.835 293.779 180.552 292.985 183.982C292.141 187.411 290.355 193.675 288.916 197.9C287.526 202.224 284.697 209.084 282.514 213.558C280.38 217.932 277.353 223.649 275.765 226.233C274.226 228.818 271.447 233.093 269.661 235.678C267.825 238.263 264.698 242.438 262.664 244.874C260.629 247.31 256.262 252.032 252.987 255.313C249.662 258.593 244.6 263.167 241.771 265.453C238.893 267.789 233.632 271.567 230.109 273.903C226.536 276.24 220.085 280.018 215.718 282.205C211.35 284.442 206.239 286.877 204.304 287.623C202.368 288.369 198.646 289.76 195.967 290.655C193.336 291.6 189.069 292.892 186.587 293.538C184.056 294.234 179.64 295.228 176.761 295.775C173.883 296.322 169.764 296.968 167.581 297.266C165.397 297.565 160.236 298.012 156.167 298.31C150.807 298.708 146.589 298.708 141.031 298.31C136.813 298.012 130.411 297.366 126.887 296.819C123.314 296.322 117.657 295.228 114.233 294.433C110.809 293.588 104.556 291.798 100.338 290.407C95.2758 288.716 89.42 286.231 83.2167 283.149C78.0557 280.614 70.7607 276.488 67.0884 274.102C63.4161 271.667 58.0565 267.789 55.2278 265.453C52.3991 263.167 47.4366 258.693 44.2605 255.561C41.0845 252.43 36.8166 247.807 34.782 245.371C32.7473 242.935 29.472 238.66 27.5366 235.926C25.6012 233.193 22.6733 228.719 21.0356 225.985C19.4476 223.251 17.2145 219.225 16.1227 217.037C14.9813 214.85 13.0955 210.724 11.8549 207.841C10.6639 204.958 8.8277 200.186 7.83519 197.154C6.79305 194.122 5.20502 188.555 4.31176 184.727C3.36887 180.9 2.17785 174.736 1.58234 171.057C1.03646 167.379 0.391321 161.116 0.143192 157.139C-0.055311 153.113 -0.055311 146.551 0.192818 142.227C0.391321 138.002 1.03646 131.49 1.63197 127.811C2.17785 124.133 3.26962 118.417 4.06363 115.136C4.80802 111.855 6.59454 105.84 7.93444 101.715C9.32396 97.6386 11.5075 91.9222 12.8474 89.0391C14.1377 86.156 16.5693 81.384 18.1573 78.3518C19.795 75.3197 22.3259 70.995 23.8147 68.6588C25.3035 66.3225 28.5788 61.7493 31.06 58.4686C33.5413 55.1879 39.0498 49.0241 43.268 44.7492C47.4862 40.4743 53.0939 35.3046 55.6744 33.2666C58.255 31.2286 61.9769 28.4449 63.8627 27.1525C65.7485 25.8104 69.3711 23.5238 71.8028 22.0326C74.2345 20.5413 78.8993 18.0062 82.0753 16.4156C85.301 14.7752 89.7673 12.7372 92.0005 11.7927C94.2833 10.8483 98.4519 9.30731 101.33 8.36286C104.208 7.41841 108.327 6.1757 110.511 5.62892C112.694 5.03242 116.069 4.23709 117.955 3.83942C119.841 3.44176 123.116 2.84526 125.151 2.49731C127.185 2.19906 131.552 1.65227 134.828 1.30431C138.103 0.956355 144.008 0.658107 147.978 0.608398V0.608398ZM129.121 5.82775C125.994 6.22541 120.535 7.21957 116.962 8.0149C113.389 8.81023 108.724 10.0032 106.541 10.6494C104.357 11.3453 100.338 12.6875 97.6082 13.7313C94.8788 14.7752 89.7673 16.9624 86.1943 18.6524C82.6212 20.3425 77.4105 23.1759 74.5322 24.9157C71.6539 26.6057 66.9891 29.7373 64.1108 31.8251C61.2325 33.9128 56.667 37.4918 53.9375 39.8778C51.2081 42.2141 46.5433 46.6878 43.5657 49.8194C40.6378 52.951 36.2708 58.0709 33.8391 61.2026C31.4571 64.3342 28.2314 68.8576 26.693 71.2933C25.1546 73.6793 22.4748 78.3518 20.7379 81.732C18.9514 85.0624 16.5197 90.1327 15.2791 93.0157C14.088 95.8988 12.2519 100.671 11.2594 103.703C10.2669 106.735 9.02621 110.861 8.52995 112.899C8.03369 114.937 7.14043 118.963 6.54492 121.846C5.99903 124.729 5.1554 129.999 4.75839 133.528C4.31176 137.355 3.96438 143.967 3.96438 149.683C3.96438 155.399 4.31176 162.011 4.75839 165.838C5.1554 169.367 6.09829 175.233 6.84267 178.762C7.53743 182.291 8.67883 187.113 9.32396 189.449C10.0187 191.786 11.706 196.806 13.0955 200.634C14.5347 204.461 17.3633 210.973 19.4476 215.049C21.4823 219.175 25.105 225.438 27.4374 228.967C29.7698 232.497 33.591 237.766 35.8737 240.649C38.1565 243.532 42.7221 248.552 45.9974 251.833C49.2727 255.114 54.6323 259.935 57.9076 262.57C61.1829 265.205 65.2026 268.237 66.8402 269.33C68.4779 270.424 71.9517 272.611 74.5322 274.202C77.1128 275.792 81.0332 277.98 83.2167 279.073C85.4003 280.167 89.6185 282.105 92.6456 283.398C95.6728 284.69 100.884 286.629 104.308 287.772C107.732 288.866 113.091 290.357 116.218 291.053C119.344 291.749 124.158 292.643 126.887 293.091C129.617 293.488 134.877 294.085 138.549 294.383C142.371 294.731 148.524 294.831 152.941 294.681C157.159 294.483 163.213 294.035 166.34 293.638C169.466 293.19 173.833 292.544 176.017 292.097C178.2 291.649 182.121 290.804 184.701 290.108C187.282 289.462 191.748 288.17 194.627 287.176C197.505 286.231 202.269 284.442 205.296 283.149C208.323 281.906 213.336 279.471 216.462 277.781C219.539 276.091 224.7 273.009 227.876 270.921C231.002 268.883 235.915 265.304 238.794 263.017C241.672 260.731 247.031 255.859 250.753 252.131C254.475 248.403 259.239 243.134 261.423 240.4C263.557 237.666 267.13 232.745 269.313 229.464C271.497 226.184 274.871 220.368 276.857 216.54C278.792 212.713 281.224 207.543 282.266 205.107C283.258 202.672 284.946 198.049 286.037 194.917C287.079 191.786 288.717 185.721 289.66 181.496C290.603 177.271 291.744 170.66 292.241 166.832C292.786 162.16 293.084 156.394 293.084 149.186C293.084 142.177 292.786 136.361 292.241 132.285C291.794 128.855 290.95 123.735 290.404 120.852C289.809 117.969 288.717 113.297 287.923 110.414C287.129 107.53 285.69 103.057 284.747 100.472C283.854 97.8871 282.117 93.5128 280.876 90.7789C279.685 88.0449 277.402 83.3724 275.765 80.3402C274.177 77.308 271.1 72.2875 269.016 69.1559C266.882 66.0242 263.209 61.0037 260.827 57.9715C258.396 54.989 253.83 49.9188 250.704 46.7872C247.577 43.6556 242.515 39.0825 239.538 36.6965C236.511 34.2608 231.647 30.6818 228.62 28.6438C225.593 26.6554 221.375 24.0706 219.191 22.8279C217.008 21.6349 213.187 19.6963 210.755 18.5033C208.323 17.3103 204.601 15.6699 202.567 14.8746C200.532 14.0296 196.81 12.7372 194.378 11.9418C191.947 11.0968 187.778 9.90381 185.198 9.2079C182.617 8.51198 178.25 7.51782 175.521 7.02074C172.791 6.47395 167.531 5.72833 163.859 5.28096C159.789 4.83359 153.586 4.58505 147.978 4.63475C142.917 4.68446 137.904 4.78388 136.813 4.88329C135.721 4.98271 132.247 5.38037 129.121 5.82775Z" fill="#5D9D9F"/>
<path fill-rule="evenodd" clip-rule="evenodd" d="M139.046 264.012C139.046 264.26 139.79 264.658 140.683 264.807L142.271 265.055C142.073 274.053 141.874 277.433 141.775 278.278C141.577 279.471 141.329 279.868 140.783 279.67C140.386 279.52 139.492 279.421 138.798 279.421C137.656 279.421 137.557 279.222 137.408 277.085C137.358 275.246 137.11 274.699 136.416 274.599C135.671 274.45 135.572 274.898 135.572 277.681V280.912C146.936 281.36 150.261 281.409 150.311 281.31C150.36 281.211 150.559 279.769 150.807 278.029C151.154 275.246 151.105 274.947 150.36 274.947C149.864 274.947 149.368 275.345 149.269 275.792C149.12 276.289 148.921 277.433 148.772 278.278C148.475 279.819 148.375 279.918 146.39 279.918H144.256C144.852 271.617 145.001 268.286 145.001 267.093C145.001 265.105 145.05 265.006 146.49 265.006C147.482 265.006 147.978 264.757 147.978 264.26C147.978 263.664 147.135 263.514 143.512 263.514C140.882 263.514 139.046 263.713 139.046 264.012ZM182.419 258.842C182.171 258.941 180.98 259.24 179.788 259.538C178.597 259.836 177.655 260.283 177.655 260.532C177.704 260.83 178.2 261.029 178.746 261.029C179.54 261.029 179.739 261.377 179.739 262.769C179.739 264.359 179.59 264.558 177.853 265.006C176.861 265.254 175.273 265.602 174.379 265.751C172.99 265.95 172.692 265.801 172.047 264.509C171.402 263.216 171.402 262.968 172.047 262.719C172.444 262.57 172.692 262.123 172.642 261.775C172.593 261.228 172.096 261.228 169.814 261.775C168.325 262.123 165.447 262.62 163.462 262.868C161.129 263.117 159.889 263.465 159.889 263.862C159.889 264.21 160.434 264.509 161.129 264.509C162.221 264.509 162.37 264.707 162.37 266.398C162.37 267.392 162.519 268.684 162.668 269.231C162.866 270.026 162.668 270.275 161.526 270.523C160.782 270.722 159.938 270.772 159.64 270.672C159.343 270.573 158.152 268.933 156.911 266.944C154.727 263.415 154.678 263.365 152.941 263.713C151.998 263.862 151.105 264.161 150.956 264.31C150.807 264.459 151.254 265.006 151.948 265.453C152.643 265.95 154.033 267.491 155.025 268.933C156.911 271.468 156.911 271.468 155.968 272.561C155.422 273.208 154.827 274.251 154.678 274.947C154.479 275.643 154.579 276.985 154.876 277.93C155.174 279.073 155.869 279.918 156.762 280.316C157.755 280.813 159.492 280.912 162.965 280.713C166.836 280.465 167.829 280.266 167.829 279.67C167.829 279.272 167.481 278.924 167.084 278.924C166.638 278.924 166.241 278.327 166.092 277.333C165.993 276.439 165.645 273.108 165.347 269.976C165.05 266.845 164.851 264.21 164.95 264.161C165.05 264.111 165.794 263.912 166.588 263.713C167.928 263.415 168.226 263.614 169.317 265.304C169.963 266.398 172.096 269.728 174.032 272.76C177.307 277.93 177.605 278.278 178.846 277.979C180.037 277.731 180.235 277.383 180.434 275.444C180.582 274.202 180.93 270.722 181.228 267.74C181.575 264.558 182.121 261.576 182.617 260.681C183.064 259.786 183.312 258.941 183.163 258.892C183.014 258.792 182.667 258.742 182.419 258.842ZM178.449 266.298C178.697 266.199 179.044 266.248 179.193 266.348C179.342 266.497 179.441 267.839 179.342 269.38C179.243 270.921 179.044 272.909 178.846 273.705C178.449 275.196 178.449 275.146 173.784 267.491L175.868 266.944C177.059 266.696 178.2 266.398 178.449 266.298ZM159.144 272.611C159.69 272.263 160.683 271.965 161.377 271.965C162.419 271.965 162.668 272.263 162.965 273.804C163.164 274.848 163.362 276.538 163.362 279.421H161.129C159.343 279.421 158.747 279.173 158.152 278.327C157.755 277.681 157.407 276.488 157.407 275.693C157.407 274.898 157.606 273.953 157.804 273.705C158.003 273.406 158.598 272.909 159.144 272.611ZM113.786 259.24C113.737 259.687 114.084 260.134 114.481 260.283C115.076 260.482 115.176 261.327 114.977 265.403C114.828 268.038 114.58 271.418 114.481 272.81C114.233 275.295 114.183 275.444 112.992 275.196C112.297 275.047 111.652 275.196 111.503 275.444C111.355 275.693 111.752 276.14 112.347 276.389C112.992 276.637 114.431 276.936 115.573 277.134L117.707 277.433L124.059 265.751C124.505 269.579 124.754 272.561 124.902 274.848C125.101 278.477 125.25 278.974 126.242 279.371C126.887 279.62 128.327 279.918 129.468 280.117C131.155 280.365 131.602 280.266 131.602 279.67C131.602 279.272 131.155 278.924 130.609 278.924C130.063 278.924 129.617 278.675 129.617 278.427C129.617 278.178 130.411 275.544 131.403 272.561C132.346 269.629 133.438 266.596 133.736 265.851C134.083 265.055 134.728 264.459 135.175 264.509C135.671 264.509 136.068 264.26 136.068 264.012C136.068 263.763 135.77 263.415 135.423 263.316C135.125 263.216 133.785 262.968 132.445 262.819C131.006 262.62 130.113 262.719 130.113 263.017C130.113 263.266 130.262 263.514 130.46 263.514C130.709 263.514 131.155 263.713 131.503 263.912C131.999 264.161 131.751 265.602 130.312 270.474C129.319 273.903 128.376 276.836 128.178 277.035C128.029 277.234 127.433 273.953 126.887 269.728C126.044 263.067 125.796 262.023 125.002 262.023C124.456 262.023 123.017 264.061 120.535 268.436C118.6 272.015 116.913 274.848 116.813 274.798C116.714 274.748 116.913 272.015 117.21 268.734C117.508 265.453 117.856 262.371 118.004 261.874C118.137 261.311 118.534 261.112 119.195 261.278C119.857 261.443 120.188 261.278 120.188 260.781C120.188 260.283 119.295 259.886 117.31 259.488C115.771 259.19 114.332 258.842 114.183 258.693C113.985 258.593 113.836 258.842 113.786 259.24ZM191.153 255.412C189.366 256.108 187.977 256.903 188.026 257.202C188.126 257.599 188.721 257.699 189.912 257.4C191.5 257.102 191.699 257.152 192.195 258.395C192.443 259.19 192.79 260.234 192.939 260.781C193.088 261.576 192.642 262.023 190.657 262.868C189.019 263.614 187.927 264.509 187.431 265.503C187.034 266.298 186.686 267.69 186.686 268.485C186.686 269.281 187.034 270.672 187.431 271.468C187.828 272.263 188.622 273.208 189.168 273.456C189.714 273.705 190.756 273.953 191.5 273.953C192.294 273.903 194.775 273.158 197.108 272.213C199.44 271.319 201.276 270.374 201.227 270.126C201.177 269.927 200.631 269.629 200.085 269.479C199.192 269.281 198.497 267.938 196.562 262.769C194.527 257.301 194.23 256.207 194.875 255.81C195.272 255.561 195.569 255.014 195.619 254.666C195.619 254.368 195.321 254.07 194.974 254.12C194.676 254.12 192.939 254.716 191.153 255.412ZM191.748 263.763C192.642 263.365 193.584 263.067 193.833 263.017C194.031 263.017 194.775 264.757 195.47 266.845C196.165 268.982 196.512 270.871 196.264 271.12C196.066 271.319 194.924 271.667 193.783 271.865C192.096 272.164 191.55 272.015 190.657 271.219C190.111 270.672 189.515 269.479 189.317 268.585C189.168 267.64 189.317 266.398 189.614 265.702C189.912 265.055 190.905 264.161 191.748 263.763ZM100.04 255.313C99.4113 256.472 99.2624 257.218 99.5932 257.549C99.9241 257.881 100.503 257.649 101.33 256.854L102.571 255.611C107.186 257.251 108.576 257.699 108.675 257.748C108.724 257.798 108.228 259.289 107.533 261.128L106.293 264.509C103.315 263.017 102.819 262.421 102.819 261.626C102.819 261.029 102.571 260.582 102.273 260.631C101.975 260.731 101.281 261.824 100.784 263.117C100.04 264.956 99.9902 265.552 100.437 265.851C100.784 266 101.38 265.801 101.678 265.354C102.223 264.658 102.62 264.608 104.06 265.006C105.002 265.254 105.747 265.652 105.648 265.851C105.598 266.099 105.102 267.441 104.556 268.883C104.01 270.275 103.365 271.468 103.067 271.468C102.769 271.468 101.578 271.07 100.338 270.523C98.4518 269.678 98.1045 269.33 98.2037 268.237C98.303 267.408 98.1045 266.994 97.6082 266.994C97.2112 266.994 96.7646 267.143 96.6653 267.342C96.5661 267.591 96.3676 268.286 96.2187 268.982C95.9209 270.175 96.1194 270.324 101.231 272.313C104.159 273.506 106.69 274.45 106.888 274.45C107.136 274.45 107.285 274.102 107.285 273.705C107.285 273.307 106.938 272.86 106.541 272.71C105.945 272.512 106.193 271.468 108.03 266.845C109.27 263.813 110.511 260.781 110.759 260.134C111.057 259.538 111.702 259.041 112.248 259.041C112.794 259.041 113.191 258.792 113.091 258.494C113.042 258.245 110.461 257.003 107.384 255.76C104.357 254.567 101.628 253.573 101.429 253.573C101.181 253.573 100.586 254.368 100.04 255.313ZM202.567 250.143C199.688 251.734 197.207 253.076 197.009 253.175C196.81 253.275 196.909 254.169 197.257 255.213C197.654 256.406 198.15 257.052 198.746 257.052C199.391 257.052 199.54 256.704 199.49 255.511C199.391 254.368 199.639 253.772 200.582 253.076C201.276 252.628 202.567 251.833 203.46 251.386L205.048 250.59C207.38 255.014 208.026 256.406 208.075 256.555C208.075 256.704 207.43 257.102 206.686 257.45C205.544 257.997 205.098 257.997 204.204 257.45C203.609 257.102 202.914 257.003 202.716 257.202C202.517 257.4 202.864 258.593 203.559 259.836C204.254 261.029 205.098 262.023 205.445 262.023C205.792 262.023 205.941 261.576 205.792 260.93C205.644 260.035 205.941 259.588 207.033 258.941C207.877 258.444 208.621 258.047 208.77 258.047C208.919 258.047 209.564 259.19 210.259 260.532C210.953 261.924 211.499 263.266 211.499 263.514C211.499 263.763 210.606 264.459 209.514 265.006C208.423 265.552 207.182 266 206.785 266C206.388 266 205.842 265.602 205.594 265.155C205.247 264.509 204.949 264.409 204.552 264.757C204.105 265.105 204.204 265.652 204.85 266.745C205.346 267.541 205.743 268.286 205.743 268.386C205.792 268.436 207.232 267.74 209.018 266.745C210.805 265.801 213.187 264.509 214.378 263.912C215.519 263.266 216.412 262.52 216.313 262.272C216.214 262.023 215.618 261.775 215.023 261.775C214.08 261.775 213.335 260.681 210.656 255.561C208.323 251.087 207.579 249.199 207.976 248.851C208.274 248.552 208.522 248.055 208.522 247.757C208.522 247.409 208.373 247.111 208.174 247.16C207.926 247.21 205.445 248.503 202.567 250.143ZM82.7701 252.33C79.594 257.947 78.8497 259.041 77.9068 258.941C77.3609 258.842 76.7654 259.09 76.6661 259.389C76.6165 259.737 77.5594 260.582 78.8993 261.278C80.1896 261.973 81.3309 262.421 81.4798 262.272C81.6287 262.123 81.4302 261.526 81.1324 261.029C80.5866 260.184 80.7851 259.438 82.8693 255.71C84.1596 253.374 85.4499 251.336 85.698 251.237C85.9958 251.137 86.3928 253.623 86.6409 257.4C86.889 260.93 87.2364 264.31 87.4349 265.006C87.5838 265.702 88.4771 266.646 89.3207 267.093C90.214 267.591 91.1569 267.889 91.405 267.74C91.7027 267.59 91.6035 267.143 91.2065 266.596C90.5613 265.851 90.8095 265.155 93.9359 259.786C96.6653 255.064 97.6082 253.821 98.4518 253.821C99.0473 253.821 99.5932 253.623 99.6925 253.324C99.7421 253.026 98.7 252.231 97.3601 251.435C95.6232 250.491 94.7795 250.242 94.5314 250.64C94.2833 250.988 94.4818 251.386 95.0277 251.634C95.4743 251.883 95.8713 252.231 95.8713 252.43C95.8713 252.678 94.6803 255.014 93.1419 257.649C91.6531 260.333 90.2636 262.52 90.0651 262.52C89.817 262.52 89.3703 258.892 89.0229 254.468C88.6259 249.497 88.1297 246.216 87.7823 246.017C87.4349 245.818 87.0379 245.62 86.8394 245.62C86.6409 245.62 84.8048 248.652 82.7701 252.33ZM218.447 239.804C216.462 241.245 214.328 243.084 213.782 243.88C213.038 244.973 212.74 246.117 212.74 248.155C212.74 250.392 213.038 251.386 214.229 253.374C215.072 254.716 216.512 256.307 217.454 256.953C218.497 257.649 219.936 258.047 221.077 258.047C222.07 258.047 223.658 257.699 224.551 257.251C225.395 256.804 227.528 255.313 229.265 254.02C230.953 252.678 232.243 251.386 232.094 251.087C231.945 250.789 231.399 250.69 230.853 250.839C230.059 251.038 229.067 249.994 225.643 245.222C221.772 239.903 221.474 239.356 222.268 238.76C222.864 238.362 223.013 238.014 222.665 237.666C222.318 237.368 220.879 238.064 218.447 239.804ZM217.256 242.289C218.05 241.693 218.844 241.146 219.092 241.146C219.291 241.146 220.63 242.786 222.07 244.725C223.509 246.713 225.444 249.447 228.124 253.125L226.635 254.318C225.841 254.965 224.402 255.611 223.558 255.76C222.516 255.959 221.276 255.76 220.085 255.163C219.092 254.716 217.603 253.424 216.859 252.33C216.065 251.237 215.221 249.497 214.973 248.453C214.626 247.111 214.675 246.166 215.122 244.973C215.519 244.128 216.462 242.886 217.256 242.289ZM74.83 237.07C74.6811 237.269 75.0781 237.964 75.7232 238.66L76.9143 239.903C71.1577 247.21 69.123 249.845 68.6764 250.441L67.8327 251.535L64.8552 249.149C66.7906 245.122 66.9891 244.228 66.6417 243.88C66.344 243.581 66.0462 243.482 65.947 243.631C65.8477 243.78 65.1033 244.774 64.2597 245.868C63.416 246.962 62.622 248.105 62.5228 248.403C62.4732 248.701 63.6145 249.944 65.1033 251.087C66.5921 252.28 69.1726 254.318 70.8103 255.611L73.7878 258.047C77.8571 253.424 78.1053 252.877 77.5098 252.529C76.9639 252.231 76.3187 252.579 75.2766 253.573C74.4826 254.368 73.4404 255.064 73.0434 255.064C72.6464 255.014 71.8028 254.567 71.2073 254.07L70.0659 253.076C76.7654 244.427 78.7504 241.792 78.8497 241.643C78.8993 241.494 79.594 241.792 80.3384 242.289C81.1324 242.786 81.8768 243.035 82.125 242.786C82.3235 242.587 81.0828 241.245 79.3955 239.853C77.6586 238.511 76.021 237.219 75.7232 237.02C75.3759 236.871 74.9788 236.871 74.83 237.07ZM139.046 48.8252C136.465 49.0737 131.651 49.8194 128.376 50.5153C125.101 51.1615 119.989 52.5533 116.962 53.5475C113.985 54.5416 108.824 56.6294 105.548 58.1703C102.273 59.761 97.7075 62.1967 95.375 63.6382C93.0426 65.1295 89.4696 67.5652 87.4349 69.1061C85.4003 70.6471 81.4302 74.1266 78.5519 76.8606C75.7232 79.5945 71.9021 83.7203 70.0659 86.0566C68.2297 88.3928 65.3514 92.4192 63.6145 95.004C61.9273 97.5888 59.3467 102.162 57.858 105.194C56.4188 108.177 54.2353 113.694 52.9946 117.373C51.754 121.051 50.3148 126.32 49.769 129.054C49.2231 131.788 48.5283 136.461 48.1809 139.493C47.8335 142.923 47.7343 148.092 47.9328 153.411C48.0817 158.233 48.6276 164.098 49.1734 167.081C49.7193 169.964 50.6126 174.04 51.1585 176.128C51.754 178.265 53.0443 182.291 54.136 185.075C55.1782 187.908 56.9151 191.984 58.0068 194.172C59.0986 196.359 60.6866 199.242 61.4806 200.634C62.2746 201.976 63.7634 204.362 64.7063 205.853C65.6988 207.344 67.535 209.929 68.7756 211.569C70.0659 213.21 72.8449 216.441 74.9292 218.727C77.0135 221.014 80.8843 224.692 83.4649 226.88C86.0454 229.017 90.214 232.149 92.6456 233.789C95.1269 235.429 100.238 238.312 104.06 240.201C107.881 242.09 113.687 244.526 116.962 245.62C120.238 246.663 125.845 248.155 129.369 248.95C135.473 250.242 136.515 250.292 148.475 250.292C160.335 250.292 161.526 250.193 167.581 248.95C171.154 248.155 177.059 246.564 180.731 245.321C184.404 244.079 190.111 241.742 193.386 240.102C196.661 238.462 201.475 235.678 204.055 233.988C206.636 232.298 210.805 229.216 213.236 227.128C215.718 225.09 219.39 221.611 221.425 219.473C223.509 217.286 226.536 213.757 228.174 211.569C229.861 209.382 232.293 205.903 233.632 203.865C234.923 201.827 237.305 197.552 238.843 194.42C240.431 191.289 242.515 186.367 243.508 183.484C244.5 180.601 245.84 176.028 246.535 173.294C247.18 170.56 248.074 165.788 248.471 162.706C248.868 159.674 249.215 153.858 249.215 149.782C249.215 145.756 248.967 140.437 248.719 138.002C248.421 135.566 247.627 130.943 246.883 127.811C246.188 124.68 244.898 119.957 244.054 117.373C243.161 114.788 241.473 110.414 240.233 107.68C239.042 104.946 236.66 100.372 234.923 97.4894C233.235 94.6064 230.506 90.58 228.968 88.542C227.429 86.5536 224.65 83.2232 222.814 81.2349C220.928 79.2466 217.901 76.2144 216.065 74.4746C214.229 72.7845 211.053 70.15 209.018 68.609C206.983 67.0681 203.758 64.8312 201.822 63.6879C199.937 62.4949 196.463 60.606 194.13 59.413C191.798 58.2697 188.572 56.7785 186.935 56.0826C185.297 55.3867 181.823 54.144 179.243 53.2989C176.662 52.4042 171.948 51.2112 168.821 50.5153C165.695 49.8691 160.286 49.1235 156.812 48.8252C153.288 48.527 148.971 48.3281 147.135 48.3281C145.249 48.3778 141.626 48.6264 139.046 48.8252ZM237.007 221.611C236.56 222.356 237.007 223.45 239.339 227.228C240.927 229.812 242.168 232 242.118 232.099C242.069 232.149 239.687 231.204 236.809 229.961C232.64 228.172 231.449 227.874 230.953 228.371C230.605 228.669 230.308 229.166 230.357 229.464C230.357 229.713 232.293 232.944 234.575 236.523C237.206 240.698 238.744 243.532 238.694 244.228C238.595 244.924 238.794 245.371 239.24 245.371C239.637 245.371 240.63 244.526 241.473 243.532C242.317 242.488 242.813 241.494 242.615 241.295C242.416 241.046 241.771 241.196 241.275 241.494C240.382 242.09 239.985 241.693 236.809 236.921C234.923 234.038 233.384 231.602 233.484 231.453C233.533 231.304 236.263 232.447 239.538 233.988C244.203 236.125 245.344 236.871 244.848 237.318C244.501 237.666 244.252 238.213 244.252 238.511C244.252 238.859 244.55 239.157 244.897 239.108C245.195 239.108 246.386 238.064 247.478 236.871C249.016 235.131 249.314 234.535 248.868 234.038C248.371 233.59 248.123 233.59 247.627 234.038C247.131 234.535 246.783 234.535 245.989 233.988C245.443 233.64 243.706 231.304 242.168 228.818C240.58 226.283 239.29 224.146 239.29 223.997C239.29 223.847 241.92 224.991 245.146 226.581C248.322 228.122 251.051 229.464 251.2 229.564C251.349 229.663 251.15 230.21 250.853 230.707C250.356 231.502 250.356 231.751 250.853 232C251.2 232.198 252.292 231.353 253.483 229.912C254.624 228.57 255.468 227.327 255.369 227.078C255.269 226.88 254.674 226.88 254.078 227.029C253.284 227.228 250.654 226.333 245.642 224.046C241.573 222.257 238.099 220.765 237.9 220.765C237.702 220.765 237.255 221.163 237.007 221.611ZM245.146 210.178L241.87 215.546C243.905 217.634 244.798 218.28 245.146 218.28C245.443 218.28 245.84 218.032 245.989 217.783C246.138 217.485 245.791 216.739 245.245 216.043L244.252 214.801C246.684 210.774 247.478 209.531 247.577 209.432C247.677 209.382 248.967 210.078 250.456 210.923C251.944 211.818 253.185 212.713 253.185 212.912C253.185 213.16 252.788 213.856 252.341 214.552C251.696 215.447 251.101 215.795 250.257 215.695C249.612 215.596 248.967 215.745 248.917 216.043C248.818 216.292 249.761 217.187 251.051 217.932C252.689 218.877 253.582 219.175 253.929 218.827C254.277 218.429 254.128 218.081 253.532 217.684C252.639 217.037 252.639 216.988 253.532 215.447C254.029 214.552 254.575 213.806 254.823 213.806C255.021 213.806 256.311 214.552 257.651 215.397C259.041 216.292 260.182 217.087 260.133 217.137C260.133 217.236 259.487 218.28 258.644 219.523C257.453 221.362 256.907 221.76 255.865 221.611C255.12 221.561 254.426 221.71 254.326 222.008C254.227 222.257 254.723 222.804 255.418 223.102C256.113 223.45 256.907 223.748 257.155 223.748C257.453 223.748 258.991 221.561 260.629 218.877C262.217 216.242 263.458 213.906 263.358 213.657C263.209 213.458 262.713 213.608 262.267 214.005C261.473 214.602 260.678 214.254 255.269 210.874C250.108 207.692 249.215 206.947 249.314 205.952C249.413 205.356 249.215 204.859 248.967 204.859C248.669 204.859 246.982 207.245 245.146 210.178ZM250.902 199.888C250.108 201.528 249.612 203.02 249.81 203.219C250.059 203.467 250.604 203.219 251.051 202.721C251.895 201.876 252.192 201.976 258.296 204.958C264.003 207.792 264.599 208.189 264.5 209.283C264.4 209.929 264.599 210.575 264.847 210.675C265.145 210.774 266.038 209.482 266.832 207.841C268.023 205.505 268.172 204.71 267.725 204.213C267.229 203.765 267.031 203.815 266.832 204.461C266.683 204.958 266.286 205.356 265.988 205.356C265.641 205.356 262.614 204.014 259.289 202.373C253.731 199.689 253.185 199.292 253.334 198.148C253.383 197.452 253.185 196.906 252.887 196.906C252.589 196.906 251.696 198.248 250.902 199.888ZM273.532 187.213C272.886 187.859 271.447 188.008 264.252 187.958C255.766 187.958 255.666 187.958 255.369 189.052C255.22 189.698 255.17 190.195 255.269 190.245C255.369 190.245 258.396 192.68 262.018 195.563C265.988 198.795 268.47 201.131 268.271 201.479C268.122 201.827 268.37 202.274 268.768 202.473C269.413 202.771 269.71 202.324 270.355 200.236C270.753 198.844 271.001 197.552 270.852 197.403C270.653 197.254 270.157 197.552 269.661 197.999C268.867 198.745 268.519 198.596 264.351 195.315C261.919 193.376 259.537 191.487 259.14 191.09C258.495 190.543 259.487 190.444 265.244 190.444H272.043C272.043 192.382 272.291 192.879 272.589 192.78C272.936 192.73 273.581 191.438 274.077 189.946C274.623 188.455 274.822 187.014 274.623 186.815C274.425 186.616 273.929 186.765 273.532 187.213ZM24.6583 185.622C23.5169 186.218 22.2763 187.511 21.78 188.455C21.1845 189.698 20.986 190.742 21.2341 192.183C21.4326 193.277 22.574 196.756 23.8147 199.888C25.0553 203.02 26.0975 205.654 26.0975 205.754C26.1471 205.803 26.5441 205.754 27.0403 205.605C27.5862 205.455 27.884 204.859 27.884 203.964C27.884 202.821 28.2314 202.473 29.9683 201.827C31.1593 201.379 35.2286 199.838 39.0498 198.447C42.871 197.055 46.047 195.961 46.047 196.011C46.0966 196.11 46.4937 196.955 46.8907 197.9L47.635 199.64C36.1715 213.707 32.8466 217.882 32.8466 218.032C32.8466 218.181 33.3924 219.175 34.0872 220.268C35.0797 221.859 35.576 222.207 36.4692 222.008C37.0648 221.859 42.1266 220.765 47.7343 219.523C56.5181 217.534 58.0565 217.336 59.049 217.882C59.7768 218.313 60.3227 218.363 60.6866 218.032C61.034 217.684 60.5377 216.491 59.1978 214.154C58.0565 212.315 56.8158 210.824 56.4188 210.824C56.0218 210.824 55.5752 211.023 55.4263 211.321C55.2774 211.569 55.4263 212.265 55.6744 212.812C56.1211 213.657 55.9722 213.856 54.5827 214.303C53.6894 214.602 52.6473 214.801 52.3495 214.801C52.0021 214.801 50.7615 213.21 49.6201 211.321L47.4862 207.792C49.4216 205.704 50.0171 205.008 50.0667 204.859C50.166 204.71 50.6622 205.058 51.2081 205.605C52.1014 206.499 52.2999 206.499 52.945 205.853C53.5405 205.207 53.342 204.66 51.5059 201.628C50.3645 199.689 48.3794 195.514 47.1884 192.283C45.9974 189.101 44.7071 186.467 44.4094 186.467C44.062 186.467 43.665 186.666 43.5161 186.964C43.3672 187.213 43.5161 188.256 43.7642 189.201L44.2605 190.941C40.0423 192.879 38.752 193.426 38.7024 193.426C38.6032 193.476 38.1069 192.382 37.561 191.09C37.0648 189.797 36.0226 188.058 35.3279 187.262C34.6331 186.467 33.4917 185.522 32.7473 185.174C31.9533 184.777 30.3156 184.479 29.0254 184.479C27.487 184.479 25.9486 184.876 24.6583 185.622ZM27.1396 189.847C28.2314 189.4 30.0179 188.952 31.1097 188.952C32.5488 188.952 33.3924 189.251 34.1865 190.046C34.782 190.692 35.5264 191.835 35.7745 192.68C36.0722 193.476 36.2707 194.221 36.2211 194.271C36.1219 194.321 33.8391 195.166 31.1097 196.16C28.3802 197.154 25.8493 197.8 25.5516 197.651C25.2042 197.502 24.6583 196.558 24.3606 195.514C23.9636 194.122 23.9636 193.327 24.5094 192.233C24.9064 191.338 25.899 190.394 27.1396 189.847ZM44.7568 210.824C45.1538 210.277 45.6004 209.879 45.7493 209.83C45.8981 209.83 46.7914 211.072 47.7343 212.564C48.6772 214.055 49.3719 215.397 49.2231 215.546C49.0742 215.646 46.6425 216.391 43.7642 217.236C40.8859 218.032 38.4543 218.628 38.3054 218.479C38.1565 218.379 39.3972 216.839 41.0348 215.049C42.6725 213.21 44.3597 211.321 44.7568 210.824ZM19.1002 162.607C17.9092 163.154 16.7678 163.999 16.5197 164.446C16.2716 164.943 15.8745 166.236 15.7257 167.329C15.4775 168.671 15.7753 171.356 16.7182 175.78C17.4129 179.309 18.0581 182.291 18.1077 182.391C18.1573 182.441 18.604 182.391 19.1002 182.242C19.5965 182.093 19.9439 181.496 19.9439 180.75C19.9439 180.055 20.0431 179.508 20.192 179.508C20.3409 179.508 24.3109 178.812 29.0254 178.017C33.6902 177.171 37.958 176.376 38.4543 176.277C39.0498 176.078 39.3475 176.376 39.546 177.271C39.7115 178.099 40.125 178.514 40.7867 178.514C41.3326 178.514 41.7792 178.215 41.7792 177.867C41.7792 177.569 41.4318 175.034 40.9852 172.3C40.4889 169.566 39.9927 167.18 39.8438 166.932C39.6949 166.733 39.1987 166.683 38.8017 166.832C38.2558 167.031 38.1069 167.677 38.2558 169.218L38.4047 171.306C33.2436 172.151 32.2014 172.151 32.1022 171.803C32.0526 171.505 31.7052 170.163 31.4074 168.821C31.06 167.429 30.2164 165.59 29.472 164.645C28.7276 163.701 27.3877 162.607 26.5441 162.259C25.6508 161.911 24.0628 161.613 23.0703 161.613C22.0281 161.613 20.2416 162.06 19.1002 162.607ZM21.0853 167.13C21.9785 166.882 23.6162 166.633 24.8072 166.633C26.296 166.584 27.2389 166.882 28.1817 167.677C28.9758 168.423 29.5216 169.516 29.9683 172.797L25.1049 173.692C22.3755 174.139 19.795 174.537 19.3484 174.537C18.8521 174.537 18.3558 174.04 18.207 173.394C18.0581 172.797 17.9588 171.753 17.9588 171.057C17.9588 170.361 18.3062 169.318 18.7528 168.721C19.1995 168.075 20.2416 167.379 21.0853 167.13ZM262.912 152.765C262.812 153.113 262.564 154.703 262.415 156.244C262.167 158.63 262.267 159.127 262.862 159.127C263.259 159.127 263.706 158.68 263.855 158.133C264.053 157.338 264.5 157.139 266.336 157.139C267.576 157.139 268.916 157.239 269.313 157.388C269.76 157.537 270.058 158.233 270.058 159.127C270.058 160.47 269.76 160.768 267.229 161.861C265.641 162.557 263.805 163.402 263.11 163.75C262.283 164.181 261.82 164.877 261.721 165.838C261.621 166.683 260.877 170.063 260.083 173.394C259.289 176.774 258.644 179.856 258.644 180.253C258.644 180.651 259.487 181.347 260.53 181.745C261.77 182.291 262.515 182.341 262.862 181.993C263.209 181.645 262.912 181.098 261.969 180.353L260.53 179.259C261.572 174.438 262.118 173.046 262.366 173.046C262.614 173.095 264.003 173.344 265.443 173.692C266.832 174.04 268.023 174.438 268.023 174.636C268.073 174.885 267.973 175.68 267.825 176.525C267.626 177.569 267.279 178.066 266.485 178.116C265.889 178.215 265.343 178.464 265.244 178.762C265.145 179.011 266.237 179.508 267.676 179.856C269.661 180.253 270.405 180.253 270.653 179.856C270.852 179.508 270.604 179.06 270.008 178.762C269.214 178.364 269.065 177.967 269.363 176.774C269.512 175.929 269.76 175.133 269.859 174.885C269.959 174.686 271.348 174.885 272.936 175.332C274.474 175.78 275.814 176.177 275.914 176.177C276.013 176.227 275.864 177.47 275.566 178.862C275.07 181.148 274.822 181.546 273.532 181.993C272.738 182.242 272.142 182.689 272.291 182.987C272.44 183.236 273.333 183.484 274.276 183.484H276.013C277.254 177.519 277.799 174.984 277.998 174.04C278.246 173.095 278.296 172.052 278.147 171.803C277.998 171.505 277.502 171.803 277.055 172.4L276.261 173.493C263.755 170.56 262.614 170.163 262.465 169.318C262.366 168.771 262.515 167.975 262.812 167.528C263.11 167.13 264.797 165.987 266.634 165.043L269.859 163.353C272.638 166.435 273.035 166.584 275.219 166.484C277.154 166.385 277.849 166.087 278.593 165.092C279.288 164.198 279.685 162.557 279.983 159.127C280.231 156.543 280.281 154.157 280.132 153.908C279.983 153.61 279.487 153.908 279.04 154.505C278.246 155.598 278.196 155.648 272.291 155.101C269.016 154.853 265.84 154.505 265.244 154.355C264.599 154.256 264.103 153.858 264.152 153.461C264.202 153.063 263.954 152.566 263.706 152.417C263.408 152.268 263.061 152.417 262.912 152.765ZM271.348 159.177C271.745 157.537 271.745 157.537 273.978 157.835C275.219 157.984 276.757 158.133 277.402 158.133C278.345 158.133 278.494 158.382 278.494 159.873C278.494 160.818 278.246 162.06 277.998 162.607C277.75 163.154 276.906 163.701 276.162 163.85C275.368 163.999 274.177 163.899 273.432 163.601C272.638 163.353 271.795 162.607 271.497 161.961C271.15 161.315 271.1 160.221 271.348 159.177ZM36.6181 136.51C36.4692 136.908 35.0301 137.902 33.4917 138.697C31.9037 139.493 29.9683 140.686 29.1246 141.382L27.6359 142.674C25.899 140.388 24.6087 139.393 23.6658 138.996C22.7229 138.598 21.1845 138.25 20.3409 138.25C19.4476 138.25 17.9588 138.697 17.1152 139.244C15.8745 139.99 15.279 140.835 14.7332 142.823C14.2369 144.563 13.9888 147.595 13.9888 151.522V157.636C16.1723 157.636 16.5197 157.338 16.6189 156.493C16.7182 155.598 17.0159 155.399 18.604 155.399C19.5965 155.399 24.0132 155.449 28.3802 155.499L36.3204 155.648C36.3204 157.736 36.6181 158.133 37.2136 158.133C37.7761 158.133 38.1896 157.603 38.4543 156.543C38.6528 155.648 38.8017 153.262 38.8017 151.274C38.8017 148.043 38.7024 147.695 37.8091 147.695C37.1144 147.695 36.7174 148.142 36.4692 149.186L36.0722 150.677H28.3802C28.3802 147.148 28.6284 146.551 29.5216 146.054C30.1171 145.657 32.2014 144.762 34.0872 143.966C36.0226 143.221 37.8588 142.376 38.2061 142.028C38.6032 141.68 38.8513 140.388 38.8017 138.598C38.8017 136.162 38.6528 135.765 37.8588 135.765C37.3129 135.765 36.767 136.113 36.6181 136.51ZM17.5122 144.464C18.1573 144.066 19.7454 143.718 21.0853 143.718C22.8222 143.718 23.765 144.016 24.8072 144.911C25.8493 145.855 26.1471 146.551 26.1471 148.092C26.1471 149.186 26.0478 150.23 25.899 150.429C25.7501 150.578 23.5665 150.627 16.4701 150.18L16.4204 147.744C16.3708 145.657 16.5197 145.159 17.5122 144.464ZM261.473 133.031C261.572 135.069 261.82 135.765 262.366 135.765C262.763 135.765 263.11 135.317 263.11 134.77C263.11 133.925 263.358 133.826 264.698 134.075C265.591 134.273 266.385 134.423 266.435 134.472C266.485 134.472 266.683 135.963 266.882 137.753C267.179 140.586 267.08 141.083 266.286 141.63C265.74 141.978 264.946 142.227 264.45 142.227C264.003 142.227 263.606 141.879 263.606 141.481C263.606 141.083 263.309 140.785 262.961 140.885C262.564 140.984 262.415 141.829 262.515 143.271C262.614 144.464 262.763 145.855 262.912 146.303C263.011 146.8 263.358 147.198 263.606 147.198C263.855 147.198 264.202 146.8 264.301 146.303C264.4 145.756 266.981 144.314 271.844 142.028C275.914 140.189 279.437 138.499 279.636 138.3C279.884 138.151 279.933 137.455 279.784 136.759C279.536 135.616 278.941 135.367 271.249 133.528C266.584 132.384 262.912 131.291 262.812 130.893C262.713 130.595 262.316 130.297 261.969 130.297C261.572 130.297 261.423 131.092 261.473 133.031ZM268.271 136.311C268.023 134.87 268.122 134.671 268.916 134.92C269.413 135.069 271.15 135.466 272.787 135.765C274.425 136.113 276.062 136.51 276.41 136.709C276.807 136.858 275.517 137.654 273.333 138.598C271.249 139.493 269.313 140.238 269.065 140.238C268.817 140.238 268.569 139.741 268.569 139.095C268.569 138.499 268.47 137.256 268.271 136.311ZM276.757 122.443C276.062 123.487 275.715 123.536 273.035 123.338C271.249 123.189 270.058 123.288 270.058 123.586C270.008 123.835 270.653 124.332 271.398 124.68C272.142 124.978 273.283 125.376 273.879 125.525C274.524 125.674 275.914 125.574 277.005 125.326C278.147 125.028 279.189 124.382 279.487 123.835C279.834 123.139 279.784 122.592 279.338 122.095C279.04 121.648 278.494 121.3 278.147 121.349C277.799 121.349 277.204 121.846 276.757 122.443ZM25.6508 111.656C25.3531 111.756 24.5591 111.954 23.765 112.104C23.0207 112.253 21.5319 113.247 20.3905 114.241C19.001 115.583 18.1573 116.876 17.6611 118.615C17.2641 119.957 16.9663 121.946 16.9663 122.94C16.9663 123.984 17.2641 125.575 17.6115 126.42C18.0085 127.314 18.9513 128.806 19.7454 129.7C20.5394 130.645 22.4252 131.987 23.9139 132.683C26.1471 133.727 27.3877 133.975 30.8615 133.975C33.9383 133.975 35.5264 133.776 36.6677 133.13C37.561 132.683 38.8513 131.539 39.4964 130.645C40.1416 129.8 40.9356 128.159 41.2829 127.066C41.6303 125.972 41.8288 123.835 41.7296 122.294C41.5807 120.107 41.1837 118.963 39.9927 117.323C38.9009 115.782 37.4618 114.639 35.2782 113.545C33.1939 112.501 31.1097 111.855 29.1246 111.706C27.487 111.557 25.899 111.557 25.6508 111.656ZM22.0778 117.323C22.6733 117.124 24.2613 116.925 25.6508 116.925C26.9907 116.925 29.472 117.224 31.1097 117.671C32.7473 118.118 34.8812 118.864 35.8241 119.361C36.767 119.858 38.0076 120.753 38.5535 121.349C39.1987 122.045 39.546 123.139 39.546 124.431C39.546 125.922 39.2483 126.668 38.3054 127.513C37.6106 128.11 36.1219 128.756 34.9308 128.955C33.6406 129.153 31.4074 129.004 28.9758 128.507C26.8915 128.06 24.3606 127.314 23.4177 126.817C22.4748 126.32 21.1845 125.376 20.5394 124.729C19.7454 123.934 19.398 122.99 19.398 121.598C19.398 120.504 19.7454 119.212 20.192 118.665C20.6386 118.168 21.4823 117.571 22.0778 117.323ZM273.184 111.507C273.283 112.501 272.688 112.8 266.485 114.589C259.736 116.627 259.636 116.627 258.942 115.633C258.545 115.086 258.048 114.788 257.8 115.036C257.602 115.235 257.85 116.826 258.396 118.615C258.942 120.405 259.537 121.697 259.736 121.498C259.884 121.25 260.133 120.653 260.232 120.107C260.381 119.311 261.572 118.764 267.08 117.224L273.78 115.335C275.12 117.273 275.467 117.422 275.715 116.975C275.864 116.677 275.616 115.036 275.12 113.396C274.673 111.756 273.978 110.414 273.68 110.414C273.333 110.414 273.085 110.911 273.184 111.507ZM28.8765 87.7466C28.0825 89.6853 27.5366 91.425 27.6359 91.6239C27.7847 91.8724 28.1817 92.0215 28.4795 92.0215C28.8269 92.0215 29.5216 91.6239 29.9683 91.1268C30.8119 90.3315 30.9112 90.3315 31.9533 91.2759C32.5984 91.8227 34.8812 93.8607 37.0648 95.7496C39.2483 97.6883 41.8288 99.9251 42.7717 100.72L44.5086 102.112C40.2904 101.665 36.1715 101.218 32.6977 100.87L26.296 100.223C26.8418 97.8374 26.693 97.4397 25.9982 97.2409C25.5516 97.0918 25.0057 97.1415 24.8072 97.3403C24.6087 97.5888 23.6658 99.5772 22.7229 101.814C20.986 105.84 20.986 105.94 21.9289 106.437C22.6733 106.835 23.0703 106.735 23.5169 106.139C24.0628 105.393 25.0057 105.343 31.1097 105.642C34.9308 105.791 40.1912 106.139 42.8213 106.337L47.635 106.685L49.2231 102.957C44.0124 98.0362 40.2408 94.5566 37.4121 91.9718C33.591 88.4426 32.3503 87.001 32.3007 86.0069C32.2511 85.1618 31.9037 84.615 31.3082 84.4162C30.5638 84.2174 30.1171 84.8636 28.8765 87.7466ZM37.4618 73.6793C32.7969 80.3401 32.6481 80.7378 33.4917 81.4834C34.3353 82.2787 34.4346 82.2788 35.0797 81.3343C35.6256 80.6384 36.0226 80.4395 36.6677 80.7378C37.164 80.9863 40.7867 83.422 44.7568 86.156C48.7268 88.9396 52.0517 91.2262 52.2006 91.3256C52.3495 91.425 52.151 91.8227 51.8036 92.2701C51.5059 92.6677 51.3074 93.3637 51.4562 93.7613C51.6051 94.159 52.0021 94.5069 52.2999 94.5069C52.6472 94.5069 55.2278 91.1765 58.0068 87.0507C60.8355 82.9747 63.1183 79.346 63.1183 79.0974C63.1183 78.7992 62.1754 77.805 60.9844 76.8606C59.3467 75.5184 58.7016 75.2699 58.0068 75.6179C57.5602 75.9161 57.1632 76.3138 57.1632 76.612C57.1632 76.8606 57.6098 77.9044 58.1557 78.8489L59.1482 80.5887C56.2699 85.6092 55.2774 87.0507 55.0293 87.0507C54.8308 87.0507 53.1931 86.0069 51.3074 84.7144C49.4712 83.422 47.9328 82.3285 47.8335 82.229C47.7839 82.1296 48.3298 81.2846 49.0742 80.2904C49.8682 79.346 50.7615 78.6501 51.0592 78.7992C51.4066 78.9483 52.0517 79.1968 52.4487 79.346C52.8458 79.4951 53.3916 79.1968 53.6398 78.6998C53.9871 78.0039 53.4909 77.4571 50.9103 75.6179C47.8832 73.4804 47.6847 73.4307 46.841 74.226C46.047 75.0711 46.047 75.1705 47.0892 76.2144C48.1313 77.3576 48.1313 77.3577 47.1884 78.6004C46.6425 79.2963 46.1463 80.0419 46.047 80.3401C45.9974 80.5887 44.3101 79.7933 42.3747 78.4512C40.3897 77.1588 38.8017 76.0155 38.8017 75.8664C38.8017 75.7173 39.6949 74.3752 40.7867 72.8839C42.7717 70.1997 42.7717 70.15 44.3597 70.6968C45.7989 71.1938 46.0966 71.1441 46.5929 70.3488C46.9403 69.802 47.0892 69.2552 46.9899 69.0067C46.841 68.8079 45.8485 68.2114 44.7568 67.6646C43.665 67.1178 42.6725 66.6704 42.5236 66.6704C42.4243 66.6704 40.1416 69.802 37.4618 73.6793ZM245.493 61.2025C245.344 61.4511 245.443 61.9978 245.741 62.2961C246.089 62.7932 244.699 64.185 240.382 67.5652C236.263 70.8956 234.426 72.0886 234.079 71.6909C233.781 71.3927 233.434 71.1441 233.186 71.1441C232.987 71.1441 232.838 71.4424 232.838 71.7406C232.838 72.0886 233.732 73.381 234.774 74.6237C235.816 75.8664 236.908 76.6617 237.106 76.4629C237.354 76.2641 237.255 75.6179 236.908 75.1208C236.362 74.226 236.56 73.9278 238.893 72.1383L241.523 70.15C244.103 73.033 245.245 74.4746 245.791 75.2202L246.734 76.612C242.069 80.3401 241.672 80.4893 240.779 79.9425C240.282 79.6442 239.637 79.4951 239.439 79.6939C239.24 79.8928 240.084 81.384 241.324 82.925C242.565 84.5156 244.103 86.7525 244.798 87.9455C245.443 89.0888 246.138 90.0332 246.287 90.0332C246.436 90.0332 246.734 89.8841 246.883 89.6355C247.081 89.4367 246.982 88.8899 246.734 88.3928C246.386 87.7963 246.436 87.4981 246.982 87.2993C247.379 87.1501 248.222 87.0507 248.818 87.0507C249.662 87.0507 250.356 87.7963 251.597 89.9338L253.235 92.7672C251.051 94.8549 250.505 95.0537 250.406 94.6064C250.307 94.3081 249.86 94.0099 249.463 94.0099C249.066 94.0099 248.719 94.2087 248.719 94.5069C248.719 94.7555 249.364 96.0479 250.158 97.3403C250.952 98.6824 252.093 101.118 252.738 102.808C253.384 104.548 254.227 105.94 254.525 105.94C254.922 105.94 255.071 105.542 254.922 104.797C254.723 103.852 255.071 103.554 257.254 102.56C258.693 101.963 259.984 101.466 260.133 101.416C260.281 101.416 260.678 102.013 260.976 102.709C261.324 103.405 261.473 104.25 261.274 104.548C261.125 104.896 259.884 106.487 258.545 108.028C256.212 110.861 256.163 110.96 256.758 112.65C257.105 113.595 257.651 114.34 257.899 114.241C258.148 114.142 258.495 113.645 258.594 113.098C258.644 112.601 259.686 110.911 260.778 109.419C261.919 107.928 262.862 106.586 262.961 106.437C263.011 106.288 263.358 106.437 263.706 106.735C264.053 107.033 264.897 107.431 265.591 107.58C266.286 107.729 267.576 107.63 268.42 107.381C269.363 107.133 270.405 106.337 270.901 105.542C271.447 104.647 271.646 103.604 271.447 102.46C271.298 101.516 270.455 99.0801 269.512 97.0918C268.569 95.1034 267.676 93.5128 267.428 93.5128C267.229 93.5128 267.08 94.0099 267.08 94.6064C267.08 95.6005 266.187 96.0976 260.48 98.3842C256.907 99.8257 253.781 100.969 253.532 100.969C253.334 100.969 252.986 100.273 252.689 99.4777C252.192 98.0362 252.441 97.738 257.651 91.6239C260.629 88.1443 263.11 84.963 263.11 84.5653C263.16 84.1677 262.862 83.5215 262.515 83.2232C262.018 82.7261 261.175 82.7261 258.892 83.1238C257.254 83.422 253.681 84.0682 250.952 84.615C248.222 85.1121 245.692 85.5595 245.344 85.5595C245.046 85.5595 244.401 84.963 244.004 84.1677L243.309 82.8255C252.093 75.7173 254.773 73.8284 254.922 74.1266C255.071 74.3752 255.517 74.6237 255.914 74.6237C256.311 74.6237 256.659 74.4746 256.659 74.226C256.659 74.0272 255.914 72.8342 254.922 71.4921C253.979 70.1997 252.986 69.2552 252.689 69.4044C252.391 69.5535 252.292 70.15 252.441 70.7465C252.639 71.6412 252.242 72.2377 250.456 73.4804C248.57 74.8722 248.074 75.0214 247.428 74.4746C246.982 74.1763 245.89 72.8839 244.947 71.6412C244.054 70.3985 243.26 69.3049 243.26 69.1558C243.26 69.0067 244.302 68.0622 245.592 67.0184C247.776 65.3283 248.074 65.2289 248.818 65.9248C249.364 66.3722 249.81 66.4716 249.959 66.1733C250.108 65.8751 249.314 64.533 248.222 63.1908C247.131 61.799 246.138 60.7054 245.989 60.7054C245.89 60.7054 245.692 60.9043 245.493 61.2025ZM255.567 85.5098C257.403 85.0624 259.19 84.6647 259.487 84.615C259.835 84.615 260.133 84.7642 260.133 85.0624C260.133 85.3109 259.984 85.6092 259.736 85.6589C259.537 85.7583 258.197 87.1004 254.178 91.5245L252.937 89.2876C252.242 88.0449 251.845 86.9016 251.994 86.6531C252.143 86.4542 253.731 85.9571 255.567 85.5098ZM268.271 98.0362L268.817 99.2789C269.115 99.9748 269.313 101.218 269.313 102.112C269.313 103.454 269.016 103.852 267.576 104.548C266.485 105.095 265.393 105.294 264.649 105.045C264.003 104.846 263.061 103.902 262.564 102.808C262.018 101.814 261.671 100.87 261.721 100.77C261.82 100.671 263.309 100.025 265.095 99.3286L268.271 98.0362ZM232.293 53.5475C231.35 54.4919 231.102 55.2873 231.151 56.8779C231.201 58.0212 231.598 59.8107 232.044 60.8049C232.441 61.8487 232.789 63.34 232.789 64.185C232.789 65.1792 232.425 65.9248 231.697 66.4219C230.853 67.0184 230.258 67.0681 229.216 66.6704C228.471 66.3722 227.38 65.4277 226.784 64.533L225.742 62.9423C227.578 60.7054 227.628 60.3078 227.181 59.8107C226.734 59.3136 226.337 59.5124 225.246 60.5563C224.452 61.3019 223.856 62.147 223.856 62.4452C223.856 62.6938 224.501 63.8868 225.345 65.03C226.189 66.223 227.528 67.5154 228.322 67.9131C229.166 68.3108 230.605 68.6587 231.598 68.6587C232.838 68.6587 233.732 68.2611 234.575 67.416C235.369 66.6207 235.766 65.5768 235.816 64.533C235.816 63.6382 235.369 61.6499 234.823 60.0592C234.228 58.5183 233.781 56.8282 233.781 56.3311C233.781 55.8838 234.278 55.0884 234.873 54.5913C235.469 54.144 236.213 53.7463 236.511 53.7463C236.809 53.7463 237.801 54.3925 238.645 55.2375C240.233 56.7288 240.233 56.7288 239.389 58.22C238.794 59.2142 238.661 59.877 238.992 60.2084C239.339 60.5563 239.985 60.2084 240.977 59.2142L242.466 57.723C240.382 54.8399 239.141 53.5972 238.297 53.1001C237.454 52.6527 236.014 52.2551 235.121 52.2551C233.98 52.2551 233.087 52.6527 232.293 53.5475ZM58.8505 49.9685C57.3121 50.7141 54.6819 52.8516 51.754 55.7843C47.7839 59.8107 47.238 60.5066 47.9328 61.0534C48.4787 61.5008 48.9749 61.5505 49.6697 61.2025C50.2156 60.9043 50.7615 60.7551 50.8111 60.8546C50.8607 60.9043 53.9375 64.0359 57.6098 67.764L64.3093 74.574C62.4235 76.5623 62.4235 76.7114 63.1679 77.5068C63.9619 78.3021 64.2597 78.1033 68.5275 74.1266C71.3065 71.5418 73.5397 68.957 74.2841 67.5154C75.1277 65.9248 75.4751 64.3341 75.4751 62.5446C75.4751 60.9043 75.0781 59.0651 74.3337 57.4744C73.6886 56.0826 72.3983 54.144 71.505 53.0504C70.5622 52.0065 68.6764 50.6147 67.2869 49.9685C65.947 49.3223 64.0612 48.7755 63.0687 48.7755C62.1258 48.7755 60.24 49.3223 58.8505 49.9685ZM58.1061 53.2989C58.8008 53.0504 59.7934 52.8019 60.3392 52.8019C60.8851 52.7521 62.225 53.1995 63.3168 53.7463C64.4086 54.2434 66.3936 55.7843 67.7335 57.0767C69.0238 58.3692 70.5125 60.3575 71.0584 61.4511C71.5547 62.5446 72.0013 64.0359 72.0013 64.7815C72.0013 65.5271 71.7035 66.7698 71.3065 67.5154C70.9592 68.2611 70.0659 69.4541 68.0312 71.3927L61.0836 64.4335C57.2624 60.606 54.136 57.2259 54.136 56.9773C54.136 56.6791 54.7315 55.8838 55.5255 55.1381C56.2699 54.3925 57.4609 53.5475 58.1061 53.2989ZM135.522 53.4978C138.152 53.1498 143.959 52.8019 148.425 52.8019C152.941 52.8019 158.995 53.0504 161.824 53.4481C164.702 53.8457 169.516 54.7405 172.493 55.4861C175.521 56.2317 180.533 57.8224 183.659 59.0651C186.835 60.3078 191.302 62.2961 193.584 63.5388C195.917 64.7815 199.738 67.0184 202.021 68.5096C204.353 70.0009 208.174 72.8342 210.457 74.8225C212.79 76.7612 216.214 79.8928 218.1 81.8314C219.985 83.7203 223.062 87.2993 224.998 89.7847C226.883 92.2204 229.712 96.2467 231.201 98.7321C232.739 101.168 235.022 105.443 236.312 108.177C237.603 110.911 239.24 114.838 239.985 116.876C240.729 118.914 241.87 122.741 242.515 125.326C243.161 127.911 244.103 132.484 244.55 135.516C245.096 139.095 245.394 143.867 245.394 149.434C245.394 154.952 245.096 159.774 244.55 163.353C244.103 166.335 243.061 171.256 242.267 174.288C241.473 177.271 240.034 181.894 238.992 184.479C238 187.063 236.114 191.189 234.873 193.675C233.583 196.11 231.151 200.286 229.414 202.871C227.677 205.455 224.849 209.283 223.112 211.321C221.424 213.359 218.05 216.938 215.618 219.274C213.187 221.611 209.415 224.891 207.232 226.532C205.048 228.172 201.624 230.558 199.54 231.801C197.505 233.093 193.287 235.33 190.111 236.871C186.984 238.362 182.071 240.35 179.193 241.345C176.364 242.289 171.65 243.532 168.772 244.128C165.943 244.675 161.228 245.371 158.35 245.669C155.422 246.017 149.715 246.117 145.199 245.918C140.534 245.769 135.026 245.222 131.8 244.625C128.823 244.079 124.456 243.035 122.123 242.339C119.841 241.643 116.119 240.4 113.935 239.555C111.752 238.71 108.625 237.368 106.987 236.523C105.35 235.728 102.223 233.988 100.04 232.745C97.8563 231.502 93.8366 228.818 91.1072 226.78C88.3778 224.742 83.8122 220.716 80.9339 217.833C78.0556 214.9 74.2345 210.675 72.4976 208.338C70.7607 206.002 68.2794 202.423 67.0387 200.385C65.7485 198.347 63.9123 195.066 62.9694 193.177C62.0265 191.239 60.637 188.256 59.8926 186.467C59.1482 184.677 58.0068 181.546 57.3121 179.508C56.6173 177.47 55.6744 173.99 55.1285 171.803C54.6323 169.616 53.8879 165.49 53.4413 162.607C52.9946 159.575 52.6969 154.008 52.6969 149.434C52.6969 144.911 52.9946 139.195 53.4413 136.262C53.8383 133.379 54.7812 128.706 55.4759 125.823C56.1707 122.94 57.4609 118.566 58.3542 116.13C59.2475 113.645 61.2821 109.071 62.8702 105.94C64.4582 102.808 67.0387 98.3345 68.5771 95.9982C70.1155 93.6619 72.6961 90.0829 74.3337 88.0449C76.021 86.0069 79.4452 82.2788 82.0257 79.8431C84.5566 77.3577 88.0304 74.3255 89.6681 73.0828C91.3057 71.7903 94.5314 69.5535 96.8142 68.0125C99.1466 66.5213 103.414 64.0856 106.243 62.6441C109.121 61.2522 113.588 59.3136 116.168 58.3692C118.798 57.4247 123.116 56.0826 125.845 55.3867C128.575 54.6908 132.942 53.8457 135.522 53.4978ZM56.1707 231.204C55.327 231.9 54.9797 232.695 55.0293 233.839C55.0789 234.733 55.5752 235.827 56.1707 236.424C56.8158 237.02 57.858 237.368 58.8008 237.368C59.843 237.318 60.6866 236.871 61.2325 236.125C61.7288 235.479 62.1258 234.286 62.1258 233.54C62.1258 232.646 61.6295 231.85 60.7362 231.154C59.9919 230.608 58.9001 230.16 58.3542 230.16C57.8083 230.21 56.8158 230.657 56.1707 231.204Z" fill="#5D9D9F"/>
<path fill-rule="evenodd" clip-rule="evenodd" d="M107.732 196.409C108.427 196.409 109.32 196.657 109.667 197.005C110.015 197.353 110.263 198.347 110.312 199.143C110.312 199.988 109.915 200.932 109.419 201.38C108.923 201.728 108.079 202.075 107.533 202.075C106.987 202.075 106.144 201.728 105.648 201.38C105.151 200.982 104.705 200.087 104.705 199.441C104.655 198.745 105.052 197.801 105.548 197.304C106.045 196.806 107.037 196.409 107.732 196.409ZM100.338 196.409C101.181 196.409 102.174 196.757 102.571 197.154C102.968 197.552 103.315 198.397 103.315 199.043C103.315 199.64 103.067 200.535 102.72 201.032C102.323 201.578 101.479 201.976 100.586 201.976C99.5932 201.976 98.7992 201.578 98.2037 200.833C97.7074 200.187 97.3104 199.391 97.3104 199.143C97.2608 198.844 97.6082 198.099 98.1044 197.502C98.6007 196.806 99.4443 196.409 100.338 196.409ZM86.1942 171.356C87.8319 171.455 89.6681 171.903 90.2636 172.3C90.9087 172.698 91.802 173.792 92.2486 174.637C92.8441 175.83 93.1419 177.868 93.39 187.958H95.2261C96.2683 187.958 97.9556 187.71 100.834 186.964V180.502C100.834 176.973 101.032 173.493 101.33 172.797C101.628 172.052 102.372 171.455 103.166 171.256C104.06 171.107 104.953 171.256 105.648 171.754C106.739 172.499 106.789 172.897 106.888 179.757C107.037 185.572 107.186 187.113 107.781 187.461C108.178 187.71 110.015 187.958 111.851 187.958C115.126 187.958 115.225 187.909 114.928 186.815C114.779 186.219 114.531 184.28 114.382 182.491C114.183 179.955 114.282 178.862 115.027 177.321C115.573 176.227 116.813 174.637 117.806 173.692C118.848 172.797 120.585 171.803 121.677 171.555C122.768 171.256 124.605 171.207 125.746 171.406C126.937 171.604 128.575 172.251 129.369 172.797C130.56 173.593 130.907 174.239 131.006 175.78C131.106 177.172 130.857 178.066 130.262 178.663C129.766 179.16 128.674 179.508 127.88 179.508C127.086 179.508 126.143 179.309 125.895 179.11C125.597 178.912 125.15 178.066 124.902 177.271C124.555 176.277 124.059 175.78 123.414 175.78C122.868 175.78 121.974 176.526 121.329 177.52C120.486 178.762 120.138 179.955 120.188 181.745C120.188 183.137 120.535 184.727 120.932 185.324C121.329 185.97 122.173 186.716 122.768 187.014C123.414 187.362 125.498 187.76 130.857 188.207V192.184L125.15 192.134C122.024 192.084 118.848 192.084 118.054 192.134C117.31 192.134 113.588 192.134 109.766 192.034C105.945 191.985 102.074 191.935 101.181 191.985C100.338 191.985 96.2187 192.134 92.1493 192.283C88.0304 192.382 83.713 192.482 82.4723 192.482C81.2317 192.432 79.594 192.034 78.8 191.537C78.006 191.09 76.9142 189.798 76.3683 188.704C75.7232 187.461 75.2766 185.423 75.1277 183.236C75.0284 181.298 75.1773 178.812 75.4751 177.619C75.7728 176.476 76.6661 174.736 77.4105 173.792C78.403 172.599 79.3955 171.952 80.9835 171.604C82.2242 171.306 84.5566 171.207 86.1942 171.356ZM81.5294 177.868C81.2317 178.514 80.9835 180.254 80.9835 181.745C80.9835 183.236 81.2317 185.075 81.5294 185.821C81.8272 186.616 82.3234 187.362 82.6212 187.561C82.9686 187.76 84.1596 187.958 85.301 187.958H87.4349C87.4349 178.762 87.2364 177.321 86.6905 176.774C86.2935 176.376 85.3506 176.028 84.5566 176.028C83.8122 176.028 82.9686 176.227 82.6708 176.426C82.3731 176.625 81.8768 177.271 81.5294 177.868ZM218.546 163.104C219.042 163.104 219.985 163.403 220.68 163.701C221.375 164.049 222.119 164.844 222.417 165.441C222.715 166.137 222.913 171.754 222.913 178.862C222.913 187.909 222.764 191.339 222.318 191.786C221.97 192.134 221.027 192.432 220.233 192.432C219.39 192.482 218.447 192.184 218.1 191.836C217.703 191.388 217.454 187.561 217.355 179.359C217.206 168.821 217.107 167.429 216.363 166.932C215.866 166.584 215.469 165.938 215.42 165.49C215.37 165.043 215.866 164.297 216.512 163.85C217.157 163.452 218.1 163.104 218.546 163.104ZM205.892 163.104C206.537 163.104 207.678 163.8 210.011 166.087V177.172C210.011 187.312 209.911 188.356 209.018 189.798C208.472 190.692 207.579 191.637 207.033 191.935C206.438 192.233 203.51 192.333 199.937 192.233C196.612 192.084 193.436 191.985 192.89 191.935C192.344 191.935 190.21 192.034 188.175 192.184C184.999 192.432 184.156 192.333 180.731 190.444L179.342 191.488C178.101 192.382 177.506 192.482 172.047 192.233C168.772 192.084 165.645 191.985 165.099 191.985C164.553 191.985 160.137 192.084 146.49 192.432V194.57C146.49 195.713 146.043 197.602 145.497 198.745C144.951 199.938 144.008 201.23 143.363 201.628C142.768 202.026 141.031 202.523 139.542 202.672C137.507 202.921 136.416 202.771 135.175 202.175C134.331 201.728 133.239 200.882 132.842 200.236C132.445 199.64 132.098 198.646 132.098 197.999C132.098 197.403 132.247 196.906 132.445 196.906C132.694 196.956 133.388 197.254 134.083 197.651C134.778 198.049 135.969 198.397 136.813 198.397C137.607 198.397 138.798 198.049 139.443 197.552C140.534 196.657 140.534 196.458 140.783 172.35L142.123 171.555C143.363 170.909 143.661 170.909 146.241 172.35L146.49 187.958H153.388C158.846 187.958 160.484 187.809 161.08 187.213C161.725 186.616 161.874 185.374 161.874 181.397C161.874 178.265 162.122 175.78 162.519 175.034C162.916 174.239 163.61 173.742 164.504 173.692C165.248 173.593 166.29 173.742 166.836 174.04C167.729 174.488 167.829 175.034 167.829 180.403C167.829 185.224 167.978 186.368 168.722 187.113C169.317 187.76 170.31 188.008 172.146 187.958C173.734 187.958 175.024 187.66 175.471 187.213C176.116 186.616 176.265 185.274 176.265 180.502C176.265 175.183 176.364 174.438 177.258 173.543C177.803 172.996 178.746 172.549 179.342 172.549C179.987 172.549 180.88 172.947 181.376 173.444C182.121 174.14 182.27 175.183 182.22 180.154C182.22 183.336 182.419 186.417 182.716 186.964C183.113 187.76 183.709 187.958 185.694 187.958C187.034 187.958 188.523 187.809 188.969 187.61C189.416 187.362 190.111 186.616 190.458 185.871C190.855 185.075 191.153 183.186 191.153 181.645C191.153 179.806 190.756 178.017 190.16 176.774C189.614 175.68 188.92 174.388 188.572 173.891C188.026 173.096 188.126 172.847 189.168 171.952C190.111 171.207 190.805 171.008 192.145 171.256C193.088 171.455 194.18 171.853 194.577 172.201C194.924 172.499 195.569 173.493 196.016 174.289C196.545 175.283 196.81 177.188 196.81 180.005C196.86 182.341 196.711 185.075 196.115 187.958H199.44C201.326 187.958 203.162 187.71 203.559 187.461C204.204 187.064 204.304 185.374 204.304 177.271C204.304 168.622 204.204 167.429 203.46 166.932C202.964 166.584 202.567 165.938 202.517 165.49C202.467 165.043 202.964 164.297 203.609 163.85C204.254 163.452 205.296 163.104 205.892 163.104ZM182.022 162.607C182.667 162.607 183.659 162.806 184.205 163.104C184.9 163.452 185.198 164.099 185.198 165.341C185.198 166.683 184.9 167.28 183.907 167.976C182.716 168.721 182.468 168.771 181.277 168.075C180.334 167.528 179.937 166.832 179.838 165.59C179.788 164.645 179.987 163.552 180.285 163.253C180.582 162.906 181.376 162.607 182.022 162.607ZM175.223 162.607C175.918 162.558 176.91 162.955 177.406 163.452C177.903 163.949 178.2 164.894 178.151 165.54C178.052 166.186 177.406 167.18 175.273 168.821L173.883 167.777C173.139 167.18 172.493 166.186 172.394 165.54C172.345 164.894 172.642 163.949 173.089 163.502C173.536 163.005 174.528 162.607 175.223 162.607ZM87.683 162.11C87.9311 162.11 88.6755 162.458 89.271 162.856C90.032 163.353 90.4124 164.099 90.4124 165.093C90.4124 165.888 90.0651 166.932 89.6184 167.33C89.2214 167.727 88.3282 168.075 87.6334 168.075C86.9883 168.075 86.095 167.727 85.698 167.33C85.301 166.932 84.904 165.938 84.904 165.142C84.8544 164.099 85.1521 163.452 85.9957 162.856C86.6409 162.458 87.3853 162.11 87.683 162.11ZM80.4873 162.11C81.0332 162.11 81.9264 162.558 82.4723 163.104C83.0182 163.651 83.4648 164.496 83.4648 164.993C83.4648 165.441 83.1174 166.335 82.7204 166.982C82.2242 167.711 81.4798 168.075 80.4873 168.075C79.4948 168.075 78.7504 167.711 78.2541 166.982C77.8571 166.335 77.5097 165.441 77.5097 164.993C77.5097 164.496 77.9564 163.651 78.5023 163.104C79.0481 162.558 79.9414 162.11 80.4873 162.11ZM179.094 156.145C179.441 156.145 180.185 156.593 180.731 157.139C181.277 157.686 181.724 158.432 181.724 158.78C181.724 159.078 181.376 159.873 180.979 160.52C180.533 161.215 179.739 161.613 178.846 161.613C178.101 161.613 177.208 161.365 176.861 161.017C176.513 160.669 176.215 159.774 176.166 159.028C176.166 158.134 176.513 157.438 177.307 156.891C177.952 156.493 178.796 156.145 179.094 156.145ZM135.423 151.671C135.919 151.622 136.862 152.019 137.507 152.517C138.252 153.113 138.649 153.908 138.649 154.903C138.599 155.698 138.202 156.791 137.706 157.288C137.21 157.786 136.267 158.134 135.572 158.134C134.877 158.134 134.083 157.935 133.785 157.736C133.488 157.537 132.991 156.891 132.644 156.294C132.346 155.648 132.098 154.903 132.098 154.654C132.148 154.356 132.694 153.56 133.339 152.914C133.984 152.218 134.927 151.671 135.423 151.671ZM124.853 125.326C124.902 125.326 125.547 125.624 126.391 126.072C127.384 126.569 129.369 126.817 132.594 126.817C136.068 126.817 137.805 127.066 139.294 127.762C140.386 128.259 142.023 129.402 142.917 130.347C143.859 131.291 144.852 133.13 145.299 134.522C145.844 136.511 145.894 137.604 145.447 139.99C145.15 141.63 144.505 143.668 144.008 144.464C143.562 145.259 142.371 146.452 141.477 147.049C139.84 148.142 139.492 148.192 128.872 147.993C122.868 147.894 117.508 147.794 116.962 147.794C116.416 147.844 108.228 147.844 81.5294 147.943L79.991 146.452C79.1474 145.657 78.1052 144.066 77.7082 142.973C77.1624 141.581 76.9639 139.742 77.1127 137.008C77.212 134.174 77.5594 132.434 78.3037 131.043C78.8993 129.949 80.0903 128.607 81.0332 128.11C82.1249 127.464 83.9611 127.066 86.1942 126.917C88.8244 126.817 90.0651 126.967 91.405 127.662C92.3478 128.16 93.5389 129.353 94.0847 130.297C94.8788 131.639 95.1269 133.28 95.6231 143.221H101.181C104.258 143.221 106.789 143.122 106.789 142.973C106.789 142.823 105.102 140.487 103.067 137.753C100.139 133.826 99.3947 132.534 99.5932 131.54C99.7421 130.844 100.586 129.75 101.429 129.104C102.323 128.458 103.96 127.662 105.052 127.364C106.144 127.066 108.228 126.817 109.618 126.817C111.057 126.817 113.439 127.265 114.828 127.762C116.466 128.358 118.153 129.502 119.295 130.744C120.486 132.037 121.28 133.478 121.478 134.671C121.677 135.665 121.677 137.654 121.528 138.996C121.379 140.388 121.131 141.879 120.982 142.376C120.684 143.171 121.329 143.221 137.557 143.221L138.549 141.879C139.095 141.084 139.691 139.692 139.84 138.747C139.989 137.654 139.84 136.312 139.343 135.168C138.847 133.975 137.954 132.981 136.912 132.484C135.87 131.937 133.785 131.589 130.857 131.54C126.739 131.391 126.292 131.291 125.25 130.098C124.654 129.402 124.108 128.16 124.059 127.414C124.009 126.619 124.158 125.823 124.406 125.674C124.654 125.475 124.853 125.326 124.853 125.326ZM83.0678 136.958C82.9686 139.195 83.1671 140.935 83.5641 141.73C84.11 142.774 84.6062 142.973 86.8394 143.122L89.4199 143.221C89.4199 133.28 89.3207 132.733 88.4274 132.285C87.8815 131.987 86.7898 131.788 85.9957 131.788C85.2017 131.788 84.2588 132.136 83.9115 132.584C83.5145 133.081 83.1671 134.92 83.0678 136.958ZM109.518 137.753C111.553 140.487 113.34 142.724 113.488 142.724C113.637 142.724 114.183 141.978 114.729 141.133C115.325 140.139 115.722 138.598 115.722 137.405C115.722 135.765 115.374 134.87 114.332 133.727C113.191 132.385 112.546 132.136 110.263 131.987C108.774 131.838 107.136 131.987 106.64 132.285C105.896 132.733 106.193 133.329 109.518 137.753ZM217.107 118.864C217.851 118.864 218.894 119.312 219.439 119.858C219.985 120.405 220.63 121.399 220.928 122.095C221.226 122.791 221.424 128.259 221.424 134.671C221.424 143.917 221.276 146.154 220.68 147.098C220.134 147.894 219.439 148.192 218.199 148.192C216.958 148.192 216.313 147.894 215.966 147.198C215.668 146.601 215.469 141.581 215.469 135.168C215.519 124.779 215.42 123.984 214.477 122.741C213.931 121.946 213.435 121.151 213.435 120.902C213.385 120.604 213.881 120.057 214.527 119.61C215.172 119.212 216.313 118.864 217.057 118.864H217.107ZM204.949 118.864C205.594 118.864 206.537 119.063 207.083 119.361C207.629 119.659 208.423 120.654 208.82 121.598C209.365 122.94 209.564 125.426 209.564 132.285C209.564 137.853 209.316 142.078 208.919 143.569C208.571 144.911 207.777 146.353 206.934 147.049C205.743 148.093 205.147 148.192 200.482 148.192C197.257 148.192 194.974 147.943 194.18 147.496C193.138 146.949 192.691 146.999 191.451 147.595C190.408 148.093 189.068 148.242 186.984 148.043C185.347 147.894 183.759 147.745 183.51 147.794C183.213 147.794 180.285 147.894 170.856 148.192V150.429C170.856 151.671 170.558 153.411 170.211 154.306C169.814 155.151 168.871 156.394 168.077 157.04C167.283 157.636 165.744 158.283 164.653 158.432C163.561 158.631 161.824 158.481 160.782 158.183C159.789 157.885 158.499 157.04 157.953 156.294C157.358 155.499 156.911 154.405 156.961 153.809C156.961 153.163 157.01 152.666 157.06 152.666C157.159 152.666 157.903 152.964 158.698 153.411C159.492 153.809 160.931 154.157 161.774 154.157C162.767 154.157 163.809 153.759 164.404 153.163C165.347 152.218 165.397 151.522 165.397 127.812L166.687 127.215C167.581 126.718 168.325 126.718 170.608 127.563L171.104 143.47L177.555 143.768L177.853 137.902C178.052 133.329 178.349 131.639 179.094 130.297C179.64 129.353 180.831 128.16 181.773 127.712C182.766 127.215 184.602 126.817 185.992 126.817C187.332 126.817 189.267 127.016 190.21 127.265C191.153 127.513 192.691 128.557 193.535 129.502C194.428 130.496 195.421 132.236 195.718 133.429C196.066 134.671 196.165 137.157 195.669 143.718H198.646C200.979 143.718 201.822 143.519 202.616 142.724C203.51 141.829 203.609 141.034 203.609 132.932C203.658 124.779 203.559 123.984 202.616 122.741C202.07 121.946 201.574 121.151 201.574 120.902C201.525 120.604 202.021 120.057 202.666 119.61C203.311 119.212 204.353 118.864 204.949 118.864ZM183.659 138.25L183.759 143.718C186.736 143.768 187.977 143.37 188.721 142.774C189.813 141.929 189.962 141.382 190.111 138.151C190.21 135.864 190.011 134.075 189.614 133.279C189.118 132.385 188.473 131.987 187.232 131.937C186.289 131.838 185.049 132.037 184.553 132.335C183.659 132.782 183.61 133.379 183.659 138.25ZM153.586 118.864C154.479 118.864 155.472 119.361 157.506 121.598V134.274C157.457 143.569 157.308 147.098 156.861 147.595C156.514 147.894 155.571 148.192 154.777 148.192C153.933 148.192 152.941 147.943 152.594 147.595C152.147 147.098 151.998 144.116 151.998 135.516C152.048 124.779 151.948 123.984 151.006 122.741C150.46 121.946 149.963 121.151 149.963 120.902C149.914 120.604 150.41 120.057 151.055 119.61C151.7 119.212 152.842 118.864 153.586 118.864ZM89.6681 117.87C90.2636 117.87 91.1072 118.268 91.6035 118.765C92.0997 119.212 92.4967 120.206 92.4471 121.002C92.4471 121.847 92.0501 122.642 91.3057 123.089C90.7102 123.487 89.8666 123.835 89.4695 123.835C89.0725 123.835 88.3282 123.437 87.8319 122.94C87.3356 122.493 86.9386 121.548 86.889 120.902C86.8394 120.206 87.2364 119.262 87.7326 118.765C88.2289 118.268 89.0725 117.87 89.6681 117.87ZM82.3731 117.87C82.8693 117.87 83.7626 118.218 84.3581 118.616C85.0529 119.063 85.4995 119.858 85.4995 120.604C85.4995 121.3 85.0529 122.294 84.507 122.841C83.9611 123.388 83.0678 123.835 82.5219 123.835C81.9761 123.835 81.0828 123.388 80.5369 122.841C79.991 122.294 79.5444 121.399 79.5444 120.852C79.5444 120.306 79.991 119.411 80.5369 118.864C81.0828 118.317 81.9264 117.87 82.3731 117.87ZM161.179 82.6767C162.271 82.627 164.057 83.0246 165.149 83.5217C166.241 84.0188 167.878 85.2118 168.722 86.2059C169.615 87.2498 170.608 88.9896 170.955 90.1826C171.402 91.7732 171.402 93.0159 170.955 95.5014C170.608 97.44 169.863 99.4283 169.069 100.572C168.325 101.566 166.886 102.759 165.844 103.156C164.553 103.703 162.37 103.952 159.442 103.952C155.174 103.952 154.926 103.902 154.33 102.709C153.834 101.715 153.834 101.218 154.33 100.224C154.926 99.0803 155.224 98.9809 158.449 98.9809C161.576 98.9809 162.072 98.8318 163.511 97.5394C165 96.1973 165.149 95.7996 165.149 93.1651C165.149 90.9779 164.901 89.8843 164.007 88.6913C163.263 87.5481 162.568 87.1007 161.824 87.2001C161.08 87.2498 160.534 87.7966 160.186 88.9399C159.789 90.1329 159.343 90.5803 158.201 90.8288C157.159 91.0276 156.365 90.8288 155.472 90.1329C154.678 89.5364 154.182 88.5919 154.082 87.6475C154.033 86.4545 154.33 85.6592 155.422 84.6153C156.216 83.82 157.358 83.0246 158.003 82.9252C158.648 82.8258 160.087 82.6767 161.179 82.6767ZM133.19 82.5773C133.984 82.5773 134.976 82.9252 135.373 83.3229C136.019 83.9691 136.118 86.0568 136.118 96.1476C136.118 107.083 136.019 108.376 135.125 110.314C134.53 111.557 133.537 112.7 132.644 113.148C131.85 113.545 129.915 113.893 128.426 113.893C126.937 113.893 125.2 113.645 124.555 113.396C123.959 113.098 123.066 112.203 122.57 111.408C122.123 110.563 121.726 109.569 121.726 109.171C121.726 108.773 121.826 108.425 121.974 108.425C122.123 108.425 123.265 108.773 124.555 109.221C126.59 109.917 127.136 109.917 129.915 108.674L130.163 96.4458C130.361 87.1504 130.56 84.0188 131.106 83.4223C131.453 82.9252 132.396 82.5773 133.19 82.5773ZM146.093 74.6737C146.936 74.9222 147.829 75.7175 148.276 76.6123C148.872 77.8053 149.02 80.4398 149.02 90.282C149.02 102.361 149.02 102.46 147.879 103.206C147.284 103.604 146.39 103.952 145.894 103.952C145.447 103.952 144.604 103.504 144.058 102.958C143.115 102.013 143.065 101.317 143.065 90.5305C143.065 79.7439 143.016 79.048 142.073 78.1035C141.428 77.4573 141.229 76.8111 141.428 76.2643C141.676 75.817 142.47 75.1707 143.214 74.8228C144.157 74.4251 145.15 74.3754 146.093 74.6737Z" fill="#5D9D9F"/>
<path fill-rule="evenodd" clip-rule="evenodd" d="M215.122 43.8046C216.015 43.7549 217.107 44.1526 217.603 44.6496C218.199 45.2461 218.447 46.1409 218.348 47.5327C218.248 49.0239 217.901 49.6702 216.958 50.2169C216.214 50.6146 215.172 50.7637 214.328 50.5649C213.584 50.4158 212.641 49.7696 212.194 49.1234C211.698 48.4274 211.549 47.5327 211.698 46.638C211.847 45.8923 212.343 44.9479 212.79 44.5502C213.187 44.1526 214.278 43.8046 215.122 43.8046ZM84.11 43.8046C85.0033 43.8046 86.095 44.2023 86.5913 44.6993C87.0875 45.1964 87.4845 46.2403 87.4349 47.1847C87.4349 48.0795 87.0379 49.1731 86.4424 49.7696C85.8965 50.3164 84.8048 50.7637 83.9611 50.7637C82.919 50.7637 82.1746 50.3661 81.4798 49.3719C80.8843 48.6263 80.4377 47.5824 80.4377 46.9859C80.4377 46.4391 80.8843 45.4947 81.4798 44.8982C82.125 44.2023 83.1175 43.8046 84.11 43.8046ZM149.566 20.4915C149.815 20.4418 149.963 22.8278 149.963 25.7606C149.914 30.632 150.013 31.2284 151.006 32.1232C151.849 32.9185 153.09 33.2168 156.861 33.4653C159.492 33.6641 162.122 33.9624 162.717 34.1115C163.362 34.2606 163.859 34.1115 163.859 33.863C163.859 33.6144 163.71 33.2665 163.462 33.1671C163.263 33.0676 162.271 31.7255 161.228 30.1846C160.236 28.6436 159.392 27.053 159.392 26.6553C159.392 26.2576 160.137 25.3629 160.98 24.7167C161.874 24.0705 163.66 23.1757 164.95 22.7284C166.29 22.281 167.928 21.933 168.672 21.933C169.466 21.933 171.005 22.2313 172.146 22.6787C173.337 23.0763 175.074 24.0208 176.067 24.7664C177.059 25.5617 178.399 27.1027 179.044 28.246C179.689 29.439 180.136 30.7811 180.037 31.2284C179.888 31.7255 178.151 33.0179 172.543 36.0004L178.002 37.8893C180.98 38.9829 184.007 39.8279 184.701 39.8279C185.396 39.8279 186.19 39.6291 186.488 39.4303C186.786 39.2315 187.729 37.7402 188.523 36.0998C189.366 34.4595 190.359 32.8191 190.706 32.5209C191.103 32.1729 192.294 31.7752 193.386 31.5764C194.676 31.3776 196.066 31.5267 197.356 32.0238C198.448 32.4712 200.234 33.7636 201.276 34.9566C203.113 36.9946 203.212 37.2431 203.013 39.8777C202.864 41.9157 202.467 43.1087 201.425 44.4508C200.681 45.445 199.391 46.638 198.597 47.0356C197.803 47.4333 196.215 47.7812 195.123 47.7812C194.031 47.7812 192.344 47.3836 191.302 46.8865C190.309 46.4391 188.969 45.3953 188.274 44.5502C187.381 43.4566 186.686 43.1087 185.744 43.2081C185.049 43.2578 180.88 42.0648 176.513 40.5239C171.451 38.7344 167.233 37.5911 164.851 37.2928C162.816 37.0443 158.896 36.6963 156.167 36.4478C153.437 36.1993 150.46 35.6028 149.566 35.1554C148.078 34.4098 147.879 34.4098 146.638 35.2051C145.696 35.8513 143.959 36.1495 141.031 36.2987C138.649 36.3981 136.366 36.249 135.82 35.9507C135.026 35.5531 134.53 35.7022 133.19 36.8952C132.346 37.6905 130.659 38.5852 129.468 38.8835C127.88 39.2812 126.887 39.2315 125.349 38.7344C123.414 38.1379 123.215 38.1379 122.024 39.3309C121.329 40.0268 119.344 41.0707 117.657 41.7169C115.92 42.3631 113.687 42.8104 112.744 42.711C111.355 42.6116 110.858 42.8104 110.213 43.8046C109.816 44.5005 107.384 46.2403 104.903 47.6321C102.372 49.0737 100.238 50.2666 100.089 50.2666C99.9406 50.2666 99.8414 49.521 99.8414 48.6263C99.8414 47.135 100.139 46.8368 103.315 45.1467C105.251 44.1526 106.987 42.8601 107.285 42.3134C107.633 41.6174 107.583 40.8221 107.037 39.5794C106.64 38.635 105.548 37.3923 104.655 36.8455C103.811 36.2987 102.223 35.7519 101.181 35.6028C99.5436 35.4039 99.3451 35.2051 99.3451 33.863C99.3451 33.0179 99.6429 32.2723 99.9406 32.1729C100.288 32.0735 101.578 32.1729 102.819 32.4214C104.06 32.6203 105.201 32.8191 105.399 32.8688C105.648 32.8688 106.491 33.4653 107.384 34.2109C108.228 35.0063 109.469 36.4478 110.114 37.442C110.709 38.4858 111.752 39.48 112.347 39.6291C112.992 39.7782 114.779 39.4303 116.317 38.8835C117.905 38.287 119.543 37.3425 119.94 36.6963C120.585 35.8016 120.635 35.2051 120.238 33.6144C119.94 32.5209 119.692 30.5822 119.692 29.2401C119.692 27.4009 119.989 26.5559 121.032 25.3629C121.826 24.4681 122.967 23.5237 123.662 23.1757C124.356 22.8278 125.696 22.4301 126.639 22.2313C127.582 22.0822 129.17 22.1319 130.113 22.4301C131.056 22.6787 132.445 23.5237 133.19 24.2693C134.083 25.1641 134.828 26.8044 135.324 28.8922C135.721 30.6817 136.366 32.4214 136.713 32.8191C137.16 33.2665 138.301 33.4156 140.882 33.3162C143.512 33.1671 144.703 32.8688 145.348 32.2226C146.093 31.477 146.241 30.632 145.944 22.1816L147.581 21.3365C148.475 20.8892 149.368 20.4915 149.566 20.4915ZM124.009 26.8044C123.513 27.3015 123.116 28.3454 123.165 29.2401C123.165 30.1349 123.562 31.8249 124.009 32.9682C124.605 34.3601 125.349 35.2051 126.391 35.6525C127.384 36.0501 128.327 36.0998 129.22 35.8016C130.014 35.5531 130.957 34.708 131.354 33.863C131.751 33.0179 132.098 31.8249 132.098 31.129C132.098 30.4331 131.8 29.1407 131.453 28.246C131.056 27.4009 130.46 26.4068 130.063 26.1085C129.666 25.8103 128.922 25.4126 128.376 25.2635C127.83 25.1144 126.838 25.2138 126.143 25.4623C125.448 25.7606 124.505 26.3571 124.009 26.8044ZM162.866 26.9038C165.298 30.5822 166.439 32.1232 167.035 32.7694C167.63 33.3659 168.474 33.863 168.92 33.863C169.417 33.863 171.154 33.2168 172.791 32.3717C174.429 31.5267 175.918 30.5325 176.116 30.1349C176.364 29.6378 176.067 28.9419 175.273 28.0968C174.578 27.3512 173.139 26.3571 172.047 25.86C170.955 25.3629 169.367 24.9155 168.573 24.9155C167.779 24.9155 166.141 25.3629 164.95 25.9097L162.866 26.9038ZM191.748 38.2373C191.153 39.3806 190.657 40.8718 190.657 41.5677C190.657 42.3631 191.202 43.2081 192.046 43.8046C192.79 44.4011 193.833 44.7988 194.378 44.7988C194.974 44.7988 195.917 44.5005 196.512 44.1526C197.108 43.8046 198.051 42.9099 198.597 42.0648C199.143 41.2695 199.589 39.8279 199.589 38.9829C199.589 37.8893 199.192 36.8952 198.349 36.0998C197.555 35.2548 196.562 34.8571 195.47 34.8571C194.527 34.8571 193.535 35.1554 193.287 35.5033C192.989 35.8016 192.294 37.0443 191.748 38.2373ZM143.562 12.9856C144.852 12.9856 145.58 13.2341 145.745 13.7312C145.894 14.1289 145.795 14.9242 145.497 15.471C145.199 16.1172 144.505 16.4651 143.661 16.4651C142.917 16.5149 142.023 16.1669 141.676 15.7195C141.329 15.3219 141.18 14.5265 141.329 13.9797C141.527 13.1844 142.023 12.9856 143.562 12.9856ZM150.212 12.8365C150.757 12.9856 151.403 13.3832 151.601 13.6815C151.8 13.9797 151.948 14.3774 151.948 14.6259C151.948 14.8248 151.601 15.3219 151.204 15.7195C150.757 16.1172 149.963 16.4651 149.467 16.4651C148.921 16.4651 148.177 16.1172 147.73 15.7195C147.333 15.3219 147.035 14.8248 147.035 14.6259C147.035 14.3774 147.184 13.9797 147.383 13.6815C147.581 13.3832 148.078 12.9856 148.475 12.8365C148.921 12.6873 149.666 12.6873 150.212 12.8365Z" fill="#5D9D9F"/>
</svg>
